<svg width="33" height="32" viewBox="0 0 33 32" fill="none" xmlns="http://www.w3.org/2000/svg">
<path fill-rule="evenodd" clip-rule="evenodd" d="M9.98747 3.54346C8.89558 3.54342 7.98505 3.54339 7.26223 3.64058C6.49929 3.74315 5.81047 3.96879 5.25695 4.52231C4.70343 5.07584 4.47778 5.76466 4.37521 6.5276C4.27803 7.25042 4.27806 8.16092 4.27809 9.2528V9.37922C4.27806 10.4711 4.27803 11.3816 4.37521 12.1045C4.47778 12.8674 4.70343 13.5562 5.25695 14.1097C5.81047 14.6633 6.49929 14.8889 7.26223 14.9915C7.98505 15.0887 8.89555 15.0886 9.98744 15.0886H10.1139C11.2057 15.0886 12.1163 15.0887 12.8391 14.9915C13.602 14.8889 14.2909 14.6633 14.8444 14.1097C15.3979 13.5562 15.6235 12.8674 15.7261 12.1045C15.8233 11.3816 15.8233 10.4711 15.8232 9.37926V9.25284C15.8233 8.16095 15.8233 7.25042 15.7261 6.5276C15.6235 5.76466 15.3979 5.07584 14.8444 4.52231C14.2909 3.96879 13.602 3.74315 12.8391 3.64058C12.1163 3.54339 11.2058 3.54342 10.1139 3.54346H9.98747ZM6.54594 5.81131C6.70432 5.65294 6.94433 5.52263 7.50513 5.44724C8.09216 5.36831 8.87912 5.36638 10.0507 5.36638C11.2222 5.36638 12.0092 5.36831 12.5962 5.44724C13.157 5.52263 13.397 5.65294 13.5554 5.81131C13.7138 5.96968 13.8441 6.2097 13.9195 6.7705C13.9984 7.35752 14.0003 8.14449 14.0003 9.31603C14.0003 10.4876 13.9984 11.2745 13.9195 11.8616C13.8441 12.4224 13.7138 12.6624 13.5554 12.8208C13.397 12.9791 13.157 13.1094 12.5962 13.1848C12.0092 13.2637 11.2222 13.2657 10.0507 13.2657C8.87912 13.2657 8.09216 13.2637 7.50513 13.1848C6.94433 13.1094 6.70432 12.9791 6.54594 12.8208C6.38757 12.6624 6.25727 12.4224 6.18187 11.8616C6.10295 11.2745 6.10101 10.4876 6.10101 9.31603C6.10101 8.14449 6.10295 7.35752 6.18187 6.7705C6.25727 6.2097 6.38757 5.96968 6.54594 5.81131Z" fill="#0FCE61"/>
<path fill-rule="evenodd" clip-rule="evenodd" d="M23.3555 16.9115C22.2636 16.9115 21.3531 16.9114 20.6303 17.0086C19.8673 17.1112 19.1785 17.3368 18.625 17.8904C18.0715 18.4439 17.8458 19.1327 17.7433 19.8957C17.6461 20.6185 17.6461 21.529 17.6461 22.6209V22.7473C17.6461 23.8392 17.6461 24.7497 17.7433 25.4725C17.8458 26.2355 18.0715 26.9243 18.625 27.4778C19.1785 28.0313 19.8673 28.257 20.6303 28.3595C21.3531 28.4567 22.2636 28.4567 23.3554 28.4567H23.4819C24.5738 28.4567 25.4844 28.4567 26.2071 28.3595C26.9701 28.257 27.6589 28.0313 28.2124 27.4778C28.766 26.9243 28.9916 26.2355 29.0942 25.4725C29.1914 24.7497 29.1913 23.8392 29.1913 22.7474V22.6209C29.1913 21.529 29.1914 20.6185 29.0942 19.8957C28.9916 19.1327 28.766 18.4439 28.2124 17.8904C27.6589 17.3368 26.9701 17.1112 26.2071 17.0086C25.4843 16.9114 24.5738 16.9115 23.4819 16.9115H23.3555ZM19.914 19.1794C20.0724 19.021 20.3124 18.8907 20.8732 18.8153C21.4602 18.7364 22.2472 18.7344 23.4187 18.7344C24.5903 18.7344 25.3772 18.7364 25.9643 18.8153C26.5251 18.8907 26.7651 19.021 26.9234 19.1794C27.0818 19.3377 27.2121 19.5778 27.2875 20.1386C27.3664 20.7256 27.3684 21.5125 27.3684 22.6841C27.3684 23.8556 27.3664 24.6426 27.2875 25.2296C27.2121 25.7904 27.0818 26.0304 26.9234 26.1888C26.7651 26.3472 26.5251 26.4775 25.9643 26.5529C25.3772 26.6318 24.5903 26.6337 23.4187 26.6337C22.2472 26.6337 21.4602 26.6318 20.8732 26.5529C20.3124 26.4775 20.0724 26.3472 19.914 26.1888C19.7556 26.0304 19.6253 25.7904 19.5499 25.2296C19.471 24.6426 19.4691 23.8556 19.4691 22.6841C19.4691 21.5125 19.471 20.7256 19.5499 20.1386C19.6253 19.5778 19.7556 19.3377 19.914 19.1794Z" fill="#0FCE61"/>
<path fill-rule="evenodd" clip-rule="evenodd" d="M9.98747 16.9115H10.1139C11.2058 16.9115 12.1163 16.9114 12.8391 17.0086C13.602 17.1112 14.2909 17.3368 14.8444 17.8904C15.3979 18.4439 15.6235 19.1327 15.7261 19.8957C15.8233 20.6185 15.8233 21.529 15.8232 22.6209V22.7473C15.8233 23.8392 15.8233 24.7497 15.7261 25.4725C15.6235 26.2355 15.3979 26.9243 14.8444 27.4778C14.2909 28.0313 13.602 28.257 12.8391 28.3595C12.1163 28.4567 11.2058 28.4567 10.1139 28.4567H9.98748C8.89561 28.4567 7.98504 28.4567 7.26223 28.3595C6.49929 28.257 5.81047 28.0313 5.25695 27.4778C4.70343 26.9243 4.47778 26.2355 4.37521 25.4725C4.27803 24.7497 4.27806 23.8392 4.27809 22.7473V22.6209C4.27806 21.529 4.27803 20.6185 4.37521 19.8957C4.47778 19.1327 4.70343 18.4439 5.25695 17.8904C5.81047 17.3368 6.49929 17.1112 7.26223 17.0086C7.98506 16.9114 8.89557 16.9115 9.98747 16.9115ZM7.50513 18.8153C6.94433 18.8907 6.70432 19.021 6.54594 19.1794C6.38757 19.3377 6.25727 19.5778 6.18187 20.1386C6.10295 20.7256 6.10101 21.5125 6.10101 22.6841C6.10101 23.8556 6.10295 24.6426 6.18187 25.2296C6.25727 25.7904 6.38757 26.0304 6.54594 26.1888C6.70432 26.3472 6.94433 26.4775 7.50513 26.5529C8.09216 26.6318 8.87912 26.6337 10.0507 26.6337C11.2222 26.6337 12.0092 26.6318 12.5962 26.5529C13.157 26.4775 13.397 26.3472 13.5554 26.1888C13.7138 26.0304 13.8441 25.7904 13.9195 25.2296C13.9984 24.6426 14.0003 23.8556 14.0003 22.6841C14.0003 21.5125 13.9984 20.7256 13.9195 20.1386C13.8441 19.5778 13.7138 19.3377 13.5554 19.1794C13.397 19.021 13.157 18.8907 12.5962 18.8153C12.0092 18.7364 11.2222 18.7344 10.0507 18.7344C8.87912 18.7344 8.09216 18.7364 7.50513 18.8153Z" fill="#0FCE61"/>
<path fill-rule="evenodd" clip-rule="evenodd" d="M23.3555 3.54346C22.2636 3.54342 21.3531 3.54339 20.6303 3.64058C19.8673 3.74315 19.1785 3.96879 18.625 4.52231C18.0715 5.07584 17.8458 5.76466 17.7433 6.5276C17.6461 7.25042 17.6461 8.16093 17.6461 9.25284V9.37922C17.6461 10.4711 17.6461 11.3816 17.7433 12.1045C17.8458 12.8674 18.0715 13.5562 18.625 14.1097C19.1785 14.6633 19.8673 14.8889 20.6303 14.9915C21.3531 15.0887 22.2636 15.0886 23.3555 15.0886H23.4819C24.5738 15.0886 25.4843 15.0887 26.2071 14.9915C26.9701 14.8889 27.6589 14.6633 28.2124 14.1097C28.766 13.5562 28.9916 12.8674 29.0942 12.1045C29.1914 11.3816 29.1913 10.4711 29.1913 9.37926V9.25284C29.1913 8.16095 29.1914 7.25042 29.0942 6.5276C28.9916 5.76466 28.766 5.07584 28.2124 4.52231C27.6589 3.96879 26.9701 3.74315 26.2071 3.64058C25.4843 3.54339 24.5738 3.54342 23.4819 3.54346H23.3555ZM19.914 5.81131C20.0724 5.65294 20.3124 5.52263 20.8732 5.44724C21.4602 5.36831 22.2472 5.36638 23.4187 5.36638C24.5903 5.36638 25.3772 5.36831 25.9643 5.44724C26.5251 5.52263 26.7651 5.65294 26.9234 5.81131C27.0818 5.96968 27.2121 6.2097 27.2875 6.7705C27.3664 7.35752 27.3684 8.14449 27.3684 9.31603C27.3684 10.4876 27.3664 11.2745 27.2875 11.8616C27.2121 12.4224 27.0818 12.6624 26.9234 12.8208C26.7651 12.9791 26.5251 13.1094 25.9643 13.1848C25.3772 13.2637 24.5903 13.2657 23.4187 13.2657C22.2472 13.2657 21.4602 13.2637 20.8732 13.1848C20.3124 13.1094 20.0724 12.9791 19.914 12.8208C19.7556 12.6624 19.6253 12.4224 19.5499 11.8616C19.471 11.2745 19.4691 10.4876 19.4691 9.31603C19.4691 8.14449 19.471 7.35752 19.5499 6.7705C19.6253 6.2097 19.7556 5.96968 19.914 5.81131Z" fill="#0FCE61"/>
<ellipse cx="9.9639" cy="9.22892" rx="4.6875" ry="5.72917" fill="#0FCE61"/>
<ellipse cx="9.9639" cy="22.7709" rx="4.6875" ry="5.72917" fill="#0FCE61"/>
<ellipse cx="23.5055" cy="9.22892" rx="4.6875" ry="5.72917" fill="#0FCE61"/>
</svg>
