<svg width="33" height="32" viewBox="0 0 33 32" fill="none" xmlns="http://www.w3.org/2000/svg">
<path fill-rule="evenodd" clip-rule="evenodd" d="M9.9873 3.54273C8.89542 3.54269 7.98488 3.54266 7.26207 3.63984C6.49912 3.74242 5.8103 3.96806 5.25678 4.52158C4.70326 5.0751 4.47762 5.76392 4.37504 6.52687C4.27786 7.24969 4.27789 8.16018 4.27792 9.25207V9.37849C4.27789 10.4704 4.27786 11.3809 4.37504 12.1037C4.47762 12.8667 4.70326 13.5555 5.25678 14.109C5.8103 14.6625 6.49912 14.8882 7.26207 14.9908C7.98488 15.0879 8.89538 15.0879 9.98727 15.0879H10.1137C11.2056 15.0879 12.1161 15.0879 12.8389 14.9908C13.6019 14.8882 14.2907 14.6625 14.8442 14.109C15.3977 13.5555 15.6234 12.8667 15.726 12.1037C15.8231 11.3809 15.8231 10.4704 15.8231 9.37852V9.25211C15.8231 8.16022 15.8231 7.24969 15.726 6.52687C15.6234 5.76392 15.3977 5.0751 14.8442 4.52158C14.2907 3.96806 13.6019 3.74242 12.8389 3.63984C12.1161 3.54266 11.2056 3.54269 10.1137 3.54273H9.9873ZM6.54578 5.81058C6.70415 5.65221 6.94416 5.5219 7.50497 5.4465C8.09199 5.36758 8.87895 5.36565 10.0505 5.36565C11.222 5.36565 12.009 5.36758 12.596 5.4465C13.1568 5.5219 13.3968 5.65221 13.5552 5.81058C13.7136 5.96895 13.8439 6.20896 13.9193 6.76977C13.9982 7.35679 14.0001 8.14376 14.0001 9.3153C14.0001 10.4868 13.9982 11.2738 13.9193 11.8608C13.8439 12.4216 13.7136 12.6616 13.5552 12.82C13.3968 12.9784 13.1568 13.1087 12.596 13.1841C12.009 13.263 11.222 13.265 10.0505 13.265C8.87895 13.265 8.09199 13.263 7.50497 13.1841C6.94416 13.1087 6.70415 12.9784 6.54578 12.82C6.38741 12.6616 6.2571 12.4216 6.1817 11.8608C6.10278 11.2738 6.10084 10.4868 6.10084 9.3153C6.10084 8.14376 6.10278 7.35679 6.1817 6.76977C6.2571 6.20896 6.38741 5.96895 6.54578 5.81058Z" fill="#BEBEC7"/>
<path fill-rule="evenodd" clip-rule="evenodd" d="M23.3554 16.9108C22.2635 16.9107 21.3529 16.9107 20.6301 17.0079C19.8672 17.1105 19.1784 17.3361 18.6248 17.8896C18.0713 18.4432 17.8457 19.132 17.7431 19.8949C17.6459 20.6177 17.6459 21.5283 17.646 22.6202V22.7465C17.6459 23.8384 17.6459 24.749 17.7431 25.4718C17.8457 26.2347 18.0713 26.9235 18.6248 27.4771C19.1784 28.0306 19.8672 28.2562 20.6301 28.3588C21.3529 28.456 22.2634 28.456 23.3552 28.4559H23.4817C24.5736 28.456 25.4842 28.456 26.207 28.3588C26.9699 28.2562 27.6587 28.0306 28.2123 27.4771C28.7658 26.9235 28.9914 26.2347 29.094 25.4718C29.1912 24.749 29.1912 23.8385 29.1911 22.7467V22.6202C29.1912 21.5283 29.1912 20.6177 29.094 19.8949C28.9914 19.132 28.7658 18.4432 28.2123 17.8896C27.6587 17.3361 26.9699 17.1105 26.207 17.0079C25.4842 16.9107 24.5736 16.9107 23.4817 16.9108H23.3554ZM19.9138 19.1786C20.0722 19.0203 20.3122 18.89 20.873 18.8146C21.46 18.7356 22.247 18.7337 23.4186 18.7337C24.5901 18.7337 25.3771 18.7356 25.9641 18.8146C26.5249 18.89 26.7649 19.0203 26.9233 19.1786C27.0816 19.337 27.2119 19.577 27.2873 20.1378C27.3663 20.7248 27.3682 21.5118 27.3682 22.6834C27.3682 23.8549 27.3663 24.6419 27.2873 25.2289C27.2119 25.7897 27.0816 26.0297 26.9233 26.1881C26.7649 26.3464 26.5249 26.4768 25.9641 26.5521C25.3771 26.6311 24.5901 26.633 23.4186 26.633C22.247 26.633 21.46 26.6311 20.873 26.5521C20.3122 26.4768 20.0722 26.3464 19.9138 26.1881C19.7555 26.0297 19.6252 25.7897 19.5498 25.2289C19.4708 24.6419 19.4689 23.8549 19.4689 22.6834C19.4689 21.5118 19.4708 20.7248 19.5498 20.1378C19.6252 19.577 19.7555 19.337 19.9138 19.1786Z" fill="#BEBEC7"/>
<path fill-rule="evenodd" clip-rule="evenodd" d="M9.9873 16.9108H10.1137C11.2056 16.9107 12.1161 16.9107 12.8389 17.0079C13.6019 17.1105 14.2907 17.3361 14.8442 17.8896C15.3977 18.4432 15.6234 19.132 15.726 19.8949C15.8231 20.6177 15.8231 21.5282 15.8231 22.6201V22.7465C15.8231 23.8384 15.8231 24.749 15.726 25.4718C15.6234 26.2347 15.3977 26.9235 14.8442 27.4771C14.2907 28.0306 13.6019 28.2562 12.8389 28.3588C12.1161 28.456 11.2056 28.456 10.1138 28.4559H9.98731C8.89544 28.456 7.98488 28.456 7.26207 28.3588C6.49912 28.2562 5.8103 28.0306 5.25678 27.4771C4.70326 26.9235 4.47762 26.2347 4.37504 25.4718C4.27786 24.749 4.27789 23.8385 4.27792 22.7466V22.6202C4.27789 21.5283 4.27786 20.6177 4.37504 19.8949C4.47762 19.132 4.70326 18.4432 5.25678 17.8896C5.8103 17.3361 6.49912 17.1105 7.26207 17.0079C7.98489 16.9107 8.8954 16.9107 9.9873 16.9108ZM7.50497 18.8146C6.94416 18.89 6.70415 19.0203 6.54578 19.1786C6.38741 19.337 6.2571 19.577 6.1817 20.1378C6.10278 20.7248 6.10084 21.5118 6.10084 22.6834C6.10084 23.8549 6.10278 24.6419 6.1817 25.2289C6.2571 25.7897 6.38741 26.0297 6.54578 26.1881C6.70415 26.3464 6.94416 26.4768 7.50497 26.5521C8.09199 26.6311 8.87895 26.633 10.0505 26.633C11.222 26.633 12.009 26.6311 12.596 26.5521C13.1568 26.4768 13.3968 26.3464 13.5552 26.1881C13.7136 26.0297 13.8439 25.7897 13.9193 25.2289C13.9982 24.6419 14.0001 23.8549 14.0001 22.6834C14.0001 21.5118 13.9982 20.7248 13.9193 20.1378C13.8439 19.577 13.7136 19.337 13.5552 19.1786C13.3968 19.0203 13.1568 18.89 12.596 18.8146C12.009 18.7356 11.222 18.7337 10.0505 18.7337C8.87895 18.7337 8.09199 18.7356 7.50497 18.8146Z" fill="#BEBEC7"/>
<path fill-rule="evenodd" clip-rule="evenodd" d="M23.3554 3.54273C22.2635 3.54269 21.3529 3.54266 20.6301 3.63984C19.8672 3.74242 19.1784 3.96806 18.6248 4.52158C18.0713 5.0751 17.8457 5.76392 17.7431 6.52687C17.6459 7.24969 17.6459 8.1602 17.646 9.2521V9.37849C17.6459 10.4704 17.6459 11.3809 17.7431 12.1037C17.8457 12.8667 18.0713 13.5555 18.6248 14.109C19.1784 14.6625 19.8672 14.8882 20.6301 14.9908C21.3529 15.0879 22.2634 15.0879 23.3553 15.0879H23.4817C24.5736 15.0879 25.4842 15.0879 26.207 14.9908C26.9699 14.8882 27.6587 14.6625 28.2123 14.109C28.7658 13.5555 28.9914 12.8667 29.094 12.1037C29.1912 11.3809 29.1912 10.4704 29.1911 9.37852V9.25211C29.1912 8.16022 29.1912 7.24969 29.094 6.52687C28.9914 5.76392 28.7658 5.0751 28.2123 4.52158C27.6587 3.96806 26.9699 3.74242 26.207 3.63984C25.4842 3.54266 24.5737 3.54269 23.4818 3.54273H23.3554ZM19.9138 5.81058C20.0722 5.65221 20.3122 5.5219 20.873 5.4465C21.46 5.36758 22.247 5.36565 23.4186 5.36565C24.5901 5.36565 25.3771 5.36758 25.9641 5.4465C26.5249 5.5219 26.7649 5.65221 26.9233 5.81058C27.0816 5.96895 27.2119 6.20896 27.2873 6.76977C27.3663 7.35679 27.3682 8.14376 27.3682 9.3153C27.3682 10.4868 27.3663 11.2738 27.2873 11.8608C27.2119 12.4216 27.0816 12.6616 26.9233 12.82C26.7649 12.9784 26.5249 13.1087 25.9641 13.1841C25.3771 13.263 24.5901 13.265 23.4186 13.265C22.247 13.265 21.46 13.263 20.873 13.1841C20.3122 13.1087 20.0722 12.9784 19.9138 12.82C19.7555 12.6616 19.6252 12.4216 19.5498 11.8608C19.4708 11.2738 19.4689 10.4868 19.4689 9.3153C19.4689 8.14376 19.4708 7.35679 19.5498 6.76977C19.6252 6.20896 19.7555 5.96895 19.9138 5.81058Z" fill="#BEBEC7"/>
<ellipse cx="9.96375" cy="9.22843" rx="4.6875" ry="5.72917" fill="#BEBEC7"/>
<ellipse cx="9.96375" cy="22.7702" rx="4.6875" ry="5.72917" fill="#BEBEC7"/>
<ellipse cx="23.5053" cy="9.22843" rx="4.6875" ry="5.72917" fill="#BEBEC7"/>
</svg>
