<svg width="33" height="32" viewBox="0 0 33 32" fill="none" xmlns="http://www.w3.org/2000/svg">
<path fill-rule="evenodd" clip-rule="evenodd" d="M29.3555 6.64684C29.3555 4.38102 27.6574 2.4848 25.4912 2.32978C25.2715 2.31392 10.3093 2.31795 8.47153 2.31844L8.28765 2.31849C5.98693 2.31849 4.11432 4.19109 4.11432 6.49181V25.3247C4.11432 26.5515 5.11222 27.5494 6.33907 27.5494H20.8867C22.1135 27.5494 23.1114 26.5515 23.1114 25.3247V20.5898H27.1308C28.3576 20.5898 29.3555 19.5919 29.3555 18.365V6.64684ZM27.2529 18.365C27.2529 18.4328 27.1985 18.4872 27.1308 18.4872H23.1114V6.49181C23.1114 3.81791 27.2529 3.63468 27.2529 6.64684V18.365ZM16.4886 18.5816C16.4886 18.0587 16.9118 17.6355 17.4348 17.6355C17.9578 17.6355 18.3809 18.0587 18.3809 18.5816V22.1842C18.3809 22.7072 17.9578 23.1304 17.4348 23.1304C16.9118 23.1304 16.4886 22.7072 16.4886 22.1842V18.5816ZM13.6171 15.6841C13.0941 15.6841 12.6709 16.1073 12.6709 16.6302V22.1843C12.6709 22.7073 13.0941 23.1305 13.6171 23.1305C14.14 23.1305 14.5632 22.7073 14.5632 22.1843V16.6302C14.5632 16.1073 14.14 15.6841 13.6171 15.6841ZM8.85291 19.5573C8.85291 19.0344 9.2761 18.6112 9.79907 18.6112C10.322 18.6112 10.7452 19.0344 10.7452 19.5573V22.1842C10.7452 22.7072 10.322 23.1304 9.79907 23.1304C9.2761 23.1304 8.85291 22.7072 8.85291 22.1842V19.5573ZM8.03762 9.22696C8.03762 8.83789 8.35303 8.52249 8.74209 8.52249H10.0577V7.20729C10.0577 6.81822 10.3731 6.50282 10.7622 6.50282H11.3731C11.7622 6.50282 12.0776 6.81822 12.0776 7.20729V8.52249H13.3927C13.7818 8.52249 14.0972 8.83789 14.0972 9.22696V9.83787C14.0972 10.2269 13.7818 10.5423 13.3927 10.5423H12.0776V11.8579C12.0776 12.247 11.7622 12.5624 11.3731 12.5624H10.7622C10.3731 12.5624 10.0577 12.247 10.0577 11.8579V10.5423H8.74209C8.35302 10.5423 8.03762 10.2269 8.03762 9.83787V9.22696Z" fill="#BEBEC7"/>
</svg>
