<svg width="33" height="32" viewBox="0 0 33 32" fill="none" xmlns="http://www.w3.org/2000/svg">
<path d="M28.8274 23.8179V15.4317C28.8274 14.624 28.8267 14.2199 28.7285 13.8441C28.6415 13.511 28.4986 13.1958 28.3052 12.911C28.0871 12.5896 27.7837 12.3231 27.1759 11.7912L19.9203 5.44256C18.7917 4.45507 18.2274 3.96157 17.5924 3.77377C17.0328 3.60829 16.4364 3.60829 15.8768 3.77377C15.2422 3.96143 14.6787 4.45446 13.5519 5.44046L6.29388 11.7912C5.68602 12.3231 5.3828 12.5896 5.16462 12.911C4.97127 13.1958 4.8273 13.511 4.74027 13.8441C4.64206 14.2199 4.64206 14.624 4.64206 15.4317V23.8179C4.64206 25.2265 4.64206 25.9305 4.87218 26.4861C5.17902 27.2269 5.76716 27.8161 6.50792 28.123C7.06349 28.3531 7.7678 28.3531 9.17642 28.3531C10.585 28.3531 11.2901 28.3531 11.8457 28.123C12.5865 27.8161 13.1744 27.227 13.4813 26.4862C13.7114 25.9307 13.7116 25.2264 13.7116 23.8177V22.3062C13.7116 20.6365 15.0651 19.283 16.7347 19.283C18.4044 19.283 19.7579 20.6365 19.7579 22.3062V23.8177C19.7579 25.2264 19.7579 25.9307 19.988 26.4862C20.2949 27.227 20.883 27.8161 21.6238 28.123C22.1793 28.3531 22.8836 28.3531 24.2923 28.3531C25.7009 28.3531 26.406 28.3531 26.9615 28.123C27.7023 27.8161 28.2903 27.2269 28.5971 26.4861C28.8272 25.9305 28.8274 25.2265 28.8274 23.8179Z" fill="#BEBEC7" stroke="#BEBEC7" stroke-width="1.13369" stroke-linecap="round" stroke-linejoin="round"/>
</svg>
