<svg width="37" height="37" viewBox="0 0 37 37" fill="none" xmlns="http://www.w3.org/2000/svg">
<g clip-path="url(#clip0_208_11759)">
<path d="M0.120583 18.7284C0.120583 28.6695 8.17946 36.7284 18.1206 36.7284C28.0617 36.7284 36.1206 28.6695 36.1206 18.7284C36.1206 8.78727 28.0617 0.728394 18.1206 0.728394C8.17946 0.728394 0.120583 8.78727 0.120583 18.7284Z" fill="#FFE7CC"/>
<path d="M19.9228 9.64023C19.9206 9.56176 19.835 9.51066 19.7676 9.55092C16.1996 11.6825 16.2657 17.0295 16.3083 17.9984C16.3115 18.0715 16.2424 18.123 16.1762 18.0919C15.764 17.8977 14.583 17.1667 14.5178 15.1415C14.5152 15.0629 14.4304 15.0123 14.3628 15.0524C12.297 16.2768 10.9114 18.5382 10.9114 21.0459C10.9114 24.8842 14.1381 27.9957 18.1186 27.9957C22.099 27.9957 25.3258 24.8842 25.3258 21.0459C25.3257 15.4697 20.0545 14.2705 19.9228 9.64023Z" fill="#FF6A49" stroke="#FF6A49" stroke-width="1.5444"/>
<path d="M19.2019 15.7473C19.2006 15.7002 19.1492 15.6695 19.1088 15.6937C16.968 16.9726 17.0077 20.1808 17.0332 20.7622C17.0351 20.806 16.9937 20.837 16.954 20.8182C16.7066 20.7018 15.998 20.2631 15.9589 19.048C15.9574 19.0009 15.9065 18.9705 15.8659 18.9946C14.6264 19.7292 13.795 21.086 13.795 22.5907C13.795 24.8936 15.7311 26.7605 18.1194 26.7605C20.5076 26.7605 22.4437 24.8936 22.4437 22.5907C22.4437 19.245 19.2809 18.5254 19.2019 15.7473Z" fill="#FFA06B" stroke="#FFA06B" stroke-width="0.92664"/>
</g>
<defs>
<clipPath id="clip0_208_11759">
<rect width="36" height="36" fill="white" transform="translate(0.118164 0.728394)"/>
</clipPath>
</defs>
</svg>
