<svg width="37" height="37" viewBox="0 0 37 37" fill="none" xmlns="http://www.w3.org/2000/svg">
<g clip-path="url(#clip0_208_11986)">
<path d="M4.28484 18.4998C4.28484 26.2317 10.5528 32.4998 18.2848 32.4998C26.0168 32.4998 32.2848 26.2317 32.2848 18.4998C32.2848 10.7678 26.0168 4.49976 18.2848 4.49976C10.5528 4.49976 4.28484 10.7678 4.28484 18.4998Z" fill="#E7E7ED"/>
<g clip-path="url(#clip1_208_11986)">
<path d="M23.7587 17.6919C23.7984 16.621 24.7443 16.1763 24.7443 15.0404C24.7443 13.9044 24.3186 13.4201 23.7587 12.8499C23.7759 13.9322 22.3233 14.7868 22.3233 15.7437C22.3233 16.9632 23.1018 17.3094 23.7587 17.6919Z" fill="white"/>
<path d="M21.6644 15.2697C21.6909 14.5558 22.3213 14.2595 22.3213 13.5023C22.3213 12.7451 22.0375 12.4223 21.6644 12.0422C21.676 12.7636 20.7079 13.3333 20.7079 13.9711C20.7079 14.784 21.2267 15.0147 21.6644 15.2697Z" fill="white"/>
<path d="M23.131 21.0593L23.7993 21.7276H24.745V18.4995H23.131V21.0593Z" fill="white"/>
<path d="M22.326 18.4995H20.5733L22.326 20.2523V18.4995Z" fill="white"/>
<path d="M11.8317 13.1834L17.1467 18.4983H11.8317V21.7264H20.3747L23.6028 24.9545L24.7439 23.8133L12.9729 12.0422L11.8317 13.1834Z" fill="white"/>
</g>
</g>
<rect x="4.8233" y="5.03822" width="26.9231" height="26.9231" rx="13.4615" stroke="#BEBEC7" stroke-width="1.07692" stroke-dasharray="2.15 2.15"/>
<defs>
<clipPath id="clip0_208_11986">
<rect x="4.28484" y="4.49976" width="28" height="28" rx="14" fill="white"/>
</clipPath>
<clipPath id="clip1_208_11986">
<rect width="12.9122" height="12.9122" fill="white" transform="translate(11.8317 12.0425)"/>
</clipPath>
</defs>
</svg>
