<svg width="29" height="29" viewBox="0 0 29 29" fill="none" xmlns="http://www.w3.org/2000/svg">
<path d="M14.1318 27.3388C21.1609 27.3388 26.8591 21.6407 26.8591 14.6117C26.8591 7.58266 21.1609 1.88452 14.1318 1.88452C7.10273 1.88452 1.40454 7.58266 1.40454 14.6117C1.40454 21.6407 7.10273 27.3388 14.1318 27.3388Z" fill="#EC6A63"/>
<path d="M14.1318 27.3388C21.1609 27.3388 26.8591 21.6407 26.8591 14.6117C26.8591 7.58266 21.1609 1.88452 14.1318 1.88452C7.10273 1.88452 1.40454 7.58266 1.40454 14.6117C1.40454 21.6407 7.10273 27.3388 14.1318 27.3388Z" fill="url(#paint0_linear_299_2600)"/>
<path d="M14.1318 27.3388C21.1609 27.3388 26.8591 21.6407 26.8591 14.6117C26.8591 7.58266 21.1609 1.88452 14.1318 1.88452C7.10273 1.88452 1.40454 7.58266 1.40454 14.6117C1.40454 21.6407 7.10273 27.3388 14.1318 27.3388Z" fill="url(#paint1_linear_299_2600)"/>
<path d="M14.5663 18.7283C14.5472 18.6975 14.5255 18.6685 14.5001 18.6414C14.4621 18.6006 14.4196 18.5671 14.3725 18.5408C14.3716 18.5408 14.3698 18.5399 14.3689 18.539C14.3544 18.5309 14.3399 18.5236 14.3254 18.5173C14.319 18.5146 14.3118 18.5119 14.3055 18.5091C14.2964 18.5055 14.2864 18.501 14.2774 18.4983C14.2683 18.4956 14.2584 18.4929 14.2493 18.4901C14.2421 18.4883 14.2348 18.4856 14.2267 18.4838C14.2167 18.4811 14.2067 18.4802 14.1968 18.4784C14.1895 18.4775 14.1823 18.4756 14.1751 18.4747C14.166 18.4738 14.1561 18.4729 14.147 18.472C14.1389 18.472 14.1307 18.4702 14.1216 18.4702C14.1135 18.4702 14.1053 18.4702 14.0972 18.4702C14.0872 18.4702 14.0773 18.4702 14.0673 18.4702C14.061 18.4702 14.0546 18.4711 14.0474 18.472C14.0365 18.4729 14.0247 18.4747 14.0139 18.4765C14.0084 18.4775 14.003 18.4784 13.9976 18.4802C13.9858 18.4829 13.974 18.4847 13.9623 18.4883C13.9568 18.4901 13.9514 18.4919 13.946 18.4929C13.9351 18.4965 13.9233 18.4992 13.9125 18.5037C13.9052 18.5064 13.898 18.5101 13.8916 18.5128C13.8826 18.5164 13.8735 18.52 13.8645 18.5245C13.8527 18.53 13.8418 18.5363 13.8309 18.5427C13.8273 18.5445 13.8228 18.5463 13.8192 18.549C13.8192 18.549 13.8192 18.549 13.8183 18.549C13.7875 18.568 13.7585 18.5897 13.7323 18.6151C13.6915 18.6531 13.658 18.6957 13.6317 18.7428L12.4464 20.8228C12.2979 21.0836 12.3885 21.415 12.6492 21.5635C12.7344 21.6115 12.8267 21.635 12.9182 21.635C13.1065 21.635 13.2904 21.5363 13.3909 21.3606L14.1207 20.0802L14.8841 21.3271C14.9864 21.4947 15.1648 21.587 15.3477 21.587C15.4446 21.587 15.5424 21.5617 15.6312 21.5073C15.8874 21.3507 15.968 21.0165 15.8114 20.7603L14.5681 18.7292L14.5663 18.7283Z" fill="#28323C"/>
<path d="M20.2574 17.4632C18.8611 17.5248 17.7681 17.0602 16.9114 16.0415C16.7186 15.8115 16.3754 15.7826 16.1463 15.9754C15.9163 16.1683 15.8873 16.5115 16.0802 16.7406C17.0935 17.9449 18.4173 18.5544 20.0183 18.5544C20.1134 18.5544 20.2094 18.5526 20.3054 18.548C20.6051 18.5344 20.8379 18.2809 20.8243 17.9812C20.8107 17.6814 20.5553 17.4487 20.2574 17.4623V17.4632Z" fill="#28323C"/>
<path d="M12.1187 15.9771C11.8896 15.7843 11.5464 15.8132 11.3535 16.0432C10.4969 17.0611 9.40388 17.5265 8.00664 17.4649C7.70781 17.4513 7.45336 17.6841 7.43977 17.9838C7.42619 18.2835 7.65891 18.5371 7.95864 18.5506C8.05554 18.5552 8.15152 18.557 8.24569 18.557C9.84667 18.557 11.1706 17.9476 12.1839 16.7432C12.3767 16.5132 12.3478 16.1709 12.1178 15.978L12.1187 15.9771Z" fill="#28323C"/>
<path d="M20.8924 22.077C20.8308 22.8394 20.3346 23.4615 19.6464 23.4615C18.9582 23.4615 18.4248 22.8412 18.4004 22.077C18.3995 21.0039 19.5232 19.106 19.5232 19.106C19.5232 19.106 20.9975 20.7613 20.8915 22.077H20.8924Z" fill="white"/>
<defs>
<linearGradient id="paint0_linear_299_2600" x1="19.5839" y1="20.0637" x2="8.43355" y2="8.91325" gradientUnits="userSpaceOnUse">
<stop stop-color="#D12626"/>
<stop offset="1" stop-color="#EC6A63"/>
</linearGradient>
<linearGradient id="paint1_linear_299_2600" x1="0.247516" y1="0.727623" x2="28.0164" y2="28.4956" gradientUnits="userSpaceOnUse">
<stop offset="0.368606" stop-color="#FF6A6A"/>
<stop offset="1" stop-color="#F72257"/>
</linearGradient>
</defs>
</svg>
