<svg width="37" height="37" viewBox="0 0 37 37" fill="none" xmlns="http://www.w3.org/2000/svg">
<g clip-path="url(#clip0_208_12142)">
<path d="M4.61816 18.4998C4.61816 26.2317 10.8862 32.4998 18.6182 32.4998C26.3502 32.4998 32.6182 26.2317 32.6182 18.4998C32.6182 10.7678 26.3502 4.49976 18.6182 4.49976C10.8862 4.49976 4.61816 10.7678 4.61816 18.4998Z" fill="#E7E7ED"/>
<path d="M11.9102 13.3733L17.4082 18.8713L16.632 19.6321H19.2408L20.6539 21.0452L21.0887 22.4582L24.0866 25.5497L25.2671 24.3692L13.0907 12.1929L11.9102 13.3733Z" fill="white"/>
<path d="M21.4 17.756L20.9197 17.083C20.8419 16.9747 20.7946 16.8496 20.7912 16.7143C20.7337 15.4865 20.6221 14.384 20.4732 13.5215C20.4255 13.5321 17.2298 13.5334 17.1824 13.5215C17.0302 14.384 16.9185 15.4865 16.8611 16.7143C16.8577 16.8496 16.8137 16.9747 16.7359 17.083C16.7112 17.1175 16.2246 17.7996 16.2556 17.756C15.8058 18.4899 15.5352 18.933 15.5352 19.9037V25.4877C15.5352 26.1811 16.0967 26.7459 16.7934 26.7459H20.8622C21.5555 26.7459 22.1204 26.1811 22.1204 25.4877V19.9037C22.1204 18.933 21.8464 18.4899 21.4 17.756ZM18.8295 23.6546C18.0313 23.6546 17.3819 23.0052 17.3819 22.207C17.3819 21.4088 18.0313 20.7628 18.8295 20.7628C19.6277 20.7628 20.2737 21.4088 20.2737 22.207C20.2737 23.0052 19.6277 23.6546 18.8295 23.6546Z" fill="white"/>
<path d="M17.2701 12.8515H20.3885C20.5745 12.8515 20.7267 12.6993 20.7267 12.5133V11.1875C20.7267 10.6261 20.2701 10.1729 19.712 10.1729H17.9465C17.3885 10.1729 16.9319 10.6261 16.9319 11.1875V12.5133C16.9319 12.6993 17.0841 12.8515 17.2701 12.8515Z" fill="white"/>
</g>
<rect x="5.15663" y="5.03822" width="26.9231" height="26.9231" rx="13.4615" stroke="#BEBEC7" stroke-width="1.07692" stroke-dasharray="2.15 2.15"/>
<defs>
<clipPath id="clip0_208_12142">
<rect x="4.61816" y="4.49976" width="28" height="28" rx="14" fill="white"/>
</clipPath>
</defs>
</svg>
