<svg width="25" height="25" viewBox="0 0 25 25" fill="none" xmlns="http://www.w3.org/2000/svg">
<path d="M21.419 8.27096C21.3275 7.91112 21.21 7.521 20.9387 7.19258C20.6331 6.82287 20.2189 6.63468 19.8533 6.46862C19.6291 6.36677 19.4173 6.27055 19.2818 6.15481C19.1472 6.03994 19.0179 5.84515 18.881 5.63894C18.6565 5.30094 18.4021 4.91788 17.9894 4.67517C17.5804 4.43461 17.1289 4.40143 16.7305 4.37212C16.4842 4.35401 16.2515 4.33688 16.0825 4.27434C15.9207 4.21446 15.7354 4.07788 15.5392 3.93328C15.2127 3.69263 14.8426 3.41989 14.3681 3.33544C13.9078 3.2535 13.4757 3.37886 13.0943 3.4894C12.8541 3.55903 12.6271 3.62484 12.4428 3.62484C12.2584 3.62484 12.0315 3.55908 11.7912 3.4894C11.4098 3.37886 10.9775 3.25367 10.5174 3.33544C10.043 3.41989 9.67288 3.69263 9.34631 3.93328C9.15013 4.07788 8.96482 4.21446 8.80294 4.27434C8.63399 4.33684 8.40137 4.35397 8.15503 4.37207C7.75664 4.40139 7.30516 4.43461 6.89612 4.67513C6.48347 4.91784 6.22904 5.3009 6.0046 5.6389C5.86767 5.84511 5.73835 6.0399 5.60377 6.15476C5.46825 6.27047 5.25646 6.36669 5.03226 6.46853C4.66673 6.63459 4.25243 6.82278 3.94688 7.19253C3.67551 7.52092 3.558 7.91108 3.46656 8.27092H1.86537V9.94794C1.86537 12.8198 2.96563 15.5197 4.96339 17.5504C5.96155 18.565 7.12402 19.3518 8.38988 19.8852V22.2355H16.4956V19.8852C17.7614 19.3518 18.924 18.565 19.9221 17.5504C21.9199 15.5198 23.0201 12.8198 23.0201 9.94798V8.27096H21.419ZM7.38313 16.3713C5.88965 15.1536 4.86472 13.4387 4.49703 11.5426L5.71318 11.299C6.02443 12.904 6.89293 14.3563 8.15875 15.3884L7.38313 16.3713ZM4.75845 8.27096C4.79679 8.16265 4.8408 8.06979 4.89604 8.00293C5.01834 7.85493 5.27075 7.74027 5.53804 7.61886C5.81668 7.49228 6.13256 7.34877 6.40104 7.11954C6.66862 6.89112 6.86166 6.60036 7.03201 6.3438C7.19621 6.0966 7.35123 5.86313 7.51688 5.76569C7.67905 5.67032 7.95369 5.65012 8.24448 5.62874C8.54978 5.60627 8.89574 5.58082 9.22694 5.45827C9.55186 5.33803 9.82919 5.13367 10.0739 4.95337C10.3129 4.77719 10.5387 4.61079 10.7312 4.57652C10.9112 4.54443 11.1735 4.62053 11.4512 4.70109C11.7483 4.78718 12.0851 4.88479 12.4427 4.88479C12.8003 4.88479 13.1371 4.78718 13.4342 4.70109C13.712 4.62058 13.9742 4.54443 14.1543 4.57652C14.3467 4.61075 14.5725 4.77719 14.8116 4.95337C15.0562 5.13367 15.3336 5.33807 15.6584 5.45827C15.9897 5.58086 16.3357 5.60631 16.6409 5.62878C16.9317 5.65016 17.2065 5.67036 17.3686 5.76574C17.5343 5.86317 17.6893 6.09664 17.8535 6.34384C18.0238 6.60036 18.2169 6.89116 18.4844 7.11958C18.7529 7.34881 19.0688 7.49232 19.3474 7.6189C19.6147 7.74032 19.8671 7.85501 19.9894 8.00297C20.0447 8.06983 20.0887 8.16269 20.127 8.27096H4.75845Z" fill="url(#paint0_linear_208_11664)"/>
<defs>
<linearGradient id="paint0_linear_208_11664" x1="12.4428" y1="22.2355" x2="8.66943" y2="4.0829" gradientUnits="userSpaceOnUse">
<stop stop-color="#BAA6F6"/>
<stop offset="0.740978" stop-color="#A3D7FA"/>
</linearGradient>
</defs>
</svg>
