<svg width="25" height="25" viewBox="0 0 25 25" fill="none" xmlns="http://www.w3.org/2000/svg">
<path d="M17.3363 8.00178C15.6387 6.51618 14.1726 5.2333 14.1726 2.16675C14.1726 1.81714 13.9623 1.50124 13.6388 1.36783C13.3145 1.23188 12.9437 1.30787 12.6963 1.55532C10.5587 3.69288 9.27836 6.45962 9.02837 9.43842L6.77597 8.31178C6.50655 8.17918 6.18899 8.19186 5.93478 8.34978C5.67972 8.50764 5.52434 8.78554 5.52434 9.08534C5.52434 10.1782 5.16624 10.8952 4.75073 11.7254C4.30229 12.6215 3.79469 13.6375 3.79469 15.1391C3.79469 19.9075 7.67458 23.7873 12.4429 23.7873C17.2113 23.7873 21.0912 19.9075 21.0912 15.1391C21.0912 11.2871 19.0963 9.54226 17.3363 8.00178ZM12.4429 20.328C10.5351 20.328 8.98363 18.7766 8.98363 16.8688C8.98363 15.1898 11.329 12.4906 11.7994 11.9669C12.1271 11.6021 12.7588 11.6021 13.0865 11.9669C13.5569 12.4906 15.9022 15.1898 15.9022 16.8688C15.9022 18.7766 14.3508 20.328 12.4429 20.328Z" fill="url(#paint0_linear_208_11820)"/>
<defs>
<linearGradient id="paint0_linear_208_11820" x1="12.4429" y1="23.7873" x2="12.4429" y2="1.30101" gradientUnits="userSpaceOnUse">
<stop stop-color="#FF5A4B"/>
<stop offset="1" stop-color="#FFC8A9"/>
</linearGradient>
</defs>
</svg>
