<svg width="33" height="33" viewBox="0 0 33 33" fill="none" xmlns="http://www.w3.org/2000/svg">
<rect x="0.11792" y="0.956787" width="32" height="32" rx="4" fill="white"/>
<path d="M19.1505 7.00952H22.6018C23.4246 7.00952 24.0911 7.67613 24.0911 8.49916V25.63C24.0911 26.453 23.4246 27.1196 22.6018 27.1196H9.94312C9.1203 27.1196 8.45386 26.453 8.45386 25.63V8.49916C8.45386 7.67613 9.1203 7.00952 9.94312 7.00952H19.1505Z" fill="#5A9BF1"/>
<path d="M19.0928 8.66187H22.1097C22.3104 8.66187 22.4746 8.8261 22.4746 9.02683V25.0851C22.4746 25.2858 22.3104 25.4501 22.1097 25.4501H10.4359C10.2352 25.4501 10.071 25.2858 10.071 25.0851V9.02683C10.071 8.8261 10.2352 8.66187 10.4359 8.66187H19.0928Z" fill="white"/>
<path d="M20.1016 18.7717H12.5248C12.3344 18.7717 12.1804 18.5808 12.1804 18.3457C12.1804 18.1105 12.3344 17.9197 12.5248 17.9197H20.1016C20.292 17.9197 20.446 18.1105 20.446 18.3457C20.446 18.5808 20.292 18.7717 20.1016 18.7717Z" fill="#CBDDE6"/>
<path d="M20.1016 20.4787H12.5248C12.3344 20.4787 12.1804 20.2879 12.1804 20.0527C12.1804 19.8176 12.3344 19.6267 12.5248 19.6267H20.1016C20.292 19.6267 20.446 19.8176 20.446 20.0527C20.446 20.2879 20.292 20.4787 20.1016 20.4787Z" fill="#CBDDE6"/>
<path d="M20.1016 22.1779H12.5248C12.3344 22.1779 12.1804 21.9871 12.1804 21.7519C12.1804 21.5168 12.3344 21.3259 12.5248 21.3259H20.1016C20.292 21.3259 20.446 21.5168 20.446 21.7519C20.446 21.9871 20.292 22.1779 20.1016 22.1779Z" fill="#CBDDE6"/>
<path d="M19.2507 7.37743V8.12224C19.2507 8.53189 18.9157 8.86706 18.5061 8.86706H14.0383C13.6288 8.86706 13.2937 8.53189 13.2937 8.12224V7.37743C13.2937 6.96778 13.6288 6.63261 14.0383 6.63261H14.783V6.2602C14.783 5.85055 15.118 5.51538 15.5276 5.51538H17.0169C17.4264 5.51538 17.7615 5.85055 17.7615 6.2602V6.63261H18.5061C18.9157 6.63261 19.2507 6.96778 19.2507 7.37743Z" fill="#4364BB"/>
<path d="M18.1131 12.2825H17.3988V11.5679C17.3988 11.3707 17.2391 11.2107 17.0416 11.2107H15.613C15.4155 11.2107 15.2558 11.3707 15.2558 11.5679V12.2825H14.5415C14.344 12.2825 14.1843 12.4425 14.1843 12.6397V14.0687C14.1843 14.2659 14.344 14.426 14.5415 14.426H15.2558V15.1405C15.2558 15.3377 15.4155 15.4977 15.613 15.4977H17.0416C17.2391 15.4977 17.3988 15.3377 17.3988 15.1405V14.426H18.1131C18.3106 14.426 18.4703 14.2659 18.4703 14.0687V12.6397C18.4703 12.4425 18.3106 12.2825 18.1131 12.2825Z" fill="#5789F8"/>
</svg>
