<svg width="29" height="29" viewBox="0 0 29 29" fill="none" xmlns="http://www.w3.org/2000/svg">
<path d="M14.1182 27.6828C21.1473 27.6828 26.8455 21.9847 26.8455 14.9557C26.8455 7.92665 21.1473 2.22852 14.1182 2.22852C7.08912 2.22852 1.39093 7.92665 1.39093 14.9557C1.39093 21.9847 7.08912 27.6828 14.1182 27.6828Z" fill="#19DD6D"/>
<path d="M14.1182 27.6828C21.1473 27.6828 26.8455 21.9847 26.8455 14.9557C26.8455 7.92665 21.1473 2.22852 14.1182 2.22852C7.08912 2.22852 1.39093 7.92665 1.39093 14.9557C1.39093 21.9847 7.08912 27.6828 14.1182 27.6828Z" fill="url(#paint0_linear_280_6697)"/>
<path d="M21.5617 15.5709C23.0455 15.5709 24.2484 14.368 24.2484 12.8842C24.2484 11.4004 23.0455 10.1975 21.5617 10.1975C20.0778 10.1975 18.875 11.4004 18.875 12.8842C18.875 14.368 20.0778 15.5709 21.5617 15.5709Z" fill="#0AB553"/>
<path d="M6.6132 15.5709C8.09704 15.5709 9.29993 14.368 9.29993 12.8842C9.29993 11.4004 8.09704 10.1975 6.6132 10.1975C5.12937 10.1975 3.92648 11.4004 3.92648 12.8842C3.92648 14.368 5.12937 15.5709 6.6132 15.5709Z" fill="#0AB553"/>
<path d="M20.1448 7.55074H17.7977L19.4186 6.58092C19.6332 6.45234 19.7029 6.17434 19.5743 5.95973C19.4457 5.74513 19.1677 5.6754 18.9531 5.80398L15.9259 7.61503C15.9196 7.61866 15.9132 7.62409 15.9069 7.62862C15.896 7.63586 15.8852 7.6431 15.8743 7.65216C15.8653 7.6594 15.8562 7.66755 15.848 7.6757C15.839 7.68385 15.8299 7.69291 15.8218 7.70196C15.8136 7.71102 15.8064 7.72007 15.7991 7.73003C15.7919 7.74 15.7847 7.74905 15.7783 7.75992C15.772 7.77078 15.7656 7.78074 15.7602 7.79161C15.7548 7.80248 15.7493 7.81244 15.7439 7.8233C15.7385 7.83508 15.7349 7.84775 15.7303 7.86043C15.7276 7.86767 15.724 7.87492 15.7222 7.88307C15.7213 7.88669 15.7213 7.89031 15.7204 7.89393C15.7167 7.90661 15.7149 7.9202 15.7131 7.93287C15.7113 7.94464 15.7095 7.95551 15.7086 7.96728C15.7077 7.97996 15.7086 7.99173 15.7086 8.00441C15.7086 8.01709 15.7086 8.02886 15.7086 8.04154C15.7095 8.05331 15.7113 8.06417 15.7131 8.07595C15.7149 8.08953 15.7176 8.10221 15.7204 8.11488C15.7204 8.11851 15.7213 8.12213 15.7222 8.12575C15.724 8.13299 15.7276 8.14024 15.7303 8.14839C15.7349 8.16106 15.7385 8.17284 15.7439 8.18551C15.7484 8.19638 15.7539 8.20725 15.7602 8.21721C15.7656 8.22807 15.772 8.23894 15.7783 8.2489C15.7847 8.25886 15.7919 8.26882 15.7991 8.27878C15.8064 8.28874 15.8136 8.2978 15.8218 8.30685C15.8299 8.31591 15.839 8.32496 15.848 8.33311C15.8562 8.34126 15.8653 8.34941 15.8743 8.35666C15.8843 8.36481 15.8951 8.37205 15.9069 8.3802C15.9132 8.38473 15.9187 8.39016 15.9259 8.39378L18.9531 10.2048C19.0256 10.2483 19.1062 10.2691 19.1849 10.2691C19.3389 10.2691 19.4892 10.1903 19.5743 10.0491C19.7029 9.83447 19.6332 9.55648 19.4186 9.42789L17.7977 8.45808H20.1448C20.3947 8.45808 20.5976 8.25524 20.5976 8.00531C20.5976 7.75539 20.3947 7.55255 20.1448 7.55255V7.55074Z" fill="#28323C"/>
<path d="M12.4899 7.93116C12.4881 7.91758 12.4854 7.9049 12.4827 7.89223C12.4827 7.8886 12.4818 7.88498 12.4809 7.88136C12.479 7.87321 12.4754 7.86687 12.4727 7.85872C12.4682 7.84604 12.4646 7.83427 12.4591 7.82159C12.4546 7.81073 12.4492 7.79986 12.4428 7.7899C12.4374 7.77904 12.4311 7.76817 12.4247 7.75821C12.4184 7.74825 12.4111 7.73829 12.4039 7.72833C12.3966 7.71837 12.3894 7.70931 12.3813 7.70025C12.3731 7.6912 12.364 7.68214 12.355 7.67399C12.3468 7.66584 12.3378 7.6577 12.3287 7.65045C12.3188 7.6423 12.3079 7.63506 12.2961 7.62691C12.2898 7.62238 12.2844 7.61785 12.2771 7.61332L9.24992 5.80228C9.03531 5.67369 8.75731 5.74342 8.62872 5.95803C8.50014 6.17263 8.56986 6.45063 8.78447 6.57922L10.4054 7.54903H8.05824C7.80831 7.54903 7.60547 7.75187 7.60547 8.00179C7.60547 8.25172 7.80831 8.45456 8.05824 8.45456H10.4054L8.78447 9.42437C8.56986 9.55296 8.50014 9.83095 8.62872 10.0456C8.71384 10.1877 8.86325 10.2656 9.0181 10.2656C9.09688 10.2656 9.17748 10.2448 9.24992 10.2013L12.2771 8.39026C12.2835 8.38664 12.2898 8.38121 12.2961 8.37668C12.307 8.36944 12.3179 8.36219 12.3287 8.35314C12.3378 8.34589 12.3468 8.33774 12.355 8.32959C12.364 8.32144 12.3731 8.31239 12.3813 8.30333C12.3894 8.29428 12.3966 8.28522 12.4039 8.27526C12.4111 8.2653 12.4184 8.25625 12.4247 8.24538C12.4311 8.23542 12.4374 8.22455 12.4428 8.21369C12.4483 8.20282 12.4537 8.19286 12.4591 8.18199C12.4646 8.17022 12.4682 8.15754 12.4727 8.14487C12.4754 8.13762 12.479 8.13038 12.4809 8.12223C12.4818 8.11861 12.4818 8.11498 12.4827 8.11136C12.4863 8.09869 12.4881 8.0851 12.4899 8.07243C12.4917 8.06065 12.4935 8.04979 12.4944 8.03802C12.4953 8.02624 12.4944 8.01357 12.4944 8.00089C12.4944 7.98821 12.4944 7.97644 12.4944 7.96376C12.4935 7.95199 12.4917 7.94112 12.4899 7.92935V7.93116Z" fill="#28323C"/>
<path d="M14.1183 14.4646C11.8255 14.4646 9.53272 13.7927 7.25621 12.4489C7.04069 12.3222 6.96915 12.0442 7.09683 11.8287C7.22361 11.6131 7.50161 11.5416 7.71712 11.6693C12.0247 14.212 16.2128 14.212 20.5205 11.6693C20.736 11.5425 21.0131 11.614 21.1407 11.8287C21.2675 12.0442 21.196 12.3213 20.9814 12.4489C18.7049 13.7927 16.4121 14.4646 14.1192 14.4646H14.1183Z" fill="#28323C"/>
<defs>
<linearGradient id="paint0_linear_280_6697" x1="19.5703" y1="20.4077" x2="8.41994" y2="9.25724" gradientUnits="userSpaceOnUse">
<stop stop-color="#09BD56"/>
<stop offset="1" stop-color="#29E87A"/>
</linearGradient>
</defs>
</svg>
