<svg width="33" height="33" viewBox="0 0 33 33" fill="none" xmlns="http://www.w3.org/2000/svg">
<rect x="0.118164" y="0.957031" width="32" height="32" rx="16" fill="#C3F0FF"/>
<path fill-rule="evenodd" clip-rule="evenodd" d="M19.8354 9.45722C19.4453 9.45714 19.0712 9.30211 18.7954 9.02622L17.1584 7.38822C17.0217 7.25152 16.8595 7.14308 16.681 7.0691C16.5025 6.99511 16.3111 6.95703 16.1179 6.95703C15.9246 6.95703 15.7332 6.99511 15.5547 7.0691C15.3762 7.14308 15.214 7.25152 15.0774 7.38822L13.4414 9.02422C13.1656 9.30011 12.7915 9.45514 12.4014 9.45522H10.0874C9.69757 9.45575 9.32393 9.61097 9.04849 9.88678C8.77306 10.1626 8.61836 10.5364 8.61836 10.9262V13.2402C8.61827 13.6303 8.46324 14.0044 8.18736 14.2802L6.54936 15.9172C6.41266 16.0538 6.30422 16.216 6.23023 16.3946C6.15625 16.5731 6.11816 16.7645 6.11816 16.9577C6.11816 17.151 6.15625 17.3423 6.23023 17.5209C6.30422 17.6994 6.41266 17.8616 6.54936 17.9982L8.18536 19.6342C8.46124 19.91 8.61627 20.2841 8.61636 20.6742V22.9882C8.61689 23.378 8.7721 23.7517 9.04791 24.0271C9.32372 24.3025 9.69757 24.4572 10.0874 24.4572H12.4014C12.7915 24.4573 13.1656 24.6123 13.4414 24.8882L15.0784 26.5262C15.215 26.6629 15.3772 26.7714 15.5557 26.8453C15.7342 26.9193 15.9256 26.9574 16.1189 26.9574C16.3121 26.9574 16.5035 26.9193 16.682 26.8453C16.8605 26.7714 17.0227 26.6629 17.1594 26.5262L18.7954 24.8902C19.0712 24.6143 19.4453 24.4593 19.8354 24.4592H22.1494C22.5391 24.4587 22.9128 24.3035 23.1882 24.0277C23.4637 23.7519 23.6184 23.378 23.6184 22.9882V20.6742C23.6185 20.2841 23.7736 19.9101 24.0494 19.6342L25.6854 17.9982C25.8221 17.8616 25.9305 17.6994 26.0045 17.5209C26.0785 17.3423 26.1165 17.151 26.1165 16.9577C26.1165 16.7645 26.0785 16.5731 26.0045 16.3946C25.9305 16.216 25.8221 16.0538 25.6854 15.9172L24.0514 14.2812C23.7755 14.0054 23.6204 13.6313 23.6204 13.2412V10.9262C23.6198 10.5364 23.4646 10.1628 23.1888 9.88736C22.913 9.61193 22.5391 9.45722 22.1494 9.45722H19.8354Z" fill="url(#paint0_linear_208_11467)"/>
<path d="M16.1182 23.107C19.5147 23.107 22.2682 20.3536 22.2682 16.957C22.2682 13.5605 19.5147 10.807 16.1182 10.807C12.7216 10.807 9.96816 13.5605 9.96816 16.957C9.96816 20.3536 12.7216 23.107 16.1182 23.107Z" fill="url(#paint1_linear_208_11467)" stroke="#F39E00" stroke-width="0.3"/>
<defs>
<linearGradient id="paint0_linear_208_11467" x1="16.1174" y1="6.95703" x2="16.1174" y2="26.9574" gradientUnits="userSpaceOnUse">
<stop stop-color="#FFB521"/>
<stop offset="1" stop-color="#FF9501"/>
</linearGradient>
<linearGradient id="paint1_linear_208_11467" x1="16.1182" y1="10.957" x2="16.1182" y2="22.957" gradientUnits="userSpaceOnUse">
<stop stop-color="#FFF2A6"/>
<stop offset="1" stop-color="#FFE966"/>
</linearGradient>
</defs>
</svg>
