<svg width="29" height="29" viewBox="0 0 29 29" fill="none" xmlns="http://www.w3.org/2000/svg">
<path d="M14.6318 27.3388C21.6609 27.3388 27.3591 21.6407 27.3591 14.6117C27.3591 7.58266 21.6609 1.88452 14.6318 1.88452C7.60272 1.88452 1.90454 7.58266 1.90454 14.6117C1.90454 21.6407 7.60272 27.3388 14.6318 27.3388Z" fill="#FACA50"/>
<path d="M14.6318 27.3388C21.6609 27.3388 27.3591 21.6407 27.3591 14.6117C27.3591 7.58266 21.6609 1.88452 14.6318 1.88452C7.60272 1.88452 1.90454 7.58266 1.90454 14.6117C1.90454 21.6407 7.60272 27.3388 14.6318 27.3388Z" fill="url(#paint0_linear_299_3297)"/>
<path d="M14.6311 12.0122C15.6507 12.0122 16.6703 12.1209 17.6836 12.3373C17.9281 12.3898 18.0838 12.6298 18.0313 12.8743C17.9788 13.1188 17.7379 13.2745 17.4943 13.222C15.5945 12.8163 13.6685 12.8163 11.7687 13.222C11.5242 13.2745 11.2833 13.1188 11.2317 12.8743C11.1792 12.6298 11.3349 12.3889 11.5794 12.3373C12.5918 12.1209 13.6114 12.0122 14.6319 12.0122H14.6311Z" fill="#28323C"/>
<path d="M19.07 10.4253C20.0177 10.4253 20.786 9.65708 20.786 8.70938C20.786 7.76167 20.0177 6.99341 19.07 6.99341C18.1223 6.99341 17.354 7.76167 17.354 8.70938C17.354 9.65708 18.1223 10.4253 19.07 10.4253Z" fill="#28323C"/>
<path d="M10.1967 10.4253C11.1444 10.4253 11.9127 9.65708 11.9127 8.70938C11.9127 7.76167 11.1444 6.99341 10.1967 6.99341C9.24898 6.99341 8.48071 7.76167 8.48071 8.70938C8.48071 9.65708 9.24898 10.4253 10.1967 10.4253Z" fill="#28323C"/>
<defs>
<linearGradient id="paint0_linear_299_3297" x1="20.0839" y1="20.0637" x2="8.93355" y2="8.91325" gradientUnits="userSpaceOnUse">
<stop stop-color="#EFB113"/>
<stop offset="1" stop-color="#FFD058"/>
</linearGradient>
</defs>
</svg>
