<svg width="33" height="33" viewBox="0 0 33 33" fill="none" xmlns="http://www.w3.org/2000/svg">
<rect x="0.118164" y="0.957031" width="32" height="32" rx="16" fill="#4D3978"/>
<path d="M24.4358 19.2232C24.5967 18.6839 23.9478 18.3037 23.4463 18.5591C23.2922 18.6375 23.1347 18.7102 22.9741 18.7767C21.7608 19.2792 20.4257 19.4107 19.1377 19.1545C17.8496 18.8983 16.6665 18.2659 15.7378 17.3373C14.8092 16.4087 14.1768 15.2256 13.9206 13.9375C13.6644 12.6495 13.7959 11.3144 14.2985 10.1011C14.365 9.94049 14.4376 9.78298 14.5161 9.62886C14.7715 9.12739 14.3912 8.47856 13.852 8.63937C13.0416 8.88102 12.2673 9.24345 11.5565 9.71839C10.1575 10.6532 9.06705 11.9819 8.42314 13.5364C7.77923 15.091 7.61073 16.8016 7.939 18.4519C8.26726 20.1022 9.07751 21.6181 10.2673 22.8079C11.4571 23.9976 12.973 24.8078 14.6233 25.1362C16.2736 25.4644 17.9842 25.296 19.5387 24.652C21.0933 24.0081 22.4219 22.9177 23.3568 21.5187C23.8317 20.8079 24.1942 20.0336 24.4358 19.2232Z" fill="url(#paint0_linear_208_11519)"/>
<path fill-rule="evenodd" clip-rule="evenodd" d="M21.3548 14.2381C21.1594 14.3361 21.001 14.4947 20.9032 14.6903L20.2676 15.9616C20.1743 16.1482 19.908 16.1482 19.8147 15.9616L19.179 14.6903C19.0813 14.4947 18.9229 14.3361 18.7275 14.2381L17.4556 13.5997C17.2691 13.506 17.2695 13.2398 17.4563 13.1468L18.7255 12.5146C18.9221 12.4167 19.0815 12.2574 19.1798 12.061L19.8147 10.7912C19.908 10.6046 20.1743 10.6046 20.2676 10.7912L20.9025 12.061C21.0007 12.2574 21.1602 12.4167 21.3568 12.5146L22.626 13.1468C22.8127 13.2398 22.8131 13.506 22.6267 13.5997L21.3548 14.2381Z" fill="url(#paint1_linear_208_11519)"/>
<defs>
<linearGradient id="paint0_linear_208_11519" x1="17.6097" y1="16.957" x2="7.77553" y2="12.1022" gradientUnits="userSpaceOnUse">
<stop stop-color="#F1EDFD"/>
<stop offset="1" stop-color="#C0B3E9"/>
</linearGradient>
<linearGradient id="paint1_linear_208_11519" x1="17.316" y1="10.6512" x2="22.7663" y2="16.1016" gradientUnits="userSpaceOnUse">
<stop stop-color="#FFB545"/>
<stop offset="1" stop-color="#FFE39B"/>
</linearGradient>
</defs>
</svg>
