<svg width="21" height="21" viewBox="0 0 21 21" fill="none" xmlns="http://www.w3.org/2000/svg">
<path d="M13.3394 8.44202L15.9233 11.0213C16.6929 11.7911 17.1127 12.8108 17.1127 13.8955C17.1127 14.9752 16.6929 15.9949 15.9233 16.7647C15.1536 17.5345 14.1341 17.9544 13.0546 17.9544C11.9701 17.9544 10.9505 17.5345 10.1809 16.7647L7.59702 14.1854L13.3394 8.44202Z" fill="url(#paint0_linear_299_875)"/>
<path d="M13.3394 8.44202L15.9233 11.0213C16.6929 11.7911 17.1127 12.8108 17.1127 13.8955C17.1127 14.9752 16.6929 15.9949 15.9233 16.7647C15.1536 17.5345 14.1341 17.9544 13.0546 17.9544C11.9701 17.9544 10.9505 17.5345 10.1809 16.7647L7.59702 14.1854L13.3394 8.44202Z" fill="url(#paint1_linear_299_875)"/>
<path d="M4.31305 5.14927C5.0827 4.37948 6.10225 3.95959 7.18176 3.95959C8.26627 3.95959 9.28581 4.37948 10.0555 5.14927L13.344 8.44337L7.60157 14.1868L4.31305 10.8927C3.5484 10.1229 3.12359 9.10319 3.12359 8.01848C3.12359 6.93878 3.5484 5.91906 4.31305 5.14927ZM5.56749 6.11151C5.66494 6.20948 5.79389 6.25897 5.92233 6.25897C6.04977 6.25897 6.17721 6.21048 6.27417 6.11401C6.77494 5.61714 7.58907 5.61714 8.08885 6.11401C8.28526 6.30845 8.60062 6.30695 8.79603 6.11151C8.99044 5.91556 8.98944 5.59915 8.79353 5.4047C7.90443 4.52194 6.45859 4.52244 5.57049 5.4047C5.37407 5.59865 5.37307 5.91556 5.56749 6.11151Z" fill="url(#paint2_linear_299_875)"/>
<path d="M4.31305 5.14927C5.0827 4.37948 6.10225 3.95959 7.18176 3.95959C8.26627 3.95959 9.28581 4.37948 10.0555 5.14927L13.344 8.44337L7.60157 14.1868L4.31305 10.8927C3.5484 10.1229 3.12359 9.10319 3.12359 8.01848C3.12359 6.93878 3.5484 5.91906 4.31305 5.14927ZM5.56749 6.11151C5.66494 6.20948 5.79389 6.25897 5.92233 6.25897C6.04977 6.25897 6.17721 6.21048 6.27417 6.11401C6.77494 5.61714 7.58907 5.61714 8.08885 6.11401C8.28526 6.30845 8.60062 6.30695 8.79603 6.11151C8.99044 5.91556 8.98944 5.59915 8.79353 5.4047C7.90443 4.52194 6.45859 4.52244 5.57049 5.4047C5.37407 5.59865 5.37307 5.91556 5.56749 6.11151Z" fill="url(#paint3_linear_299_875)"/>
<defs>
<linearGradient id="paint0_linear_299_875" x1="13.6208" y1="11.0559" x2="12.3549" y2="17.9544" gradientUnits="userSpaceOnUse">
<stop stop-color="#CEF4FF"/>
<stop offset="1" stop-color="#24A7CC"/>
</linearGradient>
<linearGradient id="paint1_linear_299_875" x1="13.6208" y1="11.0559" x2="12.3549" y2="17.9544" gradientUnits="userSpaceOnUse">
<stop stop-color="#E9F1F3"/>
<stop offset="1" stop-color="#BCD0D5"/>
</linearGradient>
<linearGradient id="paint2_linear_299_875" x1="8.23378" y1="3.95959" x2="8.23378" y2="14.1868" gradientUnits="userSpaceOnUse">
<stop stop-color="#0073D7"/>
<stop offset="1" stop-color="#60A2FF"/>
</linearGradient>
<linearGradient id="paint3_linear_299_875" x1="8.23378" y1="3.95959" x2="8.23378" y2="14.1868" gradientUnits="userSpaceOnUse">
<stop stop-color="#A9C0C7"/>
<stop offset="1" stop-color="#82A1CC"/>
</linearGradient>
</defs>
</svg>
