<svg width="33" height="33" viewBox="0 0 33 33" fill="none" xmlns="http://www.w3.org/2000/svg">
<rect x="0.118164" y="0.957031" width="32" height="32" rx="16" fill="#FFEFC4"/>
<path d="M9.99153 13.0203C10.2518 12.76 10.2518 12.338 9.99153 12.0777L9.0489 11.1351C8.78865 10.8749 8.36662 10.8748 8.10632 11.1351C7.84602 11.3954 7.84602 11.8174 8.10632 12.0777L9.04895 13.0203C9.30929 13.2806 9.73133 13.2806 9.99153 13.0203ZM16.1184 10.4825C16.4865 10.4825 16.7849 10.184 16.7849 9.81595V8.48292C16.7849 8.11483 16.4865 7.81641 16.1184 7.81641C15.7503 7.81641 15.4519 8.11483 15.4519 8.48292V9.81595C15.4519 10.184 15.7503 10.4825 16.1184 10.4825ZM6.7872 18.4806H5.40974C5.04164 18.4806 4.74322 18.7791 4.74322 19.1472C4.74322 19.5152 5.04164 19.8137 5.40974 19.8137H6.7872C7.15529 19.8137 7.45371 19.5152 7.45371 19.1472C7.45371 18.7791 7.15529 18.4806 6.7872 18.4806ZM16.1184 11.8155C12.0757 11.8155 8.78674 15.1045 8.78674 19.1472C8.78674 20.7483 9.29374 22.2696 10.2529 23.5465H21.9839C22.9431 22.2696 23.4501 20.7483 23.4501 19.1472C23.4501 15.1045 20.1611 11.8155 16.1184 11.8155ZM26.8271 18.4806H25.4496C25.0815 18.4806 24.7831 18.7791 24.7831 19.1472C24.7831 19.5152 25.0815 19.8137 25.4496 19.8137H26.8271C27.1952 19.8137 27.4936 19.5152 27.4936 19.1472C27.4936 18.7791 27.1952 18.4806 26.8271 18.4806ZM23.1879 11.1351L22.2453 12.0777C21.985 12.338 21.985 12.76 22.2453 13.0203C22.5055 13.2806 22.9276 13.2805 23.1878 13.0203L24.1305 12.0777C24.3908 11.8174 24.3908 11.3954 24.1305 11.1351C23.8702 10.8748 23.4482 10.8749 23.1879 11.1351Z" fill="url(#paint0_linear_208_11492)"/>
<path d="M26.827 22.4794H5.40968C5.04158 22.4794 4.74316 22.7778 4.74316 23.1459C4.74316 23.514 5.04158 23.8124 5.40968 23.8124H26.827C27.1951 23.8124 27.4935 23.514 27.4935 23.1459C27.4935 22.7778 27.1951 22.4794 26.827 22.4794Z" fill="#FF8F0F"/>
<defs>
<linearGradient id="paint0_linear_208_11492" x1="16.1184" y1="23.5465" x2="16.1184" y2="7.81641" gradientUnits="userSpaceOnUse">
<stop stop-color="#FD5900"/>
<stop offset="1" stop-color="#FFAE3D"/>
</linearGradient>
</defs>
</svg>
