<svg width="28" height="28" viewBox="0 0 28 28" fill="none" xmlns="http://www.w3.org/2000/svg">
<path d="M16.423 0.834383C16.4188 0.709692 16.2829 0.628896 16.1762 0.693492C11.462 3.5465 11.5067 10.5956 11.5634 11.9855C11.5682 12.1017 11.4568 12.1816 11.3523 12.1306C10.7726 11.8474 9.26118 10.8594 9.16059 8.22555C9.15582 8.10068 9.02107 8.02133 8.91387 8.08554C6.15856 9.73569 4.31329 12.7621 4.31329 16.1167C4.31329 21.274 8.64898 25.4548 13.9973 25.4548C19.3457 25.4548 23.6814 21.274 23.6814 16.1167C23.6813 8.64148 16.6313 7.02032 16.423 0.834383Z" fill="url(#paint0_linear_208_14153)"/>
<g filter="url(#filter0_d_208_14153)">
<path d="M15.4519 9.02385C15.4493 8.94903 15.3678 8.90056 15.3038 8.93931C12.4753 10.6511 12.5021 14.8806 12.5361 15.7145C12.539 15.7842 12.4721 15.8322 12.4095 15.8016C12.0616 15.6316 11.1548 15.0389 11.0944 13.4585C11.0915 13.3836 11.0107 13.336 10.9464 13.3745C9.2932 14.3646 8.18604 16.1805 8.18604 18.1932C8.18604 21.2876 10.7874 23.7961 13.9965 23.7961C17.2055 23.7961 19.8069 21.2876 19.8069 18.1932C19.8068 13.7081 15.5768 12.7354 15.4519 9.02385Z" fill="url(#paint1_linear_208_14153)"/>
</g>
<defs>
<filter id="filter0_d_208_14153" x="8.18604" y="8.92566" width="13.7707" height="17.0203" filterUnits="userSpaceOnUse" color-interpolation-filters="sRGB">
<feFlood flood-opacity="0" result="BackgroundImageFix"/>
<feColorMatrix in="SourceAlpha" type="matrix" values="0 0 0 0 0 0 0 0 0 0 0 0 0 0 0 0 0 0 127 0" result="hardAlpha"/>
<feOffset dx="1.07493" dy="1.07493"/>
<feGaussianBlur stdDeviation="0.537464"/>
<feComposite in2="hardAlpha" operator="out"/>
<feColorMatrix type="matrix" values="0 0 0 0 0.522677 0 0 0 0 0.204469 0 0 0 0 0.148314 0 0 0 0.2 0"/>
<feBlend mode="multiply" in2="BackgroundImageFix" result="effect1_dropShadow_208_14153"/>
<feBlend mode="normal" in="SourceGraphic" in2="effect1_dropShadow_208_14153" result="shape"/>
</filter>
<linearGradient id="paint0_linear_208_14153" x1="13.9973" y1="0.55304" x2="13.9973" y2="25.4548" gradientUnits="userSpaceOnUse">
<stop stop-color="#FF6A49"/>
<stop offset="1" stop-color="#D92700"/>
</linearGradient>
<linearGradient id="paint1_linear_208_14153" x1="11.312" y1="13.927" x2="13.9965" y2="23.7961" gradientUnits="userSpaceOnUse">
<stop stop-color="#FFA06B"/>
<stop offset="1" stop-color="#F75900"/>
</linearGradient>
</defs>
</svg>
