<svg width="37" height="37" viewBox="0 0 37 37" fill="none" xmlns="http://www.w3.org/2000/svg">
<g clip-path="url(#clip0_208_11607)">
<path d="M0.120583 18.957C0.120583 28.8982 8.17946 36.957 18.1206 36.957C28.0617 36.957 36.1206 28.8982 36.1206 18.957C36.1206 9.01591 28.0617 0.957031 18.1206 0.957031C8.17946 0.957031 0.120583 9.01591 0.120583 18.957Z" fill="#E7EAFF"/>
<path d="M26.0382 11.6803V26.2437C26.0382 26.4116 25.9657 26.5727 25.8365 26.6914C25.7073 26.8102 25.5322 26.8769 25.3495 26.8769C25.1669 26.8769 24.9917 26.8102 24.8625 26.6914C24.7334 26.5727 24.6608 26.4116 24.6608 26.2437V22.4445H20.5286C20.346 22.4445 20.1708 22.3778 20.0417 22.2591C19.9125 22.1403 19.84 21.9793 19.84 21.8114C19.8719 20.2946 20.0803 18.7854 20.4615 17.3094C21.3034 14.1047 22.8995 11.9566 25.0783 11.0986C25.1831 11.0573 25.2973 11.0406 25.4108 11.0499C25.5242 11.0593 25.6334 11.0943 25.7286 11.152C25.8237 11.2096 25.9018 11.2881 25.9558 11.3803C26.0098 11.4725 26.0382 11.5756 26.0382 11.6803ZM17.7644 11.5766C17.7509 11.4935 17.7195 11.4137 17.6721 11.3418C17.6247 11.2699 17.5622 11.2074 17.4883 11.158C17.4144 11.1085 17.3304 11.0731 17.2415 11.0538C17.1525 11.0345 17.0602 11.0317 16.97 11.0455C16.8798 11.0593 16.7935 11.0895 16.7162 11.1343C16.6388 11.1791 16.5719 11.2376 16.5194 11.3064C16.4669 11.3753 16.4298 11.453 16.4104 11.5351C16.3909 11.6173 16.3894 11.7021 16.4059 11.7848L17.0757 15.4795H15.0191V11.6803C15.0191 11.5124 14.9465 11.3513 14.8174 11.2326C14.6882 11.1138 14.513 11.0471 14.3304 11.0471C14.1477 11.0471 13.9726 11.1138 13.8434 11.2326C13.7142 11.3513 13.6417 11.5124 13.6417 11.6803V15.4795H11.5851L12.2548 11.7848C12.2714 11.7021 12.2699 11.6173 12.2504 11.5351C12.2309 11.453 12.1939 11.3753 12.1414 11.3064C12.0888 11.2376 12.022 11.1791 11.9446 11.1343C11.8672 11.0895 11.7809 11.0593 11.6908 11.0455C11.6006 11.0317 11.5083 11.0345 11.4193 11.0538C11.3303 11.0731 11.2464 11.1085 11.1725 11.158C11.0985 11.2074 11.036 11.2699 10.9886 11.3418C10.9412 11.4137 10.9099 11.4935 10.8964 11.5766L10.2077 15.3758C10.2015 15.41 10.1983 15.4447 10.1982 15.4795C10.1996 16.3769 10.5459 17.2449 11.176 17.9303C11.8062 18.6156 12.6795 19.0741 13.6417 19.2248V26.2437C13.6417 26.4116 13.7142 26.5727 13.8434 26.6914C13.9726 26.8102 14.1477 26.8769 14.3304 26.8769C14.513 26.8769 14.6882 26.8102 14.8174 26.6914C14.9465 26.5727 15.0191 26.4116 15.0191 26.2437V19.2248C15.9813 19.0741 16.8546 18.6156 17.4847 17.9303C18.1148 17.2449 18.4612 16.3769 18.4626 15.4795C18.4624 15.4447 18.4593 15.41 18.4531 15.3758L17.7644 11.5766Z" fill="#596FE9"/>
</g>
<defs>
<clipPath id="clip0_208_11607">
<rect width="36" height="36" fill="white" transform="translate(0.118164 0.957031)"/>
</clipPath>
</defs>
</svg>
