<svg width="12" height="13" viewBox="0 0 12 13" fill="none" xmlns="http://www.w3.org/2000/svg">
<g opacity="0.9" clip-path="url(#clip0_208_14003)">
<path fill-rule="evenodd" clip-rule="evenodd" d="M5.93643 11.8975L5.93016 11.8943L5.93561 11.8971L5.9343 11.8965L5.93016 11.8943L5.91609 11.8872C5.9042 11.8811 5.88723 11.8724 5.86558 11.861C5.82227 11.8382 5.76009 11.8051 5.68181 11.7617C5.52532 11.6751 5.30381 11.5477 5.039 11.3822C4.51048 11.0518 3.80348 10.5661 3.0939 9.94516C1.69768 8.72346 0.180359 6.88042 0.180359 4.59147C0.180359 3.8115 0.412204 2.9393 0.940253 2.24878C1.48186 1.54052 2.32094 1.04602 3.45309 1.04602C4.57823 1.04602 5.38629 1.53226 5.90261 2.00886C6.00641 2.10467 6.09887 2.20041 6.18036 2.29227C6.26185 2.20041 6.3543 2.10467 6.4581 2.00886C6.97443 1.53226 7.78252 1.04602 8.90763 1.04602C10.0398 1.04602 10.8788 1.54052 11.4205 2.24878C11.9485 2.9393 12.1804 3.8115 12.1804 4.59147C12.1804 6.88042 10.663 8.72346 9.26681 9.94516C8.55723 10.566 7.85027 11.0518 7.32172 11.3822C7.0569 11.5477 6.83545 11.6751 6.6789 11.7617C6.60063 11.8051 6.53845 11.8382 6.49514 11.861C6.47349 11.8724 6.45658 11.8811 6.44463 11.8872L6.43056 11.8943L6.42647 11.8965L6.42429 11.8975C6.27074 11.9743 6.08998 11.9743 5.93643 11.8975Z" fill="#A7ADC2"/>
<path fill-rule="evenodd" clip-rule="evenodd" d="M3.39714 4.29095C3.57556 4.29095 3.73602 4.39959 3.80229 4.56526L4.70623 6.82509L5.26106 5.43798C5.32735 5.27231 5.4878 5.16368 5.66623 5.16368C5.84466 5.16368 6.00511 5.27231 6.07139 5.43798L6.48528 6.47277H6.88804C7.12905 6.47277 7.32441 6.66813 7.32441 6.90914C7.32441 7.15014 7.12905 7.3455 6.88804 7.3455H6.18986C6.01143 7.3455 5.85098 7.23685 5.7847 7.0712L5.66623 6.775L5.11139 8.16211C5.04511 8.32775 4.88466 8.43641 4.70623 8.43641C4.5278 8.43641 4.36735 8.32775 4.30106 8.16211L3.39714 5.90227L2.92956 7.0712C2.86329 7.23685 2.70284 7.3455 2.52441 7.3455H0.778954C0.537959 7.3455 0.34259 7.15014 0.34259 6.90914C0.34259 6.66813 0.537959 6.47277 0.778954 6.47277H2.22898L2.99198 4.56526C3.05825 4.39959 3.21871 4.29095 3.39714 4.29095Z" fill="white"/>
</g>
<defs>
<clipPath id="clip0_208_14003">
<rect width="12" height="12" fill="white" transform="translate(0 0.5)"/>
</clipPath>
</defs>
</svg>
