<svg width="25" height="25" viewBox="0 0 25 25" fill="none" xmlns="http://www.w3.org/2000/svg">
<path fill-rule="evenodd" clip-rule="evenodd" d="M7.48432 4.73636C6.09186 6.12882 5.30959 8.01739 5.30959 9.98663C5.30959 13.6795 4.45468 16.6485 3.77509 17.8241C3.70289 17.9492 3.66477 18.091 3.66455 18.2354C3.66433 18.3798 3.70202 18.5217 3.77384 18.647C3.84566 18.7723 3.9491 18.8765 4.07383 18.9492C4.19855 19.022 4.34019 19.0608 4.48459 19.0616H12.7346H20.9846C21.1292 19.0611 21.2711 19.0226 21.3961 18.95C21.5211 18.8774 21.6248 18.7732 21.6969 18.6479C21.7689 18.5225 21.8068 18.3805 21.8067 18.2359C21.8066 18.0913 21.7684 17.9493 21.6962 17.8241C21.0155 16.6485 20.1596 13.6806 20.1596 9.98663C20.1596 8.01739 19.3773 6.12882 17.9849 4.73636C16.5924 3.3439 14.7038 2.56163 12.7346 2.56163C10.7654 2.56163 8.87678 3.3439 7.48432 4.73636ZM10.4045 22.3951C9.78567 21.7762 9.43799 20.9368 9.43799 20.0616H16.038C16.038 20.9368 15.6903 21.7762 15.0714 22.3951C14.4526 23.0139 13.6132 23.3616 12.738 23.3616C11.8628 23.3616 11.0234 23.0139 10.4045 22.3951Z" fill="white"/>
</svg>
