<svg width="24" height="25" viewBox="0 0 24 25" fill="none" xmlns="http://www.w3.org/2000/svg">
<g clip-path="url(#clip0_272_2445)">
<path d="M1 12.7901C1 7.60467 1 5.01194 2.61091 3.40103C4.22183 1.79012 6.81455 1.79012 12 1.79012C17.1854 1.79012 19.7782 1.79012 21.3891 3.40103C23 5.01194 23 7.60467 23 12.7901C23 17.9756 23 20.5683 21.3891 22.1792C19.7782 23.7901 17.1854 23.7901 12 23.7901C6.81455 23.7901 4.22183 23.7901 2.61091 22.1792C1 20.5683 1 17.9756 1 12.7901Z" fill="#D9D9D9"/>
<path d="M1 12.7901C1 7.60467 1 5.01194 2.61091 3.40103C4.22183 1.79012 6.81455 1.79012 12 1.79012C17.1854 1.79012 19.7782 1.79012 21.3891 3.40103C23 5.01194 23 7.60467 23 12.7901C23 17.9756 23 20.5683 21.3891 22.1792C19.7782 23.7901 17.1854 23.7901 12 23.7901C6.81455 23.7901 4.22183 23.7901 2.61091 22.1792C1 20.5683 1 17.9756 1 12.7901Z" fill="url(#paint0_linear_272_2445)"/>
<path d="M16.1693 17.1691C15.6784 17.1691 15.2805 16.7712 15.2805 16.2804V11.3487C15.2805 10.8578 15.6784 10.4599 16.1693 10.4599C16.6601 10.4599 17.0581 10.8578 17.0581 11.3487V16.2804C17.0581 16.7712 16.6601 17.1691 16.1693 17.1691ZM16.176 9.68744C15.6814 9.68744 15.2805 9.28653 15.2805 8.79198V8.76256C15.2805 8.26801 15.6814 7.8671 16.176 7.8671C16.6705 7.8671 17.0714 8.26801 17.0714 8.76256V8.79198C17.0714 9.28653 16.6705 9.68744 16.176 9.68744Z" fill="white"/>
<path d="M7.66542 17.1693C7.08533 17.1693 6.66059 16.6228 6.8038 16.0607L8.44957 9.60058C8.68329 8.68314 9.50947 8.04105 10.4562 8.04105C11.404 8.04105 12.2308 8.68455 12.4636 9.60334L14.0957 16.047C14.2399 16.6164 13.8095 17.1693 13.2221 17.1693C12.8166 17.1693 12.461 16.8984 12.3534 16.5075L12.0277 15.325H8.83351L8.52577 16.5046C8.42363 16.8962 8.07004 17.1693 7.66542 17.1693ZM9.12754 13.8415H11.7604L10.8001 10.0316C10.7597 9.87135 10.6155 9.75903 10.4502 9.75903C10.2854 9.75903 10.1415 9.8708 10.1007 10.0305L9.12754 13.8415Z" fill="white"/>
</g>
<defs>
<linearGradient id="paint0_linear_272_2445" x1="-1.41957" y1="1.79012" x2="19.9392" y2="23.7901" gradientUnits="userSpaceOnUse">
<stop offset="0.1" stop-color="#6163DB"/>
<stop offset="0.55" stop-color="#4E8EE9"/>
<stop offset="0.93" stop-color="#40BDD9"/>
</linearGradient>
<clipPath id="clip0_272_2445">
<rect width="24" height="24" fill="white" transform="translate(0 0.790119)"/>
</clipPath>
</defs>
</svg>
