<svg width="24" height="25" viewBox="0 0 24 25" fill="none" xmlns="http://www.w3.org/2000/svg">
<path d="M8.70312 19.3917C8.70313 20.2669 9.0508 21.1063 9.66967 21.7251C10.2885 22.344 11.1279 22.6917 12.0031 22.6917C12.8783 22.6917 13.7177 22.344 14.3366 21.7251C14.9554 21.1063 15.3031 20.2669 15.3031 19.3917" stroke="#1D1D1E" stroke-width="1.6" stroke-linecap="round" stroke-linejoin="round"/>
<path d="M4.57473 10.3167C4.57473 8.34745 5.357 6.45887 6.74946 5.06641C8.14191 3.67396 10.0305 2.89168 11.9997 2.89168C13.969 2.89168 15.8575 3.67396 17.25 5.06641C18.6424 6.45887 19.4247 8.34745 19.4247 10.3167C19.4247 14.0106 20.2807 16.9786 20.9613 18.1542C21.0336 18.2794 21.0717 18.4214 21.0718 18.566C21.0719 18.7105 21.0341 18.8526 20.962 18.9779C20.89 19.1033 20.7862 19.2074 20.6612 19.2801C20.5362 19.3527 20.3943 19.3912 20.2497 19.3917H3.74973C3.60533 19.3908 3.46369 19.3521 3.33896 19.2793C3.21424 19.2065 3.1108 19.1023 3.03897 18.977C2.96715 18.8518 2.92947 18.7098 2.92969 18.5654C2.92991 18.421 2.96802 18.2792 3.04022 18.1542C3.71982 16.9786 4.57473 14.0096 4.57473 10.3167Z" stroke="#1D1D1E" stroke-width="1.6" stroke-linecap="round" stroke-linejoin="round"/>
</svg>
