<svg width="25" height="25" viewBox="0 0 25 25" fill="none" xmlns="http://www.w3.org/2000/svg">
<g clip-path="url(#clip0_272_1849)">
<path fill-rule="evenodd" clip-rule="evenodd" d="M1.73486 12.9568C1.73486 7.77133 1.73486 5.17861 3.34578 3.5677C4.95669 1.95678 7.54941 1.95678 12.7349 1.95678C17.9203 1.95678 20.513 1.95678 22.124 3.5677C23.7349 5.17861 23.7349 7.77133 23.7349 12.9568C23.7349 18.1422 23.7349 20.735 22.124 22.3459C20.513 23.9568 17.9203 23.9568 12.7349 23.9568C7.54941 23.9568 4.95669 23.9568 3.34578 22.3459C1.73486 20.735 1.73486 18.1422 1.73486 12.9568ZM16.9063 17.3369C16.4154 17.3369 16.0175 16.939 16.0175 16.4482V11.5165C16.0175 11.0256 16.4154 10.6277 16.9063 10.6277C17.3971 10.6277 17.795 11.0256 17.795 11.5165V16.4482C17.795 16.939 17.3971 17.3369 16.9063 17.3369ZM16.9129 9.85524C16.4184 9.85524 16.0175 9.45433 16.0175 8.95978V8.93036C16.0175 8.43582 16.4184 8.03491 16.9129 8.03491C17.4075 8.03491 17.8084 8.43582 17.8084 8.93036V8.95978C17.8084 9.45433 17.4075 9.85524 16.9129 9.85524ZM7.54074 16.2285C7.39753 16.7906 7.82227 17.3372 8.40236 17.3372C8.80698 17.3372 9.16057 17.064 9.26271 16.6725L9.57045 15.4928H12.7647L13.0903 16.6753C13.198 17.0662 13.5535 17.3372 13.9591 17.3372C14.5465 17.3372 14.9769 16.7842 14.8326 16.2148L13.2005 9.77115C12.9678 8.85236 12.141 8.20886 11.1932 8.20886C10.2464 8.20886 9.42023 8.85095 9.18651 9.76839L7.54074 16.2285ZM12.4974 14.0093H9.86448L10.8376 10.1983C10.8784 10.0386 11.0223 9.92684 11.1872 9.92684C11.3524 9.92684 11.4966 10.0392 11.537 10.1994L12.4974 14.0093Z" fill="white"/>
</g>
<defs>
<clipPath id="clip0_272_1849">
<rect width="24" height="24" fill="white" transform="translate(0.734863 0.956783)"/>
</clipPath>
</defs>
</svg>
