<svg width="40" height="40" viewBox="0 0 40 40" fill="none" xmlns="http://www.w3.org/2000/svg">
<rect x="0.55" y="0.55" width="38.9" height="38.9" rx="19.45" fill="#F8F8FC"/>
<rect x="0.55" y="0.55" width="38.9" height="38.9" rx="19.45" stroke="#EFEFF4" stroke-width="1.1"/>
<path d="M28.25 22.9999L24.2844 19.0343C24.2146 18.9634 24.1314 18.9072 24.0397 18.8687C23.9479 18.8303 23.8495 18.8105 23.75 18.8105C23.6505 18.8105 23.5521 18.8303 23.4603 18.8687C23.3686 18.9072 23.2854 18.9634 23.2156 19.0343L19.0344 23.2155C18.9646 23.2864 18.8814 23.3427 18.7897 23.3811C18.6979 23.4195 18.5995 23.4393 18.5 23.4393C18.4005 23.4393 18.3021 23.4195 18.2103 23.3811C18.1186 23.3427 18.0354 23.2864 17.9656 23.2155L16.0344 21.2843C15.9646 21.2134 15.8814 21.1572 15.7897 21.1187C15.6979 21.0803 15.5995 21.0605 15.5 21.0605C15.4005 21.0605 15.3021 21.0803 15.2103 21.1187C15.1186 21.1572 15.0354 21.2134 14.9656 21.2843L11.75 24.4999" stroke="#0FCE61" stroke-width="1.16" stroke-linecap="round" stroke-linejoin="round"/>
<path d="M27.5 11.75H12.5C12.0858 11.75 11.75 12.0858 11.75 12.5V27.5C11.75 27.9142 12.0858 28.25 12.5 28.25H27.5C27.9142 28.25 28.25 27.9142 28.25 27.5V12.5C28.25 12.0858 27.9142 11.75 27.5 11.75Z" stroke="#2B2B2D" stroke-width="1.16" stroke-linecap="round" stroke-linejoin="round"/>
<path d="M17.375 17.375C17.7892 17.375 18.125 17.0392 18.125 16.625C18.125 16.2108 17.7892 15.875 17.375 15.875C16.9608 15.875 16.625 16.2108 16.625 16.625C16.625 17.0392 16.9608 17.375 17.375 17.375Z" fill="#1D1D1E"/>
</svg>
