<svg width="40" height="40" viewBox="0 0 40 40" fill="none" xmlns="http://www.w3.org/2000/svg">
<rect x="0.55" y="0.55" width="38.9" height="38.9" rx="19.45" fill="#F8F8FC"/>
<rect x="0.55" y="0.55" width="38.9" height="38.9" rx="19.45" stroke="#EFEFF4" stroke-width="1.1"/>
<path d="M22.25 15.5C23.4926 15.5 24.5 14.4926 24.5 13.25C24.5 12.0074 23.4926 11 22.25 11C21.0074 11 20 12.0074 20 13.25C20 14.4926 21.0074 15.5 22.25 15.5Z" stroke="#2B2B2D" stroke-width="1.16" stroke-linecap="round" stroke-linejoin="round"/>
<path d="M13.25 17.525C13.25 17.525 16.25 14.75 20.75 18.275C25.4844 21.9687 28.25 20.525 28.25 20.525" stroke="#2B2B2D" stroke-width="1.16" stroke-linecap="round" stroke-linejoin="round"/>
<path d="M20.6656 18.2C20.2531 20.1125 17.525 27.4062 11 26.75" stroke="#2B2B2D" stroke-width="1.16" stroke-linecap="round" stroke-linejoin="round"/>
<path d="M18.3687 23.1125C20.0468 23.4688 24.4999 24.875 24.4999 29.75" stroke="#2B2B2D" stroke-width="1.16" stroke-linecap="round" stroke-linejoin="round"/>
</svg>
