<svg width="40" height="40" viewBox="0 0 40 40" fill="none" xmlns="http://www.w3.org/2000/svg">
<rect x="0.55" y="0.55" width="38.9" height="38.9" rx="19.45" fill="#F8F8FC"/>
<rect x="0.55" y="0.55" width="38.9" height="38.9" rx="19.45" stroke="#EFEFF4" stroke-width="1.1"/>
<path d="M13.2686 18.5C13.2686 17.6161 13.4427 16.7408 13.7809 15.9241C14.1192 15.1074 14.615 14.3654 15.2401 13.7403C15.8651 13.1153 16.6072 12.6195 17.4239 12.2812C18.2405 11.9429 19.1158 11.7688 19.9998 11.7688C20.8838 11.7688 21.7591 11.9429 22.5757 12.2812C23.3924 12.6195 24.1345 13.1153 24.7595 13.7403C25.3846 14.3654 25.8804 15.1074 26.2187 15.9241C26.5569 16.7408 26.7311 17.6161 26.7311 18.5V18.5C26.7311 21.8563 27.4342 23.8063 28.0529 24.8751C28.1186 24.9889 28.1533 25.118 28.1534 25.2494C28.1535 25.3808 28.1191 25.51 28.0536 25.6239C27.9881 25.7378 27.8938 25.8326 27.7801 25.8986C27.6665 25.9646 27.5375 25.9996 27.4061 26.0001H12.5935C12.4621 25.9996 12.3331 25.9646 12.2195 25.8986C12.1058 25.8326 12.0115 25.7378 11.946 25.6239C11.8805 25.51 11.8461 25.3808 11.8462 25.2494C11.8463 25.118 11.881 24.9889 11.9467 24.8751C12.5654 23.8063 13.2686 21.8563 13.2686 18.5Z" stroke="#2B2B2D" stroke-width="1.16" stroke-linecap="round" stroke-linejoin="round"/>
<path d="M17 26V26.75C17 27.5456 17.3161 28.3087 17.8787 28.8713C18.4413 29.4339 19.2044 29.75 20 29.75C20.7956 29.75 21.5587 29.4339 22.1213 28.8713C22.6839 28.3087 23 27.5456 23 26.75V26" stroke="#2B2B2D" stroke-width="1.16" stroke-linecap="round" stroke-linejoin="round"/>
<path d="M25.1938 10.25C26.7209 11.2139 27.9534 12.5794 28.7563 14.1969" stroke="#0FCE61" stroke-width="1.16" stroke-linecap="round" stroke-linejoin="round"/>
<path d="M11.2437 14.1969C12.0466 12.5794 13.2791 11.2139 14.8062 10.25" stroke="#0FCE61" stroke-width="1.16" stroke-linecap="round" stroke-linejoin="round"/>
</svg>
