<svg width="40" height="40" viewBox="0 0 40 40" fill="none" xmlns="http://www.w3.org/2000/svg">
<rect x="0.55" y="0.55" width="38.9" height="38.9" rx="19.45" fill="#F8F8FC"/>
<rect x="0.55" y="0.55" width="38.9" height="38.9" rx="19.45" stroke="#EFEFF4" stroke-width="1.1"/>
<path d="M22.9438 11.75C24.216 12.0914 25.3759 12.7614 26.3073 13.6928C27.2387 14.6242 27.9087 15.7841 28.2501 17.0563" stroke="#0FCE61" stroke-width="1.16" stroke-linecap="round" stroke-linejoin="round"/>
<path d="M22.1655 14.647C22.9306 14.8502 23.6284 15.252 24.1882 15.8118C24.748 16.3716 25.1498 17.0694 25.353 17.8345" stroke="#0FCE61" stroke-width="1.16" stroke-linecap="round" stroke-linejoin="round"/>
<path d="M16.6719 19.7003C17.4436 21.294 18.7324 22.5795 20.3281 23.3471C20.4458 23.4029 20.576 23.427 20.7059 23.4171C20.8358 23.4073 20.9608 23.3638 21.0688 23.2909L23.4125 21.7253C23.5161 21.655 23.6357 21.6122 23.7603 21.6007C23.8849 21.5892 24.0104 21.6095 24.125 21.6596L28.5125 23.544C28.6625 23.6064 28.7877 23.7164 28.869 23.857C28.9504 23.9976 28.9832 24.1611 28.9625 24.3221C28.8234 25.4075 28.2937 26.4051 27.4723 27.1281C26.6509 27.8511 25.5943 28.25 24.5 28.2503C21.1185 28.2503 17.8755 26.907 15.4844 24.5159C13.0933 22.1248 11.75 18.8818 11.75 15.5003C11.7502 14.406 12.1492 13.3494 12.8722 12.528C13.5952 11.7066 14.5927 11.1768 15.6781 11.0378C15.8392 11.0171 16.0027 11.0499 16.1433 11.1312C16.2839 11.2125 16.3938 11.3378 16.4563 11.4878L18.3406 15.8846C18.3896 15.9975 18.4101 16.1206 18.4003 16.2432C18.3905 16.3659 18.3507 16.4842 18.2844 16.5878L16.7188 18.969C16.649 19.0767 16.6081 19.2005 16.5999 19.3285C16.5917 19.4566 16.6165 19.5846 16.6719 19.7003V19.7003Z" stroke="#2B2B2D" stroke-width="1.16" stroke-linecap="round" stroke-linejoin="round"/>
</svg>
