<svg width="40" height="40" viewBox="0 0 40 40" fill="none" xmlns="http://www.w3.org/2000/svg">
<rect x="0.55" y="0.55" width="38.9" height="38.9" rx="19.45" fill="#F8F8FC"/>
<rect x="0.55" y="0.55" width="38.9" height="38.9" rx="19.45" stroke="#EFEFF4" stroke-width="1.1"/>
<path d="M13.25 29.75H26.75" stroke="#2B2B2D" stroke-width="1.16" stroke-linecap="round" stroke-linejoin="round"/>
<path d="M20 20.75C21.6569 20.75 23 19.4069 23 17.75C23 16.0931 21.6569 14.75 20 14.75C18.3431 14.75 17 16.0931 17 17.75C17 19.4069 18.3431 20.75 20 20.75Z" stroke="#0FCE61" stroke-width="1.16" stroke-linecap="round" stroke-linejoin="round"/>
<path d="M27.5 17.75C27.5 24.5 20 29.75 20 29.75C20 29.75 12.5 24.5 12.5 17.75C12.5 15.7609 13.2902 13.8532 14.6967 12.4467C16.1032 11.0402 18.0109 10.25 20 10.25C21.9891 10.25 23.8968 11.0402 25.3033 12.4467C26.7098 13.8532 27.5 15.7609 27.5 17.75Z" stroke="#2B2B2D" stroke-width="1.16" stroke-linecap="round" stroke-linejoin="round"/>
</svg>
