<svg width="93" height="93" viewBox="0 0 93 93" fill="none" xmlns="http://www.w3.org/2000/svg">
<path d="M81 2C75.47 2 71 6.47 71 12C71 17.53 75.47 22 81 22C86.53 22 91 17.53 91 12C91 6.47 86.53 2 81 2ZM86 15.59L84.59 17L81 13.41L77.41 17L76 15.59L79.59 12L76 8.41L77.41 7L81 10.59L84.59 7L86 8.41L82.41 12L86 15.59Z" fill="#A9A8AA"/>
<path d="M46.5 84.2812C50.7625 84.2812 54.25 80.7937 54.25 76.5312H38.75C38.75 80.7937 42.2375 84.2812 46.5 84.2812ZM69.75 61.0312V41.6562C69.75 29.76 63.4338 19.8012 52.3125 17.1662V14.5312C52.3125 11.315 49.7163 8.71875 46.5 8.71875C43.2838 8.71875 40.6875 11.315 40.6875 14.5312V17.1662C29.605 19.8012 23.25 29.7213 23.25 41.6562V61.0312L15.5 68.7812V72.6562H77.5V68.7812L69.75 61.0312ZM62 64.9062H31V41.6562C31 32.0462 36.8512 24.2188 46.5 24.2188C56.1488 24.2188 62 32.0462 62 41.6562V64.9062Z" fill="#A9A8AA"/>
</svg>
