<svg width="25" height="25" viewBox="0 0 25 25" fill="none" xmlns="http://www.w3.org/2000/svg">
<path d="M12.8392 17.4119L12.2482 13.2828C12.2293 13.1441 12.1604 13.017 12.0545 12.9254C11.9486 12.8337 11.8129 12.7839 11.6728 12.7852H9.34002C9.25593 12.7849 9.17279 12.8029 9.09628 12.8378C9.01978 12.8727 8.95172 12.9237 8.89679 12.9874C8.84257 13.0511 8.80271 13.1257 8.7799 13.2062C8.75709 13.2867 8.75187 13.3712 8.7646 13.4539L9.40223 17.9096C9.4619 18.3211 9.66749 18.6975 9.98152 18.9702C10.2955 19.2428 10.6971 19.3935 11.1129 19.3948C11.3626 19.3962 11.6095 19.3438 11.837 19.241C12.0645 19.1383 12.2671 18.9876 12.431 18.7994C12.5949 18.6111 12.7162 18.3897 12.7867 18.1502C12.8571 17.9108 12.875 17.6589 12.8392 17.4119Z" fill="#FAA701"/>
<path d="M7.78709 6.5625H6.03749C5.72815 6.5625 5.43147 6.68539 5.21272 6.90413C4.99398 7.12287 4.87109 7.41955 4.87109 7.7289V11.2281C4.87109 11.5374 4.99398 11.8341 5.21272 12.0529C5.43147 12.2716 5.72815 12.3945 6.03749 12.3945H7.78709C7.94114 12.3925 8.08831 12.3304 8.19725 12.2215C8.30619 12.1125 8.36828 11.9653 8.37029 11.8113V7.1457C8.36828 6.99165 8.30619 6.84448 8.19725 6.73554C8.08831 6.6266 7.94114 6.56451 7.78709 6.5625Z" fill="#FAA701"/>
<path d="M13.2334 5.00391H8.76223C8.34977 5.00391 7.9542 5.16776 7.66254 5.45941C7.37088 5.75107 7.20703 6.14664 7.20703 6.55911V12.3911C7.20703 12.8036 7.37088 13.1991 7.66254 13.4908C7.9542 13.7825 8.34977 13.9463 8.76223 13.9463H13.2334C13.3875 13.9443 13.5347 13.8822 13.6436 13.7733C13.7525 13.6643 13.8146 13.5172 13.8166 13.3631V5.58711C13.8146 5.43306 13.7525 5.28589 13.6436 5.17695C13.5347 5.06801 13.3875 5.00592 13.2334 5.00391Z" fill="#F9CD16"/>
<path d="M19.4527 3.25582C19.2701 3.13189 19.0606 3.05315 18.8416 3.02611C18.6226 2.99907 18.4003 3.0245 18.193 3.1003L12.2521 5.0443C12.1401 5.0845 12.0433 5.15843 11.9751 5.25591C11.9069 5.35339 11.8705 5.46963 11.8711 5.58862V13.3646C11.8705 13.4836 11.9069 13.5999 11.9751 13.6973C12.0433 13.7948 12.1401 13.8687 12.2521 13.9089L18.193 15.8529C18.3449 15.909 18.5054 15.9379 18.6673 15.9385C18.9473 15.938 19.2207 15.8541 19.4527 15.6974C19.6327 15.5713 19.7796 15.4037 19.8811 15.2088C19.9826 15.0139 20.0357 14.7974 20.0359 14.5777V4.37557C20.0357 4.15581 19.9826 3.93933 19.8811 3.74443C19.7796 3.54952 19.6327 3.38193 19.4527 3.25582Z" fill="#F9CD16"/>
<path d="M11.6797 5.00391H13.2349V13.9463H11.6797V5.00391Z" fill="#F9CD16"/>
</svg>
