<svg width="25" height="25" viewBox="0 0 25 25" fill="none" xmlns="http://www.w3.org/2000/svg">
<g clip-path="url(#clip0_1798_101306)">
<path d="M12.2383 8.15918C14.4695 8.15918 16.2782 9.96799 16.2783 12.1992C16.2783 14.4305 14.4696 16.2393 12.2383 16.2393C10.007 16.2392 8.19824 14.4305 8.19824 12.1992C8.19833 9.96804 10.0071 8.15926 12.2383 8.15918Z" stroke="#1D1D1E" stroke-width="1.6" stroke-linecap="round" stroke-linejoin="round"/>
<path d="M22.1104 13.083L22.0986 13.2168C22.0468 13.523 21.8202 13.7771 21.5117 13.8574L19.7305 14.3203L19.0742 15.9072L20.1055 17.124C20.3745 17.4416 20.3549 17.9127 20.0605 18.207L18.2461 20.0215C17.9644 20.3032 17.5219 20.3328 17.207 20.1016L17.1465 20.0518H17.1455V20.0508C17.145 20.0503 17.1436 20.0498 17.1426 20.0488C17.1405 20.0469 17.1378 20.0437 17.1338 20.04C17.1253 20.0324 17.112 20.0214 17.0957 20.0068C17.0631 19.9778 17.0158 19.936 16.958 19.8848C16.8421 19.782 16.6841 19.6415 16.5137 19.4932C16.3232 19.3274 16.129 19.1631 15.9658 19.0273L14.3682 19.6895L13.918 21.4678C13.828 21.8226 13.5087 22.0713 13.1426 22.0713H11.3281C11.0074 22.0713 10.7219 21.8805 10.5957 21.5947L10.5518 21.4668L10.1025 19.6895L8.55176 19.0518L7.2959 20.0762C7.01755 20.303 6.62814 20.3135 6.34082 20.1182L6.22461 20.0215L4.40918 18.207C4.10937 17.9072 4.09578 17.4249 4.37793 17.1084L5.41602 15.9424L4.75293 14.3672L2.94922 13.875C2.60144 13.7799 2.36035 13.4641 2.36035 13.1035V11.2891C2.36035 10.9173 2.61646 10.5943 2.97852 10.5098L4.72754 10.1006L5.37402 8.51074L4.35449 7.25586C4.09605 6.93776 4.11951 6.47544 4.40918 6.18555L6.22461 4.37012L6.28223 4.31738C6.58311 4.06987 7.02542 4.07387 7.32227 4.33789L8.49023 5.37793L10.0625 4.71484L10.5371 2.91797L10.582 2.79102C10.7098 2.50874 10.9926 2.32129 11.3105 2.32129H13.084L13.2178 2.33203C13.5234 2.38374 13.7766 2.61029 13.8574 2.91797L14.3213 4.68359L15.957 5.35547L17.1602 4.32812L17.2861 4.23926C17.5933 4.06526 17.9878 4.11184 18.2461 4.37012L20.0605 6.18555L20.1582 6.30371C20.3551 6.59504 20.3412 6.98974 20.1064 7.26758L19.082 8.47852L19.7383 10.0635L21.5068 10.5137C21.8615 10.6038 22.1104 10.9232 22.1104 11.2891V13.083Z" stroke="#1D1D1E" stroke-width="1.6" stroke-linecap="round" stroke-linejoin="round"/>
</g>
<defs>
<clipPath id="clip0_1798_101306">
<rect width="24" height="24" fill="white" transform="translate(0.226562 0.203125)"/>
</clipPath>
</defs>
</svg>
