<svg width="25" height="25" viewBox="0 0 25 25" fill="none" xmlns="http://www.w3.org/2000/svg">
<path d="M8.49717 9.125L5.32938 12.2867C4.38578 13.2303 3.87109 14.4802 3.87109 15.8098C3.87109 17.1333 4.38578 18.3833 5.32938 19.3269C6.27298 20.2705 7.52294 20.7852 8.84642 20.7852C10.176 20.7852 11.426 20.2705 12.3696 19.3269L15.5374 16.1652L8.49717 9.125Z" fill="#8AE6B3"/>
<path d="M19.5719 5.08719C18.6283 4.1436 17.3784 3.62891 16.0549 3.62891C14.7253 3.62891 13.4753 4.1436 12.5317 5.08719L8.5 9.12505L15.5402 16.1653L19.5719 12.1274C20.5094 11.1838 21.0302 9.93385 21.0302 8.60424C21.0302 7.28075 20.5094 6.03079 19.5719 5.08719ZM18.034 6.26669C17.9145 6.38678 17.7564 6.44744 17.599 6.44744C17.4427 6.44744 17.2865 6.38801 17.1676 6.26975C16.5537 5.6607 15.5555 5.6607 14.9428 6.26975C14.702 6.5081 14.3154 6.50626 14.0758 6.26669C13.8374 6.0265 13.8387 5.63865 14.0789 5.4003C15.1689 4.31822 16.9415 4.31883 18.0303 5.4003C18.2711 5.63803 18.2724 6.0265 18.034 6.26669Z" fill="#009A46"/>
<path d="M19.5719 5.08719C18.6283 4.1436 17.3784 3.62891 16.0549 3.62891C14.7253 3.62891 13.4753 4.1436 12.5317 5.08719L8.5 9.12505L15.5402 16.1653L19.5719 12.1274C20.5094 11.1838 21.0302 9.93385 21.0302 8.60424C21.0302 7.28075 20.5094 6.03079 19.5719 5.08719ZM18.034 6.26669C17.9145 6.38678 17.7564 6.44744 17.599 6.44744C17.4427 6.44744 17.2865 6.38801 17.1676 6.26975C16.5537 5.6607 15.5555 5.6607 14.9428 6.26975C14.702 6.5081 14.3154 6.50626 14.0758 6.26669C13.8374 6.0265 13.8387 5.63865 14.0789 5.4003C15.1689 4.31822 16.9415 4.31883 18.0303 5.4003C18.2711 5.63803 18.2724 6.0265 18.034 6.26669Z" fill="#05B755"/>
<path d="M14.0833 5.40147C13.8431 5.63983 13.8419 6.02768 14.0803 6.26787C14.3198 6.50744 14.7065 6.50928 14.9473 6.27093C15.56 5.6625 16.5581 5.66188 17.1721 6.27093C17.2916 6.38919 17.4478 6.44862 17.6034 6.44862C17.7609 6.44862 17.919 6.38796 18.0385 6.26787C18.2768 6.02768 18.2756 5.63983 18.0348 5.40086C16.946 4.3194 15.174 4.3194 14.0833 5.40147Z" fill="white"/>
</svg>
