<svg width="28" height="29" viewBox="0 0 28 29" fill="none" xmlns="http://www.w3.org/2000/svg">
<rect y="0.367188" width="28" height="28" rx="14" fill="#5967B4"/>
<path d="M17.192 18.8402L16.5746 17.2221H11.3381L10.7207 18.8752C10.4806 19.5204 10.2748 19.9556 10.1033 20.181C9.93176 20.4063 9.65341 20.5192 9.26822 20.5195C9.10651 20.5201 8.9463 20.4885 8.79687 20.4267C8.64744 20.3649 8.51176 20.274 8.39769 20.1594C8.14558 19.9193 8.01953 19.6468 8.01953 19.3418C8.02192 19.1556 8.0528 18.9708 8.11111 18.7939C8.16977 18.6066 8.26649 18.3458 8.40129 18.0113L11.6982 9.64094C11.7925 9.40084 11.9054 9.11221 12.0367 8.77504C12.1471 8.48174 12.2885 8.2011 12.4586 7.93795C12.6094 7.7136 12.8113 7.52827 13.0477 7.39721C13.2906 7.26001 13.5909 7.19141 13.9486 7.19141C14.3126 7.19141 14.6159 7.26001 14.8588 7.39721C15.0934 7.52674 15.295 7.70861 15.4479 7.92869C15.5986 8.14757 15.7253 8.38198 15.826 8.62789C15.9289 8.87759 16.0595 9.2103 16.2176 9.62602L19.585 17.9439C19.8487 18.5768 19.9806 19.0369 19.9806 19.3243C19.9806 19.6231 19.8561 19.8975 19.6071 20.1475C19.4903 20.268 19.3501 20.3633 19.195 20.4276C19.04 20.4918 18.8735 20.5236 18.7057 20.5211C18.5238 20.5261 18.3432 20.4886 18.1783 20.4115C18.0345 20.3403 17.9083 20.2381 17.8089 20.112C17.6787 19.9326 17.5709 19.7378 17.4879 19.5322C17.374 19.2705 17.2754 19.0398 17.192 18.8402ZM12.0239 15.2613H15.8749L13.9317 9.9445L12.0239 15.2613Z" fill="white"/>
</svg>
