<svg width="24" height="25" viewBox="0 0 24 25" fill="none" xmlns="http://www.w3.org/2000/svg">
<path d="M14.914 17.6877L14.314 16.1152H9.225L8.625 17.7217C8.39167 18.3487 8.19167 18.7717 8.025 18.9907C7.85833 19.2097 7.58783 19.3194 7.2135 19.3197C7.05635 19.3202 6.90065 19.2895 6.75543 19.2295C6.61021 19.1694 6.47836 19.0811 6.3675 18.9697C6.1225 18.7364 6 18.4715 6 18.1752C6.00232 17.9942 6.03233 17.8146 6.089 17.6427C6.146 17.4607 6.24 17.2072 6.371 16.8822L9.575 8.74769C9.66667 8.51435 9.77633 8.23385 9.904 7.90619C10.0112 7.62115 10.1487 7.34843 10.314 7.09269C10.4605 6.87467 10.6568 6.69456 10.8865 6.56719C11.1225 6.43385 11.4143 6.36719 11.762 6.36719C12.1157 6.36719 12.4105 6.43385 12.6465 6.56719C12.8745 6.69307 13.0704 6.86981 13.219 7.08369C13.3654 7.29641 13.4886 7.52421 13.5865 7.76319C13.6865 8.00585 13.8133 8.32919 13.967 8.73319L17.2395 16.8167C17.4958 17.4317 17.624 17.8789 17.624 18.1582C17.624 18.4485 17.503 18.7152 17.261 18.9582C17.1475 19.0753 17.0112 19.1679 16.8606 19.2303C16.7099 19.2928 16.5481 19.3237 16.385 19.3212C16.2082 19.3261 16.0327 19.2896 15.8725 19.2147C15.7327 19.1456 15.6101 19.0461 15.5135 18.9237C15.3869 18.7493 15.2821 18.56 15.2015 18.3602C15.0908 18.1059 14.995 17.8817 14.914 17.6877ZM9.8915 14.2097H13.634L11.7455 9.04269L9.8915 14.2097Z" fill="#0FCE61"/>
</svg>
