<svg width="16" height="17" viewBox="0 0 16 17" fill="none" xmlns="http://www.w3.org/2000/svg">
<g clip-path="url(#clip0_208_13820)">
<path d="M10.854 2.93601L15.854 7.93601C15.9005 7.98245 15.9374 8.03759 15.9626 8.09829C15.9877 8.15899 16.0007 8.22405 16.0007 8.28976C16.0007 8.35547 15.9877 8.42053 15.9626 8.48123C15.9374 8.54193 15.9005 8.59707 15.854 8.64351L10.854 13.6435C10.7602 13.7373 10.633 13.79 10.5003 13.79C10.3676 13.79 10.2403 13.7373 10.1465 13.6435C10.0527 13.5497 10 13.4224 10 13.2898C10 13.1571 10.0527 13.0298 10.1465 12.936L14.7934 8.28976L10.1465 3.64351C10.1001 3.59706 10.0632 3.54191 10.0381 3.48121C10.0129 3.42051 10 3.35546 10 3.28976C10 3.22406 10.0129 3.15901 10.0381 3.09831C10.0632 3.03762 10.1001 2.98247 10.1465 2.93601C10.193 2.88955 10.2481 2.85271 10.3088 2.82756C10.3695 2.80242 10.4346 2.78948 10.5003 2.78948C10.566 2.78948 10.631 2.80242 10.6917 2.82756C10.7524 2.85271 10.8076 2.88955 10.854 2.93601Z" fill="#646F7C"/>
</g>
<defs>
<clipPath id="clip0_208_13820">
<rect width="16" height="16" fill="white" transform="translate(0 0.790039)"/>
</clipPath>
</defs>
</svg>
