<svg width="50" height="50" viewBox="0 0 50 50" fill="none" xmlns="http://www.w3.org/2000/svg">
<circle cx="25" cy="25" r="25" fill="#ECECEC"/>
<path d="M27.5492 18.25C28.6492 18.25 29.5492 17.35 29.5492 16.25C29.5492 15.15 28.6492 14.25 27.5492 14.25C26.4492 14.25 25.5492 15.15 25.5492 16.25C25.5492 17.35 26.4492 18.25 27.5492 18.25ZM23.9492 32.15L24.9492 27.75L27.0492 29.75V35.75H29.0492V28.25L26.9492 26.25L27.5492 23.25C28.8492 24.75 30.8492 25.75 33.0492 25.75V23.75C31.1492 23.75 29.5492 22.75 28.7492 21.35L27.7492 19.75C27.3492 19.15 26.7492 18.75 26.0492 18.75C25.7492 18.75 25.5492 18.85 25.2492 18.85L20.0492 21.05V25.75H22.0492V22.35L23.8492 21.65L22.2492 29.75L17.3492 28.75L16.9492 30.75L23.9492 32.15Z" fill="black"/>
</svg>
