<svg width="50" height="50" viewBox="0 0 50 50" fill="none" xmlns="http://www.w3.org/2000/svg">
<circle cx="25" cy="25" r="25" fill="#ECECEC"/>
<path d="M25 13.7549C20.59 13.7549 17 17.3449 17 21.7549C17 27.3249 23.96 35.0949 24.26 35.4249L25 36.2449L25.74 35.4249C26.04 35.0949 33 27.3249 33 21.7549C33 17.3449 29.41 13.7549 25 13.7549ZM25 33.2249C22.82 30.6149 19 25.2949 19 21.7549C19 18.4449 21.69 15.7549 25 15.7549C28.31 15.7549 31 18.4449 31 21.7549C31 25.5849 26.75 31.1149 25 33.2249ZM23.47 23.9249L21.71 22.1549L20.29 23.5749L23.47 26.7549L29.48 20.7449L28.07 19.3249L23.47 23.9249Z" fill="black"/>
</svg>
