<svg width="50" height="50" viewBox="0 0 50 50" fill="none" xmlns="http://www.w3.org/2000/svg">
<circle cx="25" cy="25" r="25" fill="#ECECEC"/>
<path d="M24.9993 34.75C26.0993 34.75 26.9993 33.85 26.9993 32.75H22.9993C22.9993 33.85 23.8993 34.75 24.9993 34.75ZM30.9993 28.75V23.75C30.9993 20.68 29.3693 18.11 26.4993 17.43V16.75C26.4993 15.92 25.8293 15.25 24.9993 15.25C24.1693 15.25 23.4993 15.92 23.4993 16.75V17.43C20.6393 18.11 18.9993 20.67 18.9993 23.75V28.75L16.9993 30.75V31.75H32.9993V30.75L30.9993 28.75ZM28.9993 29.75H20.9993V23.75C20.9993 21.27 22.5093 19.25 24.9993 19.25C27.4893 19.25 28.9993 21.27 28.9993 23.75V29.75ZM20.5793 16.83L19.1493 15.4C16.7493 17.23 15.1693 20.05 15.0293 23.25H17.0293C17.1793 20.6 18.5393 18.28 20.5793 16.83ZM32.9693 23.25H34.9693C34.8193 20.05 33.2393 17.23 30.8493 15.4L29.4293 16.83C31.4493 18.28 32.8193 20.6 32.9693 23.25Z" fill="black"/>
</svg>
