<svg width="50" height="50" viewBox="0 0 50 50" fill="none" xmlns="http://www.w3.org/2000/svg">
<circle cx="25" cy="25" r="25" fill="#ECECEC"/>
<path d="M33 15H17.01C15.91 15 15.01 15.9 15.01 17L15 35L19 31H33C34.1 31 35 30.1 35 29V17C35 15.9 34.1 15 33 15ZM33 29H18.17L17 30.17V17H33V29ZM25 23C26.1 23 27 22.1 27 21C27 19.9 26.1 19 25 19C23.9 19 23 19.9 23 21C23 22.1 23.9 23 25 23ZM29 26.43C29 25.62 28.52 24.9 27.78 24.58C26.93 24.21 25.99 24 25 24C24.01 24 23.07 24.21 22.22 24.58C21.48 24.9 21 25.62 21 26.43V27H29V26.43Z" fill="black"/>
</svg>
