<svg width="50" height="50" viewBox="0 0 50 50" fill="none" xmlns="http://www.w3.org/2000/svg">
<circle cx="25" cy="25" r="25" fill="#ECECEC"/>
<path d="M33.1117 20.7L32.1117 21.7C33.9117 23.5 33.9117 26.3 32.1117 28.2L33.1117 29.2C35.6117 26.9 35.6117 23.1 33.1117 20.7ZM31.0117 22.8L30.0117 23.8C30.5117 24.5 30.5117 25.4 30.0117 26.1L31.0117 27.1C32.2117 25.9 32.2117 24.1 31.0117 22.8ZM27.0117 14H17.0117C15.9117 14 15.0117 14.9 15.0117 16V34C15.0117 35.1 15.9117 36 17.0117 36H27.0117C28.1117 36 29.0117 35.1 29.0117 34V16C29.0117 14.9 28.1117 14 27.0117 14ZM27.0117 33H17.0117V17H27.0117V33Z" fill="black"/>
</svg>
