<svg width="17" height="17" viewBox="0 0 17 17" fill="none" xmlns="http://www.w3.org/2000/svg">
<g opacity="0.9" clip-path="url(#clip0_568_45299)">
<path fill-rule="evenodd" clip-rule="evenodd" d="M8.03581 14.2546L8.03354 14.2535L8.02912 14.2512L8.01411 14.2436C8.00142 14.2371 7.98333 14.2278 7.96023 14.2156C7.91403 14.1914 7.84771 14.156 7.76421 14.1097C7.59729 14.0173 7.36101 13.8814 7.07855 13.7049C6.51479 13.3526 5.76065 12.8344 5.00378 12.1721C3.51447 10.869 1.896 8.90305 1.896 6.46151C1.896 5.62953 2.1433 4.69918 2.70655 3.96263C3.28427 3.20715 4.17928 2.67969 5.38691 2.67969C6.58706 2.67969 7.44899 3.19834 7.99973 3.70671C8.11046 3.80891 8.20907 3.91104 8.296 4.00903C8.38292 3.91104 8.48154 3.80891 8.59226 3.70671C9.14301 3.19834 10.005 2.67969 11.2051 2.67969C12.4127 2.67969 13.3077 3.20715 13.8855 3.96263C14.4487 4.69918 14.696 5.62953 14.696 6.46151C14.696 8.90305 13.0775 10.869 11.5882 12.1721C10.8313 12.8343 10.0772 13.3526 9.51345 13.7049C9.23098 13.8814 8.99476 14.0173 8.82778 14.1097C8.74429 14.156 8.67796 14.1914 8.63176 14.2156C8.60867 14.2278 8.59063 14.2371 8.57789 14.2436L8.56288 14.2512L8.55851 14.2535L8.55619 14.2546C8.3924 14.3365 8.19959 14.3365 8.03581 14.2546Z" fill="#A7ADC2"/>
<path fill-rule="evenodd" clip-rule="evenodd" d="M5.32703 6.14062C5.51735 6.14062 5.68851 6.2565 5.75919 6.43321L6.72339 8.84371L7.31522 7.36412C7.38592 7.18741 7.55707 7.07153 7.74739 7.07153C7.93772 7.07153 8.10886 7.18741 8.17957 7.36412L8.62105 8.4679H9.05066C9.30774 8.4679 9.51612 8.67628 9.51612 8.93335C9.51612 9.19042 9.30774 9.39881 9.05066 9.39881H8.30594C8.11561 9.39881 7.94447 9.28291 7.87376 9.10622L7.74739 8.79027L7.15557 10.2699C7.08486 10.4465 6.91372 10.5624 6.72339 10.5624C6.53307 10.5624 6.36192 10.4465 6.29122 10.2699L5.32703 7.85936L4.82829 9.10622C4.7576 9.28291 4.58644 9.39881 4.39612 9.39881H2.5343C2.27724 9.39881 2.06885 9.19042 2.06885 8.93335C2.06885 8.67628 2.27724 8.4679 2.5343 8.4679H4.08099L4.89486 6.43321C4.96555 6.2565 5.1367 6.14062 5.32703 6.14062Z" fill="white"/>
</g>
<defs>
<clipPath id="clip0_568_45299">
<rect width="12.8" height="12.8" fill="white" transform="translate(1.70361 2.09766)"/>
</clipPath>
</defs>
</svg>
