<svg width="41" height="41" viewBox="0 0 41 41" fill="none" xmlns="http://www.w3.org/2000/svg">
<rect x="0.103516" y="0.496094" width="40" height="40" rx="20" fill="#FFEFF0"/>
<g clip-path="url(#clip0_568_45289)">
<path d="M21.085 23.9105C20.8574 23.9105 20.6434 23.797 20.5163 23.6063L19.3521 21.8597H18.3506C17.9732 21.8597 17.667 21.5534 17.667 21.1761C17.667 20.7987 17.9732 20.4925 18.3506 20.4925H19.7178C19.9461 20.4925 20.1594 20.6066 20.2866 20.7967L21.0002 21.8672L22.524 18.819C22.6361 18.5962 22.8597 18.4512 23.1092 18.4417C23.3724 18.4348 23.5932 18.5593 23.7217 18.7725L25.5736 21.8597H26.5538C26.9312 21.8597 27.2375 22.166 27.2375 22.5433C27.2375 22.9206 26.9312 23.2269 26.5538 23.2269H25.1866C24.9467 23.2269 24.7238 23.1011 24.6008 22.8954L23.1905 20.5451L21.6968 23.5332C21.5875 23.7512 21.3708 23.8948 21.1274 23.9098C21.1137 23.9105 21.0994 23.9105 21.085 23.9105Z" fill="#F0272F"/>
<path d="M25.7526 25.0044C24.9631 25.0044 24.2262 24.5833 23.8201 23.9065L23.6772 23.6734L23.2561 24.5081C22.9027 25.23 22.1808 25.7037 21.3837 25.7489L21.2409 25.7564C20.4814 25.7564 19.782 25.3804 19.3609 24.7487L18.5263 23.5005H18.233C16.9923 23.5005 15.9771 22.4853 15.9771 21.2446C15.9771 20.0038 16.9923 18.9887 18.233 18.9887H19.7369C20.1279 18.9887 20.5039 19.0864 20.8348 19.2744L21.4815 17.9811C21.8499 17.2441 22.5869 16.7629 23.414 16.7328C23.7374 16.7253 24.0532 16.7779 24.3389 16.8982C22.5568 14.0934 20.2934 11.7924 20.1355 11.6345C19.9249 11.4239 19.5489 11.4239 19.3384 11.6345C19.0752 11.8977 12.9692 18.1089 12.9692 22.6959C12.9692 26.4557 16.0072 29.5162 19.7369 29.5162C22.6621 29.5162 25.1661 27.6288 26.1061 25.0044H25.7526Z" fill="#FA6C71"/>
</g>
<defs>
<clipPath id="clip0_568_45289">
<rect x="8.10352" y="8.49609" width="24" height="24" rx="12" fill="white"/>
</clipPath>
</defs>
</svg>
