<svg width="16" height="16" viewBox="0 0 16 16" fill="none" xmlns="http://www.w3.org/2000/svg">
<path d="M9.99935 10.6673H5.99935V12.0007H9.99935V10.6673Z" fill="black"/>
<path d="M8.66602 6.00065H7.33268V7.33398H5.99935V8.66732H7.33268V10.0007H8.66602V8.66732H9.99935V7.33398H8.66602V6.00065Z" fill="black"/>
<path d="M7.99935 1.33398C4.44602 4.36732 2.66602 6.98732 2.66602 9.20065C2.66602 12.5207 5.19935 14.6673 7.99935 14.6673C10.7993 14.6673 13.3327 12.5207 13.3327 9.20065C13.3327 6.98732 11.5527 4.36732 7.99935 1.33398ZM7.99935 13.334C5.76602 13.334 3.99935 11.6207 3.99935 9.20065C3.99935 7.64065 5.29935 5.57398 7.99935 3.10732C10.6993 5.57398 11.9993 7.63398 11.9993 9.20065C11.9993 11.6207 10.2327 13.334 7.99935 13.334Z" fill="black"/>
</svg>
