<svg width="17" height="17" viewBox="0 0 17 17" fill="none" xmlns="http://www.w3.org/2000/svg">
<g clip-path="url(#clip0_1023_90195)">
<path d="M4.63895 14.5523L8.23482 12.7369C8.34998 12.6788 8.47716 12.6486 8.60613 12.6486C8.73511 12.6486 8.86229 12.6788 8.97745 12.7369L12.574 14.5523C12.6996 14.6157 12.8394 14.6459 12.98 14.64C13.1207 14.6341 13.2574 14.5923 13.3773 14.5185C13.4972 14.4448 13.5962 14.3416 13.6648 14.2187C13.7335 14.0959 13.7696 13.9575 13.7696 13.8167V3.3651C13.7696 3.11287 13.6694 2.87097 13.491 2.69261C13.3127 2.51426 13.0708 2.41406 12.8185 2.41406H4.3944C4.14217 2.41406 3.90027 2.51426 3.72191 2.69261C3.54356 2.87097 3.44336 3.11287 3.44336 3.3651V13.8166C3.44336 13.9573 3.47941 14.0958 3.54807 14.2186C3.61673 14.3415 3.71572 14.4447 3.83559 14.5185C3.95547 14.5923 4.09224 14.6341 4.23287 14.64C4.3735 14.6459 4.5133 14.6157 4.63895 14.5523Z" fill="#BEBEC7"/>
<path d="M11.1238 7.03445C11.1499 7.00896 11.1684 6.97667 11.1771 6.94124C11.1858 6.90581 11.1844 6.86864 11.1731 6.83395C11.1618 6.79926 11.141 6.76843 11.1131 6.74494C11.0852 6.72145 11.0512 6.70624 11.0151 6.70104L9.57322 6.49154C9.54186 6.48699 9.51208 6.47487 9.48644 6.45625C9.46081 6.43762 9.44009 6.41304 9.42608 6.38462L8.781 5.07762C8.76485 5.04494 8.73987 5.01742 8.7089 4.99818C8.67793 4.97894 8.6422 4.96875 8.60574 4.96875C8.56928 4.96875 8.53355 4.97894 8.50258 4.99818C8.47161 5.01742 8.44663 5.04494 8.43048 5.07762L7.7854 6.38435C7.77139 6.41276 7.75067 6.43735 7.72503 6.45598C7.6994 6.4746 7.66962 6.48672 7.63826 6.49127L6.19595 6.70104C6.15983 6.70624 6.12589 6.72145 6.09797 6.74494C6.07005 6.76843 6.04926 6.79926 6.03795 6.83395C6.02664 6.86864 6.02526 6.90581 6.03398 6.94124C6.04269 6.97667 6.06115 7.00896 6.08726 7.03445L7.13095 8.05179C7.15363 8.07393 7.17058 8.10126 7.18036 8.13141C7.19013 8.16156 7.19243 8.19364 7.18706 8.22487L6.94115 9.66135C6.93498 9.69729 6.93899 9.73424 6.95272 9.76802C6.96646 9.8018 6.98938 9.83107 7.01888 9.8525C7.04839 9.87393 7.0833 9.88668 7.11967 9.8893C7.15605 9.89192 7.19243 9.8843 7.2247 9.86732L8.51539 9.18909C8.54343 9.17437 8.57462 9.16668 8.60628 9.16668C8.63795 9.16668 8.66914 9.17437 8.69717 9.18909L9.98787 9.86732C10.0201 9.8843 10.0565 9.89192 10.0929 9.8893C10.1293 9.88668 10.1642 9.87393 10.1937 9.8525C10.2232 9.83107 10.2461 9.8018 10.2598 9.76802C10.2736 9.73424 10.2776 9.69729 10.2714 9.66135L10.024 8.22487C10.0186 8.19364 10.0209 8.16156 10.0307 8.13141C10.0405 8.10126 10.0574 8.07393 10.0801 8.05179L11.1238 7.03445Z" fill="white"/>
</g>
<defs>
<clipPath id="clip0_1023_90195">
<rect width="16" height="16" fill="white" transform="translate(0.608398 0.527344)"/>
</clipPath>
</defs>
</svg>
