<svg width="36" height="36" viewBox="0 0 36 36" fill="none" xmlns="http://www.w3.org/2000/svg">
<circle cx="18" cy="18" r="18" fill="#ECECEC"/>
<path d="M16.6257 20.75H14.334V18H16.6257V15.7083H19.3757V18H21.6673V20.75H19.3757V23.0417H16.6257V20.75ZM24.4173 14.3333V24.4167C24.4173 25.425 23.5923 26.25 22.584 26.25H13.4173C12.409 26.25 11.584 25.425 11.584 24.4167V14.3333C11.584 13.325 12.409 12.5 13.4173 12.5H22.584C23.5923 12.5 24.4173 13.325 24.4173 14.3333ZM22.584 14.3333H13.4173V24.4167H22.584V14.3333ZM23.5006 9.75H12.5007V11.5833H23.5006V9.75Z" fill="black"/>
</svg>
