<?xml version="1.0" encoding="UTF-8"?>
<svg xmlns="http://www.w3.org/2000/svg" version="1.1" viewBox="0 0 24 24">
  <defs>
    <style>
      .cls-1 {
        stroke: #000;
        stroke-linecap: round;
        stroke-linejoin: round;
        stroke-width: .8px;
      }

      .cls-2 {
        fill: #ececec;
      }
    </style>
  </defs>
  <!-- Generator: Adobe Illustrator 28.7.0, SVG Export Plug-In . SVG Version: 1.2.0 Build 136)  -->
  <g>
    <g id="_레이어_1" data-name="레이어_1">
      <circle class="cls-2" cx="12" cy="12" r="12"/>
      <g>
        <path class="cls-1" d="M12.3,15.3c-.1,0-.2,0-.2-.2l-.7-5.1-1.3,3.7c0,0-.1.1-.2.1,0,0-.2,0-.2-.2l-.7-2.7-.8,1.2c0,0-.1,0-.2,0h-2.6c-.1,0-.2,0-.2-.2s0-.2.2-.2h2.5l1-1.5c0,0,.1-.1.2,0,0,0,.2,0,.2.2l.7,2.5,1.4-3.9c0,0,.1-.2.2-.1.1,0,.2,0,.2.2l.6,4.8.5-2.2c0,0,.1-.2.2-.2h1.1c.1,0,.2,0,.2.2v1c.1,0,1-2.9,1-2.9,0,0,.1-.2.2-.2,0,0,.2,0,.2.1l.7,1.8h2.1c.1,0,.2,0,.2.2s0,.2-.2.2h-2.3c0,0-.2,0-.2-.1l-.5-1.4-1,3.3c0,.1-.1.2-.2.2-.1,0-.2,0-.2-.2l-.2-1.9h-.7l-.8,3.2c0,0-.1.2-.2.2Z"/>
        <path class="cls-1" d="M12,17.8s0,0,0,0c-2.6-1.3-4.5-2.9-5.5-4.8,0-.1,0-.2,0-.3.1,0,.2,0,.3,0,1,1.8,2.7,3.3,5.2,4.5,2.5-1.2,4.2-2.7,5.2-4.5,0-.1.2-.1.3,0,.1,0,.1.2,0,.3-1,1.9-2.9,3.5-5.5,4.8,0,0,0,0,0,0Z"/>
        <path class="cls-1" d="M18.1,11.1s0,0,0,0c-.1,0-.2-.1-.2-.2,0,0,0-.2,0-.3,0-.2,0-.3,0-.3,0-2-1.5-3.6-3.3-3.6s-1.9.5-2.5,1.3c0,.1-.3.1-.3,0-.6-.8-1.5-1.3-2.5-1.3-1.8,0-3.3,1.6-3.3,3.6,0,0,0,.1,0,.3,0,.1,0,.2,0,.3,0,.1,0,.2-.2.2-.1,0-.2,0-.2-.2,0-.1,0-.2,0-.3,0-.2,0-.3,0-.3,0-2.2,1.7-4,3.7-4s2,.5,2.7,1.2c.7-.8,1.7-1.2,2.7-1.2,2,0,3.7,1.8,3.7,4,0,0,0,.1,0,.3,0,0,0,.2,0,.3,0,.1-.1.2-.2.2Z"/>
      </g>
    </g>
  </g>
</svg>