<svg width="36" height="36" viewBox="0 0 36 36" fill="none" xmlns="http://www.w3.org/2000/svg">
<circle cx="18" cy="18" r="18" fill="#ECECEC"/>
<path d="M24.4167 9.75H11.5833C10.575 9.75 9.75 10.575 9.75 11.5833V24.4167C9.75 25.425 10.575 26.25 11.5833 26.25H24.4167C25.425 26.25 26.25 25.425 26.25 24.4167V11.5833C26.25 10.575 25.425 9.75 24.4167 9.75ZM24.4167 24.4167H11.5833V11.5833H24.4167V24.4167ZM18 12.5C16.4783 12.5 15.25 13.7283 15.25 15.25C15.25 16.7717 16.4783 18 18 18C19.5217 18 20.75 16.7717 20.75 15.25C20.75 13.7283 19.5217 12.5 18 12.5ZM17.0833 15.7083H16.1667V14.7917H17.0833V15.7083ZM18.4583 15.7083H17.5417V14.7917H18.4583V15.7083ZM19.8333 15.7083H18.9167V14.7917H19.8333V15.7083Z" fill="black"/>
</svg>
