<svg width="36" height="36" viewBox="0 0 36 36" fill="none" xmlns="http://www.w3.org/2000/svg">
<circle cx="18" cy="18" r="18" fill="#ECECEC"/>
<path d="M9.29102 19.8333C9.29102 21.0249 10.061 22.0333 11.1243 22.4183V25.3333H9.29102V27.1666H14.791V25.3333H12.9577V22.4183C14.021 22.0333 14.791 21.0249 14.791 19.8333V12.4999H9.29102V19.8333ZM11.1243 14.3333H12.9577V17.0833H11.1243V14.3333ZM11.1243 18.9166H12.9577V19.8333C12.9577 20.3374 12.5452 20.7499 12.041 20.7499C11.5368 20.7499 11.1243 20.3374 11.1243 19.8333V18.9166Z" fill="black"/>
<path d="M25.461 14.8283L24.581 14.5349C24.2052 14.4066 23.9577 14.0583 23.9577 13.6641V9.74992C23.9577 9.24575 23.5452 8.83325 23.041 8.83325H20.291C19.7868 8.83325 19.3743 9.24575 19.3743 9.74992V13.6733C19.3743 14.0674 19.1268 14.4158 18.751 14.5441L17.871 14.8374C17.1285 15.0941 16.6243 15.7908 16.6243 16.5791V25.3333C16.6243 26.3416 17.4493 27.1666 18.4577 27.1666H24.8744C25.8827 27.1666 26.7077 26.3416 26.7077 25.3333V16.5699C26.7077 15.7816 26.2035 15.0849 25.461 14.8283ZM21.2077 10.6666H22.1243V11.5833H21.2077V10.6666ZM24.8744 25.3333H18.4577V23.4999H24.8744V25.3333ZM24.8744 21.6666H18.4577V19.8333H24.8744V21.6666ZM24.8744 17.9999H18.4577V16.5699L19.3285 16.2766C20.456 15.9099 21.2077 14.8558 21.2077 13.6733V13.4166H22.1243V13.6733C22.1243 14.8558 22.876 15.9099 24.0035 16.2858L24.8744 16.5699V17.9999Z" fill="black"/>
</svg>
