<svg width="36" height="36" viewBox="0 0 36 36" fill="none" xmlns="http://www.w3.org/2000/svg">
<circle cx="18" cy="18" r="18" fill="#ECECEC"/>
<path d="M23.5007 23.0416H24.8757V25.7916H23.5007V23.0416ZM8.83398 23.0416H22.584V25.7916H8.83398V23.0416ZM21.6948 17.7249H20.2923C19.3573 17.7249 18.5965 16.8266 18.5965 15.8916C18.5965 14.9566 19.3573 14.2874 20.2923 14.2874V12.9124C18.5965 12.9124 17.2215 14.2874 17.2215 15.9833C17.2215 17.6791 18.5965 19.0541 20.2923 19.0541H21.6948C22.6573 19.0541 23.5007 19.7324 23.5007 20.9333V22.1249H24.8757V20.6216C24.8757 18.9624 23.409 17.7249 21.6948 17.7249ZM25.7923 23.0416H27.1673V25.7916H25.7923V23.0416ZM24.2798 15.4608C24.8482 14.9016 25.1965 14.1316 25.1965 13.2791C25.1965 11.5833 23.8215 10.2083 22.1257 10.2083V11.5833C23.0607 11.5833 23.8215 12.3441 23.8215 13.2791C23.8215 14.2141 23.0607 14.9749 22.1257 14.9749V16.3499C24.179 16.3499 25.7923 18.0274 25.7923 20.0808V22.1249H27.1673V20.0716C27.1673 18.0366 25.994 16.2766 24.2798 15.4608Z" fill="black"/>
</svg>
