<svg width="36" height="36" viewBox="0 0 36 36" fill="none" xmlns="http://www.w3.org/2000/svg">
<circle cx="18" cy="18" r="18" fill="#ECECEC"/>
<path d="M20.7493 21.6666H15.2493V23.4999H20.7493V21.6666Z" fill="black"/>
<path d="M18.916 15.2499H17.0827V17.0833H15.2493V18.9166H17.0827V20.7499H18.916V18.9166H20.7493V17.0833H18.916V15.2499Z" fill="black"/>
<path d="M17.9993 8.83325C13.1135 13.0041 10.666 16.6066 10.666 19.6499C10.666 24.2149 14.1493 27.1666 17.9993 27.1666C21.8493 27.1666 25.3327 24.2149 25.3327 19.6499C25.3327 16.6066 22.8852 13.0041 17.9993 8.83325ZM17.9993 25.3333C14.9285 25.3333 12.4993 22.9774 12.4993 19.6499C12.4993 17.5049 14.2868 14.6633 17.9993 11.2716C21.7118 14.6633 23.4993 17.4958 23.4993 19.6499C23.4993 22.9774 21.0702 25.3333 17.9993 25.3333Z" fill="black"/>
</svg>
