<svg width="36" height="36" viewBox="0 0 36 36" fill="none" xmlns="http://www.w3.org/2000/svg">
<circle cx="18" cy="18" r="18" fill="#ECECEC"/>
<path d="M18.916 11.8124C19.9243 11.8124 20.7493 10.9874 20.7493 9.97909C20.7493 8.97075 19.9243 8.14575 18.916 8.14575C17.9077 8.14575 17.0827 8.97075 17.0827 9.97909C17.0827 10.9874 17.9077 11.8124 18.916 11.8124ZM15.5243 14.9291L12.9577 27.8541H14.8827L16.5327 20.5208L18.4577 22.3541V27.8541H20.291V20.9791L18.366 19.1458L18.916 16.3958C20.1077 17.7708 21.941 18.6874 23.9577 18.6874V16.8541C22.216 16.8541 20.7493 15.9374 20.016 14.6541L19.0993 13.1874C18.586 12.3716 17.5593 12.0416 16.6702 12.4174L12.041 14.3791V18.6874H13.8743V15.5708L15.5243 14.9291Z" fill="black"/>
</svg>
