<svg width="72" height="73" viewBox="0 0 72 73" fill="none" xmlns="http://www.w3.org/2000/svg">
<rect x="0.5" y="0.960938" width="71" height="71" rx="35.5" fill="white"/>
<rect x="0.5" y="0.960938" width="71" height="71" rx="35.5" stroke="#EFEFF4"/>
<path d="M36.7102 51.4121H39.7017C40.0914 51.4121 40.4075 51.7282 40.4075 52.1179C40.4075 52.5077 40.0914 52.8238 39.7017 52.8238H36.7102C36.3204 52.8238 36.0043 52.5077 36.0043 52.1179C36.0043 51.7282 36.3204 51.4121 36.7102 51.4121Z" fill="#2B2B2D"/>
<path d="M43.8093 23.3374H32.6062C32.2164 23.3374 31.9004 23.0214 31.9004 22.6316C31.9004 22.2418 32.2164 21.9258 32.6062 21.9258H43.8093C44.1991 21.9258 44.5151 22.2418 44.5151 22.6316C44.5151 23.0214 44.1991 23.3374 43.8093 23.3374Z" fill="#2B2B2D"/>
<path d="M16.895 35.9152C16.895 30.3152 21.3435 25.7353 26.8906 25.5267V23.1669C26.8906 21.0255 28.6329 19.2832 30.7744 19.2832H45.6422C47.7837 19.2832 49.5259 21.0255 49.5259 23.1669V51.5374C49.5259 53.679 47.7836 55.4211 45.6422 55.4211H30.7744C28.6329 55.4211 26.8906 53.6789 26.8906 51.5374V46.3035C21.3435 46.0949 16.895 41.5151 16.895 35.9152ZM45.6422 20.6948H30.7744C29.4113 20.6948 28.3023 21.8038 28.3023 23.1669V25.5686C33.5568 26.0812 37.6769 30.5259 37.6769 35.9152C37.6769 37.8601 37.1411 39.7435 36.124 41.3847L36.8508 43.493C36.9355 43.739 36.8781 44.0118 36.7013 44.2027C36.5245 44.3936 36.2569 44.4717 36.005 44.4059L33.9707 43.8744C32.36 45.2299 30.3872 46.0577 28.3023 46.2615V48.7775H48.1142V23.1669C48.1142 21.8038 47.0053 20.6948 45.6422 20.6948ZM30.7744 54.0096H45.6422C47.0053 54.0096 48.1142 52.9006 48.1142 51.5375V50.1891H28.3023V51.5375C28.3023 52.9006 29.4113 54.0096 30.7744 54.0096ZM27.2859 44.8993C29.5195 44.8993 31.6602 44.0736 33.3136 42.5742C33.445 42.4551 33.6146 42.3913 33.7878 42.3913C33.8473 42.3913 33.9072 42.3988 33.9662 42.4142L35.0866 42.7069L34.6778 41.5209C34.6059 41.3124 34.6356 41.0823 34.7581 40.899C35.7441 39.4223 36.2653 37.6989 36.2653 35.9151C36.2653 30.9611 32.2372 26.9308 27.2859 26.9308C22.3346 26.9308 18.3065 30.9612 18.3065 35.9151C18.3065 40.869 22.3347 44.8993 27.2859 44.8993Z" fill="#2B2B2D"/>
<path d="M22.8005 33.7949H31.4466C32.0381 33.7949 32.5178 34.111 32.5178 34.5007C32.5178 34.8905 32.0381 35.2066 31.4466 35.2066H22.8005C22.209 35.2066 21.7294 34.8905 21.7294 34.5007C21.7294 34.111 22.209 33.7949 22.8005 33.7949Z" fill="#0CC25A"/>
<path d="M22.8005 37.0703H31.4466C32.0381 37.0703 32.5178 37.3864 32.5178 37.7761C32.5178 38.1659 32.0381 38.482 31.4466 38.482H22.8005C22.209 38.482 21.7294 38.1659 21.7294 37.7761C21.7294 37.3864 22.209 37.0703 22.8005 37.0703Z" fill="#0CC25A"/>
</svg>
