<svg width="72" height="73" viewBox="0 0 72 73" fill="none" xmlns="http://www.w3.org/2000/svg">
<rect x="0.5" y="0.960938" width="71" height="71" rx="35.5" fill="white"/>
<rect x="0.5" y="0.960938" width="71" height="71" rx="35.5" stroke="#EFEFF4"/>
<path d="M43.5806 32.7569L40.324 31.2026C39.7901 30.9473 39.4444 30.3985 39.4444 29.8059C39.4444 29.5869 39.5282 29.3819 39.6736 29.2431C40.9604 28.0169 41.6993 26.2241 41.6993 24.3233C41.6993 20.7723 39.1416 17.8828 35.9987 17.8828C32.8548 17.8828 30.298 20.7723 30.298 24.3233C30.298 26.2241 31.036 28.0178 32.3228 29.2431C32.4691 29.3819 32.5529 29.5879 32.5529 29.8059C32.5529 30.3985 32.2072 30.9464 31.6724 31.2026L28.4158 32.7569C27.9974 32.9563 27.8204 33.4566 28.0207 33.875C28.2201 34.2924 28.7205 34.4723 29.1389 34.2701L32.3964 32.7159C33.5108 32.1838 34.2311 31.0414 34.2311 29.8059C34.2311 29.1304 33.9581 28.4828 33.481 28.0281C32.525 27.1177 31.9762 25.7666 31.9762 24.3224C31.9762 21.6957 33.781 19.5591 35.9996 19.5591C38.2182 19.5591 40.0221 21.6957 40.0221 24.3224C40.0221 25.7666 39.4742 27.1168 38.5173 28.029C38.0411 28.4828 37.7672 29.1313 37.7672 29.8059C37.7672 31.0405 38.4874 32.1829 39.6028 32.7159L42.8594 34.2701C42.9758 34.326 43.0988 34.3521 43.22 34.3521C43.533 34.3521 43.834 34.176 43.9775 33.8741C44.175 33.4566 43.998 32.9563 43.5806 32.7569Z" fill="#2B2B2D"/>
<rect x="16.0752" y="39.06" width="39.8463" height="12.9295" rx="6.46477" stroke="#2B2B2D" stroke-width="1.33098"/>
<path d="M27.647 44.2295H26.2947L26.9709 43.1073C27.1366 42.8342 27.0388 42.4845 26.7526 42.3268C26.4688 42.1703 26.1027 42.2628 25.9381 42.536L25.2619 43.6593L24.5857 42.536C24.4212 42.2617 24.055 42.1691 23.7712 42.3268C23.4862 42.4845 23.3884 42.8342 23.553 43.1073L24.2292 44.2295H22.8768C22.5477 44.2295 22.2805 44.4855 22.2805 44.8009C22.2805 45.1163 22.5477 45.3723 22.8768 45.3723H24.2292L23.553 46.4944C23.3872 46.7676 23.485 47.1172 23.7712 47.2749C23.8654 47.3264 23.968 47.3515 24.0694 47.3515C24.2745 47.3515 24.476 47.2498 24.5857 47.0658L25.2619 45.9425L25.9381 47.0658C26.0478 47.2498 26.2494 47.3515 26.4545 47.3515C26.5558 47.3515 26.6584 47.3275 26.7526 47.2749C27.0376 47.1172 27.1354 46.7676 26.9709 46.4944L26.2947 45.3723H27.647C27.9762 45.3723 28.2433 45.1163 28.2433 44.8009C28.2433 44.4855 27.9762 44.2295 27.647 44.2295ZM34.8024 44.2295H33.45L34.1262 43.1073C34.2919 42.8342 34.1942 42.4845 33.9079 42.3268C33.6241 42.1703 33.258 42.2628 33.0935 42.536L32.4173 43.6593L31.7411 42.536C31.5765 42.2617 31.2104 42.1691 30.9266 42.3268C30.6416 42.4845 30.5438 42.8342 30.7083 43.1073L31.3845 44.2295H30.0322C29.703 44.2295 29.4359 44.4855 29.4359 44.8009C29.4359 45.1163 29.703 45.3723 30.0322 45.3723H31.3845L30.7083 46.4944C30.5426 46.7676 30.6404 47.1172 30.9266 47.2749C31.0208 47.3264 31.1233 47.3515 31.2247 47.3515C31.4298 47.3515 31.6314 47.2498 31.7411 47.0658L32.4173 45.9425L33.0935 47.0658C33.2031 47.2498 33.4047 47.3515 33.6098 47.3515C33.7112 47.3515 33.8137 47.3275 33.9079 47.2749C34.193 47.1172 34.2908 46.7676 34.1262 46.4944L33.45 45.3723H34.8024C35.1315 45.3723 35.3986 45.1163 35.3986 44.8009C35.3986 44.4855 35.1315 44.2295 34.8024 44.2295ZM49.1131 44.2295H47.7607L48.4369 43.1073C48.6027 42.8342 48.5049 42.4845 48.2187 42.3268C47.9336 42.1703 47.5687 42.2628 47.4041 42.536L46.728 43.6593L46.0518 42.536C45.8872 42.2617 45.5235 42.1691 45.2373 42.3268C44.951 42.4845 44.8544 42.8342 45.019 43.1073L45.6952 44.2295H44.3428C44.0137 44.2295 43.7466 44.4855 43.7466 44.8009C43.7466 45.1163 44.0137 45.3723 44.3428 45.3723H45.6952L45.019 46.4944C44.8532 46.7676 44.951 47.1172 45.2373 47.2749C45.3315 47.3264 45.434 47.3515 45.5354 47.3515C45.7405 47.3515 45.9421 47.2498 46.0518 47.0658L46.728 45.9425L47.4041 47.0658C47.5138 47.2498 47.7154 47.3515 47.9205 47.3515C48.0219 47.3515 48.1244 47.3275 48.2187 47.2749C48.5037 47.1172 48.6015 46.7676 48.4369 46.4944L47.7607 45.3723H49.1131C49.4422 45.3723 49.7094 45.1163 49.7094 44.8009C49.7094 44.4855 49.4422 44.2295 49.1131 44.2295ZM41.9577 44.2295H40.6054L41.2815 43.1073C41.4473 42.8342 41.3495 42.4845 41.0633 42.3268C40.7783 42.1703 40.4122 42.2628 40.2488 42.536L39.5726 43.6593L38.8964 42.536C38.733 42.2617 38.3669 42.1691 38.0819 42.3268C37.7969 42.4845 37.6991 42.8342 37.8637 43.1073L38.5398 44.2295H37.1875C36.8583 44.2295 36.5912 44.4855 36.5912 44.8009C36.5912 45.1163 36.8583 45.3723 37.1875 45.3723H38.5398L37.8637 46.4944C37.6979 46.7676 37.7957 47.1172 38.0819 47.2749C38.1761 47.3264 38.2787 47.3515 38.38 47.3515C38.5852 47.3515 38.7867 47.2498 38.8964 47.0658L39.5726 45.9425L40.2488 47.0658C40.3585 47.2498 40.56 47.3515 40.7652 47.3515C40.8665 47.3515 40.9691 47.3275 41.0633 47.2749C41.3483 47.1172 41.4461 46.7676 41.2815 46.4944L40.6054 45.3723H41.9577C42.2869 45.3723 42.554 45.1163 42.554 44.8009C42.554 44.4855 42.2869 44.2295 41.9577 44.2295Z" fill="#0CC25A"/>
</svg>
