<svg width="72" height="73" viewBox="0 0 72 73" fill="none" xmlns="http://www.w3.org/2000/svg">
<rect x="0.5" y="0.960938" width="71" height="71" rx="35.5" fill="white"/>
<rect x="0.5" y="0.960938" width="71" height="71" rx="35.5" stroke="#EFEFF4"/>
<g clip-path="url(#clip0_479_51894)">
<path d="M23.2502 49.8816V21.6645C23.2502 20.1983 24.4388 19.0098 25.905 19.0098H41.3582C42.8243 19.0098 44.0129 20.1983 44.0129 21.6645V49.8816C44.0129 51.3478 42.8243 52.5363 41.3582 52.5363H25.905C24.4388 52.5363 23.2502 51.3478 23.2502 49.8816Z" fill="white" stroke="#2B2B2D" stroke-width="1.358"/>
<path d="M28.1423 22.1229H39.1156C39.4973 22.1229 39.8069 21.8133 39.8069 21.4316C39.8069 21.0498 39.4973 20.7402 39.1156 20.7402H28.1423C27.7605 20.7402 27.4509 21.0498 27.4509 21.4316C27.4509 21.8133 27.7605 22.1229 28.1423 22.1229Z" fill="#2B2B2D"/>
<path d="M23.1877 47.543H43.928" stroke="#2B2B2D" stroke-width="1.358"/>
<mask id="mask0_479_51894" style="mask-type:alpha" maskUnits="userSpaceOnUse" x="31" y="34" width="28" height="24">
<path d="M39.8822 53.761L38.1362 53.7259L34.9469 53.7846L31.9492 46.5759L35.5035 37.3582L40.7787 34.6367H49.0242L57.2707 42.1334L58.1592 50.5738L51.406 53.7253L48.9727 53.7592L47.4938 55.4753L44.0904 57.8737L39.8822 53.761Z" fill="#D9D9D9"/>
</mask>
<g mask="url(#mask0_479_51894)">
<path d="M34.5186 46.3545V45.1217L35.0251 44.2063L36.2878 42.728L36.8865 41.219V39.2171L37.3041 38.5078L38.7516 38.0153L41.4926 37.4001L43.3096 35.7062L44.6647 35.0898L47.8676 38.0153L51.8097 38.5078L52.364 42.4803L54.5814 44.729V45.8685L52.1792 48.7242L52.364 51.8432L51.1629 53.1059H47.8676L45.9274 55.2001L44.6647 55.6929H43.8332L42.3549 54.153L40.7534 53.2599H38.6284L36.8865 52.6103V48.7242L34.5186 46.3545Z" fill="white"/>
<path d="M50.4873 45.7102C50.4873 49.0136 47.8095 51.6914 44.5061 51.6914C41.2028 51.6914 38.5249 49.0136 38.5249 45.7102C38.5249 42.4069 41.2028 39.7291 44.5061 39.7291C47.8095 39.7291 50.4873 42.4069 50.4873 45.7102Z" fill="white" stroke="#0CC25A" stroke-width="1.164" stroke-miterlimit="10" stroke-linecap="round" stroke-linejoin="round"/>
<path d="M53.7506 43.1392C53.3573 42.7631 52.9505 42.3743 52.8086 42.0304C52.6549 41.6579 52.6666 41.0742 52.6778 40.5096C52.696 39.5962 52.7166 38.5609 52.0471 37.8882C51.3764 37.2143 50.34 37.2307 49.4255 37.245C48.8619 37.2538 48.2792 37.2631 47.9081 37.1085C47.5646 36.9654 47.1768 36.5582 46.8019 36.1645C46.1581 35.4887 45.4286 34.7227 44.4369 34.7227C43.4452 34.7227 42.7156 35.4887 42.0719 36.1645C41.697 36.5582 41.3092 36.9654 40.9656 37.1085C40.5947 37.2631 40.0118 37.2539 39.4483 37.2451C38.534 37.2307 37.4974 37.2143 36.8267 37.8882C36.1572 38.5609 36.1778 39.5962 36.196 40.5097C36.2072 41.0742 36.2189 41.658 36.0652 42.0305C35.9233 42.3743 35.5165 42.7632 35.1231 43.1392C34.4492 43.7835 33.6853 44.5136 33.6853 45.5042C33.6853 46.4946 34.4492 47.2249 35.1231 47.8691C35.5165 48.2451 35.9233 48.6339 36.0652 48.9778C36.2189 49.3503 36.2072 49.9341 36.196 50.4986C36.1778 51.412 36.1572 52.4473 36.8267 53.12C37.2921 53.5876 37.9336 53.7228 38.5884 53.757V62.2771C38.5884 62.4802 38.6903 62.6697 38.8597 62.7818C39.029 62.8938 39.2434 62.9134 39.4302 62.8339L44.4369 60.7046L49.4436 62.8339C49.5196 62.8662 49.6001 62.8821 49.6803 62.8821C49.7973 62.8821 49.9136 62.8482 50.0141 62.7818C50.1835 62.6697 50.2854 62.4803 50.2854 62.2771V53.757C50.9401 53.7228 51.5816 53.5877 52.0471 53.12C52.7166 52.4473 52.696 51.412 52.6778 50.4986C52.6666 49.934 52.6549 49.3502 52.8086 48.9777C52.9505 48.6338 53.3573 48.245 53.7507 47.869C54.4246 47.2247 55.1885 46.4945 55.1885 45.5041C55.1885 44.5136 54.4246 43.7834 53.7506 43.1392ZM44.6737 59.4904C44.5224 59.4261 44.3514 59.4261 44.2002 59.4904L39.7984 61.3625V53.7591C40.2439 53.7575 40.6714 53.7771 40.9657 53.8996C41.3092 54.0428 41.697 54.4499 42.072 54.8437C42.7157 55.5195 43.4453 56.2855 44.4369 56.2855C45.4286 56.2855 46.1582 55.5195 46.8019 54.8437C47.1769 54.4499 47.5647 54.0428 47.9082 53.8996C48.2025 53.777 48.63 53.7575 49.0755 53.7591V61.3624L44.6737 59.4904ZM52.9146 46.9944C52.4303 47.4573 51.9296 47.9359 51.6902 48.5161C51.4401 49.122 51.4543 49.834 51.468 50.5227C51.4821 51.2282 51.4966 51.9578 51.1895 52.2665C50.8814 52.5759 50.1509 52.5643 49.4446 52.5533C48.7573 52.5424 48.0464 52.5313 47.4428 52.7828C46.8642 53.0239 46.387 53.5248 45.9257 54.0092C45.4263 54.5334 44.91 55.0755 44.4369 55.0755C43.9638 55.0755 43.4475 54.5334 42.9481 54.0092C42.4867 53.5248 42.0096 53.0239 41.431 52.7828C40.9508 52.5826 40.4027 52.5489 39.8525 52.5489C39.7112 52.5489 39.5697 52.5511 39.4293 52.5533C38.723 52.5644 37.9924 52.5759 37.6843 52.2664C37.3772 51.9579 37.3917 51.2282 37.4058 50.5227C37.4195 49.834 37.4337 49.1219 37.1837 48.5161C36.9442 47.9359 36.4435 47.4573 35.9592 46.9944C35.4362 46.4944 34.8953 45.9773 34.8953 45.5041C34.8953 45.0308 35.4362 44.5138 35.9592 44.0137C36.4435 43.5509 36.9442 43.0722 37.1837 42.492C37.4337 41.8861 37.4195 41.1741 37.4058 40.4855C37.3917 39.7799 37.3772 39.0503 37.6843 38.7417C37.9924 38.4322 38.7229 38.4437 39.4293 38.4548C40.1167 38.4656 40.8275 38.4768 41.431 38.2254C42.0097 37.9843 42.4867 37.4834 42.9481 36.999C43.4475 36.4747 43.9638 35.9326 44.4369 35.9326C44.91 35.9326 45.4263 36.4747 45.9257 36.999C46.387 37.4834 46.8642 37.9843 47.4427 38.2254C48.0463 38.4769 48.7572 38.4657 49.4445 38.4548C50.1511 38.4437 50.8814 38.4322 51.1895 38.7418C51.4966 39.0504 51.482 39.7799 51.468 40.4855C51.4543 41.1741 51.4401 41.8862 51.6901 42.492C51.9295 43.0722 52.4303 43.5509 52.9146 44.0138C53.4376 44.5138 53.9784 45.0308 53.9784 45.5041C53.9785 45.9773 53.4376 46.4944 52.9146 46.9944Z" fill="#2B2B2D"/>
<path d="M43.6736 47.93C43.4983 47.93 43.3231 47.8631 43.1893 47.7294L41.8922 46.4324C41.6248 46.165 41.6248 45.7313 41.8922 45.4639C42.1597 45.1965 42.5933 45.1964 42.8607 45.4639L43.6736 46.2767L46.4039 43.5462C46.6715 43.2788 47.105 43.2789 47.3725 43.5462C47.6399 43.8137 47.6399 44.2473 47.3725 44.5147L44.1578 47.7293C44.0241 47.8631 43.8488 47.93 43.6736 47.93Z" fill="#0CC25A"/>
</g>
</g>
<defs>
<clipPath id="clip0_479_51894">
<rect width="50" height="50" fill="white" transform="matrix(-1 0 0 1 61 11.4609)"/>
</clipPath>
</defs>
</svg>
