<svg width="57" height="57" viewBox="0 0 57 57" fill="none" xmlns="http://www.w3.org/2000/svg">
<rect x="0.3125" y="0.854492" width="55.8906" height="55.8906" rx="27.9453" fill="white"/>
<rect x="0.3125" y="0.854492" width="55.8906" height="55.8906" rx="27.9453" stroke="#EFEFF4" stroke-width="0.109375"/>
<path d="M37.4893 7.40852C40.1354 7.55243 43.2479 9.6133 43.104 12.2595C42.7284 15.1318 41.5991 19.7827 39.9681 21.3622C38.1076 25.1577 35.5062 27.4438 32.3793 30.4004L17.7713 44.2119C15.8457 46.0325 12.8042 45.9473 10.9836 44.0217C9.16294 42.0961 9.24813 39.0546 11.1738 37.234L25.7817 23.4223C28.2862 21.0544 28.6573 19.9976 30.0429 16.9087C30.1943 16.3363 31.2346 14.7917 31.9505 11.9622C32.6664 9.13276 34.8432 7.26474 37.4893 7.40852Z" fill="#F76D7A"/>
<path fill-rule="evenodd" clip-rule="evenodd" d="M27.3373 35.1672L32.3794 30.4C35.5866 27.3676 38.1726 23.7967 40.0452 19.8866C40.2455 19.4685 40.4375 19.0464 40.6214 18.6208C40.8224 18.1554 40.4212 17.4183 39.9714 17.6187C37.9307 18.5275 35.1837 20.5705 33.9217 21.044C32.3786 21.5404 32.3498 22.1955 32.5486 23.3634C32.8691 24.7435 32.5966 25.5675 30.5005 25.9595C29.4397 26.2133 29.2558 26.8392 29.3659 27.5896C29.6914 29.1666 28.3151 29.9195 27.2724 30.5974C24.961 31.7761 25.7438 33.6142 27.3373 35.1672Z" fill="#F9C765"/>
<path fill-rule="evenodd" clip-rule="evenodd" d="M30.6561 15.4969C30.6556 15.4974 30.6553 15.4979 30.6549 15.4985C30.6339 15.5293 30.6151 15.5615 30.5986 15.5951C30.5985 15.5954 30.5982 15.5959 30.598 15.5964C29.2778 18.2954 27.4757 20.7616 25.253 22.8632L10.6451 36.6747C10.4011 36.9054 10.1826 37.1532 9.98966 37.4142C9.73699 37.7559 9.80927 38.2384 10.1511 38.4911C10.4928 38.7437 10.9753 38.6713 11.228 38.3296C11.3678 38.1404 11.5263 37.961 11.7031 37.7938L26.3111 23.9822C28.6546 21.7664 30.5573 19.1684 31.9556 16.3258C32.8213 15.1148 34.7094 14.7159 36.5165 15.3557C38.5795 16.0861 39.8879 17.9436 39.3321 19.5941C37.5015 23.4043 34.9778 26.8845 31.8506 29.8412L17.2427 43.6527C17.0623 43.8233 16.8702 43.974 16.6692 44.1048C16.3131 44.3367 16.2122 44.8141 16.444 45.1702C16.6759 45.5264 17.1532 45.6273 17.5094 45.3955C17.7867 45.2149 18.0517 45.0071 18.3006 44.7717L32.9086 30.9602C36.1846 27.8627 38.8263 24.2153 40.7392 20.2215C40.7394 20.221 40.7397 20.2205 40.7399 20.22C40.7517 20.1954 40.7622 20.1701 40.7713 20.1444C40.7715 20.1437 40.7717 20.1431 40.7719 20.1425C41.6067 17.7809 39.9877 14.9511 37.0305 13.9041C34.4756 12.9995 31.8468 13.7589 30.6561 15.4969Z" fill="#E24352"/>
<path fill-rule="evenodd" clip-rule="evenodd" d="M21.2623 33.4985C21.2691 33.9234 21.6196 34.2629 22.0445 34.2561C22.4694 34.2493 22.8088 33.8988 22.8021 33.4739L22.7827 32.2625C22.7759 31.8376 22.4254 31.4981 22.0005 31.5049C21.5755 31.5117 21.236 31.8622 21.2429 32.2871L21.2623 33.4985ZM18.1051 33.2853C17.6868 33.21 17.286 33.4883 17.2107 33.9065C17.1352 34.3248 17.4136 34.7255 17.8319 34.8009L19.0242 35.0158C19.4425 35.0911 19.8432 34.8128 19.9186 34.3945C19.9939 33.9763 19.7155 33.5756 19.2974 33.5002L18.1051 33.2853ZM15.539 37.8378C15.2093 37.5698 14.7238 37.62 14.4558 37.9498C14.1879 38.2796 14.238 38.765 14.5678 39.0329L15.5081 39.797C15.8378 40.065 16.3233 40.0148 16.5913 39.685C16.8593 39.3552 16.8091 38.8699 16.4793 38.6019L15.539 37.8378ZM19.8965 37.976C20.0923 37.5988 19.9451 37.1337 19.5678 36.9378C19.1907 36.742 18.7255 36.8893 18.5297 37.2664L17.9715 38.3417C17.7757 38.7188 17.9228 39.184 18.3 39.3798C18.6772 39.5756 19.1424 39.4285 19.3383 39.0513L19.8965 37.976ZM24.007 28.463C23.7138 28.1554 23.226 28.1436 22.9183 28.4367C22.6106 28.7298 22.5988 29.2176 22.8919 29.5253L23.7276 30.4025C24.0207 30.7102 24.5086 30.722 24.8162 30.4289C25.124 30.1357 25.1358 29.6479 24.8427 29.3402L24.007 28.463ZM28.3364 22.7601C27.9315 22.8894 27.7078 23.323 27.837 23.7279C27.9662 24.1327 28.3999 24.3565 28.8048 24.2272L29.9588 23.8587C30.3637 23.7296 30.5875 23.2959 30.4582 22.8911C30.329 22.4863 29.8953 22.2625 29.4906 22.3917L28.3364 22.7601ZM25.8178 26.9331C25.8408 27.3575 26.204 27.6834 26.6283 27.6604C27.0527 27.6374 27.3786 27.2742 27.3556 26.8498L27.2899 25.6401C27.2669 25.2158 26.9038 24.8899 26.4795 24.9129C26.0551 24.9359 25.7292 25.2991 25.7522 25.7234L25.8178 26.9331Z" fill="#F9C765"/>
<path fill-rule="evenodd" clip-rule="evenodd" d="M17.8849 45.1224C10.38 37.1247 17.8835 45.0103 10.2963 37.0679C10.2427 37.1002 10.1927 37.1386 10.1467 37.1834C8.36312 38.9219 8.64882 42.112 10.7842 44.3028C12.9196 46.4936 16.1014 46.8609 17.8849 45.1224Z" fill="#E24352"/>
<path d="M48.2949 37.27C48.2949 43.0488 43.6103 47.7334 37.8315 47.7334C32.0528 47.7334 27.3682 43.0488 27.3682 37.27C27.3682 31.4913 32.0528 26.8066 37.8315 26.8066C43.6103 26.8066 48.2949 31.4913 48.2949 37.27Z" fill="white"/>
<path d="M46.1908 37.3459C46.1908 41.9778 42.4358 45.7327 37.8039 45.7327C33.1719 45.7327 29.417 41.9778 29.417 37.3459C29.417 32.7139 33.1719 28.959 37.8039 28.959C42.4358 28.959 46.1908 32.7139 46.1908 37.3459Z" fill="#FFBA33"/>
<path fill-rule="evenodd" clip-rule="evenodd" d="M39.1457 33.3204C39.1457 32.5793 38.5449 31.9785 37.8038 31.9785C37.0627 31.9785 36.4619 32.5793 36.4619 33.3204V37.3461C36.4619 38.0872 37.0627 38.688 37.8038 38.688C38.5449 38.688 39.1457 38.0872 39.1457 37.3461V33.3204ZM37.8038 42.3782C38.5449 42.3782 39.1457 41.7774 39.1457 41.0363C39.1457 40.2952 38.5449 39.6944 37.8038 39.6944C37.0627 39.6944 36.4619 40.2952 36.4619 41.0363C36.4619 41.7774 37.0627 42.3782 37.8038 42.3782Z" fill="white"/>
</svg>
