<svg width="25" height="25" viewBox="0 0 25 25" fill="none" xmlns="http://www.w3.org/2000/svg">
<g clip-path="url(#clip0_764_51938)">
<path d="M0.803711 12.7998C0.803711 19.4272 6.17629 24.7998 12.8037 24.7998C19.4311 24.7998 24.8037 19.4272 24.8037 12.7998C24.8037 6.17239 19.4311 0.799805 12.8037 0.799805C6.17629 0.799805 0.803711 6.17239 0.803711 12.7998Z" fill="#FFE7E3"/>
<g clip-path="url(#clip1_764_51938)">
<g clip-path="url(#clip2_764_51938)">
<path d="M17.0925 14.8358L12.8882 21.3574C9.13578 21.3574 6.08301 18.3206 6.08301 14.5877C6.08301 13.0367 7.1768 10.8633 9.33391 8.12841C10.9044 6.13754 12.4487 4.59893 12.5136 4.53442C12.6171 4.43128 12.7528 4.37988 12.8882 4.37988L17.0925 14.8358Z" fill="#FD8F7E"/>
<path d="M19.6575 14.5877C19.6575 18.3206 16.6206 21.3574 12.8877 21.3574V4.37988C13.0238 4.37988 13.1595 4.43163 13.2634 4.53548C13.3279 4.59999 14.8637 6.1386 16.425 8.12948C18.57 10.8643 19.6575 13.037 19.6575 14.5877Z" fill="#F4677C"/>
<path d="M14.0579 15.854L12.8883 17.9551C12.8146 17.9551 12.7412 17.9398 12.6724 17.9093L10.1205 16.7751C9.92839 16.6897 9.80469 16.4994 9.80469 16.2892V13.1702C9.80469 13.083 9.82595 12.999 9.86565 12.9238L12.8706 14.3338L12.8883 14.3256L14.0579 15.854Z" fill="#EBE4F0"/>
<path d="M15.9713 13.17V16.289C15.9713 16.4992 15.8476 16.6895 15.6555 16.7749L13.1035 17.9091C13.0348 17.9396 12.9614 17.9549 12.8877 17.9549V14.3254L15.9032 12.9102C15.9472 12.9885 15.9713 13.0775 15.9713 13.17Z" fill="#CDCDE4"/>
<path d="M14.0225 13.0666L12.8883 14.8356C12.8146 14.8356 12.7412 14.8204 12.6724 14.7899L10.1205 13.6557C9.92839 13.5703 9.80469 13.3799 9.80469 13.1698C9.80469 12.9596 9.92839 12.7692 10.1205 12.6838L12.6724 11.5496C12.7412 11.5191 12.8146 11.5039 12.8883 11.5039L14.0225 13.0666Z" fill="#FDF3F3"/>
<path d="M15.9713 13.1698C15.9713 13.3799 15.8476 13.5703 15.6555 13.6557L13.1035 14.7899C13.0348 14.8204 12.9614 14.8356 12.8877 14.8356V11.5039C12.9614 11.5039 13.0348 11.5191 13.1035 11.5496L15.6555 12.6838C15.8476 12.7692 15.9713 12.9596 15.9713 13.1698Z" fill="#EBE4F0"/>
</g>
</g>
</g>
<defs>
<clipPath id="clip0_764_51938">
<rect width="24" height="24" fill="white" transform="translate(0.798828 0.799805)"/>
</clipPath>
<clipPath id="clip1_764_51938">
<rect width="20" height="20" fill="white" transform="translate(2.79883 2.80176)"/>
</clipPath>
<clipPath id="clip2_764_51938">
<rect width="18.1472" height="18.1472" fill="white" transform="translate(3.81445 3.8125)"/>
</clipPath>
</defs>
</svg>
