<svg width="21" height="21" viewBox="0 0 21 21" fill="none" xmlns="http://www.w3.org/2000/svg">
<path d="M17.7499 4.5H2.7499C2.52888 4.5 2.31692 4.5878 2.16064 4.74408C2.00436 4.90036 1.91656 5.11232 1.91656 5.33333C1.91656 5.55435 2.00436 5.76631 2.16064 5.92259C2.31692 6.07887 2.52888 6.16667 2.7499 6.16667H4.41656V16.1667C4.41676 16.8296 4.68022 17.4654 5.14902 17.9342C5.61782 18.403 6.25358 18.6665 6.91656 18.6667H13.5832C14.2462 18.6665 14.882 18.403 15.3508 17.9342C15.8196 17.4654 16.0831 16.8297 16.0832 16.1667V6.16667H17.7499C17.9709 6.16667 18.1829 6.07887 18.3392 5.92259C18.4954 5.76631 18.5832 5.55435 18.5832 5.33333C18.5832 5.11232 18.4954 4.90036 18.3392 4.74408C18.1829 4.5878 17.9709 4.5 17.7499 4.5ZM9.41657 13.6667C9.41657 13.8877 9.32877 14.0996 9.17249 14.2559C9.01621 14.4122 8.80425 14.5 8.58323 14.5C8.36222 14.5 8.15026 14.4122 7.99398 14.2559C7.8377 14.0996 7.7499 13.8877 7.7499 13.6667V9.5C7.7499 9.27899 7.8377 9.06703 7.99398 8.91075C8.15026 8.75446 8.36222 8.66667 8.58323 8.66667C8.80425 8.66667 9.01621 8.75446 9.17249 8.91075C9.32877 9.06703 9.41657 9.27899 9.41657 9.5V13.6667ZM12.7499 13.6667C12.7499 13.8877 12.6621 14.0996 12.5058 14.2559C12.3495 14.4122 12.1376 14.5 11.9166 14.5C11.6956 14.5 11.4836 14.4122 11.3273 14.2559C11.171 14.0996 11.0832 13.8877 11.0832 13.6667V9.5C11.0832 9.27899 11.171 9.06703 11.3273 8.91075C11.4836 8.75446 11.6956 8.66667 11.9166 8.66667C12.1376 8.66667 12.3495 8.75446 12.5058 8.91075C12.6621 9.06703 12.7499 9.27899 12.7499 9.5V13.6667Z" fill="#BDBDBD"/>
<path d="M8.58333 3.66667H11.9167C12.1377 3.66667 12.3496 3.57887 12.5059 3.42259C12.6622 3.26631 12.75 3.05435 12.75 2.83333C12.75 2.61232 12.6622 2.40036 12.5059 2.24408C12.3496 2.0878 12.1377 2 11.9167 2H8.58333C8.36232 2 8.15036 2.0878 7.99408 2.24408C7.8378 2.40036 7.75 2.61232 7.75 2.83333C7.75 3.05435 7.8378 3.26631 7.99408 3.42259C8.15036 3.57887 8.36232 3.66667 8.58333 3.66667Z" fill="#BDBDBD"/>
</svg>
