<svg width="25" height="25" viewBox="0 0 25 25" fill="none" xmlns="http://www.w3.org/2000/svg">
<g clip-path="url(#clip0_764_49253)">
<path d="M0.393555 12.7998C0.393555 19.4272 5.76614 24.7998 12.3936 24.7998C19.021 24.7998 24.3936 19.4272 24.3936 12.7998C24.3936 6.17239 19.021 0.799805 12.3936 0.799805C5.76614 0.799805 0.393555 6.17239 0.393555 12.7998Z" fill="#FFE5FB"/>
<path fill-rule="evenodd" clip-rule="evenodd" d="M12.3899 5.11719C12.9958 5.11719 14.2072 7.20783 14.2072 7.20783C14.2072 7.20783 16.4162 6.22857 16.9062 6.58455C17.3963 6.94066 17.1475 9.34408 17.1475 9.34408C17.1475 9.34408 19.5102 9.85022 19.6974 10.4263C19.8845 11.0024 18.2706 12.8007 18.2706 12.8007C18.2706 12.8007 19.8845 14.5989 19.6974 15.175C19.5102 15.751 17.1475 16.2573 17.1475 16.2573C17.1475 16.2573 17.3963 18.6607 16.9062 19.0167C16.4162 19.3728 14.2072 18.3935 14.2072 18.3935C14.2072 18.3935 12.9958 20.4842 12.3899 20.4842C11.7842 20.4842 10.5727 18.3935 10.5727 18.3935C10.5727 18.3935 8.36377 19.3728 7.87372 19.0167C7.38367 18.6607 7.63245 16.2573 7.63245 16.2573C7.63245 16.2573 5.26968 15.751 5.08249 15.175C4.8953 14.5989 6.50933 12.8007 6.50933 12.8007C6.50933 12.8007 4.8953 11.0024 5.08249 10.4263C5.26968 9.85022 7.63245 9.34408 7.63245 9.34408C7.63245 9.34408 7.38367 6.94066 7.87372 6.58455C8.36377 6.22857 10.5727 7.20783 10.5727 7.20783C10.5727 7.20783 11.7842 5.11719 12.3899 5.11719Z" fill="#DC98E8"/>
<path fill-rule="evenodd" clip-rule="evenodd" d="M10.2621 12.104C9.84342 11.8221 9.73235 11.2532 10.0143 10.8344C10.2963 10.4156 10.8653 10.3046 11.2839 10.5866C11.7027 10.8686 11.8138 11.4374 11.5317 11.8562C11.2498 12.275 10.6809 12.3861 10.2621 12.104Z" fill="#FFE5FB"/>
<path fill-rule="evenodd" clip-rule="evenodd" d="M9.75307 15.7711C9.18473 15.3883 9.03397 14.6162 9.41669 14.0479C9.79941 13.4796 10.5715 13.3289 11.1399 13.7116C11.7082 14.0944 11.8588 14.8665 11.4761 15.4347C11.0934 16.003 10.3213 16.1538 9.75307 15.7711Z" fill="#FFE5FB"/>
<path fill-rule="evenodd" clip-rule="evenodd" d="M13.103 16.061C12.6842 15.7791 12.5731 15.2102 12.8552 14.7914C13.1371 14.3727 13.7061 14.2616 14.1248 14.5436C14.5436 14.8256 14.6546 15.3946 14.3726 15.8132C14.0906 16.232 13.5216 16.3431 13.103 16.061Z" fill="#FFE5FB"/>
<path fill-rule="evenodd" clip-rule="evenodd" d="M13.3336 12.0154C12.6756 11.5723 12.5011 10.6783 12.9442 10.0203C13.3873 9.36214 14.2814 9.18765 14.9394 9.63075C15.5975 10.074 15.772 10.9679 15.3289 11.626C14.8857 12.284 13.9917 12.4585 13.3336 12.0154Z" fill="#FFE5FB"/>
</g>
<defs>
<clipPath id="clip0_764_49253">
<rect width="24" height="24" fill="white" transform="translate(0.388672 0.799805)"/>
</clipPath>
</defs>
</svg>
