<svg width="25" height="25" viewBox="0 0 25 25" fill="none" xmlns="http://www.w3.org/2000/svg">
<g clip-path="url(#clip0_764_49076)">
<path d="M0.393555 12.7998C0.393555 19.4272 5.76614 24.7998 12.3936 24.7998C19.021 24.7998 24.3936 19.4272 24.3936 12.7998C24.3936 6.17239 19.021 0.799805 12.3936 0.799805C5.76614 0.799805 0.393555 6.17239 0.393555 12.7998Z" fill="#FFE7E3"/>
<g clip-path="url(#clip1_764_49076)">
<path d="M13.7747 6.18753C12.9904 4.56631 10.2728 4.31387 7.58791 5.61278C6.34994 6.21165 5.31331 7.05412 4.66897 7.98497C3.96969 8.99518 3.80256 10.0021 4.19834 10.8202C4.64581 11.7452 5.72231 12.2246 7.06337 12.2246C8.07275 12.2245 9.23212 11.9528 10.3852 11.395C11.6232 10.7961 12.6598 9.95362 13.3041 9.02281C14.0034 8.01259 14.1705 7.00568 13.7747 6.18753Z" fill="#FF8263"/>
<path d="M13.7745 6.18753C12.9902 4.56631 10.2726 4.31387 7.5877 5.61278C7.54288 5.63447 7.49838 5.65656 7.4541 5.67887L10.6304 11.2716C11.7597 10.683 12.7026 9.8914 13.3039 9.02281C14.0032 8.01259 14.1703 7.00568 13.7745 6.18753Z" fill="#FF553F"/>
<path d="M8.23234 9.42759C8.16755 9.42759 8.10374 9.42459 8.04118 9.41852C7.54905 9.37084 7.16493 9.1329 6.9873 8.76568L7.8294 8.3583C7.86018 8.42196 7.97874 8.47262 8.1314 8.48743C8.37437 8.51102 8.66952 8.44865 8.95046 8.31274C9.2314 8.17684 9.47359 7.97918 9.6059 7.77412C9.68909 7.64521 9.72293 7.5208 9.69215 7.45718L10.5342 7.0498C10.7119 7.41702 10.66 7.86587 10.3919 8.2813C10.1659 8.63162 9.80049 8.94109 9.36305 9.15271C8.99155 9.3324 8.59702 9.42759 8.23234 9.42759Z" fill="#FF553F"/>
<path d="M19.058 15.0441C18.3029 14.2007 17.1694 13.4938 15.8666 13.0536C14.5637 12.6134 13.2338 12.488 12.1218 12.7007C10.9151 12.9314 10.0902 13.5327 9.79935 14.3937C9.50845 15.2547 9.79957 16.233 10.6191 17.1484C11.3743 17.9918 12.5077 18.6987 13.8106 19.1389C14.6992 19.4391 15.6002 19.5929 16.4362 19.5929C16.826 19.5929 17.2018 19.5594 17.5554 19.4918C18.7621 19.2611 19.5869 18.6598 19.8778 17.7988C20.1688 16.9378 19.8776 15.9594 19.058 15.0441Z" fill="#FF8263"/>
<path d="M19.0592 15.0441C18.343 14.2442 17.2866 13.5673 16.0681 13.124L13.4688 19.0153C13.5817 19.0585 13.696 19.0998 13.8117 19.1389C14.7003 19.4391 15.6013 19.5929 16.4373 19.5929C16.8272 19.5929 17.2029 19.5594 17.5565 19.4918C18.7632 19.2611 19.5881 18.6598 19.879 17.7987C20.1699 16.9377 19.8788 15.9594 19.0592 15.0441Z" fill="#FF553F"/>
<path d="M15.485 16.9288C15.2011 16.9288 14.9015 16.8785 14.6089 16.7796C13.5623 16.4261 12.9369 15.5736 13.1851 14.8389L14.0714 15.1383C14.0209 15.2877 14.3003 15.688 14.9083 15.8934C15.204 15.9933 15.5102 16.0199 15.7482 15.9663C15.8978 15.9326 16.0092 15.8676 16.0318 15.8006L16.918 16.1C16.7875 16.4865 16.4359 16.7704 15.9536 16.8789C15.8053 16.9122 15.6477 16.9288 15.485 16.9288Z" fill="#FF553F"/>
<path d="M16.0316 15.7998C16.009 15.8668 15.8977 15.9318 15.748 15.9655C15.51 16.0191 15.2038 15.9925 14.9082 15.8926C14.89 15.8865 14.8721 15.8801 14.8545 15.8736L14.4766 16.7302C14.5199 16.7472 14.5638 16.7636 14.6087 16.7788C14.9013 16.8777 15.2009 16.928 15.4848 16.928C15.6476 16.928 15.8052 16.9114 15.9534 16.8781C16.4357 16.7695 16.7873 16.4856 16.9178 16.0992L16.0316 15.7998Z" fill="#F33D00"/>
<path d="M9.41295 9.12746C9.82804 8.91684 10.1744 8.61809 10.3917 8.2813C10.6597 7.86587 10.7116 7.41699 10.534 7.0498L9.69188 7.45718C9.72266 7.52084 9.68882 7.64524 9.60563 7.77412C9.47332 7.97918 9.23113 8.17684 8.9502 8.31274L9.41295 9.12746Z" fill="#F33D00"/>
</g>
</g>
<defs>
<clipPath id="clip0_764_49076">
<rect width="24" height="24" fill="white" transform="translate(0.388672 0.799805)"/>
</clipPath>
<clipPath id="clip1_764_49076">
<rect width="16" height="16" fill="white" transform="translate(3.98828 4.7666)"/>
</clipPath>
</defs>
</svg>
