<svg width="57" height="57" viewBox="0 0 57 57" fill="none" xmlns="http://www.w3.org/2000/svg">
<rect x="0.128906" y="0.966797" width="56" height="56" rx="28" fill="#F0F4FF"/>
<g clip-path="url(#clip0_764_75788)">
<path d="M33.205 13.7139H38.988C40.3666 13.7139 41.4833 14.8308 41.4833 16.2098V44.9135C41.4833 46.2925 40.3666 47.4095 38.988 47.4095H17.7776C16.3989 47.4095 15.2822 46.2925 15.2822 44.9135V16.2098C15.2822 14.8308 16.3989 13.7139 17.7776 13.7139H33.205Z" fill="url(#paint0_linear_764_75788)"/>
<path d="M33.1009 16.5137H38.1473C38.4829 16.5137 38.7575 16.7884 38.7575 17.1241V43.984C38.7575 44.3198 38.4829 44.5945 38.1473 44.5945H18.6209C18.2853 44.5945 18.0107 44.3198 18.0107 43.984V17.1241C18.0107 16.7884 18.2853 16.5137 18.6209 16.5137H33.1009Z" fill="white"/>
<path fill-rule="evenodd" clip-rule="evenodd" d="M24.3012 20.1787C25.0939 20.1787 25.7366 20.7712 25.7366 21.502V22.2816C25.7366 23.0124 24.7644 23.6048 24.3013 23.6048C23.8382 23.6048 22.8659 23.0124 22.8659 22.2816V21.502C22.8659 20.7712 23.5085 20.1787 24.3012 20.1787ZM24.302 23.8957C24.8903 23.8957 25.4719 24.0234 26.0086 24.2703C26.5527 24.5207 26.9241 25.08 27.0078 25.7184C27.0857 25.967 27.1784 26.4182 27.2445 27.2244C27.3464 28.4689 27.3615 29.518 27.3715 30.2131C27.3753 30.4755 27.3783 30.6874 27.385 30.8403C27.4053 31.2993 26.8288 31.2997 26.4374 30.9488L25.7145 36.8803C25.8717 37.0054 25.9702 37.1582 25.9702 37.2461C25.9702 37.5736 25.7224 37.565 25.3855 37.5532C25.3535 37.5521 25.3207 37.551 25.2872 37.5501H25.059L24.9958 37.5519C24.9205 37.5543 24.8652 37.556 24.8245 37.5501H24.6698V32.2665C24.6698 32.2148 24.6595 32.1638 24.6395 32.1164C24.6194 32.069 24.5901 32.0264 24.5533 31.9911C24.5165 31.9559 24.4731 31.9287 24.4256 31.9114C24.3782 31.894 24.3278 31.8868 24.2775 31.8903C24.183 31.8988 24.095 31.9436 24.0313 32.0157C23.9677 32.0879 23.933 32.1821 23.9342 32.2794V37.5501H23.7794C23.7409 37.5588 23.686 37.5563 23.6079 37.5528L23.6075 37.5527L23.5461 37.5501H23.2242L23.2201 37.5502C22.8712 37.5588 22.6117 37.5653 22.6117 37.2448C22.6117 37.1539 22.717 36.9755 22.8836 36.8318L22.1583 30.881C21.7701 31.298 21.1201 31.3272 21.1416 30.8403C21.1484 30.6874 21.1514 30.4755 21.1552 30.2131C21.1652 29.518 21.1802 28.4688 21.2822 27.2244C21.399 25.7987 21.5992 25.4832 21.6535 25.4351C21.7962 24.918 22.1336 24.4828 22.5954 24.2703C23.1321 24.0234 23.7137 23.8957 24.302 23.8957Z" fill="#5789F8"/>
<path d="M35.0633 41.3184H22.241C21.9187 41.3184 21.6582 40.9155 21.6582 40.419C21.6582 39.9225 21.9187 39.5195 22.241 39.5195H35.0633C35.3856 39.5195 35.6461 39.9225 35.6461 40.419C35.6461 40.9155 35.3856 41.3184 35.0633 41.3184Z" fill="#BFCBD1"/>
<path d="M35.3989 37.618H29.9723C29.8358 37.618 29.7256 36.6767 29.7256 35.517C29.7256 34.3573 29.8358 33.416 29.9723 33.416H35.3989C35.5353 33.416 35.6455 34.3573 35.6455 35.517C35.6455 36.6767 35.5353 37.618 35.3989 37.618Z" fill="#CBDDE6" fill-opacity="0.6"/>
<path d="M35.4003 21.8217H29.9737C29.8373 21.8217 29.7271 21.5834 29.7271 21.2897C29.7271 20.9961 29.8373 20.7578 29.9737 20.7578H35.4003C35.5367 20.7578 35.647 20.9961 35.647 21.2897C35.647 21.5834 35.5367 21.8217 35.4003 21.8217Z" fill="#BFCBD1"/>
<path d="M35.4003 23.9262H29.9737C29.8373 23.9262 29.7271 23.6879 29.7271 23.3942C29.7271 23.1006 29.8373 22.8623 29.9737 22.8623H35.4003C35.5367 22.8623 35.647 23.1006 35.647 23.3942C35.647 23.6879 35.5367 23.9262 35.4003 23.9262Z" fill="#BFCBD1"/>
<path d="M35.4003 26.0297H29.9737C29.8373 26.0297 29.7271 25.7914 29.7271 25.4977C29.7271 25.2041 29.8373 24.9658 29.9737 24.9658H35.4003C35.5367 24.9658 35.647 25.2041 35.647 25.4977C35.647 25.7914 35.5367 26.0297 35.4003 26.0297Z" fill="#BFCBD1"/>
<path d="M35.4003 28.1342H29.9737C29.8373 28.1342 29.7271 27.8959 29.7271 27.6022C29.7271 27.3086 29.8373 27.0703 29.9737 27.0703H35.4003C35.5367 27.0703 35.647 27.3086 35.647 27.6022C35.647 27.8959 35.5367 28.1342 35.4003 28.1342Z" fill="#BFCBD1"/>
<path d="M33.3739 14.3368V15.5847C33.3739 16.2711 32.8125 16.8327 32.1263 16.8327H24.6402C23.954 16.8327 23.3926 16.2711 23.3926 15.5847V14.3368C23.3926 13.6504 23.954 13.0888 24.6402 13.0888H25.8879V12.4648C25.8879 11.7784 26.4494 11.2168 27.1356 11.2168H29.6309C30.3172 11.2168 30.8786 11.7784 30.8786 12.4648V13.0888H32.1263C32.8125 13.0888 33.3739 13.6504 33.3739 14.3368Z" fill="#4364BB"/>
</g>
<defs>
<linearGradient id="paint0_linear_764_75788" x1="28.3828" y1="13.7139" x2="28.3828" y2="47.4095" gradientUnits="userSpaceOnUse">
<stop stop-color="#609FF1"/>
<stop offset="1" stop-color="#3B86E9"/>
</linearGradient>
<clipPath id="clip0_764_75788">
<rect width="40.04" height="40.04" fill="white" transform="translate(8.10889 9.53418)"/>
</clipPath>
</defs>
</svg>
