<svg width="41" height="41" viewBox="0 0 41 41" fill="none" xmlns="http://www.w3.org/2000/svg">
<rect x="0.5" y="0.445312" width="40" height="40" rx="20" fill="#FBF5E9"/>
<g clip-path="url(#clip0_693_80217)">
<path d="M33.3245 14.6639L32.697 15.6774C30.5093 19.205 27.4773 22.1322 23.8748 24.1943C20.3948 26.1902 17.8016 29.4319 16.6186 33.2652H7.67847V24.893L9.57048 22.2457C11.4965 19.5562 13.9843 17.3177 16.8614 15.6852C20.198 13.7996 22.9552 11.0371 24.8344 7.69691L24.8779 7.61914H33.3245V14.6639Z" fill="#ED776A"/>
<path d="M7.67847 33.2652V27.7393L10.9169 23.2057C12.7023 20.713 15.0082 18.6382 17.675 17.1251C21.2747 15.0912 24.2492 12.1111 26.2764 8.50765L26.7765 7.61914H33.3245V11.5202L31.2902 14.8067C29.2479 18.1002 26.4173 20.8331 23.0541 22.7586C19.0574 25.0501 16.1257 28.8255 14.8953 33.2652H7.67847Z" fill="url(#paint0_linear_693_80217)" fill-opacity="0.3"/>
<path d="M23.0541 22.7586C26.4173 20.8331 29.2479 18.1002 31.2902 14.8067L33.3245 11.5202V7.61914H28.0758L27.1037 9.33494C25.0767 12.939 22.1022 15.9197 18.5023 17.9541C15.8355 19.4672 13.5296 21.5419 11.7442 24.0347L8.50576 28.5666L7.67847 29.7078V33.2652H14.8953C16.1257 28.8255 19.0574 25.0501 23.0541 22.7586Z" fill="url(#paint1_linear_693_80217)"/>
<path d="M23.0541 22.7586C26.4173 20.8331 29.2479 18.1002 31.2902 14.8067L33.3245 11.5202V7.61914H28.0758L27.1037 9.33494C25.0767 12.939 22.1022 15.9197 18.5023 17.9541C15.8355 19.4672 13.5296 21.5419 11.7442 24.0347L8.50576 28.5666L7.67847 29.7078V33.2652H14.8953C16.1257 28.8255 19.0574 25.0501 23.0541 22.7586Z" fill="#F29989" fill-opacity="0.2"/>
<path d="M15.1705 29.1768C15.4936 28.8537 15.3626 28.199 14.878 27.7143C14.3934 27.2297 13.7386 27.0988 13.4155 27.4219C13.0925 27.7449 13.2234 28.3997 13.708 28.8843C14.1927 29.3689 14.8474 29.4999 15.1705 29.1768Z" fill="#E2625B"/>
<path d="M14.2789 24.979C14.7635 24.4944 14.8945 23.8396 14.5714 23.5166C14.2483 23.1935 13.5935 23.3244 13.1089 23.809C12.6243 24.2937 12.4934 24.9484 12.8164 25.2715C13.1395 25.5946 13.7943 25.4636 14.2789 24.979Z" fill="#E2625B"/>
<path d="M16.778 25.8235C17.4634 25.8235 18.019 25.4531 18.019 24.9962C18.019 24.5393 17.4634 24.1689 16.778 24.1689C16.0927 24.1689 15.5371 24.5393 15.5371 24.9962C15.5371 25.4531 16.0927 25.8235 16.778 25.8235Z" fill="#E2625B"/>
<path d="M19.0152 21.44C19.4998 20.9553 19.6308 20.3006 19.3077 19.9775C18.9846 19.6544 18.3299 19.7854 17.8452 20.27C17.3606 20.7546 17.2297 21.4094 17.5528 21.7324C17.8758 22.0555 18.5306 21.9246 19.0152 21.44Z" fill="#E2625B"/>
<path d="M11.1556 30.9556C11.6402 30.471 11.7712 29.8162 11.4481 29.4931C11.125 29.17 10.4702 29.301 9.98563 29.7856C9.50101 30.2702 9.37006 30.925 9.69314 31.2481C10.0162 31.5711 10.671 31.4402 11.1556 30.9556Z" fill="#E2625B"/>
<path d="M21.3748 18.4278C21.6979 18.1047 21.567 17.4499 21.0824 16.9653C20.5977 16.4807 19.943 16.3498 19.6199 16.6728C19.2968 16.9959 19.4278 17.6507 19.9124 18.1353C20.397 18.6199 21.0518 18.7509 21.3748 18.4278Z" fill="#E2625B"/>
<path d="M28.1153 11.5122C28.5999 11.0276 28.7309 10.3728 28.4078 10.0498C28.0847 9.72668 27.43 9.85763 26.9453 10.3423C26.4607 10.8269 26.3298 11.4816 26.6529 11.8047C26.9759 12.1278 27.6307 11.9968 28.1153 11.5122Z" fill="#E2625B"/>
<path d="M31.2556 10.1038C31.9409 10.1038 32.4965 9.73341 32.4965 9.27651C32.4965 8.81961 31.9409 8.44922 31.2556 8.44922C30.5702 8.44922 30.0146 8.81961 30.0146 9.27651C30.0146 9.73341 30.5702 10.1038 31.2556 10.1038Z" fill="#C12732"/>
<path d="M22.5688 20.5355C22.5684 21.5004 22.4018 22.4581 22.0762 23.3665C22.3951 23.1543 22.719 22.9483 23.0532 22.7576C26.4164 20.8323 29.247 18.0995 31.2893 14.8061L31.8974 13.8232H29.2811C27.5009 13.8234 25.7937 14.5306 24.5349 15.7893C23.2761 17.0481 22.5689 18.7553 22.5688 20.5355Z" fill="#FFD98C"/>
<path d="M11.0374 26.6985C11.3605 26.3754 11.2297 25.7206 10.7449 25.2362C10.4971 24.9717 10.1623 24.8054 9.80183 24.7676L9.14331 25.6892C9.22295 25.9614 9.37173 26.2084 9.57516 26.406C10.0595 26.8908 10.7143 27.0207 11.0374 26.6985Z" fill="#E2625B"/>
<path d="M15.1237 20.4472C15.1237 20.053 14.71 19.7238 14.157 19.6406C13.7011 20.0405 13.2636 20.4601 12.8445 20.8993C13.1288 21.1543 13.5011 21.2889 13.8827 21.2745C14.5681 21.2745 15.1237 20.9022 15.1237 20.4472Z" fill="#E2625B"/>
</g>
<defs>
<linearGradient id="paint0_linear_693_80217" x1="29.2781" y1="7.61914" x2="13.0403" y2="21.7455" gradientUnits="userSpaceOnUse">
<stop stop-color="#DB4F56"/>
<stop offset="1" stop-color="#C12732"/>
</linearGradient>
<linearGradient id="paint1_linear_693_80217" x1="11.7432" y1="16.1492" x2="17.2284" y2="26.146" gradientUnits="userSpaceOnUse">
<stop stop-color="#F8836F"/>
<stop offset="1" stop-color="#EC7978"/>
</linearGradient>
<clipPath id="clip0_693_80217">
<rect x="7.16675" y="7.1123" width="26.6667" height="26.6667" rx="13.3333" fill="white"/>
</clipPath>
</defs>
</svg>
