<svg width="57" height="57" viewBox="0 0 57 57" fill="none" xmlns="http://www.w3.org/2000/svg">
<rect x="0.939453" y="0.799805" width="56" height="56" rx="28" fill="#EFF5F2"/>
<mask id="mask0_764_51261" style="mask-type:alpha" maskUnits="userSpaceOnUse" x="11" y="12" width="30" height="35">
<path d="M30.0411 35.743C29.1228 37.5822 28.7088 40.3975 28.6167 41.5753V45.9394L27.3758 46.95H22.1389L20.7148 43.5966L17.0398 40.6106L14.651 35.743L11.7568 20.7629L13.135 13.647L28.1111 12.3594L39.1362 13.647C39.9018 16.019 41.1023 20.7629 39.7793 20.7629C38.4563 20.7629 37.4518 21.7444 37.1149 22.2352C35.1396 25.9714 30.9594 33.9038 30.0411 35.743Z" fill="#D9D9D9"/>
</mask>
<g mask="url(#mask0_764_51261)">
<path d="M25.5804 39.5557C24.179 39.5557 23.043 40.6917 23.043 42.0931V45.4169C23.043 46.026 23.5367 46.5197 24.1458 46.5197C24.7548 46.5197 25.2485 46.026 25.2485 45.4169V43.9447C25.2485 43.8567 25.2835 43.7722 25.3457 43.71C25.408 43.6477 25.4924 43.6128 25.5804 43.6128C25.6685 43.6128 25.7529 43.6477 25.8152 43.71C25.8774 43.7722 25.9124 43.8567 25.9124 43.9447V45.4169C25.9124 46.026 26.4061 46.5197 27.0151 46.5197C27.6242 46.5197 28.1179 46.026 28.1179 45.4169V42.0931C28.1179 40.6917 26.9819 39.5557 25.5804 39.5557Z" fill="#C7D4DD"/>
<path d="M33.8077 13.3877H17.3536C16.1738 13.3877 15.0424 13.8564 14.2081 14.6906C13.3739 15.5248 12.9053 16.6562 12.9053 17.836V25.8647C12.9053 27.9641 13.5093 30.0191 14.6454 31.7845L15.2778 32.7672C16.0086 33.9029 16.3972 35.2249 16.3972 36.5754V37.7352C16.3972 38.1864 16.4861 38.6333 16.6588 39.0502C16.8315 39.4671 17.0846 39.8459 17.4037 40.165C17.7228 40.4841 18.1016 40.7372 18.5185 40.9099C18.9354 41.0826 19.3823 41.1715 19.8335 41.1715H31.3277C32.2391 41.1715 33.1131 40.8094 33.7575 40.165C34.402 39.5206 34.764 38.6465 34.764 37.7352V36.5754C34.764 35.2249 35.1526 33.9029 35.8834 32.7672L36.5158 31.7844C37.6519 30.019 38.256 27.964 38.256 25.8647V17.836C38.256 16.6562 37.7873 15.5248 36.9531 14.6906C36.1189 13.8564 34.9875 13.3877 33.8077 13.3877Z" fill="url(#paint0_linear_764_51261)"/>
<path d="M33.3927 16.6865H17.7725C17.5459 16.6865 17.3215 16.7312 17.1122 16.8179C16.9028 16.9046 16.7126 17.0317 16.5523 17.192C16.3921 17.3522 16.265 17.5424 16.1782 17.7518C16.0915 17.9612 16.0469 18.1856 16.0469 18.4122V27.223C16.0469 27.6807 16.2287 28.1196 16.5523 28.4432C16.8759 28.7669 17.3149 28.9487 17.7725 28.9487H20.2248C20.6616 30.3265 22.8933 31.3758 25.5826 31.3758C28.2719 31.3758 30.5037 30.3265 30.9405 28.9487H33.3927C33.8504 28.9487 34.2893 28.7669 34.6129 28.4432C34.9366 28.1196 35.1184 27.6807 35.1184 27.223V18.4122C35.1184 17.9545 34.9366 17.5156 34.6129 17.192C34.2893 16.8683 33.8504 16.6865 33.3927 16.6865Z" fill="url(#paint1_linear_764_51261)"/>
<path d="M31.9349 18.7197H19.2231C18.5918 18.7197 18.0801 19.2315 18.0801 19.8628V25.7652C18.0801 26.3965 18.5918 26.9083 19.2231 26.9083H31.9349C32.5662 26.9083 33.078 26.3965 33.078 25.7652V19.8628C33.078 19.2315 32.5662 18.7197 31.9349 18.7197Z" fill="#6D8175"/>
<path d="M19.6702 37.9192L19.7261 37.9101C21.1332 37.6793 22.4227 36.9842 23.389 35.9356C23.5231 35.7902 23.6118 35.6088 23.6445 35.4136C23.6771 35.2185 23.6522 35.0181 23.5728 34.8369C23.4933 34.6557 23.3629 34.5016 23.1972 34.3934C23.0316 34.2852 22.8381 34.2275 22.6403 34.2275H19.1855C19.0003 34.2275 18.8227 34.3011 18.6918 34.432C18.5609 34.563 18.4873 34.7406 18.4873 34.9258V36.9145C18.4873 37.0622 18.5194 37.2081 18.5814 37.342C18.6434 37.476 18.7338 37.595 18.8464 37.6905C18.9589 37.7861 19.0909 37.8561 19.2331 37.8956C19.3754 37.935 19.5245 37.9431 19.6702 37.9192Z" fill="#FFF5ED"/>
<path d="M31.4882 37.9192L31.4323 37.9101C30.0252 37.6793 28.7358 36.9842 27.7694 35.9356C27.6354 35.7902 27.5466 35.6088 27.514 35.4136C27.4813 35.2185 27.5062 35.0181 27.5857 34.8369C27.6651 34.6557 27.7956 34.5016 27.9612 34.3934C28.1268 34.2852 28.3203 34.2275 28.5182 34.2275H31.9729C32.1581 34.2275 32.3357 34.3011 32.4666 34.432C32.5976 34.563 32.6711 34.7406 32.6711 34.9258V36.9145C32.6711 37.0622 32.639 37.2081 32.577 37.3421C32.515 37.4761 32.4246 37.595 32.3121 37.6905C32.1995 37.7861 32.0676 37.8561 31.9253 37.8956C31.783 37.935 31.6339 37.9431 31.4882 37.9192Z" fill="#FFF5ED"/>
</g>
<path d="M32.3268 35.5526L37.6569 25.4137C38.0222 24.7189 39.0171 24.7189 39.3824 25.4137L44.7125 35.5526C47.1617 40.2115 43.7831 45.8047 38.5196 45.8047C33.2563 45.8047 29.8776 40.2115 32.3268 35.5526Z" fill="url(#paint2_linear_764_51261)"/>
<defs>
<linearGradient id="paint0_linear_764_51261" x1="16.8862" y1="20.4714" x2="36.1893" y2="37.2497" gradientUnits="userSpaceOnUse">
<stop offset="0.0056" stop-color="#74D391"/>
<stop offset="0.764423" stop-color="#4CC26F"/>
</linearGradient>
<linearGradient id="paint1_linear_764_51261" x1="25.5826" y1="16.6865" x2="25.5826" y2="31.3758" gradientUnits="userSpaceOnUse">
<stop stop-color="white"/>
<stop offset="1" stop-color="#FFF5ED"/>
</linearGradient>
<linearGradient id="paint2_linear_764_51261" x1="45.5256" y1="42.5352" x2="38.5196" y2="32.8003" gradientUnits="userSpaceOnUse">
<stop offset="0.0288461" stop-color="#E97271"/>
<stop offset="1" stop-color="#ED696C"/>
</linearGradient>
</defs>
</svg>
