<svg width="41" height="41" viewBox="0 0 41 41" fill="none" xmlns="http://www.w3.org/2000/svg">
<rect x="0.5" y="0.445312" width="40" height="40" rx="20" fill="#FDF3F0"/>
<path d="M21.4695 31.6386C21.3802 31.7388 21.2708 31.8191 21.1483 31.874C21.0258 31.9289 20.8932 31.9573 20.7589 31.9573C20.6247 31.9573 20.492 31.9289 20.3696 31.874C20.2471 31.8191 20.1376 31.7388 20.0484 31.6386L11.6177 22.5104C9.4191 20.13 9.4191 16.2704 11.6177 13.8899C13.8163 11.5094 17.381 11.5094 19.5796 13.8899L20.7589 15.1668L21.8884 13.944C24.0835 11.5673 27.6586 11.4984 29.8699 13.8573C32.0987 16.2351 32.1088 20.1191 29.9002 22.5105L21.4695 31.6386Z" fill="url(#paint0_linear_693_80179)"/>
<path d="M22.0759 26.4475H22.0758C22.0698 26.4475 22.0637 26.4473 22.0576 26.4471C22.0576 26.4471 22.0575 26.4471 22.0575 26.4471L22.0607 26.3638C21.9725 26.3606 21.8877 26.3283 21.8196 26.2721C21.7515 26.2159 21.7037 26.1389 21.6837 26.0529L22.0759 26.4475ZM22.0759 26.4475C22.1793 26.4474 22.2801 26.4144 22.3635 26.3531C22.4468 26.2918 22.5085 26.2055 22.5394 26.1067L22.5394 26.1067L24.2473 20.6491M22.0759 26.4475L24.2473 20.6491M24.2473 20.6491L24.963 23.5445L24.963 23.5445C24.9869 23.641 25.0398 23.7279 25.1146 23.7934C25.1895 23.8589 25.2826 23.8999 25.3815 23.9108C25.4803 23.9217 25.5801 23.9019 25.6674 23.8543C25.7547 23.8066 25.8253 23.7333 25.8696 23.6443L25.795 23.6072L25.8696 23.6443L26.9267 21.519H31.0659C31.1948 21.519 31.3183 21.4679 31.4094 21.3767C31.5006 21.2856 31.5517 21.1621 31.5517 21.0332C31.5517 20.9044 31.5006 20.7808 31.4094 20.6897C31.3183 20.5986 31.1948 20.5474 31.0659 20.5474H26.6257C26.5353 20.5474 26.4467 20.5726 26.3698 20.6202C26.293 20.6678 26.231 20.7359 26.1907 20.8169L25.5888 22.027L24.774 18.7302L24.774 18.7302C24.7485 18.6273 24.6901 18.5355 24.6076 18.4689C24.5252 18.4023 24.4231 18.3644 24.3171 18.3612C24.2112 18.358 24.107 18.3895 24.0206 18.451C23.9342 18.5125 23.8703 18.6005 23.8386 18.7017L23.8386 18.7017L22.1446 24.1148L20.5041 17.0677C20.4807 16.9669 20.4255 16.8761 20.3468 16.8088C20.2681 16.7414 20.17 16.701 20.0667 16.6934C19.9634 16.6858 19.8603 16.7114 19.7726 16.7664C19.6849 16.8215 19.6171 16.9032 19.579 16.9995L18.0084 20.979H9.94645C9.8176 20.979 9.69402 21.0301 9.60291 21.1212C9.5118 21.2124 9.46061 21.3359 9.46061 21.4648C9.46061 21.5936 9.5118 21.7172 9.60291 21.8083C9.69402 21.8994 9.8176 21.9506 9.94645 21.9506H18.3389C18.4364 21.9506 18.5316 21.9213 18.6122 21.8665C18.6928 21.8116 18.755 21.7338 18.7908 21.6432L19.9109 18.8052L24.2473 20.6491Z" fill="white" stroke="white" stroke-width="0.166667"/>
<defs>
<linearGradient id="paint0_linear_693_80179" x1="20.7589" y1="12.1045" x2="20.7589" y2="31.9573" gradientUnits="userSpaceOnUse">
<stop stop-color="#FF8061"/>
<stop offset="1" stop-color="#F36454"/>
</linearGradient>
</defs>
</svg>
