<svg width="56" height="57" viewBox="0 0 56 57" fill="none" xmlns="http://www.w3.org/2000/svg">
<rect y="0.833984" width="56" height="56" rx="28" fill="#F1F6F0"/>
<path d="M32.9372 12.6211H38.5173C39.8476 12.6211 40.9251 13.6989 40.9251 15.0295V42.7264C40.9251 44.057 39.8476 45.1348 38.5173 45.1348H18.0509C16.7206 45.1348 15.6431 44.057 15.6431 42.7264V15.0295C15.6431 13.6989 16.7206 12.6211 18.0509 12.6211H32.9372Z" fill="url(#paint0_linear_785_80004)"/>
<path d="M32.8358 15.3203H37.7051C38.0289 15.3203 38.2939 15.5854 38.2939 15.9094V41.8271C38.2939 42.151 38.0289 42.4161 37.7051 42.4161H18.8637C18.5399 42.4161 18.2749 42.151 18.2749 41.8271V15.9094C18.2749 15.5854 18.5399 15.3203 18.8637 15.3203H32.8358Z" fill="white"/>
<path d="M34.1768 31.3195H22.3907C22.0945 31.3195 21.855 31.0226 21.855 30.6568C21.855 30.291 22.0945 29.9941 22.3907 29.9941H34.1768C34.4731 29.9941 34.7125 30.291 34.7125 30.6568C34.7125 31.0226 34.4731 31.3195 34.1768 31.3195Z" fill="#DCE2E9"/>
<path d="M34.1768 33.9718H22.3907C22.0945 33.9718 21.855 33.6749 21.855 33.3092C21.855 32.9434 22.0945 32.6465 22.3907 32.6465H34.1768C34.4731 32.6465 34.7125 32.9434 34.7125 33.3092C34.7125 33.6749 34.4731 33.9718 34.1768 33.9718Z" fill="#DCE2E9"/>
<path d="M34.1768 36.6183H22.3907C22.0945 36.6183 21.855 36.3214 21.855 35.9556C21.855 35.5898 22.0945 35.293 22.3907 35.293H34.1768C34.4731 35.293 34.7125 35.5898 34.7125 35.9556C34.7125 36.3214 34.4731 36.6183 34.1768 36.6183Z" fill="#DCE2E9"/>
<path d="M31.0616 21.2199H29.9505V20.1085C29.9505 19.8017 29.7021 19.5527 29.3949 19.5527H27.1725C26.8653 19.5527 26.617 19.8017 26.617 20.1085V21.2199H25.5058C25.1985 21.2199 24.9502 21.4689 24.9502 21.7756V23.9985C24.9502 24.3053 25.1985 24.5543 25.5058 24.5543H26.617V25.6657C26.617 25.9725 26.8653 26.2215 27.1725 26.2215H29.3949C29.7021 26.2215 29.9505 25.9725 29.9505 25.6657V24.5543H31.0616C31.3689 24.5543 31.6172 24.3053 31.6172 23.9985V21.7756C31.6172 21.4689 31.3689 21.2199 31.0616 21.2199Z" fill="#38AE20"/>
<path d="M33.0995 13.2195V14.4237C33.0995 15.086 32.5578 15.6279 31.8956 15.6279H24.6722C24.01 15.6279 23.4683 15.086 23.4683 14.4237V13.2195C23.4683 12.5572 24.01 12.0153 24.6722 12.0153H25.8761V11.4132C25.8761 10.7509 26.4178 10.209 27.08 10.209H29.4878C30.1499 10.209 30.6917 10.7509 30.6917 11.4132V12.0153H31.8956C32.5578 12.0153 33.0995 12.5572 33.0995 13.2195Z" fill="#4F7A5F"/>
<defs>
<linearGradient id="paint0_linear_785_80004" x1="28.2841" y1="12.6211" x2="28.2841" y2="45.1348" gradientUnits="userSpaceOnUse">
<stop stop-color="#67D051"/>
<stop offset="1" stop-color="#45B62E"/>
</linearGradient>
</defs>
</svg>
