<svg width="57" height="57" viewBox="0 0 57 57" fill="none" xmlns="http://www.w3.org/2000/svg">
<rect x="0.789062" y="0.799805" width="56" height="56" rx="28" fill="#E0F4ED"/>
<path d="M31.5914 48.4993C41.2168 48.4993 49.0198 40.6963 49.0198 31.0709C49.0198 21.4455 41.2168 13.6426 31.5914 13.6426C21.966 13.6426 14.1631 21.4455 14.1631 31.0709C14.1631 40.6963 21.966 48.4993 31.5914 48.4993Z" fill="url(#paint0_linear_764_69033)"/>
<path d="M31.5925 45.2719C39.4354 45.2719 45.7934 38.9139 45.7934 31.071C45.7934 23.2281 39.4354 16.8701 31.5925 16.8701C23.7496 16.8701 17.3916 23.2281 17.3916 31.071C17.3916 38.9139 23.7496 45.2719 31.5925 45.2719Z" fill="url(#paint1_linear_764_69033)"/>
<path d="M31.5925 43.3354C38.366 43.3354 43.8569 37.8445 43.8569 31.071C43.8569 24.2976 38.366 18.8066 31.5925 18.8066C24.8191 18.8066 19.3281 24.2976 19.3281 31.071C19.3281 37.8445 24.8191 43.3354 31.5925 43.3354Z" fill="url(#paint2_linear_764_69033)"/>
<path d="M31.5925 43.3354C38.366 43.3354 43.8569 37.8445 43.8569 31.071C43.8569 24.2976 38.366 18.8066 31.5925 18.8066C24.8191 18.8066 19.3281 24.2976 19.3281 31.071C19.3281 37.8445 24.8191 43.3354 31.5925 43.3354Z" fill="#FFF3F2"/>
<path d="M26.4285 25.2615L21.9485 23.9175C20.2447 25.0179 18.1996 25.4631 16.1926 25.1705C14.1855 24.8779 12.3526 23.8675 11.0338 22.3265C9.71494 20.7856 8.99962 18.8187 9.02046 16.7905C9.04131 14.7623 9.7969 12.8105 11.1471 11.297C12.4974 9.78349 14.3506 8.81093 16.3633 8.55969C18.3759 8.30844 20.4114 8.79555 22.0923 9.93069C23.7732 11.0658 24.9854 12.772 25.5042 14.7328C26.023 16.6936 25.8132 18.776 24.9136 20.5939C25.4833 22.154 26.4285 24.8106 26.4285 25.2615Z" fill="url(#paint3_linear_764_69033)"/>
<path d="M14.164 15.579L16.1005 17.5155L20.619 12.9971L22.5554 14.9336L16.1005 21.3885L12.2275 17.5155L14.164 15.579Z" fill="#F2FAFF"/>
<path d="M38.5638 33.3933C38.5638 37.331 35.4426 40.3647 31.5924 40.3647C27.7423 40.3647 24.6211 37.331 24.6211 33.3933C24.6211 29.4557 31.5924 21.7744 31.5924 21.7744C31.5924 21.7744 38.5638 29.4557 38.5638 33.3933Z" fill="url(#paint4_linear_764_69033)"/>
<defs>
<linearGradient id="paint0_linear_764_69033" x1="31.5914" y1="13.6426" x2="31.5914" y2="48.4993" gradientUnits="userSpaceOnUse">
<stop stop-color="#F1606B"/>
<stop offset="1" stop-color="#EB5B66"/>
</linearGradient>
<linearGradient id="paint1_linear_764_69033" x1="31.5925" y1="16.8701" x2="31.5925" y2="45.2719" gradientUnits="userSpaceOnUse">
<stop stop-color="#FFB6AE"/>
<stop offset="1" stop-color="#F3A49B"/>
</linearGradient>
<linearGradient id="paint2_linear_764_69033" x1="31.5925" y1="18.8066" x2="31.5925" y2="43.3354" gradientUnits="userSpaceOnUse">
<stop stop-color="#FFD3CE"/>
<stop offset="1" stop-color="#F7C2BC"/>
</linearGradient>
<linearGradient id="paint3_linear_764_69033" x1="17.7243" y1="8.49512" x2="17.7243" y2="25.2615" gradientUnits="userSpaceOnUse">
<stop stop-color="#0ED894"/>
<stop offset="1" stop-color="#1AD294"/>
</linearGradient>
<linearGradient id="paint4_linear_764_69033" x1="31.5924" y1="21.7744" x2="31.5924" y2="40.3647" gradientUnits="userSpaceOnUse">
<stop stop-color="#FFD376"/>
<stop offset="1" stop-color="#FDAE54"/>
</linearGradient>
</defs>
</svg>
