<svg width="25" height="25" viewBox="0 0 25 25" fill="none" xmlns="http://www.w3.org/2000/svg">
<g clip-path="url(#clip0_764_65860)">
<path d="M0.730469 12.9668C0.730469 19.5942 6.10305 24.9668 12.7305 24.9668C19.3579 24.9668 24.7305 19.5942 24.7305 12.9668C24.7305 6.33938 19.3579 0.966797 12.7305 0.966797C6.10305 0.966797 0.730469 6.33938 0.730469 12.9668Z" fill="#FFE7CC"/>
<path d="M13.9286 6.90631C13.9271 6.854 13.87 6.81993 13.8251 6.84677C11.4464 8.2678 11.4905 11.8325 11.5189 12.4784C11.521 12.5271 11.4749 12.5615 11.4308 12.5407C11.156 12.4113 10.3687 11.9239 10.3252 10.5738C10.3235 10.5214 10.267 10.4877 10.2219 10.5144C8.84465 11.3307 7.9209 12.8383 7.9209 14.5101C7.9209 17.0689 10.0721 19.1433 12.7257 19.1433C15.3793 19.1433 17.5305 17.0689 17.5305 14.5101C17.5305 10.7926 14.0163 9.99316 13.9286 6.90631Z" fill="#FF6A49" stroke="#FF6A49" stroke-width="1.0296"/>
<path d="M13.4474 10.9801C13.4465 10.9487 13.4122 10.9283 13.3853 10.9444C11.9581 11.797 11.9845 13.9358 12.0016 14.3234C12.0028 14.3526 11.9752 14.3732 11.9487 14.3608C11.7838 14.2831 11.3114 13.9907 11.2853 13.1806C11.2843 13.1492 11.2504 13.129 11.2234 13.145C10.397 13.6347 9.84277 14.5393 9.84277 15.5424C9.84277 17.0777 11.1335 18.3223 12.7257 18.3223C14.3178 18.3223 15.6085 17.0777 15.6085 15.5424C15.6085 13.3119 13.5 12.8322 13.4474 10.9801Z" fill="#FFA06B" stroke="#FFA06B" stroke-width="0.61776"/>
</g>
<defs>
<clipPath id="clip0_764_65860">
<rect width="24" height="24" fill="white" transform="translate(0.725586 0.966797)"/>
</clipPath>
</defs>
</svg>
