<svg width="25" height="25" viewBox="0 0 25 25" fill="none" xmlns="http://www.w3.org/2000/svg">
<g clip-path="url(#clip0_764_67705)">
<path d="M0.262695 12.7998C0.262695 19.4272 5.63528 24.7998 12.2627 24.7998C18.8901 24.7998 24.2627 19.4272 24.2627 12.7998C24.2627 6.17239 18.8901 0.799805 12.2627 0.799805C5.63528 0.799805 0.262695 6.17239 0.262695 12.7998Z" fill="#F9F2E5"/>
<g clip-path="url(#clip1_764_67705)">
<path d="M6.68542 10.8035C7.66587 10.8035 8.46069 10.0086 8.46069 9.02819C8.46069 8.04774 7.66587 7.25293 6.68542 7.25293C5.70497 7.25293 4.91016 8.04774 4.91016 9.02819C4.91016 10.0086 5.70497 10.8035 6.68542 10.8035Z" fill="#F39522"/>
<path d="M16.8655 8.51075C15.711 7.3562 14.2308 6.72601 12.7208 6.62012L5.75342 13.1138L12.7207 19.6076C14.2308 19.5017 15.711 18.8715 16.8655 17.7169C18.1365 16.4458 18.772 14.7798 18.772 13.1138C18.772 11.4479 18.1365 9.78185 16.8655 8.51075Z" fill="#FFCD48"/>
<path d="M9.89571 13.1138C9.89571 10.7213 10.8565 8.35931 12.7208 6.62006C12.5683 6.60937 12.4155 6.60449 12.2627 6.60449C8.66916 6.60449 5.75342 9.51552 5.75342 13.1138C5.75342 16.7074 8.66431 19.6231 12.2627 19.6231C12.4155 19.6231 12.5683 19.6182 12.7208 19.6075C10.9113 17.9194 9.89571 15.5816 9.89571 13.1138Z" fill="#FFBA4B"/>
<path d="M18.8339 6.541C18.3616 6.06869 17.7561 5.81089 17.1383 5.76758L14.2881 8.42411L17.1383 11.0806C17.7561 11.0373 18.3617 10.7795 18.8339 10.3072C19.3539 9.78718 19.6139 9.10563 19.6139 8.42409C19.6139 7.74254 19.3539 7.06099 18.8339 6.541Z" fill="#F6B12E"/>
<path d="M15.9826 8.42363C15.9826 7.44488 16.3757 6.47862 17.1383 5.76709C17.076 5.76272 17.0135 5.76074 16.951 5.76074C15.4809 5.76074 14.2881 6.95162 14.2881 8.42363C14.2881 9.89373 15.4789 11.0865 16.951 11.0865C17.0135 11.0865 17.076 11.0845 17.1383 11.0801C16.3981 10.3896 15.9826 9.43319 15.9826 8.42363Z" fill="#F39522"/>
<path d="M9.85732 20.4646C10.5927 20.4646 11.1888 19.8685 11.1888 19.1332C11.1888 18.3979 10.5927 17.8018 9.85732 17.8018C9.12199 17.8018 8.52588 18.3979 8.52588 19.1332C8.52588 19.8685 9.12199 20.4646 9.85732 20.4646Z" fill="#F39522"/>
</g>
</g>
<defs>
<clipPath id="clip0_764_67705">
<rect width="24" height="24" fill="white" transform="translate(0.257812 0.799805)"/>
</clipPath>
<clipPath id="clip1_764_67705">
<rect width="14.7051" height="14.7051" fill="white" transform="translate(4.91016 5.75977)"/>
</clipPath>
</defs>
</svg>
