<svg width="25" height="25" viewBox="0 0 25 25" fill="none" xmlns="http://www.w3.org/2000/svg">
<g clip-path="url(#clip0_764_67834)">
<path d="M0.262695 12.7998C0.262695 19.4272 5.63528 24.7998 12.2627 24.7998C18.8901 24.7998 24.2627 19.4272 24.2627 12.7998C24.2627 6.17239 18.8901 0.799805 12.2627 0.799805C5.63528 0.799805 0.262695 6.17239 0.262695 12.7998Z" fill="#FFE7E3"/>
<g clip-path="url(#clip1_764_67834)">
<path d="M15.2052 10.5957V12.3771C15.2052 14.4769 14.9578 15.59 14.7396 16.5721C14.5332 17.5009 14.355 18.303 14.355 20.0294H16.0555C16.0555 18.4897 16.1998 17.8401 16.3996 16.9408C16.6251 15.9262 16.9057 14.6634 16.9057 12.3771V10.5957H15.2052Z" fill="#FEAA8B"/>
<path d="M12.6541 10.5957H11.8537H11.8039V12.3771C11.8039 14.1035 11.6256 14.9056 11.4192 15.8344C11.201 16.8165 10.9536 17.9297 10.9536 20.0294H12.6541C12.6541 16.2032 13.5043 16.2032 13.5043 12.3771V10.5957H12.6541Z" fill="#FEAA8B"/>
<path d="M8.40346 10.5957V12.3771C8.40346 13.7302 8.28916 14.2446 8.09978 15.0968C7.86913 16.1348 7.55322 17.5563 7.55322 20.0294H9.25371C9.25371 17.7431 9.53431 16.4803 9.75979 15.4657C9.95963 14.5664 10.1039 13.9168 10.1039 12.3771V10.5957H8.40346Z" fill="#FEAA8B"/>
<path d="M16.0553 6.36914C15.4229 6.36914 14.8368 6.5665 14.3548 6.90279C13.8727 6.5665 13.2866 6.36914 12.6543 6.36914L11.4536 9.345L12.6543 12.3209C13.2866 12.3209 13.8727 12.1235 14.3547 11.7872C14.8368 12.1235 15.4229 12.3209 16.0552 12.3209C17.6987 12.3209 19.0311 10.9885 19.0311 9.345C19.0311 7.70148 17.6988 6.36914 16.0553 6.36914Z" fill="#EC6B4E"/>
<path d="M10.9542 6.90279C10.4722 6.5665 9.886 6.36914 9.25369 6.36914C7.61017 6.36914 6.27783 7.70148 6.27783 9.345C6.27783 10.9885 7.61017 12.3209 9.25369 12.3209C9.886 12.3209 10.4722 12.1235 10.9542 11.7872C11.4362 12.1235 12.0223 12.3209 12.6547 12.3209V6.36914C12.0224 6.36914 11.4362 6.5665 10.9542 6.90279Z" fill="#FA9E7A"/>
</g>
</g>
<defs>
<clipPath id="clip0_764_67834">
<rect width="24" height="24" fill="white" transform="translate(0.257812 0.799805)"/>
</clipPath>
<clipPath id="clip1_764_67834">
<rect width="13.6607" height="13.6607" fill="white" transform="translate(5.82617 6.36816)"/>
</clipPath>
</defs>
</svg>
