<svg width="57" height="57" viewBox="0 0 57 57" fill="none" xmlns="http://www.w3.org/2000/svg">
<rect x="0.193359" y="0.260742" width="56" height="56" rx="28" fill="#F9F4F2"/>
<g clip-path="url(#clip0_764_62653)">
<path d="M24.1978 46.0519C23.2949 46.0519 22.401 45.8728 21.5679 45.5247C20.7347 45.1766 19.979 44.6666 19.3445 44.0242C18.71 43.3818 18.2094 42.6199 17.8717 41.7825C17.5339 40.9452 17.3658 40.0491 17.377 39.1463L17.4853 30.4343L17.3974 21.3708C17.3834 19.9424 17.6526 18.5253 18.1896 17.2016C18.7265 15.8778 19.5205 14.6736 20.5256 13.6586C21.5308 12.6435 22.7272 11.8378 24.0456 11.2879C25.3641 10.7381 26.7784 10.455 28.2069 10.4551C29.6265 10.4551 31.0323 10.7347 32.3438 11.278C33.6553 11.8213 34.847 12.6176 35.8508 13.6215C36.8545 14.6253 37.6507 15.8171 38.1939 17.1287C38.7371 18.4403 39.0166 19.846 39.0164 21.2656V24.3062C39.0166 26.2047 38.517 28.0698 37.5677 29.714L30.1042 42.6415C29.5058 43.6784 28.6449 44.5395 27.608 45.1382C26.5712 45.7369 25.3951 46.052 24.1978 46.0519Z" fill="#FFCEBB"/>
<g opacity="0.8">
<path d="M21.044 41.9452L21.0439 41.9452C20.5477 41.4487 20.2409 40.7942 20.1768 40.0952C20.1127 39.3962 20.2954 38.6968 20.693 38.1183L20.6931 38.1183L22.0129 36.1998L21.044 41.9452ZM21.044 41.9452L21.61 42.5112C21.8635 42.7648 22.2746 42.7648 22.5282 42.5112L22.3582 42.3413M21.044 41.9452L22.3582 42.3413M22.3582 42.3413L22.5282 42.5112C22.7817 42.2577 22.7817 41.8466 22.5282 41.5931L21.9622 41.0271C21.9622 41.0271 21.9622 41.0271 21.9621 41.027C21.6806 40.7453 21.5065 40.3739 21.47 39.9773C21.4336 39.5808 21.537 39.1839 21.7624 38.8556L22.3582 42.3413ZM36.478 22.2906H36.7183V22.2909V24.8172C36.7183 25.1756 36.4278 25.4662 36.0693 25.4662C35.7109 25.4662 35.4203 25.1756 35.4203 24.8172V22.2906V22.2903C35.4213 21.3038 35.2254 20.3271 34.8441 19.4173C34.4628 18.5075 33.9037 17.6829 33.1996 16.9919L33.1981 16.9904L33.1981 16.9904C32.5213 16.3141 31.7174 15.7785 30.8326 15.4144C29.9478 15.0504 28.9996 14.8651 28.0429 14.8694C27.0861 14.8736 26.1397 15.0672 25.2581 15.4391C24.3767 15.8109 23.5775 16.3535 22.9068 17.0357C22.8922 17.0506 22.8782 17.0647 22.8649 17.0782C22.8278 17.1156 22.7951 17.1487 22.7622 17.1851L22.7595 17.1879L22.7595 17.1879C20.9962 19.0727 20.7167 21.9629 22.0904 24.2181C22.0904 24.2181 22.0904 24.2181 22.0904 24.2181L23.3737 26.3238L23.3737 26.3239C24.3526 27.933 24.8458 29.7905 24.7942 31.6732C24.7425 33.5559 24.1482 35.3836 23.0826 36.9366L23.0824 36.9369L21.7625 38.8554L28.1012 13.8115C29.1868 13.8123 30.2616 14.0272 31.2641 14.4439C32.2665 14.8607 33.1769 15.471 33.9432 16.2401M36.478 22.2906C36.4795 21.1641 36.256 20.0487 35.8207 19.0097C35.3854 17.9708 34.7471 17.0291 33.9432 16.2401M36.478 22.2906V24.8172C36.478 25.0429 36.295 25.2259 36.0693 25.2259C35.8436 25.2259 35.6607 25.0429 35.6607 24.8172V22.2906M36.478 22.2906H35.6607M33.9432 16.2401L34.1134 16.0705C34.1131 16.0701 34.1128 16.0698 34.1125 16.0695M33.9432 16.2401L34.1115 16.0686C34.1119 16.0689 34.1122 16.0692 34.1125 16.0695M34.1125 16.0695C33.3241 15.2785 32.3875 14.6507 31.3563 14.222C30.3247 13.7932 29.2186 13.572 28.1013 13.5712H28.1012L28.0245 13.5712L28.0229 13.5712C26.8978 13.5788 25.7851 13.8081 24.7487 14.246C23.7123 14.684 22.7723 15.322 21.9827 16.1235L21.9824 16.1238C21.9254 16.1819 21.8677 16.2416 21.8116 16.3019C19.6459 18.614 19.308 22.1471 20.9822 24.8933L20.9822 24.8933L22.2653 26.9967C22.2653 26.9968 22.2654 26.9969 22.2654 26.9969C22.2654 26.997 22.2654 26.997 22.2654 26.997C23.114 28.3923 23.5416 30.003 23.4968 31.6355C23.452 33.268 22.9368 34.8528 22.0131 36.1995L34.1125 16.0695ZM35.6607 22.2906C35.6617 21.2721 35.4594 20.2637 35.0658 19.3244C34.6721 18.3851 34.0949 17.5338 33.368 16.8204C32.6688 16.1217 31.8382 15.5683 30.924 15.1922C30.0099 14.8161 29.0303 14.6247 28.0418 14.629C27.0533 14.6334 26.0755 14.8334 25.1647 15.2176L35.6607 22.2906Z" fill="#EC9F8F" stroke="#EC9F8F" stroke-width="0.480667"/>
<path d="M26.6021 33.829V33.8293C26.6004 35.2907 26.0191 36.6917 24.9858 37.725C24.0537 38.6571 22.8224 39.2214 21.5175 39.3242C21.1401 39.354 20.8495 39.0451 20.8495 38.6918C20.8495 38.3287 21.141 38.0562 21.4753 38.0252C22.4511 37.9345 23.3696 37.5061 24.0683 36.8075C24.8583 36.0174 25.3027 34.9463 25.3041 33.829H26.6021ZM26.6021 33.829C26.6021 33.5874 26.4062 33.3915 26.1646 33.3915H25.7416C25.5001 33.3915 25.3042 33.5872 25.3041 33.8287L26.6021 33.829Z" fill="#EC9F8F" stroke="#EC9F8F" stroke-width="0.480667"/>
<path d="M28.0904 21.427V21.426C28.0955 20.1706 27.6701 18.9514 26.8851 17.9717C26.1821 17.0944 25.2288 16.4566 24.1566 16.14C23.8292 16.0433 23.6038 15.7098 23.6833 15.3555C23.7606 15.0107 24.1096 14.7772 24.4682 14.8811C25.8144 15.2712 27.0113 16.068 27.8917 17.1672C28.8604 18.3764 29.3883 19.8796 29.3884 21.429V21.429V23.9107V23.911C29.3869 25.0345 29.1083 26.1402 28.5773 27.1303L28.5772 27.1304L27.9016 28.3886C27.7323 28.7039 27.3391 28.8219 27.0242 28.6518C26.7106 28.4825 26.593 28.0913 26.7614 27.7771L27.4353 26.5191C27.8648 25.7167 28.0898 24.8208 28.0904 23.9107C28.0904 23.9107 28.0904 23.9106 28.0904 23.9106M28.0904 21.427L28.0904 23.9106M28.0904 21.427L28.0904 23.9106M28.0904 21.427L28.0904 23.9106" fill="#EC9F8F" stroke="#EC9F8F" stroke-width="0.480667"/>
</g>
</g>
<defs>
<clipPath id="clip0_764_62653">
<rect width="37.3333" height="37.3333" fill="white" transform="translate(9.52734 9.58887)"/>
</clipPath>
</defs>
</svg>
