<svg width="57" height="57" viewBox="0 0 57 57" fill="none" xmlns="http://www.w3.org/2000/svg">
<rect x="0.526367" y="0.360352" width="56" height="56" rx="28" fill="#ECF7EC"/>
<path d="M41.0812 23.8936H16.0001C15.7381 23.8936 15.4864 23.9952 15.2977 24.177C15.109 24.3587 14.9981 24.6065 14.9883 24.8682C14.9985 25.2181 15.1446 25.5502 15.3956 25.7942C15.6466 26.0381 15.9828 26.1746 16.3329 26.1747H40.7206C41.0777 26.1747 41.4202 26.0328 41.6728 25.7803C41.9253 25.5277 42.0672 25.1852 42.0672 24.8281V24.6735C42.0146 24.4515 41.8886 24.2538 41.7097 24.1122C41.5308 23.9707 41.3093 23.8937 41.0812 23.8936Z" fill="#0C8C52"/>
<path d="M39.6844 47.2405H17.3676L15.6583 43.8755C14.6223 41.8381 14.1714 39.5533 14.3557 37.275C14.5399 34.9968 15.3521 32.8142 16.702 30.9697L18.3258 28.7483C19.3065 27.4087 19.9575 25.8567 20.226 24.2183C20.4945 22.58 20.373 20.9014 19.8713 19.3188L17.3676 11.4307H39.6844L37.1807 19.3198C36.6792 20.9023 36.5577 22.5807 36.8262 24.2188C37.0948 25.857 37.7457 27.4088 38.7262 28.7483L40.35 30.9687C41.6991 32.8135 42.5108 34.996 42.6951 37.2741C42.8793 39.5522 42.4289 41.8368 41.3937 43.8745L39.6844 47.2405Z" fill="url(#paint0_linear_764_78403)"/>
<mask id="mask0_764_78403" style="mask-type:alpha" maskUnits="userSpaceOnUse" x="14" y="11" width="29" height="37">
<path d="M39.6844 47.2386H17.3676L15.6583 43.8736C14.6223 41.8361 14.1714 39.5514 14.3557 37.2731C14.5399 34.9948 15.3521 32.8122 16.702 30.9677L18.3258 28.7464C19.3065 27.4067 19.9575 25.8548 20.226 24.2164C20.4945 22.578 20.373 20.8995 19.8713 19.3169L17.3676 11.4287H39.6844L37.1807 19.3179C36.6792 20.9003 36.5577 22.5787 36.8262 24.2169C37.0948 25.8551 37.7457 27.4068 38.7262 28.7464L40.35 30.9667C41.6991 32.8115 42.5108 34.9941 42.6951 37.2722C42.8793 39.5503 42.4289 41.8349 41.3937 43.8725L39.6844 47.2386Z" fill="#885951"/>
</mask>
<g mask="url(#mask0_764_78403)">
<path d="M13.2285 28.9766C23.359 31.19 33.8413 31.2517 43.9971 29.1576L44.8751 28.9766V47.2379H13.2285V28.9766Z" fill="url(#paint1_linear_764_78403)"/>
<path d="M13.2285 28.9766C23.359 31.19 33.8413 31.2517 43.9971 29.1576L44.8751 28.9766V47.2379H13.2285V28.9766Z" fill="#375258"/>
<path d="M28.6489 42.4775L28.6489 47.9905" stroke="#2B2B2D" stroke-width="0.549505" stroke-linecap="round" stroke-linejoin="round"/>
</g>
<path d="M28.5681 23.9277H28.4888C28.2043 23.9277 27.9736 24.1584 27.9736 24.4429V25.6278C27.9736 25.9123 28.2043 26.1429 28.4888 26.1429H28.5681C28.8526 26.1429 29.0833 25.9123 29.0833 25.6278V24.4429C29.0833 24.1584 28.8526 23.9277 28.5681 23.9277Z" fill="#DD988A"/>
<path d="M15.3325 24.1445C15.2237 24.2393 15.1364 24.3563 15.0767 24.4876C15.017 24.619 14.9861 24.7616 14.9863 24.9059V25.4675C14.9863 25.6756 15.0345 25.881 15.1271 26.0674C15.2197 26.2538 15.3542 26.4163 15.52 26.5421L36.5839 42.476L37.9604 40.6554L15.3325 24.1445Z" fill="url(#paint2_linear_764_78403)"/>
<path d="M41.7362 24.1338L19.0928 40.656L20.4693 42.4766L41.5322 26.5427C41.6983 26.4171 41.8331 26.2547 41.9259 26.0682C42.0187 25.8818 42.0669 25.6763 42.0669 25.4681V24.6737C42.0173 24.4629 41.9014 24.2737 41.7362 24.1338Z" fill="url(#paint3_linear_764_78403)"/>
<defs>
<linearGradient id="paint0_linear_764_78403" x1="35.661" y1="60.7141" x2="25.468" y2="19.394" gradientUnits="userSpaceOnUse">
<stop stop-color="#EF9F90"/>
<stop offset="0.15" stop-color="#F1AC9D"/>
<stop offset="0.43" stop-color="#F4C1B0"/>
<stop offset="0.72" stop-color="#F6CDBB"/>
<stop offset="1" stop-color="#F7D1BF"/>
</linearGradient>
<linearGradient id="paint1_linear_764_78403" x1="29.0518" y1="28.9766" x2="29.0518" y2="47.2379" gradientUnits="userSpaceOnUse">
<stop stop-color="#82ABC5"/>
<stop offset="1" stop-color="#6F7F8A"/>
</linearGradient>
<linearGradient id="paint2_linear_764_78403" x1="14.9863" y1="33.3103" x2="37.9604" y2="33.3103" gradientUnits="userSpaceOnUse">
<stop stop-color="#2CF583"/>
<stop offset="1" stop-color="#11DF69"/>
</linearGradient>
<linearGradient id="paint3_linear_764_78403" x1="19.0928" y1="33.3052" x2="42.0669" y2="33.3052" gradientUnits="userSpaceOnUse">
<stop stop-color="#2CF583"/>
<stop offset="1" stop-color="#11DF69"/>
</linearGradient>
</defs>
</svg>
