<svg width="57" height="57" viewBox="0 0 57 57" fill="none" xmlns="http://www.w3.org/2000/svg">
<rect x="0.429688" y="0.393555" width="56" height="56" rx="28" fill="#EDF2FF"/>
<path d="M42.2526 13.834H14.6058C13.5782 13.834 12.7451 14.667 12.7451 15.6947V41.0833C12.7451 42.1109 13.5782 42.944 14.6058 42.944H42.2526C43.2802 42.944 44.1133 42.1109 44.1133 41.0833V15.6947C44.1133 14.667 43.2802 13.834 42.2526 13.834Z" fill="url(#paint0_linear_748_71462)"/>
<path d="M22.7632 20.6804C22.7632 18.0788 25.3 15.9697 28.4294 15.9697C31.5588 15.9697 34.0956 18.0787 34.0956 20.6804" fill="white"/>
<g opacity="0.5">
<path d="M32.2441 33.6229C33.0772 31.741 33.3963 29.6718 33.169 27.6264C33.0694 26.7706 33.2955 25.9088 33.8024 25.2122C34.3094 24.5156 35.0599 24.0354 35.9048 23.867L36.135 23.8221C36.5835 23.7345 37.0451 23.7378 37.4923 23.8319C37.9396 23.926 38.3634 24.1089 38.7386 24.3698C39.1139 24.6307 39.433 24.9642 39.6769 25.3507C39.9209 25.7371 40.0848 26.1686 40.159 26.6196C40.7321 30.0558 40.1877 33.5851 38.6059 36.6889C38.3993 37.0966 38.113 37.4586 37.7639 37.7536C37.4148 38.0486 37.0101 38.2705 36.5737 38.4062C36.1372 38.5419 35.678 38.5886 35.2232 38.5435C34.7684 38.4985 34.3273 38.3626 33.926 38.1439L33.72 38.0318C32.9652 37.6166 32.3942 36.9326 32.1207 36.1157C31.8472 35.2988 31.8913 34.4088 32.2441 33.6229Z" fill="#396D94" fill-opacity="0.6" style="mix-blend-mode:multiply"/>
<path d="M24.6127 33.6229C23.7797 31.741 23.4605 29.6718 23.6878 27.6264C23.7874 26.7706 23.5613 25.9088 23.0544 25.2122C22.5475 24.5156 21.7969 24.0354 20.952 23.867L20.7218 23.8221C20.2733 23.7345 19.8117 23.7378 19.3645 23.8319C18.9172 23.926 18.4934 24.1089 18.1182 24.3698C17.7429 24.6307 17.4239 24.9642 17.1799 25.3507C16.9359 25.7371 16.772 26.1686 16.6979 26.6196C16.1248 30.0558 16.6692 33.5851 18.251 36.6889C18.4576 37.0966 18.7439 37.4586 19.093 37.7536C19.4421 38.0486 19.8468 38.2705 20.2832 38.4062C20.7196 38.5419 21.1788 38.5886 21.6336 38.5435C22.0884 38.4985 22.5296 38.3626 22.9309 38.1439L23.1368 38.0318C23.8917 37.6166 24.4627 36.9326 24.7361 36.1157C25.0096 35.2987 24.9655 34.4088 24.6127 33.6229Z" fill="#396D94" fill-opacity="0.6" style="mix-blend-mode:multiply"/>
</g>
<path d="M28.1062 17.958C28.1473 17.5687 28.714 17.5687 28.7551 17.958L29.0654 20.8908H27.7959L28.1062 17.958Z" fill="#EB6F64"/>
<path d="M28.3799 16.0469V16.7839" stroke="black" stroke-opacity="0.2" stroke-width="0.255818" stroke-linecap="round"/>
<path d="M31.1313 16.6201L30.7629 17.2584" stroke="black" stroke-opacity="0.2" stroke-width="0.255818" stroke-linecap="round"/>
<path d="M33.231 18.3779L32.6088 18.7729" stroke="black" stroke-opacity="0.2" stroke-width="0.255818" stroke-linecap="round"/>
<path d="M25.7515 16.6201L26.12 17.2584" stroke="black" stroke-opacity="0.2" stroke-width="0.255818" stroke-linecap="round"/>
<path d="M23.6533 18.3779L24.2755 18.7729" stroke="black" stroke-opacity="0.2" stroke-width="0.255818" stroke-linecap="round"/>
<defs>
<linearGradient id="paint0_linear_748_71462" x1="28.4292" y1="13.834" x2="28.4292" y2="42.944" gradientUnits="userSpaceOnUse">
<stop stop-color="#7E9BF9"/>
<stop offset="1" stop-color="#698AF1"/>
</linearGradient>
</defs>
</svg>
