<svg width="57" height="57" viewBox="0 0 57 57" fill="none" xmlns="http://www.w3.org/2000/svg">
<rect x="0.725586" y="0.966797" width="56" height="56" rx="28" fill="#FDF3F0"/>
<path d="M30.0835 44.6407C29.9585 44.7811 29.8053 44.8934 29.6338 44.9702C29.4624 45.0471 29.2766 45.0869 29.0887 45.0869C28.9008 45.0869 28.715 45.0471 28.5436 44.9702C28.3721 44.8934 28.2189 44.7811 28.0939 44.6407L16.291 31.8613C13.2129 28.5286 13.2129 23.1252 16.291 19.7925C19.369 16.4598 24.3595 16.4598 27.4376 19.7925L29.0887 21.5802L30.6699 19.8682C33.743 16.5409 38.7483 16.4444 41.844 19.747C44.9644 23.0758 44.9785 28.5134 41.8864 31.8613L30.0835 44.6407Z" fill="url(#paint0_linear_764_65024)"/>
<path d="M30.9309 37.3749H30.9309H30.9309ZM30.9309 37.3749C31.0758 37.3748 31.2169 37.3285 31.3336 37.2427C31.4503 37.1569 31.5366 37.0361 31.5799 36.8979L31.5799 36.8979L33.971 29.2572M30.9309 37.3749L33.971 29.2572M35.8491 31.1862L34.7083 26.5708C34.6727 26.4267 34.5909 26.2982 34.4754 26.2049C34.3599 26.1116 34.2171 26.0587 34.0687 26.0541C33.9203 26.0496 33.7745 26.0937 33.6536 26.1798C33.5326 26.2659 33.4432 26.3891 33.3988 26.5308L33.5101 26.5657L33.3988 26.5308L31.0271 34.1091L28.7305 24.2433C28.6976 24.102 28.6205 23.975 28.5103 23.8807C28.4001 23.7864 28.2627 23.7298 28.1181 23.7192C27.9734 23.7085 27.8292 23.7443 27.7064 23.8214C27.5836 23.8986 27.4886 24.0129 27.4354 24.1478L25.2364 29.719H13.9497C13.7693 29.719 13.5963 29.7906 13.4688 29.9182C13.3412 30.0457 13.2696 30.2188 13.2696 30.3991C13.2696 30.5795 13.3412 30.7525 13.4688 30.8801C13.5963 31.0077 13.7693 31.0793 13.9497 31.0793H25.6992C25.8357 31.0793 25.969 31.0383 26.0818 30.9615C26.1946 30.8847 26.2818 30.7758 26.3319 30.6488M35.8491 31.1862L26.3319 30.6488L26.3319 30.6488M35.8491 31.1862L36.6917 29.492C36.6917 29.492 36.6917 29.492 36.6917 29.492C36.748 29.3787 36.8349 29.2834 36.9425 29.2167C37.0501 29.15 37.1741 29.1147 37.3007 29.1147H43.517C43.6974 29.1147 43.8704 29.1864 43.9979 29.314L43.9154 29.3965L43.9979 29.314C44.1255 29.4415 44.1971 29.6145 44.1971 29.7949C44.1971 29.9753 44.1255 30.1483 43.9979 30.2759L43.9154 30.1934L43.9979 30.2759C43.8704 30.4034 43.6974 30.4751 43.517 30.4751H37.722L36.2421 33.4504L36.2421 33.4504C36.1801 33.5751 36.0813 33.6777 35.9591 33.7444C35.8369 33.8112 35.6972 33.8388 35.5588 33.8235C35.4204 33.8083 35.29 33.751 35.1852 33.6592C35.0804 33.5675 35.0063 33.4459 34.9729 33.3107L35.0862 33.2827L34.9729 33.3107L33.971 29.2572M35.8491 31.1862L33.971 29.2572M26.3319 30.6488L27.9 26.6758M26.3319 30.6488L27.9 26.6758M27.9 26.6758L30.2682 36.8489C30.3021 36.9943 30.3828 37.1245 30.4979 37.2194C30.613 37.3143 30.7561 37.3688 30.9051 37.3744L27.9 26.6758Z" fill="white" stroke="white" stroke-width="0.233333"/>
<defs>
<linearGradient id="paint0_linear_764_65024" x1="29.0887" y1="17.293" x2="29.0887" y2="45.0869" gradientUnits="userSpaceOnUse">
<stop stop-color="#FF8061"/>
<stop offset="1" stop-color="#F36454"/>
</linearGradient>
</defs>
</svg>
