<svg width="57" height="57" viewBox="0 0 57 57" fill="none" xmlns="http://www.w3.org/2000/svg">
<rect width="56" height="56" rx="28" transform="matrix(-1 0 0 1 56.4727 0.799805)" fill="white"/>
<path d="M19.618 27.9503C21.8786 28.8013 23.4876 30.9822 23.4876 33.542V44.1802C23.4876 44.5472 23.7855 44.8451 24.1525 44.8451H25.4823C25.8493 44.8451 26.1472 44.5472 26.1472 44.1802V33.542C26.1472 28.7681 22.2775 24.8984 17.5036 24.8984L16.1738 27.558L19.618 27.9503Z" fill="#FBABA6"/>
<path fill-rule="evenodd" clip-rule="evenodd" d="M21.3436 17.2043C20.681 15.449 18.9933 14.2862 16.5509 14.2666C16.0053 13.8271 15.3022 13.5625 14.535 13.5625C12.7993 13.5625 11.3922 14.9165 11.3922 16.5866C11.3922 16.7534 11.4063 16.9171 11.4332 17.0765C10.7728 17.9432 10.2222 18.9775 9.81489 20.132C8.41295 20.2973 7.31445 21.834 7.31445 23.7052C7.31445 25.2841 8.09658 26.6248 9.18318 27.1045C9.60884 29.9895 10.8548 32.4443 12.5573 33.9501C12.4962 34.1244 12.4631 34.3111 12.4631 34.5053C12.4631 35.4643 13.271 36.2418 14.2677 36.2418C14.8835 36.2418 15.4273 35.9449 15.7529 35.4918C15.9948 35.5255 16.24 35.5428 16.4881 35.5428C19.7268 35.5428 21.6563 33.5454 21.6563 30.8147C21.6563 28.6219 19.8365 26.9438 18.0619 26.7071C18.0619 26.7071 18.3318 25.9458 18.3318 24.9046C18.3318 23.8101 18.0619 23.102 18.0619 23.102C19.3824 22.9258 20.7288 21.9508 21.3307 20.5593C22.2185 20.477 22.9127 19.7571 22.9127 18.8812C22.9127 18.0095 22.2252 17.2924 21.3436 17.2043Z" fill="#D9D9D9"/>
<path fill-rule="evenodd" clip-rule="evenodd" d="M21.3436 17.2043C20.681 15.449 18.9933 14.2862 16.5509 14.2666C16.0053 13.8271 15.3022 13.5625 14.535 13.5625C12.7993 13.5625 11.3922 14.9165 11.3922 16.5866C11.3922 16.7534 11.4063 16.9171 11.4332 17.0765C10.7728 17.9432 10.2222 18.9775 9.81489 20.132C8.41295 20.2973 7.31445 21.834 7.31445 23.7052C7.31445 25.2841 8.09658 26.6248 9.18318 27.1045C9.60884 29.9895 10.8548 32.4443 12.5573 33.9501C12.4962 34.1244 12.4631 34.3111 12.4631 34.5053C12.4631 35.4643 13.271 36.2418 14.2677 36.2418C14.8835 36.2418 15.4273 35.9449 15.7529 35.4918C15.9948 35.5255 16.24 35.5428 16.4881 35.5428C19.7268 35.5428 21.6563 33.5454 21.6563 30.8147C21.6563 28.6219 19.8365 26.9438 18.0619 26.7071C18.0619 26.7071 18.3318 25.9458 18.3318 24.9046C18.3318 23.8101 18.0619 23.102 18.0619 23.102C19.3824 22.9258 20.7288 21.9508 21.3307 20.5593C22.2185 20.477 22.9127 19.7571 22.9127 18.8812C22.9127 18.0095 22.2252 17.2924 21.3436 17.2043Z" fill="url(#paint0_linear_764_57042)"/>
<path d="M35.3339 27.9503C33.0733 28.8013 31.4642 30.9822 31.4642 33.542V44.1802C31.4642 44.5472 31.1664 44.8451 30.7994 44.8451H29.4696C29.1026 44.8451 28.8047 44.5472 28.8047 44.1802V33.542C28.8047 28.7681 32.6743 24.8984 37.4482 24.8984L38.778 27.558L35.3339 27.9503Z" fill="#FBABA6"/>
<path d="M33.2948 30.815C33.2948 33.5457 35.2244 35.543 38.463 35.543C42.586 35.543 45.9277 30.7798 45.9277 24.9048C45.9277 19.0299 42.586 14.2666 38.463 14.2666C35.2244 14.2666 33.2948 16.2639 33.2948 18.9946C33.2948 21.1874 35.1153 22.8656 36.8892 23.1023C36.8892 23.1023 36.6193 23.8104 36.6193 24.9048C36.6193 25.946 36.8892 26.7073 36.8892 26.7073C35.1146 26.944 33.2948 28.6222 33.2948 30.815Z" fill="url(#paint1_linear_764_57042)"/>
<circle cx="16.6273" cy="16.5873" r="0.607813" fill="#A9ABCC" fill-opacity="0.3" style="mix-blend-mode:color-burn"/>
<circle cx="15.8663" cy="23.7461" r="1.27641" fill="#A9ABCC" fill-opacity="0.3" style="mix-blend-mode:color-burn"/>
<circle cx="12.9141" cy="20.1875" r="0.759766" fill="#A9ABCC" fill-opacity="0.3" style="mix-blend-mode:color-burn"/>
<circle cx="12.1547" cy="28.0648" r="0.607813" fill="#A9ABCC" fill-opacity="0.3" style="mix-blend-mode:color-burn"/>
<circle cx="16.627" cy="32.0596" r="0.759766" fill="#A9ABCC" fill-opacity="0.3" style="mix-blend-mode:color-burn"/>
<path d="M49.6999 41.2694C49.6999 45.5549 46.2258 49.029 41.9403 49.029C37.6548 49.029 34.1807 45.5549 34.1807 41.2694C34.1807 36.9839 37.6548 33.5098 41.9403 33.5098C46.2258 33.5098 49.6999 36.9839 49.6999 41.2694Z" fill="white"/>
<path d="M48.1386 41.3262C48.1386 44.7612 45.354 47.5459 41.9189 47.5459C38.4839 47.5459 35.6992 44.7612 35.6992 41.3262C35.6992 37.8911 38.4839 35.1064 41.9189 35.1064C45.354 35.1064 48.1386 37.8911 48.1386 41.3262Z" fill="#FFBA33"/>
<path fill-rule="evenodd" clip-rule="evenodd" d="M42.9141 38.3399C42.9141 37.7903 42.4686 37.3447 41.919 37.3447C41.3694 37.3447 40.9238 37.7903 40.9238 38.3399V41.3253C40.9238 41.8749 41.3694 42.3205 41.919 42.3205C42.4686 42.3205 42.9141 41.8749 42.9141 41.3253V38.3399ZM41.919 45.0572C42.4686 45.0572 42.9141 44.6116 42.9141 44.062C42.9141 43.5124 42.4686 43.0669 41.919 43.0669C41.3694 43.0669 40.9238 43.5124 40.9238 44.062C40.9238 44.6116 41.3694 45.0572 41.919 45.0572Z" fill="white"/>
<defs>
<linearGradient id="paint0_linear_764_57042" x1="15.1113" y1="14.2666" x2="15.1113" y2="35.543" gradientUnits="userSpaceOnUse">
<stop stop-color="#CF7893"/>
<stop offset="1" stop-color="#F08A7F"/>
</linearGradient>
<linearGradient id="paint1_linear_764_57042" x1="39.6113" y1="14.2666" x2="39.6113" y2="35.543" gradientUnits="userSpaceOnUse">
<stop stop-color="#F67B72"/>
<stop offset="1" stop-color="#F78F83"/>
</linearGradient>
</defs>
</svg>
