<svg width="25" height="25" viewBox="0 0 25 25" fill="none" xmlns="http://www.w3.org/2000/svg">
<g clip-path="url(#clip0_764_67774)">
<path d="M0.262695 12.7998C0.262695 19.4272 5.63528 24.7998 12.2627 24.7998C18.8901 24.7998 24.2627 19.4272 24.2627 12.7998C24.2627 6.17239 18.8901 0.799805 12.2627 0.799805C5.63528 0.799805 0.262695 6.17239 0.262695 12.7998Z" fill="#F9EDE1"/>
<path d="M12.7326 12.6916L12.737 12.6958C12.553 12.7662 12.3793 12.861 12.1491 13.0912C11.8458 13.3945 11.7773 13.5997 11.6907 13.8596C11.5906 14.1594 11.4772 14.4993 11.0436 14.9329C10.6103 15.3662 10.2705 15.4795 9.97073 15.5794C9.71107 15.6659 9.50596 15.7343 9.20301 16.0373C8.90042 16.3399 8.83219 16.5448 8.74579 16.8042C8.64601 17.1039 8.53286 17.4436 8.09987 17.8766C7.66687 18.3096 7.32721 18.4227 7.02757 18.5224C6.76818 18.6088 6.56328 18.677 6.26073 18.9796C6.10827 19.132 5.86105 19.132 5.70859 18.9796C5.55612 18.8271 5.55612 18.5799 5.70859 18.4274C6.14158 17.9944 6.48125 17.8814 6.78089 17.7816C7.04028 17.6952 7.24517 17.627 7.54772 17.3245C7.85032 17.0219 7.91854 16.817 8.00494 16.5575C8.10472 16.2579 8.21782 15.9181 8.65086 15.4851C9.08417 15.0518 9.42396 14.9386 9.72378 14.8386C9.98344 14.7521 10.1885 14.6837 10.4915 14.3807C10.7948 14.0775 10.8632 13.8722 10.95 13.6124C11.05 13.3125 11.1635 12.9726 11.597 12.5391C11.8404 12.2957 12.0542 12.1532 12.2482 12.0573C12.3794 12.2873 12.5411 12.5001 12.7326 12.6916ZM18.8889 9.31958C19.011 8.46497 18.7855 7.70163 18.2541 7.17013C17.7226 6.63868 16.9593 6.41323 16.1046 6.53533C15.2915 6.65148 14.4862 7.073 13.8369 7.72228C13.1876 8.37155 12.7661 9.17691 12.6499 9.98999C12.5278 10.8446 12.7533 11.6079 13.2847 12.1394C13.8162 12.6709 14.5795 12.8963 15.4342 12.7743C16.2473 12.6581 17.0526 12.2366 17.7019 11.5873C18.3511 10.938 18.7727 10.1327 18.8889 9.31958Z" fill="#EA8929"/>
</g>
<defs>
<clipPath id="clip0_764_67774">
<rect width="24" height="24" fill="white" transform="translate(0.257812 0.799805)"/>
</clipPath>
</defs>
</svg>
