<svg width="65" height="65" viewBox="0 0 65 65" fill="none" xmlns="http://www.w3.org/2000/svg">
<path d="M32.5 57.3311C46.1861 57.3311 57.2808 46.2364 57.2808 32.5503C57.2808 18.8643 46.1861 7.76953 32.5 7.76953C18.814 7.76953 7.71924 18.8643 7.71924 32.5503C7.71924 46.2364 18.814 57.3311 32.5 57.3311Z" fill="#55B938"/>
<path d="M43.1074 29.2249C44.0534 28.279 44.0534 26.7452 43.1074 25.7993C42.1615 24.8534 40.6278 24.8534 39.6819 25.7993L29.7486 35.7325L25.4055 31.3895C24.4596 30.4436 22.9259 30.4436 21.98 31.3895C21.0341 32.3354 21.034 33.8692 21.9799 34.8151C21.9808 34.816 21.9818 34.8168 21.9827 34.8177L28.6144 41.455C29.2393 42.0799 30.2524 42.0799 30.8773 41.4549L43.1047 29.2275C43.1056 29.2266 43.1065 29.2257 43.1074 29.2249Z" fill="white"/>
</svg>
