<svg width="56" height="57" viewBox="0 0 56 57" fill="none" xmlns="http://www.w3.org/2000/svg">
<rect x="0.00585938" y="0.799805" width="56" height="56" rx="28" fill="#FAEDF1"/>
<g clip-path="url(#clip0_764_58103)">
<path d="M11.0449 26.7377C11.3353 26.2028 11.5171 25.6162 11.6194 25.0163C11.7359 24.3336 11.9006 23.6675 12.1099 23.0213C12.3206 22.3703 12.4292 21.6917 12.4075 21.0079C12.4048 20.9252 12.4035 20.8422 12.4035 20.7589C12.4035 18.2513 13.2719 16.3447 14.9793 14.7601L15.609 13.614C17.0054 12.6518 18.6965 12.0879 20.5169 12.0879C21.794 12.0879 23.0047 12.3686 24.0954 12.8684C24.392 13.0043 24.7102 13.0855 25.0364 13.0804C25.0988 13.0794 25.1613 13.0789 25.2239 13.0789C26.6743 13.0789 28.0738 13.2955 29.3935 13.6956C29.7944 13.8172 30.2167 13.8452 30.6248 13.7507C31.6316 13.5177 32.7201 13.5018 33.8509 13.7862C36.3091 14.4046 38.2673 16.3628 38.8856 18.821C39.1783 19.9842 39.153 21.1026 38.9005 22.1335C38.8147 22.4838 38.8433 22.8485 38.9501 23.193C39.367 24.5377 39.593 25.9662 39.593 27.4479C39.593 27.5167 39.5924 27.5852 39.5912 27.6536C39.5858 27.9678 39.6644 28.2744 39.7959 28.5598C40.2911 29.6348 40.5735 30.8268 40.5837 32.0844C40.6168 36.1742 37.6686 39.7646 33.6726 40.6361C32.7707 40.8328 31.8953 40.8675 31.055 40.7821C30.8152 40.7577 30.5753 40.7867 30.35 40.8727C28.9649 41.4017 27.477 41.7212 25.9244 41.7956C25.6712 41.8077 25.4285 41.8863 25.2092 42.0132L24.1989 41.9623C23.5888 42.1759 22.9337 42.2926 22.2511 42.2926C20.0394 42.2926 18.4484 41.2534 17.4252 39.4564C17.1087 38.9004 16.679 38.4188 16.1943 38.0014C14.9348 36.917 13.8661 35.618 13.0438 34.1609C12.7378 33.6187 12.3712 33.11 11.9104 32.6914C10.8623 31.7395 10.4216 30.7063 10.4216 29.1821C10.4215 28.2961 10.6496 27.4658 11.0449 26.7377Z" fill="url(#paint0_linear_764_58103)"/>
<path d="M15.2068 25.7094C15.4089 25.452 15.4176 25.0886 15.2176 24.8295C14.1616 23.4622 13.6225 21.6764 13.8998 19.7599C14.3161 16.8828 16.6277 14.5657 19.5039 14.1438C22.3714 13.7231 24.957 15.1243 26.2784 17.3612C26.4608 17.6702 26.9187 17.6803 27.1082 17.3756C28.3008 15.4573 30.5547 14.2678 33.0497 14.6294C35.6071 15.0001 37.6703 17.0629 38.0414 19.6203C38.4035 22.1156 37.2138 24.37 35.2953 25.5627C34.9905 25.7522 35.0007 26.2101 35.3097 26.3925C37.5397 27.7098 38.9391 30.2836 38.531 33.1406C38.1108 36.0817 35.7036 38.4302 32.7547 38.7917C30.5561 39.0612 28.5417 38.2583 27.149 36.8415C26.9811 36.6708 26.7284 36.6165 26.5122 36.7196C26.3291 36.8069 26.2176 36.989 26.2009 37.1912C26.0105 39.5036 23.8355 41.2533 21.3828 40.7333C19.8175 40.4015 18.6491 39.1941 18.3572 37.6209C18.0251 35.831 18.897 34.2047 20.3019 33.4103C20.6093 33.2364 20.6439 32.8251 20.378 32.5926C19.704 32.0032 19.2776 31.1385 19.2776 30.1725C19.2776 29.4651 19.5102 28.8153 19.8983 28.2854C19.9913 28.1584 20.0437 28.0064 20.0304 27.8477C20.009 27.5932 19.7874 27.4042 19.5348 27.367C19.2223 27.321 18.9169 27.2534 18.6201 27.1658C18.417 27.1059 18.1982 27.1698 18.0702 27.3385L18.0587 27.3537C17.9436 27.5054 17.9332 27.7055 18.0105 27.8795C18.1812 28.2635 18.2795 28.6865 18.2863 29.1321C18.3129 30.8833 16.8492 32.385 15.098 32.402C13.3046 32.4194 11.8454 30.9709 11.8454 29.1815C11.8454 27.5322 13.0856 26.1747 14.6841 25.9858C14.8887 25.9617 15.0796 25.8714 15.2068 25.7094ZM24.0142 27.3343C24.5752 27.6344 25.0365 28.0957 25.3365 28.6566C25.5196 28.9989 25.9946 29.0237 26.196 28.6919C26.8149 27.6725 27.6983 26.8329 28.7519 26.2667C29.0829 26.0889 29.1276 25.6316 28.8172 25.4199C28.2021 25.0005 27.6704 24.4688 27.251 23.8537C27.0393 23.5433 26.582 23.588 26.4042 23.919C25.838 24.9726 24.9984 25.856 23.979 26.4749C23.6472 26.6763 23.6719 27.1512 24.0142 27.3343Z" fill="#FF5F7A" fill-opacity="0.5"/>
<path d="M15.0659 31.4121C13.8344 31.4121 12.836 30.4137 12.836 29.1821C12.836 27.9505 13.8344 26.9521 15.0659 26.9521C16.2975 26.9521 17.2959 27.9505 17.2959 29.1821C17.2959 30.4137 16.2975 31.4121 15.0659 31.4121Z" fill="url(#paint1_linear_764_58103)"/>
<path d="M22.2508 39.8344C20.6089 39.8344 19.2779 38.5034 19.2779 36.8616C19.2779 35.2197 20.6089 33.8887 22.2508 33.8887C23.8926 33.8887 25.2236 35.2197 25.2236 36.8616C25.2236 38.5034 23.8926 39.8344 22.2508 39.8344Z" fill="url(#paint2_linear_764_58103)"/>
<path d="M20.5158 26.4567C17.3688 26.4567 14.8177 23.9056 14.8177 20.7586C14.8177 17.6117 17.3688 15.0605 20.5158 15.0605C23.6627 15.0605 26.2139 17.6117 26.2139 20.7586C26.2139 23.9056 23.6627 26.4567 20.5158 26.4567Z" fill="url(#paint3_linear_764_58103)"/>
<path d="M31.9123 37.8532C28.7653 37.8532 26.2142 35.3021 26.2142 32.1551C26.2142 29.0081 28.7653 26.457 31.9123 26.457C35.0592 26.457 37.6104 29.0081 37.6104 32.1551C37.6104 35.3021 35.0592 37.8532 31.9123 37.8532Z" fill="url(#paint4_linear_764_58103)"/>
<path d="M32.1604 25.4654C29.4239 25.4654 27.2055 23.247 27.2055 20.5105C27.2055 17.774 29.4239 15.5557 32.1604 15.5557C34.8969 15.5557 37.1152 17.774 37.1152 20.5105C37.1152 23.247 34.8969 25.4654 32.1604 25.4654Z" fill="url(#paint5_linear_764_58103)"/>
<path d="M31.677 23.4731C31.1297 23.4731 30.686 23.0295 30.686 22.4822C30.686 21.9349 31.1297 21.4912 31.677 21.4912C32.2243 21.4912 32.668 21.9349 32.668 22.4822C32.668 23.0295 32.2243 23.4731 31.677 23.4731Z" fill="url(#paint6_linear_764_58103)"/>
<path d="M34.1428 20.5112C33.5955 20.5112 33.1519 20.0675 33.1519 19.5203C33.1519 18.973 33.5955 18.5293 34.1428 18.5293C34.6901 18.5293 35.1338 18.973 35.1338 19.5203C35.1338 20.0675 34.6901 20.5112 34.1428 20.5112Z" fill="#FF5F7A" fill-opacity="0.5"/>
<path d="M30.4485 20.0962C29.9012 20.0962 29.4575 19.6525 29.4575 19.1052C29.4575 18.5579 29.9012 18.1143 30.4485 18.1143C30.9958 18.1143 31.4395 18.5579 31.4395 19.1052C31.4395 19.6525 30.9958 20.0962 30.4485 20.0962Z" fill="#FF5F7A" fill-opacity="0.5"/>
<path d="M32.511 29.4028C31.9637 29.4028 31.52 28.9592 31.52 28.4119C31.52 27.8646 31.9637 27.4209 32.511 27.4209C33.0583 27.4209 33.502 27.8646 33.502 28.4119C33.502 28.9592 33.0583 29.4028 32.511 29.4028Z" fill="#FF5F7A" fill-opacity="0.5"/>
<path d="M34.5842 32.0259C34.0369 32.0259 33.5933 31.5822 33.5933 31.0349C33.5933 30.4876 34.0369 30.0439 34.5842 30.0439C35.1315 30.0439 35.5752 30.4876 35.5752 31.0349C35.5752 31.5822 35.1315 32.0259 34.5842 32.0259Z" fill="url(#paint7_linear_764_58103)"/>
<path d="M30.7688 33.6294C30.2215 33.6294 29.7778 33.1857 29.7778 32.6384C29.7778 32.0911 30.2215 31.6475 30.7688 31.6475C31.3161 31.6475 31.7598 32.0911 31.7598 32.6384C31.7598 33.1857 31.3161 33.6294 30.7688 33.6294Z" fill="#FF5F7A" fill-opacity="0.5"/>
<path d="M29.2034 30.5122C28.6561 30.5122 28.2124 30.0685 28.2124 29.5212C28.2124 28.9739 28.6561 28.5303 29.2034 28.5303C29.7507 28.5303 30.1943 28.9739 30.1943 29.5212C30.1943 30.0685 29.7507 30.5122 29.2034 30.5122Z" fill="url(#paint8_linear_764_58103)"/>
<path d="M32.7044 36.854C32.1571 36.854 31.7134 36.4103 31.7134 35.863C31.7134 35.3157 32.1571 34.8721 32.7044 34.8721C33.2516 34.8721 33.6953 35.3157 33.6953 35.863C33.6953 36.4103 33.2516 36.854 32.7044 36.854Z" fill="url(#paint9_linear_764_58103)"/>
<path d="M35.4221 34.2173C34.8748 34.2173 34.4312 33.7736 34.4312 33.2263C34.4312 32.679 34.8748 32.2354 35.4221 32.2354C35.9694 32.2354 36.4131 32.679 36.4131 33.2263C36.4131 33.7736 35.9694 34.2173 35.4221 34.2173Z" fill="#FF5F7A" fill-opacity="0.5"/>
<path d="M29.0891 35.5034C28.5418 35.5034 28.0982 35.0597 28.0982 34.5124C28.0982 33.9652 28.5418 33.5215 29.0891 33.5215C29.6364 33.5215 30.0801 33.9652 30.0801 34.5124C30.0801 35.0597 29.6364 35.5034 29.0891 35.5034Z" fill="#FF5F7A" fill-opacity="0.5"/>
<path d="M23.0071 38.7768C22.4598 38.7768 22.0161 38.3332 22.0161 37.7859C22.0161 37.2386 22.4598 36.7949 23.0071 36.7949C23.5544 36.7949 23.998 37.2386 23.998 37.7859C23.998 38.3332 23.5544 38.7768 23.0071 38.7768Z" fill="#FF5F7A" fill-opacity="0.5"/>
<path d="M21.4602 37.0884C20.9129 37.0884 20.4693 36.6447 20.4693 36.0974C20.4693 35.5501 20.9129 35.1064 21.4602 35.1064C22.0075 35.1064 22.4512 35.5501 22.4512 36.0974C22.4512 36.6447 22.0075 37.0884 21.4602 37.0884Z" fill="url(#paint10_linear_764_58103)"/>
<path d="M22.3313 24.7397C21.784 24.7397 21.3403 24.2961 21.3403 23.7488C21.3403 23.2015 21.784 22.7578 22.3313 22.7578C22.8786 22.7578 23.3223 23.2015 23.3223 23.7488C23.3223 24.2961 22.8786 24.7397 22.3313 24.7397Z" fill="#FF5F7A" fill-opacity="0.5"/>
<path d="M18.4104 24.9438C17.8631 24.9438 17.4194 24.5002 17.4194 23.9529C17.4194 23.4056 17.8631 22.9619 18.4104 22.9619C18.9577 22.9619 19.4014 23.4056 19.4014 23.9529C19.4014 24.5002 18.9577 24.9438 18.4104 24.9438Z" fill="#FF5F7A" fill-opacity="0.5"/>
<path d="M23.7532 20.9907C23.2059 20.9907 22.7622 20.547 22.7622 19.9997C22.7622 19.4525 23.2059 19.0088 23.7532 19.0088C24.3005 19.0088 24.7441 19.4525 24.7441 19.9997C24.7441 20.547 24.3005 20.9907 23.7532 20.9907Z" fill="#FF5F7A" fill-opacity="0.5"/>
<path d="M19.3128 21.4302C18.7655 21.4302 18.3218 20.9865 18.3218 20.4392C18.3218 19.8919 18.7655 19.4482 19.3128 19.4482C19.86 19.4482 20.3037 19.8919 20.3037 20.4392C20.3037 20.9865 19.86 21.4302 19.3128 21.4302Z" fill="url(#paint11_linear_764_58103)"/>
<path d="M17.3001 20.3013C16.7528 20.3013 16.3091 19.8576 16.3091 19.3103C16.3091 18.763 16.7528 18.3193 17.3001 18.3193C17.8473 18.3193 18.291 18.763 18.291 19.3103C18.291 19.8576 17.8473 20.3013 17.3001 20.3013Z" fill="#FF5F7A" fill-opacity="0.5"/>
<path d="M15.3147 30.4204C14.7674 30.4204 14.3237 29.9767 14.3237 29.4294C14.3237 28.8821 14.7674 28.4385 15.3147 28.4385C15.862 28.4385 16.3057 28.8821 16.3057 29.4294C16.3057 29.9767 15.862 30.4204 15.3147 30.4204Z" fill="#FF5F7A" fill-opacity="0.5"/>
<path d="M21.2756 18.2866C20.7283 18.2866 20.2847 17.8429 20.2847 17.2956C20.2847 16.7484 20.7283 16.3047 21.2756 16.3047C21.8229 16.3047 22.2666 16.7484 22.2666 17.2956C22.2666 17.8429 21.8229 18.2866 21.2756 18.2866Z" fill="url(#paint12_linear_764_58103)"/>
<path d="M10.4873 26.7378C10.7775 26.2032 10.9593 25.617 11.0615 25.0174C11.1779 24.335 11.3426 23.6691 11.5516 23.0231C11.7623 22.372 11.8716 21.6933 11.8497 21.0092C11.8471 20.9262 11.8457 20.8428 11.8457 20.7591C11.8457 17.7984 13.3376 15.1794 15.6087 13.6143L15.6417 13.6721C15.9008 14.1305 15.7873 14.6968 15.3953 15.0484C13.8271 16.4545 12.8369 18.4919 12.8369 20.7591C12.8369 20.8308 12.8378 20.9023 12.8402 20.9769C12.8655 21.7688 12.7434 22.578 12.477 23.3815C12.2843 23.9631 12.143 24.5587 12.0419 25.163C11.9153 25.9195 11.6852 26.6086 11.3582 27.2106C11.0243 27.8256 10.8549 28.4889 10.8549 29.1823C10.8549 30.3634 11.3591 31.4986 12.2378 32.297C12.7373 32.7506 13.1717 33.3108 13.5661 34.0099C14.3286 35.3617 15.3157 36.5706 16.4931 37.5817C17.1068 38.1087 17.5965 38.6885 17.9475 39.3049C18.8301 40.8547 20.4791 41.8171 22.251 41.8171C22.8134 41.8171 23.3714 41.7197 23.8989 41.532C24.3947 41.3556 24.9447 41.5583 25.209 42.0134C24.3376 42.5176 23.3283 42.8082 22.2509 42.8082C20.0392 42.8082 18.1095 41.5924 17.0864 39.7954C16.7699 39.2396 16.3403 38.758 15.8556 38.3406C14.5961 37.2562 13.5273 35.9572 12.7049 34.5001C12.3989 33.9578 12.0322 33.449 11.5713 33.0303C10.5234 32.0783 9.8638 30.7065 9.8638 29.1823C9.8638 28.2962 10.092 27.4659 10.4873 26.7378Z" fill="#FF5F7A" fill-opacity="0.5"/>
<path d="M22.4989 32.4027C21.2674 32.4027 20.2692 31.4044 20.2692 30.173C20.2692 28.9416 21.2674 27.9434 22.4989 27.9434C23.7303 27.9434 24.7285 28.9416 24.7285 30.173C24.7285 31.4044 23.7303 32.4027 22.4989 32.4027Z" fill="url(#paint13_linear_764_58103)"/>
</g>
<path d="M39.2055 26.5045L33.9287 36.542C31.1574 41.8135 34.9804 48.1422 40.9359 48.1422C46.8915 48.1422 50.7144 41.8135 47.9431 36.542L42.6663 26.5045C41.9336 25.1108 39.9382 25.1108 39.2055 26.5045Z" fill="url(#paint14_linear_764_58103)"/>
<path d="M39.2055 26.5045L33.9287 36.542C31.1574 41.8135 34.9804 48.1422 40.9359 48.1422C46.8915 48.1422 50.7144 41.8135 47.9431 36.542L42.6663 26.5045C41.9336 25.1108 39.9382 25.1108 39.2055 26.5045Z" fill="url(#paint15_linear_764_58103)"/>
<path d="M39.2055 26.5045L33.9287 36.542C31.1574 41.8135 34.9804 48.1422 40.9359 48.1422C46.8915 48.1422 50.7144 41.8135 47.9431 36.542L42.6663 26.5045C41.9336 25.1108 39.9382 25.1108 39.2055 26.5045Z" stroke="#FAEDEF" stroke-width="1.98"/>
<defs>
<linearGradient id="paint0_linear_764_58103" x1="25.5028" y1="12.0879" x2="25.5028" y2="42.2926" gradientUnits="userSpaceOnUse">
<stop stop-color="#FF7E92"/>
<stop offset="1" stop-color="#F67E90"/>
</linearGradient>
<linearGradient id="paint1_linear_764_58103" x1="15.0659" y1="26.9521" x2="15.0659" y2="31.4121" gradientUnits="userSpaceOnUse">
<stop stop-color="#FFA6B0"/>
<stop offset="1" stop-color="#FA98A3"/>
</linearGradient>
<linearGradient id="paint2_linear_764_58103" x1="22.2508" y1="33.8887" x2="22.2508" y2="39.8344" gradientUnits="userSpaceOnUse">
<stop stop-color="#FFA6B0"/>
<stop offset="1" stop-color="#FA98A3"/>
</linearGradient>
<linearGradient id="paint3_linear_764_58103" x1="20.5158" y1="15.0605" x2="20.5158" y2="26.4567" gradientUnits="userSpaceOnUse">
<stop stop-color="#FFA6B0"/>
<stop offset="1" stop-color="#FA98A3"/>
</linearGradient>
<linearGradient id="paint4_linear_764_58103" x1="31.9123" y1="26.457" x2="31.9123" y2="37.8532" gradientUnits="userSpaceOnUse">
<stop stop-color="#FFA6B0"/>
<stop offset="1" stop-color="#FA98A3"/>
</linearGradient>
<linearGradient id="paint5_linear_764_58103" x1="32.1604" y1="15.5557" x2="32.1604" y2="25.4654" gradientUnits="userSpaceOnUse">
<stop stop-color="#FFA6B0"/>
<stop offset="1" stop-color="#FA98A3"/>
</linearGradient>
<linearGradient id="paint6_linear_764_58103" x1="31.677" y1="21.4912" x2="31.677" y2="23.4731" gradientUnits="userSpaceOnUse">
<stop stop-color="#FF7E92"/>
<stop offset="1" stop-color="#F67E90"/>
</linearGradient>
<linearGradient id="paint7_linear_764_58103" x1="34.5842" y1="30.0439" x2="34.5842" y2="32.0259" gradientUnits="userSpaceOnUse">
<stop stop-color="#FF7E92"/>
<stop offset="1" stop-color="#F67E90"/>
</linearGradient>
<linearGradient id="paint8_linear_764_58103" x1="29.2034" y1="28.5303" x2="29.2034" y2="30.5122" gradientUnits="userSpaceOnUse">
<stop stop-color="#FF7E92"/>
<stop offset="1" stop-color="#F67E90"/>
</linearGradient>
<linearGradient id="paint9_linear_764_58103" x1="32.7044" y1="34.8721" x2="32.7044" y2="36.854" gradientUnits="userSpaceOnUse">
<stop stop-color="#FF7E92"/>
<stop offset="1" stop-color="#F67E90"/>
</linearGradient>
<linearGradient id="paint10_linear_764_58103" x1="21.4602" y1="35.1064" x2="21.4602" y2="37.0884" gradientUnits="userSpaceOnUse">
<stop stop-color="#FF7E92"/>
<stop offset="1" stop-color="#F67E90"/>
</linearGradient>
<linearGradient id="paint11_linear_764_58103" x1="19.3128" y1="19.4482" x2="19.3128" y2="21.4302" gradientUnits="userSpaceOnUse">
<stop stop-color="#FF7E92"/>
<stop offset="1" stop-color="#F67E90"/>
</linearGradient>
<linearGradient id="paint12_linear_764_58103" x1="21.2756" y1="16.3047" x2="21.2756" y2="18.2866" gradientUnits="userSpaceOnUse">
<stop stop-color="#FF7E92"/>
<stop offset="1" stop-color="#F67E90"/>
</linearGradient>
<linearGradient id="paint13_linear_764_58103" x1="22.4989" y1="27.9434" x2="22.4989" y2="32.4027" gradientUnits="userSpaceOnUse">
<stop stop-color="#FFA6B0"/>
<stop offset="1" stop-color="#FA98A3"/>
</linearGradient>
<linearGradient id="paint14_linear_764_58103" x1="47.8718" y1="43.9154" x2="40.9359" y2="34.2779" gradientUnits="userSpaceOnUse">
<stop offset="0.0288461" stop-color="#E97173"/>
<stop offset="1" stop-color="#ED6981"/>
</linearGradient>
<linearGradient id="paint15_linear_764_58103" x1="47.8718" y1="43.9154" x2="40.9359" y2="34.2779" gradientUnits="userSpaceOnUse">
<stop offset="0.0288461" stop-color="#E97271"/>
<stop offset="1" stop-color="#ED696C"/>
</linearGradient>
<clipPath id="clip0_764_58103">
<rect width="30.72" height="30.72" fill="white" transform="matrix(-1 0 0 1 39.5859 13.0889)"/>
</clipPath>
</defs>
</svg>
