<svg width="57" height="57" viewBox="0 0 57 57" fill="none" xmlns="http://www.w3.org/2000/svg">
<rect x="0.513672" y="0.854492" width="55.8906" height="55.8906" rx="27.9453" fill="white"/>
<rect x="0.513672" y="0.854492" width="55.8906" height="55.8906" rx="27.9453" stroke="#EFEFF4" stroke-width="0.109375"/>
<g clip-path="url(#clip0_764_48836)">
<path fill-rule="evenodd" clip-rule="evenodd" d="M29.1533 9.97559C23.803 19.7646 11.0356 34.4419 20.3337 43.7401C25.1848 48.5912 33.1217 48.5912 37.9688 43.7401C47.3783 34.3346 33.8807 18.626 29.1533 9.97559Z" fill="white"/>
<path fill-rule="evenodd" clip-rule="evenodd" d="M29.1533 9.97559C23.803 19.7646 11.0356 34.4419 20.3337 43.7401C25.1848 48.5912 33.1217 48.5912 37.9688 43.7401C47.3783 34.3346 33.8807 18.626 29.1533 9.97559Z" fill="url(#paint0_linear_764_48836)"/>
<path fill-rule="evenodd" clip-rule="evenodd" d="M17.7402 31.1359C16.4423 35.7456 16.7387 40.1447 20.3337 43.7397C25.1849 48.5908 33.1217 48.5908 37.9688 43.7397C41.755 39.955 41.8323 35.1497 40.2643 30.1943C39.4296 30.6117 38.5666 32.025 35.7661 32.4405C33.3783 32.7946 33.2107 30.7946 31.0714 30.7726C29.3485 30.7549 28.6983 32.1859 27.5998 32.5933C26.7524 32.9076 25.7354 32.8905 24.9046 32.7578C23.8818 32.5944 23.2085 32.2946 22.3322 31.6677C21.5718 31.1237 21.2728 30.7138 20.5773 30.4819C19.733 30.2005 17.7402 31.1359 17.7402 31.1359Z" fill="url(#paint1_linear_764_48836)"/>
<path fill-rule="evenodd" clip-rule="evenodd" d="M30.6739 20.2852C30.8254 20.0229 31.1615 19.9328 31.4239 20.0843C31.6863 20.2358 31.7763 20.5719 31.6249 20.8342L27.213 28.4756C27.0615 28.7379 26.7254 28.828 26.463 28.6765C26.2006 28.525 26.1105 28.1889 26.2621 27.9265L30.6739 20.2852Z" fill="#E4E8EB"/>
<path fill-rule="evenodd" clip-rule="evenodd" d="M31.5246 29.2256C30.5638 29.2256 29.709 28.2821 29.709 27.044C29.709 25.8059 30.5638 24.8623 31.5246 24.8623C32.4854 24.8623 33.3402 25.8059 33.3402 27.044C33.3402 28.2821 32.4854 29.2256 31.5246 29.2256ZM31.5246 28.1276C31.7081 28.1276 31.8661 28.0168 31.9863 27.8618C32.1484 27.653 32.2422 27.3625 32.2422 27.044C32.2422 26.7254 32.1484 26.435 31.9863 26.2261C31.8661 26.0711 31.7081 25.9603 31.5246 25.9603C31.3411 25.9603 31.1831 26.0711 31.0628 26.2261C30.9008 26.435 30.807 26.7254 30.807 27.044C30.807 27.3625 30.9008 27.653 31.0628 27.8618C31.1831 28.0168 31.3411 28.1276 31.5246 28.1276Z" fill="#E4E8EB"/>
<path fill-rule="evenodd" clip-rule="evenodd" d="M26.7378 23.6221C25.7769 23.6221 24.9219 22.6795 24.9219 21.44C24.9219 20.2015 25.7768 19.2588 26.7378 19.2588C27.6988 19.2588 28.5537 20.2015 28.5537 21.44C28.5537 22.6795 27.6987 23.6221 26.7378 23.6221ZM26.7378 22.524C26.9214 22.524 27.0795 22.4135 27.1998 22.2583C27.3619 22.0495 27.4557 21.7589 27.4557 21.44C27.4557 21.1215 27.3619 20.8311 27.1999 20.6225C27.0796 20.4674 26.9215 20.3568 26.7378 20.3568C26.5542 20.3568 26.3961 20.4674 26.2757 20.6225C26.1137 20.8311 26.0199 21.1215 26.0199 21.44C26.0199 21.7589 26.1137 22.0495 26.2758 22.2583C26.3961 22.4135 26.5542 22.524 26.7378 22.524Z" fill="#E4E8EB"/>
<path d="M34.1378 38.583C36.1177 38.583 37.7228 37.6348 37.7228 36.4653C37.7228 35.2958 36.1177 34.3477 34.1378 34.3477C32.1578 34.3477 30.5527 35.2958 30.5527 36.4653C30.5527 37.6348 32.1578 38.583 34.1378 38.583Z" fill="#F3505A"/>
<path fill-rule="evenodd" clip-rule="evenodd" d="M35.3175 36.4042C35.552 36.2123 35.8982 36.247 36.0901 36.4816C36.2819 36.7161 36.2473 37.0623 36.0127 37.2541C35.8272 37.4059 35.5654 37.5192 35.2572 37.5859C34.9035 37.6625 34.4793 37.683 34.0881 37.683C33.391 37.683 32.6726 37.5662 32.2764 37.2636C32.0355 37.0798 31.9892 36.735 32.1731 36.4941C32.357 36.2533 32.7018 36.207 32.9426 36.3909C33.1902 36.5799 33.6527 36.585 34.0881 36.585C34.3538 36.585 34.6385 36.5765 34.8928 36.537C35.0635 36.5106 35.2204 36.4835 35.3175 36.4042Z" fill="#FC6968"/>
<path d="M31.8538 44.2967C33.3571 44.2967 34.5758 43.5769 34.5758 42.6889C34.5758 41.8009 33.3571 41.0811 31.8538 41.0811C30.3505 41.0811 29.1318 41.8009 29.1318 42.6889C29.1318 43.5769 30.3505 44.2967 31.8538 44.2967Z" fill="#F3505A"/>
<path fill-rule="evenodd" clip-rule="evenodd" d="M32.6659 42.266C32.9005 42.0742 33.2466 42.1088 33.4384 42.3434C33.6303 42.5779 33.5956 42.9241 33.361 43.116C33.0456 43.3739 32.3954 43.4714 31.8162 43.4714C31.2553 43.4714 30.6791 43.3694 30.3603 43.1259C30.1194 42.9421 30.0732 42.5972 30.2571 42.3564C30.4409 42.1156 30.7858 42.0693 31.0267 42.2532C31.0888 42.3007 31.1813 42.3176 31.2813 42.3354C31.4478 42.365 31.634 42.3734 31.8162 42.3734C32.0111 42.3734 32.2202 42.3675 32.4068 42.3386C32.51 42.3226 32.6072 42.314 32.6659 42.266Z" fill="#FC6968"/>
<path d="M25.3673 40.4659C27.1273 40.4659 28.554 39.6231 28.554 38.5835C28.554 37.5439 27.1273 36.7012 25.3673 36.7012C23.6074 36.7012 22.1807 37.5439 22.1807 38.5835C22.1807 39.6231 23.6074 40.4659 25.3673 40.4659Z" fill="#F3505A"/>
<path fill-rule="evenodd" clip-rule="evenodd" d="M26.3774 38.4254C26.612 38.2336 26.9582 38.2683 27.15 38.5028C27.3419 38.7374 27.3071 39.0836 27.0726 39.2754C26.9013 39.4155 26.6599 39.5211 26.3753 39.5828C26.0571 39.6517 25.6753 39.6704 25.3233 39.6704C24.6891 39.6704 24.0363 39.5604 23.6757 39.2851C23.4349 39.1013 23.3887 38.7565 23.5725 38.5156C23.7564 38.2748 24.1012 38.2285 24.3421 38.4124C24.5539 38.5741 24.9506 38.5724 25.3233 38.5724C25.5563 38.5724 25.8061 38.565 26.0291 38.5305C26.1687 38.5089 26.2981 38.4904 26.3774 38.4254Z" fill="#FC6968"/>
<path fill-rule="evenodd" clip-rule="evenodd" d="M13.5906 40.9838C13.7367 40.9838 13.8768 40.9258 13.9802 40.8224C14.0836 40.7191 14.1416 40.579 14.1416 40.4329V30.9045C14.1416 30.5831 14.2693 30.2748 14.4966 30.0475C14.724 29.8201 15.0323 29.6924 15.3537 29.6924H20.7193C21.0408 29.6924 21.3491 29.8201 21.5764 30.0475C21.8037 30.2748 21.9314 30.5831 21.9314 30.9045V40.4329C21.9314 40.579 21.9895 40.7191 22.0928 40.8224C22.1961 40.9258 22.3362 40.9838 22.4824 40.9838H24.9693C25.1978 40.9838 25.4026 41.1249 25.4841 41.3384C25.5656 41.552 25.5067 41.7935 25.3363 41.9457L18.4035 48.1367C18.1944 48.3234 17.8785 48.3234 17.6696 48.1367L10.7368 41.9457C10.5662 41.7935 10.5075 41.552 10.589 41.3384C10.6703 41.1249 10.8752 40.9838 11.1037 40.9838H13.5906Z" fill="#6FE585"/>
</g>
<defs>
<linearGradient id="paint0_linear_764_48836" x1="20.8701" y1="22.416" x2="30.2278" y2="33.4459" gradientUnits="userSpaceOnUse">
<stop stop-color="#F76D6C"/>
<stop offset="1" stop-color="#F57F7E"/>
</linearGradient>
<linearGradient id="paint1_linear_764_48836" x1="20.8701" y1="35.9097" x2="23.8189" y2="43.4751" gradientUnits="userSpaceOnUse">
<stop stop-color="#F34543"/>
<stop offset="1" stop-color="#F57170"/>
</linearGradient>
<clipPath id="clip0_764_48836">
<rect width="40" height="40" fill="white" transform="translate(6.45898 8.7998)"/>
</clipPath>
</defs>
</svg>
