<svg width="25" height="25" viewBox="0 0 25 25" fill="none" xmlns="http://www.w3.org/2000/svg">
<g clip-path="url(#clip0_764_49145)">
<path d="M0.393555 12.7998C0.393555 19.4272 5.76614 24.7998 12.3936 24.7998C19.021 24.7998 24.3936 19.4272 24.3936 12.7998C24.3936 6.17239 19.021 0.799805 12.3936 0.799805C5.76614 0.799805 0.393555 6.17239 0.393555 12.7998Z" fill="#FFE2E6"/>
<path d="M18.261 15.0206C18.261 16.578 17.6423 18.0716 16.541 19.1729C15.4398 20.2741 13.9462 20.8928 12.3888 20.8928C10.8314 20.8928 9.33777 20.2741 8.23652 19.1729C7.13528 18.0716 6.5166 16.578 6.5166 15.0206C6.5166 11.7776 12.3888 4.70898 12.3888 4.70898C12.3888 4.70898 18.261 11.7776 18.261 15.0206Z" fill="#F07284"/>
<path d="M8.02832 15.0205C8.02832 16.1769 8.48769 17.2859 9.30539 18.1036C10.1231 18.9213 11.2321 19.3807 12.3885 19.3807C13.5449 19.3807 14.6539 18.9213 15.4716 18.1036C16.2893 17.2859 16.7487 16.1769 16.7487 15.0205H8.02832Z" fill="#CE414E"/>
<path d="M16.7487 15.0211C16.7487 15.4121 14.7967 15.7289 12.3885 15.7289C9.98031 15.7289 8.02832 15.4121 8.02832 15.0211C8.02832 14.6301 9.98053 14.3135 12.3885 14.3135C14.7965 14.3135 16.7487 14.6303 16.7487 15.0211Z" fill="#EB566B"/>
</g>
<defs>
<clipPath id="clip0_764_49145">
<rect width="24" height="24" fill="white" transform="translate(0.388672 0.799805)"/>
</clipPath>
</defs>
</svg>
