<svg width="41" height="41" viewBox="0 0 41 41" fill="none" xmlns="http://www.w3.org/2000/svg">
<rect x="0.5" y="0.445312" width="40" height="40" rx="20" fill="#F0F4FF"/>
<g clip-path="url(#clip0_693_80040)">
<g clip-path="url(#clip1_693_80040)">
<path d="M23.7964 10.5791H27.5515C28.4468 10.5791 29.1719 11.3044 29.1719 12.1999V30.8386C29.1719 31.7341 28.4468 32.4594 27.5515 32.4594H13.7786C12.8833 32.4594 12.1582 31.7341 12.1582 30.8386V12.1999C12.1582 11.3044 12.8833 10.5791 13.7786 10.5791H23.7964Z" fill="url(#paint0_linear_693_80040)"/>
<path d="M23.7285 12.3965H27.0054C27.2233 12.3965 27.4016 12.5749 27.4016 12.7929V30.2344C27.4016 30.4524 27.2233 30.6308 27.0054 30.6308H14.3259C14.108 30.6308 13.9297 30.4524 13.9297 30.2344V12.7929C13.9297 12.5749 14.108 12.3965 14.3259 12.3965H23.7285Z" fill="white"/>
<path fill-rule="evenodd" clip-rule="evenodd" d="M18.0137 14.7764C18.5285 14.7764 18.9458 15.1611 18.9458 15.6356V16.1419C18.9458 16.6164 18.3145 17.0011 18.0137 17.0011C17.713 17.0011 17.0817 16.6164 17.0817 16.1419V15.6356C17.0817 15.1611 17.499 14.7764 18.0137 14.7764ZM18.0143 17.1891C18.3963 17.1891 18.774 17.272 19.1225 17.4323C19.4765 17.5952 19.7179 17.9595 19.7716 18.3751C19.8221 18.537 19.8819 18.8297 19.9246 19.3507C19.9908 20.1587 20.0006 20.84 20.0071 21.2913C20.0095 21.4617 20.0115 21.5994 20.0159 21.6987C20.029 21.9966 19.655 21.9969 19.4009 21.7694L18.9316 25.6201C19.0338 25.7013 19.0978 25.8007 19.0978 25.8578C19.0978 26.0705 18.937 26.0649 18.7182 26.0572L18.6664 26.0555H18.4937L18.4651 26.0564C18.4177 26.0579 18.3825 26.059 18.3563 26.0555H18.2532V22.6246C18.2532 22.5911 18.2465 22.5579 18.2334 22.5272C18.2204 22.4964 18.2014 22.4687 18.1775 22.4458C18.1536 22.4229 18.1254 22.4053 18.0946 22.394C18.0638 22.3827 18.0311 22.3781 17.9984 22.3803C17.937 22.3858 17.8799 22.4149 17.8386 22.4618C17.7972 22.5087 17.7747 22.5698 17.7755 22.633V26.0555H17.6744C17.6494 26.061 17.614 26.0593 17.5639 26.057L17.529 26.0555H17.3064C17.0827 26.061 16.917 26.0634 16.917 25.8571C16.917 25.7981 16.9853 25.6825 17.0933 25.5892L16.6223 21.7252C16.3702 21.9958 15.9483 22.0148 15.9623 21.6987C15.9666 21.5994 15.9686 21.4617 15.971 21.2913C15.9775 20.84 15.9873 20.1587 16.0535 19.3507C16.1292 18.4266 16.2589 18.2208 16.2945 18.1889C16.387 17.853 16.6062 17.5703 16.9062 17.4323C17.2547 17.272 17.6323 17.1891 18.0143 17.1891Z" fill="#5789F8"/>
<path d="M25.0034 28.5041H16.6773C16.468 28.5041 16.2988 28.2424 16.2988 27.92C16.2988 27.5976 16.468 27.3359 16.6773 27.3359H25.0034C25.2127 27.3359 25.3819 27.5976 25.3819 27.92C25.3819 28.2424 25.2127 28.5041 25.0034 28.5041Z" fill="#BFCBD1"/>
<path d="M25.2211 26.1006H21.6973C21.6087 26.1006 21.5371 25.4894 21.5371 24.7363C21.5371 23.9833 21.6087 23.3721 21.6973 23.3721H25.2211C25.3096 23.3721 25.3812 23.9833 25.3812 24.7363C25.3812 25.4894 25.3096 26.1006 25.2211 26.1006Z" fill="#CBDDE6" fill-opacity="0.6"/>
<path d="M25.222 15.8432H21.6983C21.6097 15.8432 21.5381 15.6884 21.5381 15.4978C21.5381 15.3071 21.6097 15.1523 21.6983 15.1523H25.222C25.3106 15.1523 25.3822 15.3071 25.3822 15.4978C25.3822 15.6884 25.3106 15.8432 25.222 15.8432Z" fill="#BFCBD1"/>
<path d="M25.222 17.2094H21.6983C21.6097 17.2094 21.5381 17.0546 21.5381 16.864C21.5381 16.6733 21.6097 16.5186 21.6983 16.5186H25.222C25.3106 16.5186 25.3822 16.6733 25.3822 16.864C25.3822 17.0546 25.3106 17.2094 25.222 17.2094Z" fill="#BFCBD1"/>
<path d="M25.222 18.5756H21.6983C21.6097 18.5756 21.5381 18.4208 21.5381 18.2302C21.5381 18.0395 21.6097 17.8848 21.6983 17.8848H25.222C25.3106 17.8848 25.3822 18.0395 25.3822 18.2302C25.3822 18.4208 25.3106 18.5756 25.222 18.5756Z" fill="#BFCBD1"/>
<path d="M25.222 19.9418H21.6983C21.6097 19.9418 21.5381 19.7871 21.5381 19.5964C21.5381 19.4057 21.6097 19.251 21.6983 19.251H25.222C25.3106 19.251 25.3822 19.4057 25.3822 19.5964C25.3822 19.7871 25.3106 19.9418 25.222 19.9418Z" fill="#BFCBD1"/>
<path d="M23.9062 10.983V11.7934C23.9062 12.2391 23.5416 12.6037 23.096 12.6037H18.235C17.7894 12.6037 17.4248 12.2391 17.4248 11.7934V10.983C17.4248 10.5373 17.7894 10.1726 18.235 10.1726H19.0452V9.76741C19.0452 9.3217 19.4097 8.95703 19.8553 8.95703H21.4757C21.9213 8.95703 22.2859 9.3217 22.2859 9.76741V10.1726H23.096C23.5416 10.1726 23.9062 10.5373 23.9062 10.983Z" fill="#4364BB"/>
</g>
</g>
<defs>
<linearGradient id="paint0_linear_693_80040" x1="20.665" y1="10.5791" x2="20.665" y2="32.4594" gradientUnits="userSpaceOnUse">
<stop stop-color="#609FF1"/>
<stop offset="1" stop-color="#3B86E9"/>
</linearGradient>
<clipPath id="clip0_693_80040">
<rect width="26" height="26" fill="white" transform="translate(7.5 7.86523)"/>
</clipPath>
<clipPath id="clip1_693_80040">
<rect width="25.48" height="25.48" fill="white" transform="translate(7.75977 8.125)"/>
</clipPath>
</defs>
</svg>
