<svg width="57" height="57" viewBox="0 0 57 57" fill="none" xmlns="http://www.w3.org/2000/svg">
<rect x="0.458984" y="0.799805" width="56" height="56" rx="28" fill="#FBEFEE"/>
<g clip-path="url(#clip0_764_48446)">
<path d="M14.1299 24.4705L20.4557 12.4375C21.0746 11.2603 22.7601 11.2603 23.379 12.4375L29.7048 24.4705C32.7847 30.329 28.5361 37.3624 21.9174 37.3624C15.2987 37.3624 11.0501 30.329 14.1299 24.4705Z" fill="url(#paint0_linear_764_48446)"/>
<path d="M18.6137 45.7851L18.6136 45.7851C18.3657 46.0344 18.0388 46.1595 17.7134 46.1595C17.3905 46.1595 17.0658 46.0364 16.8182 45.7902L18.6137 45.7851ZM18.6137 45.7851L25.8282 38.5295C25.8282 38.5295 25.8282 38.5295 25.8282 38.5295M18.6137 45.7851L25.8282 38.5295M16.8131 43.9946L24.0276 36.7391C24.0276 36.7391 24.0276 36.7391 24.0276 36.7391C24.5221 36.2418 25.326 36.2395 25.8231 36.734L16.8131 43.9946ZM16.8131 43.9946C16.8131 43.9946 16.8131 43.9947 16.8131 43.9947M16.8131 43.9946L16.8131 43.9947M16.8131 43.9947C16.3187 44.4919 16.3208 45.2957 16.8181 45.7901L16.8131 43.9947ZM25.8282 38.5295C26.3227 38.0323 26.3205 37.2286 25.8233 36.7341L25.8282 38.5295Z" fill="#5A4864" stroke="#5A4864" stroke-width="1.10086"/>
<path d="M33.7591 41.0143C40.4989 41.0143 45.9625 35.5506 45.9625 28.8109C45.9625 22.0711 40.4989 16.6074 33.7591 16.6074C27.0193 16.6074 21.5557 22.0711 21.5557 28.8109C21.5557 35.5506 27.0193 41.0143 33.7591 41.0143Z" fill="#E5DCDF"/>
<path d="M33.7609 38.7795C39.2681 38.7795 43.7327 34.315 43.7327 28.8077C43.7327 23.3005 39.2681 18.8359 33.7609 18.8359C28.2536 18.8359 23.7891 23.3005 23.7891 28.8077C23.7891 34.315 28.2536 38.7795 33.7609 38.7795Z" fill="#FCF5F0"/>
<path d="M33.7563 41.6785C27.7687 41.6788 22.3923 37.4669 21.1531 31.377C20.4678 28.0097 21.135 24.577 23.0316 21.7113C24.9282 18.8455 27.8272 16.8901 31.1947 16.2048C34.5616 15.5196 37.9947 16.1866 40.8606 18.0833C43.7263 19.9798 45.6817 22.879 46.367 26.2464C47.0523 29.6138 46.3851 33.0465 44.4885 35.9122C42.5919 38.7779 39.6928 40.7335 36.3254 41.4188C35.4638 41.5941 34.6036 41.6785 33.7563 41.6785ZM33.7838 17.2667C33.0112 17.2667 32.2331 17.3446 31.4586 17.5021C28.4377 18.1168 25.837 19.8712 24.1356 22.442C22.4342 25.0128 21.8357 28.0923 22.4504 31.1132C23.562 36.5759 28.3858 40.3544 33.7567 40.3546C34.5172 40.3547 35.2881 40.2789 36.0615 40.1216C42.2976 38.8525 46.3388 32.7466 45.0698 26.5103C44.4551 23.4894 42.7008 20.8886 40.1299 19.1872C38.2181 17.9221 36.0249 17.2667 33.7838 17.2667Z" fill="url(#paint1_linear_764_48446)"/>
<path d="M29.6488 29.1146C29.2205 27.0097 27.1669 25.6506 25.062 26.0789C24.7103 26.1504 24.38 26.2683 24.0748 26.4232C23.4661 28.8962 23.8351 31.5078 25.0702 33.704C25.5649 33.8037 26.0873 33.8083 26.613 33.7013C28.718 33.2731 30.0771 31.2195 29.6488 29.1146Z" fill="#EB807F"/>
<path d="M26.2634 32.6747C25.9492 32.6747 25.6677 32.454 25.6025 32.134C25.5283 31.7685 25.7642 31.4121 26.1296 31.3377C26.5144 31.2596 26.8462 31.0354 27.0637 30.7065C27.2814 30.3777 27.358 29.9848 27.2798 29.6C27.2129 29.2718 27.0422 28.9844 26.7862 28.7687C26.501 28.5286 26.4645 28.1027 26.7047 27.8174C26.9447 27.5322 27.3705 27.4957 27.656 27.7359C28.1403 28.1438 28.4767 28.71 28.6029 29.3306C28.7531 30.0689 28.6064 30.8222 28.1897 31.4517C27.773 32.0812 27.1369 32.5107 26.3987 32.6609C26.3534 32.6703 26.3081 32.6747 26.2634 32.6747Z" fill="#D0424C" fill-opacity="0.8"/>
<path d="M40.1921 32.1895C40.4051 33.2363 41.0202 34.0982 41.8434 34.648C41.9222 34.5386 41.9998 34.4278 42.0749 34.3143C43.4501 32.2364 43.9452 29.8324 43.65 27.541C43.5098 27.554 43.3689 27.574 43.2278 27.6028C41.123 28.0311 39.7639 30.0847 40.1921 32.1895Z" fill="#EB807F"/>
<path d="M31.2536 19.6809C31.2198 19.5143 31.1746 19.353 31.1211 19.1963C28.8731 19.8117 26.8297 21.213 25.4423 23.3093C25.3675 23.4224 25.2961 23.5366 25.2266 23.6515C26.0677 24.2347 27.1358 24.4879 28.218 24.2677C30.3228 23.8393 31.682 21.7857 31.2536 19.6809Z" fill="#EB807F"/>
<path d="M29.7961 22.0111C30.2128 21.3816 30.3595 20.6283 30.2093 19.8901C30.1843 19.7671 30.1488 19.6472 30.1078 19.5293C29.6854 19.695 29.2732 19.8896 28.8747 20.1128C28.8785 20.1284 28.883 20.1435 28.8862 20.1593C28.9645 20.5442 28.8879 20.9371 28.6702 21.2659C28.4526 21.5947 28.1208 21.8189 27.736 21.8971C27.3706 21.9714 27.1347 22.3279 27.209 22.6933C27.2742 23.0133 27.5556 23.2341 27.8699 23.2341C27.9146 23.2341 27.9599 23.2296 28.0052 23.2204C28.7434 23.0701 29.3794 22.6406 29.7961 22.0111Z" fill="#D0424C" fill-opacity="0.8"/>
<path d="M35.6813 29.7962C37.8293 29.7962 39.5706 28.0549 39.5706 25.9069C39.5706 23.7589 37.8293 22.0176 35.6813 22.0176C33.5333 22.0176 31.792 23.7589 31.792 25.9069C31.792 28.0549 33.5333 29.7962 35.6813 29.7962Z" fill="#EB807F"/>
<path d="M36.1072 28.6874C35.7929 28.6874 35.5115 28.4666 35.4463 28.1466C35.372 27.7812 35.6079 27.4248 35.9733 27.3504C36.3581 27.2722 36.6899 27.048 36.9074 26.7192C37.125 26.3903 37.2017 25.9975 37.1234 25.6126C37.0567 25.2846 36.886 24.9971 36.6299 24.7814C36.3446 24.5412 36.3082 24.1153 36.5484 23.8301C36.7885 23.5449 37.2145 23.5084 37.4997 23.7486C37.9842 24.1566 38.3204 24.723 38.4466 25.3433C38.5968 26.0816 38.4501 26.8348 38.0334 27.4644C37.6167 28.0939 36.9806 28.5234 36.2424 28.6736C36.197 28.6829 36.1519 28.6874 36.1072 28.6874Z" fill="#D0424C" fill-opacity="0.8"/>
<path d="M38.5556 37.5514C38.8777 36.8344 38.9872 36.0139 38.8186 35.1849C38.3903 33.08 36.3366 31.7209 34.2318 32.1492C32.1269 32.5774 30.7678 34.6311 31.196 36.7359C31.3493 37.4893 31.7116 38.1462 32.2091 38.6608C34.3893 39.0022 36.6275 38.6072 38.5556 37.5514Z" fill="#EB807F"/>
<path d="M37.7747 35.4009C37.6485 34.7806 37.3122 34.2142 36.8278 33.8063C36.5426 33.5659 36.1166 33.6026 35.8765 33.8878C35.6363 34.173 35.6727 34.5989 35.958 34.8391C36.2142 35.0548 36.3849 35.3422 36.4515 35.6702C36.6135 36.4666 36.0976 37.2461 35.3013 37.4082C34.9359 37.4825 34.7 37.8389 34.7745 38.2044C34.8195 38.4258 34.9692 38.5977 35.1608 38.6837C35.5718 38.6251 35.9789 38.5413 36.3795 38.4323C37.426 37.8496 38.026 36.6359 37.7747 35.4009Z" fill="#D0424C" fill-opacity="0.8"/>
</g>
<defs>
<linearGradient id="paint0_linear_764_48446" x1="15.9001" y1="18.8721" x2="22.8496" y2="26.9272" gradientUnits="userSpaceOnUse">
<stop stop-color="#E46362"/>
<stop offset="1" stop-color="#E46362"/>
</linearGradient>
<linearGradient id="paint1_linear_764_48446" x1="41.5056" y1="38.9485" x2="21.6082" y2="12.8924" gradientUnits="userSpaceOnUse">
<stop offset="0.0013" stop-color="#4E3A5A"/>
<stop offset="0.1263" stop-color="#594763"/>
<stop offset="0.3293" stop-color="#65556D"/>
<stop offset="0.5779" stop-color="#6C5E73"/>
<stop offset="1" stop-color="#6E6075"/>
</linearGradient>
<clipPath id="clip0_764_48446">
<rect width="37.3333" height="37.3333" fill="white" transform="translate(10.1211 10.1338)"/>
</clipPath>
</defs>
</svg>
