<svg width="25" height="25" viewBox="0 0 25 25" fill="none" xmlns="http://www.w3.org/2000/svg">
<rect x="0.332031" y="0.799805" width="24" height="24" rx="12" fill="#FAEDF1"/>
<g clip-path="url(#clip0_764_57353)">
<path d="M5.06306 11.9162C5.18752 11.687 5.26541 11.4355 5.30928 11.1784C5.35921 10.8859 5.4298 10.6004 5.51946 10.3234C5.6098 10.0445 5.65634 9.7536 5.64701 9.46054C5.64588 9.4251 5.64531 9.38954 5.64531 9.35385C5.64531 8.27914 6.01747 7.46205 6.74922 6.78293L7.0191 6.29174C7.61757 5.87936 8.34233 5.6377 9.12247 5.6377C9.6698 5.6377 10.1887 5.75801 10.6561 5.97219C10.7832 6.03043 10.9196 6.06525 11.0594 6.06304C11.0861 6.06262 11.1129 6.06239 11.1398 6.06239C11.7614 6.06239 12.3611 6.15522 12.9267 6.32671C13.0986 6.37881 13.2795 6.39082 13.4545 6.35034C13.8859 6.25047 14.3524 6.24365 14.837 6.36554C15.8906 6.63055 16.7298 7.46979 16.9948 8.5233C17.1202 9.02182 17.1094 9.50116 17.0012 9.94293C16.9644 10.0931 16.9766 10.2494 17.0224 10.397C17.2011 10.9733 17.298 11.5855 17.298 12.2206C17.298 12.25 17.2977 12.2794 17.2972 12.3087C17.2949 12.4434 17.3286 12.5748 17.3849 12.6971C17.5972 13.1578 17.7182 13.6687 17.7225 14.2076C17.7367 15.9604 16.4732 17.4991 14.7606 17.8726C14.3741 17.9569 13.9989 17.9718 13.6388 17.9352C13.536 17.9248 13.4332 17.9372 13.3367 17.974C12.7431 18.2007 12.1054 18.3377 11.44 18.3696C11.3315 18.3748 11.2275 18.4084 11.1335 18.4628L10.7005 18.441C10.439 18.5326 10.1582 18.5826 9.86572 18.5826C8.91784 18.5826 8.23597 18.1372 7.79747 17.367C7.66182 17.1288 7.47768 16.9224 7.26994 16.7435C6.73017 16.2788 6.27212 15.722 5.91971 15.0975C5.78856 14.8652 5.63148 14.6472 5.43396 14.4678C4.98481 14.0598 4.79592 13.617 4.79592 12.9638C4.79589 12.5841 4.89366 12.2282 5.06306 11.9162Z" fill="url(#paint0_linear_764_57353)"/>
<path d="M6.84672 11.4749C6.93335 11.3646 6.93708 11.2089 6.85135 11.0978C6.39878 10.5118 6.16773 9.74648 6.28658 8.92514C6.46499 7.69209 7.45566 6.69905 8.68835 6.51823C9.91726 6.33795 11.0254 6.93845 11.5917 7.89713C11.6699 8.02954 11.8661 8.03388 11.9473 7.90328C12.4584 7.08117 13.4244 6.57138 14.4937 6.72636C15.5897 6.88523 16.4739 7.76928 16.633 8.8653C16.7881 9.93473 16.2783 10.9009 15.4561 11.4121C15.3255 11.4933 15.3298 11.6895 15.4622 11.7677C16.418 12.3323 17.0177 13.4353 16.8428 14.6597C16.6627 15.9202 15.6311 16.9267 14.3672 17.0816C13.425 17.1971 12.5617 16.853 11.9648 16.2458C11.8929 16.1727 11.7845 16.1494 11.6919 16.1936C11.6134 16.231 11.5656 16.309 11.5585 16.3957C11.4769 17.3867 10.5447 18.1366 9.49357 17.9137C8.82273 17.7715 8.322 17.2541 8.1969 16.5799C8.05457 15.8127 8.42825 15.1158 9.03032 14.7753C9.16209 14.7008 9.1769 14.5245 9.06296 14.4249C8.77408 14.1723 8.59136 13.8017 8.59136 13.3877C8.59136 13.0845 8.69105 12.806 8.85735 12.5789C8.89723 12.5245 8.91968 12.4593 8.91397 12.3913C8.90479 12.2823 8.80982 12.2013 8.70157 12.1853C8.56765 12.1656 8.43676 12.1366 8.30955 12.0991C8.22251 12.0734 8.12876 12.1008 8.07391 12.1731L8.06897 12.1796C8.01965 12.2446 8.01518 12.3304 8.04832 12.405C8.12145 12.5695 8.1636 12.7508 8.1665 12.9418C8.17792 13.6923 7.5506 14.3359 6.80007 14.3432C6.03147 14.3506 5.40613 13.7299 5.40613 12.963C5.40613 12.2561 5.93764 11.6743 6.62272 11.5934C6.71038 11.583 6.7922 11.5444 6.84672 11.4749ZM10.6213 12.1713C10.8617 12.2999 11.0595 12.4976 11.188 12.738C11.2665 12.8847 11.47 12.8953 11.5564 12.7531C11.8216 12.3163 12.2002 11.9564 12.6518 11.7138C12.7936 11.6376 12.8128 11.4416 12.6797 11.3509C12.4161 11.1711 12.1883 10.9432 12.0085 10.6796C11.9178 10.5466 11.7218 10.5658 11.6456 10.7076C11.4029 11.1591 11.0431 11.5378 10.6063 11.803C10.464 11.8893 10.4746 12.0929 10.6213 12.1713Z" fill="#FF5F7A" fill-opacity="0.5"/>
<path d="M6.78649 13.9202C6.25867 13.9202 5.83079 13.4923 5.83079 12.9645C5.83079 12.4367 6.25867 12.0088 6.78649 12.0088C7.31431 12.0088 7.74219 12.4367 7.74219 12.9645C7.74219 13.4923 7.31431 13.9202 6.78649 13.9202Z" fill="url(#paint1_linear_764_57353)"/>
<path d="M9.86556 17.5296C9.1619 17.5296 8.59147 16.9592 8.59147 16.2555C8.59147 15.5519 9.1619 14.9814 9.86556 14.9814C10.5692 14.9814 11.1396 15.5519 11.1396 16.2555C11.1396 16.9592 10.5692 17.5296 9.86556 17.5296Z" fill="url(#paint2_linear_764_57353)"/>
<path d="M9.12242 11.7962C7.77372 11.7962 6.68038 10.7028 6.68038 9.35414C6.68038 8.00545 7.77372 6.91211 9.12242 6.91211C10.4711 6.91211 11.5645 8.00545 11.5645 9.35414C11.5645 10.7028 10.4711 11.7962 9.12242 11.7962Z" fill="url(#paint3_linear_764_57353)"/>
<path d="M14.0062 16.68C12.6575 16.68 11.5642 15.5866 11.5642 14.2379C11.5642 12.8892 12.6575 11.7959 14.0062 11.7959C15.3549 11.7959 16.4482 12.8892 16.4482 14.2379C16.4482 15.5866 15.3549 16.68 14.0062 16.68Z" fill="url(#paint4_linear_764_57353)"/>
<path d="M14.1118 11.371C12.9391 11.371 11.9883 10.4203 11.9883 9.24753C11.9883 8.07475 12.9391 7.12402 14.1118 7.12402C15.2846 7.12402 16.2354 8.07475 16.2354 9.24753C16.2354 10.4203 15.2846 11.371 14.1118 11.371Z" fill="url(#paint5_linear_764_57353)"/>
<path d="M13.9054 10.5174C13.6708 10.5174 13.4807 10.3272 13.4807 10.0927C13.4807 9.85811 13.6708 9.66797 13.9054 9.66797C14.1399 9.66797 14.3301 9.85811 14.3301 10.0927C14.3301 10.3272 14.1399 10.5174 13.9054 10.5174Z" fill="url(#paint6_linear_764_57353)"/>
<path d="M14.962 9.24783C14.7275 9.24783 14.5373 9.05769 14.5373 8.82313C14.5373 8.58858 14.7275 8.39844 14.962 8.39844C15.1966 8.39844 15.3867 8.58858 15.3867 8.82313C15.3867 9.05769 15.1966 9.24783 14.962 9.24783Z" fill="#FF5F7A" fill-opacity="0.5"/>
<path d="M13.379 9.0701C13.1445 9.0701 12.9543 8.87995 12.9543 8.6454C12.9543 8.41085 13.1445 8.2207 13.379 8.2207C13.6136 8.2207 13.8037 8.41085 13.8037 8.6454C13.8037 8.87995 13.6136 9.0701 13.379 9.0701Z" fill="#FF5F7A" fill-opacity="0.5"/>
<path d="M14.2628 13.0584C14.0282 13.0584 13.8381 12.8682 13.8381 12.6337C13.8381 12.3991 14.0282 12.209 14.2628 12.209C14.4974 12.209 14.6875 12.3991 14.6875 12.6337C14.6875 12.8682 14.4974 13.0584 14.2628 13.0584Z" fill="#FF5F7A" fill-opacity="0.5"/>
<path d="M15.1515 14.1824C14.9169 14.1824 14.7268 13.9923 14.7268 13.7577C14.7268 13.5232 14.9169 13.333 15.1515 13.333C15.386 13.333 15.5762 13.5232 15.5762 13.7577C15.5762 13.9923 15.386 14.1824 15.1515 14.1824Z" fill="url(#paint7_linear_764_57353)"/>
<path d="M13.5157 14.8699C13.2812 14.8699 13.091 14.6798 13.091 14.4452C13.091 14.2107 13.2812 14.0205 13.5157 14.0205C13.7503 14.0205 13.9404 14.2107 13.9404 14.4452C13.9404 14.6798 13.7503 14.8699 13.5157 14.8699Z" fill="#FF5F7A" fill-opacity="0.5"/>
<path d="M12.8458 13.534C12.6113 13.534 12.4211 13.3438 12.4211 13.1093C12.4211 12.8747 12.6113 12.6846 12.8458 12.6846C13.0804 12.6846 13.2705 12.8747 13.2705 13.1093C13.2705 13.3438 13.0804 13.534 12.8458 13.534Z" fill="url(#paint8_linear_764_57353)"/>
<path d="M14.3458 16.2517C14.1113 16.2517 13.9211 16.0616 13.9211 15.827C13.9211 15.5925 14.1113 15.4023 14.3458 15.4023C14.5804 15.4023 14.7705 15.5925 14.7705 15.827C14.7705 16.0616 14.5804 16.2517 14.3458 16.2517Z" fill="url(#paint9_linear_764_57353)"/>
<path d="M15.5099 15.1219C15.2753 15.1219 15.0852 14.9317 15.0852 14.6972C15.0852 14.4626 15.2753 14.2725 15.5099 14.2725C15.7444 14.2725 15.9346 14.4626 15.9346 14.6972C15.9346 14.9317 15.7444 15.1219 15.5099 15.1219Z" fill="#FF5F7A" fill-opacity="0.5"/>
<path d="M12.796 15.6726C12.5615 15.6726 12.3713 15.4825 12.3713 15.2479C12.3713 15.0134 12.5615 14.8232 12.796 14.8232C13.0306 14.8232 13.2207 15.0134 13.2207 15.2479C13.2207 15.4825 13.0306 15.6726 12.796 15.6726Z" fill="#FF5F7A" fill-opacity="0.5"/>
<path d="M10.1896 17.076C9.95501 17.076 9.76486 16.8858 9.76486 16.6513C9.76486 16.4167 9.95501 16.2266 10.1896 16.2266C10.4241 16.2266 10.6143 16.4167 10.6143 16.6513C10.6143 16.8858 10.4241 17.076 10.1896 17.076Z" fill="#FF5F7A" fill-opacity="0.5"/>
<path d="M9.52647 16.3523C9.29192 16.3523 9.10178 16.1622 9.10178 15.9276C9.10178 15.6931 9.29192 15.5029 9.52647 15.5029C9.76103 15.5029 9.95117 15.6931 9.95117 15.9276C9.95117 16.1622 9.76103 16.3523 9.52647 16.3523Z" fill="url(#paint10_linear_764_57353)"/>
<path d="M9.9005 11.0594C9.66594 11.0594 9.4758 10.8692 9.4758 10.6347C9.4758 10.4001 9.66594 10.21 9.9005 10.21C10.1351 10.21 10.3252 10.4001 10.3252 10.6347C10.3252 10.8692 10.1351 11.0594 9.9005 11.0594Z" fill="#FF5F7A" fill-opacity="0.5"/>
<path d="M8.21983 11.1472C7.98528 11.1472 7.79514 10.9571 7.79514 10.7225C7.79514 10.488 7.98528 10.2979 8.21983 10.2979C8.45439 10.2979 8.64453 10.488 8.64453 10.7225C8.64453 10.9571 8.45439 11.1472 8.21983 11.1472Z" fill="#FF5F7A" fill-opacity="0.5"/>
<path d="M10.5099 9.45291C10.2753 9.45291 10.0852 9.26277 10.0852 9.02821C10.0852 8.79366 10.2753 8.60352 10.5099 8.60352C10.7444 8.60352 10.9346 8.79366 10.9346 9.02821C10.9346 9.26277 10.7444 9.45291 10.5099 9.45291Z" fill="#FF5F7A" fill-opacity="0.5"/>
<path d="M8.60655 9.64139C8.372 9.64139 8.18186 9.45124 8.18186 9.21669C8.18186 8.98214 8.372 8.79199 8.60655 8.79199C8.84111 8.79199 9.03125 8.98214 9.03125 9.21669C9.03125 9.45124 8.84111 9.64139 8.60655 9.64139Z" fill="url(#paint11_linear_764_57353)"/>
<path d="M7.74425 9.15799C7.50969 9.15799 7.31955 8.96784 7.31955 8.73329C7.31955 8.49874 7.50969 8.30859 7.74425 8.30859C7.9788 8.30859 8.16895 8.49874 8.16895 8.73329C8.16895 8.96784 7.9788 9.15799 7.74425 9.15799Z" fill="#FF5F7A" fill-opacity="0.5"/>
<path d="M6.89269 13.4939C6.65813 13.4939 6.46799 13.3038 6.46799 13.0692C6.46799 12.8347 6.65813 12.6445 6.89269 12.6445C7.12724 12.6445 7.31738 12.8347 7.31738 13.0692C7.31738 13.3038 7.12724 13.4939 6.89269 13.4939Z" fill="#FF5F7A" fill-opacity="0.5"/>
<path d="M9.44835 8.29373C9.2138 8.29373 9.02365 8.10359 9.02365 7.86903C9.02365 7.63448 9.2138 7.44434 9.44835 7.44434C9.6829 7.44434 9.87305 7.63448 9.87305 7.86903C9.87305 8.10359 9.6829 8.29373 9.44835 8.29373Z" fill="url(#paint12_linear_764_57353)"/>
<path d="M4.82451 11.9163C4.94889 11.6873 5.02678 11.436 5.07059 11.1791C5.12048 10.8866 5.19104 10.6012 5.28063 10.3244C5.37093 10.0453 5.41779 9.75442 5.4084 9.46125C5.40727 9.42566 5.40668 9.38995 5.40668 9.35408C5.40668 8.0852 6.04604 6.96275 7.0194 6.29199L7.03352 6.31678C7.14458 6.51324 7.09593 6.75596 6.92791 6.90662C6.25584 7.50926 5.83145 8.38241 5.83145 9.35408C5.83145 9.38478 5.83186 9.41546 5.83289 9.44739C5.84372 9.7868 5.79139 10.1336 5.67724 10.478C5.59462 10.7272 5.53407 10.9825 5.49074 11.2415C5.43651 11.5657 5.33789 11.861 5.19772 12.119C5.05462 12.3825 4.98206 12.6668 4.98206 12.964C4.98206 13.4702 5.19813 13.9567 5.57472 14.2989C5.78879 14.4933 5.97496 14.7334 6.14398 15.033C6.47079 15.6123 6.89381 16.1304 7.39843 16.5638C7.66144 16.7896 7.87132 17.0381 8.02172 17.3023C8.39997 17.9665 9.10671 18.3789 9.8661 18.3789C10.1071 18.3789 10.3463 18.3372 10.5723 18.2567C10.7848 18.1811 11.0205 18.268 11.1338 18.4631C10.7603 18.6791 10.3278 18.8037 9.86605 18.8037C8.91817 18.8037 8.09117 18.2826 7.65269 17.5125C7.51705 17.2743 7.33294 17.0679 7.12519 16.889C6.58542 16.4243 6.12735 15.8675 5.77491 15.2431C5.64374 15.0107 5.4866 14.7926 5.28906 14.6132C4.83996 14.2052 4.55728 13.6172 4.55728 12.964C4.55728 12.5843 4.65508 12.2284 4.82451 11.9163Z" fill="#FF5F7A" fill-opacity="0.5"/>
<path d="M9.97217 14.3438C9.44442 14.3438 9.0166 13.9159 9.0166 13.3882C9.0166 12.8604 9.44442 12.4326 9.97217 12.4326C10.4999 12.4326 10.9277 12.8604 10.9277 13.3882C10.9277 13.9159 10.4999 14.3438 9.97217 14.3438Z" fill="url(#paint13_linear_764_57353)"/>
</g>
<path d="M17.1333 11.8167L17.5088 12.0141L17.1333 11.8167L14.8718 16.1184C13.6841 18.3777 15.3225 21.09 17.8749 21.09C20.4273 21.09 22.0656 18.3776 20.878 16.1184L18.6165 11.8167C18.3025 11.2194 17.4473 11.2194 17.1333 11.8167Z" fill="url(#paint14_linear_764_57353)"/>
<path d="M17.1333 11.8167L17.5088 12.0141L17.1333 11.8167L14.8718 16.1184C13.6841 18.3777 15.3225 21.09 17.8749 21.09C20.4273 21.09 22.0656 18.3776 20.878 16.1184L18.6165 11.8167C18.3025 11.2194 17.4473 11.2194 17.1333 11.8167Z" fill="url(#paint15_linear_764_57353)"/>
<path d="M17.1333 11.8167L17.5088 12.0141L17.1333 11.8167L14.8718 16.1184C13.6841 18.3777 15.3225 21.09 17.8749 21.09C20.4273 21.09 22.0656 18.3776 20.878 16.1184L18.6165 11.8167C18.3025 11.2194 17.4473 11.2194 17.1333 11.8167Z" stroke="#FAEDEF" stroke-width="0.848571"/>
<defs>
<linearGradient id="paint0_linear_764_57353" x1="11.2593" y1="5.6377" x2="11.2593" y2="18.5826" gradientUnits="userSpaceOnUse">
<stop stop-color="#FF7E92"/>
<stop offset="1" stop-color="#F67E90"/>
</linearGradient>
<linearGradient id="paint1_linear_764_57353" x1="6.78649" y1="12.0088" x2="6.78649" y2="13.9202" gradientUnits="userSpaceOnUse">
<stop stop-color="#FFA6B0"/>
<stop offset="1" stop-color="#FA98A3"/>
</linearGradient>
<linearGradient id="paint2_linear_764_57353" x1="9.86556" y1="14.9814" x2="9.86556" y2="17.5296" gradientUnits="userSpaceOnUse">
<stop stop-color="#FFA6B0"/>
<stop offset="1" stop-color="#FA98A3"/>
</linearGradient>
<linearGradient id="paint3_linear_764_57353" x1="9.12242" y1="6.91211" x2="9.12242" y2="11.7962" gradientUnits="userSpaceOnUse">
<stop stop-color="#FFA6B0"/>
<stop offset="1" stop-color="#FA98A3"/>
</linearGradient>
<linearGradient id="paint4_linear_764_57353" x1="14.0062" y1="11.7959" x2="14.0062" y2="16.68" gradientUnits="userSpaceOnUse">
<stop stop-color="#FFA6B0"/>
<stop offset="1" stop-color="#FA98A3"/>
</linearGradient>
<linearGradient id="paint5_linear_764_57353" x1="14.1118" y1="7.12402" x2="14.1118" y2="11.371" gradientUnits="userSpaceOnUse">
<stop stop-color="#FFA6B0"/>
<stop offset="1" stop-color="#FA98A3"/>
</linearGradient>
<linearGradient id="paint6_linear_764_57353" x1="13.9054" y1="9.66797" x2="13.9054" y2="10.5174" gradientUnits="userSpaceOnUse">
<stop stop-color="#FF7E92"/>
<stop offset="1" stop-color="#F67E90"/>
</linearGradient>
<linearGradient id="paint7_linear_764_57353" x1="15.1515" y1="13.333" x2="15.1515" y2="14.1824" gradientUnits="userSpaceOnUse">
<stop stop-color="#FF7E92"/>
<stop offset="1" stop-color="#F67E90"/>
</linearGradient>
<linearGradient id="paint8_linear_764_57353" x1="12.8458" y1="12.6846" x2="12.8458" y2="13.534" gradientUnits="userSpaceOnUse">
<stop stop-color="#FF7E92"/>
<stop offset="1" stop-color="#F67E90"/>
</linearGradient>
<linearGradient id="paint9_linear_764_57353" x1="14.3458" y1="15.4023" x2="14.3458" y2="16.2517" gradientUnits="userSpaceOnUse">
<stop stop-color="#FF7E92"/>
<stop offset="1" stop-color="#F67E90"/>
</linearGradient>
<linearGradient id="paint10_linear_764_57353" x1="9.52647" y1="15.5029" x2="9.52647" y2="16.3523" gradientUnits="userSpaceOnUse">
<stop stop-color="#FF7E92"/>
<stop offset="1" stop-color="#F67E90"/>
</linearGradient>
<linearGradient id="paint11_linear_764_57353" x1="8.60655" y1="8.79199" x2="8.60655" y2="9.64139" gradientUnits="userSpaceOnUse">
<stop stop-color="#FF7E92"/>
<stop offset="1" stop-color="#F67E90"/>
</linearGradient>
<linearGradient id="paint12_linear_764_57353" x1="9.44835" y1="7.44434" x2="9.44835" y2="8.29373" gradientUnits="userSpaceOnUse">
<stop stop-color="#FF7E92"/>
<stop offset="1" stop-color="#F67E90"/>
</linearGradient>
<linearGradient id="paint13_linear_764_57353" x1="9.97217" y1="12.4326" x2="9.97217" y2="14.3438" gradientUnits="userSpaceOnUse">
<stop stop-color="#FFA6B0"/>
<stop offset="1" stop-color="#FA98A3"/>
</linearGradient>
<linearGradient id="paint14_linear_764_57353" x1="20.8474" y1="19.2785" x2="17.8749" y2="15.1481" gradientUnits="userSpaceOnUse">
<stop offset="0.0288461" stop-color="#E97173"/>
<stop offset="1" stop-color="#ED6981"/>
</linearGradient>
<linearGradient id="paint15_linear_764_57353" x1="20.8474" y1="19.2785" x2="17.8749" y2="15.1481" gradientUnits="userSpaceOnUse">
<stop offset="0.0288461" stop-color="#E97271"/>
<stop offset="1" stop-color="#ED696C"/>
</linearGradient>
<clipPath id="clip0_764_57353">
<rect width="13.1657" height="13.1657" fill="white" transform="matrix(-1 0 0 1 17.2949 6.06641)"/>
</clipPath>
</defs>
</svg>
