<svg width="57" height="57" viewBox="0 0 57 57" fill="none" xmlns="http://www.w3.org/2000/svg">
<rect x="0.429688" y="0.393555" width="56" height="56" rx="28" fill="#F1F6F4"/>
<path d="M38.0428 44.1006H34.5878V41.3227H35.9499C36.0853 41.3227 36.2152 41.2689 36.3109 41.1732C36.4066 41.0774 36.4604 40.9476 36.4604 40.8122C36.4604 40.6768 36.4066 40.547 36.3109 40.4513C36.2152 40.3555 36.0853 40.3017 35.9499 40.3017H34.5878V37.1835H37.4476C37.583 37.1835 37.7128 37.1298 37.8085 37.034C37.9043 36.9383 37.9581 36.8085 37.9581 36.6731C37.9581 36.5377 37.9043 36.4079 37.8085 36.3121C37.7128 36.2164 37.583 36.1626 37.4476 36.1626H34.5878V33.0444H35.9499C36.0853 33.0444 36.2152 32.9906 36.3109 32.8949C36.4066 32.7991 36.4604 32.6693 36.4604 32.5339C36.4604 32.3985 36.4066 32.2687 36.3109 32.173C36.2152 32.0772 36.0853 32.0234 35.9499 32.0234H34.5878V28.9052H37.4476C37.583 28.9052 37.7128 28.8515 37.8085 28.7557C37.9043 28.66 37.9581 28.5302 37.9581 28.3948C37.9581 28.2594 37.9043 28.1295 37.8085 28.0338C37.7128 27.9381 37.583 27.8843 37.4476 27.8843H34.5878V24.7661H35.9499C36.0853 24.7661 36.2152 24.7123 36.3109 24.6166C36.4066 24.5209 36.4604 24.391 36.4604 24.2556C36.4604 24.1202 36.4066 23.9904 36.3109 23.8947C36.2152 23.7989 36.0853 23.7452 35.9499 23.7452H34.5878V20.627H37.4476C37.583 20.627 37.7128 20.5732 37.8085 20.4775C37.9043 20.3817 37.9581 20.2519 37.9581 20.1165C37.9581 19.9811 37.9043 19.8513 37.8085 19.7555C37.7128 19.6598 37.583 19.606 37.4476 19.606H34.5878V16.4878H35.9499C36.0853 16.4878 36.2152 16.434 36.3109 16.3383C36.4066 16.2426 36.4604 16.1127 36.4604 15.9773C36.4604 15.8419 36.4066 15.7121 36.3109 15.6164C36.2152 15.5206 36.0853 15.4669 35.9499 15.4669H34.5878V12.6889H38.0428C38.1782 12.6889 38.308 12.6351 38.4038 12.5394C38.4995 12.4437 38.5533 12.3138 38.5533 12.1784C38.5533 12.0431 38.4995 11.9132 38.4038 11.8175C38.308 11.7218 38.1782 11.668 38.0428 11.668H33.5681V12.1784H33.5669V44.6111H33.5681V45.1215H38.0428C38.1782 45.1215 38.308 45.0678 38.4038 44.972C38.4995 44.8763 38.5533 44.7465 38.5533 44.6111C38.5533 44.4757 38.4995 44.3458 38.4038 44.2501C38.308 44.1544 38.1782 44.1006 38.0428 44.1006Z" fill="#78C499"/>
<path fill-rule="evenodd" clip-rule="evenodd" d="M23.5232 11.4561C25.0693 11.4561 26.3227 12.6115 26.3227 14.0369V15.5574C26.3227 16.9828 24.4265 18.1383 23.5233 18.1383C22.6201 18.1383 20.7238 16.9828 20.7238 15.5574V14.0369C20.7238 12.6115 21.9771 11.4561 23.5232 11.4561ZM23.5237 18.7049C24.6711 18.7049 25.8054 18.9539 26.8522 19.4355C27.9122 19.9232 28.6361 21.0122 28.8004 22.2557C28.9522 22.7412 29.1325 23.6208 29.2611 25.19C29.4599 27.617 29.4893 29.6633 29.5088 31.0189C29.5162 31.5307 29.5221 31.9441 29.5352 32.2423C29.5748 33.1367 28.4524 33.1381 27.6892 32.4558L26.2785 44.0306C26.5852 44.2745 26.7773 44.5728 26.7773 44.7443C26.7773 45.383 26.2941 45.3661 25.637 45.3432L25.6363 45.3432C25.5572 45.3404 25.4755 45.3376 25.3919 45.3358H25.0555C24.9904 45.3371 24.9311 45.339 24.877 45.3407C24.725 45.3455 24.6147 45.3489 24.5347 45.3358H24.2411V35.0308C24.2411 34.9301 24.2209 34.8305 24.1818 34.7382C24.1427 34.6458 24.0855 34.5626 24.0138 34.4938C23.9421 34.4251 23.8573 34.3721 23.7648 34.3382C23.6723 34.3044 23.574 34.2904 23.476 34.2971C23.2915 34.3137 23.12 34.4011 22.9958 34.5418C22.8716 34.6826 22.8039 34.8663 22.8063 35.056V45.3358H22.5289C22.4532 45.3597 22.3403 45.3546 22.1723 45.3469C22.0647 45.342 21.9345 45.336 21.777 45.336C21.6528 45.336 21.532 45.339 21.4162 45.3419H21.4162H21.4161C20.7355 45.3588 20.2295 45.3713 20.2295 44.7464C20.2295 44.5694 20.4341 44.2223 20.7582 43.9422L19.3421 32.3234C18.5848 33.135 17.3189 33.1912 17.3609 32.2423C17.374 31.9441 17.3799 31.5307 17.3873 31.0189C17.4068 29.6633 17.4362 27.6171 17.635 25.19C17.8637 22.3987 18.2562 21.7894 18.3605 21.6991C18.64 20.694 19.2969 19.8489 20.1953 19.4355C21.242 18.9539 22.3763 18.7049 23.5237 18.7049Z" fill="url(#paint0_linear_748_70652)"/>
<defs>
<linearGradient id="paint0_linear_748_70652" x1="23.0983" y1="11.4561" x2="23.0983" y2="45.3533" gradientUnits="userSpaceOnUse">
<stop stop-color="#748D93"/>
<stop offset="1" stop-color="#79979F"/>
</linearGradient>
</defs>
</svg>
