<svg width="56" height="57" viewBox="0 0 56 57" fill="none" xmlns="http://www.w3.org/2000/svg">
<rect x="0.0546875" y="0.854492" width="55.8906" height="55.8906" rx="27.9453" fill="white"/>
<rect x="0.0546875" y="0.854492" width="55.8906" height="55.8906" rx="27.9453" stroke="#EFEFF4" stroke-width="0.109375"/>
<g clip-path="url(#clip0_764_50335)">
<mask id="mask0_764_50335" style="mask-type:alpha" maskUnits="userSpaceOnUse" x="2" y="3" width="53" height="52">
<circle cx="28.4012" cy="28.7997" r="25.6522" fill="#D9D9D9"/>
</mask>
<g mask="url(#mask0_764_50335)">
<path d="M14.0005 10.5543C13.9285 10.5775 13.858 10.6053 13.7895 10.6375C13.047 10.9869 12.771 11.8865 13.2426 12.5366C13.2588 12.5588 13.2757 12.581 13.2937 12.6032C13.2937 12.6032 12.9055 13.41 14.057 13.8307C15.3234 14.2933 16.3849 13.4085 16.4407 12.3833C16.451 12.024 16.3512 11.6701 16.1547 11.3692C15.9374 11.0131 15.6076 10.7396 15.2174 10.592C14.8273 10.4444 14.399 10.4311 14.0005 10.5543Z" fill="#CDD5E0"/>
<path d="M13.7283 19.4575C14.4287 19.4575 14.9966 18.8897 14.9966 18.1892C14.9966 17.4887 14.4287 16.9209 13.7283 16.9209C13.0278 16.9209 12.46 17.4887 12.46 18.1892C12.46 18.8897 13.0278 19.4575 13.7283 19.4575Z" fill="#CDD5E0"/>
<path d="M18.5565 18.3893C18.9851 18.3893 19.3326 18.0418 19.3326 17.6131C19.3326 17.1844 18.9851 16.8369 18.5565 16.8369C18.1278 16.8369 17.7803 17.1844 17.7803 17.6131C17.7803 18.0418 18.1278 18.3893 18.5565 18.3893Z" fill="#949FAF"/>
<path fill-rule="evenodd" clip-rule="evenodd" d="M22.362 30.5762C27.6331 30.5762 29.178 23.8404 26.2994 21.948C25.064 21.1355 21.9499 22.3733 22.0662 20.5938C22.1821 18.8148 23.0811 16.5899 23.0811 16.5899L21.1471 15.2298L23.6854 13.0914C23.6854 13.0914 24.6294 9.57492 28.5013 8.69934C31.9396 7.92202 35.439 9.18235 36.3933 12.2882C38.297 18.4833 35.0411 19.1956 34.0897 21.6566C32.3811 26.0771 32.9731 30.5762 37.9607 30.5762C42.4432 30.5762 46.0776 34.2106 46.0776 38.6931V53.4495L31.6808 63.9997L14.2451 53.4495C14.2451 53.4495 14.2451 43.3086 14.2451 38.6931C14.2451 34.2106 17.879 30.5762 22.362 30.5762Z" fill="#F7D0C9"/>
<path fill-rule="evenodd" clip-rule="evenodd" d="M29.4334 39.2053L23.7125 41.6639C23.3405 41.8237 23.1684 42.2554 23.3283 42.627C23.4877 42.999 23.9193 43.1711 24.2914 43.0112L30.2454 40.4529L36.2 43.0112C36.5716 43.1711 37.0032 42.999 37.1631 42.627C37.323 42.2554 37.1509 41.8237 36.7788 41.6639L30.9015 39.1383C30.9445 36.3786 31.1161 24.3086 30.8913 20.0451C30.8047 18.4069 30.2904 17.256 29.6329 16.4411C28.0626 14.4953 25.6133 14.4484 25.6133 14.4484C25.2085 14.4401 24.8736 14.7618 24.8653 15.1666C24.857 15.5714 25.1787 15.9062 25.5835 15.9146C25.5835 15.9146 27.3547 15.9532 28.4913 17.3621C28.9934 17.9845 29.3606 18.8718 29.4266 20.1223C29.6529 24.4118 29.4745 36.6436 29.4334 39.2053Z" fill="white"/>
<path d="M25.5215 33.7676C25.7232 33.7527 25.9259 33.7802 26.1163 33.8484C26.3067 33.9166 26.4807 34.024 26.627 34.1637C26.7734 34.3034 26.8887 34.4722 26.9657 34.6592C27.0427 34.8463 27.0796 35.0474 27.074 35.2496L26.6508 49.6394C26.6508 49.6394 26.6089 51.7317 23.8889 51.3552C22.3021 51.1354 20.6301 50.2749 19.5121 49.596C19.0934 49.3407 18.7475 48.9818 18.508 48.5538C18.2684 48.1259 18.1432 47.6434 18.1445 47.153C18.1479 44.7214 18.5041 39.962 20.9671 36.5497C21.6683 35.5583 22.6161 34.7671 23.7168 34.2543C24.2851 33.9872 24.896 33.8225 25.5215 33.7676Z" fill="#F74F73"/>
<path d="M25.5215 33.7676C25.7232 33.7527 25.9259 33.7802 26.1163 33.8484C26.3067 33.9166 26.4807 34.024 26.627 34.1637C26.7734 34.3034 26.8887 34.4722 26.9657 34.6592C27.0427 34.8463 27.0796 35.0474 27.074 35.2496L26.6508 49.6394C26.6508 49.6394 26.6089 51.7317 23.8889 51.3552C22.3021 51.1354 20.6301 50.2749 19.5121 49.596C19.0934 49.3407 18.7475 48.9818 18.508 48.5538C18.2684 48.1259 18.1432 47.6434 18.1445 47.153C18.1479 44.7214 18.5041 39.962 20.9671 36.5497C21.6683 35.5583 22.6161 34.7671 23.7168 34.2543C24.2851 33.9872 24.896 33.8225 25.5215 33.7676Z" fill="url(#paint0_linear_764_50335)"/>
<path d="M34.9676 33.7677C34.7658 33.7526 34.5631 33.7801 34.3726 33.8483C34.1822 33.9165 34.0081 34.0239 33.8617 34.1635C33.7154 34.3032 33.5999 34.4721 33.5229 34.6591C33.4459 34.8462 33.409 35.0474 33.4146 35.2496L33.8379 49.6395C33.8379 49.6395 33.8797 51.7317 36.5998 51.3552C38.1865 51.1354 39.8587 50.275 40.9767 49.596C41.3954 49.3408 41.7413 48.9818 41.9808 48.5539C42.2203 48.1259 42.3454 47.6435 42.3441 47.153C42.3407 44.7214 41.9845 39.962 39.5215 36.5498C38.8203 35.5584 37.8725 34.7672 36.7718 34.2543C36.2037 33.9873 35.5929 33.8225 34.9676 33.7677Z" fill="#F74F73"/>
<path d="M34.9676 33.7677C34.7658 33.7526 34.5631 33.7801 34.3726 33.8483C34.1822 33.9165 34.0081 34.0239 33.8617 34.1635C33.7154 34.3032 33.5999 34.4721 33.5229 34.6591C33.4459 34.8462 33.409 35.0474 33.4146 35.2496L33.8379 49.6395C33.8379 49.6395 33.8797 51.7317 36.5998 51.3552C38.1865 51.1354 39.8587 50.275 40.9767 49.596C41.3954 49.3408 41.7413 48.9818 41.9808 48.5539C42.2203 48.1259 42.3454 47.6435 42.3441 47.153C42.3407 44.7214 41.9845 39.962 39.5215 36.5498C38.8203 35.5584 37.8725 34.7672 36.7718 34.2543C36.2037 33.9873 35.5929 33.8225 34.9676 33.7677Z" fill="url(#paint1_linear_764_50335)"/>
<g style="mix-blend-mode:multiply" opacity="0.6">
<path d="M37.5125 46.1657C37.5266 46.4121 37.6278 46.6455 37.798 46.8243C37.8839 46.9118 37.9907 46.976 38.1083 47.0107C38.2259 47.0455 38.3504 47.0497 38.4701 47.0229C38.5676 46.9936 38.658 46.9444 38.7356 46.8784C38.8131 46.8124 38.8761 46.7311 38.9207 46.6395C39.0086 46.4552 39.0471 46.2512 39.0324 46.0475C39.0299 45.8243 38.9414 45.6107 38.7853 45.4512C38.6291 45.2917 38.4175 45.1986 38.1944 45.1914C37.7243 45.1896 37.4807 45.7707 37.5125 46.1657Z" fill="url(#paint2_radial_764_50335)"/>
</g>
<g style="mix-blend-mode:multiply" opacity="0.6">
<path d="M37.7928 38.4817C37.8449 38.4583 37.8906 38.4226 37.9257 38.3776C37.9609 38.3325 37.9845 38.2796 37.9945 38.2234C38.0046 38.1672 38.0008 38.1093 37.9834 38.0549C37.9661 38.0005 37.9357 37.9511 37.8949 37.9111C37.8542 37.8711 37.8043 37.8417 37.7496 37.8253C37.6948 37.8089 37.6369 37.8062 37.5809 37.8173C37.5249 37.8284 37.4724 37.853 37.428 37.889C37.3837 37.9249 37.3487 37.9712 37.3263 38.0237C37.1692 38.3983 36.5094 38.0974 36.6536 37.7553C36.6756 37.702 36.6841 37.6441 36.6784 37.5867C36.6727 37.5293 36.6529 37.4742 36.6208 37.4263C36.5888 37.3784 36.5454 37.3391 36.4945 37.3119C36.4437 37.2847 36.3869 37.2705 36.3292 37.2705C36.2716 37.2705 36.2148 37.2847 36.1639 37.3118C36.1131 37.339 36.0697 37.3783 36.0376 37.4262C36.0055 37.4741 35.9857 37.5291 35.98 37.5865C35.9742 37.6439 35.9827 37.7018 36.0047 37.7551C36.1472 38.0955 35.4969 38.3958 35.3342 38.0293C35.311 37.9774 35.2754 37.9319 35.2307 37.8968C35.186 37.8617 35.1334 37.838 35.0775 37.8277C35.0215 37.8174 34.9639 37.8209 34.9097 37.8378C34.8554 37.8547 34.806 37.8845 34.7658 37.9247C34.7256 37.965 34.6958 38.0143 34.6789 38.0686C34.662 38.1229 34.6585 38.1805 34.6688 38.2365C34.6791 38.2924 34.7029 38.345 34.738 38.3897C34.7731 38.4344 34.8186 38.4699 34.8705 38.4932C35.2358 38.655 34.9389 39.3006 34.6016 39.1658C34.5482 39.1449 34.4904 39.1375 34.4334 39.1441C34.3764 39.1508 34.3218 39.1713 34.2746 39.2039C34.2274 39.2365 34.1888 39.2802 34.1624 39.3312C34.136 39.3821 34.1225 39.4388 34.1231 39.4962C34.1236 39.5536 34.1383 39.61 34.1657 39.6604C34.1932 39.7108 34.2326 39.7538 34.2804 39.7854C34.3283 39.8171 34.3832 39.8365 34.4404 39.842C34.4975 39.8475 34.5551 39.8389 34.6082 39.8169C34.9535 39.6716 35.2183 40.3385 34.88 40.4885C34.828 40.5122 34.7826 40.5481 34.7477 40.5933C34.7128 40.6384 34.6895 40.6914 34.6797 40.7476C34.6698 40.8038 34.6739 40.8616 34.6915 40.9159C34.709 40.9702 34.7396 41.0194 34.7805 41.0592C34.8213 41.099 34.8713 41.1283 34.9261 41.1444C34.9808 41.1606 35.0386 41.1631 35.0946 41.1518C35.1505 41.1406 35.2029 41.1158 35.2471 41.0797C35.2913 41.0437 35.3261 40.9973 35.3483 40.9448C35.5018 40.5764 36.1434 40.8862 36.0159 41.2273C35.9963 41.281 35.99 41.3386 35.9977 41.3952C36.0054 41.4519 36.0268 41.5058 36.0601 41.5522C36.0934 41.5987 36.1375 41.6363 36.1886 41.6618C36.2398 41.6873 36.2964 41.7 36.3535 41.6987C36.4106 41.6973 36.4666 41.6821 36.5164 41.6542C36.5663 41.6263 36.6087 41.5867 36.6397 41.5387C36.6708 41.4907 36.6897 41.4359 36.6947 41.379C36.6998 41.3221 36.6909 41.2648 36.6687 41.2121C36.5104 40.8413 37.1913 40.6062 37.3413 40.9422C37.3652 40.9944 37.4014 41.0399 37.4468 41.0748C37.4923 41.1097 37.5456 41.1329 37.6021 41.1424C37.6587 41.1519 37.7166 41.1475 37.771 41.1294C37.8254 41.1114 37.8746 41.0803 37.9142 41.0388C37.9538 40.9974 37.9826 40.9469 37.9982 40.8917C38.0137 40.8366 38.0156 40.7784 38.0035 40.7224C37.9914 40.6664 37.9657 40.6142 37.9288 40.5703C37.8919 40.5265 37.8448 40.4924 37.7916 40.471C37.4133 40.3213 37.7285 39.6666 38.0733 39.8036C38.1268 39.8244 38.1846 39.8318 38.2416 39.825C38.2987 39.8183 38.3532 39.7977 38.4004 39.7649C38.4476 39.7322 38.486 39.6884 38.5123 39.6374C38.5386 39.5864 38.552 39.5296 38.5513 39.4722C38.5506 39.4148 38.5358 39.3584 38.5082 39.308C38.4806 39.2577 38.4411 39.2148 38.3931 39.1833C38.3451 39.1518 38.2901 39.1325 38.233 39.1272C38.1758 39.1219 38.1182 39.1307 38.0652 39.1528C37.698 39.3091 37.4309 38.6415 37.7928 38.4817Z" fill="url(#paint3_radial_764_50335)"/>
<path d="M36.3301 39.9385C36.5793 39.9385 36.7813 39.7365 36.7813 39.4873C36.7813 39.2381 36.5793 39.0361 36.3301 39.0361C36.0809 39.0361 35.8789 39.2381 35.8789 39.4873C35.8789 39.7365 36.0809 39.9385 36.3301 39.9385Z" fill="url(#paint4_linear_764_50335)"/>
</g>
<g style="mix-blend-mode:multiply" opacity="0.6">
<path d="M24.5133 36.8304C24.3416 37.024 24.1933 37.2372 24.0716 37.4655C23.994 37.6145 23.954 37.7802 23.9551 37.9482C23.9562 38.1162 23.9982 38.2814 24.0776 38.4294C24.1704 38.603 24.28 38.7669 24.4049 38.919C24.5036 39.0406 24.6282 39.1385 24.7697 39.2056C24.9112 39.2727 25.0659 39.3073 25.2224 39.3068C25.379 39.3063 25.5335 39.2708 25.6745 39.2028C25.8156 39.1348 25.9396 39.0361 26.0375 38.9139C26.2631 38.6218 26.3825 38.2617 26.3761 37.8928C26.4025 37.6957 26.3949 37.4955 26.3535 37.301C26.3126 37.1077 26.2184 36.9297 26.0817 36.787C25.9449 36.6444 25.771 36.5429 25.5796 36.494C25.3881 36.445 25.1868 36.4506 24.9984 36.51C24.81 36.5695 24.6419 36.6805 24.5133 36.8304Z" fill="url(#paint5_radial_764_50335)"/>
</g>
<g style="mix-blend-mode:multiply" opacity="0.6">
<path d="M23.2549 46.3491C23.4865 46.3236 23.7143 46.2709 23.9335 46.1921C24.0752 46.1394 24.2019 46.0529 24.3026 45.9401C24.4033 45.8273 24.4749 45.6917 24.5113 45.5449C24.5541 45.3731 24.5799 45.1974 24.5883 45.0205C24.5958 44.8798 24.5717 44.7392 24.5177 44.609C24.4638 44.4788 24.3814 44.3623 24.2765 44.2681C24.1717 44.1739 24.0471 44.1044 23.9119 44.0647C23.7767 44.0249 23.6343 44.016 23.4952 44.0385C23.1684 44.0972 22.8713 44.2655 22.6529 44.5155C22.5163 44.6312 22.4006 44.7695 22.3109 44.9243C22.2215 45.078 22.1769 45.2536 22.182 45.4314C22.1872 45.6091 22.242 45.7818 22.3402 45.93C22.4384 46.0782 22.5761 46.196 22.7378 46.2701C22.8994 46.3441 23.0785 46.3715 23.2549 46.3491Z" fill="url(#paint6_radial_764_50335)"/>
</g>
<g style="mix-blend-mode:multiply" opacity="0.6">
<path d="M21.5952 42.2842C21.9191 42.2842 22.1817 42.0217 22.1817 41.6978C22.1817 41.3739 21.9191 41.1113 21.5952 41.1113C21.2714 41.1113 21.0088 41.3739 21.0088 41.6978C21.0088 42.0217 21.2714 42.2842 21.5952 42.2842Z" fill="url(#paint7_radial_764_50335)"/>
</g>
</g>
</g>
<defs>
<linearGradient id="paint0_linear_764_50335" x1="19.5599" y1="39.6298" x2="24.0178" y2="43.7435" gradientUnits="userSpaceOnUse">
<stop stop-color="#EF9190"/>
<stop offset="1" stop-color="#E56665"/>
</linearGradient>
<linearGradient id="paint1_linear_764_50335" x1="34.8294" y1="39.6298" x2="39.2873" y2="43.7435" gradientUnits="userSpaceOnUse">
<stop stop-color="#EF9190"/>
<stop offset="1" stop-color="#E56665"/>
</linearGradient>
<radialGradient id="paint2_radial_764_50335" cx="0" cy="0" r="1" gradientUnits="userSpaceOnUse" gradientTransform="translate(37.6346 45.1879) scale(2.41077 2.41076)">
<stop stop-color="#EF5275"/>
<stop offset="1" stop-color="#CF2D75"/>
</radialGradient>
<radialGradient id="paint3_radial_764_50335" cx="0" cy="0" r="1" gradientUnits="userSpaceOnUse" gradientTransform="translate(34.6472 37.6726) scale(5.37103)">
<stop stop-color="#EF5275"/>
<stop offset="1" stop-color="#CF2D75"/>
</radialGradient>
<linearGradient id="paint4_linear_764_50335" x1="35.7616" y1="38.9411" x2="36.737" y2="39.878" gradientUnits="userSpaceOnUse">
<stop stop-color="#F2B4BA"/>
<stop offset="1" stop-color="#F26D8A"/>
</linearGradient>
<radialGradient id="paint5_radial_764_50335" cx="0" cy="0" r="1" gradientUnits="userSpaceOnUse" gradientTransform="translate(24.2435 36.7194) scale(2.9551 3.45177)">
<stop stop-color="#EF5275"/>
<stop offset="1" stop-color="#CF2D75"/>
</radialGradient>
<radialGradient id="paint6_radial_764_50335" cx="0" cy="0" r="1" gradientUnits="userSpaceOnUse" gradientTransform="translate(22.4667 44.238) scale(2.92059 2.82648)">
<stop stop-color="#EF5275"/>
<stop offset="1" stop-color="#CF2D75"/>
</radialGradient>
<radialGradient id="paint7_radial_764_50335" cx="0" cy="0" r="1" gradientUnits="userSpaceOnUse" gradientTransform="translate(21.1476 41.2178) scale(1.4226 1.42262)">
<stop stop-color="#EF5275"/>
<stop offset="1" stop-color="#CF2D75"/>
</radialGradient>
<clipPath id="clip0_764_50335">
<rect width="48.384" height="48.384" fill="white" transform="translate(4.20801 6.60742)"/>
</clipPath>
</defs>
</svg>
