<svg width="25" height="25" viewBox="0 0 25 25" fill="none" xmlns="http://www.w3.org/2000/svg">
<g clip-path="url(#clip0_764_65754)">
<path d="M0.730469 12.9668C0.730469 19.5942 6.10305 24.9668 12.7305 24.9668C19.3579 24.9668 24.7305 19.5942 24.7305 12.9668C24.7305 6.33938 19.3579 0.966797 12.7305 0.966797C6.10305 0.966797 0.730469 6.33938 0.730469 12.9668Z" fill="#E7EAFF"/>
<path d="M18.0029 8.1155V17.8244C18.0029 17.9364 17.9545 18.0437 17.8684 18.1229C17.7823 18.202 17.6655 18.2465 17.5437 18.2465C17.422 18.2465 17.3052 18.202 17.2191 18.1229C17.133 18.0437 17.0846 17.9364 17.0846 17.8244V15.2916H14.3298C14.2081 15.2916 14.0913 15.2472 14.0052 15.168C13.9191 15.0888 13.8707 14.9815 13.8707 14.8695C13.892 13.8584 14.0309 12.8522 14.2851 11.8682C14.8463 9.73171 15.9104 8.29965 17.363 7.72767C17.4328 7.70017 17.5089 7.68903 17.5846 7.69524C17.6602 7.70145 17.733 7.72482 17.7964 7.76325C17.8598 7.80169 17.9119 7.85398 17.9479 7.91546C17.984 7.97693 18.0028 8.04567 18.0029 8.1155ZM12.487 8.04638C12.478 7.99095 12.4571 7.93772 12.4255 7.8898C12.3939 7.84188 12.3522 7.80022 12.3029 7.76726C12.2536 7.7343 12.1977 7.71069 12.1384 7.69782C12.079 7.68494 12.0175 7.68305 11.9574 7.69227C11.8973 7.70148 11.8398 7.72161 11.7882 7.75148C11.7366 7.78135 11.692 7.82036 11.657 7.86624C11.622 7.91212 11.5973 7.96394 11.5843 8.0187C11.5713 8.07345 11.5703 8.13004 11.5814 8.18515L12.0279 10.6483H10.6568V8.1155C10.6568 8.00354 10.6084 7.89617 10.5223 7.81701C10.4362 7.73785 10.3194 7.69337 10.1977 7.69337C10.0759 7.69337 9.9591 7.73785 9.873 7.81701C9.7869 7.89617 9.73852 8.00354 9.73852 8.1155V10.6483H8.36744L8.81395 8.18515C8.825 8.13004 8.82399 8.07345 8.81101 8.0187C8.79802 7.96394 8.7733 7.91212 8.7383 7.86624C8.70329 7.82036 8.6587 7.78135 8.60713 7.75148C8.55555 7.72161 8.49803 7.70148 8.4379 7.69227C8.37778 7.68305 8.31626 7.68494 8.25694 7.69782C8.19761 7.71069 8.14167 7.7343 8.09238 7.76726C8.04308 7.80022 8.00142 7.84188 7.96981 7.8898C7.93821 7.93772 7.91731 7.99095 7.90831 8.04638L7.44918 10.5791C7.44506 10.602 7.44295 10.6251 7.44287 10.6483C7.44379 11.2465 7.67468 11.8252 8.09476 12.2821C8.51484 12.739 9.09705 13.0447 9.73852 13.1451V17.8244C9.73852 17.9364 9.7869 18.0437 9.873 18.1229C9.9591 18.202 10.0759 18.2465 10.1977 18.2465C10.3194 18.2465 10.4362 18.202 10.5223 18.1229C10.6084 18.0437 10.6568 17.9364 10.6568 17.8244V13.1451C11.2983 13.0447 11.8805 12.739 12.3005 12.2821C12.7206 11.8252 12.9515 11.2465 12.9524 10.6483C12.9524 10.6251 12.9502 10.602 12.9461 10.5791L12.487 8.04638Z" fill="#596FE9"/>
</g>
<defs>
<clipPath id="clip0_764_65754">
<rect width="24" height="24" fill="white" transform="translate(0.725586 0.966797)"/>
</clipPath>
</defs>
</svg>
