<svg width="21" height="21" viewBox="0 0 21 21" fill="none" xmlns="http://www.w3.org/2000/svg">
<path fill-rule="evenodd" clip-rule="evenodd" d="M17.8388 13.667C19.8523 10.4088 18.2156 6.39437 16.3226 4.50132C13.0682 1.24696 7.79183 1.24696 4.53745 4.50132C1.28309 7.7557 1.28309 13.032 4.53745 16.2865C6.51111 18.2601 10.4524 19.8237 13.7035 17.8033C13.8835 17.6915 13.9736 17.6355 14.0423 17.6081C14.1733 17.556 14.2738 17.5406 14.4143 17.5514C14.4881 17.557 14.5713 17.5786 14.7379 17.6218C15.7861 17.8935 16.3103 18.0294 16.6878 17.9525C17.3432 17.8191 17.8553 17.307 17.9887 16.6517C18.0655 16.2741 17.9297 15.75 17.658 14.7019C17.6148 14.5353 17.5932 14.452 17.5875 14.3785C17.5767 14.238 17.5917 14.1385 17.6436 14.0075C17.6708 13.939 17.7268 13.8483 17.8388 13.667ZM6.97827 7.98378C6.6331 7.98378 6.35327 8.26361 6.35327 8.60878C6.35327 8.95396 6.6331 9.2338 6.97827 9.2338H13.6449C13.9901 9.2338 14.2699 8.95396 14.2699 8.60878C14.2699 8.26361 13.9901 7.98378 13.6449 7.98378H6.97827ZM6.97827 11.3171C6.6331 11.3171 6.35327 11.597 6.35327 11.9421C6.35327 12.2873 6.6331 12.5671 6.97827 12.5671H13.6449C13.9901 12.5671 14.2699 12.2873 14.2699 11.9421C14.2699 11.597 13.9901 11.3171 13.6449 11.3171H6.97827Z" fill="url(#paint0_linear_757_18029)"/>
<defs>
<linearGradient id="paint0_linear_757_18029" x1="10.4292" y1="2.06055" x2="10.4292" y2="18.7464" gradientUnits="userSpaceOnUse">
<stop stop-color="#793CEA"/>
<stop offset="1" stop-color="#5786EB"/>
</linearGradient>
</defs>
</svg>
