<svg width="21" height="21" viewBox="0 0 21 21" fill="none" xmlns="http://www.w3.org/2000/svg">
<path d="M10.9827 5.52148L3.26519 13.239C2.98081 13.5239 2.80108 13.8966 2.75519 14.2965L2.44769 16.9965C2.42764 17.1864 2.44787 17.3783 2.50706 17.5598C2.56625 17.7414 2.66306 17.9083 2.79117 18.0499C2.91928 18.1915 3.07581 18.3044 3.25054 18.3814C3.42527 18.4583 3.61427 18.4975 3.80519 18.4965H3.96269L6.66269 18.189C7.06102 18.1429 7.43287 17.9662 7.72019 17.6865L15.4377 9.96148L10.9827 5.52148Z" fill="#929AA1"/>
<path d="M18.0476 4.86878L16.0901 2.91128C15.9263 2.74688 15.7317 2.61642 15.5174 2.52741C15.3031 2.4384 15.0734 2.39258 14.8413 2.39258C14.6093 2.39258 14.3795 2.4384 14.1652 2.52741C13.9509 2.61642 13.7563 2.74688 13.5926 2.91128L11.7776 4.72628L16.2326 9.18128L18.0476 7.36628C18.212 7.20253 18.3424 7.00792 18.4315 6.79363C18.5205 6.57934 18.5663 6.34958 18.5663 6.11753C18.5663 5.88549 18.5205 5.65573 18.4315 5.44143C18.3424 5.22714 18.212 5.03254 18.0476 4.86878Z" fill="#929AA1"/>
</svg>
