<svg width="56" height="57" viewBox="0 0 56 57" fill="none" xmlns="http://www.w3.org/2000/svg">
<rect y="0.790039" width="56" height="56" rx="28" fill="#FFE7EA"/>
<g clip-path="url(#clip0_208_13863)">
<g clip-path="url(#clip1_208_13863)">
<path fill-rule="evenodd" clip-rule="evenodd" d="M22.9958 14.1423H32.8909V42.9562C32.8909 45.677 30.6649 47.9031 27.942 47.9031C25.2211 47.9031 22.9951 45.677 22.9951 42.9562V14.1423H22.9958Z" fill="#C8EFFE"/>
<path fill-rule="evenodd" clip-rule="evenodd" d="M32.8909 25.3378V42.9555C32.8909 45.6764 30.6649 47.9024 27.942 47.9024C25.2211 47.9024 22.9951 45.6764 22.9951 42.9555V25.3378L23.5706 25.0737C24.8174 24.4982 26.1197 24.4982 27.3686 25.0737L28.5174 25.6019C29.7642 26.1773 31.0687 26.1773 32.3155 25.6019L32.8909 25.3378Z" fill="#F96A79"/>
<path fill-rule="evenodd" clip-rule="evenodd" d="M28.7774 47.8317C28.5056 47.8769 28.2276 47.9026 27.942 47.9026C25.2211 47.9026 22.9951 45.6766 22.9951 42.9557V25.338L23.5706 25.0739C23.5886 25.0642 23.6081 25.0565 23.6255 25.0482L23.6317 25.0461C23.6692 25.028 23.7068 25.0127 23.7457 24.9967V24.9947C23.7652 24.987 23.7832 24.9808 23.8006 24.9731L23.8048 24.971H23.8069C23.8249 24.9634 23.8423 24.9571 23.8583 24.9516L23.8645 24.9495L23.8666 24.9474C23.8847 24.9418 23.9021 24.9335 23.9181 24.9279L23.9257 24.9259C23.9438 24.9182 23.9611 24.912 23.9792 24.9064L23.9813 24.9043H23.9855C24.0035 24.8987 24.0188 24.8925 24.0348 24.8862L24.0487 24.8821C24.0626 24.8765 24.0786 24.8723 24.0918 24.8661L24.1078 24.8619C24.1238 24.8564 24.1377 24.8522 24.153 24.8459L24.1689 24.8418L24.2065 24.8299L24.2301 24.8223L24.2635 24.8126L24.2968 24.8049L24.3045 24.8028L24.3204 24.7973H24.3225L24.3524 24.7896L24.3802 24.782L24.408 24.7757L24.4261 24.7716L24.4421 24.766L24.4796 24.7584L24.4991 24.7542L24.5289 24.7465L24.547 24.7424L24.5547 24.7403C24.5686 24.7382 24.5845 24.7347 24.5977 24.7326L24.6158 24.7285C24.6339 24.7243 24.6492 24.7208 24.6652 24.7188H24.6672V42.955C24.6645 45.3923 26.4492 47.4314 28.7774 47.8317Z" fill="#E85564"/>
<path fill-rule="evenodd" clip-rule="evenodd" d="M21.3863 12.3201H34.4915C35.0176 12.3201 35.4471 12.7496 35.4471 13.2736V16.5713C35.4471 17.0974 35.0176 17.5269 34.4915 17.5269H21.3863C20.8622 17.5269 20.4327 17.0974 20.4327 16.5713V13.2736C20.4327 12.7496 20.8622 12.3201 21.3863 12.3201Z" fill="#407093"/>
<path fill-rule="evenodd" clip-rule="evenodd" d="M21.3863 12.3201H23.0549C22.5288 12.3201 22.0993 12.7496 22.0993 13.2736V16.5713C22.0993 17.0974 22.5288 17.5269 23.0549 17.5269H21.3863C20.8622 17.5269 20.4327 17.0974 20.4327 16.5713V13.2736C20.4327 12.7496 20.8622 12.3201 21.3863 12.3201Z" fill="#3A6584"/>
<path fill-rule="evenodd" clip-rule="evenodd" d="M24.6638 17.5259V24.7182C24.2954 24.787 23.9313 24.9052 23.5706 25.0727L22.9951 25.3368V17.5259H24.6638Z" fill="#B4D7E5"/>
<path fill-rule="evenodd" clip-rule="evenodd" d="M36.5485 40.7118C39.8027 40.6333 42.3933 37.9165 42.3148 34.6622C42.2363 31.408 39.5168 28.8193 36.2634 28.8978C33.0092 28.9763 30.4204 31.693 30.499 34.9473C30.5775 38.2016 33.2942 40.7903 36.5485 40.7118Z" fill="#EBF5FC"/>
<path fill-rule="evenodd" clip-rule="evenodd" d="M34.6288 37.4922C33.7482 36.6531 33.5879 35.3294 34.1708 34.3167C34.6651 33.4543 35.6936 32.2565 36.3166 31.4082C36.9024 32.127 38.5124 33.8712 38.82 34.6347C39.191 35.5503 39.0194 36.6434 38.2976 37.4037C37.3131 38.4369 35.6611 38.4768 34.6288 37.4922Z" fill="#F96A79"/>
<path fill-rule="evenodd" clip-rule="evenodd" d="M36.2636 28.899C36.4731 28.8939 36.6838 28.8988 36.8894 28.9173C33.9271 29.2988 31.6728 31.8665 31.7464 34.9184C31.82 37.9704 34.1956 40.4263 37.1728 40.6645C36.9683 40.6929 36.759 40.7079 36.5486 40.713C33.2871 40.7917 30.5778 38.2109 30.4991 34.9485C30.4213 31.6861 33.0021 28.9777 36.2636 28.899Z" fill="#D4DDE3"/>
</g>
</g>
<defs>
<clipPath id="clip0_208_13863">
<rect width="38.016" height="38.016" fill="white" transform="translate(8.99219 9.78223)"/>
</clipPath>
<clipPath id="clip1_208_13863">
<rect width="35.583" height="35.583" fill="white" transform="translate(9.52991 12.3191)"/>
</clipPath>
</defs>
</svg>
