<svg width="57" height="57" viewBox="0 0 57 57" fill="none" xmlns="http://www.w3.org/2000/svg">
<rect x="0.855469" y="0.799805" width="56" height="56" rx="28" fill="#FAF2E7"/>
<path d="M31.6588 48.4993C41.2842 48.4993 49.0872 40.6963 49.0872 31.0709C49.0872 21.4455 41.2842 13.6426 31.6588 13.6426C22.0334 13.6426 14.2305 21.4455 14.2305 31.0709C14.2305 40.6963 22.0334 48.4993 31.6588 48.4993Z" fill="url(#paint0_linear_764_73056)"/>
<path d="M31.6589 45.2719C39.5018 45.2719 45.8598 38.9139 45.8598 31.071C45.8598 23.2281 39.5018 16.8701 31.6589 16.8701C23.816 16.8701 17.458 23.2281 17.458 31.071C17.458 38.9139 23.816 45.2719 31.6589 45.2719Z" fill="url(#paint1_linear_764_73056)"/>
<path d="M17.457 31.0693H20.1381C20.407 31.0694 20.6716 31.1365 20.9079 31.2648C21.1442 31.3931 21.3447 31.5784 21.4913 31.8038C21.6378 32.0293 21.7256 32.2878 21.7468 32.5558C21.7681 32.8239 21.722 33.093 21.6128 33.3387L21.0479 34.6099C20.9387 34.8557 20.8926 35.1248 20.9138 35.3928C20.9351 35.6608 21.0229 35.9193 21.1694 36.1448C21.3159 36.3703 21.5165 36.5556 21.7528 36.6838C21.9891 36.8121 22.2537 36.8793 22.5226 36.8793H40.7958C41.0646 36.8793 41.3293 36.8121 41.5656 36.6838C41.8019 36.5556 42.0024 36.3703 42.1489 36.1448C42.2954 35.9193 42.3833 35.6608 42.4045 35.3928C42.4257 35.1248 42.3797 34.8557 42.2704 34.6099L41.7056 33.3387C41.5964 33.093 41.5503 32.8239 41.5715 32.5558C41.5927 32.2878 41.6806 32.0293 41.8271 31.8038C41.9736 31.5784 42.1741 31.3931 42.4104 31.2648C42.6468 31.1365 42.9114 31.0694 43.1803 31.0693H45.8613" stroke="#F78F18"/>
<path d="M41.7056 33.3387L42.2704 34.6099C42.3797 34.8557 42.4257 35.1248 42.4045 35.3928C42.3833 35.6608 42.2954 35.9193 42.1489 36.1448C42.0024 36.3703 41.8019 36.5556 41.5656 36.6838C41.3293 36.8121 41.0646 36.8793 40.7958 36.8793H22.5226C22.2537 36.8793 21.9891 36.8121 21.7528 36.6838C21.5165 36.5556 21.3159 36.3703 21.1694 36.1448C21.0229 35.9193 20.9351 35.6608 20.9138 35.3928C20.8926 35.1248 20.9387 34.8557 21.0479 34.6099L21.6128 33.3387C21.722 33.093 21.7681 32.8239 21.7468 32.5558C21.7256 32.2878 21.6378 32.0293 21.4913 31.8038C21.3447 31.5784 21.1442 31.3931 20.9079 31.2648C20.6716 31.1365 20.407 31.0694 20.1381 31.0693H17.457C17.457 38.9004 23.8281 45.2715 31.6592 45.2715C39.4902 45.2715 45.8613 38.9004 45.8613 31.0693H43.1803C42.9114 31.0694 42.6468 31.1365 42.4104 31.2648C42.1741 31.3931 41.9736 31.5784 41.8271 31.8038C41.6806 32.0293 41.5927 32.2878 41.5715 32.5558C41.5503 32.8239 41.5964 33.093 41.7056 33.3387Z" fill="#FDBF44"/>
<path d="M41.7056 33.3387L42.2704 34.6099C42.3797 34.8557 42.4257 35.1248 42.4045 35.3928C42.3833 35.6608 42.2954 35.9193 42.1489 36.1448C42.0024 36.3703 41.8019 36.5556 41.5656 36.6838C41.3293 36.8121 41.0646 36.8793 40.7958 36.8793H22.5226C22.2537 36.8793 21.9891 36.8121 21.7528 36.6838C21.5165 36.5556 21.3159 36.3703 21.1694 36.1448C21.0229 35.9193 20.9351 35.6608 20.9138 35.3928C20.8926 35.1248 20.9387 34.8557 21.0479 34.6099L21.6128 33.3387C21.722 33.093 21.7681 32.8239 21.7468 32.5558C21.7256 32.2878 21.6378 32.0293 21.4913 31.8038C21.3447 31.5784 21.1442 31.3931 20.9079 31.2648C20.6716 31.1365 20.407 31.0694 20.1381 31.0693H17.457C17.457 38.9004 23.8281 45.2715 31.6592 45.2715C39.4902 45.2715 45.8613 38.9004 45.8613 31.0693H43.1803C42.9114 31.0694 42.6468 31.1365 42.4104 31.2648C42.1741 31.3931 41.9736 31.5784 41.8271 31.8038C41.6806 32.0293 41.5927 32.2878 41.5715 32.5558C41.5503 32.8239 41.5964 33.093 41.7056 33.3387Z" fill="#FFB625"/>
<path d="M31.6599 43.3354C38.4333 43.3354 43.9243 37.8445 43.9243 31.071C43.9243 24.2976 38.4333 18.8066 31.6599 18.8066C24.8865 18.8066 19.3955 24.2976 19.3955 31.071C19.3955 37.8445 24.8865 43.3354 31.6599 43.3354Z" fill="#FFF3F2"/>
<path opacity="0.5" d="M17.457 31.0693H20.1381C20.407 31.0694 20.6716 31.1365 20.9079 31.2648C21.1442 31.3931 21.3447 31.5784 21.4913 31.8038C21.6378 32.0293 21.7256 32.2878 21.7468 32.5558C21.7681 32.8239 21.722 33.093 21.6128 33.3387L21.0479 34.6099C20.9387 34.8557 20.8926 35.1248 20.9138 35.3928C20.9351 35.6608 21.0229 35.9193 21.1694 36.1448C21.3159 36.3703 21.5165 36.5556 21.7528 36.6838C21.9891 36.8121 22.2537 36.8793 22.5226 36.8793H40.7958C41.0646 36.8793 41.3293 36.8121 41.5656 36.6838C41.8019 36.5556 42.0024 36.3703 42.1489 36.1448C42.2954 35.9193 42.3833 35.6608 42.4045 35.3928C42.4257 35.1248 42.3797 34.8557 42.2704 34.6099L41.7056 33.3387C41.5964 33.093 41.5503 32.8239 41.5715 32.5558C41.5927 32.2878 41.6806 32.0293 41.8271 31.8038C41.9736 31.5784 42.1741 31.3931 42.4104 31.2648C42.6468 31.1365 42.9114 31.0694 43.1803 31.0693H45.8613" stroke="#F78F18"/>
<g opacity="0.3">
<path d="M41.7056 33.3387L42.2704 34.6099C42.3797 34.8557 42.4257 35.1248 42.4045 35.3928C42.3833 35.6608 42.2954 35.9193 42.1489 36.1448C42.0024 36.3703 41.8019 36.5556 41.5656 36.6838C41.3293 36.8121 41.0646 36.8793 40.7958 36.8793H22.5226C22.2537 36.8793 21.9891 36.8121 21.7528 36.6838C21.5165 36.5556 21.3159 36.3703 21.1694 36.1448C21.0229 35.9193 20.9351 35.6608 20.9138 35.3928C20.8926 35.1248 20.9387 34.8557 21.0479 34.6099L21.6128 33.3387C21.722 33.093 21.7681 32.8239 21.7468 32.5558C21.7256 32.2878 21.6378 32.0293 21.4913 31.8038C21.3447 31.5784 21.1442 31.3931 20.9079 31.2648C20.6716 31.1365 20.407 31.0694 20.1381 31.0693H17.457C17.457 38.9004 23.8281 45.2715 31.6592 45.2715C39.4902 45.2715 45.8613 38.9004 45.8613 31.0693H43.1803C42.9114 31.0694 42.6468 31.1365 42.4104 31.2648C42.1741 31.3931 41.9736 31.5784 41.8271 31.8038C41.6806 32.0293 41.5927 32.2878 41.5715 32.5558C41.5503 32.8239 41.5964 33.093 41.7056 33.3387Z" fill="#FDBF44"/>
<path d="M41.7056 33.3387L42.2704 34.6099C42.3797 34.8557 42.4257 35.1248 42.4045 35.3928C42.3833 35.6608 42.2954 35.9193 42.1489 36.1448C42.0024 36.3703 41.8019 36.5556 41.5656 36.6838C41.3293 36.8121 41.0646 36.8793 40.7958 36.8793H22.5226C22.2537 36.8793 21.9891 36.8121 21.7528 36.6838C21.5165 36.5556 21.3159 36.3703 21.1694 36.1448C21.0229 35.9193 20.9351 35.6608 20.9138 35.3928C20.8926 35.1248 20.9387 34.8557 21.0479 34.6099L21.6128 33.3387C21.722 33.093 21.7681 32.8239 21.7468 32.5558C21.7256 32.2878 21.6378 32.0293 21.4913 31.8038C21.3447 31.5784 21.1442 31.3931 20.9079 31.2648C20.6716 31.1365 20.407 31.0694 20.1381 31.0693H17.457C17.457 38.9004 23.8281 45.2715 31.6592 45.2715C39.4902 45.2715 45.8613 38.9004 45.8613 31.0693H43.1803C42.9114 31.0694 42.6468 31.1365 42.4104 31.2648C42.1741 31.3931 41.9736 31.5784 41.8271 31.8038C41.6806 32.0293 41.5927 32.2878 41.5715 32.5558C41.5503 32.8239 41.5964 33.093 41.7056 33.3387Z" fill="#FFB625"/>
</g>
<path d="M26.4954 25.2615L22.0154 23.9175C20.3116 25.0179 18.2665 25.4631 16.2595 25.1705C14.2524 24.8779 12.4195 23.8675 11.1007 22.3265C9.78183 20.7856 9.06651 18.8187 9.08736 16.7905C9.1082 14.7623 9.8638 12.8105 11.214 11.297C12.5643 9.78349 14.4175 8.81093 16.4302 8.55969C18.4428 8.30844 20.4783 8.79555 22.1592 9.93069C23.8401 11.0658 25.0523 12.772 25.5711 14.7328C26.0899 16.6936 25.8801 18.776 24.9805 20.5939C25.5502 22.154 26.4954 24.8106 26.4954 25.2615Z" fill="url(#paint2_linear_764_73056)"/>
<path d="M26.4954 25.2615L22.0154 23.9175C20.3116 25.0179 18.2665 25.4631 16.2595 25.1705C14.2524 24.8779 12.4195 23.8675 11.1007 22.3265C9.78183 20.7856 9.06651 18.8187 9.08736 16.7905C9.1082 14.7623 9.8638 12.8105 11.214 11.297C12.5643 9.78349 14.4175 8.81093 16.4302 8.55969C18.4428 8.30844 20.4783 8.79555 22.1592 9.93069C23.8401 11.0658 25.0523 12.772 25.5711 14.7328C26.0899 16.6936 25.8801 18.776 24.9805 20.5939C25.5502 22.154 26.4954 24.8106 26.4954 25.2615Z" fill="url(#paint3_linear_764_73056)"/>
<path d="M19.7204 12.8057L17.4576 15.0684L15.1949 12.8057L13.3848 14.6158L15.6475 16.8786L13.3848 19.1413L15.1949 20.9515L17.4576 18.6888L19.7204 20.9515L21.5306 19.1413L19.2679 16.8786L21.5306 14.6158L19.7204 12.8057Z" fill="#FFFDFA"/>
<path d="M39.405 33.6521C39.405 38.0272 35.937 41.398 31.659 41.398C27.3811 41.398 23.9131 38.0272 23.9131 33.6521C23.9131 29.2769 31.659 20.7422 31.659 20.7422C31.659 20.7422 39.405 29.2769 39.405 33.6521Z" fill="white"/>
<path d="M39.405 33.6521C39.405 38.0272 35.937 41.398 31.659 41.398C27.3811 41.398 23.9131 38.0272 23.9131 33.6521C23.9131 29.2769 31.659 20.7422 31.659 20.7422C31.659 20.7422 39.405 29.2769 39.405 33.6521Z" fill="url(#paint4_linear_764_73056)"/>
<defs>
<linearGradient id="paint0_linear_764_73056" x1="31.6588" y1="13.6426" x2="31.6588" y2="48.4993" gradientUnits="userSpaceOnUse">
<stop stop-color="#F1606B"/>
<stop offset="1" stop-color="#EB5B66"/>
</linearGradient>
<linearGradient id="paint1_linear_764_73056" x1="31.6589" y1="16.8701" x2="31.6589" y2="45.2719" gradientUnits="userSpaceOnUse">
<stop stop-color="#FFB6AE"/>
<stop offset="1" stop-color="#F3A49B"/>
</linearGradient>
<linearGradient id="paint2_linear_764_73056" x1="17.7912" y1="8.49512" x2="17.7912" y2="25.2615" gradientUnits="userSpaceOnUse">
<stop stop-color="#FDBF44"/>
<stop offset="1" stop-color="#F19513"/>
</linearGradient>
<linearGradient id="paint3_linear_764_73056" x1="17.7912" y1="8.49512" x2="17.7912" y2="25.2615" gradientUnits="userSpaceOnUse">
<stop stop-color="#FCB832"/>
<stop offset="1" stop-color="#F9A838"/>
</linearGradient>
<linearGradient id="paint4_linear_764_73056" x1="31.659" y1="20.7422" x2="31.659" y2="41.398" gradientUnits="userSpaceOnUse">
<stop stop-color="#FFD376"/>
<stop offset="1" stop-color="#FDAE54"/>
</linearGradient>
</defs>
</svg>
