<svg width="57" height="57" viewBox="0 0 57 57" fill="none" xmlns="http://www.w3.org/2000/svg">
<rect x="0.780273" y="1.02148" width="55.8906" height="55.8906" rx="27.9453" fill="white"/>
<rect x="0.780273" y="1.02148" width="55.8906" height="55.8906" rx="27.9453" stroke="#EFEFF4" stroke-width="0.109375"/>
<g clip-path="url(#clip0_764_65428)">
<path d="M24.536 41.5206C24.6598 41.6595 24.8115 41.7707 24.9812 41.8468C25.1509 41.9229 25.3349 41.9623 25.5209 41.9623C25.7069 41.9623 25.8908 41.9229 26.0605 41.8468C26.2303 41.7707 26.382 41.6595 26.5057 41.5206L38.1906 28.8689C41.2379 25.5696 41.2379 20.2202 38.1906 16.9208C35.1434 13.6214 30.2027 13.6214 27.1555 16.9208L25.5209 18.6907L23.9555 16.9958C20.9131 13.7018 15.9579 13.6062 12.8931 16.8757C9.8039 20.1713 9.78991 25.5545 12.8511 28.8689L24.536 41.5206Z" fill="url(#paint0_linear_764_65428)"/>
<path d="M23.6976 34.3274H23.6977C23.7061 34.3274 23.7145 34.3272 23.723 34.3269C23.723 34.3269 23.7231 34.3269 23.7232 34.3269L23.7187 34.2115C23.841 34.2069 23.9584 34.1622 24.0528 34.0844C24.1473 34.0065 24.2135 33.8997 24.2412 33.7805L23.6976 34.3274ZM23.6976 34.3274C23.5542 34.3273 23.4146 34.2815 23.299 34.1965C23.1835 34.1116 23.098 33.992 23.0552 33.8551L23.0552 33.8551L20.688 26.2909M23.6976 34.3274L20.688 26.2909M20.688 26.2909L19.6961 30.3038L19.584 30.2761L19.6961 30.3039C19.663 30.4377 19.5896 30.5581 19.4859 30.6489C19.3822 30.7397 19.2531 30.7964 19.1161 30.8115C18.9791 30.8266 18.8407 30.7993 18.7197 30.7332C18.5988 30.6672 18.5009 30.5656 18.4395 30.4422L18.4395 30.4421L16.9744 27.4966H11.2375C11.0589 27.4966 10.8876 27.4256 10.7613 27.2993C10.635 27.1731 10.5641 27.0018 10.5641 26.8232C10.5641 26.6446 10.635 26.4733 10.7613 26.3471C10.8876 26.2208 11.0589 26.1498 11.2375 26.1498H17.3916C17.5169 26.1498 17.6397 26.1848 17.7462 26.2508C17.8527 26.3168 17.9387 26.4112 17.9945 26.5233L18.8287 28.2005L19.958 23.6313C19.9933 23.4886 20.0743 23.3614 20.1886 23.2691C20.3029 23.1767 20.4443 23.1243 20.5912 23.1198C20.7381 23.1153 20.8825 23.159 21.0022 23.2442C21.122 23.3294 21.2105 23.4515 21.2545 23.5917L23.6024 31.0943L25.8761 21.3271C25.9086 21.1872 25.985 21.0615 26.0941 20.9681C26.2032 20.8748 26.3392 20.8188 26.4824 20.8082C26.6256 20.7976 26.7684 20.8331 26.89 20.9095C27.0115 20.9858 27.1056 21.099 27.1583 21.2325L29.3352 26.748H40.509C40.6876 26.748 40.8589 26.819 40.9852 26.9452C41.1115 27.0715 41.1824 27.2428 41.1824 27.4214C41.1824 27.6 41.1114 27.7712 40.9852 27.8975C40.8589 28.0238 40.6876 28.0948 40.509 28.0948H28.8771C28.742 28.0948 28.61 28.0541 28.4983 27.9781C28.3866 27.9021 28.3003 27.7943 28.2507 27.6686M20.688 26.2909L28.2507 27.6686L28.2507 27.6686M28.2507 27.6686L26.6983 23.7352L28.2507 27.6686Z" fill="white" stroke="white" stroke-width="0.231"/>
</g>
<path d="M37.8246 46.0202C43.0386 46.0202 47.2653 41.7934 47.2653 36.5794C47.2653 31.3655 43.0386 27.1387 37.8246 27.1387C32.6106 27.1387 28.3838 31.3655 28.3838 36.5794C28.3838 41.7934 32.6106 46.0202 37.8246 46.0202Z" fill="#8F94AB"/>
<path d="M43.4324 28.9795C44.5916 30.5474 45.2773 32.4865 45.2773 34.5861C45.2773 39.8001 41.0505 44.0268 35.8365 44.0268C33.737 44.0268 31.7979 43.3411 30.23 42.1819C31.9495 44.5077 34.7114 46.0161 37.8258 46.0161C43.0398 46.0161 47.2666 41.7893 47.2666 36.5753C47.2666 33.4609 45.7582 30.699 43.4324 28.9795Z" fill="#8188A9"/>
<path d="M43.4324 28.9795C44.5916 30.5474 45.2773 32.4865 45.2773 34.5861C45.2773 39.8001 41.0505 44.0268 35.8365 44.0268C33.737 44.0268 31.7979 43.3411 30.23 42.1819C31.9495 44.5077 34.7114 46.0161 37.8258 46.0161C43.0398 46.0161 47.2666 41.7893 47.2666 36.5753C47.2666 33.4609 45.7582 30.699 43.4324 28.9795Z" fill="#8188A9"/>
<path d="M37.8239 31.4512C35.1598 31.4512 32.964 33.4944 32.7212 36.0962C32.6957 36.369 32.4643 36.5762 32.1902 36.5762H30.541C30.541 40.592 33.8081 43.8591 37.8239 43.8591C41.8397 43.8591 45.1068 40.592 45.1068 36.5762H43.4575C43.1836 36.5762 42.952 36.369 42.9266 36.0962C42.6838 33.4944 40.4879 31.4512 37.8239 31.4512Z" fill="url(#paint1_linear_764_65428)"/>
<path d="M41.4661 30.6191L40.3867 32.4886C41.7874 33.3005 42.7712 34.7555 42.9284 36.4472C42.9536 36.7191 43.1862 36.9248 43.4593 36.9248H45.1083C45.1084 34.2344 43.6418 31.8801 41.4661 30.6191Z" fill="#EE4D58"/>
<path d="M34.1852 30.6191C32.0096 31.8801 30.543 34.2344 30.543 36.9249H32.192C32.4651 36.9249 32.6976 36.7192 32.7229 36.4473C32.8801 34.7555 33.8638 33.3006 35.2646 32.4887C34.773 31.6372 34.3389 30.8853 34.1852 30.6191Z" fill="#67CA6A"/>
<path d="M40.74 31.8877L39.8765 33.3833C40.997 34.0328 41.784 35.1967 41.9098 36.5501C41.93 36.7677 42.1161 36.9322 42.3345 36.9322H43.6537C43.6538 34.7799 42.4805 32.8965 40.74 31.8877Z" fill="#EE4D58"/>
<path d="M34.9128 31.8867C33.1723 32.8955 31.999 34.7789 31.999 36.9313H33.3182C33.5368 36.9313 33.7228 36.7667 33.743 36.5492C33.8687 35.1958 34.6557 34.0319 35.7763 33.3824C35.383 32.7012 35.0358 32.0997 34.9128 31.8867Z" fill="#67CA6A"/>
<path d="M37.825 29.5596C36.305 29.5596 35.0243 30.1312 34.167 30.6282C34.2899 30.8411 35.3827 32.6966 35.776 33.3778C36.3793 33.028 37.0789 32.8267 37.825 32.8267C38.5712 32.8267 39.2707 33.0281 39.874 33.3778L41.5057 30.6299C40.6482 30.133 39.345 29.5596 37.825 29.5596Z" fill="#FFCA58"/>
<path d="M37.6909 37.1792C37.4982 37.1792 37.312 37.0747 37.2166 36.892C37.0799 36.6303 37.1813 36.3073 37.4429 36.1706L40.3358 34.6595C40.5977 34.5228 40.9205 34.6241 41.0572 34.8859C41.1939 35.1475 41.0925 35.4706 40.8309 35.6072L37.938 37.1183C37.8589 37.1596 37.7743 37.1792 37.6909 37.1792Z" fill="#8188A9"/>
<path d="M38.906 42.1859H36.7482C36.4797 42.1859 36.2622 41.9683 36.2622 41.6999C36.2622 41.4315 36.4797 41.2139 36.7482 41.2139H38.9061C39.1746 41.2139 39.3921 41.4315 39.3921 41.6999C39.3921 41.9683 39.1745 42.1859 38.906 42.1859Z" fill="#D5D8E7"/>
<path d="M39.4426 40.0296H36.2057C35.9373 40.0296 35.7197 39.812 35.7197 39.5436C35.7197 39.2752 35.9373 39.0576 36.2057 39.0576H39.4426C39.711 39.0576 39.9286 39.2752 39.9286 39.5436C39.9286 39.812 39.711 40.0296 39.4426 40.0296Z" fill="#D5D8E7"/>
<path d="M38.6339 36.9335C38.8236 36.4882 38.6165 35.9734 38.1712 35.7837C37.7258 35.5939 37.211 35.8011 37.0213 36.2464C36.8315 36.6917 37.0387 37.2065 37.484 37.3963C37.9294 37.586 38.4442 37.3789 38.6339 36.9335Z" fill="#6A7192"/>
<defs>
<linearGradient id="paint0_linear_764_65428" x1="25.5209" y1="14.4463" x2="25.5209" y2="41.9623" gradientUnits="userSpaceOnUse">
<stop stop-color="#FF8061"/>
<stop offset="1" stop-color="#F36454"/>
</linearGradient>
<linearGradient id="paint1_linear_764_65428" x1="37.8239" y1="31.4512" x2="37.8239" y2="43.8591" gradientUnits="userSpaceOnUse">
<stop stop-color="#E6F7FE"/>
<stop offset="1" stop-color="white"/>
</linearGradient>
<clipPath id="clip0_764_65428">
<rect width="36.96" height="36.96" fill="white" transform="translate(10.2446 11.4824)"/>
</clipPath>
</defs>
</svg>
