<svg width="57" height="57" viewBox="0 0 57 57" fill="none" xmlns="http://www.w3.org/2000/svg">
<rect x="0.230469" y="0.799805" width="56" height="56" rx="28" fill="#FFF1F0"/>
<g clip-path="url(#clip0_1249_98844)">
<g clip-path="url(#clip1_1249_98844)">
<path d="M26.4463 43.5966C35.5126 43.5966 42.8623 36.247 42.8623 27.1806C42.8623 18.1143 35.5126 10.7646 26.4463 10.7646C17.38 10.7646 10.0303 18.1143 10.0303 27.1806C10.0303 36.247 17.38 43.5966 26.4463 43.5966Z" fill="#F45E6A"/>
<path d="M39.6363 27.1831C39.6363 27.3465 39.6268 27.6714 39.6268 27.6714C39.6268 27.6714 33.9334 39.0706 26.4487 39.0706C18.964 39.0706 12.6101 27.6714 12.6101 27.6714C12.6044 27.5093 12.6006 27.3465 12.6006 27.1831C12.6006 19.535 18.8006 13.335 26.4487 13.335C34.0968 13.335 39.6363 19.535 39.6363 27.1831Z" fill="url(#paint0_linear_1249_98844)"/>
<path d="M26.4489 13.333C26.1157 13.333 25.7854 13.3455 25.458 13.3687C32.6436 13.8768 38.3153 19.8663 38.3153 27.1811C38.3153 34.496 32.6435 40.4855 25.458 40.9936C25.7854 41.0167 26.1157 41.0292 26.4489 41.0292C34.0971 41.0292 40.297 34.8292 40.297 27.1811C40.297 19.5331 34.0971 13.333 26.4489 13.333Z" fill="#FC8990"/>
<g filter="url(#filter0_i_1249_98844)">
<path d="M12.6064 27.6711C12.8638 35.0929 18.9605 41.0309 26.4451 41.0309C33.9296 41.0309 40.0264 35.0929 40.2837 27.6711C39.9888 27.6108 39.6835 27.5791 39.3708 27.5791C35.1339 27.5791 34.3144 30.3367 34.1639 31.6426C34.121 32.0157 33.8297 32.3072 33.4593 32.3689C31.8756 32.6321 30.5995 33.805 30.186 35.3325C30.0554 35.815 29.5446 36.0817 29.0766 35.9059C28.4806 35.6819 27.6062 35.4671 26.4451 35.4671C25.1558 35.4671 24.3161 35.6298 23.7751 35.8195C23.3219 35.9785 22.8258 35.7336 22.6909 35.2727C22.1429 33.4006 20.279 32.6824 19.3262 32.4327C18.9986 32.3469 18.758 32.0694 18.7127 31.7338C18.5424 30.4701 17.6962 27.5791 13.5193 27.5791C13.2066 27.5791 12.9013 27.6108 12.6064 27.6711Z" fill="#FFE177"/>
<path d="M12.6064 27.6711C12.8638 35.0929 18.9605 41.0309 26.4451 41.0309C33.9296 41.0309 40.0264 35.0929 40.2837 27.6711C39.9888 27.6108 39.6835 27.5791 39.3708 27.5791C35.1339 27.5791 34.3144 30.3367 34.1639 31.6426C34.121 32.0157 33.8297 32.3072 33.4593 32.3689C31.8756 32.6321 30.5995 33.805 30.186 35.3325C30.0554 35.815 29.5446 36.0817 29.0766 35.9059C28.4806 35.6819 27.6062 35.4671 26.4451 35.4671C25.1558 35.4671 24.3161 35.6298 23.7751 35.8195C23.3219 35.9785 22.8258 35.7336 22.6909 35.2727C22.1429 33.4006 20.279 32.6824 19.3262 32.4327C18.9986 32.3469 18.758 32.0694 18.7127 31.7338C18.5424 30.4701 17.6962 27.5791 13.5193 27.5791C13.2066 27.5791 12.9013 27.6108 12.6064 27.6711Z" fill="url(#paint1_linear_1249_98844)"/>
</g>
<path d="M26.9186 41.0222C34.0173 40.8692 40.1183 34.8742 40.2876 27.6712C39.6641 27.5364 38.9139 27.5695 38.3068 27.6441C38.0742 34.7479 32.4919 40.4979 25.458 40.9953C25.9432 41.0283 26.4323 41.0413 26.9186 41.0222Z" fill="#FFD15B" fill-opacity="0.3" style="mix-blend-mode:multiply"/>
<path d="M20.4385 25.4217C22.7178 25.4217 24.5656 24.1901 24.5656 22.6708C24.5656 21.1515 22.7178 19.9199 20.4385 19.9199C18.1593 19.9199 16.3115 21.1515 16.3115 22.6708C16.3115 24.1901 18.1593 25.4217 20.4385 25.4217Z" fill="url(#paint2_linear_1249_98844)"/>
<path d="M20.4377 23.0286C22.1847 23.0286 23.601 22.3327 23.601 21.4742C23.601 20.6158 22.1847 19.9199 20.4377 19.9199C18.6907 19.9199 17.2744 20.6158 17.2744 21.4742C17.2744 22.3327 18.6907 23.0286 20.4377 23.0286Z" fill="url(#paint3_linear_1249_98844)"/>
<path d="M20.4377 23.0286C22.1847 23.0286 23.601 22.3327 23.601 21.4742C23.601 20.6158 22.1847 19.9199 20.4377 19.9199C18.6907 19.9199 17.2744 20.6158 17.2744 21.4742C17.2744 22.3327 18.6907 23.0286 20.4377 23.0286Z" fill="#845353" fill-opacity="0.1"/>
<path d="M32.4406 22.3194C34.0566 20.7125 34.4983 18.5366 33.4272 17.4594C32.3562 16.3822 30.1778 16.8117 28.5618 18.4186C26.9458 20.0255 26.504 22.2013 27.5751 23.2785C28.6462 24.3557 30.8245 23.9262 32.4406 22.3194Z" fill="url(#paint4_linear_1249_98844)"/>
<path d="M32.4451 22.3206C33.6838 21.0889 34.1973 19.5971 33.5921 18.9885C32.9869 18.3798 31.4922 18.8849 30.2535 20.1166C29.0149 21.3482 28.5013 22.8401 29.1065 23.4487C29.7117 24.0573 31.2065 23.5523 32.4451 22.3206Z" fill="url(#paint5_linear_1249_98844)"/>
<path d="M32.4451 22.3206C33.6838 21.0889 34.1973 19.5971 33.5921 18.9885C32.9869 18.3798 31.4922 18.8849 30.2535 20.1166C29.0149 21.3482 28.5013 22.8401 29.1065 23.4487C29.7117 24.0573 31.2065 23.5523 32.4451 22.3206Z" fill="#845353" fill-opacity="0.1"/>
<path d="M29.1562 32.0907C31.0639 30.8439 31.9368 28.8023 31.1058 27.5307C30.2747 26.2591 28.0545 26.2389 26.1467 27.4857C24.2389 28.7325 23.3661 30.774 24.1971 32.0457C25.0282 33.3173 27.2484 33.3375 29.1562 32.0907Z" fill="url(#paint6_linear_1249_98844)"/>
<path d="M27.8471 30.0904C29.3094 29.1347 30.1141 27.7776 29.6446 27.0591C29.175 26.3406 27.609 26.5328 26.1467 27.4884C24.6844 28.4441 23.8797 29.8012 24.3492 30.5197C24.8188 31.2382 26.3849 31.046 27.8471 30.0904Z" fill="url(#paint7_linear_1249_98844)"/>
<path d="M27.8471 30.0904C29.3094 29.1347 30.1141 27.7776 29.6446 27.0591C29.175 26.3406 27.609 26.5328 26.1467 27.4884C24.6844 28.4441 23.8797 29.8012 24.3492 30.5197C24.8188 31.2382 26.3849 31.046 27.8471 30.0904Z" fill="#845353" fill-opacity="0.1"/>
</g>
<path d="M37.207 26.7949C37.6802 26.3624 38.4028 26.3625 38.876 26.7949L38.9736 26.8945L39.6582 27.6895C40.5181 28.706 41.8429 30.3375 43.0781 32.1338C43.9011 33.3306 44.6976 34.6197 45.292 35.8613C45.8763 37.082 46.3115 38.3515 46.3115 39.4824C46.3115 44.1495 42.6017 47.7528 38.042 47.7529C33.4821 47.7529 29.7715 44.1496 29.7715 39.4824C29.7715 38.3515 30.2067 37.082 30.791 35.8613C31.3854 34.6197 32.1828 33.3307 33.0059 32.1338C34.6527 29.7389 36.4572 27.6359 37.1094 26.8945L37.207 26.7949Z" fill="white"/>
<path d="M37.207 26.7949C37.6802 26.3624 38.4028 26.3625 38.876 26.7949L38.9736 26.8945L39.6582 27.6895C40.5181 28.706 41.8429 30.3375 43.0781 32.1338C43.9011 33.3306 44.6976 34.6197 45.292 35.8613C45.8763 37.082 46.3115 38.3515 46.3115 39.4824C46.3115 44.1495 42.6017 47.7528 38.042 47.7529C33.4821 47.7529 29.7715 44.1496 29.7715 39.4824C29.7715 38.3515 30.2067 37.082 30.791 35.8613C31.3854 34.6197 32.1828 33.3307 33.0059 32.1338C34.6527 29.7389 36.4572 27.6359 37.1094 26.8945L37.207 26.7949Z" fill="url(#paint8_linear_1249_98844)"/>
<path d="M37.207 26.7949C37.6802 26.3624 38.4028 26.3625 38.876 26.7949L38.9736 26.8945L39.6582 27.6895C40.5181 28.706 41.8429 30.3375 43.0781 32.1338C43.9011 33.3306 44.6976 34.6197 45.292 35.8613C45.8763 37.082 46.3115 38.3515 46.3115 39.4824C46.3115 44.1495 42.6017 47.7528 38.042 47.7529C33.4821 47.7529 29.7715 44.1496 29.7715 39.4824C29.7715 38.3515 30.2067 37.082 30.791 35.8613C31.3854 34.6197 32.1828 33.3307 33.0059 32.1338C34.6527 29.7389 36.4572 27.6359 37.1094 26.8945L37.207 26.7949Z" stroke="#FFF1F0" stroke-width="1.82"/>
</g>
<defs>
<filter id="filter0_i_1249_98844" x="12.6064" y="27.5791" width="27.6777" height="13.6249" filterUnits="userSpaceOnUse" color-interpolation-filters="sRGB">
<feFlood flood-opacity="0" result="BackgroundImageFix"/>
<feBlend mode="normal" in="SourceGraphic" in2="BackgroundImageFix" result="shape"/>
<feColorMatrix in="SourceAlpha" type="matrix" values="0 0 0 0 0 0 0 0 0 0 0 0 0 0 0 0 0 0 127 0" result="hardAlpha"/>
<feOffset dy="0.1728"/>
<feGaussianBlur stdDeviation="0.432"/>
<feComposite in2="hardAlpha" operator="arithmetic" k2="-1" k3="1"/>
<feColorMatrix type="matrix" values="0 0 0 0 1 0 0 0 0 1 0 0 0 0 1 0 0 0 0.25 0"/>
<feBlend mode="normal" in2="shape" result="effect1_innerShadow_1249_98844"/>
</filter>
<linearGradient id="paint0_linear_1249_98844" x1="26.1184" y1="13.7552" x2="26.1184" y2="37.1482" gradientUnits="userSpaceOnUse">
<stop stop-color="#FF8C94"/>
<stop offset="1" stop-color="#FFB1B6"/>
</linearGradient>
<linearGradient id="paint1_linear_1249_98844" x1="28.0193" y1="33.2203" x2="26.4451" y2="43.3268" gradientUnits="userSpaceOnUse">
<stop stop-color="#FFDB8D"/>
<stop offset="1" stop-color="#F6A74C"/>
</linearGradient>
<linearGradient id="paint2_linear_1249_98844" x1="20.3553" y1="22.8769" x2="20.4385" y2="25.4217" gradientUnits="userSpaceOnUse">
<stop stop-color="#F8727B"/>
<stop offset="1" stop-color="#FE646F"/>
</linearGradient>
<linearGradient id="paint3_linear_1249_98844" x1="20.4377" y1="19.9199" x2="20.4377" y2="23.0286" gradientUnits="userSpaceOnUse">
<stop stop-color="#E53543"/>
<stop offset="1" stop-color="#F03C4A"/>
</linearGradient>
<linearGradient id="paint4_linear_1249_98844" x1="28.7545" y1="20.7794" x2="31.9659" y2="23.0045" gradientUnits="userSpaceOnUse">
<stop stop-color="#F7505C"/>
<stop offset="1" stop-color="#EC6C75"/>
</linearGradient>
<linearGradient id="paint5_linear_1249_98844" x1="30.2535" y1="20.1166" x2="32.4451" y2="22.3206" gradientUnits="userSpaceOnUse">
<stop stop-color="#E53543"/>
<stop offset="1" stop-color="#F03C4A"/>
</linearGradient>
<linearGradient id="paint6_linear_1249_98844" x1="30.1937" y1="29.1499" x2="28.1573" y2="29.5086" gradientUnits="userSpaceOnUse">
<stop stop-color="#F35F6A"/>
<stop offset="1" stop-color="#FE646F"/>
</linearGradient>
<linearGradient id="paint7_linear_1249_98844" x1="26.1467" y1="27.4884" x2="27.8471" y2="30.0904" gradientUnits="userSpaceOnUse">
<stop stop-color="#E53543"/>
<stop offset="1" stop-color="#F03C4A"/>
</linearGradient>
<linearGradient id="paint8_linear_1249_98844" x1="38.0417" y1="27.2158" x2="38.0417" y2="46.8425" gradientUnits="userSpaceOnUse">
<stop stop-color="#FFD376"/>
<stop offset="1" stop-color="#FDAE54"/>
</linearGradient>
<clipPath id="clip0_1249_98844">
<rect width="37.1589" height="37.1589" fill="white" transform="translate(9.25 9.9873)"/>
</clipPath>
<clipPath id="clip1_1249_98844">
<rect width="32.832" height="32.832" fill="white" transform="translate(10.0322 10.7676)"/>
</clipPath>
</defs>
</svg>
