<svg width="25" height="25" viewBox="0 0 25 25" fill="none" xmlns="http://www.w3.org/2000/svg">
<g clip-path="url(#clip0_764_65693)">
<path d="M0.730469 12.9668C0.730469 19.5942 6.10305 24.9668 12.7305 24.9668C19.3579 24.9668 24.7305 19.5942 24.7305 12.9668C24.7305 6.33938 19.3579 0.966797 12.7305 0.966797C6.10305 0.966797 0.730469 6.33938 0.730469 12.9668Z" fill="#FFEEF3"/>
<path d="M19.7666 12.0058H18.7305C18.5774 11.0443 18.198 10.1574 17.6488 9.40121L18.3834 8.66656C18.7583 8.29164 18.7583 7.68384 18.3834 7.30892C18.0085 6.93401 17.4007 6.93401 17.0258 7.30892L16.2912 8.04358C15.535 7.49446 14.648 7.11507 13.6866 6.96185V5.92582C13.6866 5.39564 13.2567 4.96582 12.7266 4.96582C12.1964 4.96582 11.7666 5.39564 11.7666 5.92582V6.96185C10.8051 7.115 9.91818 7.4944 9.16195 8.04358L8.42736 7.30892C8.05245 6.93401 7.44464 6.93401 7.06973 7.30892C6.69482 7.68384 6.69482 8.29164 7.06973 8.66656L7.80432 9.40121C7.2552 10.1574 6.87581 11.0443 6.72259 12.0058H5.68656C5.15639 12.0058 4.72656 12.4356 4.72656 12.9658C4.72656 13.496 5.15639 13.9258 5.68656 13.9258H6.72259C6.87575 14.8873 7.25514 15.7743 7.80432 16.5304L7.06973 17.2651C6.69482 17.64 6.69482 18.2478 7.06973 18.6227C7.44464 18.9976 8.05245 18.9976 8.42736 18.6227L9.16195 17.8881C9.91811 18.4372 10.8051 18.8166 11.7666 18.9698V20.0058C11.7666 20.536 12.1964 20.9658 12.7266 20.9658C13.2567 20.9658 13.6866 20.536 13.6866 20.0058V18.9698C14.648 18.8166 15.5349 18.4372 16.2912 17.8881L17.0258 18.6227C17.4007 18.9976 18.0085 18.9976 18.3834 18.6227C18.7583 18.2478 18.7583 17.64 18.3834 17.2651L17.6488 16.5304C18.1979 15.7743 18.5773 14.8873 18.7305 13.9258H19.7666C20.2967 13.9258 20.7266 13.496 20.7266 12.9658C20.7266 12.4356 20.2967 12.0058 19.7666 12.0058ZM11.7666 12.3258C11.2364 12.3258 10.8066 11.896 10.8066 11.3658C10.8066 10.8356 11.2364 10.4058 11.7666 10.4058C12.2967 10.4058 12.7266 10.8356 12.7266 11.3658C12.7266 11.896 12.2967 12.3258 11.7666 12.3258ZM13.6866 15.5258C13.1564 15.5258 12.7266 15.096 12.7266 14.5658C12.7266 14.0356 13.1564 13.6058 13.6866 13.6058C14.2167 13.6058 14.6466 14.0356 14.6466 14.5658C14.6466 15.096 14.2167 15.5258 13.6866 15.5258Z" fill="#E9668B"/>
</g>
<defs>
<clipPath id="clip0_764_65693">
<rect width="24" height="24" fill="white" transform="translate(0.725586 0.966797)"/>
</clipPath>
</defs>
</svg>
