<svg width="41" height="41" viewBox="0 0 41 41" fill="none" xmlns="http://www.w3.org/2000/svg">
<rect x="0.5" y="0.445312" width="40" height="40" rx="20" fill="#FBEFEE"/>
<g clip-path="url(#clip0_693_80260)">
<path d="M10.2643 17.3534L14.7827 8.75839C15.2248 7.91753 16.4287 7.91753 16.8708 8.75839L21.3892 17.3534C23.5891 21.538 20.5544 26.5619 15.8268 26.5619C11.0991 26.5619 8.0644 21.538 10.2643 17.3534Z" fill="url(#paint0_linear_693_80260)"/>
<path d="M13.4674 32.5779L13.4673 32.578C13.2902 32.756 13.0568 32.8454 12.8243 32.8454C12.5937 32.8454 12.3617 32.7574 12.1849 32.5816L13.4674 32.5779ZM13.4674 32.5779L18.6206 27.3954C18.6206 27.3954 18.6206 27.3954 18.6206 27.3954M13.4674 32.5779L18.6206 27.3954M12.1813 31.299L12.1812 31.2991C11.8281 31.6542 11.8296 32.2284 12.1848 32.5816L12.1813 31.299ZM12.1813 31.299L17.3345 26.1165C17.3345 26.1165 17.3345 26.1165 17.3345 26.1165C17.6876 25.7613 18.2619 25.7596 18.617 26.1128L12.1813 31.299ZM18.6206 27.3954C18.9738 27.0403 18.9722 26.4661 18.6171 26.1129L18.6206 27.3954Z" fill="#5A4864" stroke="#5A4864" stroke-width="0.786329"/>
<path d="M24.2858 29.1698C29.1 29.1698 33.0026 25.2672 33.0026 20.4531C33.0026 15.6389 29.1 11.7363 24.2858 11.7363C19.4717 11.7363 15.5691 15.6389 15.5691 20.4531C15.5691 25.2672 19.4717 29.1698 24.2858 29.1698Z" fill="#E5DCDF"/>
<path d="M24.2868 27.5736C28.2205 27.5736 31.4095 24.3846 31.4095 20.4508C31.4095 16.5171 28.2205 13.3281 24.2868 13.3281C20.353 13.3281 17.1641 16.5171 17.1641 20.4508C17.1641 24.3846 20.353 27.5736 24.2868 27.5736Z" fill="#FCF5F0"/>
<path d="M24.2835 29.6447C20.0066 29.6449 16.1663 26.6364 15.2812 22.2865C14.7917 19.8812 15.2683 17.4293 16.623 15.3823C17.9777 13.3354 20.0485 11.9387 22.4538 11.4492C24.8587 10.9598 27.3109 11.4362 29.358 12.7909C31.4049 14.1456 32.8017 16.2164 33.2912 18.6218C33.7807 21.027 33.3041 23.479 31.9494 25.5259C30.5947 27.5728 28.5239 28.9696 26.1186 29.4591C25.5031 29.5843 24.8887 29.6447 24.2835 29.6447ZM24.3032 12.2077C23.7513 12.2077 23.1955 12.2633 22.6423 12.3758C20.4845 12.8149 18.6269 14.068 17.4116 15.9043C16.1963 17.7406 15.7688 19.9402 16.2079 22.098C17.0019 26 20.4474 28.6989 24.2838 28.699C24.827 28.6991 25.3776 28.645 25.9301 28.5326C30.3844 27.6261 33.271 23.2647 32.3646 18.8103C31.9255 16.6524 30.6724 14.7948 28.8361 13.5795C27.4705 12.6758 25.904 12.2077 24.3032 12.2077Z" fill="url(#paint1_linear_693_80260)"/>
<path d="M21.3495 20.67C21.0436 19.1666 19.5767 18.1957 18.0732 18.5016C17.8221 18.5527 17.5861 18.6369 17.3681 18.7476C16.9333 20.514 17.1969 22.3795 18.0791 23.9481C18.4324 24.0194 18.8056 24.0227 19.1811 23.9462C20.6847 23.6404 21.6554 22.1736 21.3495 20.67Z" fill="#EB807F"/>
<path d="M18.9318 23.2134C18.7073 23.2134 18.5063 23.0557 18.4597 22.8271C18.4067 22.5661 18.5752 22.3115 18.8362 22.2584C19.1111 22.2026 19.3481 22.0424 19.5034 21.8075C19.6589 21.5727 19.7136 21.292 19.6577 21.0171C19.61 20.7827 19.4881 20.5774 19.3052 20.4234C19.1015 20.2519 19.0754 19.9477 19.247 19.7439C19.4184 19.5402 19.7225 19.5141 19.9265 19.6857C20.2724 19.977 20.5127 20.3815 20.6028 20.8247C20.7101 21.3521 20.6053 21.8901 20.3077 22.3398C20.01 22.7895 19.5557 23.0963 19.0284 23.2035C18.996 23.2102 18.9637 23.2134 18.9318 23.2134Z" fill="#D0424C" fill-opacity="0.8"/>
<path d="M28.8805 22.8663C29.0327 23.6139 29.472 24.2296 30.06 24.6223C30.1163 24.5441 30.1717 24.465 30.2254 24.3839C31.2076 22.8998 31.5613 21.1826 31.3505 19.5459C31.2503 19.5551 31.1497 19.5695 31.0489 19.59C29.5455 19.896 28.5746 21.3628 28.8805 22.8663Z" fill="#EB807F"/>
<path d="M22.4962 13.9321C22.472 13.8131 22.4398 13.6979 22.4015 13.5859C20.7958 14.0255 19.3362 15.0265 18.3453 16.5238C18.2919 16.6046 18.2408 16.6862 18.1912 16.7682C18.792 17.1848 19.5549 17.3657 20.3279 17.2084C21.8314 16.9023 22.8022 15.4355 22.4962 13.9321Z" fill="#EB807F"/>
<path d="M21.4551 15.596C21.7528 15.1463 21.8576 14.6082 21.7503 14.0809C21.7324 13.9931 21.7071 13.9074 21.6777 13.8232C21.376 13.9416 21.0816 14.0806 20.797 14.2401C20.7997 14.2512 20.8029 14.262 20.8052 14.2733C20.8611 14.5482 20.8064 14.8288 20.6509 15.0637C20.4955 15.2986 20.2585 15.4587 19.9837 15.5145C19.7226 15.5676 19.5541 15.8222 19.6072 16.0833C19.6538 16.3119 19.8547 16.4695 20.0793 16.4695C20.1112 16.4695 20.1435 16.4663 20.1759 16.4597C20.7032 16.3524 21.1575 16.0456 21.4551 15.596Z" fill="#D0424C" fill-opacity="0.8"/>
<path d="M25.6585 21.1567C27.1927 21.1567 28.4365 19.913 28.4365 18.3787C28.4365 16.8444 27.1927 15.6006 25.6585 15.6006C24.1242 15.6006 22.8804 16.8444 22.8804 18.3787C22.8804 19.913 24.1242 21.1567 25.6585 21.1567Z" fill="#EB807F"/>
<path d="M25.963 20.3647C25.7386 20.3647 25.5375 20.207 25.491 19.9785C25.4379 19.7175 25.6064 19.4629 25.8674 19.4097C26.1422 19.3539 26.3792 19.1938 26.5346 18.9589C26.6901 18.724 26.7448 18.4434 26.6889 18.1685C26.6412 17.9341 26.5193 17.7289 26.3364 17.5747C26.1326 17.4031 26.1066 17.0989 26.2782 16.8952C26.4497 16.6915 26.754 16.6655 26.9577 16.837C27.3038 17.1285 27.5439 17.533 27.6341 17.9761C27.7413 18.5034 27.6365 19.0415 27.3389 19.4912C27.0413 19.9408 26.5869 20.2476 26.0596 20.3549C26.0272 20.3615 25.995 20.3647 25.963 20.3647Z" fill="#D0424C" fill-opacity="0.8"/>
<path d="M27.7116 26.6963C27.9417 26.1842 28.0199 25.5981 27.8994 25.006C27.5935 23.5025 26.1266 22.5317 24.6231 22.8376C23.1197 23.1435 22.1488 24.6104 22.4548 26.1138C22.5642 26.652 22.823 27.1212 23.1784 27.4887C24.7357 27.7326 26.3344 27.4504 27.7116 26.6963Z" fill="#EB807F"/>
<path d="M27.1538 25.1607C27.0637 24.7176 26.8234 24.313 26.4775 24.0216C26.2737 23.85 25.9695 23.8761 25.798 24.0799C25.6264 24.2836 25.6524 24.5878 25.8562 24.7594C26.0391 24.9135 26.1611 25.1188 26.2087 25.353C26.3244 25.9218 25.9558 26.4787 25.3871 26.5944C25.1261 26.6475 24.9576 26.9021 25.0108 27.1632C25.043 27.3213 25.1499 27.4441 25.2868 27.5055C25.5803 27.4637 25.8711 27.4038 26.1572 27.3259C26.9047 26.9097 27.3333 26.0428 27.1538 25.1607Z" fill="#D0424C" fill-opacity="0.8"/>
</g>
<defs>
<linearGradient id="paint0_linear_693_80260" x1="11.5287" y1="13.3545" x2="16.4926" y2="19.1082" gradientUnits="userSpaceOnUse">
<stop stop-color="#E46362"/>
<stop offset="1" stop-color="#E46362"/>
</linearGradient>
<linearGradient id="paint1_linear_693_80260" x1="29.8187" y1="27.6947" x2="15.6063" y2="9.08318" gradientUnits="userSpaceOnUse">
<stop offset="0.0013" stop-color="#4E3A5A"/>
<stop offset="0.1263" stop-color="#594763"/>
<stop offset="0.3293" stop-color="#65556D"/>
<stop offset="0.5779" stop-color="#6C5E73"/>
<stop offset="1" stop-color="#6E6075"/>
</linearGradient>
<clipPath id="clip0_693_80260">
<rect width="26.6667" height="26.6667" fill="white" transform="translate(7.40112 7.1123)"/>
</clipPath>
</defs>
</svg>
