<svg width="41" height="41" viewBox="0 0 41 41" fill="none" xmlns="http://www.w3.org/2000/svg">
<rect x="0.5" y="0.445312" width="40" height="40" rx="20" fill="#EFF5F2"/>
<g clip-path="url(#clip0_693_80338)">
<mask id="mask0_693_80338" style="mask-type:alpha" maskUnits="userSpaceOnUse" x="8" y="8" width="21" height="26">
<path d="M21.2865 25.4047C20.6306 26.7185 20.3349 28.7294 20.2691 29.5707V32.6879L19.3827 33.4098H15.642L14.6249 31.0144L11.9998 28.8816L10.2936 25.4047L8.22632 14.7046L9.21071 9.62188L19.9079 8.70215L27.783 9.62188C28.3299 11.3161 29.1874 14.7046 28.2424 14.7046C27.2973 14.7046 26.5798 15.4057 26.3392 15.7563C24.9283 18.425 21.9424 24.091 21.2865 25.4047Z" fill="#D9D9D9"/>
</mask>
<g mask="url(#mask0_693_80338)">
<path d="M18.1001 28.1279C17.0991 28.1279 16.2876 28.9394 16.2876 29.9404V32.3145C16.2876 32.7496 16.6403 33.1022 17.0753 33.1022C17.5103 33.1022 17.863 32.7496 17.863 32.3145V31.2629C17.863 31.2001 17.888 31.1398 17.9324 31.0953C17.9769 31.0508 18.0372 31.0259 18.1001 31.0259C18.163 31.0259 18.2233 31.0508 18.2677 31.0953C18.3122 31.1398 18.3372 31.2001 18.3372 31.2629V32.3145C18.3372 32.7496 18.6898 33.1022 19.1249 33.1022C19.5599 33.1022 19.9126 32.7496 19.9126 32.3145V29.9404C19.9126 28.9394 19.1011 28.1279 18.1001 28.1279Z" fill="#C7D4DD"/>
<path d="M23.9767 9.43652H12.2237C11.381 9.43652 10.5729 9.77128 9.97701 10.3671C9.38114 10.963 9.04639 11.7712 9.04639 12.6139V18.3487C9.04639 19.8482 9.47787 21.3161 10.2893 22.5771L10.7411 23.279C11.2631 24.0902 11.5407 25.0345 11.5407 25.9992V26.8276C11.5407 27.1499 11.6041 27.4691 11.7275 27.7669C11.8508 28.0647 12.0316 28.3352 12.2596 28.5632C12.4875 28.7911 12.7581 28.9719 13.0559 29.0952C13.3536 29.2186 13.6728 29.2821 13.9951 29.2821H22.2053C22.8562 29.2821 23.4806 29.0235 23.9409 28.5632C24.4012 28.1029 24.6598 27.4786 24.6598 26.8276V25.9992C24.6598 25.0345 24.9373 24.0902 25.4594 23.279L25.9111 22.5771C26.7225 21.3161 27.154 19.8482 27.154 18.3487V12.6139C27.154 11.7712 26.8193 10.963 26.2234 10.3672C25.6276 9.77128 24.8194 9.43653 23.9767 9.43652Z" fill="url(#paint0_linear_693_80338)"/>
<path d="M23.6807 11.793H12.5234C12.3615 11.793 12.2012 11.8249 12.0517 11.8868C11.9021 11.9487 11.7663 12.0395 11.6518 12.154C11.5373 12.2685 11.4465 12.4043 11.3846 12.5539C11.3227 12.7034 11.2908 12.8637 11.2908 13.0256V19.319C11.2908 19.6459 11.4206 19.9595 11.6518 20.1906C11.883 20.4218 12.1965 20.5516 12.5234 20.5516H14.275C14.587 21.5358 16.1811 22.2853 18.102 22.2853C20.0229 22.2853 21.6171 21.5358 21.9291 20.5516H23.6807C24.0076 20.5516 24.3211 20.4218 24.5522 20.1906C24.7834 19.9595 24.9133 19.6459 24.9133 19.319V13.0256C24.9133 12.6987 24.7834 12.3852 24.5522 12.154C24.3211 11.9228 24.0076 11.793 23.6807 11.793Z" fill="url(#paint1_linear_693_80338)"/>
<path d="M22.639 13.2451H13.5591C13.1082 13.2451 12.7427 13.6107 12.7427 14.0616V18.2776C12.7427 18.7286 13.1082 19.0941 13.5591 19.0941H22.639C23.0899 19.0941 23.4555 18.7286 23.4555 18.2776V14.0616C23.4555 13.6107 23.0899 13.2451 22.639 13.2451Z" fill="#6D8175"/>
<path d="M13.8789 26.9592L13.9188 26.9526C14.9239 26.7878 15.8449 26.2913 16.5351 25.5423C16.6309 25.4384 16.6943 25.3089 16.7176 25.1695C16.7409 25.0301 16.7231 24.887 16.6664 24.7575C16.6097 24.6281 16.5165 24.518 16.3982 24.4407C16.2799 24.3634 16.1416 24.3223 16.0003 24.3223H13.5327C13.4004 24.3223 13.2735 24.3748 13.18 24.4683C13.0865 24.5619 13.0339 24.6887 13.0339 24.821V26.2415C13.0339 26.347 13.0569 26.4512 13.1012 26.5469C13.1454 26.6426 13.21 26.7276 13.2904 26.7958C13.3708 26.8641 13.465 26.9141 13.5667 26.9423C13.6683 26.9705 13.7748 26.9762 13.8789 26.9592Z" fill="#FFF5ED"/>
<path d="M22.3199 26.9592L22.28 26.9526C21.2749 26.7878 20.3539 26.2913 19.6636 25.5423C19.5679 25.4384 19.5045 25.3089 19.4812 25.1695C19.4578 25.0301 19.4756 24.887 19.5324 24.7575C19.5891 24.6281 19.6823 24.518 19.8006 24.4407C19.9189 24.3634 20.0571 24.3223 20.1985 24.3223H22.6661C22.7984 24.3223 22.9253 24.3748 23.0188 24.4683C23.1123 24.5619 23.1649 24.6887 23.1649 24.821V26.2415C23.1649 26.347 23.1419 26.4512 23.0976 26.5469C23.0533 26.6426 22.9888 26.7276 22.9084 26.7958C22.828 26.8641 22.7337 26.9141 22.6321 26.9423C22.5305 26.9705 22.424 26.9763 22.3199 26.9592Z" fill="#FFF5ED"/>
</g>
<path d="M22.9192 25.2686L26.7264 18.0266C26.9873 17.5302 27.698 17.5302 27.9589 18.0266L31.7661 25.2686C33.5155 28.5964 31.1022 32.5915 27.3426 32.5915C23.5831 32.5915 21.1698 28.5964 22.9192 25.2686Z" fill="url(#paint2_linear_693_80338)"/>
</g>
<defs>
<linearGradient id="paint0_linear_693_80338" x1="11.8899" y1="14.4963" x2="25.6779" y2="26.4808" gradientUnits="userSpaceOnUse">
<stop offset="0.0056" stop-color="#74D391"/>
<stop offset="0.764423" stop-color="#4CC26F"/>
</linearGradient>
<linearGradient id="paint1_linear_693_80338" x1="18.102" y1="11.793" x2="18.102" y2="22.2853" gradientUnits="userSpaceOnUse">
<stop stop-color="white"/>
<stop offset="1" stop-color="#FFF5ED"/>
</linearGradient>
<linearGradient id="paint2_linear_693_80338" x1="32.3469" y1="30.2561" x2="27.3426" y2="23.3027" gradientUnits="userSpaceOnUse">
<stop offset="0.0288461" stop-color="#E97271"/>
<stop offset="1" stop-color="#ED696C"/>
</linearGradient>
<clipPath id="clip0_693_80338">
<rect width="26.6667" height="26.6667" fill="white" transform="translate(7.16675 7.1123)"/>
</clipPath>
</defs>
</svg>
