<svg width="38" height="38" viewBox="0 0 38 38" fill="none" xmlns="http://www.w3.org/2000/svg">
<path d="M18.6598 22.8801C20.6556 22.8801 22.2736 21.2621 22.2736 19.2662C22.2736 17.2703 20.6556 15.6523 18.6598 15.6523C16.6639 15.6523 15.0459 17.2703 15.0459 19.2662C15.0459 21.2621 16.6639 22.8801 18.6598 22.8801Z" fill="white"/>
<g filter="url(#filter0_i_764_63650)">
<path d="M36.6196 18.6361C33.7083 11.2901 26.5599 6.50772 18.6587 6.6201C10.7576 6.50772 3.60914 11.2901 0.697795 18.6361C0.553209 19.0454 0.553209 19.4919 0.697795 19.901C3.60914 27.2471 10.7576 32.0294 18.6587 31.9172C26.5599 32.0294 33.7083 27.2471 36.6196 19.901C36.7642 19.4917 36.7644 19.0454 36.6196 18.6361ZM18.6627 26.4964H18.6587C14.6669 26.4964 11.431 23.2603 11.431 19.2686C11.431 15.2768 14.6669 12.0409 18.6587 12.0409C22.6505 12.0409 25.8864 15.2768 25.8864 19.2686C25.8876 23.2592 22.6534 26.4953 18.6627 26.4964Z" fill="white"/>
</g>
<circle cx="18.6545" cy="18.7756" r="10.0413" fill="#3A4143"/>
<circle cx="18.6545" cy="18.7756" r="10.0413" fill="#4E8998" fill-opacity="0.4"/>
<path d="M25.1861 17.8181C25.1861 21.4268 22.2607 24.3521 18.6521 24.3521C15.0435 24.3521 12.1182 21.4268 12.1182 17.8181C12.1182 14.2095 15.0435 11.2842 18.6521 11.2842C22.2607 11.2842 25.1861 14.2095 25.1861 17.8181Z" fill="#183239"/>
<path d="M13.414 18.5204C14.6534 18.5204 15.6581 17.5157 15.6581 16.2763C15.6581 15.0369 14.6534 14.0322 13.414 14.0322C12.1746 14.0322 11.1699 15.0369 11.1699 16.2763C11.1699 17.5157 12.1746 18.5204 13.414 18.5204Z" fill="#DEE9FB"/>
<defs>
<filter id="filter0_i_764_63650" x="0.589355" y="6.61816" width="36.1387" height="25.3008" filterUnits="userSpaceOnUse" color-interpolation-filters="sRGB">
<feFlood flood-opacity="0" result="BackgroundImageFix"/>
<feBlend mode="normal" in="SourceGraphic" in2="BackgroundImageFix" result="shape"/>
<feColorMatrix in="SourceAlpha" type="matrix" values="0 0 0 0 0 0 0 0 0 0 0 0 0 0 0 0 0 0 127 0" result="hardAlpha"/>
<feOffset dy="2.464"/>
<feComposite in2="hardAlpha" operator="arithmetic" k2="-1" k3="1"/>
<feColorMatrix type="matrix" values="0 0 0 0 0.777668 0 0 0 0 0.809577 0 0 0 0 0.864691 0 0 0 1 0"/>
<feBlend mode="normal" in2="shape" result="effect1_innerShadow_764_63650"/>
</filter>
</defs>
</svg>
