<?xml version="1.0" encoding="UTF-8"?>
<svg id="_레이어_1" data-name="레이어 1" xmlns="http://www.w3.org/2000/svg" version="1.1" viewBox="0 0 16 16">
  <defs>
    <style>
      .cls-1 {
        fill: #00bf18;
      }

      .cls-1, .cls-2 {
        stroke-width: 0px;
      }

      .cls-2 {
        fill: #fff;
      }
    </style>
  </defs>
  <g>
    <rect class="cls-1" x=".5" y=".5" width="15" height="15" rx="3.5" ry="3.5"/>
    <path class="cls-1" d="M12,1c1.7,0,3,1.3,3,3v8c0,1.7-1.3,3-3,3H4c-1.7,0-3-1.3-3-3V4c0-1.7,1.3-3,3-3h8M12,0H4C1.8,0,0,1.8,0,4v8c0,2.2,1.8,4,4,4h8c2.2,0,4-1.8,4-4V4c0-2.2-1.8-4-4-4h0Z"/>
  </g>
  <path class="cls-2" d="M14.8,3.6c-.4-.4-1-.4-1.3,0l-7.3,7.3-3-3c-.4-.4-1-.4-1.3,0-.4.4-.4,1,0,1.3l3.7,3.7c0,0,.2.2.3.2.3.1.7,0,1-.2l8-8c.4-.4.4-1,0-1.3Z"/>
</svg>