<svg width="56" height="57" viewBox="0 0 56 57" fill="none" xmlns="http://www.w3.org/2000/svg">
<rect y="0.790039" width="56" height="56" rx="28" fill="#F1E0FD"/>
<g clip-path="url(#clip0_208_13960)">
<path fill-rule="evenodd" clip-rule="evenodd" d="M23.2397 31.8844C24.3691 31.6777 25.1682 30.663 25.1057 29.5166C25.0659 28.5322 24.9592 27.1077 24.7896 26.7685C22.425 26.7734 21.4888 26.3033 20.3036 25.3551C20.025 25.1297 19.8822 24.7775 19.9246 24.4217C20.0866 23.4748 20.4 21.5776 20.3831 21.536C20.3831 21.536 19.5233 21.149 18.9648 20.8981C18.8474 20.845 18.7581 20.7437 18.7206 20.62C18.6836 20.4968 18.7014 20.3629 18.7697 20.2535C19.0255 19.8459 19.8643 19.1384 19.8643 18.1652C19.8643 14.3515 23.2843 11.3618 27.1087 11.3618C31.122 11.3618 34.3799 14.6648 34.3799 18.733C34.3799 20.6383 33.355 22.3757 32.1005 23.6846C31.693 24.1074 31.409 24.6337 31.2787 25.2065C31.1354 26.5136 31.2006 28.4023 31.3162 29.7907C31.384 30.8197 32.1336 31.6755 33.1447 31.8777C35.0906 32.2826 36.9964 32.9727 38.4865 33.9611C41.365 35.878 43.0939 39.1074 43.0939 42.5653C43.0988 44.1876 43.0988 52.4319 43.0988 52.4319H12.6346V42.8055C12.6346 39.3091 14.4007 36.0499 17.3291 34.1406C19.0215 33.0366 21.1201 32.2915 23.2397 31.8844Z" fill="#C9A4E3"/>
<path fill-rule="evenodd" clip-rule="evenodd" d="M25.9081 36.3857H22.5453C21.1828 36.3857 19.8757 36.9272 18.9123 37.8906C17.9485 38.8544 17.4075 40.1611 17.4075 41.524V48.6728C17.4075 49.0282 17.5485 49.3688 17.7994 49.6201C18.0508 49.871 18.3914 50.0121 18.7467 50.0121H20.7699C22.1328 50.0121 23.4394 49.471 24.4032 48.5072C25.3666 47.5439 25.9081 46.2368 25.9081 44.8743C25.9081 41.3124 25.9081 36.3857 25.9081 36.3857Z" fill="#8A4CB5"/>
<path fill-rule="evenodd" clip-rule="evenodd" d="M29.8308 36.3857H33.1936C34.5561 36.3857 35.8632 36.9272 36.8266 37.8906C37.7904 38.8544 38.3314 40.1611 38.3314 41.524V48.6728C38.3314 49.0282 38.1904 49.3688 37.9395 49.6201C37.6882 49.871 37.3475 50.0121 36.9922 50.0121C36.4208 50.0121 35.7137 50.0121 34.969 50.0121C33.6061 50.0121 32.2995 49.471 31.3357 48.5072C30.3723 47.5439 29.8308 46.2368 29.8308 44.8743C29.8308 41.3124 29.8308 36.3857 29.8308 36.3857Z" fill="#8A4CB5"/>
<path fill-rule="evenodd" clip-rule="evenodd" d="M27.2046 33.5241V26.2984C27.2046 25.2127 26.7733 24.1722 26.006 23.4043C25.2381 22.6369 24.1975 22.2057 23.1119 22.2057H20.3905C20.3593 22.2057 20.3289 22.2035 20.2986 22.1994C20.3584 21.8195 20.3968 21.5513 20.3905 21.5361L19.7798 21.2615C19.8847 21.0285 20.1191 20.8665 20.3905 20.8665H23.1119C24.5524 20.8665 25.9341 21.4388 26.9528 22.4575C27.9715 23.4762 28.5438 24.8578 28.5438 26.2984V33.5285C30.35 35.5013 31.9482 37.6302 33.2937 39.9493C33.5816 40.1582 34.6039 40.8221 36.0735 40.8944C36.4427 40.9122 36.7275 41.227 36.7092 41.5957C36.6913 41.9649 36.3766 42.2501 36.0079 42.2318C35.3936 42.2019 34.8409 42.0885 34.3624 41.9408C34.62 42.4613 34.8651 42.9907 35.0976 43.53C35.2441 43.8693 35.0878 44.2635 34.7481 44.4099C34.4088 44.5563 34.0146 44.4001 33.8682 44.0604C33.3718 42.9104 32.8156 41.8046 32.204 40.7413C32.2009 40.7355 32.1977 40.7301 32.1946 40.7243C30.9634 38.5846 29.5085 36.6124 27.8688 34.779C25.3082 37.5896 23.3297 40.6926 21.8806 44.0599C21.7342 44.3996 21.34 44.5563 21.0008 44.4103C20.661 44.2644 20.5044 43.8702 20.6503 43.5305C20.9441 42.8483 21.2583 42.1765 21.594 41.5153L19.9923 41.8336C19.6298 41.9055 19.2772 41.6698 19.2053 41.3073C19.133 40.9448 19.3691 40.5917 19.7316 40.5198L22.4199 39.9859C23.7346 37.6918 25.3234 35.5347 27.2046 33.5241Z" fill="white"/>
</g>
<defs>
<clipPath id="clip0_208_13960">
<rect width="32.8561" height="32.8561" fill="white" transform="translate(11.5723 11.3618)"/>
</clipPath>
</defs>
</svg>
