<svg width="57" height="57" viewBox="0 0 57 57" fill="none" xmlns="http://www.w3.org/2000/svg">
<rect x="0.15625" y="0.799805" width="56" height="56" rx="28" fill="#FFF2E2"/>
<path d="M31.3364 12.3494C31.2998 13.0495 31.061 13.7239 30.6489 14.291C30.2368 14.8581 29.6691 15.2935 29.0146 15.5446C28.3601 15.7956 27.6468 15.8514 26.9612 15.7053C26.2755 15.5593 25.647 15.2175 25.1517 14.7214C24.6563 14.2254 24.3154 13.5964 24.1703 12.9105C24.0252 12.2247 24.0821 11.5115 24.334 10.8574C24.586 10.2032 25.0222 9.63611 25.5899 9.22482C26.1576 8.81354 26.8323 8.57568 27.5324 8.54007C28.0387 8.51649 28.5443 8.59893 29.0169 8.78209C29.4894 8.96526 29.9185 9.24512 30.2766 9.60374C30.6347 9.96236 30.914 10.3918 31.0965 10.8646C31.279 11.3375 31.3607 11.8432 31.3364 12.3494Z" fill="#FFA136"/>
<path d="M31.3364 12.3494C31.2998 13.0495 31.061 13.7239 30.6489 14.291C30.2368 14.8581 29.6691 15.2935 29.0146 15.5446C28.3601 15.7956 27.6468 15.8514 26.9612 15.7053C26.2755 15.5593 25.647 15.2175 25.1517 14.7214C24.6563 14.2254 24.3154 13.5964 24.1703 12.9105C24.0252 12.2247 24.0821 11.5115 24.334 10.8574C24.586 10.2032 25.0222 9.63611 25.5899 9.22482C26.1576 8.81354 26.8323 8.57568 27.5324 8.54007C28.0387 8.51649 28.5443 8.59893 29.0169 8.78209C29.4894 8.96526 29.9185 9.24512 30.2766 9.60374C30.6347 9.96236 30.914 10.3918 31.0965 10.8646C31.279 11.3375 31.3607 11.8432 31.3364 12.3494Z" fill="#FFC05A"/>
<path d="M23.7961 17.2928C25.2934 17.2928 25.7953 15.0742 25.9239 14.3233L28.0029 13.3123C28.5286 13.2072 29.7302 12.9845 29.7302 14.6191C29.7302 16.2538 30.8281 17.2231 31.4522 17.2928H23.7961Z" fill="#FFC05A"/>
<path d="M43.9043 26.992C43.3238 27.7341 42.4832 27.7332 41.6206 27.3553C40.4705 26.8506 37.6519 27.0486 35.192 25.3034C34.9736 25.1479 34.7634 24.9813 34.5622 24.8041C35.6922 26.8579 38.143 31.2108 36.1166 38.1022C35.4722 40.2965 34.4499 44.9187 34.3824 46.1619C34.3705 46.3222 34.419 46.481 34.5184 46.6073C34.6566 46.787 34.756 46.9934 34.8105 47.2134C34.8243 47.2577 34.8277 47.3046 34.8205 47.3505C34.8133 47.3963 34.7956 47.4399 34.7689 47.4778C34.7422 47.5158 34.7071 47.5471 34.6663 47.5693C34.6256 47.5915 34.5803 47.604 34.5339 47.6059C33.6275 47.5968 30.5935 47.6105 29.8724 47.615C29.8102 47.6139 29.75 47.593 29.7005 47.5552C29.6511 47.5174 29.6151 47.4648 29.5977 47.4051C29.3074 46.4567 28.5325 44.2059 27.7904 37.2515C27.7876 37.2229 27.7743 37.1964 27.753 37.1772C27.7318 37.1579 27.7041 37.1472 27.6754 37.1472C27.6467 37.1472 27.619 37.1579 27.5977 37.1772C27.5765 37.1964 27.5632 37.2229 27.5604 37.2515C26.8183 44.2059 26.0434 46.4567 25.7531 47.4051C25.7358 47.4647 25.6999 47.5172 25.6506 47.555C25.6014 47.5927 25.5413 47.6138 25.4793 47.615C24.7573 47.6105 21.7232 47.5968 20.8169 47.6059C20.7705 47.604 20.7252 47.5915 20.6844 47.5693C20.6437 47.5471 20.6086 47.5158 20.5818 47.4778C20.5551 47.4399 20.5375 47.3963 20.5303 47.3505C20.5231 47.3046 20.5265 47.2577 20.5403 47.2134C20.5948 46.9934 20.6942 46.787 20.8324 46.6073C20.9321 46.4813 20.9807 46.3222 20.9684 46.1619C20.9008 44.9187 19.8786 40.2965 19.2341 38.1022C17.2096 31.2154 19.6558 26.8633 20.7868 24.8078C18.1991 27.087 14.9816 26.8077 13.7329 27.3553C12.8703 27.7332 12.0297 27.7341 11.4492 26.992C11.3479 26.8641 11.2774 26.7146 11.2429 26.5551C11.2084 26.3956 11.2109 26.2303 11.2502 26.072C11.3305 25.7653 11.5249 25.695 11.5085 25.5015C11.4556 24.8708 11.6427 24.6992 12.1219 24.5915C15.0792 23.927 19.2889 16.5811 27.6763 16.5811C36.0637 16.5811 40.2733 23.927 43.2316 24.5915C43.7108 24.6992 43.8979 24.8708 43.845 25.5015C43.8286 25.695 44.023 25.7653 44.1033 26.072C44.1426 26.2303 44.1451 26.3956 44.1106 26.5551C44.0761 26.7146 44.0056 26.8641 43.9043 26.992Z" fill="#FFA136"/>
<path d="M43.9043 26.992C43.3238 27.7341 42.4832 27.7332 41.6206 27.3553C40.4705 26.8506 37.6519 27.0486 35.192 25.3034C34.9736 25.1479 34.7634 24.9813 34.5622 24.8041C35.6922 26.8579 38.143 31.2108 36.1166 38.1022C35.4722 40.2965 34.4499 44.9187 34.3824 46.1619C34.3705 46.3222 34.419 46.481 34.5184 46.6073C34.6566 46.787 34.756 46.9934 34.8105 47.2134C34.8243 47.2577 34.8277 47.3046 34.8205 47.3505C34.8133 47.3963 34.7956 47.4399 34.7689 47.4778C34.7422 47.5158 34.7071 47.5471 34.6663 47.5693C34.6256 47.5915 34.5803 47.604 34.5339 47.6059C33.6275 47.5968 30.5935 47.6105 29.8724 47.615C29.8102 47.6139 29.75 47.593 29.7005 47.5552C29.6511 47.5174 29.6151 47.4648 29.5977 47.4051C29.3074 46.4567 28.5325 44.2059 27.7904 37.2515C27.7876 37.2229 27.7743 37.1964 27.753 37.1772C27.7318 37.1579 27.7041 37.1472 27.6754 37.1472C27.6467 37.1472 27.619 37.1579 27.5977 37.1772C27.5765 37.1964 27.5632 37.2229 27.5604 37.2515C26.8183 44.2059 26.0434 46.4567 25.7531 47.4051C25.7358 47.4647 25.6999 47.5172 25.6506 47.555C25.6014 47.5927 25.5413 47.6138 25.4793 47.615C24.7573 47.6105 21.7232 47.5968 20.8169 47.6059C20.7705 47.604 20.7252 47.5915 20.6844 47.5693C20.6437 47.5471 20.6086 47.5158 20.5818 47.4778C20.5551 47.4399 20.5375 47.3963 20.5303 47.3505C20.5231 47.3046 20.5265 47.2577 20.5403 47.2134C20.5948 46.9934 20.6942 46.787 20.8324 46.6073C20.9321 46.4813 20.9807 46.3222 20.9684 46.1619C20.9008 44.9187 19.8786 40.2965 19.2341 38.1022C17.2096 31.2154 19.6558 26.8633 20.7868 24.8078C18.1991 27.087 14.9816 26.8077 13.7329 27.3553C12.8703 27.7332 12.0297 27.7341 11.4492 26.992C11.3479 26.8641 11.2774 26.7146 11.2429 26.5551C11.2084 26.3956 11.2109 26.2303 11.2502 26.072C11.3305 25.7653 11.5249 25.695 11.5085 25.5015C11.4556 24.8708 11.6427 24.6992 12.1219 24.5915C15.0792 23.927 19.2889 16.5811 27.6763 16.5811C36.0637 16.5811 40.2733 23.927 43.2316 24.5915C43.7108 24.6992 43.8979 24.8708 43.845 25.5015C43.8286 25.695 44.023 25.7653 44.1033 26.072C44.1426 26.2303 44.1451 26.3956 44.1106 26.5551C44.0761 26.7146 44.0056 26.8641 43.9043 26.992Z" fill="url(#paint0_linear_1241_105289)"/>
<path d="M35.1941 25.2981C34.9757 25.1426 34.7655 24.976 34.5643 24.7988C33.9171 23.5511 33.5931 22.5589 33.3886 21.4864C33.3751 21.4157 33.3757 21.3431 33.3903 21.2727C33.4049 21.2022 33.4332 21.1354 33.4736 21.0759C33.5553 20.9557 33.6813 20.8729 33.824 20.8457C33.9667 20.8184 34.1144 20.849 34.2346 20.9306C34.3547 21.0123 34.4375 21.1383 34.4648 21.281C34.651 22.2595 34.9002 23.8788 35.1941 25.2981Z" fill="#E48244"/>
<path d="M20.1582 25.2981C20.3766 25.1426 20.5868 24.976 20.788 24.7988C21.4352 23.5511 21.7592 22.5589 21.9637 21.4864C21.9771 21.4157 21.9766 21.3431 21.962 21.2727C21.9474 21.2022 21.9191 21.1354 21.8787 21.0759C21.8382 21.0164 21.7865 20.9654 21.7264 20.9259C21.6662 20.8864 21.5989 20.8591 21.5283 20.8456C21.4576 20.8322 21.385 20.8327 21.3145 20.8473C21.2441 20.8619 21.1772 20.8902 21.1177 20.9306C21.0582 20.9711 21.0073 21.0228 20.9678 21.0829C20.9283 21.1431 20.901 21.2104 20.8875 21.281C20.7013 22.2595 20.4521 23.8788 20.1582 25.2981Z" fill="#E48244"/>
<mask id="path-7-outside-1_1241_105289" maskUnits="userSpaceOnUse" x="30.5938" y="29.0273" width="20" height="19" fill="black">
<rect fill="white" x="30.5938" y="29.0273" width="20" height="19"/>
<path d="M40.4023 38.2764C42.1277 38.2765 43.5263 39.675 43.5264 41.4004C43.5264 43.1258 42.1277 44.5243 40.4023 44.5244C38.6768 44.5244 37.2773 43.1259 37.2773 41.4004C37.2774 39.6749 38.6769 38.2764 40.4023 38.2764ZM36.7188 32.0273C38.4441 32.0275 39.8428 33.4269 39.8428 35.1523C39.8426 36.8776 38.444 38.2762 36.7188 38.2764C34.9933 38.2764 33.5939 36.8777 33.5938 35.1523C33.5938 33.4268 34.9932 32.0273 36.7188 32.0273ZM44.1738 32.0273C45.8993 32.0274 47.2979 33.4269 47.2979 35.1523C47.2977 36.8777 45.8992 38.2763 44.1738 38.2764C42.4484 38.2764 41.05 36.8777 41.0498 35.1523C41.0498 33.4268 42.4483 32.0273 44.1738 32.0273Z"/>
</mask>
<path d="M40.4023 38.2764C42.1277 38.2765 43.5263 39.675 43.5264 41.4004C43.5264 43.1258 42.1277 44.5243 40.4023 44.5244C38.6768 44.5244 37.2773 43.1259 37.2773 41.4004C37.2774 39.6749 38.6769 38.2764 40.4023 38.2764ZM36.7188 32.0273C38.4441 32.0275 39.8428 33.4269 39.8428 35.1523C39.8426 36.8776 38.444 38.2762 36.7188 38.2764C34.9933 38.2764 33.5939 36.8777 33.5938 35.1523C33.5938 33.4268 34.9932 32.0273 36.7188 32.0273ZM44.1738 32.0273C45.8993 32.0274 47.2979 33.4269 47.2979 35.1523C47.2977 36.8777 45.8992 38.2763 44.1738 38.2764C42.4484 38.2764 41.05 36.8777 41.0498 35.1523C41.0498 33.4268 42.4483 32.0273 44.1738 32.0273Z" fill="#F9855A"/>
<path d="M40.4023 38.2764C42.1277 38.2765 43.5263 39.675 43.5264 41.4004C43.5264 43.1258 42.1277 44.5243 40.4023 44.5244C38.6768 44.5244 37.2773 43.1259 37.2773 41.4004C37.2774 39.6749 38.6769 38.2764 40.4023 38.2764ZM36.7188 32.0273C38.4441 32.0275 39.8428 33.4269 39.8428 35.1523C39.8426 36.8776 38.444 38.2762 36.7188 38.2764C34.9933 38.2764 33.5939 36.8777 33.5938 35.1523C33.5938 33.4268 34.9932 32.0273 36.7188 32.0273ZM44.1738 32.0273C45.8993 32.0274 47.2979 33.4269 47.2979 35.1523C47.2977 36.8777 45.8992 38.2763 44.1738 38.2764C42.4484 38.2764 41.05 36.8777 41.0498 35.1523C41.0498 33.4268 42.4483 32.0273 44.1738 32.0273Z" fill="url(#paint1_linear_1241_105289)"/>
<path d="M40.4023 38.2764C42.1277 38.2765 43.5263 39.675 43.5264 41.4004C43.5264 43.1258 42.1277 44.5243 40.4023 44.5244C38.6768 44.5244 37.2773 43.1259 37.2773 41.4004C37.2774 39.6749 38.6769 38.2764 40.4023 38.2764ZM36.7188 32.0273C38.4441 32.0275 39.8428 33.4269 39.8428 35.1523C39.8426 36.8776 38.444 38.2762 36.7188 38.2764C34.9933 38.2764 33.5939 36.8777 33.5938 35.1523C33.5938 33.4268 34.9932 32.0273 36.7188 32.0273ZM44.1738 32.0273C45.8993 32.0274 47.2979 33.4269 47.2979 35.1523C47.2977 36.8777 45.8992 38.2763 44.1738 38.2764C42.4484 38.2764 41.05 36.8777 41.0498 35.1523C41.0498 33.4268 42.4483 32.0273 44.1738 32.0273Z" fill="url(#paint2_linear_1241_105289)"/>
<path d="M40.4023 38.2764L40.4026 35.7426H40.4023V38.2764ZM43.5264 41.4004H46.0602V41.4003L43.5264 41.4004ZM40.4023 44.5244V47.0582H40.4026L40.4023 44.5244ZM37.2773 41.4004L34.7435 41.4003V41.4004H37.2773ZM36.7188 32.0273L36.719 29.4935H36.7188V32.0273ZM39.8428 35.1523L42.3766 35.1526V35.1523H39.8428ZM36.7188 38.2764V40.8102H36.719L36.7188 38.2764ZM33.5938 35.1523H31.0599V35.1526L33.5938 35.1523ZM44.1738 32.0273L44.1739 29.4935H44.1738V32.0273ZM47.2979 35.1523L49.8317 35.1526V35.1523H47.2979ZM44.1738 38.2764V40.8102H44.1739L44.1738 38.2764ZM41.0498 35.1523H38.516L38.516 35.1526L41.0498 35.1523ZM40.4023 38.2764L40.4021 40.8102C40.7284 40.8102 40.9925 41.0746 40.9926 41.4005L43.5264 41.4004L46.0602 41.4003C46.0601 38.2755 43.527 35.7428 40.4026 35.7426L40.4023 38.2764ZM43.5264 41.4004H40.9926C40.9926 41.7262 40.7285 41.9906 40.4021 41.9906L40.4023 44.5244L40.4026 47.0582C43.5269 47.0579 46.0602 44.5254 46.0602 41.4004H43.5264ZM40.4023 44.5244V41.9906C40.0752 41.9906 39.8112 41.7255 39.8112 41.4004H37.2773H34.7435C34.7435 44.5263 37.2785 47.0582 40.4023 47.0582V44.5244ZM37.2773 41.4004L39.8112 41.4005C39.8112 41.0753 40.0753 40.8102 40.4023 40.8102V38.2764V35.7426C37.2784 35.7426 34.7436 38.2746 34.7435 41.4003L37.2773 41.4004ZM36.7188 32.0273L36.7185 34.5612C37.0439 34.5612 37.309 34.8255 37.309 35.1523H39.8428H42.3766C42.3766 32.0283 39.8443 29.4938 36.719 29.4935L36.7188 32.0273ZM39.8428 35.1523L37.309 35.1521C37.3089 35.4782 37.0446 35.7425 36.7185 35.7426L36.7188 38.2764L36.719 40.8102C39.8434 40.8099 42.3763 38.277 42.3766 35.1526L39.8428 35.1523ZM36.7188 38.2764V35.7426C36.3919 35.7426 36.1276 35.4775 36.1276 35.1521L33.5938 35.1523L31.0599 35.1526C31.0602 38.2779 33.5948 40.8102 36.7188 40.8102V38.2764ZM33.5938 35.1523H36.1276C36.1276 34.8262 36.3926 34.5612 36.7188 34.5612V32.0273V29.4935C33.5939 29.4935 31.0599 32.0275 31.0599 35.1523H33.5938ZM44.1738 32.0273L44.1737 34.5612C44.4989 34.5612 44.764 34.8253 44.764 35.1523H47.2979H49.8317C49.8317 32.0284 47.2996 29.4936 44.1739 29.4935L44.1738 32.0273ZM47.2979 35.1523L44.764 35.1521C44.764 35.4784 44.4996 35.7425 44.1737 35.7426L44.1738 38.2764L44.1739 40.8102C47.2987 40.8101 49.8314 38.277 49.8317 35.1526L47.2979 35.1523ZM44.1738 38.2764V35.7426C43.848 35.7426 43.5836 35.4785 43.5836 35.1521L41.0498 35.1523L38.516 35.1526C38.5163 38.2769 41.0488 40.8102 44.1738 40.8102V38.2764ZM41.0498 35.1523H43.5836C43.5836 34.8252 43.8487 34.5612 44.1738 34.5612V32.0273V29.4935C41.0479 29.4935 38.516 32.0285 38.516 35.1523H41.0498Z" fill="#FEF7ED" mask="url(#path-7-outside-1_1241_105289)"/>
<defs>
<linearGradient id="paint0_linear_1241_105289" x1="27.6768" y1="16.5811" x2="27.6768" y2="47.615" gradientUnits="userSpaceOnUse">
<stop stop-color="#FFC05A"/>
<stop offset="1" stop-color="#F6A04B"/>
</linearGradient>
<linearGradient id="paint1_linear_1241_105289" x1="40.4028" y1="38.2759" x2="40.4028" y2="44.5246" gradientUnits="userSpaceOnUse">
<stop stop-color="#FF8061"/>
<stop offset="1" stop-color="#F36454"/>
</linearGradient>
<linearGradient id="paint2_linear_1241_105289" x1="40.4458" y1="32.0273" x2="40.4458" y2="44.5244" gradientUnits="userSpaceOnUse">
<stop stop-color="#FF9D64"/>
<stop offset="1" stop-color="#FA7233"/>
</linearGradient>
</defs>
</svg>
