<svg width="57" height="57" viewBox="0 0 57 57" fill="none" xmlns="http://www.w3.org/2000/svg">
<rect x="0.873047" y="0.799805" width="56" height="56" rx="28" fill="#EEF8F6"/>
<path d="M30.3266 21.4455V25.9024C30.3266 26.1004 30.2877 26.2964 30.2119 26.4793C30.1361 26.6622 30.0251 26.8283 29.8851 26.9683C29.7452 27.1083 29.579 27.2193 29.3961 27.2951C29.2132 27.3708 29.0172 27.4098 28.8192 27.4098V19.1911C28.8192 18.6717 28.6129 18.1735 28.2455 17.8061C27.8782 17.4388 27.38 17.2324 26.8605 17.2324H23.612C22.0863 17.2324 20.5756 17.5329 19.1661 18.1168C17.7565 18.7006 16.4758 19.5564 15.3969 20.6352C14.3181 21.714 13.4623 22.9948 12.8785 24.4043C12.2946 25.8139 11.9941 27.3246 11.9941 28.8503V35.6595C11.9941 39.5082 16.3677 41.7248 19.4716 39.4491L32.2099 30.11L44.9482 20.7708C46.475 19.6514 45.6833 17.2324 43.7901 17.2324H34.5398C33.4224 17.2324 32.3507 17.6763 31.5606 18.4664C30.7705 19.2565 30.3266 20.3282 30.3266 21.4455Z" fill="url(#paint0_linear_764_54702)"/>
<path d="M33.7529 26.5914L33.7529 26.5914L33.5436 27.9657L32.7466 27.8966L32.7466 27.897C32.7466 27.8972 32.7466 27.8974 32.7465 27.8976L32.5752 29.8737C29.7128 30.3619 27.5281 32.859 27.5281 35.8588V40.3467C27.5281 43.6954 30.2507 46.4185 33.5996 46.4185H41.1374C44.4855 46.4185 47.2088 43.6954 47.2088 40.3469V35.8589C47.2088 32.5105 44.4862 29.7871 41.1374 29.7871H41.1373L38.137 29.7873L35.3549 26.9587C34.9352 26.5317 34.3091 26.3935 33.7529 26.5914Z" fill="#B0E6DB" stroke="#EEF8F6" stroke-width="1.6"/>
<path fill-rule="evenodd" clip-rule="evenodd" d="M38.7729 42.7759H35.9673C35.5667 42.7759 35.2414 42.4502 35.2414 42.0499V40.2329H33.4242C33.0235 40.2329 32.6982 39.9072 32.6982 39.5069V36.7007C32.6982 36.2999 33.0235 35.9747 33.4242 35.9747H35.2414V34.1576C35.2414 33.7569 35.5667 33.4316 35.9673 33.4316L38.7729 33.4319C39.1737 33.4319 39.4989 33.7575 39.4989 34.1578V35.9749L41.316 35.9747C41.7167 35.9747 42.042 36.3004 42.042 36.7007V39.5069C42.042 39.9077 41.7163 40.2329 41.316 40.2329H39.4989V42.0499C39.4989 42.4501 39.1737 42.7759 38.7729 42.7759Z" fill="url(#paint1_linear_764_54702)"/>
<defs>
<linearGradient id="paint0_linear_764_54702" x1="10.3288" y1="41.4066" x2="11.9941" y2="9.13426" gradientUnits="userSpaceOnUse">
<stop stop-color="#F47659"/>
<stop offset="1" stop-color="#FE9075"/>
</linearGradient>
<linearGradient id="paint1_linear_764_54702" x1="37.3701" y1="33.4316" x2="37.3701" y2="42.7759" gradientUnits="userSpaceOnUse">
<stop stop-color="#13AF90"/>
<stop offset="1" stop-color="#06A282"/>
</linearGradient>
</defs>
</svg>
