<svg width="41" height="41" viewBox="0 0 41 41" fill="none" xmlns="http://www.w3.org/2000/svg">
<rect x="0.5" y="0.445312" width="40" height="40" rx="20" fill="#F2F7F9"/>
<g clip-path="url(#clip0_693_80095)">
<path d="M20.4983 23.0308C21.924 23.0308 23.0797 21.8751 23.0797 20.4495C23.0797 19.0239 21.924 17.8682 20.4983 17.8682C19.0727 17.8682 17.917 19.0239 17.917 20.4495C17.917 21.8751 19.0727 23.0308 20.4983 23.0308Z" fill="white"/>
<g filter="url(#filter0_i_693_80095)">
<path d="M33.3277 19.9974C31.2482 14.7502 26.1422 11.3342 20.4985 11.4145C14.8548 11.3342 9.74878 14.7502 7.66925 19.9974C7.56598 20.2897 7.56598 20.6086 7.66925 20.9008C9.74878 26.148 14.8548 29.564 20.4985 29.4838C26.1422 29.564 31.2482 26.148 33.3277 20.9008C33.431 20.6085 33.4311 20.2897 33.3277 19.9974ZM20.5013 25.6118H20.4985C17.6472 25.6118 15.3358 23.3004 15.3358 20.4491C15.3358 17.5978 17.6472 15.2865 20.4985 15.2865C23.3498 15.2865 25.6611 17.5978 25.6611 20.4491C25.6619 23.2996 23.3518 25.611 20.5013 25.6118Z" fill="white"/>
</g>
<circle cx="20.4956" cy="20.0981" r="7.17233" fill="#3A4143"/>
<circle cx="20.4956" cy="20.0981" r="7.17233" fill="#4E8998" fill-opacity="0.4"/>
<path d="M25.1624 19.4122C25.1624 21.9898 23.0728 24.0794 20.4952 24.0794C17.9177 24.0794 15.8281 21.9898 15.8281 19.4122C15.8281 16.8347 17.9177 14.7451 20.4952 14.7451C23.0728 14.7451 25.1624 16.8347 25.1624 19.4122Z" fill="#183239"/>
<path d="M16.7523 19.9178C17.6376 19.9178 18.3553 19.2001 18.3553 18.3148C18.3553 17.4296 17.6376 16.7119 16.7523 16.7119C15.8671 16.7119 15.1494 17.4296 15.1494 18.3148C15.1494 19.2001 15.8671 19.9178 16.7523 19.9178Z" fill="#DEE9FB"/>
</g>
<defs>
<filter id="filter0_i_693_80095" x="7.5918" y="11.4131" width="25.8135" height="18.0723" filterUnits="userSpaceOnUse" color-interpolation-filters="sRGB">
<feFlood flood-opacity="0" result="BackgroundImageFix"/>
<feBlend mode="normal" in="SourceGraphic" in2="BackgroundImageFix" result="shape"/>
<feColorMatrix in="SourceAlpha" type="matrix" values="0 0 0 0 0 0 0 0 0 0 0 0 0 0 0 0 0 0 127 0" result="hardAlpha"/>
<feOffset dy="1.76"/>
<feComposite in2="hardAlpha" operator="arithmetic" k2="-1" k3="1"/>
<feColorMatrix type="matrix" values="0 0 0 0 0.777668 0 0 0 0 0.809577 0 0 0 0 0.864691 0 0 0 1 0"/>
<feBlend mode="normal" in2="shape" result="effect1_innerShadow_693_80095"/>
</filter>
<clipPath id="clip0_693_80095">
<rect width="26.6667" height="26.6667" fill="white" transform="translate(7.16699 7.1123)"/>
</clipPath>
</defs>
</svg>
