<svg width="41" height="41" viewBox="0 0 41 41" fill="none" xmlns="http://www.w3.org/2000/svg">
<rect x="0.5" y="0.445312" width="40" height="40" rx="20" fill="#EEF0F6"/>
<g clip-path="url(#clip0_693_80404)">
<path d="M7.58154 13.2737C7.58154 10.5461 9.79271 8.33496 12.5203 8.33496H28.4761C31.2037 8.33496 33.4149 10.5461 33.4149 13.2737V27.5991C33.4149 30.3267 31.2037 32.5379 28.4761 32.5379H12.5203C9.79272 32.5379 7.58154 30.3267 7.58154 27.5991V13.2737Z" fill="url(#paint0_linear_693_80404)"/>
<mask id="path-3-outside-1_693_80404" maskUnits="userSpaceOnUse" x="16.8708" y="11.2002" width="7" height="11" fill="black">
<rect fill="white" x="16.8708" y="11.2002" width="7" height="11"/>
<path fill-rule="evenodd" clip-rule="evenodd" d="M20.9136 12.5514C20.9136 12.3575 20.7563 12.2002 20.5623 12.2002H20.5528C20.3534 12.2002 20.1917 12.3618 20.1917 12.5612V19.257C20.1911 19.4333 20.1411 19.606 20.0475 19.7555C19.9539 19.905 19.8203 20.0253 19.6619 20.1029L18.0742 20.8731C18.0316 20.8938 17.9934 20.9227 17.962 20.9581C17.9305 20.9936 17.9063 21.0349 17.8908 21.0796C17.8752 21.1244 17.8687 21.1718 17.8715 21.2191C17.8743 21.2665 17.8864 21.3128 17.9071 21.3554C17.9277 21.3981 17.9566 21.4362 17.9921 21.4677C18.0275 21.4992 18.0688 21.5234 18.1136 21.5389C18.1584 21.5544 18.2058 21.561 18.2531 21.5582C18.3004 21.5554 18.3467 21.5433 18.3894 21.5226L19.9769 20.7524C20.3188 20.585 20.7865 20.585 21.1284 20.7524L22.7161 21.5226C22.7587 21.5433 22.805 21.5554 22.8523 21.5582C22.8996 21.561 22.947 21.5544 22.9918 21.5389C23.0366 21.5234 23.0779 21.4992 23.1133 21.4677C23.1488 21.4362 23.1777 21.3981 23.1984 21.3554C23.219 21.3128 23.2311 21.2665 23.2339 21.2192C23.2367 21.1718 23.2302 21.1244 23.2147 21.0796C23.1991 21.0349 23.1749 20.9936 23.1434 20.9581C23.112 20.9227 23.0738 20.8938 23.0312 20.8731L21.4435 20.1029C21.2851 20.0253 21.1515 19.905 21.0579 19.7555C20.9643 19.606 20.9143 19.4333 20.9137 19.257V12.5611C20.9137 12.5579 20.9137 12.5547 20.9136 12.5514Z"/>
</mask>
<path fill-rule="evenodd" clip-rule="evenodd" d="M20.9136 12.5514C20.9136 12.3575 20.7563 12.2002 20.5623 12.2002H20.5528C20.3534 12.2002 20.1917 12.3618 20.1917 12.5612V19.257C20.1911 19.4333 20.1411 19.606 20.0475 19.7555C19.9539 19.905 19.8203 20.0253 19.6619 20.1029L18.0742 20.8731C18.0316 20.8938 17.9934 20.9227 17.962 20.9581C17.9305 20.9936 17.9063 21.0349 17.8908 21.0796C17.8752 21.1244 17.8687 21.1718 17.8715 21.2191C17.8743 21.2665 17.8864 21.3128 17.9071 21.3554C17.9277 21.3981 17.9566 21.4362 17.9921 21.4677C18.0275 21.4992 18.0688 21.5234 18.1136 21.5389C18.1584 21.5544 18.2058 21.561 18.2531 21.5582C18.3004 21.5554 18.3467 21.5433 18.3894 21.5226L19.9769 20.7524C20.3188 20.585 20.7865 20.585 21.1284 20.7524L22.7161 21.5226C22.7587 21.5433 22.805 21.5554 22.8523 21.5582C22.8996 21.561 22.947 21.5544 22.9918 21.5389C23.0366 21.5234 23.0779 21.4992 23.1133 21.4677C23.1488 21.4362 23.1777 21.3981 23.1984 21.3554C23.219 21.3128 23.2311 21.2665 23.2339 21.2192C23.2367 21.1718 23.2302 21.1244 23.2147 21.0796C23.1991 21.0349 23.1749 20.9936 23.1434 20.9581C23.112 20.9227 23.0738 20.8938 23.0312 20.8731L21.4435 20.1029C21.2851 20.0253 21.1515 19.905 21.0579 19.7555C20.9643 19.606 20.9143 19.4333 20.9137 19.257V12.5611C20.9137 12.5579 20.9137 12.5547 20.9136 12.5514Z" fill="#A8ADC3"/>
<path d="M20.1917 19.257L20.521 19.2581V19.257H20.1917ZM20.0475 19.7555L19.7685 19.5808L19.7685 19.5808L20.0475 19.7555ZM19.6619 20.1029L19.8056 20.3991L19.8066 20.3986L19.6619 20.1029ZM18.0742 20.8731L17.9305 20.5769L17.9305 20.5769L18.0742 20.8731ZM17.962 20.9581L18.2081 21.1768L18.2081 21.1768L17.962 20.9581ZM17.8908 21.0796L18.2019 21.1875L18.2019 21.1875L17.8908 21.0796ZM17.8715 21.2191L18.2002 21.1997L18.2002 21.1997L17.8715 21.2191ZM17.9071 21.3554L18.2033 21.2117L18.2033 21.2117L17.9071 21.3554ZM17.9921 21.4677L17.7734 21.7138L17.7734 21.7138L17.9921 21.4677ZM18.1136 21.5389L18.2214 21.2278L18.2214 21.2278L18.1136 21.5389ZM18.3894 21.5226L18.5331 21.8188H18.5331L18.3894 21.5226ZM22.7161 21.5226L22.8598 21.2264L22.8598 21.2264L22.7161 21.5226ZM22.8523 21.5582L22.8329 21.8869H22.8329L22.8523 21.5582ZM22.9918 21.5389L22.884 21.2278L22.884 21.2278L22.9918 21.5389ZM23.1133 21.4677L23.332 21.7138L23.332 21.7138L23.1133 21.4677ZM23.1984 21.3554L23.4946 21.4991L23.4946 21.4991L23.1984 21.3554ZM23.2147 21.0796L23.5257 20.9718L23.5257 20.9718L23.2147 21.0796ZM23.0312 20.8731L23.1749 20.5769L23.1749 20.5769L23.0312 20.8731ZM21.4435 20.1029L21.2987 20.3986L21.2998 20.3991L21.4435 20.1029ZM21.0579 19.7555L20.7789 19.9303L20.7789 19.9303L21.0579 19.7555ZM20.9137 19.257H20.5844L20.5844 19.2581L20.9137 19.257ZM20.5528 12.5294H20.5623V11.8709H20.5528V12.5294ZM20.521 19.257V12.5612H19.8625V19.257H20.521ZM20.3265 19.9303C20.4528 19.7288 20.5201 19.4959 20.521 19.2581L19.8625 19.2558C19.8621 19.3707 19.8295 19.4833 19.7685 19.5808L20.3265 19.9303ZM19.8066 20.3986C20.0202 20.2941 20.2003 20.1318 20.3265 19.9303L19.7685 19.5808C19.7074 19.6782 19.6204 19.7566 19.5171 19.8072L19.8066 20.3986ZM18.218 21.1693L19.8056 20.3991L19.5181 19.8067L17.9305 20.5769L18.218 21.1693ZM18.2081 21.1768C18.2109 21.1737 18.2142 21.1712 18.218 21.1693L17.9305 20.5769C17.849 20.6164 17.776 20.6717 17.7158 20.7394L18.2081 21.1768ZM18.2019 21.1875C18.2032 21.1835 18.2053 21.1799 18.2081 21.1768L17.7158 20.7394C17.6556 20.8072 17.6094 20.8862 17.5797 20.9718L18.2019 21.1875ZM18.2002 21.1997C18.1999 21.1956 18.2005 21.1914 18.2019 21.1875L17.5797 20.9718C17.55 21.0574 17.5375 21.1481 17.5428 21.2386L18.2002 21.1997ZM18.2033 21.2117C18.2015 21.208 18.2004 21.2039 18.2002 21.1997L17.5428 21.2386C17.5481 21.329 17.5713 21.4176 17.6108 21.4991L18.2033 21.2117ZM18.2107 21.2216C18.2076 21.2188 18.2051 21.2154 18.2033 21.2117L17.6108 21.4991C17.6504 21.5807 17.7056 21.6536 17.7734 21.7138L18.2107 21.2216ZM18.2214 21.2278C18.2175 21.2265 18.2139 21.2243 18.2107 21.2216L17.7734 21.7138C17.8411 21.774 17.9201 21.8203 18.0057 21.85L18.2214 21.2278ZM18.2337 21.2295C18.2295 21.2298 18.2253 21.2292 18.2214 21.2278L18.0057 21.85C18.0914 21.8797 18.182 21.8922 18.2725 21.8869L18.2337 21.2295ZM18.2456 21.2264C18.2419 21.2282 18.2378 21.2293 18.2337 21.2295L18.2725 21.8869C18.363 21.8815 18.4515 21.8584 18.5331 21.8188L18.2456 21.2264ZM19.8332 20.4562L18.2456 21.2264L18.5331 21.8188L20.1207 21.0486L19.8332 20.4562ZM22.8598 21.2264L21.2722 20.4562L20.9847 21.0486L22.5723 21.8188L22.8598 21.2264ZM22.8717 21.2295C22.8676 21.2293 22.8635 21.2282 22.8598 21.2264L22.5723 21.8188C22.6539 21.8584 22.7424 21.8815 22.8329 21.8869L22.8717 21.2295ZM22.884 21.2278C22.8801 21.2292 22.8759 21.2298 22.8717 21.2295L22.8329 21.8869C22.9234 21.8922 23.014 21.8797 23.0997 21.85L22.884 21.2278ZM22.8947 21.2216C22.8915 21.2243 22.8879 21.2265 22.884 21.2278L23.0997 21.85C23.1853 21.8203 23.2643 21.774 23.332 21.7138L22.8947 21.2216ZM22.9021 21.2117C22.9003 21.2154 22.8978 21.2188 22.8947 21.2216L23.332 21.7138C23.3998 21.6536 23.455 21.5807 23.4946 21.4991L22.9021 21.2117ZM22.9053 21.1997C22.905 21.2039 22.9039 21.208 22.9021 21.2117L23.4946 21.4991C23.5342 21.4176 23.5573 21.3291 23.5626 21.2386L22.9053 21.1997ZM22.9036 21.1875C22.9049 21.1914 22.9055 21.1956 22.9053 21.1997L23.5626 21.2386C23.568 21.1481 23.5554 21.0574 23.5257 20.9718L22.9036 21.1875ZM22.8973 21.1768C22.9001 21.1799 22.9022 21.1836 22.9036 21.1875L23.5257 20.9718C23.4961 20.8862 23.4498 20.8072 23.3896 20.7395L22.8973 21.1768ZM22.8874 21.1693C22.8912 21.1712 22.8945 21.1737 22.8973 21.1768L23.3896 20.7395C23.3294 20.6717 23.2564 20.6165 23.1749 20.5769L22.8874 21.1693ZM21.2998 20.3991L22.8875 21.1693L23.1749 20.5769L21.5872 19.8067L21.2998 20.3991ZM20.7789 19.9303C20.9051 20.1318 21.0852 20.294 21.2987 20.3986L21.5883 19.8072C21.485 19.7566 21.398 19.6782 21.3369 19.5808L20.7789 19.9303ZM20.5844 19.2581C20.5853 19.4959 20.6526 19.7288 20.7789 19.9303L21.3369 19.5808C21.2759 19.4833 21.2434 19.3708 21.2429 19.2558L20.5844 19.2581ZM20.5844 12.5611V19.257H21.2429V12.5611H20.5844ZM20.5844 12.5601C20.5844 12.5605 20.5844 12.5608 20.5844 12.5611H21.2429C21.2429 12.555 21.2429 12.5489 21.2427 12.5428L20.5844 12.5601ZM20.1217 21.0481C20.3723 20.9254 20.7331 20.9254 20.9836 21.0481L21.2732 20.4567C20.84 20.2446 20.2654 20.2446 19.8322 20.4567L20.1217 21.0481ZM20.5528 11.8709C20.1715 11.8709 19.8625 12.18 19.8625 12.5612H20.521C20.521 12.5437 20.5352 12.5294 20.5528 12.5294V11.8709ZM21.2428 12.5514C21.2428 12.1756 20.9381 11.8709 20.5623 11.8709V12.5294C20.5745 12.5294 20.5843 12.5393 20.5843 12.5514H21.2428Z" fill="#A8ADC3" mask="url(#path-3-outside-1_693_80404)"/>
<path d="M14.304 27.1887L16.7549 25.6024C17.3428 25.2219 17.8262 24.7002 18.1608 24.085C18.4955 23.4698 18.6708 22.7805 18.6708 22.0802V15.2311C18.6708 14.9896 18.6057 14.7527 18.4824 14.5452C18.359 14.3376 18.182 14.1672 17.9699 14.0518C17.7578 13.9365 17.5185 13.8804 17.2773 13.8896C17.036 13.8988 16.8017 13.9729 16.5991 14.1041L14.9011 15.203C14.0834 15.7323 13.4112 16.4577 12.9458 17.3133C12.4804 18.169 12.2366 19.1275 12.2366 20.1015V26.0642C12.2366 26.3051 12.3015 26.5415 12.4246 26.7486C12.5477 26.9557 12.7244 27.1258 12.936 27.2409C13.1477 27.356 13.3864 27.4119 13.6272 27.4027C13.8679 27.3936 14.1017 27.3196 14.304 27.1887Z" fill="white"/>
<path d="M26.6914 27.1887L24.2404 25.6024C23.6525 25.2219 23.1691 24.7003 22.8345 24.085C22.4998 23.4698 22.3245 22.7806 22.3245 22.0802V15.2311C22.3245 14.9896 22.3896 14.7527 22.5129 14.5452C22.6363 14.3376 22.8133 14.1672 23.0254 14.0518C23.2375 13.9365 23.4768 13.8804 23.718 13.8896C23.9592 13.8988 24.1936 13.9729 24.3962 14.1041L26.0942 15.203C26.9119 15.7323 27.5841 16.4577 28.0495 17.3133C28.5149 18.1689 28.7587 19.1275 28.7587 20.1015V26.0642C28.7587 26.3051 28.6938 26.5415 28.5707 26.7486C28.4476 26.9557 28.2709 27.1258 28.0593 27.2409C27.8476 27.356 27.6089 27.4119 27.3682 27.4027C27.1274 27.3936 26.8936 27.3196 26.6914 27.1887Z" fill="white"/>
<path d="M10.9106 11.6855C10.9106 11.3328 11.1966 11.0469 11.5492 11.0469H15.0049C15.3576 11.0469 15.6435 11.3328 15.6435 11.6855C15.6435 12.0382 15.3576 12.3241 15.0049 12.3241H11.5492C11.1966 12.3241 10.9106 12.0382 10.9106 11.6855Z" fill="#B4E5B3"/>
</g>
<defs>
<linearGradient id="paint0_linear_693_80404" x1="20.4982" y1="8.33496" x2="20.4982" y2="32.5379" gradientUnits="userSpaceOnUse">
<stop stop-color="#555864"/>
<stop offset="1" stop-color="#64687A"/>
</linearGradient>
<clipPath id="clip0_693_80404">
<rect width="26.6667" height="26.6667" fill="white" transform="translate(7.16675 7.1123)"/>
</clipPath>
</defs>
</svg>
