<svg width="41" height="41" viewBox="0 0 41 41" fill="none" xmlns="http://www.w3.org/2000/svg">
<rect x="0.5" y="0.445312" width="40" height="40" rx="20" fill="#F9F4EF"/>
<path d="M15.2475 21.2148C16.7586 21.7837 17.8342 23.2415 17.8342 24.9526V32.0637C17.8342 32.309 18.0333 32.5081 18.2786 32.5081H19.1675C19.4129 32.5081 19.612 32.309 19.612 32.0637V24.9526C19.612 21.7615 17.0253 19.1748 13.8342 19.1748L12.9453 20.9526L15.2475 21.2148Z" fill="#FBABA6"/>
<path d="M25.7538 21.2148C24.2427 21.7837 23.1672 23.2415 23.1672 24.9526V32.0637C23.1672 32.309 22.9681 32.5081 22.7227 32.5081H21.8338C21.5885 32.5081 21.3894 32.309 21.3894 32.0637V24.9526C21.3894 21.7615 23.9761 19.1748 27.1672 19.1748L28.0561 20.9526L25.7538 21.2148Z" fill="#FBABA6"/>
<path d="M16.6112 23.1301C16.6112 24.9555 15.3214 26.2906 13.1565 26.2906C10.4005 26.2906 8.16675 23.1066 8.16675 19.1795C8.16675 15.2524 10.4005 12.0684 13.1565 12.0684C15.3214 12.0684 16.6112 13.4035 16.6112 15.2288C16.6112 16.6946 15.3943 17.8164 14.2085 17.9746C14.2085 17.9746 14.389 18.4479 14.389 19.1795C14.389 19.8755 14.2085 20.3844 14.2085 20.3844C15.3947 20.5426 16.6112 21.6644 16.6112 23.1301Z" fill="url(#paint0_linear_693_80374)"/>
<path d="M24.3903 23.1301C24.3903 24.9555 25.68 26.2906 27.8449 26.2906C30.6009 26.2906 32.8347 23.1066 32.8347 19.1795C32.8347 15.2524 30.6009 12.0684 27.8449 12.0684C25.68 12.0684 24.3903 13.4035 24.3903 15.2288C24.3903 16.6946 25.6072 17.8164 26.7929 17.9746C26.7929 17.9746 26.6125 18.4479 26.6125 19.1795C26.6125 19.8755 26.7929 20.3844 26.7929 20.3844C25.6067 20.5426 24.3903 21.6644 24.3903 23.1301Z" fill="url(#paint1_linear_693_80374)"/>
<defs>
<linearGradient id="paint0_linear_693_80374" x1="12.389" y1="12.0684" x2="12.389" y2="26.2906" gradientUnits="userSpaceOnUse">
<stop stop-color="#F67B72"/>
<stop offset="1" stop-color="#F78F83"/>
</linearGradient>
<linearGradient id="paint1_linear_693_80374" x1="28.6125" y1="12.0684" x2="28.6125" y2="26.2906" gradientUnits="userSpaceOnUse">
<stop stop-color="#F67B72"/>
<stop offset="1" stop-color="#F78F83"/>
</linearGradient>
</defs>
</svg>
