<svg width="56" height="57" viewBox="0 0 56 57" fill="none" xmlns="http://www.w3.org/2000/svg">
<rect y="0.799805" width="56" height="56" rx="28" fill="#EEF0F6"/>
<g clip-path="url(#clip0_764_49936)">
<path d="M9.91211 18.758C9.91211 14.9394 13.0077 11.8438 16.8264 11.8438H39.1645C42.9831 11.8438 46.0788 14.9394 46.0788 18.7581V38.8136C46.0788 42.6322 42.9831 45.7279 39.1645 45.7279H16.8264C13.0078 45.7279 9.91211 42.6322 9.91211 38.8136V18.758Z" fill="url(#paint0_linear_764_49936)"/>
<mask id="path-3-outside-1_764_49936" maskUnits="userSpaceOnUse" x="23.3174" y="16.2549" width="9" height="15" fill="black">
<rect fill="white" x="23.3174" y="16.2549" width="9" height="15"/>
<path fill-rule="evenodd" clip-rule="evenodd" d="M28.5772 27.1343V17.7609C28.5772 17.4814 28.3506 17.2549 28.0711 17.2549H28.0437C27.7802 17.2549 27.5666 17.4685 27.5666 17.732C27.5661 17.7413 27.5658 17.7507 27.5658 17.7602V27.1343C27.5659 27.1446 27.566 27.1548 27.5661 27.165C27.5598 27.4012 27.4903 27.6317 27.3647 27.8324C27.2336 28.0416 27.0466 28.2101 26.8248 28.3187L24.6021 29.397C24.5424 29.4259 24.489 29.4664 24.4449 29.516C24.4009 29.5656 24.367 29.6234 24.3453 29.6861C24.3235 29.7488 24.3143 29.8152 24.3183 29.8814C24.3222 29.9477 24.3391 30.0125 24.3681 30.0722C24.397 30.1319 24.4375 30.1853 24.4871 30.2294C24.5367 30.2735 24.5945 30.3073 24.6572 30.3291C24.7199 30.3508 24.7863 30.36 24.8525 30.3561C24.9188 30.3522 24.9836 30.3352 25.0433 30.3063L27.2659 29.228C27.7444 28.9937 28.3987 28.9937 28.8771 29.228L31.0998 30.3063C31.1595 30.3352 31.2243 30.3522 31.2905 30.3561C31.3568 30.36 31.4231 30.3508 31.4858 30.3291C31.5485 30.3073 31.6064 30.2735 31.656 30.2294C31.7056 30.1853 31.746 30.1319 31.775 30.0722C31.804 30.0125 31.8209 29.9477 31.8248 29.8814C31.8287 29.8152 31.8195 29.7488 31.7978 29.6861C31.7761 29.6234 31.7422 29.5656 31.6981 29.516C31.654 29.4664 31.6006 29.4259 31.5409 29.397L29.3182 28.3187C29.0964 28.2101 28.9094 28.0416 28.7784 27.8323C28.6525 27.6314 28.583 27.4006 28.5769 27.164C28.5771 27.1541 28.5772 27.1442 28.5772 27.1343Z"/>
</mask>
<path fill-rule="evenodd" clip-rule="evenodd" d="M28.5772 27.1343V17.7609C28.5772 17.4814 28.3506 17.2549 28.0711 17.2549H28.0437C27.7802 17.2549 27.5666 17.4685 27.5666 17.732C27.5661 17.7413 27.5658 17.7507 27.5658 17.7602V27.1343C27.5659 27.1446 27.566 27.1548 27.5661 27.165C27.5598 27.4012 27.4903 27.6317 27.3647 27.8324C27.2336 28.0416 27.0466 28.2101 26.8248 28.3187L24.6021 29.397C24.5424 29.4259 24.489 29.4664 24.4449 29.516C24.4009 29.5656 24.367 29.6234 24.3453 29.6861C24.3235 29.7488 24.3143 29.8152 24.3183 29.8814C24.3222 29.9477 24.3391 30.0125 24.3681 30.0722C24.397 30.1319 24.4375 30.1853 24.4871 30.2294C24.5367 30.2735 24.5945 30.3073 24.6572 30.3291C24.7199 30.3508 24.7863 30.36 24.8525 30.3561C24.9188 30.3522 24.9836 30.3352 25.0433 30.3063L27.2659 29.228C27.7444 28.9937 28.3987 28.9937 28.8771 29.228L31.0998 30.3063C31.1595 30.3352 31.2243 30.3522 31.2905 30.3561C31.3568 30.36 31.4231 30.3508 31.4858 30.3291C31.5485 30.3073 31.6064 30.2735 31.656 30.2294C31.7056 30.1853 31.746 30.1319 31.775 30.0722C31.804 30.0125 31.8209 29.9477 31.8248 29.8814C31.8287 29.8152 31.8195 29.7488 31.7978 29.6861C31.7761 29.6234 31.7422 29.5656 31.6981 29.516C31.654 29.4664 31.6006 29.4259 31.5409 29.397L29.3182 28.3187C29.0964 28.2101 28.9094 28.0416 28.7784 27.8323C28.6525 27.6314 28.583 27.4006 28.5769 27.164C28.5771 27.1541 28.5772 27.1442 28.5772 27.1343Z" fill="#A8ADC3"/>
<path d="M28.5772 27.1343L29.0381 27.136V27.1343H28.5772ZM27.5658 27.1343H27.1049L27.1049 27.136L27.5658 27.1343ZM27.5661 27.165L28.0269 27.1773L28.0272 27.1673L28.027 27.1573L27.5661 27.165ZM27.3647 27.8324L27.7553 28.077L27.7553 28.077L27.3647 27.8324ZM26.8248 28.3187L27.026 28.7334L27.0275 28.7327L26.8248 28.3187ZM24.6021 29.397L24.4009 28.9822L24.4009 28.9823L24.6021 29.397ZM24.4449 29.516L24.7895 29.8221L24.7895 29.8221L24.4449 29.516ZM24.3183 29.8814L23.8581 29.9086L24.3183 29.8814ZM24.3681 30.0722L23.9533 30.2734L23.9533 30.2734L24.3681 30.0722ZM24.4871 30.2294L24.1809 30.574L24.1809 30.574L24.4871 30.2294ZM24.6572 30.3291L24.8082 29.8935L24.8082 29.8935L24.6572 30.3291ZM24.8525 30.3561L24.8797 30.8162L24.8797 30.8162L24.8525 30.3561ZM25.0433 30.3063L24.8421 29.8915L24.8421 29.8915L25.0433 30.3063ZM31.0998 30.3063L31.301 29.8915L31.301 29.8915L31.0998 30.3063ZM31.2905 30.3561L31.3177 29.8959L31.3177 29.8959L31.2905 30.3561ZM31.656 30.2294L31.9621 30.574L31.9621 30.574L31.656 30.2294ZM31.775 30.0722L31.3603 29.871L31.3603 29.871L31.775 30.0722ZM31.7978 29.6861L32.2333 29.5351L32.2333 29.5351L31.7978 29.6861ZM31.6981 29.516L32.0427 29.2098L32.0427 29.2098L31.6981 29.516ZM31.5409 29.397L31.7421 28.9823L31.7421 28.9822L31.5409 29.397ZM29.3182 28.3187L29.1155 28.7327L29.117 28.7334L29.3182 28.3187ZM28.7784 27.8323L29.169 27.5877L28.7784 27.8323ZM28.5769 27.164L28.116 27.1565L28.1158 27.1662L28.1161 27.176L28.5769 27.164ZM28.1162 17.7609V27.1343H29.0381V17.7609H28.1162ZM28.0437 17.7158H28.0711V16.7939H28.0437V17.7158ZM28.0268 17.7602C28.0268 17.7592 28.0268 17.7582 28.0269 17.7573L27.1063 17.7066C27.1054 17.7244 27.1049 17.7423 27.1049 17.7602H28.0268ZM28.0268 27.1343V17.7602H27.1049V27.1343H28.0268ZM28.027 27.1573C28.0269 27.1491 28.0268 27.1409 28.0268 27.1327L27.1049 27.136C27.1049 27.1482 27.105 27.1605 27.1052 27.1727L28.027 27.1573ZM27.7553 28.077C27.9248 27.8066 28.0184 27.4958 28.0269 27.1773L27.1053 27.1526C27.1012 27.3067 27.0559 27.4569 26.974 27.5877L27.7553 28.077ZM27.0275 28.7327C27.3265 28.5863 27.5786 28.3592 27.7553 28.077L26.974 27.5877C26.8886 27.7241 26.7667 27.8339 26.6221 27.9047L27.0275 28.7327ZM24.8033 29.8117L27.026 28.7334L26.6236 27.9039L24.4009 28.9822L24.8033 29.8117ZM24.7895 29.8221C24.7934 29.8178 24.7981 29.8142 24.8033 29.8117L24.4009 28.9823C24.2868 29.0376 24.1846 29.115 24.1003 29.2098L24.7895 29.8221ZM24.7808 29.8371C24.7827 29.8316 24.7857 29.8265 24.7895 29.8221L24.1003 29.2098C24.0161 29.3047 23.9513 29.4152 23.9097 29.5351L24.7808 29.8371ZM24.7784 29.8542C24.7781 29.8484 24.7789 29.8426 24.7808 29.8371L23.9097 29.5351C23.8682 29.655 23.8506 29.7819 23.8581 29.9086L24.7784 29.8542ZM24.7828 29.871C24.7802 29.8657 24.7788 29.8601 24.7784 29.8542L23.8581 29.9086C23.8656 30.0353 23.898 30.1592 23.9533 30.2734L24.7828 29.871ZM24.7932 29.8848C24.7889 29.8809 24.7853 29.8762 24.7828 29.871L23.9533 30.2734C24.0087 30.3876 24.0861 30.4897 24.1809 30.574L24.7932 29.8848ZM24.8082 29.8935C24.8027 29.8916 24.7976 29.8887 24.7932 29.8848L24.1809 30.574C24.2758 30.6583 24.3863 30.723 24.5062 30.7646L24.8082 29.8935ZM24.8253 29.8959C24.8195 29.8963 24.8137 29.8955 24.8082 29.8935L24.5062 30.7646C24.6261 30.8062 24.753 30.8237 24.8797 30.8162L24.8253 29.8959ZM24.8421 29.8915C24.8368 29.8941 24.8311 29.8956 24.8253 29.8959L24.8797 30.8162C25.0064 30.8087 25.1303 30.7764 25.2445 30.721L24.8421 29.8915ZM27.0647 28.8132L24.8421 29.8915L25.2445 30.721L27.4671 29.6427L27.0647 28.8132ZM31.301 29.8915L29.0783 28.8132L28.6759 29.6427L30.8986 30.721L31.301 29.8915ZM31.3177 29.8959C31.3119 29.8956 31.3062 29.8941 31.301 29.8915L30.8985 30.721C31.0127 30.7764 31.1367 30.8087 31.2634 30.8162L31.3177 29.8959ZM31.3349 29.8936C31.3294 29.8955 31.3235 29.8963 31.3177 29.8959L31.2633 30.8162C31.39 30.8237 31.5169 30.8062 31.6368 30.7646L31.3349 29.8936ZM31.3498 29.8848C31.3455 29.8887 31.3404 29.8916 31.3349 29.8936L31.6368 30.7646C31.7567 30.723 31.8673 30.6583 31.9621 30.574L31.3498 29.8848ZM31.3603 29.871C31.3577 29.8762 31.3542 29.8809 31.3498 29.8848L31.9621 30.574C32.057 30.4897 32.1343 30.3876 32.1897 30.2734L31.3603 29.871ZM31.3646 29.8542C31.3643 29.8601 31.3628 29.8657 31.3603 29.871L32.1897 30.2734C32.2451 30.1592 32.2775 30.0353 32.2849 29.9086L31.3646 29.8542ZM31.3623 29.8371C31.3642 29.8426 31.365 29.8484 31.3646 29.8542L32.2849 29.9086C32.2924 29.7819 32.2749 29.655 32.2333 29.5351L31.3623 29.8371ZM31.3535 29.8221C31.3574 29.8265 31.3604 29.8316 31.3623 29.8371L32.2333 29.5351C32.1918 29.4152 32.127 29.3047 32.0427 29.2098L31.3535 29.8221ZM31.3397 29.8117C31.3449 29.8142 31.3496 29.8178 31.3535 29.8221L32.0427 29.2098C31.9584 29.115 31.8563 29.0376 31.7421 28.9823L31.3397 29.8117ZM29.117 28.7334L31.3397 29.8117L31.7421 28.9822L29.5194 27.9039L29.117 28.7334ZM28.3877 28.077C28.5644 28.3592 28.8165 28.5863 29.1155 28.7327L29.5209 27.9047C29.3763 27.8339 29.2544 27.7241 29.169 27.5877L28.3877 28.077ZM28.1161 27.176C28.1244 27.495 28.2181 27.8062 28.3877 28.077L29.169 27.5877C29.087 27.4567 29.0417 27.3062 29.0377 27.152L28.1161 27.176ZM28.1162 27.1327C28.1162 27.1406 28.1161 27.1485 28.116 27.1565L29.0378 27.1715C29.038 27.1597 29.0381 27.1479 29.0381 27.136L28.1162 27.1327ZM28.0437 16.7939C27.5256 16.7939 27.1056 17.2139 27.1056 17.732H28.0275C28.0275 17.7231 28.0348 17.7158 28.0437 17.7158V16.7939ZM27.4686 29.642C27.8192 29.4703 28.3238 29.4703 28.6744 29.642L29.0798 28.814C28.4735 28.5171 27.6695 28.5171 27.0632 28.814L27.4686 29.642ZM29.0381 17.7609C29.0381 17.2269 28.6052 16.7939 28.0711 16.7939V17.7158C28.096 17.7158 28.1162 17.736 28.1162 17.7609H29.0381Z" fill="#A8ADC3" mask="url(#path-3-outside-1_764_49936)"/>
<path d="M19.3221 38.2392L22.7533 36.0184C23.5765 35.4856 24.2532 34.7553 24.7217 33.894C25.1902 33.0327 25.4357 32.0678 25.4357 31.0873V21.4985C25.4357 21.1605 25.3445 20.8288 25.1718 20.5382C24.9991 20.2477 24.7513 20.0091 24.4544 19.8476C24.1575 19.6861 23.8225 19.6076 23.4847 19.6205C23.147 19.6334 22.819 19.7371 22.5352 19.9207L20.1581 21.4593C19.0133 22.2002 18.0723 23.2158 17.4207 24.4137C16.7691 25.6115 16.4277 26.9534 16.4277 28.317V36.6648C16.4277 37.0021 16.5187 37.3332 16.691 37.6231C16.8634 37.913 17.1107 38.1511 17.407 38.3123C17.7033 38.4734 18.0375 38.5517 18.3746 38.5388C18.7116 38.526 19.0389 38.4225 19.3221 38.2392Z" fill="white"/>
<path d="M36.6644 38.2392L33.2331 36.0184C32.41 35.4857 31.7333 34.7554 31.2648 33.894C30.7962 33.0327 30.5508 32.0678 30.5508 31.0873V21.4985C30.5508 21.1605 30.6419 20.8288 30.8146 20.5382C30.9873 20.2477 31.2352 20.0091 31.5321 19.8476C31.829 19.6861 32.164 19.6076 32.5017 19.6205C32.8395 19.6334 33.1675 19.7371 33.4513 19.9207L35.8284 21.4593C36.9731 22.2002 37.9142 23.2158 38.5658 24.4137C39.2174 25.6115 39.5588 26.9534 39.5588 28.317V36.6648C39.5588 37.0021 39.4678 37.3332 39.2955 37.6231C39.1231 37.913 38.8758 38.1511 38.5795 38.3123C38.2832 38.4734 37.949 38.5517 37.6119 38.5388C37.2749 38.526 36.9476 38.4225 36.6644 38.2392Z" fill="white"/>
<path d="M14.5742 16.5356C14.5742 16.0419 14.9745 15.6416 15.4683 15.6416H20.3061C20.7999 15.6416 21.2002 16.0419 21.2002 16.5356C21.2002 17.0294 20.7999 17.4297 20.3061 17.4297H15.4683C14.9745 17.4297 14.5742 17.0294 14.5742 16.5356Z" fill="#B4E5B3"/>
</g>
<defs>
<linearGradient id="paint0_linear_764_49936" x1="27.9954" y1="11.8438" x2="27.9954" y2="45.7279" gradientUnits="userSpaceOnUse">
<stop stop-color="#555864"/>
<stop offset="1" stop-color="#64687A"/>
</linearGradient>
<clipPath id="clip0_764_49936">
<rect width="37.3333" height="37.3333" fill="white" transform="translate(9.33203 10.1338)"/>
</clipPath>
</defs>
</svg>
