<svg width="41" height="41" viewBox="0 0 41 41" fill="none" xmlns="http://www.w3.org/2000/svg">
<rect width="40" height="40" rx="20" transform="matrix(-1 0 0 1 40.5 0.445312)" fill="#F6E5E3" fill-opacity="0.5"/>
<path d="M21.5382 14.482V17.6655C21.5382 17.8069 21.5104 17.9469 21.4563 18.0775C21.4022 18.2082 21.3229 18.3269 21.2229 18.4269C21.1229 18.5268 21.0042 18.6062 20.8736 18.6603C20.7429 18.7144 20.6029 18.7422 20.4615 18.7422V12.8717C20.4615 12.5007 20.3141 12.1448 20.0517 11.8824C19.7894 11.6201 19.4335 11.4727 19.0624 11.4727H16.7421C15.6523 11.4727 14.5732 11.6873 13.5664 12.1043C12.5596 12.5214 11.6448 13.1326 10.8742 13.9032C10.1036 14.6738 9.49232 15.5886 9.07529 16.5955C8.65825 17.6023 8.4436 18.6814 8.4436 19.7712V24.6348C8.4436 27.3839 11.5676 28.9672 13.7846 27.3417L22.8834 20.6709L31.9822 14.0001C33.0728 13.2005 32.5073 11.4727 31.155 11.4727H24.5476C23.7495 11.4727 22.984 11.7897 22.4197 12.3541C21.8553 12.9185 21.5382 13.6839 21.5382 14.482Z" fill="url(#paint0_linear_693_80302)"/>
<path d="M31.3139 31.4672L31.314 31.4672C31.4395 31.5934 31.605 31.6568 31.7698 31.6568C31.9333 31.6568 32.0978 31.5944 32.2231 31.4698L31.3139 31.4672ZM31.3139 31.4672L27.6607 27.7931L31.3139 31.4672ZM32.2257 30.5605L28.5724 26.8865C28.5724 26.8865 28.5724 26.8865 28.5724 26.8865C28.3221 26.6347 27.915 26.6335 27.6632 26.8839C27.6632 26.8839 27.6632 26.8839 27.6632 26.884L27.8597 27.0816L32.2257 30.5605ZM32.2257 30.5605C32.4761 30.8123 32.475 31.2193 32.2232 31.4697L32.2257 30.5605Z" fill="#5A4864" stroke="#5A4864" stroke-width="0.557451"/>
<path d="M23.6459 28.4347C20.5744 28.4347 18.0843 25.9447 18.0843 22.8731C18.0843 19.8015 20.5744 17.3115 23.6459 17.3115C26.7175 17.3115 29.2075 19.8015 29.2075 22.8731C29.2075 25.9447 26.7175 28.4347 23.6459 28.4347Z" fill="#E5DFDC"/>
<path d="M22.4111 28.9461L22.4256 28.8747L22.4111 28.9461C20.7892 28.6161 19.3926 27.674 18.4792 26.2938C17.5657 24.9136 17.2443 23.26 17.5744 21.6382C17.9044 20.0163 18.8464 18.6197 20.2266 17.7063L20.2669 17.7671L20.2266 17.7063C21.6069 16.7928 23.2608 16.4715 24.8823 16.8015C26.5042 17.1315 27.9008 18.0736 28.8142 19.4537C29.7276 20.8339 30.0491 22.4876 29.719 24.1094C29.1221 27.0429 26.5325 29.0714 23.6485 29.0713C23.2403 29.0713 22.826 29.0306 22.4111 28.9461ZM24.7276 17.5619C24.3637 17.4879 23.9982 17.4513 23.6354 17.4513C22.583 17.4513 21.553 17.759 20.6549 18.3534C19.4473 19.1526 18.6235 20.3739 18.3348 21.7929C17.7388 24.7218 19.6369 27.5897 22.5658 28.1857C22.9291 28.2597 23.2912 28.2952 23.6483 28.2952C26.1709 28.2951 28.4365 26.5203 28.9586 23.9547C29.2473 22.5357 28.9663 21.0896 28.1671 19.8821C27.3679 18.6745 26.1466 17.8507 24.7276 17.5619Z" fill="#5A4864" stroke="#5A4864" stroke-width="0.145857"/>
<path d="M23.6657 27.7538C26.3615 27.7538 28.547 25.5683 28.547 22.8725C28.547 20.1766 26.3615 17.9912 23.6657 17.9912C20.9698 17.9912 18.7844 20.1766 18.7844 22.8725C18.7844 25.5683 20.9698 27.7538 23.6657 27.7538Z" fill="white"/>
<path d="M26.7868 24.7772V20.9244L23.4501 18.998L20.1135 20.9244V24.7772L23.4501 26.7036L26.7868 24.7772Z" fill="url(#paint1_linear_693_80302)"/>
<path fill-rule="evenodd" clip-rule="evenodd" d="M23.4524 23.4673C23.2458 23.7993 22.8777 24.0203 22.4579 24.0203C21.8116 24.0203 21.2876 23.4963 21.2876 22.85C21.2876 22.2037 21.8116 21.6797 22.4579 21.6797C22.8777 21.6797 23.2458 21.9007 23.4524 22.2327C23.6589 21.9007 24.027 21.6797 24.4468 21.6797C25.0932 21.6797 25.6171 22.2037 25.6171 22.85C25.6171 23.4963 25.0932 24.0203 24.4468 24.0203C24.027 24.0203 23.6589 23.7993 23.4524 23.4673Z" fill="#5A4864"/>
<defs>
<linearGradient id="paint0_linear_693_80302" x1="7.25408" y1="28.7399" x2="8.4436" y2="5.68826" gradientUnits="userSpaceOnUse">
<stop stop-color="#F78268"/>
<stop offset="1" stop-color="#FE9075"/>
</linearGradient>
<linearGradient id="paint1_linear_693_80302" x1="21.1615" y1="20.9627" x2="26.4692" y2="25.3415" gradientUnits="userSpaceOnUse">
<stop offset="0.0056" stop-color="#6CCE74"/>
</linearGradient>
</defs>
</svg>
