<svg width="25" height="25" viewBox="0 0 25 25" fill="none" xmlns="http://www.w3.org/2000/svg">
<g clip-path="url(#clip0_764_51998)">
<path d="M0.803711 12.7998C0.803711 19.4272 6.17629 24.7998 12.8037 24.7998C19.4311 24.7998 24.8037 19.4272 24.8037 12.7998C24.8037 6.17239 19.4311 0.799805 12.8037 0.799805C6.17629 0.799805 0.803711 6.17239 0.803711 12.7998Z" fill="#FFF1E6"/>
<path d="M15.4942 9.0322L12.2949 14.8502C11.2048 17.4215 13.0055 20.3148 15.696 20.3148C18.3864 20.3148 20.1872 17.4215 19.097 14.8502L15.8978 9.0322C15.8785 8.99539 15.8495 8.96455 15.8139 8.94304C15.7783 8.92153 15.7376 8.91016 15.696 8.91016C15.6544 8.91016 15.6136 8.92153 15.5781 8.94304C15.5425 8.96455 15.5135 8.99539 15.4942 9.0322Z" fill="#F4B561"/>
<path d="M15.6963 19.1959C15.6279 19.1959 15.5623 19.1687 15.514 19.1203C15.4656 19.072 15.4385 19.0064 15.4385 18.938C15.4385 18.8697 15.4656 18.8041 15.514 18.7557C15.5623 18.7074 15.6279 18.6802 15.6963 18.6802C16.4342 18.6802 17.0891 18.3079 17.4932 17.6589C17.6879 17.3486 17.8063 16.9967 17.8387 16.6318C17.8711 16.267 17.8165 15.8996 17.6795 15.5599C17.6543 15.4964 17.6554 15.4254 17.6825 15.3626C17.7096 15.2999 17.7605 15.2504 17.8241 15.2252C17.8877 15.2 17.9586 15.2011 18.0214 15.2282C18.0842 15.2553 18.1336 15.3062 18.1588 15.3698C18.326 15.7844 18.3924 16.2327 18.3528 16.6779C18.3132 17.1232 18.1686 17.5527 17.9309 17.9313C17.4307 18.7349 16.6163 19.1959 15.6963 19.1959Z" fill="white"/>
<path d="M8.17676 4.79395H10.62V21.1418H8.17676V4.79395Z" fill="#F9D9C0"/>
<path d="M8.17676 5.91504H10.62V8.35833H8.17676V5.91504Z" fill="#A2E0A7"/>
<path d="M8.17676 9.45996H10.62V11.9032H8.17676V9.45996Z" fill="#DF6A6A"/>
</g>
<defs>
<clipPath id="clip0_764_51998">
<rect width="24" height="24" fill="white" transform="translate(0.798828 0.799805)"/>
</clipPath>
</defs>
</svg>
