<svg width="57" height="57" viewBox="0 0 57 57" fill="none" xmlns="http://www.w3.org/2000/svg">
<rect x="0.666016" y="0.799805" width="56" height="56" rx="28" fill="#FAF2F1"/>
<path d="M30.1196 21.4455V25.9024C30.1196 26.1004 30.0806 26.2964 30.0049 26.4793C29.9291 26.6622 29.8181 26.8283 29.6781 26.9683C29.5381 27.1083 29.3719 27.2193 29.1891 27.2951C29.0062 27.3708 28.8102 27.4098 28.6122 27.4098V19.1911C28.6122 18.6717 28.4058 18.1735 28.0385 17.8061C27.6712 17.4388 27.173 17.2324 26.6535 17.2324H23.405C21.8793 17.2324 20.3686 17.5329 18.959 18.1168C17.5495 18.7006 16.2687 19.5564 15.1899 20.6352C14.1111 21.714 13.2553 22.9948 12.6715 24.4043C12.0876 25.8139 11.7871 27.3246 11.7871 28.8503V35.6595C11.7871 39.5082 16.1607 41.7248 19.2645 39.4491L32.0029 30.11L44.7412 20.7708C46.268 19.6514 45.4762 17.2324 43.5831 17.2324H34.3327C33.2153 17.2324 32.1437 17.6763 31.3536 18.4664C30.5635 19.2565 30.1196 20.3282 30.1196 21.4455Z" fill="url(#paint0_linear_764_52709)"/>
<path d="M37.8368 45.8285L37.8368 45.8284C38.0693 45.7242 38.2775 45.5725 38.448 45.3833L45.8177 37.4039C48.1049 34.9276 48.095 30.9355 45.7862 28.4724L45.0566 29.1563L45.7862 28.4724C43.4418 25.9715 39.6413 26.0622 37.3403 28.5536L37.087 28.8279L36.7899 28.5063C36.7899 28.5063 36.7899 28.5063 36.7899 28.5063C34.4708 25.9953 30.6753 25.9953 28.3562 28.5063C26.0792 30.9717 26.0792 34.9385 28.3562 37.4039L35.7259 45.3833C35.8964 45.5726 36.1046 45.7242 36.3371 45.8284L36.3371 45.8285C36.573 45.9342 36.8285 45.9889 37.0869 45.9889C37.3454 45.9889 37.6009 45.9342 37.8368 45.8285Z" fill="url(#paint1_linear_764_52709)" stroke="#FAF2F1" stroke-width="2"/>
<path d="M38.2394 40.1724H38.2394C38.2341 40.1724 38.2287 40.1723 38.2234 40.1721C38.2234 40.1721 38.2233 40.1721 38.2233 40.1721L38.2261 40.0992C38.1489 40.0963 38.0748 40.0682 38.0152 40.019C37.9556 39.9699 37.9139 39.9025 37.8964 39.8272L38.2394 40.1724ZM38.2394 40.1724C38.3299 40.1723 38.4181 40.1434 38.491 40.0898C38.5639 40.0362 38.6178 39.9607 38.6449 39.8743L38.6449 39.8743L40.1389 35.1004M38.2394 40.1724L40.1389 35.1004M40.1389 35.1004L40.7649 37.633L40.7649 37.6331C40.7857 37.7175 40.832 37.7935 40.8975 37.8508C40.963 37.9081 41.0444 37.9439 41.1309 37.9535C41.2174 37.963 41.3047 37.9457 41.3811 37.904C41.4574 37.8624 41.5191 37.7982 41.5579 37.7203L41.5579 37.7203L42.4825 35.8613H46.1033C46.216 35.8613 46.3241 35.8166 46.4038 35.7369C46.4835 35.6572 46.5282 35.5491 46.5282 35.4364C46.5282 35.3236 46.4835 35.2155 46.4038 35.1358C46.3241 35.0562 46.216 35.0114 46.1033 35.0114H42.2193C42.1402 35.0114 42.0627 35.0334 41.9955 35.0751C41.9283 35.1167 41.874 35.1763 41.8388 35.2471C41.8388 35.2471 41.8388 35.2471 41.8388 35.2471L41.3123 36.3056L40.5995 33.4219C40.5773 33.3318 40.5262 33.2516 40.454 33.1933C40.3819 33.135 40.2926 33.1019 40.1999 33.0991C40.1072 33.0963 40.0161 33.1238 39.9405 33.1776C39.865 33.2314 39.8091 33.3084 39.7814 33.3969L39.7813 33.3969L38.2995 38.1319L36.8646 31.9676L36.7936 31.9842L36.8646 31.9676C36.844 31.8794 36.7958 31.8 36.727 31.7411C36.6581 31.6822 36.5723 31.6468 36.4819 31.6402C36.3915 31.6335 36.3014 31.6559 36.2247 31.7041V31.7041C36.1479 31.7523 36.0886 31.8237 36.0553 31.908L34.6814 35.3889H27.6294C27.5167 35.3889 27.4086 35.4337 27.3289 35.5134C27.2492 35.5931 27.2044 35.7012 27.2044 35.8139C27.2044 35.9266 27.2492 36.0347 27.3289 36.1144C27.4086 36.1941 27.5167 36.2389 27.6294 36.2389H34.9706C35.0558 36.2389 35.1391 36.2132 35.2096 36.1652C35.2801 36.1173 35.3346 36.0492 35.3659 35.9699L36.3457 33.4875L40.1389 35.1004Z" fill="white" stroke="white" stroke-width="0.145788"/>
<defs>
<linearGradient id="paint0_linear_764_52709" x1="10.1218" y1="41.4066" x2="11.7871" y2="9.13426" gradientUnits="userSpaceOnUse">
<stop stop-color="#F47659"/>
<stop offset="1" stop-color="#FE9075"/>
</linearGradient>
<linearGradient id="paint1_linear_764_52709" x1="37.087" y1="27.623" x2="37.087" y2="44.9889" gradientUnits="userSpaceOnUse">
<stop stop-color="#FF6943"/>
<stop offset="1" stop-color="#F34935"/>
</linearGradient>
</defs>
</svg>
