<svg width="57" height="57" viewBox="0 0 57 57" fill="none" xmlns="http://www.w3.org/2000/svg">
<rect x="0.5" y="0.291016" width="56" height="56" rx="28" fill="#E4EAF9"/>
<path d="M33.5542 11.7129H39.3065C40.6779 11.7129 41.7886 12.8239 41.7886 14.1956V42.747C41.7886 44.1187 40.6779 45.2297 39.3065 45.2297H18.2087C16.8373 45.2297 15.7266 44.1187 15.7266 42.747V14.1956C15.7266 12.8239 16.8373 11.7129 18.2087 11.7129H33.5542Z" fill="#5A9BF1"/>
<path d="M33.4581 14.4668H38.4864C38.8208 14.4668 39.0944 14.7405 39.0944 15.0751V41.8389C39.0944 42.1734 38.8208 42.4471 38.4864 42.4471H19.0299C18.6955 42.4471 18.4219 42.1734 18.4219 41.8389V15.0751C18.4219 14.7405 18.6955 14.4668 19.0299 14.4668H33.4581Z" fill="white"/>
<path d="M35.1394 31.3165H22.5115C22.1941 31.3165 21.9375 30.9984 21.9375 30.6065C21.9375 30.2146 22.1941 29.8965 22.5115 29.8965H35.1394C35.4569 29.8965 35.7134 30.2146 35.7134 30.6065C35.7134 30.9984 35.4569 31.3165 35.1394 31.3165Z" fill="#CBDDE6"/>
<path d="M35.1394 34.1602H22.5115C22.1941 34.1602 21.9375 33.8422 21.9375 33.4502C21.9375 33.0583 22.1941 32.7402 22.5115 32.7402H35.1394C35.4569 32.7402 35.7134 33.0583 35.7134 33.4502C35.7134 33.8422 35.4569 34.1602 35.1394 34.1602Z" fill="#CBDDE6"/>
<path d="M35.1394 36.9923H22.5115C22.1941 36.9923 21.9375 36.6742 21.9375 36.2823C21.9375 35.8903 22.1941 35.5723 22.5115 35.5723H35.1394C35.4569 35.5723 35.7134 35.8903 35.7134 36.2823C35.7134 36.6742 35.4569 36.9923 35.1394 36.9923Z" fill="#CBDDE6"/>
<path d="M33.7214 12.3261V13.5674C33.7214 14.2502 33.1629 14.8088 32.4803 14.8088H25.034C24.3514 14.8088 23.793 14.2502 23.793 13.5674V12.3261C23.793 11.6433 24.3514 11.0847 25.034 11.0847H26.2751V10.464C26.2751 9.78127 26.8335 9.22266 27.5161 9.22266H29.9982C30.6808 9.22266 31.2393 9.78127 31.2393 10.464V11.0847H32.4803C33.1629 11.0847 33.7214 11.6433 33.7214 12.3261Z" fill="#4364BB"/>
<path d="M31.8253 20.5011H30.6348V19.3103C30.6348 18.9816 30.3687 18.7148 30.0395 18.7148H27.6584C27.3292 18.7148 27.0632 18.9816 27.0632 19.3103V20.5011H25.8726C25.5434 20.5011 25.2773 20.7679 25.2773 21.0965V23.4782C25.2773 23.8069 25.5434 24.0736 25.8726 24.0736H27.0632V25.2645C27.0632 25.5932 27.3292 25.8599 27.6584 25.8599H30.0395C30.3687 25.8599 30.6348 25.5932 30.6348 25.2645V24.0736H31.8253C32.1545 24.0736 32.4206 23.8069 32.4206 23.4782V21.0965C32.4206 20.7679 32.1545 20.5011 31.8253 20.5011Z" fill="#5789F8"/>
</svg>
