<svg width="57" height="56" viewBox="0 0 57 56" fill="none" xmlns="http://www.w3.org/2000/svg">
<rect x="0.5" width="56" height="56" rx="28" fill="white"/>
<path d="M31.6344 15.3713C31.603 15.9705 31.3986 16.5477 31.0459 17.0331C30.6932 17.5185 30.2073 17.8912 29.6471 18.106C29.0869 18.3209 28.4764 18.3687 27.8895 18.2437C27.3027 18.1186 26.7647 17.8261 26.3407 17.4015C25.9168 16.977 25.625 16.4386 25.5008 15.8516C25.3766 15.2645 25.4253 14.6541 25.6409 14.0942C25.8566 13.5343 26.23 13.0489 26.7158 12.6969C27.2017 12.3449 27.7793 12.1413 28.3785 12.1108C28.8118 12.0906 29.2446 12.1612 29.649 12.3179C30.0535 12.4747 30.4208 12.7143 30.7273 13.0212C31.0338 13.3282 31.2728 13.6957 31.429 14.1004C31.5852 14.5051 31.6552 14.938 31.6344 15.3713Z" fill="#367FFF"/>
<path d="M31.6344 15.3713C31.603 15.9705 31.3986 16.5477 31.0459 17.0331C30.6932 17.5185 30.2073 17.8912 29.6471 18.106C29.0869 18.3209 28.4764 18.3687 27.8895 18.2437C27.3027 18.1186 26.7647 17.8261 26.3407 17.4015C25.9168 16.977 25.625 16.4386 25.5008 15.8516C25.3766 15.2645 25.4253 14.6541 25.6409 14.0942C25.8566 13.5343 26.23 13.0489 26.7158 12.6969C27.2017 12.3449 27.7793 12.1413 28.3785 12.1108C28.8118 12.0906 29.2446 12.1612 29.649 12.3179C30.0535 12.4747 30.4208 12.7143 30.7273 13.0212C31.0338 13.3282 31.2728 13.6957 31.429 14.1004C31.5852 14.5051 31.6552 14.938 31.6344 15.3713Z" fill="url(#paint0_linear_748_70082)"/>
<path d="M42.3912 27.9031C41.8943 28.5383 41.1748 28.5375 40.4365 28.2141C39.4521 27.782 37.0396 27.9516 34.9341 26.4578C34.7472 26.3247 34.5673 26.1821 34.3951 26.0305C35.3623 27.7883 37.4599 31.5141 35.7255 37.4125C35.174 39.2906 34.299 43.2469 34.2412 44.3109C34.231 44.4481 34.2726 44.5841 34.3576 44.6922C34.4758 44.846 34.561 45.0226 34.6076 45.2109C34.6194 45.2489 34.6223 45.289 34.6162 45.3282C34.61 45.3675 34.5949 45.4048 34.572 45.4373C34.5491 45.4697 34.5191 45.4965 34.4842 45.5155C34.4493 45.5345 34.4105 45.5452 34.3709 45.5469C33.5951 45.5391 30.9982 45.5508 30.381 45.5547C30.3278 45.5538 30.2762 45.5358 30.2339 45.5035C30.1916 45.4712 30.1607 45.4261 30.1459 45.375C29.8974 44.5633 29.2341 42.6367 28.599 36.6844C28.5966 36.6599 28.5852 36.6372 28.567 36.6207C28.5488 36.6042 28.5251 36.5951 28.5005 36.5951C28.476 36.5951 28.4523 36.6042 28.4341 36.6207C28.4159 36.6372 28.4045 36.6599 28.4021 36.6844C27.767 42.6367 27.1037 44.5633 26.8552 45.375C26.8404 45.426 26.8097 45.471 26.7675 45.5033C26.7254 45.5356 26.674 45.5536 26.6209 45.5547C26.0029 45.5508 23.406 45.5391 22.6302 45.5469C22.5905 45.5452 22.5518 45.5345 22.5169 45.5155C22.482 45.4965 22.452 45.4697 22.4291 45.4373C22.4062 45.4048 22.3911 45.3675 22.3849 45.3282C22.3788 45.289 22.3817 45.2489 22.3935 45.2109C22.4401 45.0226 22.5252 44.846 22.6435 44.6922C22.7289 44.5843 22.7705 44.4481 22.7599 44.3109C22.7021 43.2469 21.8271 39.2906 21.2755 37.4125C19.5427 31.518 21.6365 27.793 22.6045 26.0336C20.3896 27.9844 17.6357 27.7453 16.567 28.2141C15.8287 28.5375 15.1091 28.5383 14.6123 27.9031C14.5256 27.7936 14.4652 27.6657 14.4357 27.5291C14.4062 27.3926 14.4083 27.2512 14.442 27.1156C14.5107 26.8531 14.6771 26.793 14.663 26.6273C14.6177 26.0875 14.7779 25.9406 15.188 25.8484C17.7193 25.2797 21.3224 18.9922 28.5013 18.9922C35.6802 18.9922 39.2834 25.2797 41.8154 25.8484C42.2255 25.9406 42.3857 26.0875 42.3404 26.6273C42.3263 26.793 42.4927 26.8531 42.5615 27.1156C42.5951 27.2512 42.5973 27.3926 42.5677 27.5291C42.5382 27.6657 42.4778 27.7936 42.3912 27.9031Z" fill="#367FFF"/>
<path d="M42.3912 27.9031C41.8943 28.5383 41.1748 28.5375 40.4365 28.2141C39.4521 27.782 37.0396 27.9516 34.9341 26.4578C34.7472 26.3247 34.5673 26.1821 34.3951 26.0305C35.3623 27.7883 37.4599 31.5141 35.7255 37.4125C35.174 39.2906 34.299 43.2469 34.2412 44.3109C34.231 44.4481 34.2726 44.5841 34.3576 44.6922C34.4758 44.846 34.561 45.0226 34.6076 45.2109C34.6194 45.2489 34.6223 45.289 34.6162 45.3282C34.61 45.3675 34.5949 45.4048 34.572 45.4373C34.5491 45.4697 34.5191 45.4965 34.4842 45.5155C34.4493 45.5345 34.4105 45.5452 34.3709 45.5469C33.5951 45.5391 30.9982 45.5508 30.381 45.5547C30.3278 45.5538 30.2762 45.5358 30.2339 45.5035C30.1916 45.4712 30.1607 45.4261 30.1459 45.375C29.8974 44.5633 29.2341 42.6367 28.599 36.6844C28.5966 36.6599 28.5852 36.6372 28.567 36.6207C28.5488 36.6042 28.5251 36.5951 28.5005 36.5951C28.476 36.5951 28.4523 36.6042 28.4341 36.6207C28.4159 36.6372 28.4045 36.6599 28.4021 36.6844C27.767 42.6367 27.1037 44.5633 26.8552 45.375C26.8404 45.426 26.8097 45.471 26.7675 45.5033C26.7254 45.5356 26.674 45.5536 26.6209 45.5547C26.0029 45.5508 23.406 45.5391 22.6302 45.5469C22.5905 45.5452 22.5518 45.5345 22.5169 45.5155C22.482 45.4965 22.452 45.4697 22.4291 45.4373C22.4062 45.4048 22.3911 45.3675 22.3849 45.3282C22.3788 45.289 22.3817 45.2489 22.3935 45.2109C22.4401 45.0226 22.5252 44.846 22.6435 44.6922C22.7289 44.5843 22.7705 44.4481 22.7599 44.3109C22.7021 43.2469 21.8271 39.2906 21.2755 37.4125C19.5427 31.518 21.6365 27.793 22.6045 26.0336C20.3896 27.9844 17.6357 27.7453 16.567 28.2141C15.8287 28.5375 15.1091 28.5383 14.6123 27.9031C14.5256 27.7936 14.4652 27.6657 14.4357 27.5291C14.4062 27.3926 14.4083 27.2512 14.442 27.1156C14.5107 26.8531 14.6771 26.793 14.663 26.6273C14.6177 26.0875 14.7779 25.9406 15.188 25.8484C17.7193 25.2797 21.3224 18.9922 28.5013 18.9922C35.6802 18.9922 39.2834 25.2797 41.8154 25.8484C42.2255 25.9406 42.3857 26.0875 42.3404 26.6273C42.3263 26.793 42.4927 26.8531 42.5615 27.1156C42.5951 27.2512 42.5973 27.3926 42.5677 27.5291C42.5382 27.6657 42.4778 27.7936 42.3912 27.9031Z" fill="url(#paint1_linear_748_70082)"/>
<path d="M34.934 26.456C34.7471 26.3229 34.5672 26.1802 34.3949 26.0286C33.841 24.9607 33.5637 24.1114 33.3887 23.1935C33.3771 23.133 33.3776 23.0708 33.3901 23.0105C33.4026 22.9502 33.4268 22.893 33.4614 22.8421C33.5313 22.7392 33.6392 22.6683 33.7613 22.645C33.8835 22.6217 34.0099 22.6479 34.1127 22.7178C34.2156 22.7877 34.2865 22.8955 34.3098 23.0177C34.4691 23.8552 34.6824 25.2411 34.934 26.456Z" fill="#2951CE"/>
<path d="M22.0669 26.456C22.2538 26.3229 22.4337 26.1802 22.606 26.0286C23.1599 24.9607 23.4372 24.1114 23.6122 23.1935C23.6237 23.133 23.6233 23.0708 23.6108 23.0105C23.5983 22.9502 23.5741 22.893 23.5395 22.8421C23.5049 22.7911 23.4606 22.7475 23.4091 22.7137C23.3576 22.6799 23.3 22.6566 23.2396 22.645C23.1791 22.6335 23.1169 22.634 23.0566 22.6465C22.9963 22.6589 22.9391 22.6832 22.8882 22.7178C22.8372 22.7524 22.7936 22.7967 22.7598 22.8481C22.726 22.8996 22.7027 22.9572 22.6911 23.0177C22.5317 23.8552 22.3185 25.2411 22.0669 26.456Z" fill="#2951CE"/>
<defs>
<linearGradient id="paint0_linear_748_70082" x1="28.5358" y1="12.1074" x2="28.5358" y2="18.3118" gradientUnits="userSpaceOnUse">
<stop stop-color="#609FF1"/>
<stop offset="1" stop-color="#3B86E9"/>
</linearGradient>
<linearGradient id="paint1_linear_748_70082" x1="28.5017" y1="18.9922" x2="28.5017" y2="45.5547" gradientUnits="userSpaceOnUse">
<stop stop-color="#609FF1"/>
<stop offset="1" stop-color="#3B86E9"/>
</linearGradient>
</defs>
</svg>
