<svg width="41" height="41" viewBox="0 0 41 41" fill="none" xmlns="http://www.w3.org/2000/svg">
<rect x="0.5" y="0.445312" width="40" height="40" rx="20" fill="#F9F4F2"/>
<g clip-path="url(#clip0_693_80139)">
<path d="M17.6458 33.1528C17.0009 33.1529 16.3624 33.0249 15.7673 32.7763C15.1722 32.5277 14.6324 32.1634 14.1792 31.7045C13.726 31.2457 13.3684 30.7014 13.1271 30.1033C12.8859 29.5052 12.7658 28.8651 12.7738 28.2203L12.8512 21.9974L12.7884 15.5235C12.7784 14.5032 12.9707 13.491 13.3542 12.5455C13.7377 11.6 14.3049 10.7398 15.0229 10.0148C15.7408 9.28975 16.5954 8.71423 17.5371 8.32147C18.4789 7.92871 19.4891 7.72651 20.5095 7.72656C21.5235 7.72656 22.5276 7.9263 23.4644 8.31436C24.4012 8.70243 25.2524 9.27123 25.9694 9.98827C26.6864 10.7053 27.2551 11.5566 27.643 12.4934C28.031 13.4303 28.2307 14.4344 28.2306 15.4484V17.6202C28.2307 18.9763 27.8738 20.3085 27.1957 21.4829L21.8647 30.7168C21.4372 31.4575 20.8223 32.0726 20.0817 32.5002C19.3411 32.9278 18.501 33.1529 17.6458 33.1528Z" fill="#FFCEBB"/>
<g opacity="0.8">
<path d="M15.3932 30.2195L15.3931 30.2195C15.0387 29.8649 14.8196 29.3974 14.7738 28.8981C14.728 28.3988 14.8584 27.8992 15.1425 27.486L15.1425 27.486L16.0853 26.1157C16.0853 26.1156 16.0853 26.1156 16.0854 26.1155C16.7452 25.1535 17.1132 24.0215 17.1452 22.8554C17.1772 21.6893 16.8717 20.5387 16.2655 19.542L15.349 18.0396L15.349 18.0395C14.1532 16.078 14.3945 13.5544 15.9415 11.9029C15.9815 11.8598 16.0227 11.8171 16.0635 11.7756L16.0637 11.7755C16.6277 11.2029 17.2991 10.7472 18.0394 10.4344C18.7797 10.1216 19.5744 9.95777 20.3781 9.95236L20.3793 9.95235L20.434 9.95236H20.4341C21.2322 9.95293 22.0222 10.1109 22.7591 10.4172C23.4957 10.7234 24.1647 11.1719 24.7278 11.7369C25.318 12.3163 25.7867 13.0078 26.1063 13.7707C26.426 14.5338 26.5902 15.3531 26.5891 16.1805C26.5891 16.1805 26.5891 16.1806 26.5891 16.1807M15.3932 30.2195L25.8336 17.9852C25.8336 18.1464 25.9643 18.2771 26.1256 18.2771C26.2868 18.2771 26.4175 18.1464 26.4175 17.9852V16.1805L26.5891 16.1807M15.3932 30.2195L15.7975 30.6238C15.9786 30.8049 16.2722 30.8049 16.4533 30.6238L16.3319 30.5024M15.3932 30.2195L16.3319 30.5024M26.5891 16.1807L26.5891 17.9852C26.5891 18.2412 26.3816 18.4488 26.1256 18.4488C25.8695 18.4488 25.662 18.2412 25.662 17.9852V16.1805V16.1803C25.6627 15.4757 25.5228 14.778 25.2504 14.1281C24.978 13.4783 24.5787 12.8893 24.0758 12.3957L24.0747 12.3947L24.0747 12.3947C23.5913 11.9116 23.017 11.529 22.385 11.269C21.753 11.0089 21.0758 10.8766 20.3924 10.8796C19.709 10.8826 19.0329 11.0209 18.4033 11.2866C17.7736 11.5521 17.2028 11.9398 16.7237 12.4271M26.5891 16.1807L16.7237 12.4271M16.3319 30.5024L16.4533 30.6238C16.6344 30.4427 16.6344 30.1491 16.4533 29.968L16.3319 30.0894M16.3319 30.5024L16.3319 30.0894M16.7237 12.4271C16.7132 12.4377 16.7033 12.4477 16.6938 12.4573C16.6673 12.4841 16.6439 12.5077 16.6204 12.5337L16.6186 12.5357L16.6185 12.5357C15.359 13.882 15.1594 15.9465 16.1406 17.5573C16.1406 17.5573 16.1406 17.5573 16.1406 17.5573L17.0572 19.0613L17.0573 19.0615C17.7564 20.2108 18.1088 21.5376 18.0719 22.8824C18.035 24.2272 17.6104 25.5327 16.8493 26.6419L16.8492 26.6421L15.9064 28.0125L16.7237 12.4271ZM16.3319 30.0894L16.4533 29.968L16.049 29.5637C16.049 29.5637 16.049 29.5637 16.049 29.5637C15.8479 29.3624 15.7235 29.0972 15.6975 28.8139C15.6714 28.5306 15.7453 28.2472 15.9063 28.0126L16.3319 30.0894Z" fill="#EC9F8F" stroke="#EC9F8F" stroke-width="0.343333"/>
<path d="M19.3631 24.4223V24.4221C19.3631 24.2495 19.2232 24.1096 19.0506 24.1096H18.7485C18.5759 24.1096 18.4361 24.2494 18.436 24.4219C18.435 25.22 18.1176 25.9852 17.5532 26.5495C17.0542 27.0486 16.3981 27.3546 15.7011 27.4193C15.4623 27.4415 15.2541 27.6361 15.2541 27.8955C15.2541 28.1479 15.4617 28.3685 15.7312 28.3472C16.6633 28.2738 17.5428 27.8707 18.2086 27.2049C18.9467 26.4668 19.3619 25.4661 19.3631 24.4223Z" fill="#EC9F8F" stroke="#EC9F8F" stroke-width="0.343333"/>
<path d="M20.4263 15.5628V15.5635V17.3375C20.4259 17.9876 20.2652 18.6275 19.9584 19.2007L19.477 20.0993C19.3568 20.3237 19.4407 20.6031 19.6648 20.7241C19.8897 20.8456 20.1705 20.7613 20.2914 20.5361L20.774 19.6373L20.7741 19.6373C21.1534 18.9301 21.3524 18.1403 21.3535 17.3378V17.3376V15.565V15.5649C21.3534 14.4582 20.9763 13.3845 20.2844 12.5208C19.6555 11.7356 18.8006 11.1665 17.839 10.8879C17.5829 10.8136 17.3336 10.9804 17.2784 11.2267C17.2216 11.4798 17.3826 11.718 17.6165 11.7871C18.3823 12.0133 19.0633 12.4688 19.5654 13.0955C20.1261 13.7952 20.43 14.6661 20.4263 15.5628Z" fill="#EC9F8F" stroke="#EC9F8F" stroke-width="0.343333"/>
</g>
</g>
<defs>
<clipPath id="clip0_693_80139">
<rect width="26.6667" height="26.6667" fill="white" transform="translate(7.16699 7.1084)"/>
</clipPath>
</defs>
</svg>
