<svg width="57" height="57" viewBox="0 0 57 57" fill="none" xmlns="http://www.w3.org/2000/svg">
<rect x="0.994141" y="0.854492" width="55.8906" height="55.8906" rx="27.9453" fill="white"/>
<rect x="0.994141" y="0.854492" width="55.8906" height="55.8906" rx="27.9453" stroke="#EFEFF4" stroke-width="0.109375"/>
<path d="M46.3555 27.8506C46.3555 29.3695 45.1244 30.6006 43.6055 30.6006C42.0866 30.6006 40.8555 29.3695 40.8555 27.8506C40.8555 26.3317 43.6055 22.3506 43.6055 22.3506C43.6055 22.3506 46.3555 26.3317 46.3555 27.8506Z" fill="#F44336"/>
<path d="M46.3555 27.8506C46.3555 29.3695 45.1244 30.6006 43.6055 30.6006C42.0866 30.6006 40.8555 29.3695 40.8555 27.8506C40.8555 26.3317 43.6055 22.3506 43.6055 22.3506C43.6055 22.3506 46.3555 26.3317 46.3555 27.8506Z" fill="url(#paint0_linear_764_51737)"/>
<path d="M38.6996 35.6085C38.3558 34.6194 37.6151 34.2472 37.4006 33.6294C37.1706 32.9648 37.3942 32.5138 37.606 32.0133C37.8837 31.3551 37.9332 30.5998 37.6885 29.8958C37.4437 29.1918 36.9515 28.6693 36.3483 28.3897C35.7699 28.122 35.5655 27.386 35.8203 26.7507C36.0962 26.0614 36.1228 25.2721 35.8286 24.548C35.2685 23.1702 33.6753 22.6413 32.3076 23.2298L18.9766 28.9617L20.7842 34.1711L22.5919 39.3805L24.3996 44.59L36.8882 39.2201C38.2568 38.6316 39.0974 36.7561 38.6996 35.6085Z" fill="#F6B8AB"/>
<path d="M28.3776 20.6589C29.3126 22.8552 28.2896 25.3925 26.0942 26.3275C23.8979 27.2625 13.9951 25.4659 13.9951 25.4659C13.9951 25.4659 20.5135 19.3095 22.7099 18.3755C24.9062 17.4414 27.4435 18.4625 28.3776 20.6589Z" fill="#F6B8AB"/>
<path d="M37.0398 36.1612C36.4568 34.8064 35.97 34.5424 35.6373 33.7706C35.3054 32.9987 36.3092 32.1417 35.7088 30.7465C35.1084 29.3513 34.067 29.2487 33.7801 28.5822C33.4932 27.9158 34.1358 27.089 33.5363 25.6938C32.9368 24.2987 31.3271 23.6506 31.3271 23.6506L43.3978 18.4604C44.7929 17.8609 45.4374 16.243 44.8379 14.8478C44.2384 13.4527 42.6204 12.8082 41.2253 13.4077L15.9619 24.2702C12.2412 25.8698 10.5215 30.1837 12.122 33.9044L15.0187 40.641C16.6183 44.3617 20.9321 46.0814 24.6529 44.4809L35.6006 39.7738C36.9949 39.1743 37.6228 37.517 37.0398 36.1612Z" fill="#FFCEBB"/>
<path d="M43.0287 17.6209C43.96 17.224 44.3945 16.1479 43.9976 15.2165C43.6007 14.2852 42.5245 13.8507 41.5923 14.2476C41.4933 14.2898 40.8296 14.5767 40.6252 14.6638C39.6938 15.0607 41.1293 18.434 42.0616 18.0371C42.2688 17.9491 42.9324 17.6622 43.0287 17.6209Z" fill="#FFF1EB"/>
<defs>
<linearGradient id="paint0_linear_764_51737" x1="46.3555" y1="29.3107" x2="43.5872" y2="25.4835" gradientUnits="userSpaceOnUse">
<stop offset="0.0288461" stop-color="#E97271"/>
<stop offset="1" stop-color="#ED696C"/>
</linearGradient>
</defs>
</svg>
