<svg width="32" height="33" viewBox="0 0 32 33" fill="none" xmlns="http://www.w3.org/2000/svg">
<path d="M3.26953 15.2344V15.2344C3.26953 9.43539 7.97054 4.73438 13.7695 4.73438H17.7695C23.5685 4.73438 28.2695 9.43539 28.2695 15.2344V15.2344" stroke="#929299" stroke-width="2"/>
<path d="M18.0275 31.2117C17.8779 31.2184 17.7317 31.1655 17.6212 31.0645C17.5107 30.9634 17.4448 30.8227 17.4381 30.6731C17.4313 30.5235 17.4843 30.3774 17.5853 30.2668C17.6863 30.1563 17.8271 30.0904 17.9767 30.0837C19.7606 29.9269 21.4851 29.3647 23.0187 28.44C24.5523 27.5154 25.8545 26.2527 26.8258 24.7483C26.9081 24.6226 27.0369 24.5348 27.184 24.5041C27.2568 24.4889 27.3318 24.4882 27.4049 24.5021C27.478 24.5159 27.5476 24.544 27.6098 24.5847C27.672 24.6254 27.7256 24.678 27.7675 24.7395C27.8094 24.8009 27.8388 24.87 27.854 24.9428C27.8691 25.0156 27.8698 25.0907 27.856 25.1638C27.8422 25.2368 27.8141 25.3065 27.7734 25.3687C26.708 27.0157 25.281 28.398 23.601 29.4105C21.921 30.4231 20.0321 31.0391 18.0782 31.2117H18.0275Z" fill="#BEBEC7"/>
<path d="M16.8996 29.5703H14.6436C14.0206 29.5703 13.5156 30.0753 13.5156 30.6983C13.5156 31.3213 14.0206 31.8263 14.6436 31.8263H16.8996C17.5226 31.8263 18.0276 31.3213 18.0276 30.6983C18.0276 30.0753 17.5226 29.5703 16.8996 29.5703Z" fill="#74747A"/>
<path d="M3.98412 14.3984H2.74332C1.37277 14.3984 0.261719 15.5095 0.261719 16.88V23.084C0.261719 24.4546 1.37277 25.5656 2.74332 25.5656H3.98412C5.35467 25.5656 6.46572 24.4546 6.46572 23.084V16.88C6.46572 15.5095 5.35467 14.3984 3.98412 14.3984Z" fill="url(#paint0_linear_1272_115511)"/>
<path d="M28.8005 14.3984H27.5597C26.1892 14.3984 25.0781 15.5095 25.0781 16.88V23.084C25.0781 24.4546 26.1892 25.5656 27.5597 25.5656H28.8005C30.1711 25.5656 31.2821 24.4546 31.2821 23.084V16.88C31.2821 15.5095 30.1711 14.3984 28.8005 14.3984Z" fill="#09C520"/>
<path d="M28.8005 14.3984H27.5597C26.1892 14.3984 25.0781 15.5095 25.0781 16.88V23.084C25.0781 24.4546 26.1892 25.5656 27.5597 25.5656H28.8005C30.1711 25.5656 31.2821 24.4546 31.2821 23.084V16.88C31.2821 15.5095 30.1711 14.3984 28.8005 14.3984Z" fill="url(#paint1_linear_1272_115511)"/>
<path d="M10.9359 19.5827C10.7052 19.5827 10.4797 19.5143 10.2879 19.3861C10.0961 19.258 9.94659 19.0758 9.85832 18.8627C9.77004 18.6496 9.74694 18.4151 9.79194 18.1888C9.83695 17.9626 9.94803 17.7547 10.1111 17.5916C10.2743 17.4285 10.4821 17.3174 10.7083 17.2724C10.9346 17.2274 11.1691 17.2505 11.3822 17.3388C11.5954 17.4271 11.7775 17.5766 11.9057 17.7684C12.0338 17.9602 12.1022 18.1857 12.1022 18.4164C12.1022 18.7257 11.9794 19.0224 11.7606 19.2411C11.5419 19.4598 11.2452 19.5827 10.9359 19.5827Z" fill="#BEBEC7"/>
<path d="M15.4671 19.5827C15.2365 19.5827 15.0109 19.5143 14.8191 19.3861C14.6273 19.258 14.4778 19.0758 14.3896 18.8627C14.3013 18.6496 14.2782 18.4151 14.3232 18.1888C14.3682 17.9626 14.4793 17.7547 14.6424 17.5916C14.8055 17.4285 15.0133 17.3174 15.2396 17.2724C15.4658 17.2274 15.7004 17.2505 15.9135 17.3388C16.1266 17.4271 16.3088 17.5766 16.4369 17.7684C16.5651 17.9602 16.6335 18.1857 16.6335 18.4164C16.6335 18.7257 16.5106 19.0224 16.2919 19.2411C16.0731 19.4598 15.7765 19.5827 15.4671 19.5827Z" fill="#BEBEC7"/>
<path d="M20.0023 19.5827C19.7716 19.5827 19.5461 19.5143 19.3543 19.3861C19.1625 19.258 19.013 19.0758 18.9247 18.8627C18.8364 18.6496 18.8133 18.4151 18.8583 18.1888C18.9034 17.9626 19.0144 17.7547 19.1776 17.5916C19.3407 17.4285 19.5485 17.3174 19.7747 17.2724C20.001 17.2274 20.2355 17.2505 20.4486 17.3388C20.6618 17.4271 20.8439 17.5766 20.9721 17.7684C21.1002 17.9602 21.1686 18.1857 21.1686 18.4164C21.1686 18.7257 21.0458 19.0224 20.827 19.2411C20.6083 19.4598 20.3116 19.5827 20.0023 19.5827Z" fill="#BEBEC7"/>
<defs>
<linearGradient id="paint0_linear_1272_115511" x1="3.36372" y1="14.3984" x2="3.36372" y2="25.5656" gradientUnits="userSpaceOnUse">
<stop stop-color="#3DE94D"/>
<stop offset="1" stop-color="#09C520"/>
</linearGradient>
<linearGradient id="paint1_linear_1272_115511" x1="28.1801" y1="14.3984" x2="28.1801" y2="25.5656" gradientUnits="userSpaceOnUse">
<stop stop-color="#3DE94D"/>
<stop offset="1" stop-color="#09C520"/>
</linearGradient>
</defs>
</svg>
