<svg width="33" height="33" viewBox="0 0 33 33" fill="none" xmlns="http://www.w3.org/2000/svg">
<rect x="9.63281" y="12.8438" width="15.8395" height="7.91976" fill="white"/>
<path d="M16.5418 3.9375C9.51139 3.9375 3.70312 9.74576 3.70312 16.7762C3.70312 19.0035 4.28319 21.1846 5.39682 23.0639C6.25531 24.5722 5.76814 26.498 4.28319 27.3797C3.81914 27.6349 3.61039 28.1685 3.74961 28.679C3.88882 29.1894 4.32967 29.5375 4.86325 29.5375H16.5418C17.5627 29.5375 18.5604 29.4215 19.4189 29.2127C24.1291 28.1221 27.8878 24.3633 28.9783 19.6765C29.1872 18.7948 29.3031 17.8203 29.3031 16.7762C29.3031 9.74576 23.5722 3.9375 16.5418 3.9375ZM11.9013 17.9363C11.2516 17.9363 10.7412 17.4258 10.7412 16.7762C10.7412 16.1264 11.2516 15.616 11.9013 15.616C12.5511 15.616 13.0614 16.1264 13.0614 16.7762C13.0614 17.4258 12.5511 17.9363 11.9013 17.9363ZM16.5418 17.9363C15.8921 17.9363 15.3817 17.4258 15.3817 16.7762C15.3817 16.1264 15.8921 15.616 16.5418 15.616C17.1915 15.616 17.7019 16.1264 17.7019 16.7762C17.7019 17.4258 17.1915 17.9363 16.5418 17.9363ZM21.1823 17.9363C20.5325 17.9363 20.0222 17.4258 20.0222 16.7762C20.0222 16.1264 20.5325 15.616 21.1823 15.616C21.832 15.616 22.3424 16.1264 22.3424 16.7762C22.3424 17.4258 21.832 17.9363 21.1823 17.9363Z" fill="url(#paint0_linear_1272_115499)"/>
<defs>
<linearGradient id="paint0_linear_1272_115499" x1="19.9835" y1="31.8577" x2="19.9835" y2="3.9375" gradientUnits="userSpaceOnUse">
<stop stop-color="#00BF18"/>
<stop offset="1" stop-color="#3FEB4F"/>
</linearGradient>
</defs>
</svg>
