<svg width="24" height="24" viewBox="0 0 24 24" fill="none" xmlns="http://www.w3.org/2000/svg">
<path d="M14.5492 5.25C15.6492 5.25 16.5492 4.35 16.5492 3.25C16.5492 2.15 15.6492 1.25 14.5492 1.25C13.4492 1.25 12.5492 2.15 12.5492 3.25C12.5492 4.35 13.4492 5.25 14.5492 5.25ZM10.9492 19.15L11.9492 14.75L14.0492 16.75V22.75H16.0492V15.25L13.9492 13.25L14.5492 10.25C15.8492 11.75 17.8492 12.75 20.0492 12.75V10.75C18.1492 10.75 16.5492 9.75 15.7492 8.35L14.7492 6.75C14.3492 6.15 13.7492 5.75 13.0492 5.75C12.7492 5.75 12.5492 5.85 12.2492 5.85L7.04922 8.05V12.75H9.04922V9.35L10.8492 8.65L9.24922 16.75L4.34922 15.75L3.94922 17.75L10.9492 19.15Z" fill="#00BF18"/>
</svg>
