<svg width="16" height="16" viewBox="0 0 16 16" fill="none" xmlns="http://www.w3.org/2000/svg">
<path d="M5.79473 13.4999H3.00098C2.86837 13.4999 2.74119 13.4473 2.64743 13.3535C2.55366 13.2597 2.50098 13.1326 2.50098 12.9999V10.2062C2.50075 10.1413 2.51333 10.0769 2.538 10.0169C2.56266 9.95682 2.59893 9.90222 2.64473 9.85619L10.1447 2.3562C10.1913 2.30895 10.2467 2.27144 10.3079 2.24583C10.369 2.22022 10.4347 2.20703 10.501 2.20703C10.5673 2.20703 10.6329 2.22022 10.6941 2.24583C10.7552 2.27144 10.8107 2.30895 10.8572 2.3562L13.6447 5.1437C13.692 5.19022 13.7295 5.24568 13.7551 5.30684C13.7807 5.368 13.7939 5.43364 13.7939 5.49995C13.7939 5.56625 13.7807 5.63189 13.7551 5.69305C13.7295 5.75421 13.692 5.80967 13.6447 5.85619L6.14473 13.3562C6.09871 13.402 6.0441 13.4383 5.98405 13.4629C5.92399 13.4876 5.85965 13.5002 5.79473 13.4999V13.4999Z" stroke="#1D1D1E" stroke-linecap="round" stroke-linejoin="round"/>
<path d="M8.50098 4L12.001 7.5" stroke="#1D1D1E" stroke-linecap="round" stroke-linejoin="round"/>
</svg>
