<svg width="59" height="58" viewBox="0 0 59 58" fill="none" xmlns="http://www.w3.org/2000/svg">
<g clip-path="url(#clip0_1432_141449)">
<path d="M11.4371 11.0452H38.8008V42.8633C38.8008 44.2692 37.6611 45.4088 36.2553 45.4088H13.9826C12.5768 45.4088 11.4371 44.2692 11.4371 42.8633V11.0452Z" fill="#DADAE4"/>
<path d="M14.6189 11.0452H35.6189V37.7724C35.6189 39.1783 34.4793 40.3179 33.0734 40.3179H17.1644C15.7585 40.3179 14.6189 39.1783 14.6189 37.7724V11.0452Z" fill="#C1C7D5"/>
<path d="M38.2079 19.3179H42.1418C43.5476 19.3179 44.6872 20.4575 44.6872 21.8633V34.5906C44.6872 35.9964 43.5476 37.1361 42.1418 37.1361H38.2079" stroke="#DADAE4" stroke-width="4.45455" stroke-linecap="round" stroke-linejoin="round"/>
<path d="M34.9826 6.59058C37.0913 6.59058 38.8008 8.30003 38.8008 10.4088V12.9542H25.4921C24.1934 12.9542 23.1029 13.9319 22.9617 15.2229L22.063 23.44C21.6118 27.5646 16.6807 29.4462 13.5966 26.6705L13.1224 26.2437C12.0497 25.2782 11.4371 23.9028 11.4371 22.4596L11.4371 11.6815C11.4371 8.86986 13.7164 6.59058 16.528 6.59058H34.9826Z" fill="#EFEFEF"/>
<path d="M5.22396 24.5597C8.77881 21.0051 14.5428 21.0056 18.0976 24.5604C21.6521 28.1151 21.6521 33.8785 18.0976 37.4333C14.5428 40.988 8.77881 40.9886 5.22396 37.434C1.66913 33.8792 1.66913 28.1145 5.22396 24.5597Z" stroke="#959AA1" stroke-width="1.90909"/>
</g>
<path d="M58.5297 54.9984C58.5246 55.4936 58.374 55.9764 58.0968 56.3868C57.8195 56.7972 57.4278 57.1171 56.9703 57.3066C56.5127 57.4962 56.0096 57.5472 55.5233 57.4532C55.0371 57.3591 54.5892 57.1243 54.2353 56.7778L47.853 50.3956L51.4119 46.8367L57.7942 53.2189C58.0282 53.4523 58.2136 53.7297 58.3399 54.0351C58.4661 54.3405 58.5306 54.6679 58.5297 54.9984Z" fill="url(#paint0_linear_1432_141449)"/>
<path d="M49.3892 45.3054L46.3191 48.3755C45.8558 48.8388 45.8558 49.5899 46.3191 50.0532L47.0153 50.7494C47.4786 51.2127 48.2297 51.2127 48.693 50.7494L51.7631 47.6793C52.2264 47.216 52.2264 46.4649 51.7631 46.0016L51.0669 45.3054C50.6036 44.8421 49.8525 44.8421 49.3892 45.3054Z" fill="url(#paint1_linear_1432_141449)"/>
<path d="M40.7356 51.5824C47.2874 51.5824 52.5986 46.2711 52.5986 39.7194C52.5986 33.1677 47.2874 27.8564 40.7356 27.8564C34.1839 27.8564 28.8727 33.1677 28.8727 39.7194C28.8727 46.2711 34.1839 51.5824 40.7356 51.5824Z" fill="url(#paint2_linear_1432_141449)"/>
<path d="M40.7357 49.21C45.9771 49.21 50.2261 44.961 50.2261 39.7196C50.2261 34.4782 45.9771 30.2292 40.7357 30.2292C35.4943 30.2292 31.2454 34.4782 31.2454 39.7196C31.2454 44.961 35.4943 49.21 40.7357 49.21Z" fill="url(#paint3_linear_1432_141449)"/>
<path d="M40.7362 42.0913C39.0398 42.0913 39.1584 39.1137 41.1158 38.4731C41.3224 38.4033 41.5057 38.2779 41.6457 38.1107C41.7857 37.9435 41.8769 37.741 41.9093 37.5253C41.9417 37.3097 41.914 37.0893 41.8293 36.8883C41.7446 36.6874 41.6061 36.5137 41.4291 36.3863C41.2521 36.2589 41.0434 36.1828 40.826 36.1663C40.6086 36.1498 40.3908 36.1935 40.1966 36.2927C40.0024 36.3919 39.8393 36.5427 39.7252 36.7285C39.6111 36.9144 39.5504 37.128 39.5499 37.3461C39.5499 37.6607 39.4249 37.9625 39.2024 38.1849C38.9799 38.4074 38.6782 38.5324 38.3636 38.5324C36.0977 38.5324 37.1773 33.7872 40.7362 33.7872C41.5892 33.7686 42.4205 34.0571 43.0787 34.6001C43.7368 35.1431 44.178 35.9046 44.3218 36.7456C44.4655 37.5867 44.3024 38.4514 43.862 39.1822C43.4215 39.913 42.7332 40.4612 41.9225 40.727V40.905C41.9225 41.2196 41.7975 41.5214 41.575 41.7438C41.3525 41.9663 41.0508 42.0913 40.7362 42.0913Z" fill="#8FB7D7"/>
<path d="M40.7355 45.6521C40.5009 45.6521 40.2715 45.5826 40.0764 45.4522C39.8813 45.3219 39.7293 45.1366 39.6395 44.9198C39.5497 44.703 39.5262 44.4645 39.572 44.2344C39.6178 44.0043 39.7307 43.7929 39.8967 43.627C40.0626 43.4611 40.2739 43.3481 40.5041 43.3023C40.7342 43.2566 40.9727 43.2801 41.1895 43.3698C41.4062 43.4596 41.5915 43.6117 41.7219 43.8068C41.8522 44.0019 41.9218 44.2312 41.9218 44.4658C41.9218 44.7805 41.7968 45.0822 41.5743 45.3047C41.3519 45.5271 41.0501 45.6521 40.7355 45.6521Z" fill="#8FB7D7"/>
<defs>
<linearGradient id="paint0_linear_1432_141449" x1="47.853" y1="52.175" x2="58.5297" y2="52.175" gradientUnits="userSpaceOnUse">
<stop stop-color="#526195"/>
<stop offset="1" stop-color="#7585AD"/>
</linearGradient>
<linearGradient id="paint1_linear_1432_141449" x1="45.9632" y1="48.0199" x2="52.1073" y2="48.0199" gradientUnits="userSpaceOnUse">
<stop stop-color="#526195"/>
<stop offset="1" stop-color="#7585AD"/>
</linearGradient>
<linearGradient id="paint2_linear_1432_141449" x1="28.8727" y1="39.7194" x2="52.5986" y2="39.7194" gradientUnits="userSpaceOnUse">
<stop stop-color="#526195"/>
<stop offset="1" stop-color="#7585AD"/>
</linearGradient>
<linearGradient id="paint3_linear_1432_141449" x1="31.2454" y1="39.7196" x2="50.2261" y2="39.7196" gradientUnits="userSpaceOnUse">
<stop stop-color="#D3E6F5"/>
<stop offset="1" stop-color="#F0F7FC"/>
</linearGradient>
<clipPath id="clip0_1432_141449">
<rect width="48.3729" height="48.3729" fill="white" transform="translate(1.57068 1.60205)"/>
</clipPath>
</defs>
</svg>
