<svg width="58" height="57" viewBox="0 0 58 57" fill="none" xmlns="http://www.w3.org/2000/svg">
<g clip-path="url(#clip0_1432_141138)">
<mask id="mask0_1432_141138" style="mask-type:alpha" maskUnits="userSpaceOnUse" x="-1" y="1" width="53" height="53">
<path d="M51.9761 32.7383C49.6113 27.3587 44.3534 23.6163 38.2466 23.6162C29.9273 23.6162 23.1831 30.562 23.1831 39.1299C23.1833 45.6069 27.0379 51.1556 32.5132 53.4785H-0.390137V1.1123H51.9761V32.7383ZM51.9761 53.4785H43.98C47.5295 51.9726 50.3975 49.1112 51.9761 45.5195V53.4785Z" fill="#D9D9D9"/>
</mask>
<g mask="url(#mask0_1432_141138)">
<path d="M38.6495 13.283V10.6755C38.6495 8.75532 37.1381 7.19873 35.2737 7.19873H8.26685C6.40241 7.19873 4.89099 8.75532 4.89099 10.6755V48.0504C4.89099 49.9705 6.40241 51.5271 8.26685 51.5271H38.6495V13.283Z" fill="#CFCFD8"/>
<path d="M30.2108 7.19757V9.80512C30.2108 10.7652 29.4551 11.5435 28.5229 11.5435H15.0195C14.0873 11.5435 13.3315 10.7652 13.3315 9.80512V7.19757C13.3315 5.75746 14.4651 4.59002 15.8634 4.59002H16.7074V3.72083C16.7074 2.28072 17.841 1.11328 19.2393 1.11328H24.3031C25.7014 1.11328 26.835 2.28072 26.835 3.72083V4.59002H27.6789C29.0772 4.59002 30.2108 5.75746 30.2108 7.19757Z" fill="#BCBCC2"/>
<path d="M23.4587 35.876C23.4539 40.6036 25.5303 45.0785 29.1048 48.0446H8.26733V10.6697H13.559C13.8602 11.207 14.4166 11.5382 15.019 11.5389H28.5225C29.1249 11.5382 29.6813 11.207 29.9825 10.6697H36.1181V10.6715C35.9904 10.7466 36.4642 10.3934 36.1181 10.6715V16.754V24.9831C28.8095 26.2514 37.2469 30.0811 23.4587 35.876Z" fill="white"/>
<path d="M21.7719 17.627V26.3189C21.7719 28.239 20.2604 29.7956 18.396 29.7956L19.0796 41.1037C19.0796 41.1559 19.088 41.208 19.088 41.2602C19.0892 42.1547 18.6168 42.9787 17.8557 43.4097C17.0946 43.8407 16.1659 43.8101 15.4331 43.3299C14.7002 42.8498 14.2799 41.9963 14.3365 41.1037L15.0201 29.7956C13.1557 29.7956 11.6443 28.239 11.6443 26.3189V17.627C11.6512 16.6699 12.4029 15.8958 13.3322 15.8887C14.2644 15.8887 15.0201 16.667 15.0201 17.627C15.0178 17.1659 15.1975 16.7235 15.5181 16.4015C15.6198 16.2921 15.7364 16.1985 15.8641 16.1234C16.3861 15.813 17.0292 15.8128 17.5513 16.1229C18.0734 16.433 18.3954 17.0063 18.396 17.627C18.3936 17.1659 18.5733 16.7235 18.8939 16.4015C18.9957 16.2921 19.1122 16.1985 19.24 16.1234C19.7619 15.813 20.405 15.8128 20.9271 16.1229C21.4493 16.433 21.7712 17.0063 21.7719 17.627Z" fill="#C6D0D6"/>
<path d="M23.457 8.9371H20.0811C19.615 8.9371 19.2372 8.54795 19.2372 8.06791C19.2372 7.58788 19.615 7.19873 20.0811 7.19873H23.457C23.9231 7.19873 24.301 7.58788 24.301 8.06791C24.301 8.54795 23.9231 8.9371 23.457 8.9371Z" fill="#9BA2AB"/>
<path d="M19.2372 16.1226V23.7105C19.2372 24.1906 18.8594 24.5797 18.3933 24.5797C17.9272 24.5797 17.5493 24.1906 17.5493 23.7105V16.1226C18.071 16.4328 18.3927 17.0058 18.3933 17.6262C18.3909 17.1651 18.5706 16.7227 18.8912 16.4007C18.993 16.2913 19.1095 16.1977 19.2372 16.1226Z" fill="#95A5A5"/>
<path d="M15.8633 16.1226V23.7105C15.8633 24.1906 15.4855 24.5797 15.0194 24.5797C14.5533 24.5797 14.1754 24.1906 14.1754 23.7105V16.1226C14.6971 16.4328 15.0188 17.0058 15.0194 17.6262C15.017 17.1651 15.1967 16.7227 15.5173 16.4007C15.6191 16.2913 15.7356 16.1977 15.8633 16.1226Z" fill="#95A5A5"/>
</g>
</g>
<path d="M57.5305 53.9984C57.5254 54.4936 57.3749 54.9764 57.0976 55.3868C56.8204 55.7972 56.4287 56.1171 55.9711 56.3066C55.5136 56.4962 55.0104 56.5472 54.5242 56.4532C54.0379 56.3591 53.59 56.1243 53.2362 55.7778L46.8539 49.3956L50.4128 45.8367L56.795 52.2189C57.029 52.4523 57.2145 52.7297 57.3407 53.0351C57.467 53.3405 57.5315 53.6679 57.5305 53.9984Z" fill="url(#paint0_linear_1432_141138)"/>
<path d="M48.3895 44.3054L45.3193 47.3755C44.856 47.8388 44.856 48.5899 45.3193 49.0532L46.0155 49.7494C46.4788 50.2127 47.2299 50.2127 47.6932 49.7494L50.7634 46.6793C51.2266 46.216 51.2266 45.4649 50.7634 45.0016L50.0671 44.3054C49.6039 43.8421 48.8527 43.8421 48.3895 44.3054Z" fill="url(#paint1_linear_1432_141138)"/>
<path d="M39.7359 50.5824C46.2876 50.5824 51.5988 45.2711 51.5988 38.7194C51.5988 32.1677 46.2876 26.8564 39.7359 26.8564C33.1841 26.8564 27.8729 32.1677 27.8729 38.7194C27.8729 45.2711 33.1841 50.5824 39.7359 50.5824Z" fill="url(#paint2_linear_1432_141138)"/>
<path d="M39.736 48.21C44.9774 48.21 49.2263 43.961 49.2263 38.7196C49.2263 33.4782 44.9774 29.2292 39.736 29.2292C34.4946 29.2292 30.2456 33.4782 30.2456 38.7196C30.2456 43.961 34.4946 48.21 39.736 48.21Z" fill="url(#paint3_linear_1432_141138)"/>
<path d="M39.7358 41.0913C38.0394 41.0913 38.158 38.1137 40.1154 37.4731C40.322 37.4033 40.5054 37.2779 40.6454 37.1107C40.7854 36.9435 40.8765 36.741 40.9089 36.5253C40.9413 36.3097 40.9136 36.0893 40.8289 35.8883C40.7442 35.6874 40.6057 35.5137 40.4288 35.3863C40.2518 35.2589 40.0431 35.1828 39.8256 35.1663C39.6082 35.1498 39.3904 35.1935 39.1962 35.2927C39.002 35.3919 38.8389 35.5427 38.7248 35.7285C38.6107 35.9144 38.5501 36.128 38.5495 36.3461C38.5495 36.6607 38.4245 36.9625 38.202 37.1849C37.9796 37.4074 37.6778 37.5324 37.3632 37.5324C35.0974 37.5324 36.1769 32.7872 39.7358 32.7872C40.5888 32.7686 41.4202 33.0571 42.0783 33.6001C42.7365 34.1431 43.1776 34.9046 43.3214 35.7456C43.4652 36.5867 43.302 37.4514 42.8616 38.1822C42.4212 38.913 41.7329 39.4612 40.9221 39.727V39.905C40.9221 40.2196 40.7971 40.5214 40.5746 40.7438C40.3522 40.9663 40.0504 41.0913 39.7358 41.0913Z" fill="#8FB7D7"/>
<path d="M39.7357 44.6521C39.5011 44.6521 39.2717 44.5826 39.0767 44.4522C38.8816 44.3219 38.7295 44.1366 38.6397 43.9198C38.55 43.703 38.5265 43.4645 38.5722 43.2344C38.618 43.0043 38.731 42.7929 38.8969 42.627C39.0628 42.4611 39.2742 42.3481 39.5043 42.3023C39.7344 42.2566 39.9729 42.2801 40.1897 42.3698C40.4065 42.4596 40.5918 42.6117 40.7221 42.8068C40.8525 43.0019 40.922 43.2312 40.922 43.4658C40.922 43.7805 40.797 44.0822 40.5746 44.3047C40.3521 44.5271 40.0504 44.6521 39.7357 44.6521Z" fill="#8FB7D7"/>
<defs>
<linearGradient id="paint0_linear_1432_141138" x1="46.8539" y1="51.175" x2="57.5305" y2="51.175" gradientUnits="userSpaceOnUse">
<stop stop-color="#526195"/>
<stop offset="1" stop-color="#7585AD"/>
</linearGradient>
<linearGradient id="paint1_linear_1432_141138" x1="44.9634" y1="47.0199" x2="51.1075" y2="47.0199" gradientUnits="userSpaceOnUse">
<stop stop-color="#526195"/>
<stop offset="1" stop-color="#7585AD"/>
</linearGradient>
<linearGradient id="paint2_linear_1432_141138" x1="27.8729" y1="38.7194" x2="51.5988" y2="38.7194" gradientUnits="userSpaceOnUse">
<stop stop-color="#526195"/>
<stop offset="1" stop-color="#7585AD"/>
</linearGradient>
<linearGradient id="paint3_linear_1432_141138" x1="30.2456" y1="38.7196" x2="49.2263" y2="38.7196" gradientUnits="userSpaceOnUse">
<stop stop-color="#D3E6F5"/>
<stop offset="1" stop-color="#F0F7FC"/>
</linearGradient>
<clipPath id="clip0_1432_141138">
<rect width="54.1716" height="54.1716" fill="white" transform="translate(0.270264 1.1167)"/>
</clipPath>
</defs>
</svg>
