<svg width="59" height="57" viewBox="0 0 59 57" fill="none" xmlns="http://www.w3.org/2000/svg">
<path fill-rule="evenodd" clip-rule="evenodd" d="M8.24365 12.5013C8.24365 7.78916 12.0636 3.96924 16.7757 3.96924H33.8397C38.5518 3.96924 42.3718 7.78916 42.3718 12.5013V34.8979C42.3718 43.733 35.2093 50.8954 26.3742 50.8954H24.2412C15.406 50.8954 8.24365 43.733 8.24365 34.8979V12.5013ZM17.8422 9.30176C15.4861 9.30176 13.5762 11.2117 13.5762 13.5678V30.6318C13.5762 32.988 15.4861 34.8979 17.8422 34.8979H32.7732C35.1294 34.8979 37.0393 32.988 37.0393 30.6318V13.5678C37.0393 11.2117 35.1294 9.30176 32.7732 9.30176H17.8422ZM25.3077 16.7673L26.775 15.2191C25.9521 14.4393 24.6633 14.4393 23.8404 15.2191L25.3077 16.7673ZM25.3077 16.7673C23.8404 15.2191 23.8404 15.2191 23.8404 15.2191L23.8379 15.2215L23.8338 15.2254L23.821 15.2376L23.7777 15.2792C23.7412 15.3144 23.69 15.3644 23.6258 15.4276C23.4979 15.554 23.318 15.7344 23.1037 15.9572C22.6773 16.4006 22.1031 17.0237 21.5229 17.7337C20.9495 18.4355 20.333 19.2675 19.8496 20.126C19.3984 20.9274 18.9087 22.0163 18.9087 23.1663C18.9087 26.7005 21.7735 29.5653 25.3077 29.5653C28.8419 29.5653 31.7067 26.7005 31.7067 23.1663C31.7067 22.0163 31.217 20.9274 30.7659 20.126C30.2825 19.2675 29.6659 18.4355 29.0925 17.7337C28.5123 17.0237 27.9381 16.4006 27.5117 15.9572C27.2974 15.7344 27.1176 15.554 26.9896 15.4276C26.9254 15.3644 26.8742 15.3144 26.8377 15.2792L26.7944 15.2376L26.7816 15.2254L26.7776 15.2215L26.775 15.2191C26.775 15.2191 26.775 15.2191 25.3077 16.7673ZM22.1082 42.3634H16.7757V38.0974H22.1082V42.3634ZM28.5072 42.3634H33.8397V38.0974H28.5072V42.3634Z" fill="#BFCAD8"/>
<path fill-rule="evenodd" clip-rule="evenodd" d="M8.24365 12.5013C8.24365 7.78916 12.0636 3.96924 16.7757 3.96924H33.8397C38.5518 3.96924 42.3718 7.78916 42.3718 12.5013V34.8979C42.3718 43.733 35.2093 50.8954 26.3742 50.8954H24.2412C15.406 50.8954 8.24365 43.733 8.24365 34.8979V12.5013ZM17.8422 9.30176C15.4861 9.30176 13.5762 11.2117 13.5762 13.5678V30.6318C13.5762 32.988 15.4861 34.8979 17.8422 34.8979H32.7732C35.1294 34.8979 37.0393 32.988 37.0393 30.6318V13.5678C37.0393 11.2117 35.1294 9.30176 32.7732 9.30176H17.8422ZM25.3077 14.6343C26.1398 14.6343 26.775 15.2191 26.775 15.2191C25.9521 14.4393 24.6633 14.4393 23.8404 15.2191C23.8404 15.2191 24.4756 14.6343 25.3077 14.6343ZM22.1082 42.3634H16.7757V38.0974H22.1082V42.3634ZM28.5072 42.3634H33.8397V38.0974H28.5072V42.3634Z" fill="#BFCAD8"/>
<path d="M58.0297 53.9986C58.0246 54.4939 57.874 54.9767 57.5968 55.387C57.3195 55.7974 56.9278 56.1173 56.4703 56.3069C56.0127 56.4965 55.5096 56.5474 55.0233 56.4534C54.5371 56.3594 54.0892 56.1245 53.7353 55.7781L47.353 49.3958L50.9119 45.8369L57.2942 52.2192C57.5282 52.4525 57.7136 52.7299 57.8399 53.0354C57.9661 53.3408 58.0306 53.6682 58.0297 53.9986Z" fill="url(#paint0_linear_1432_140675)"/>
<path d="M48.8892 44.3054L45.8191 47.3755C45.3558 47.8388 45.3558 48.5899 45.8191 49.0532L46.5153 49.7494C46.9786 50.2127 47.7297 50.2127 48.193 49.7494L51.2631 46.6793C51.7264 46.216 51.7264 45.4649 51.2631 45.0016L50.5669 44.3054C50.1036 43.8421 49.3525 43.8421 48.8892 44.3054Z" fill="url(#paint1_linear_1432_140675)"/>
<path d="M40.2356 50.5824C46.7874 50.5824 52.0986 45.2711 52.0986 38.7194C52.0986 32.1677 46.7874 26.8564 40.2356 26.8564C33.6839 26.8564 28.3727 32.1677 28.3727 38.7194C28.3727 45.2711 33.6839 50.5824 40.2356 50.5824Z" fill="url(#paint2_linear_1432_140675)"/>
<path d="M40.2357 48.2097C45.4771 48.2097 49.7261 43.9607 49.7261 38.7194C49.7261 33.478 45.4771 29.229 40.2357 29.229C34.9943 29.229 30.7454 33.478 30.7454 38.7194C30.7454 43.9607 34.9943 48.2097 40.2357 48.2097Z" fill="url(#paint3_linear_1432_140675)"/>
<path d="M40.2362 41.091C38.5398 41.091 38.6584 38.1134 40.6158 37.4728C40.8224 37.4031 41.0057 37.2777 41.1457 37.1105C41.2857 36.9433 41.3769 36.7407 41.4093 36.5251C41.4417 36.3094 41.414 36.089 41.3293 35.8881C41.2446 35.6872 41.1061 35.5135 40.9291 35.3861C40.7521 35.2587 40.5434 35.1826 40.326 35.166C40.1086 35.1495 39.8908 35.1933 39.6966 35.2924C39.5024 35.3916 39.3393 35.5424 39.2252 35.7283C39.1111 35.9141 39.0504 36.1278 39.0499 36.3459C39.0499 36.6605 38.9249 36.9622 38.7024 37.1847C38.4799 37.4072 38.1782 37.5322 37.8636 37.5322C35.5977 37.5322 36.6773 32.787 40.2362 32.787C41.0892 32.7684 41.9205 33.0569 42.5787 33.5999C43.2368 34.1429 43.678 34.9043 43.8218 35.7454C43.9655 36.5864 43.8024 37.4511 43.362 38.1819C42.9215 38.9127 42.2332 39.461 41.4225 39.7268V39.9048C41.4225 40.2194 41.2975 40.5211 41.075 40.7436C40.8525 40.9661 40.5508 41.091 40.2362 41.091Z" fill="#8FB7D7"/>
<path d="M40.2355 44.6524C40.0009 44.6524 39.7715 44.5828 39.5764 44.4525C39.3813 44.3221 39.2293 44.1368 39.1395 43.9201C39.0497 43.7033 39.0262 43.4648 39.072 43.2346C39.1178 43.0045 39.2307 42.7931 39.3967 42.6272C39.5626 42.4613 39.7739 42.3484 40.0041 42.3026C40.2342 42.2568 40.4727 42.2803 40.6895 42.3701C40.9062 42.4599 41.0915 42.6119 41.2219 42.807C41.3522 43.0021 41.4218 43.2315 41.4218 43.4661C41.4218 43.7807 41.2968 44.0824 41.0743 44.3049C40.8519 44.5274 40.5501 44.6524 40.2355 44.6524Z" fill="#8FB7D7"/>
<defs>
<linearGradient id="paint0_linear_1432_140675" x1="47.353" y1="51.1752" x2="58.0297" y2="51.1752" gradientUnits="userSpaceOnUse">
<stop stop-color="#526195"/>
<stop offset="1" stop-color="#7585AD"/>
</linearGradient>
<linearGradient id="paint1_linear_1432_140675" x1="45.4632" y1="47.0199" x2="51.6073" y2="47.0199" gradientUnits="userSpaceOnUse">
<stop stop-color="#526195"/>
<stop offset="1" stop-color="#7585AD"/>
</linearGradient>
<linearGradient id="paint2_linear_1432_140675" x1="28.3727" y1="38.7194" x2="52.0986" y2="38.7194" gradientUnits="userSpaceOnUse">
<stop stop-color="#526195"/>
<stop offset="1" stop-color="#7585AD"/>
</linearGradient>
<linearGradient id="paint3_linear_1432_140675" x1="30.7454" y1="38.7194" x2="49.7261" y2="38.7194" gradientUnits="userSpaceOnUse">
<stop stop-color="#D3E6F5"/>
<stop offset="1" stop-color="#F0F7FC"/>
</linearGradient>
</defs>
</svg>
