<svg width="59" height="58" viewBox="0 0 59 58" fill="none" xmlns="http://www.w3.org/2000/svg">
<path d="M34.5555 12.6774C35.9268 9.31561 39.7637 7.70198 43.1255 9.07327C46.4873 10.4446 48.101 14.2815 46.7297 17.6433L44.0481 24.2173L31.8739 19.2515L34.5555 12.6774Z" fill="#BCC8D8"/>
<path d="M41.3666 30.7913C39.9953 34.1531 36.1584 35.7668 32.7966 34.3955C29.4348 33.0242 27.8211 29.1873 29.1924 25.8255L31.874 19.2514L44.0482 24.2173L41.3666 30.7913Z" fill="#D2DCE9"/>
<path d="M25.1011 42.3062C25.6093 41.2524 25.905 40.1088 25.9712 38.9407C26.0374 37.7726 25.8729 36.6029 25.487 35.4984C25.1012 34.3939 24.5016 33.3762 23.7224 32.5034C22.9433 31.6306 21.9999 30.9199 20.9461 30.4117C19.8922 29.9035 18.7486 29.6079 17.5805 29.5417C16.4125 29.4755 15.2428 29.64 14.1383 30.0258C13.0338 30.4116 12.0161 31.0113 11.1433 31.7904C10.2705 32.5695 9.55973 33.513 9.05156 34.5668L17.0763 38.4365L25.1011 42.3062Z" fill="#C1C7D5"/>
<path d="M25.1011 42.3064C24.5929 43.3603 23.8821 44.3037 23.0093 45.0828C22.1365 45.862 21.1189 46.4616 20.0143 46.8474C18.9098 47.2332 17.7402 47.3977 16.5721 47.3315C15.404 47.2653 14.2604 46.9697 13.2066 46.4615C12.1527 45.9533 11.2093 45.2426 10.4302 44.3698C9.65102 43.497 9.05142 42.4793 8.66558 41.3748C8.27975 40.2703 8.11524 39.1006 8.18145 37.9325C8.24766 36.7644 8.54329 35.6208 9.05147 34.567L17.0763 38.4367L25.1011 42.3064Z" fill="#DADAE4"/>
<circle cx="28.9373" cy="11.3629" r="1.59091" fill="#BCC8D8"/>
<rect x="5.07556" y="19.4775" width="10.5966" height="19.3671" rx="5.29828" transform="rotate(-58.8396 5.07556 19.4775)" fill="#DADAE4"/>
<path d="M58.5297 54.9986C58.5246 55.4939 58.374 55.9767 58.0968 56.387C57.8195 56.7974 57.4278 57.1173 56.9703 57.3069C56.5127 57.4965 56.0096 57.5474 55.5233 57.4534C55.0371 57.3594 54.5892 57.1245 54.2353 56.7781L47.853 50.3958L51.4119 46.8369L57.7942 53.2192C58.0282 53.4525 58.2136 53.7299 58.3399 54.0354C58.4661 54.3408 58.5306 54.6682 58.5297 54.9986Z" fill="url(#paint0_linear_1432_141036)"/>
<path d="M49.3892 45.3054L46.3191 48.3755C45.8558 48.8388 45.8558 49.5899 46.3191 50.0532L47.0153 50.7494C47.4786 51.2127 48.2297 51.2127 48.693 50.7494L51.7631 47.6793C52.2264 47.216 52.2264 46.4649 51.7631 46.0016L51.0669 45.3054C50.6036 44.8421 49.8525 44.8421 49.3892 45.3054Z" fill="url(#paint1_linear_1432_141036)"/>
<path d="M40.7356 51.5824C47.2874 51.5824 52.5986 46.2711 52.5986 39.7194C52.5986 33.1677 47.2874 27.8564 40.7356 27.8564C34.1839 27.8564 28.8727 33.1677 28.8727 39.7194C28.8727 46.2711 34.1839 51.5824 40.7356 51.5824Z" fill="url(#paint2_linear_1432_141036)"/>
<path d="M40.7357 49.2097C45.9771 49.2097 50.2261 44.9607 50.2261 39.7194C50.2261 34.478 45.9771 30.229 40.7357 30.229C35.4943 30.229 31.2454 34.478 31.2454 39.7194C31.2454 44.9607 35.4943 49.2097 40.7357 49.2097Z" fill="url(#paint3_linear_1432_141036)"/>
<path d="M40.7362 42.091C39.0398 42.091 39.1584 39.1134 41.1158 38.4728C41.3224 38.4031 41.5057 38.2777 41.6457 38.1105C41.7857 37.9433 41.8769 37.7407 41.9093 37.5251C41.9417 37.3094 41.914 37.089 41.8293 36.8881C41.7446 36.6872 41.6061 36.5135 41.4291 36.3861C41.2521 36.2587 41.0434 36.1826 40.826 36.166C40.6086 36.1495 40.3908 36.1933 40.1966 36.2924C40.0024 36.3916 39.8393 36.5424 39.7252 36.7283C39.6111 36.9141 39.5504 37.1278 39.5499 37.3459C39.5499 37.6605 39.4249 37.9622 39.2024 38.1847C38.9799 38.4072 38.6782 38.5322 38.3636 38.5322C36.0977 38.5322 37.1773 33.787 40.7362 33.787C41.5892 33.7684 42.4205 34.0569 43.0787 34.5999C43.7368 35.1429 44.178 35.9043 44.3218 36.7454C44.4655 37.5864 44.3024 38.4511 43.862 39.1819C43.4215 39.9127 42.7332 40.461 41.9225 40.7268V40.9048C41.9225 41.2194 41.7975 41.5211 41.575 41.7436C41.3525 41.9661 41.0508 42.091 40.7362 42.091Z" fill="#8FB7D7"/>
<path d="M40.7355 45.6524C40.5009 45.6524 40.2715 45.5828 40.0764 45.4525C39.8813 45.3221 39.7293 45.1368 39.6395 44.9201C39.5497 44.7033 39.5262 44.4648 39.572 44.2346C39.6178 44.0045 39.7307 43.7931 39.8967 43.6272C40.0626 43.4613 40.2739 43.3484 40.5041 43.3026C40.7342 43.2568 40.9727 43.2803 41.1895 43.3701C41.4062 43.4599 41.5915 43.6119 41.7219 43.807C41.8522 44.0021 41.9218 44.2315 41.9218 44.4661C41.9218 44.7807 41.7968 45.0824 41.5743 45.3049C41.3519 45.5274 41.0501 45.6524 40.7355 45.6524Z" fill="#8FB7D7"/>
<defs>
<linearGradient id="paint0_linear_1432_141036" x1="47.853" y1="52.1752" x2="58.5297" y2="52.1752" gradientUnits="userSpaceOnUse">
<stop stop-color="#526195"/>
<stop offset="1" stop-color="#7585AD"/>
</linearGradient>
<linearGradient id="paint1_linear_1432_141036" x1="45.9632" y1="48.0199" x2="52.1073" y2="48.0199" gradientUnits="userSpaceOnUse">
<stop stop-color="#526195"/>
<stop offset="1" stop-color="#7585AD"/>
</linearGradient>
<linearGradient id="paint2_linear_1432_141036" x1="28.8727" y1="39.7194" x2="52.5986" y2="39.7194" gradientUnits="userSpaceOnUse">
<stop stop-color="#526195"/>
<stop offset="1" stop-color="#7585AD"/>
</linearGradient>
<linearGradient id="paint3_linear_1432_141036" x1="31.2454" y1="39.7194" x2="50.2261" y2="39.7194" gradientUnits="userSpaceOnUse">
<stop stop-color="#D3E6F5"/>
<stop offset="1" stop-color="#F0F7FC"/>
</linearGradient>
</defs>
</svg>
