<?xml version="1.0" encoding="UTF-8"?>
<svg id="_레이어_1" data-name="레이어_1" xmlns="http://www.w3.org/2000/svg" version="1.1" xmlns:xlink="http://www.w3.org/1999/xlink" viewBox="0 0 58 57">
  <!-- Generator: Adobe Illustrator 29.7.1, SVG Export Plug-In . SVG Version: 2.1.1 Build 8)  -->
  <defs>
    <style>
      .st0 {
        fill: url(#_무제_그라디언트);
      }

      .st1 {
        fill: #8fb7d7;
      }

      .st2 {
        fill: #fff;
      }

      .st3 {
        mask: url(#mask);
      }

      .st4 {
        fill: #bcbcc2;
      }

      .st5 {
        fill: none;
      }

      .st6 {
        fill: url(#_무제_그라디언트_2);
      }

      .st7 {
        fill: url(#_무제_그라디언트_4);
      }

      .st8 {
        fill: #9ba2ab;
      }

      .st9 {
        fill: #cfcfd8;
      }

      .st10 {
        clip-path: url(#clippath);
      }

      .st11 {
        fill: #d9d9d9;
      }

      .st12 {
        fill: url(#_무제_그라디언트_3);
      }
    </style>
    <clipPath id="clippath">
      <rect class="st5" x=".3" y="1.1" width="54.2" height="54.2"/>
    </clipPath>
    <mask id="mask" x="-.4" y="1.1" width="52.4" height="52.4" maskUnits="userSpaceOnUse">
      <g id="mask0_1432_141138">
        <path class="st11" d="M52,32.7c-2.4-5.4-7.6-9.1-13.7-9.1-8.3,0-15.1,6.9-15.1,15.5,0,6.5,3.9,12,9.3,14.3H-.4V1.1h52.4v31.6ZM52,53.5h-8c3.5-1.5,6.4-4.4,8-8v8Z"/>
      </g>
    </mask>
    <linearGradient id="_무제_그라디언트" data-name="무제 그라디언트" x1="46.9" y1="6.8" x2="57.5" y2="6.8" gradientTransform="translate(0 58) scale(1 -1)" gradientUnits="userSpaceOnUse">
      <stop offset="0" stop-color="#526195"/>
      <stop offset="1" stop-color="#7585ad"/>
    </linearGradient>
    <linearGradient id="_무제_그라디언트_2" data-name="무제 그라디언트 2" x1="45" y1="11" x2="51.1" y2="11" gradientTransform="translate(0 58) scale(1 -1)" gradientUnits="userSpaceOnUse">
      <stop offset="0" stop-color="#526195"/>
      <stop offset="1" stop-color="#7585ad"/>
    </linearGradient>
    <linearGradient id="_무제_그라디언트_3" data-name="무제 그라디언트 3" x1="27.9" y1="19.3" x2="51.6" y2="19.3" gradientTransform="translate(0 58) scale(1 -1)" gradientUnits="userSpaceOnUse">
      <stop offset="0" stop-color="#526195"/>
      <stop offset="1" stop-color="#7585ad"/>
    </linearGradient>
    <linearGradient id="_무제_그라디언트_4" data-name="무제 그라디언트 4" x1="30.2" y1="19.3" x2="49.2" y2="19.3" gradientTransform="translate(0 58) scale(1 -1)" gradientUnits="userSpaceOnUse">
      <stop offset="0" stop-color="#d3e6f5"/>
      <stop offset="1" stop-color="#f0f7fc"/>
    </linearGradient>
  </defs>
  <g class="st10">
    <g class="st3">
      <g>
        <path class="st9" d="M38.6,13.3v-2.6c0-1.9-1.5-3.5-3.4-3.5H8.3c-1.9,0-3.4,1.6-3.4,3.5v37.4c0,1.9,1.5,3.5,3.4,3.5h30.4V13.3Z"/>
        <path class="st4" d="M30.2,7.2v2.6c0,1-.8,1.7-1.7,1.7h-13.5c-.9,0-1.7-.8-1.7-1.7v-2.6c0-1.4,1.1-2.6,2.5-2.6h.8v-.9c0-1.4,1.1-2.6,2.5-2.6h5.1c1.4,0,2.5,1.2,2.5,2.6v.9h.8c1.4,0,2.5,1.2,2.5,2.6Z"/>
        <path class="st2" d="M23.5,35.9c0,4.7,2.1,9.2,5.6,12.2H8.3V10.7h5.3c.3.5.9.9,1.5.9h13.5c.6,0,1.2-.3,1.5-.9h6.1c-.1,0,.3-.3,0,0v14.3c-7.3,1.3,1.1,5.1-12.7,10.9Z"/>
        <path class="st8" d="M23.5,8.9h-3.4c-.5,0-.8-.4-.8-.9s.4-.9.8-.9h3.4c.5,0,.8.4.8.9s-.4.9-.8.9Z"/>
      </g>
    </g>
  </g>
  <path class="st0" d="M57.5,54c0,.5-.2,1-.4,1.4-.3.4-.7.7-1.1.9-.5.2-1,.2-1.4.1-.5,0-.9-.3-1.3-.7l-6.4-6.4,3.6-3.6,6.4,6.4c.2.2.4.5.5.8.1.3.2.6.2,1Z"/>
  <path class="st6" d="M48.4,44.3l-3.1,3.1c-.5.5-.5,1.2,0,1.7l.7.7c.5.5,1.2.5,1.7,0l3.1-3.1c.5-.5.5-1.2,0-1.7l-.7-.7c-.5-.5-1.2-.5-1.7,0Z"/>
  <path class="st12" d="M39.7,50.6c6.6,0,11.9-5.3,11.9-11.9s-5.3-11.9-11.9-11.9-11.9,5.3-11.9,11.9,5.3,11.9,11.9,11.9Z"/>
  <path class="st7" d="M39.7,48.2c5.2,0,9.5-4.2,9.5-9.5s-4.2-9.5-9.5-9.5-9.5,4.2-9.5,9.5,4.2,9.5,9.5,9.5Z"/>
  <path class="st1" d="M39.7,41.1c-1.7,0-1.6-3,.4-3.6.2,0,.4-.2.5-.4.1-.2.2-.4.3-.6,0-.2,0-.4,0-.6,0-.2-.2-.4-.4-.5-.2-.1-.4-.2-.6-.2-.2,0-.4,0-.6.1-.2,0-.4.2-.5.4-.1.2-.2.4-.2.6,0,.3-.1.6-.3.8-.2.2-.5.3-.8.3-2.3,0-1.2-4.7,2.4-4.7.9,0,1.7.3,2.3.8.7.5,1.1,1.3,1.2,2.1.1.8,0,1.7-.5,2.4-.4.7-1.1,1.3-1.9,1.5v.2c0,.3-.1.6-.3.8-.2.2-.5.3-.8.3Z"/>
  <path class="st1" d="M39.7,44.7c-.2,0-.5,0-.7-.2-.2-.1-.3-.3-.4-.5,0-.2-.1-.5,0-.7,0-.2.2-.4.3-.6.2-.2.4-.3.6-.3.2,0,.5,0,.7,0,.2,0,.4.2.5.4.1.2.2.4.2.7s-.1.6-.3.8c-.2.2-.5.3-.8.3Z"/>
</svg>