<svg width="91" height="88" viewBox="0 0 91 88" fill="none" xmlns="http://www.w3.org/2000/svg">
<path d="M58.3352 73.3002V40.8017C58.3352 35.402 55.1353 30.7022 50.5356 28.4023H34.4363C29.8366 30.6022 26.6367 33.5021 26.6367 39.0018V42.7017L35.0363 53.9011L26.6367 72.1002V73.3002C26.6367 77.2 29.7366 80.2998 33.6364 80.2998H51.3355C55.2353 80.2998 58.3352 77.2 58.3352 73.3002Z" fill="#D2DCE9"/>
<path d="M58.3346 73.3015C58.3346 77.2013 55.2348 80.3012 51.335 80.3012H60.0345C63.9343 80.3012 67.0342 77.2013 67.0342 73.3015V72.1016H58.3346V73.3015Z" fill="#C4CEDC"/>
<path d="M59.2357 28.4023H50.5361C55.1359 30.6022 58.3358 35.302 58.3358 40.8017V42.7017H67.0353V39.0018C67.0353 33.6021 63.8355 30.7022 59.2357 28.4023Z" fill="#C4CEDC"/>
<path d="M58.2352 42.6992H26.6367V72.0978H58.2352V42.6992Z" fill="#E2EBFA"/>
<path d="M67.0345 42.6992H58.335V72.0978H67.0345V42.6992Z" fill="#CADAF6"/>
<path d="M59.1353 22.8008H34.4365V28.3005H59.1353V22.8008Z" fill="#DBE4F6"/>
<path d="M60.1354 7H53.1357C55.2356 7 56.8356 8.69992 56.8356 10.6998V19.3994C56.8356 20.3994 56.4356 21.2993 55.8356 21.9993C55.1356 22.6992 54.2357 23.0992 53.1357 23.0992H60.1354C62.2353 23.0992 63.8352 21.3993 63.8352 19.3994V10.6998C63.8352 8.59992 62.1353 7 60.1354 7Z" fill="#C4CEDC"/>
<path d="M53.2358 7H33.5367C31.4368 7 29.8369 8.69992 29.8369 10.6998V19.3994C29.8369 20.3994 30.2369 21.2993 30.8369 21.9993C31.5368 22.6992 32.4368 23.0992 33.5367 23.0992H53.2358C54.3357 23.0992 55.2357 22.6992 55.9357 21.9993C56.5356 21.2993 56.9356 20.3994 56.9356 19.3994V10.6998C56.9356 8.59992 55.2357 7 53.2358 7Z" fill="#D2DCE9"/>
<path d="M90.637 84.0716C90.6289 84.8499 90.3924 85.6086 89.9567 86.2534C89.521 86.8983 88.9055 87.401 88.1865 87.6989C87.4675 87.9968 86.6768 88.0769 85.9127 87.9291C85.1486 87.7814 84.4448 87.4124 83.8887 86.8679L73.8594 76.8386L79.4519 71.2461L89.4812 81.2754C89.8489 81.6421 90.1403 82.078 90.3387 82.5579C90.5371 83.0379 90.6385 83.5523 90.637 84.0716Z" fill="url(#paint0_linear_3284_37349)"/>
<path d="M76.2726 68.8378L71.4481 73.6623C70.72 74.3903 70.72 75.5706 71.4481 76.2986L72.5421 77.3927C73.2701 78.1207 74.4505 78.1207 75.1785 77.3927L80.003 72.5682C80.731 71.8402 80.731 70.6599 80.003 69.9319L78.9089 68.8378C78.1809 68.1098 77.0006 68.1098 76.2726 68.8378Z" fill="url(#paint1_linear_3284_37349)"/>
<path d="M62.674 78.7015C72.9696 78.7015 81.3158 70.3553 81.3158 60.0598C81.3158 49.7642 72.9696 41.418 62.674 41.418C52.3784 41.418 44.0322 49.7642 44.0322 60.0598C44.0322 70.3553 52.3784 78.7015 62.674 78.7015Z" fill="url(#paint2_linear_3284_37349)"/>
<path d="M62.6742 74.9714C70.9106 74.9714 77.5876 68.2944 77.5876 60.058C77.5876 51.8215 70.9106 45.1445 62.6742 45.1445C54.4377 45.1445 47.7607 51.8215 47.7607 60.058C47.7607 68.2944 54.4377 74.9714 62.6742 74.9714Z" fill="url(#paint3_linear_3284_37349)"/>
<path d="M62.6738 63.785C60.008 63.785 60.1944 59.1059 63.2703 58.0992C63.595 57.9896 63.8831 57.7925 64.1031 57.5298C64.3231 57.267 64.4664 56.9488 64.5173 56.6099C64.5682 56.271 64.5247 55.9247 64.3916 55.6089C64.2585 55.2931 64.0409 55.0202 63.7627 54.82C63.4846 54.6198 63.1567 54.5002 62.815 54.4742C62.4733 54.4483 62.1311 54.517 61.8259 54.6729C61.5207 54.8287 61.2644 55.0657 61.0851 55.3577C60.9058 55.6498 60.8105 55.9856 60.8096 56.3282C60.8096 56.8227 60.6132 57.2968 60.2636 57.6464C59.914 57.996 59.4399 58.1924 58.9454 58.1924C55.3849 58.1924 57.0813 50.7357 62.6738 50.7357C64.0143 50.7065 65.3207 51.1598 66.3549 52.0131C67.3892 52.8664 68.0824 54.0629 68.3083 55.3846C68.5343 56.7062 68.2778 58.0651 67.5858 59.2135C66.8937 60.3619 65.8121 61.2234 64.538 61.6411V61.9208C64.538 62.4152 64.3416 62.8893 63.992 63.2389C63.6424 63.5886 63.1682 63.785 62.6738 63.785Z" fill="#8FB7D7"/>
<path d="M62.6737 69.3846C62.3051 69.3846 61.9446 69.2753 61.6381 69.0704C61.3315 68.8656 61.0926 68.5745 60.9515 68.2338C60.8104 67.8932 60.7735 67.5184 60.8454 67.1567C60.9173 66.7951 61.0949 66.463 61.3556 66.2023C61.6163 65.9415 61.9484 65.764 62.3101 65.6921C62.6717 65.6201 63.0465 65.6571 63.3871 65.7982C63.7278 65.9393 64.0189 66.1782 64.2238 66.4847C64.4286 66.7913 64.5379 67.1517 64.5379 67.5204C64.5379 68.0148 64.3415 68.489 63.9919 68.8386C63.6423 69.1882 63.1682 69.3846 62.6737 69.3846Z" fill="#8FB7D7"/>
<defs>
<linearGradient id="paint0_linear_3284_37349" x1="73.8594" y1="79.6349" x2="90.637" y2="79.6349" gradientUnits="userSpaceOnUse">
<stop stop-color="#526195"/>
<stop offset="1" stop-color="#7585AD"/>
</linearGradient>
<linearGradient id="paint1_linear_3284_37349" x1="70.8888" y1="73.1034" x2="80.5438" y2="73.1034" gradientUnits="userSpaceOnUse">
<stop stop-color="#526195"/>
<stop offset="1" stop-color="#7585AD"/>
</linearGradient>
<linearGradient id="paint2_linear_3284_37349" x1="44.0322" y1="60.0598" x2="81.3158" y2="60.0598" gradientUnits="userSpaceOnUse">
<stop stop-color="#526195"/>
<stop offset="1" stop-color="#7585AD"/>
</linearGradient>
<linearGradient id="paint3_linear_3284_37349" x1="47.7607" y1="60.058" x2="77.5876" y2="60.058" gradientUnits="userSpaceOnUse">
<stop stop-color="#D3E6F5"/>
<stop offset="1" stop-color="#F0F7FC"/>
</linearGradient>
</defs>
</svg>
