<svg width="58" height="57" viewBox="0 0 58 57" fill="none" xmlns="http://www.w3.org/2000/svg">
<g clip-path="url(#clip0_1432_141248)">
<path d="M16.8262 27.4767C21.0554 23.6807 27.7481 24.3258 31.1323 28.9184C32.1165 26.0096 34.546 23.5722 37.8496 22.6029C40.5839 21.8001 43.3817 22.1596 45.6561 23.3845V45.1393C45.6561 45.1393 38.8216 46.8373 33.3829 43.0174C23.2574 46.2252 12.1894 44.1211 3.76956 36.4825C2.26796 35.1193 1.68021 33.0432 2.25299 31.1186L8.90684 8.26848C9.12716 7.52918 9.6594 6.92288 10.3643 6.60831L20.2064 2.22093C21.3132 1.72744 22.6138 2.04996 23.3619 3.00342L26.2425 6.67092C26.7995 7.38113 26.7307 8.3972 26.0822 9.02548L22.5142 12.4833C21.87 13.1072 20.8594 13.1476 20.1668 12.5775L19.4539 11.9898C18.9111 11.543 18.1541 11.461 17.5285 11.7818L16.8958 12.1069C16.2701 12.4277 15.8948 13.0903 15.9423 13.7927L16.8262 27.4767Z" fill="#D2DCE9"/>
<path d="M31.8069 31.5872C30.5648 28.0439 27.1561 25.6633 23.3246 25.6633C20.2998 25.6633 17.4989 27.1408 15.8324 29.6156C15.6285 29.9184 15.218 29.9985 14.9151 29.7946C14.6123 29.5907 14.5322 29.1801 14.736 28.8772C16.6485 26.0371 19.8591 24.3416 23.3245 24.3416C27.7166 24.3416 31.6267 27.0777 33.0542 31.1499C33.175 31.4944 32.9936 31.8715 32.6491 31.9922C32.3033 32.1132 31.9273 31.9305 31.8069 31.5872Z" fill="#BCC8D8"/>
</g>
<path d="M57.5305 53.9984C57.5254 54.4936 57.3749 54.9764 57.0976 55.3868C56.8204 55.7972 56.4287 56.1171 55.9711 56.3066C55.5136 56.4962 55.0104 56.5472 54.5242 56.4532C54.0379 56.3591 53.59 56.1243 53.2362 55.7778L46.8539 49.3956L50.4128 45.8367L56.795 52.2189C57.029 52.4523 57.2145 52.7297 57.3407 53.0351C57.467 53.3405 57.5315 53.6679 57.5305 53.9984Z" fill="url(#paint0_linear_1432_141248)"/>
<path d="M48.3895 44.3054L45.3193 47.3755C44.856 47.8388 44.856 48.5899 45.3193 49.0532L46.0155 49.7494C46.4788 50.2127 47.2299 50.2127 47.6932 49.7494L50.7634 46.6793C51.2266 46.216 51.2266 45.4649 50.7634 45.0016L50.0671 44.3054C49.6039 43.8421 48.8527 43.8421 48.3895 44.3054Z" fill="url(#paint1_linear_1432_141248)"/>
<path d="M39.7359 50.5824C46.2876 50.5824 51.5988 45.2711 51.5988 38.7194C51.5988 32.1677 46.2876 26.8564 39.7359 26.8564C33.1841 26.8564 27.8729 32.1677 27.8729 38.7194C27.8729 45.2711 33.1841 50.5824 39.7359 50.5824Z" fill="url(#paint2_linear_1432_141248)"/>
<path d="M39.736 48.21C44.9774 48.21 49.2263 43.961 49.2263 38.7196C49.2263 33.4782 44.9774 29.2292 39.736 29.2292C34.4946 29.2292 30.2456 33.4782 30.2456 38.7196C30.2456 43.961 34.4946 48.21 39.736 48.21Z" fill="url(#paint3_linear_1432_141248)"/>
<path d="M39.7358 41.0913C38.0394 41.0913 38.158 38.1137 40.1154 37.4731C40.322 37.4033 40.5054 37.2779 40.6454 37.1107C40.7854 36.9435 40.8765 36.741 40.9089 36.5253C40.9413 36.3097 40.9136 36.0893 40.8289 35.8883C40.7442 35.6874 40.6057 35.5137 40.4288 35.3863C40.2518 35.2589 40.0431 35.1828 39.8256 35.1663C39.6082 35.1498 39.3904 35.1935 39.1962 35.2927C39.002 35.3919 38.8389 35.5427 38.7248 35.7285C38.6107 35.9144 38.5501 36.128 38.5495 36.3461C38.5495 36.6607 38.4245 36.9625 38.202 37.1849C37.9796 37.4074 37.6778 37.5324 37.3632 37.5324C35.0974 37.5324 36.1769 32.7872 39.7358 32.7872C40.5888 32.7686 41.4202 33.0571 42.0783 33.6001C42.7365 34.1431 43.1776 34.9046 43.3214 35.7456C43.4652 36.5867 43.302 37.4514 42.8616 38.1822C42.4212 38.913 41.7329 39.4612 40.9221 39.727V39.905C40.9221 40.2196 40.7971 40.5214 40.5746 40.7438C40.3522 40.9663 40.0504 41.0913 39.7358 41.0913Z" fill="#8FB7D7"/>
<path d="M39.7357 44.6521C39.5011 44.6521 39.2717 44.5826 39.0767 44.4522C38.8816 44.3219 38.7295 44.1366 38.6397 43.9198C38.55 43.703 38.5265 43.4645 38.5722 43.2344C38.618 43.0043 38.731 42.7929 38.8969 42.627C39.0628 42.4611 39.2742 42.3481 39.5043 42.3023C39.7344 42.2566 39.9729 42.2801 40.1897 42.3698C40.4065 42.4596 40.5918 42.6117 40.7221 42.8068C40.8525 43.0019 40.922 43.2312 40.922 43.4658C40.922 43.7805 40.797 44.0822 40.5746 44.3047C40.3521 44.5271 40.0504 44.6521 39.7357 44.6521Z" fill="#8FB7D7"/>
<defs>
<linearGradient id="paint0_linear_1432_141248" x1="46.8539" y1="51.175" x2="57.5305" y2="51.175" gradientUnits="userSpaceOnUse">
<stop stop-color="#526195"/>
<stop offset="1" stop-color="#7585AD"/>
</linearGradient>
<linearGradient id="paint1_linear_1432_141248" x1="44.9634" y1="47.0199" x2="51.1075" y2="47.0199" gradientUnits="userSpaceOnUse">
<stop stop-color="#526195"/>
<stop offset="1" stop-color="#7585AD"/>
</linearGradient>
<linearGradient id="paint2_linear_1432_141248" x1="27.8729" y1="38.7194" x2="51.5988" y2="38.7194" gradientUnits="userSpaceOnUse">
<stop stop-color="#526195"/>
<stop offset="1" stop-color="#7585AD"/>
</linearGradient>
<linearGradient id="paint3_linear_1432_141248" x1="30.2456" y1="38.7196" x2="49.2263" y2="38.7196" gradientUnits="userSpaceOnUse">
<stop stop-color="#D3E6F5"/>
<stop offset="1" stop-color="#F0F7FC"/>
</linearGradient>
<clipPath id="clip0_1432_141248">
<rect width="54.1716" height="54.1716" fill="white" transform="translate(0.270264 1.11646)"/>
</clipPath>
</defs>
</svg>
