<svg width="59" height="58" viewBox="0 0 59 58" fill="none" xmlns="http://www.w3.org/2000/svg">
<path d="M43.554 6.52197H6.9597C5.59949 6.52197 4.49683 7.62464 4.49683 8.98485V42.5902C4.49683 43.9504 5.59949 45.053 6.9597 45.053H43.554C44.9142 45.053 46.0169 43.9504 46.0169 42.5902V8.98485C46.0169 7.62464 44.9142 6.52197 43.554 6.52197Z" fill="#DADAE4"/>
<path d="M17.7573 15.5848C17.7573 12.1412 21.1152 9.34961 25.2573 9.34961C29.3995 9.34961 32.7574 12.1411 32.7574 15.5848" fill="white"/>
<g opacity="0.5">
<path d="M30.3064 32.7171C31.4091 30.2262 31.8315 27.4873 31.5306 24.7799C31.3988 23.6472 31.6981 22.5064 32.3691 21.5844C33.04 20.6624 34.0335 20.0268 35.1518 19.8039L35.4565 19.7444C36.0502 19.6285 36.6612 19.6329 37.2532 19.7575C37.8451 19.882 38.4061 20.1241 38.9028 20.4694C39.3995 20.8147 39.8218 21.2562 40.1448 21.7677C40.4677 22.2793 40.6847 22.8504 40.7828 23.4473C41.5414 27.9955 40.8208 32.6671 38.7271 36.7754C38.4536 37.315 38.0747 37.7942 37.6126 38.1847C37.1506 38.5751 36.6148 38.8689 36.0372 39.0485C35.4595 39.2281 34.8517 39.2899 34.2497 39.2303C33.6477 39.1706 33.0638 38.9908 32.5326 38.7014L32.26 38.5529C31.2608 38.0034 30.5051 37.098 30.1431 36.0167C29.7811 34.9354 29.8394 33.7574 30.3064 32.7171Z" fill="#396D94" fill-opacity="0.3" style="mix-blend-mode:multiply"/>
<path d="M20.2054 32.7171C19.1027 30.2262 18.6803 27.4873 18.9812 24.7799C19.113 23.6472 18.8137 22.5064 18.1427 21.5844C17.4717 20.6624 16.4783 20.0268 15.36 19.8039L15.0553 19.7444C14.4616 19.6285 13.8506 19.6329 13.2586 19.7575C12.6666 19.882 12.1057 20.1241 11.609 20.4694C11.1123 20.8147 10.69 21.2562 10.367 21.7677C10.0441 22.2793 9.82714 22.8504 9.72899 23.4473C8.97045 27.9956 9.69102 32.6671 11.7848 36.7754C12.0582 37.315 12.4372 37.7942 12.8992 38.1847C13.3613 38.5751 13.897 38.8689 14.4747 39.0485C15.0523 39.2281 15.6602 39.2899 16.2622 39.2303C16.8642 39.1706 17.4481 38.9908 17.9793 38.7014L18.2519 38.5529C19.251 38.0034 20.0068 37.098 20.3687 36.0167C20.7307 34.9353 20.6724 33.7574 20.2054 32.7171Z" fill="#396D94" fill-opacity="0.3" style="mix-blend-mode:multiply"/>
</g>
<path d="M24.8295 11.978C24.884 11.4627 25.634 11.4627 25.6885 11.978L26.0992 15.8601H24.4188L24.8295 11.978Z" fill="#BCBCC2"/>
<path d="M25.1921 9.44824V10.4237" stroke="black" stroke-opacity="0.2" stroke-width="0.33861" stroke-linecap="round"/>
<path d="M28.8345 10.2075L28.3467 11.0523" stroke="black" stroke-opacity="0.2" stroke-width="0.33861" stroke-linecap="round"/>
<path d="M31.6129 12.5342L30.7894 13.057" stroke="black" stroke-opacity="0.2" stroke-width="0.33861" stroke-linecap="round"/>
<path d="M21.7133 10.2075L22.201 11.0523" stroke="black" stroke-opacity="0.2" stroke-width="0.33861" stroke-linecap="round"/>
<path d="M18.936 12.5342L19.7596 13.057" stroke="black" stroke-opacity="0.2" stroke-width="0.33861" stroke-linecap="round"/>
<path d="M58.0305 54.9986C58.0254 55.4939 57.8749 55.9767 57.5976 56.387C57.3204 56.7974 56.9287 57.1173 56.4711 57.3069C56.0136 57.4965 55.5104 57.5474 55.0242 57.4534C54.5379 57.3594 54.09 57.1245 53.7362 56.7781L47.3539 50.3958L50.9128 46.8369L57.295 53.2192C57.529 53.4525 57.7145 53.7299 57.8407 54.0354C57.967 54.3408 58.0315 54.6682 58.0305 54.9986Z" fill="url(#paint0_linear_1432_140795)"/>
<path d="M48.8895 45.3054L45.8193 48.3755C45.356 48.8388 45.356 49.5899 45.8193 50.0532L46.5155 50.7494C46.9788 51.2127 47.7299 51.2127 48.1932 50.7494L51.2634 47.6793C51.7266 47.216 51.7266 46.4649 51.2634 46.0016L50.5671 45.3054C50.1039 44.8421 49.3527 44.8421 48.8895 45.3054Z" fill="url(#paint1_linear_1432_140795)"/>
<path d="M40.2359 51.5824C46.7876 51.5824 52.0988 46.2711 52.0988 39.7194C52.0988 33.1677 46.7876 27.8564 40.2359 27.8564C33.6841 27.8564 28.3729 33.1677 28.3729 39.7194C28.3729 46.2711 33.6841 51.5824 40.2359 51.5824Z" fill="url(#paint2_linear_1432_140795)"/>
<path d="M40.236 49.2097C45.4774 49.2097 49.7263 44.9607 49.7263 39.7194C49.7263 34.478 45.4774 30.229 40.236 30.229C34.9946 30.229 30.7456 34.478 30.7456 39.7194C30.7456 44.9607 34.9946 49.2097 40.236 49.2097Z" fill="url(#paint3_linear_1432_140795)"/>
<path d="M40.2358 42.091C38.5394 42.091 38.658 39.1134 40.6154 38.4728C40.822 38.4031 41.0054 38.2777 41.1454 38.1105C41.2854 37.9433 41.3765 37.7407 41.4089 37.5251C41.4413 37.3094 41.4136 37.089 41.3289 36.8881C41.2442 36.6872 41.1057 36.5135 40.9288 36.3861C40.7518 36.2587 40.5431 36.1826 40.3256 36.166C40.1082 36.1495 39.8904 36.1933 39.6962 36.2924C39.502 36.3916 39.3389 36.5424 39.2248 36.7283C39.1107 36.9141 39.0501 37.1278 39.0495 37.3459C39.0495 37.6605 38.9245 37.9622 38.702 38.1847C38.4796 38.4072 38.1778 38.5322 37.8632 38.5322C35.5974 38.5322 36.6769 33.787 40.2358 33.787C41.0888 33.7684 41.9202 34.0569 42.5783 34.5999C43.2365 35.1429 43.6776 35.9043 43.8214 36.7454C43.9652 37.5864 43.802 38.4511 43.3616 39.1819C42.9212 39.9127 42.2329 40.461 41.4221 40.7268V40.9048C41.4221 41.2194 41.2971 41.5211 41.0746 41.7436C40.8522 41.9661 40.5504 42.091 40.2358 42.091Z" fill="#8FB7D7"/>
<path d="M40.2357 45.6524C40.0011 45.6524 39.7717 45.5828 39.5767 45.4525C39.3816 45.3221 39.2295 45.1368 39.1397 44.9201C39.05 44.7033 39.0265 44.4648 39.0722 44.2346C39.118 44.0045 39.231 43.7931 39.3969 43.6272C39.5628 43.4613 39.7742 43.3484 40.0043 43.3026C40.2344 43.2568 40.4729 43.2803 40.6897 43.3701C40.9065 43.4599 41.0918 43.6119 41.2221 43.807C41.3525 44.0021 41.422 44.2315 41.422 44.4661C41.422 44.7807 41.297 45.0824 41.0746 45.3049C40.8521 45.5274 40.5504 45.6524 40.2357 45.6524Z" fill="#8FB7D7"/>
<defs>
<linearGradient id="paint0_linear_1432_140795" x1="47.3539" y1="52.1752" x2="58.0305" y2="52.1752" gradientUnits="userSpaceOnUse">
<stop stop-color="#526195"/>
<stop offset="1" stop-color="#7585AD"/>
</linearGradient>
<linearGradient id="paint1_linear_1432_140795" x1="45.4634" y1="48.0199" x2="51.6075" y2="48.0199" gradientUnits="userSpaceOnUse">
<stop stop-color="#526195"/>
<stop offset="1" stop-color="#7585AD"/>
</linearGradient>
<linearGradient id="paint2_linear_1432_140795" x1="28.3729" y1="39.7194" x2="52.0988" y2="39.7194" gradientUnits="userSpaceOnUse">
<stop stop-color="#526195"/>
<stop offset="1" stop-color="#7585AD"/>
</linearGradient>
<linearGradient id="paint3_linear_1432_140795" x1="30.7456" y1="39.7194" x2="49.7263" y2="39.7194" gradientUnits="userSpaceOnUse">
<stop stop-color="#D3E6F5"/>
<stop offset="1" stop-color="#F0F7FC"/>
</linearGradient>
</defs>
</svg>
