<svg width="59" height="57" viewBox="0 0 59 57" fill="none" xmlns="http://www.w3.org/2000/svg">
<g clip-path="url(#clip0_1432_140738)">
<path d="M23.158 45.1349C23.3374 45.3363 23.5574 45.4975 23.8036 45.6079C24.0497 45.7183 24.3164 45.7754 24.5862 45.7754C24.856 45.7754 25.1227 45.7183 25.3688 45.6079C25.615 45.4975 25.835 45.3363 26.0144 45.1349L42.9597 26.7876C47.3788 22.0029 47.3788 14.2454 42.9597 9.46063C38.5406 4.67588 31.3758 4.67588 26.9567 9.46063L24.5862 12.0272L22.3161 9.56934C17.9041 4.79235 10.7181 4.6538 6.27355 9.39522C1.79366 14.1744 1.77337 21.9811 6.2127 26.7876L23.158 45.1349Z" fill="#D2DCE9"/>
<path d="M2.07288 22.772C1.89011 23.0867 1.78973 23.4457 1.78967 23.8159C1.78967 24.1861 1.89024 24.5451 2.07288 24.8599V22.772Z" fill="black"/>
<path d="M25.9452 14.627C25.6379 14.6496 25.3453 14.7703 25.1112 14.9707L25.0272 15.0488C24.838 15.2389 24.7046 15.4785 24.6434 15.7412L21.7372 28.2275L18.8456 18.9912L18.8055 18.8809C18.7025 18.6264 18.5286 18.4062 18.3036 18.2461C18.0466 18.0632 17.737 17.9689 17.4218 17.9785L17.3046 17.9873C17.0318 18.018 16.7723 18.1253 16.5575 18.2988L16.4696 18.377C16.2709 18.5662 16.1286 18.8082 16.0624 19.0762L14.7313 24.4619L14.0907 23.1738L13.9891 23.001C13.876 22.8357 13.729 22.6951 13.5575 22.5889C13.3289 22.4472 13.0647 22.372 12.7958 22.3721H3.87195C3.4886 22.3721 3.12055 22.5248 2.84949 22.7959L2.75378 22.9014C2.54292 23.1585 2.42575 23.4819 2.42566 23.8174C2.42566 24.1528 2.54309 24.4762 2.75378 24.7334L2.84949 24.8398C3.12054 25.1109 3.4886 25.2627 3.87195 25.2627H11.9012L13.8964 29.2744C14.0116 29.5061 14.1864 29.7024 14.4022 29.8428L14.4979 29.8994C14.7576 30.0411 15.0545 30.0997 15.3485 30.0674C15.6059 30.039 15.8503 29.9425 16.0565 29.7881L16.1425 29.7188C16.3373 29.5482 16.4816 29.3286 16.5624 29.084L16.5936 28.9775L17.6298 24.7852L20.5624 34.1553C20.6543 34.449 20.8369 34.7064 21.0848 34.8887H21.0858C21.3027 35.048 21.5592 35.1427 21.826 35.1641L21.9413 35.1689C21.9594 35.1689 21.9777 35.1687 21.996 35.168V35.167C22.273 35.1565 22.5402 35.0675 22.7665 34.9102L22.8612 34.8389C23.0752 34.6624 23.2329 34.4285 23.3173 34.166L23.3495 34.0518L26.4091 20.9102L28.1073 25.2158C28.2005 25.4519 28.3541 25.6591 28.5516 25.8164L28.6395 25.8799C28.8492 26.0226 29.0919 26.108 29.3436 26.127L29.452 26.1309H46.3212C46.6565 26.1308 46.9801 26.0144 47.2372 25.8037L47.3427 25.707C47.6136 25.436 47.7664 25.0688 47.7665 24.6855C47.7665 24.3022 47.6137 23.9341 47.3427 23.6631L47.2372 23.5674C46.98 23.3566 46.6566 23.2403 46.3212 23.2402H30.4354L27.3954 15.5381L27.3495 15.4326C27.2316 15.192 27.0484 14.9881 26.8202 14.8447L26.7196 14.7871C26.482 14.6632 26.2139 14.6072 25.9452 14.627Z" fill="#BCC8D8" stroke="#F8F8FC" stroke-width="1.27273"/>
</g>
<path d="M58.0305 53.9986C58.0254 54.4939 57.8749 54.9767 57.5976 55.387C57.3204 55.7974 56.9287 56.1173 56.4711 56.3069C56.0136 56.4965 55.5104 56.5474 55.0242 56.4534C54.5379 56.3594 54.09 56.1245 53.7362 55.7781L47.3539 49.3958L50.9128 45.8369L57.295 52.2192C57.529 52.4525 57.7145 52.7299 57.8407 53.0354C57.967 53.3408 58.0315 53.6682 58.0305 53.9986Z" fill="url(#paint0_linear_1432_140738)"/>
<path d="M48.8895 44.3054L45.8193 47.3755C45.356 47.8388 45.356 48.5899 45.8193 49.0532L46.5155 49.7494C46.9788 50.2127 47.7299 50.2127 48.1932 49.7494L51.2634 46.6793C51.7266 46.216 51.7266 45.4649 51.2634 45.0016L50.5671 44.3054C50.1039 43.8421 49.3527 43.8421 48.8895 44.3054Z" fill="url(#paint1_linear_1432_140738)"/>
<path d="M40.2359 50.5824C46.7876 50.5824 52.0988 45.2711 52.0988 38.7194C52.0988 32.1677 46.7876 26.8564 40.2359 26.8564C33.6841 26.8564 28.3729 32.1677 28.3729 38.7194C28.3729 45.2711 33.6841 50.5824 40.2359 50.5824Z" fill="url(#paint2_linear_1432_140738)"/>
<path d="M40.236 48.2097C45.4774 48.2097 49.7263 43.9607 49.7263 38.7194C49.7263 33.478 45.4774 29.229 40.236 29.229C34.9946 29.229 30.7456 33.478 30.7456 38.7194C30.7456 43.9607 34.9946 48.2097 40.236 48.2097Z" fill="url(#paint3_linear_1432_140738)"/>
<path d="M40.2358 41.091C38.5394 41.091 38.658 38.1134 40.6154 37.4728C40.822 37.4031 41.0054 37.2777 41.1454 37.1105C41.2854 36.9433 41.3765 36.7407 41.4089 36.5251C41.4413 36.3094 41.4136 36.089 41.3289 35.8881C41.2442 35.6872 41.1057 35.5135 40.9288 35.3861C40.7518 35.2587 40.5431 35.1826 40.3256 35.166C40.1082 35.1495 39.8904 35.1933 39.6962 35.2924C39.502 35.3916 39.3389 35.5424 39.2248 35.7283C39.1107 35.9141 39.0501 36.1278 39.0495 36.3459C39.0495 36.6605 38.9245 36.9622 38.702 37.1847C38.4796 37.4072 38.1778 37.5322 37.8632 37.5322C35.5974 37.5322 36.6769 32.787 40.2358 32.787C41.0888 32.7684 41.9202 33.0569 42.5783 33.5999C43.2365 34.1429 43.6776 34.9043 43.8214 35.7454C43.9652 36.5864 43.802 37.4511 43.3616 38.1819C42.9212 38.9127 42.2329 39.461 41.4221 39.7268V39.9048C41.4221 40.2194 41.2971 40.5211 41.0746 40.7436C40.8522 40.9661 40.5504 41.091 40.2358 41.091Z" fill="#8FB7D7"/>
<path d="M40.2357 44.6524C40.0011 44.6524 39.7717 44.5828 39.5767 44.4525C39.3816 44.3221 39.2295 44.1368 39.1397 43.9201C39.05 43.7033 39.0265 43.4648 39.0722 43.2346C39.118 43.0045 39.231 42.7931 39.3969 42.6272C39.5628 42.4613 39.7742 42.3484 40.0043 42.3026C40.2344 42.2568 40.4729 42.2803 40.6897 42.3701C40.9065 42.4599 41.0918 42.6119 41.2221 42.807C41.3525 43.0021 41.422 43.2315 41.422 43.4661C41.422 43.7807 41.297 44.0824 41.0746 44.3049C40.8521 44.5274 40.5504 44.6524 40.2357 44.6524Z" fill="#8FB7D7"/>
<defs>
<linearGradient id="paint0_linear_1432_140738" x1="47.3539" y1="51.1752" x2="58.0305" y2="51.1752" gradientUnits="userSpaceOnUse">
<stop stop-color="#526195"/>
<stop offset="1" stop-color="#7585AD"/>
</linearGradient>
<linearGradient id="paint1_linear_1432_140738" x1="45.4634" y1="47.0199" x2="51.6075" y2="47.0199" gradientUnits="userSpaceOnUse">
<stop stop-color="#526195"/>
<stop offset="1" stop-color="#7585AD"/>
</linearGradient>
<linearGradient id="paint2_linear_1432_140738" x1="28.3729" y1="38.7194" x2="52.0988" y2="38.7194" gradientUnits="userSpaceOnUse">
<stop stop-color="#526195"/>
<stop offset="1" stop-color="#7585AD"/>
</linearGradient>
<linearGradient id="paint3_linear_1432_140738" x1="30.7456" y1="38.7194" x2="49.7263" y2="38.7194" gradientUnits="userSpaceOnUse">
<stop stop-color="#D3E6F5"/>
<stop offset="1" stop-color="#F0F7FC"/>
</linearGradient>
<clipPath id="clip0_1432_140738">
<rect width="54.1716" height="54.1716" fill="white" transform="translate(0.770264 1.1167)"/>
</clipPath>
</defs>
</svg>
