<svg width="28" height="28" viewBox="0 0 28 28" fill="none" xmlns="http://www.w3.org/2000/svg">
<path d="M14 0C6.272 0 0 6.272 0 14C0 21.728 6.272 28 14 28C21.728 28 28 21.728 28 14C28 6.272 21.728 0 14 0ZM18.942 14.042C18.732 14.252 18.466 14.35 18.2 14.35C17.934 14.35 17.668 14.252 17.458 14.042L15.05 11.634V18.9C15.05 19.474 14.574 19.95 14 19.95C13.426 19.95 12.95 19.474 12.95 18.9V11.634L10.542 14.042C10.136 14.448 9.464 14.448 9.058 14.042C8.652 13.636 8.652 12.964 9.058 12.558L13.258 8.358C13.664 7.952 14.336 7.952 14.742 8.358L18.942 12.558C19.348 12.964 19.348 13.636 18.942 14.042Z" fill="#0FCE61"/>
</svg>
