<svg width="33" height="33" viewBox="0 0 33 33" fill="none" xmlns="http://www.w3.org/2000/svg">
<path d="M29.9983 25.64L7.04655 2.68824C6.04556 1.68725 4.4227 1.68725 3.42327 2.68824L2.21363 3.896C1.21264 4.89731 1.21264 6.52016 2.21363 7.51959L25.1654 30.4714C26.1667 31.4724 27.7896 31.4724 28.789 30.4714L29.9968 29.2636C30.9996 28.2642 30.9996 26.641 29.9983 25.64Z" fill="#F42A43"/>
<path d="M25.1654 2.68801L2.21363 25.6398C1.21264 26.6408 1.21264 28.264 2.21363 29.2634L3.42139 30.4712C4.4227 31.4721 6.04556 31.4721 7.04498 30.4712L29.9983 7.52092C30.9997 6.51993 30.9997 4.89707 29.9983 3.89765L28.7906 2.68989C27.7896 1.68702 26.1667 1.68702 25.1654 2.68801Z" fill="#F42A43"/>
</svg>
