<svg width="33" height="33" viewBox="0 0 33 33" fill="none" xmlns="http://www.w3.org/2000/svg">
<path d="M30.2483 25.64L7.29655 2.68824C6.29556 1.68725 4.6727 1.68725 3.67327 2.68824L2.46363 3.896C1.46264 4.89731 1.46264 6.52016 2.46363 7.51959L25.4154 30.4714C26.4167 31.4724 28.0396 31.4724 29.039 30.4714L30.2468 29.2636C31.2496 28.2642 31.2496 26.641 30.2483 25.64Z" fill="#CFCFD8"/>
<path d="M25.4154 2.68801L2.46363 25.6398C1.46264 26.6408 1.46264 28.264 2.46363 29.2634L3.67139 30.4712C4.6727 31.4721 6.29556 31.4721 7.29498 30.4712L30.2483 7.52092C31.2497 6.51993 31.2497 4.89707 30.2483 3.89765L29.0406 2.68989C28.0396 1.68702 26.4167 1.68702 25.4154 2.68801Z" fill="#CFCFD8"/>
</svg>
