<svg width="33" height="33" viewBox="0 0 33 33" fill="none" xmlns="http://www.w3.org/2000/svg">
<path d="M30.4983 25.64L7.54655 2.68824C6.54556 1.68725 4.9227 1.68725 3.92327 2.68824L2.71363 3.896C1.71264 4.89731 1.71264 6.52016 2.71363 7.51959L25.6654 30.4714C26.6667 31.4724 28.2896 31.4724 29.289 30.4714L30.4968 29.2636C31.4996 28.2642 31.4996 26.641 30.4983 25.64Z" fill="white"/>
<path d="M25.6654 2.68801L2.71363 25.6398C1.71264 26.6408 1.71264 28.264 2.71363 29.2634L3.92139 30.4712C4.9227 31.4721 6.54556 31.4721 7.54498 30.4712L30.4983 7.52092C31.4997 6.51993 31.4997 4.89707 30.4983 3.89765L29.2906 2.68989C28.2896 1.68702 26.6667 1.68702 25.6654 2.68801Z" fill="white"/>
</svg>
