<svg width="57" height="56" viewBox="0 0 57 56" fill="none" xmlns="http://www.w3.org/2000/svg">
<rect x="1.97656" y="1" width="54" height="54" rx="27" fill="#E7FAEF"/>
<rect x="1.97656" y="1" width="54" height="54" rx="27" stroke="#0CC25A" stroke-width="2"/>
<path d="M27.6604 17.1476C27.002 16.4891 26.5569 17.2653 25.2695 16.6731C24.9149 16.3977 24.5384 16.1516 24.1439 15.9374C23.8097 15.6654 23.4905 15.3756 23.1875 15.0693C21.477 13.3735 18.8727 13.8186 17.1439 14.981C13.7561 15.7167 11.3945 17.9936 11.3945 19.5054C11.3945 21.3152 12.2994 26.0935 12.2994 26.0935H26.2589C26.2589 26.0935 27.1454 21.8412 27.1454 19.6673C27.1412 19.3662 27.0826 19.0684 26.9726 18.7881C27.6494 18.1371 27.9731 17.4602 27.6604 17.1476Z" fill="#715860"/>
<path d="M19.2763 35.0781C17.7871 35.0775 16.3174 35.4164 14.9789 36.0691C13.6403 36.7218 12.4682 37.6711 11.5517 38.8448C11.4425 38.9767 11.3828 39.1426 11.3828 39.3138C11.3828 39.485 11.4425 39.6509 11.5517 39.7828C14.1266 42.7991 24.61 42.7844 27.001 39.7828C27.1045 39.6526 27.1609 39.4912 27.1609 39.3248C27.1609 39.1585 27.1045 38.9971 27.001 38.8669C26.0867 37.6891 24.9155 36.7356 23.5769 36.079C22.2382 35.4224 20.7673 35.0801 19.2763 35.0781Z" fill="#CCCCCC"/>
<path d="M20.5342 42.0006C20.5342 42.0006 19.3681 38.3774 19.5999 38.1457C19.893 37.9057 20.2055 37.6904 20.5342 37.502L19.2615 36.3984L17.9998 37.4284C18.3233 37.6484 18.634 37.8866 18.9304 38.142C19.1621 38.3737 17.9961 41.997 17.9961 41.997L20.5342 42.0006Z" fill="#119F4D"/>
<path d="M16.8492 35.3789C14.7445 35.9214 12.879 37.1465 11.5449 38.8624C11.4424 38.9923 11.3867 39.153 11.3868 39.3185C11.385 39.4865 11.4408 39.6501 11.5449 39.782C12.6485 41.0731 15.2013 41.8051 17.9417 41.989L16.8492 35.3789Z" fill="#4B4B4B"/>
<path d="M15.6727 41.4863C15.6123 41.4861 15.5534 41.4678 15.5035 41.4337C15.4537 41.3996 15.4152 41.3513 15.3931 41.2951L14.9039 40.0076C14.8784 39.941 14.8773 39.8675 14.9009 39.8001C14.9245 39.7328 14.9711 39.676 15.0326 39.6398L15.5366 39.3455L14.5545 38.9777C14.48 38.9496 14.4197 38.8932 14.3867 38.8209C14.3536 38.7486 14.3505 38.6661 14.3779 38.5914L15.246 36.2262C15.2755 36.1542 15.3318 36.0963 15.4031 36.0648C15.4743 36.0333 15.5549 36.0306 15.6281 36.0572C15.7013 36.0838 15.7614 36.1377 15.7958 36.2076C15.8301 36.2775 15.8361 36.358 15.8125 36.4322L15.0437 38.5252L16.3422 39.0071C16.3924 39.0284 16.4359 39.063 16.4681 39.1071C16.5002 39.1512 16.5198 39.2033 16.5247 39.2576C16.5296 39.312 16.5197 39.3667 16.4959 39.4158C16.4722 39.465 16.4356 39.5068 16.39 39.5368L15.5587 40.0223L15.9559 41.078C15.9739 41.1237 15.9804 41.173 15.975 41.2218C15.9696 41.2705 15.9523 41.3172 15.9248 41.3578C15.8973 41.3983 15.8602 41.4316 15.817 41.4546C15.7737 41.4777 15.7254 41.4898 15.6764 41.49L15.6727 41.4863Z" fill="#3D3D3D"/>
<path d="M21.694 35.3789C23.7988 35.9214 25.6642 37.1465 26.9983 38.8624C27.1008 38.9923 27.1566 39.153 27.1565 39.3185C27.1582 39.4865 27.1024 39.6501 26.9983 39.782C25.8948 41.0731 23.342 41.8051 20.6016 41.989L21.694 35.3789Z" fill="#4B4B4B"/>
<path d="M22.861 41.4863C22.9214 41.4861 22.9804 41.4678 23.0302 41.4337C23.08 41.3996 23.1185 41.3513 23.1406 41.2951L23.6298 40.0076C23.6553 39.941 23.6564 39.8675 23.6328 39.8001C23.6093 39.7328 23.5626 39.676 23.5011 39.6398L22.9971 39.3455L23.9793 38.9777C24.0537 38.9496 24.114 38.8932 24.147 38.8209C24.1801 38.7486 24.1833 38.6661 24.1558 38.5914L23.2877 36.2262C23.2582 36.1542 23.2019 36.0963 23.1307 36.0648C23.0594 36.0333 22.9788 36.0306 22.9056 36.0572C22.8324 36.0838 22.7723 36.1377 22.738 36.2076C22.7036 36.2775 22.6976 36.358 22.7213 36.4322L23.49 38.5252L22.1916 39.0071C22.1413 39.0284 22.0978 39.063 22.0657 39.1071C22.0335 39.1512 22.0139 39.2033 22.009 39.2576C22.0041 39.312 22.0141 39.3667 22.0378 39.4158C22.0615 39.465 22.0981 39.5068 22.1438 39.5368L22.9751 40.0223L22.5778 41.078C22.5599 41.1237 22.5533 41.173 22.5587 41.2218C22.5642 41.2705 22.5814 41.3172 22.6089 41.3578C22.6365 41.3983 22.6735 41.4316 22.7168 41.4546C22.7601 41.4777 22.8083 41.4898 22.8574 41.49L22.861 41.4863Z" fill="#3D3D3D"/>
<path d="M19.2734 36.405L21.646 38.4429L21.7049 35.3714L20.7816 35.1875C21.0427 36.0482 19.2734 36.405 19.2734 36.405Z" fill="#F3F3F3"/>
<path d="M19.2686 36.4214L16.7305 38.4592L16.8482 35.3877L17.7384 35.2148C17.4661 36.0756 19.2686 36.4214 19.2686 36.4214Z" fill="#F3F3F3"/>
<path d="M20.7718 35.2011V30.9378C20.7708 30.5381 20.6116 30.1551 20.329 29.8725C20.0463 29.5899 19.6633 29.4307 19.2636 29.4297C18.8639 29.4307 18.4809 29.5899 18.1983 29.8725C17.9157 30.1551 17.7565 30.5381 17.7555 30.9378V35.2158C17.1154 35.9074 19.271 36.4186 19.271 36.4186C19.271 36.4186 21.4523 35.8816 20.7718 35.2011Z" fill="#FD9E77"/>
<path d="M27.3879 27.2464C28.2641 26.3703 28.4573 25.1431 27.8196 24.5053C27.1819 23.8676 25.9547 24.0609 25.0786 24.9371C24.2024 25.8132 24.0092 27.0404 24.6469 27.6781C25.2846 28.3158 26.5118 28.1225 27.3879 27.2464Z" fill="#FD9E77"/>
<path d="M13.8821 27.6861C14.5198 27.0483 14.3266 25.8211 13.4504 24.945C12.5743 24.0689 11.3471 23.8756 10.7094 24.5133C10.0717 25.151 10.2649 26.3782 11.1411 27.2544C12.0172 28.1305 13.2444 28.3238 13.8821 27.6861Z" fill="#FD9E77"/>
<path d="M23.2744 20.4241C18.8603 20.4241 16.2193 18.4488 15.3548 17.5843C15.3548 17.5843 15.3548 17.5843 15.3548 17.5586C14.7735 18.0967 14.3099 18.7494 13.9934 19.4755C13.6768 20.2017 13.5142 20.9856 13.5156 21.7777V26.3868C13.5156 29.5612 16.0905 31.5365 19.265 31.5365C22.4394 31.5365 25.0143 29.5649 25.0143 26.3868V21.7777C25.0169 21.2264 24.9401 20.6776 24.7863 20.1482C24.3017 20.3256 23.7904 20.4189 23.2744 20.4241Z" fill="#FFB391"/>
<path d="M16.8357 25.1825C17.1161 25.1825 17.3434 24.7691 17.3434 24.2592C17.3434 23.7493 17.1161 23.3359 16.8357 23.3359C16.5554 23.3359 16.3281 23.7493 16.3281 24.2592C16.3281 24.7691 16.5554 25.1825 16.8357 25.1825Z" fill="#5A2F2F"/>
<path d="M21.6873 25.1825C21.9677 25.1825 22.1949 24.7691 22.1949 24.2592C22.1949 23.7493 21.9677 23.3359 21.6873 23.3359C21.407 23.3359 21.1797 23.7493 21.1797 24.2592C21.1797 24.7691 21.407 25.1825 21.6873 25.1825Z" fill="#5A2F2F"/>
<path d="M17.2212 22.3502C17.4897 22.3852 17.7598 22.4061 18.0304 22.4128C18.1104 22.4128 18.1872 22.381 18.2437 22.3244C18.3003 22.2679 18.3321 22.1911 18.3321 22.1111C18.3321 22.0312 18.3003 21.9544 18.2437 21.8979C18.1872 21.8413 18.1104 21.8095 18.0304 21.8095C17.7844 21.8025 17.5388 21.7828 17.2948 21.7507C16.5811 21.6734 15.8455 21.5925 15.4556 21.9971C15.4275 22.0251 15.4053 22.0584 15.3902 22.095C15.375 22.1316 15.3672 22.1708 15.3672 22.2105C15.3672 22.2501 15.375 22.2893 15.3902 22.3259C15.4053 22.3625 15.4275 22.3958 15.4556 22.4238C15.4836 22.4518 15.5168 22.4741 15.5534 22.4892C15.59 22.5044 15.6293 22.5122 15.6689 22.5122C15.7085 22.5122 15.7478 22.5044 15.7844 22.4892C15.821 22.4741 15.8542 22.4518 15.8823 22.4238C16.0625 22.2362 16.6989 22.2951 17.2212 22.3502Z" fill="#5A2F2F"/>
<path d="M21.2365 21.7507C20.9925 21.7828 20.7469 21.8025 20.5008 21.8095C20.4209 21.8095 20.3441 21.8413 20.2876 21.8979C20.231 21.9544 20.1992 22.0312 20.1992 22.1111C20.1992 22.1911 20.231 22.2679 20.2876 22.3244C20.3441 22.381 20.4209 22.4128 20.5008 22.4128C20.7715 22.4061 21.0416 22.3852 21.3101 22.3502C21.8251 22.2951 22.4688 22.2215 22.6711 22.4238C22.7277 22.4804 22.8044 22.5122 22.8845 22.5122C22.9645 22.5122 23.0412 22.4804 23.0978 22.4238C23.1544 22.3672 23.1862 22.2905 23.1862 22.2105C23.1862 22.1304 23.1544 22.0537 23.0978 21.9971C22.6821 21.5925 21.9465 21.6734 21.2365 21.7507Z" fill="#5A2F2F"/>
<path d="M20.5344 27.2183C20.5344 27.2183 20.1923 27.5456 19.2616 27.5456C18.7536 27.5724 18.2495 27.4441 17.816 27.1778C17.753 27.1413 17.679 27.1289 17.6075 27.1427C17.5361 27.1566 17.472 27.1958 17.4272 27.2531C17.3824 27.3105 17.3598 27.3821 17.3637 27.4548C17.3676 27.5275 17.3976 27.5963 17.4482 27.6486C17.9917 28.0077 18.6371 28.1807 19.2874 28.1415C20.4902 28.1415 20.9574 27.6707 21.0052 27.6155C21.032 27.5863 21.0528 27.5521 21.0664 27.5148C21.08 27.4776 21.0861 27.438 21.0844 27.3984C21.0827 27.3587 21.0732 27.3198 21.0564 27.2839C21.0397 27.2479 21.016 27.2156 20.9868 27.1888C20.9576 27.162 20.9234 27.1412 20.8861 27.1276C20.8489 27.1141 20.8093 27.1079 20.7697 27.1097C20.73 27.1114 20.6911 27.1209 20.6552 27.1376C20.6192 27.1543 20.5869 27.178 20.5601 27.2072L20.5344 27.2183Z" fill="#5A2F2F"/>
<path d="M13.0979 26.0232C12.939 25.7923 12.7315 25.599 12.4901 25.4566C12.2486 25.3143 11.979 25.2264 11.7001 25.1992C11.6201 25.1992 11.5433 25.231 11.4868 25.2876C11.4302 25.3441 11.3984 25.4209 11.3984 25.5008C11.3984 25.5808 11.4302 25.6576 11.4868 25.7141C11.5433 25.7707 11.6201 25.8025 11.7001 25.8025C12.2813 25.8025 12.844 26.6485 13.0427 27.0163C13.1788 27.3143 13.4399 26.4425 13.0979 26.0232Z" fill="#E27A4C"/>
<path d="M25.6521 27.0193C25.8507 26.6294 26.3878 25.7908 26.9984 25.7908C27.0784 25.7908 27.1551 25.759 27.2117 25.7024C27.2682 25.6458 27.3 25.5691 27.3 25.4891C27.3 25.4091 27.2682 25.3324 27.2117 25.2758C27.1551 25.2193 27.0784 25.1875 26.9984 25.1875C26.7194 25.2147 26.4498 25.3026 26.2084 25.4449C25.9669 25.5872 25.7595 25.7806 25.6006 26.0115C25.3284 26.4529 25.4203 27.4203 25.6521 27.0193Z" fill="#E27A4C"/>
<path d="M31.1869 26.8288V20.5461C31.1869 18.6002 33.8647 14.1016 38.6908 14.1016C43.5168 14.1016 46.1947 18.3906 46.1947 20.7227V26.8288C46.1947 30.5955 44.4696 35.0795 38.665 35.0795C34.2215 35.0795 30.2305 33.06 30.2305 31.8057C31.7828 30.2718 31.1869 28.1494 31.1869 26.8288Z" fill="#8B7159"/>
<path d="M38.663 35.0781C37.1739 35.0775 35.7041 35.4164 34.3656 36.0691C33.0271 36.7218 31.855 37.6711 30.9384 38.8448C30.8293 38.9767 30.7695 39.1426 30.7695 39.3138C30.7695 39.485 30.8293 39.6509 30.9384 39.7828C33.5133 42.7991 43.9967 42.7844 46.3877 39.7828C46.4912 39.6526 46.5476 39.4912 46.5476 39.3248C46.5476 39.1585 46.4912 38.9971 46.3877 38.8669C45.4734 37.6891 44.3023 36.7356 42.9636 36.079C41.6249 35.4224 40.1541 35.0801 38.663 35.0781Z" fill="#715860"/>
<path d="M40.1661 35.2006V30.93C40.1661 30.53 40.0072 30.1464 39.7243 29.8636C39.4415 29.5808 39.0579 29.4219 38.6579 29.4219C38.2579 29.4219 37.8743 29.5808 37.5915 29.8636C37.3087 30.1464 37.1498 30.53 37.1498 30.93V35.2006C36.4224 35.3087 35.7101 35.5013 35.0273 35.7745C35.0273 35.8628 35.4614 39.2726 35.5607 40.0672H41.7809C41.8802 39.2726 42.3253 35.8628 42.3143 35.7745C41.6232 35.4995 40.9022 35.3068 40.1661 35.2006Z" fill="#FD9E77"/>
<path d="M46.4189 38.8635C45.3476 37.4898 43.9311 36.4248 42.3138 35.7773L41.5781 41.843C43.7337 41.5304 45.5876 40.8425 46.4299 39.7831C46.5328 39.6514 46.5878 39.4885 46.5858 39.3214C46.5838 39.1542 46.5249 38.9927 46.4189 38.8635Z" fill="#CCCCCC"/>
<path d="M44.2114 39.1247C43.9944 37.7122 43.4757 36.4689 42.306 35.7773L41.5703 41.843C43.7259 41.5304 43.3911 40.4857 43.0122 39.9744C43.3985 39.636 44.2666 39.4631 44.2114 39.1247Z" fill="#999999"/>
<path d="M30.9403 38.8635C32.0096 37.4908 33.4235 36.426 35.038 35.7773L35.7737 41.843C33.6182 41.5304 31.7643 40.8425 30.9219 39.7831C30.82 39.6506 30.7663 39.4872 30.7697 39.3201C30.773 39.1529 30.8332 38.9919 30.9403 38.8635Z" fill="#CCCCCC"/>
<path d="M33.135 39.1247C33.352 37.7122 33.8707 36.4689 35.0404 35.7773L35.7761 41.843C33.6206 41.5304 33.9553 40.4857 34.3342 39.9744C33.9516 39.636 33.0835 39.4631 33.135 39.1247Z" fill="#999999"/>
<path d="M46.8137 27.2464C47.6898 26.3703 47.8831 25.1431 47.2454 24.5053C46.6077 23.8676 45.3805 24.0609 44.5044 24.9371C43.6282 25.8132 43.4349 27.0404 44.0726 27.6781C44.7104 28.3158 45.9376 28.1225 46.8137 27.2464Z" fill="#FD9E77"/>
<path d="M33.304 27.6782C33.9417 27.0405 33.7484 25.8133 32.8723 24.9372C31.9962 24.061 30.769 23.8678 30.1312 24.5055C29.4935 25.1432 29.6868 26.3704 30.5629 27.2465C31.4391 28.1227 32.6663 28.316 33.304 27.6782Z" fill="#FD9E77"/>
<path d="M36.7702 17.5078C36.4023 19.2036 32.9336 20.2813 32.9336 24.997V25.7842C32.9336 27.309 33.5393 28.7714 34.6175 29.8496C35.6957 30.9278 37.1581 31.5336 38.6829 31.5336C40.2078 31.5336 41.6701 30.9278 42.7483 29.8496C43.8265 28.7714 44.4323 27.309 44.4323 25.7842V23.7133C43.6856 18.3097 37.8185 20.2372 36.7702 17.5078Z" fill="#FFB391"/>
<path d="M36.2615 25.2059C36.5419 25.2059 36.7691 24.7926 36.7691 24.2827C36.7691 23.7727 36.5419 23.3594 36.2615 23.3594C35.9812 23.3594 35.7539 23.7727 35.7539 24.2827C35.7539 24.7926 35.9812 25.2059 36.2615 25.2059Z" fill="#5A2F2F"/>
<path d="M41.1053 25.2059C41.3856 25.2059 41.6129 24.7926 41.6129 24.2827C41.6129 23.7727 41.3856 23.3594 41.1053 23.3594C40.8249 23.3594 40.5977 23.7727 40.5977 24.2827C40.5977 24.7926 40.8249 25.2059 41.1053 25.2059Z" fill="#5A2F2F"/>
<path d="M35.0674 22.5207C35.0077 22.5207 34.9494 22.503 34.8997 22.4699C34.8501 22.4367 34.8114 22.3896 34.7886 22.3345C34.7658 22.2794 34.7598 22.2187 34.7714 22.1602C34.7831 22.1016 34.8118 22.0479 34.854 22.0057C35.3984 21.4613 36.6932 21.2148 37.451 21.2148C37.531 21.2148 37.6077 21.2466 37.6643 21.3032C37.7208 21.3598 37.7526 21.4365 37.7526 21.5165C37.7526 21.5965 37.7208 21.6732 37.6643 21.7298C37.6077 21.7863 37.531 21.8181 37.451 21.8181C36.7153 21.8181 35.6302 22.0829 35.2807 22.4324C35.2527 22.4604 35.2194 22.4826 35.1828 22.4978C35.1462 22.5129 35.107 22.5207 35.0674 22.5207Z" fill="#5A2F2F"/>
<path d="M42.2985 22.5207C42.2589 22.5207 42.2197 22.5129 42.1831 22.4978C42.1465 22.4826 42.1132 22.4604 42.0852 22.4324C41.7173 22.0646 40.6469 21.8181 39.9149 21.8181C39.8349 21.8181 39.7582 21.7863 39.7016 21.7298C39.6451 21.6732 39.6133 21.5965 39.6133 21.5165C39.6133 21.4365 39.6451 21.3598 39.7016 21.3032C39.7582 21.2466 39.8349 21.2148 39.9149 21.2148C40.6506 21.2148 41.9675 21.4613 42.5119 22.0057C42.5541 22.0479 42.5828 22.1016 42.5945 22.1602C42.6061 22.2187 42.6001 22.2794 42.5773 22.3345C42.5545 22.3896 42.5158 22.4367 42.4662 22.4699C42.4165 22.503 42.3582 22.5207 42.2985 22.5207Z" fill="#5A2F2F"/>
<path d="M38.6715 28.7008C38.4068 28.6848 38.1489 28.6105 37.9162 28.4833C37.6834 28.3562 37.4817 28.1792 37.3252 27.9651C37.2788 27.8997 37.2604 27.8187 37.2738 27.7397C37.2873 27.6607 37.3316 27.5903 37.3969 27.5439C37.4623 27.4976 37.5434 27.4791 37.6224 27.4926C37.7013 27.506 37.7718 27.5503 37.8181 27.6157C37.9184 27.7519 38.0461 27.8655 38.1932 27.9492C38.3402 28.0328 38.5031 28.0846 38.6715 28.1012C38.8398 28.0846 39.0028 28.0328 39.1498 27.9492C39.2968 27.8655 39.4246 27.7519 39.5249 27.6157C39.5712 27.5503 39.6416 27.506 39.7206 27.4926C39.7996 27.4791 39.8807 27.4976 39.946 27.5439C40.0114 27.5903 40.0557 27.6607 40.0691 27.7397C40.0826 27.8187 40.0641 27.8997 40.0178 27.9651C39.8615 28.1794 39.6597 28.3565 39.427 28.4837C39.1942 28.6109 38.9362 28.685 38.6715 28.7008Z" fill="#5A2F2F"/>
<path d="M32.4143 26.0271C32.2554 25.7962 32.0479 25.6029 31.8065 25.4605C31.565 25.3182 31.2954 25.2304 31.0165 25.2031C30.9365 25.2031 30.8598 25.2349 30.8032 25.2915C30.7466 25.348 30.7148 25.4248 30.7148 25.5048C30.7148 25.5848 30.7466 25.6615 30.8032 25.718C30.8598 25.7746 30.9365 25.8064 31.0165 25.8064C31.6087 25.8064 32.1641 26.6451 32.3628 27.035C32.4952 27.3182 32.7564 26.4464 32.4143 26.0271Z" fill="#E27A4C"/>
<path d="M44.9724 27.0232C45.171 26.6333 45.7081 25.7947 46.3187 25.7947C46.3987 25.7947 46.4754 25.7629 46.532 25.7063C46.5885 25.6498 46.6203 25.573 46.6203 25.493C46.6203 25.413 46.5885 25.3363 46.532 25.2798C46.4754 25.2232 46.3987 25.1914 46.3187 25.1914C46.0397 25.2186 45.7701 25.3065 45.5287 25.4488C45.2872 25.5911 45.0798 25.7845 44.9209 26.0154C44.6487 26.4568 44.7406 27.4242 44.9724 27.0232Z" fill="#E27A4C"/>
</svg>
