<svg width="25" height="24" viewBox="0 0 25 24" fill="none" xmlns="http://www.w3.org/2000/svg">
<path d="M16.25 4C16.25 2.89 17.14 2 18.25 2C19.36 2 20.25 2.89 20.25 4C20.25 5.11 19.36 6 18.25 6C17.14 6 16.25 5.11 16.25 4ZM20.25 22V16H22.75L20.21 8.37C19.93 7.55 19.17 7 18.31 7H18.19C17.33 7 16.56 7.55 16.29 8.37L15.43 10.95C16.51 11.55 17.25 12.68 17.25 14V22H20.25ZM12.75 11.5C13.58 11.5 14.25 10.83 14.25 10C14.25 9.17 13.58 8.5 12.75 8.5C11.92 8.5 11.25 9.17 11.25 10C11.25 10.83 11.92 11.5 12.75 11.5ZM5.75 6C6.86 6 7.75 5.11 7.75 4C7.75 2.89 6.86 2 5.75 2C4.64 2 3.75 2.89 3.75 4C3.75 5.11 4.64 6 5.75 6ZM7.75 22V15H9.25V9C9.25 7.9 8.35 7 7.25 7H4.25C3.15 7 2.25 7.9 2.25 9V15H3.75V22H7.75ZM14.25 22V18H15.25V14C15.25 13.18 14.57 12.5 13.75 12.5H11.75C10.93 12.5 10.25 13.18 10.25 14V18H11.25V22H14.25Z" fill="#00BF18"/>
</svg>
