<svg width="57" height="56" viewBox="0 0 57 56" fill="none" xmlns="http://www.w3.org/2000/svg">
<rect x="0.875" width="56" height="56" rx="28" fill="#F8F8FC"/>
<path d="M29.8596 15.7736C29.7722 15.6856 29.6682 15.6159 29.5538 15.5682C29.4393 15.5206 29.3165 15.4961 29.1925 15.4961C29.0685 15.4961 28.9458 15.5206 28.8313 15.5682C28.7168 15.6159 28.6129 15.6856 28.5255 15.7736L16.373 27.926V41.9181L16.2949 42.1056C16.3206 42.1152 16.3453 42.1293 16.373 42.1404V43.8671H42.0171V27.926L29.8596 15.7736Z" fill="#FDE2B2"/>
<circle cx="23.6208" cy="33.3278" r="1.77704" fill="#CE893D"/>
<circle cx="29.2751" cy="33.3278" r="1.77704" fill="#CE893D"/>
<circle cx="34.9294" cy="33.3278" r="1.77704" fill="#CE893D"/>
<path d="M43.605 25.8434C43.8118 26.0414 43.9765 26.2792 44.0891 26.5425C44.2017 26.8058 44.2599 27.0892 44.2602 27.3755C44.2627 27.661 44.2086 27.9441 44.101 28.2085C43.9934 28.4729 43.8345 28.7134 43.6333 28.9159C43.4322 29.1185 43.1929 29.2792 42.9293 29.3887C42.6657 29.4982 42.383 29.5543 42.0975 29.5538L29.941 17.4019C29.8536 17.3139 29.7497 17.2442 29.6352 17.1965C29.5207 17.1489 29.398 17.1244 29.274 17.1244C29.15 17.1244 29.0272 17.1489 28.9128 17.1965C28.7983 17.2442 28.6943 17.3139 28.6069 17.4019L16.4545 29.5543C16.0245 29.5544 15.6042 29.4263 15.2474 29.1864C14.8905 28.9465 14.6132 28.6057 14.451 28.2075C14.2887 27.8093 14.2488 27.3717 14.3363 26.9507C14.4239 26.5297 14.6349 26.1444 14.9425 25.8439C14.9425 25.8439 23.9575 17.0894 26.9377 14.145C27.2362 13.8244 27.5975 13.5688 27.9992 13.3939C28.4008 13.2191 28.8342 13.1289 29.2722 13.1289C29.7103 13.1289 30.1436 13.2191 30.5453 13.3939C30.9469 13.5688 31.3082 13.8244 31.6067 14.145C32.8103 15.3385 34.9992 17.475 37.1775 19.6008C38.1855 20.5756 39.1839 21.5498 40.085 22.4202C42.0829 24.3692 43.605 25.8434 43.605 25.8434Z" fill="#FBAF40"/>
</svg>
