<svg width="57" height="56" viewBox="0 0 57 56" fill="none" xmlns="http://www.w3.org/2000/svg">
<rect x="0.375" width="56" height="56" rx="28" fill="#F8F8FC"/>
<path d="M21.6405 27.0938C20.6127 24.7914 20.069 22.3024 20.043 19.7812C20.043 17.5172 23.1508 12.8906 28.7758 12.8906C34.4008 12.8906 37.5086 17.2725 37.5086 19.9922C37.4672 22.4386 36.9405 24.8525 35.9589 27.0938H21.6405Z" fill="#6C4437"/>
<path d="M34.9156 17.4905C34.6604 14.2013 39.7353 11.6578 42.4271 14.0273C41.9857 17.7175 37.6956 19.87 34.9156 17.4905Z" fill="#6C4437"/>
<path d="M22.5941 17.4905C22.8494 14.2013 17.7745 11.6578 15.0827 14.0273C15.5241 17.7175 19.8142 19.87 22.5941 17.4905Z" fill="#6C4437"/>
<path d="M28.7605 35.8633C25.7258 35.8633 21.7293 38.1133 19.6115 40.8245C19.4829 40.9849 19.4145 41.1851 19.4181 41.3906C19.4217 41.5961 19.4971 41.7938 19.6311 41.9495C22.6968 45.5214 35.0999 45.5045 37.9293 41.9495C38.0506 41.7946 38.1165 41.6035 38.1165 41.4067C38.1165 41.2099 38.0506 41.0188 37.9293 40.8639C35.8058 38.1189 31.7924 35.8633 28.7605 35.8633Z" fill="#1FCC68"/>
<path d="M38.9499 28.5415C40.047 27.4444 40.2891 25.9078 39.4908 25.1094C38.6924 24.311 37.1558 24.5532 36.0587 25.6503C34.9616 26.7474 34.7195 28.2839 35.5179 29.0823C36.3162 29.8807 37.8528 29.6385 38.9499 28.5415Z" fill="#FFA585"/>
<path d="M22.0259 29.082C22.8243 28.2836 22.5821 26.747 21.4851 25.6499C20.388 24.5529 18.8514 24.3107 18.053 25.1091C17.2546 25.9075 17.4968 27.4441 18.5939 28.5411C19.691 29.6382 21.2275 29.8804 22.0259 29.082Z" fill="#FFA585"/>
<path d="M21.2021 26.9942C20.6846 26.4627 19.9505 25.8945 19.1912 25.8945C19.0964 25.8945 19.0056 25.9322 18.9386 25.9991C18.8716 26.0661 18.834 26.157 18.834 26.2517C18.834 26.3465 18.8716 26.4373 18.9386 26.5043C19.0056 26.5713 19.0964 26.6089 19.1912 26.6089C19.9759 26.6089 20.9293 27.703 21.2949 28.2092C21.4316 28.4008 21.582 28.5822 21.7449 28.752C21.642 28.3127 21.5826 27.8643 21.5677 27.4133C21.4543 27.2664 21.3322 27.1265 21.2021 26.9942Z" fill="#E27A4C"/>
<path d="M35.935 27.4122C35.9201 27.8632 35.8607 28.3116 35.7578 28.7509C35.9228 28.5804 36.0751 28.3981 36.2134 28.2053C36.5791 27.6991 37.5325 26.605 38.3172 26.605C38.4119 26.605 38.5028 26.5674 38.5698 26.5004C38.6367 26.4334 38.6744 26.3425 38.6744 26.2478C38.6744 26.1531 38.6367 26.0622 38.5698 25.9952C38.5028 25.9283 38.4119 25.8906 38.3172 25.8906C37.555 25.8906 36.8237 26.4531 36.3062 26.9903C36.1741 27.1233 36.0501 27.2642 35.935 27.4122Z" fill="#E27A4C"/>
<path d="M31.6089 36.4168C31.2602 36.3296 30.9058 36.1693 30.5458 36.113V31.4612C30.5275 31.0001 30.3315 30.5641 29.9988 30.2444C29.6661 29.9247 29.2226 29.7461 28.7613 29.7461C28.2999 29.7461 27.8564 29.9247 27.5237 30.2444C27.191 30.5641 26.995 31.0001 26.9767 31.4612V36.113C26.6364 36.1665 26.3017 36.3212 25.9727 36.3943C25.9727 36.504 27.2214 38.2393 28.7852 38.2393C30.3489 38.2393 31.6202 36.5209 31.6089 36.4168Z" fill="#FFA585"/>
<path d="M35.964 22.387C34.4536 21.8808 31.959 19.642 30.8115 17.0742C29.2899 19.5802 23.8618 21.9511 21.5583 22.418V26.3639C21.5583 27.6689 21.2546 33.9042 28.778 33.9042C36.3015 33.9042 35.9668 27.3877 35.9668 26.3105L35.964 22.387Z" fill="#FFBEA1"/>
<path d="M25.7274 26.8616C26.2726 26.8616 26.7146 26.4221 26.7146 25.88C26.7146 25.3379 26.2726 24.8984 25.7274 24.8984C25.1822 24.8984 24.7402 25.3379 24.7402 25.88C24.7402 26.4221 25.1822 26.8616 25.7274 26.8616Z" fill="#794D4D"/>
<path d="M31.7943 26.843C32.3333 26.843 32.7702 26.4085 32.7702 25.8727C32.7702 25.3368 32.3333 24.9023 31.7943 24.9023C31.2553 24.9023 30.8184 25.3368 30.8184 25.8727C30.8184 26.4085 31.2553 26.843 31.7943 26.843Z" fill="#794D4D"/>
<path d="M27.5769 22.9548C27.5769 22.8601 27.5393 22.7693 27.4723 22.7023C27.4053 22.6353 27.3144 22.5977 27.2197 22.5977C26.2831 22.5977 24.6603 22.9042 23.9797 23.5848C23.942 23.6168 23.9114 23.6562 23.8897 23.7005C23.8681 23.7449 23.8558 23.7933 23.8538 23.8426C23.8518 23.892 23.86 23.9412 23.878 23.9872C23.8959 24.0332 23.9232 24.0749 23.9581 24.1098C23.993 24.1448 24.0348 24.1721 24.0808 24.19C24.1268 24.208 24.176 24.2162 24.2254 24.2142C24.2747 24.2121 24.3231 24.1999 24.3674 24.1782C24.4118 24.1566 24.4512 24.1259 24.4831 24.0883C24.9416 23.6298 26.2916 23.312 27.2197 23.312C27.3144 23.312 27.4053 23.2744 27.4723 23.2074C27.5393 23.1404 27.5769 23.0496 27.5769 22.9548Z" fill="#794D4D"/>
<path d="M30.2986 22.5977C30.2039 22.5977 30.113 22.6353 30.046 22.7023C29.979 22.7693 29.9414 22.8601 29.9414 22.9548C29.9414 23.0496 29.979 23.1404 30.046 23.2074C30.113 23.2744 30.2039 23.312 30.2986 23.312C31.2239 23.312 32.5767 23.6298 33.0352 24.0883C33.103 24.1513 33.1927 24.1855 33.2853 24.1837C33.3779 24.1818 33.4662 24.1441 33.5315 24.0784C33.5968 24.0128 33.6341 23.9243 33.6354 23.8317C33.6367 23.7391 33.602 23.6495 33.5386 23.582C32.8608 22.9042 31.2352 22.5977 30.2986 22.5977Z" fill="#794D4D"/>
<path d="M30.4233 28.8992C30.3635 28.846 30.2899 28.825 30.2183 28.8408C30.1467 28.8566 30.0827 28.9078 30.0399 28.9835C30.0268 29.006 29.7087 29.546 28.8153 29.546C27.922 29.546 27.4535 28.9639 27.4317 28.9357C27.382 28.866 27.3129 28.8246 27.2395 28.8206C27.1662 28.8167 27.0946 28.8505 27.0406 28.9146C26.9866 28.9788 26.9545 29.068 26.9514 29.1627C26.9483 29.2574 26.9745 29.3497 27.0242 29.4195C27.0482 29.4532 27.6343 30.2632 28.8131 30.2632C29.9919 30.2632 30.4756 29.4195 30.4931 29.3829C30.5322 29.3063 30.5469 29.2131 30.5339 29.1229C30.5209 29.0326 30.4812 28.9525 30.4233 28.8992Z" fill="#794D4D"/>
</svg>
