<svg width="17" height="16" viewBox="0 0 17 16" fill="none" xmlns="http://www.w3.org/2000/svg">
<path d="M9.02913 2.17007C8.98806 2.12979 8.93924 2.09782 8.88545 2.07601C8.83167 2.0542 8.77399 2.04297 8.71574 2.04297C8.65749 2.04297 8.59981 2.0542 8.54603 2.07601C8.49225 2.09782 8.44342 2.12979 8.40235 2.17007L2.69295 7.73603V14.1445L2.65625 14.2304C2.66833 14.2348 2.67993 14.2413 2.69295 14.2463V15.0372H14.7409V7.73603L9.02913 2.17007Z" fill="#B380E0"/>
<circle cx="6.36467" cy="9.80608" r="0.751393" fill="white"/>
<circle cx="8.7553" cy="9.80608" r="0.751393" fill="white"/>
<circle cx="11.1459" cy="9.80608" r="0.751393" fill="white"/>
<path d="M15.487 6.78041C15.5842 6.87111 15.6615 6.98004 15.7144 7.10063C15.7673 7.22122 15.7947 7.351 15.7948 7.48215C15.796 7.61289 15.7706 7.74256 15.72 7.86366C15.6695 7.98476 15.5948 8.09489 15.5003 8.18767C15.4058 8.28045 15.2934 8.35405 15.1695 8.4042C15.0457 8.45435 14.9129 8.48006 14.7788 8.47984L9.06745 2.9141C9.02639 2.87383 8.97756 2.84186 8.92378 2.82005C8.87 2.79824 8.81232 2.78701 8.75407 2.78701C8.69581 2.78701 8.63814 2.79824 8.58435 2.82005C8.53057 2.84186 8.48174 2.87383 8.44068 2.9141L2.73128 8.48007C2.52925 8.4801 2.33181 8.42142 2.16415 8.31155C1.99649 8.20167 1.86622 8.04558 1.78999 7.86319C1.71375 7.68081 1.695 7.48041 1.73613 7.28759C1.77726 7.09477 1.87641 6.91827 2.02092 6.78064C2.02092 6.78064 6.25632 2.77099 7.65644 1.42243C7.79668 1.2756 7.96644 1.15849 8.15514 1.07842C8.34384 0.998354 8.54744 0.957031 8.75324 0.957031C8.95904 0.957031 9.16263 0.998354 9.35133 1.07842C9.54003 1.15849 9.70979 1.2756 9.85003 1.42243C10.4155 1.96905 11.4438 2.94758 12.4672 3.92125C12.9408 4.36769 13.4099 4.8139 13.8333 5.21256C14.7719 6.10521 15.487 6.78041 15.487 6.78041Z" fill="#B380E0"/>
</svg>
