<svg width="57" height="56" viewBox="0 0 57 56" fill="none" xmlns="http://www.w3.org/2000/svg">
<rect x="1.375" y="1" width="54" height="54" rx="27" fill="#E7FAEF"/>
<rect x="1.375" y="1" width="54" height="54" rx="27" stroke="#0CC25A" stroke-width="2"/>
<path d="M21.3905 27.0938C20.3627 24.7914 19.819 22.3024 19.793 19.7812C19.793 17.5172 22.9008 12.8906 28.5258 12.8906C34.1508 12.8906 37.2586 17.2725 37.2586 19.9922C37.2172 22.4386 36.6905 24.8525 35.7089 27.0938H21.3905Z" fill="#6C4437"/>
<path d="M34.6656 17.4905C34.4104 14.2013 39.4853 11.6578 42.1771 14.0273C41.7357 17.7175 37.4456 19.87 34.6656 17.4905Z" fill="#6C4437"/>
<path d="M22.3441 17.4905C22.5994 14.2013 17.5245 11.6578 14.8327 14.0273C15.2741 17.7175 19.5642 19.87 22.3441 17.4905Z" fill="#6C4437"/>
<path d="M28.5105 35.8633C25.4758 35.8633 21.4793 38.1133 19.3615 40.8245C19.2329 40.9849 19.1645 41.1851 19.1681 41.3906C19.1717 41.5961 19.2471 41.7938 19.3811 41.9495C22.4468 45.5214 34.8499 45.5045 37.6793 41.9495C37.8006 41.7946 37.8665 41.6035 37.8665 41.4067C37.8665 41.2099 37.8006 41.0188 37.6793 40.8639C35.5558 38.1189 31.5424 35.8633 28.5105 35.8633Z" fill="#1FCC68"/>
<path d="M38.6999 28.5415C39.797 27.4444 40.0391 25.9078 39.2408 25.1094C38.4424 24.311 36.9058 24.5532 35.8087 25.6503C34.7116 26.7474 34.4695 28.2839 35.2679 29.0823C36.0662 29.8807 37.6028 29.6385 38.6999 28.5415Z" fill="#FFA585"/>
<path d="M21.7759 29.082C22.5743 28.2836 22.3321 26.747 21.2351 25.6499C20.138 24.5529 18.6014 24.3107 17.803 25.1091C17.0046 25.9075 17.2468 27.4441 18.3439 28.5411C19.441 29.6382 20.9775 29.8804 21.7759 29.082Z" fill="#FFA585"/>
<path d="M20.9521 26.9942C20.4346 26.4627 19.7005 25.8945 18.9412 25.8945C18.8464 25.8945 18.7556 25.9322 18.6886 25.9991C18.6216 26.0661 18.584 26.157 18.584 26.2517C18.584 26.3465 18.6216 26.4373 18.6886 26.5043C18.7556 26.5713 18.8464 26.6089 18.9412 26.6089C19.7259 26.6089 20.6793 27.703 21.0449 28.2092C21.1816 28.4008 21.332 28.5822 21.4949 28.752C21.392 28.3127 21.3326 27.8643 21.3177 27.4133C21.2043 27.2664 21.0822 27.1265 20.9521 26.9942Z" fill="#E27A4C"/>
<path d="M35.685 27.4122C35.6701 27.8632 35.6107 28.3116 35.5078 28.7509C35.6728 28.5804 35.8251 28.3981 35.9634 28.2053C36.3291 27.6991 37.2825 26.605 38.0672 26.605C38.1619 26.605 38.2528 26.5674 38.3198 26.5004C38.3867 26.4334 38.4244 26.3425 38.4244 26.2478C38.4244 26.1531 38.3867 26.0622 38.3198 25.9952C38.2528 25.9283 38.1619 25.8906 38.0672 25.8906C37.305 25.8906 36.5737 26.4531 36.0562 26.9903C35.9241 27.1233 35.8001 27.2642 35.685 27.4122Z" fill="#E27A4C"/>
<path d="M31.3589 36.4168C31.0102 36.3296 30.6558 36.1693 30.2958 36.113V31.4612C30.2775 31.0001 30.0815 30.5641 29.7488 30.2444C29.4161 29.9247 28.9726 29.7461 28.5113 29.7461C28.0499 29.7461 27.6064 29.9247 27.2737 30.2444C26.941 30.5641 26.745 31.0001 26.7267 31.4612V36.113C26.3864 36.1665 26.0517 36.3212 25.7227 36.3943C25.7227 36.504 26.9714 38.2393 28.5352 38.2393C30.0989 38.2393 31.3702 36.5209 31.3589 36.4168Z" fill="#FFA585"/>
<path d="M35.714 22.387C34.2036 21.8808 31.709 19.642 30.5615 17.0742C29.0399 19.5802 23.6118 21.9511 21.3083 22.418V26.3639C21.3083 27.6689 21.0046 33.9042 28.528 33.9042C36.0515 33.9042 35.7168 27.3877 35.7168 26.3105L35.714 22.387Z" fill="#FFBEA1"/>
<path d="M25.4774 26.8616C26.0226 26.8616 26.4646 26.4221 26.4646 25.88C26.4646 25.3379 26.0226 24.8984 25.4774 24.8984C24.9322 24.8984 24.4902 25.3379 24.4902 25.88C24.4902 26.4221 24.9322 26.8616 25.4774 26.8616Z" fill="#794D4D"/>
<path d="M31.5443 26.843C32.0833 26.843 32.5202 26.4085 32.5202 25.8727C32.5202 25.3368 32.0833 24.9023 31.5443 24.9023C31.0053 24.9023 30.5684 25.3368 30.5684 25.8727C30.5684 26.4085 31.0053 26.843 31.5443 26.843Z" fill="#794D4D"/>
<path d="M27.3269 22.9548C27.3269 22.8601 27.2893 22.7693 27.2223 22.7023C27.1553 22.6353 27.0644 22.5977 26.9697 22.5977C26.0331 22.5977 24.4103 22.9042 23.7297 23.5848C23.692 23.6168 23.6614 23.6562 23.6397 23.7005C23.6181 23.7449 23.6058 23.7933 23.6038 23.8426C23.6018 23.892 23.61 23.9412 23.628 23.9872C23.6459 24.0332 23.6732 24.0749 23.7081 24.1098C23.743 24.1448 23.7848 24.1721 23.8308 24.19C23.8768 24.208 23.926 24.2162 23.9754 24.2142C24.0247 24.2121 24.0731 24.1999 24.1174 24.1782C24.1618 24.1566 24.2012 24.1259 24.2331 24.0883C24.6916 23.6298 26.0416 23.312 26.9697 23.312C27.0644 23.312 27.1553 23.2744 27.2223 23.2074C27.2893 23.1404 27.3269 23.0496 27.3269 22.9548Z" fill="#794D4D"/>
<path d="M30.0486 22.5977C29.9539 22.5977 29.863 22.6353 29.796 22.7023C29.729 22.7693 29.6914 22.8601 29.6914 22.9548C29.6914 23.0496 29.729 23.1404 29.796 23.2074C29.863 23.2744 29.9539 23.312 30.0486 23.312C30.9739 23.312 32.3267 23.6298 32.7852 24.0883C32.853 24.1513 32.9427 24.1855 33.0353 24.1837C33.1279 24.1818 33.2162 24.1441 33.2815 24.0784C33.3468 24.0128 33.3841 23.9243 33.3854 23.8317C33.3867 23.7391 33.352 23.6495 33.2886 23.582C32.6108 22.9042 30.9852 22.5977 30.0486 22.5977Z" fill="#794D4D"/>
<path d="M30.1733 28.8992C30.1135 28.846 30.0399 28.825 29.9683 28.8408C29.8967 28.8566 29.8327 28.9078 29.7899 28.9835C29.7768 29.006 29.4587 29.546 28.5653 29.546C27.672 29.546 27.2035 28.9639 27.1817 28.9357C27.132 28.866 27.0629 28.8246 26.9895 28.8206C26.9162 28.8167 26.8446 28.8505 26.7906 28.9146C26.7366 28.9788 26.7045 29.068 26.7014 29.1627C26.6983 29.2574 26.7245 29.3497 26.7742 29.4195C26.7982 29.4532 27.3843 30.2632 28.5631 30.2632C29.7419 30.2632 30.2256 29.4195 30.2431 29.3829C30.2822 29.3063 30.2969 29.2131 30.2839 29.1229C30.2709 29.0326 30.2312 28.9525 30.1733 28.8992Z" fill="#794D4D"/>
</svg>
