<svg width="17" height="16" viewBox="0 0 17 16" fill="none" xmlns="http://www.w3.org/2000/svg">
<g clip-path="url(#clip0_1274_75170)">
<path d="M14.8926 4.30277C14.8926 2.99002 13.7956 1.92578 12.4424 1.92578C11.0891 1.92578 9.99219 2.99002 9.99219 4.30277C9.99219 5.61553 11.0891 6.67977 12.4424 6.67977C13.7956 6.67977 14.8926 5.61553 14.8926 4.30277Z" fill="#5B93EE"/>
<path d="M12.445 7.09766C12.1838 7.09766 11.929 7.12509 11.6832 7.17671C11.753 7.238 11.8204 7.30322 11.8846 7.37282C12.3485 7.87616 12.6041 8.54018 12.6041 9.24277C12.6041 10.0931 12.1898 10.7151 11.8288 11.1619C11.8055 11.1908 9.39524 13.5309 9.39524 13.5309C9.21824 13.7025 8.9894 13.7886 8.76022 13.7895L8.75674 13.7896C8.52576 13.7896 8.29468 13.7028 8.11667 13.5294C8.11667 13.5294 5.62385 11.0996 5.60518 11.0776C5.16078 10.5782 4.91631 9.92805 4.91631 9.24277C4.91631 8.54018 5.17191 7.87616 5.63588 7.37282C5.70009 7.30322 5.76745 7.238 5.83728 7.17671C5.59146 7.12509 5.33665 7.09766 5.07542 7.09766C3.0404 7.09766 1.39062 8.74743 1.39062 10.7825V13.7801C1.39062 13.939 1.51949 14.0679 1.6785 14.0679H15.8419C16.001 14.0679 16.1298 13.939 16.1298 13.7801V10.7825C16.1298 8.74743 14.4801 7.09766 12.445 7.09766Z" fill="#5B93EE"/>
<path d="M7.52149 4.30277C7.52149 2.99002 6.42453 1.92578 5.07129 1.92578C3.71805 1.92578 2.62109 2.99002 2.62109 4.30277C2.62109 5.61553 3.71805 6.67977 5.07129 6.67977C6.42453 6.67977 7.52149 5.61553 7.52149 4.30277Z" fill="#5B93EE"/>
<path d="M5.83203 9.24171C5.83203 9.72592 6.0124 10.1639 6.30343 10.4828L6.3032 10.4831L8.55459 12.676C8.66625 12.7846 8.84404 12.7848 8.95592 12.6764L11.1135 10.5843C11.4248 10.199 11.6851 9.77934 11.6851 9.24171C11.6851 8.47862 11.2797 7.47656 10.0577 7.47656C9.6096 7.47656 9.20377 7.67324 8.90937 7.99114C8.85517 8.04973 8.80479 8.11259 8.75857 8.17893C8.71134 8.11112 8.65962 8.04714 8.60407 7.98743C8.31012 7.67167 7.90574 7.47656 7.45931 7.47656C6.39125 7.47656 5.83203 8.47862 5.83203 9.24171Z" fill="#5B93EE"/>
</g>
<defs>
<clipPath id="clip0_1274_75170">
<rect width="16" height="16" fill="white" transform="translate(0.757812)"/>
</clipPath>
</defs>
</svg>
