<svg width="57" height="56" viewBox="0 0 57 56" fill="none" xmlns="http://www.w3.org/2000/svg">
<rect x="0.625" width="56" height="56" rx="28" fill="#F8F8FC"/>
<path d="M39.9873 28.1435L33.291 24.6711L33.7385 23.8423C34.3435 22.6904 35.7441 22.218 36.9292 22.823L39.4155 24.0992C40.5674 24.7042 41.0398 26.1048 40.4348 27.2899L39.9873 28.1435Z" fill="#F36B3C"/>
<path d="M40.3004 27.5132C39.5379 26.527 38.5434 25.6982 37.3666 25.0932H37.3335C36.1566 24.4882 34.8804 24.1402 33.6372 24.0739C32.2698 24.0076 30.9272 24.2313 29.6841 24.7452C30.2559 25.3833 30.7366 26.1126 31.1178 26.9413C32.7422 26.4027 34.5654 26.4938 36.1898 27.3557C39.3805 28.9801 40.6568 32.9664 38.9993 36.1902C37.3418 39.414 33.3555 40.6903 30.1316 39.0245C29.5266 38.7096 29.0128 38.3201 28.5653 37.8726C27.9272 37.2676 27.4465 36.53 27.1316 35.7675C26.3691 34.0106 26.4023 31.9719 27.3222 30.1569C27.7365 29.3944 28.2752 28.7232 28.8885 28.1762C28.5404 27.3806 28.0266 26.643 27.4548 26.0712C26.5017 26.8336 25.673 27.8281 25.0597 29.0049C23.7171 31.6155 23.7503 34.5824 24.9022 37.0438C25.2503 37.8394 25.731 38.577 26.336 39.24C27.0653 40.0687 27.9603 40.7732 28.9797 41.3119C33.4466 43.6075 38.9578 41.8506 41.2866 37.3919C42.9524 34.0769 42.4386 30.2232 40.3004 27.5132Z" fill="#F2A622"/>
<path d="M43.9057 20.4003C43.3007 19.2483 41.9912 18.519 40.715 18.519C40.4 18.0383 39.9194 17.6571 39.4055 17.367C38.7674 17.0521 38.0381 16.8864 37.3337 16.9858C35.7425 17.2096 34.8143 18.577 35.2949 20.0771L35.3281 20.1765L36.5049 23.8396C36.5381 23.9059 36.5712 23.997 36.6044 24.0633C36.6044 24.0965 36.6375 24.0965 36.6375 24.1296C36.6707 24.1959 36.6707 24.2291 36.7038 24.2871C36.7038 24.3203 36.737 24.3534 36.737 24.3534C36.7701 24.3866 36.8033 24.4529 36.8364 24.4777C36.8364 24.5109 36.8696 24.5109 36.8696 24.544C36.8696 24.544 36.8696 24.5772 36.9027 24.5772L36.9359 24.6103C36.969 24.6435 37.0022 24.7098 37.0353 24.7346C37.2259 24.9915 37.5491 25.149 37.8972 25.149H38.0547H38.0878H38.121C38.121 25.149 38.1541 25.149 38.1873 25.149C38.2536 25.149 38.2867 25.149 38.3447 25.1159H38.411C38.4773 25.1159 38.5105 25.0827 38.5685 25.0827H38.6348C38.7011 25.0496 38.7591 25.0496 38.8254 25.0164L42.5216 23.8396L42.646 23.8064C43.3172 23.5827 43.7979 23.1683 44.0797 22.6545C44.32 22.0246 44.32 21.1959 43.9057 20.4003Z" fill="#00ACAC"/>
<path d="M23.8876 22.3361L16.8101 24.7892L16.4951 23.8941C16.0808 22.651 16.7189 21.3084 17.962 20.894L20.6057 19.9658C21.8489 19.5515 23.1914 20.1896 23.6058 21.4327L23.8876 22.3361Z" fill="#FBB959"/>
<path d="M31.4787 27.7627C31.3793 27.4726 31.2549 27.1909 31.1306 26.9008C30.335 27.1577 29.5643 27.6052 28.9013 28.1439C28.9676 28.2682 29.0256 28.434 29.0588 28.5914C29.987 31.202 29.1251 34.0446 27.1112 35.7353C26.5062 36.2491 25.8018 36.6635 25.0062 36.9452C24.973 36.9452 24.9399 36.9784 24.8819 36.9784C21.4674 38.0972 17.8043 36.274 16.6192 32.9009C15.4424 29.4865 17.2574 25.724 20.6718 24.5471C23.0918 23.7184 25.6775 24.3897 27.4344 26.0472C28.1057 25.5085 28.8681 25.061 29.6969 24.7046C28.1637 22.9477 26.0007 21.8703 23.6719 21.6465C22.4288 21.5222 21.1193 21.6797 19.8431 22.1272C19.8431 22.1272 19.8431 22.1272 19.8099 22.1272C18.5668 22.5747 17.448 23.246 16.5612 24.1079C14.0335 26.4864 12.981 30.2241 14.191 33.7297C15.8485 38.4784 21.0447 40.9978 25.7935 39.3735C25.9509 39.3072 26.1084 39.2492 26.2742 39.1829C27.1029 38.8348 27.8654 38.3873 28.5366 37.8403C31.4787 35.5447 32.755 31.5252 31.4787 27.7627Z" fill="#FEC080"/>
<path d="M31.1221 26.8998C30.3265 27.1567 29.5557 27.6042 28.8927 28.1429C28.5446 27.3473 28.0308 26.6097 27.459 26.0379C28.1303 25.4992 28.8927 25.0517 29.7215 24.6953C30.2684 25.3749 30.7408 26.1042 31.1221 26.8998Z" fill="#F2A622"/>
<path d="M20.9869 14.1725C19.7438 13.8245 18.3101 14.272 17.4482 15.1919C16.8763 15.0924 16.2713 15.1587 15.7244 15.3494C15.0531 15.5731 14.4481 16.0206 14.0337 16.5925C13.0807 17.9019 13.4619 19.5263 14.8625 20.1975L14.9619 20.2307L18.4095 21.8882C18.4758 21.9213 18.567 21.9545 18.6333 21.9876C18.6664 21.9876 18.6664 22.0208 18.6996 22.0208C18.7659 22.0539 18.799 22.0539 18.857 22.0871C18.8902 22.0871 18.9233 22.0871 18.9565 22.1202C19.0228 22.1202 19.0559 22.1534 19.114 22.1534C19.1471 22.1534 19.1803 22.1534 19.2134 22.1865H19.2466H19.2797C19.346 22.1865 19.3792 22.2197 19.4372 22.2197C19.7521 22.2528 20.1085 22.1202 20.3322 21.9048C20.3654 21.8716 20.3985 21.8053 20.4565 21.7805C20.4565 21.7805 20.4565 21.7805 20.4897 21.7473C20.4897 21.7473 20.4897 21.7473 20.4897 21.7142L20.5228 21.681C20.556 21.6479 20.5891 21.5816 20.6223 21.5567C20.6223 21.5235 20.6554 21.5235 20.6554 21.4904C20.6886 21.4572 20.7217 21.3909 20.7549 21.3661C20.7549 21.3329 20.788 21.3329 20.788 21.2998C20.8212 21.2335 20.8543 21.1755 20.8875 21.1092L22.5781 17.6367L22.6444 17.5373C22.9594 16.8991 22.9925 16.261 22.7687 15.7223C22.4538 15.0013 21.8488 14.4294 20.9869 14.1725Z" fill="#00CCCC"/>
<path d="M27.8047 15.2919H27.0422V14.5295C27.0422 14.2394 26.8184 14.0156 26.5284 14.0156C26.2383 14.0156 26.0146 14.2394 26.0146 14.5295V15.2919H25.2521C24.962 15.2919 24.7383 15.5157 24.7383 15.8057C24.7383 16.0958 24.962 16.3196 25.2521 16.3196H26.0146V17.0489C26.0146 17.3389 26.2383 17.5627 26.5284 17.5627C26.8184 17.5627 27.0422 17.3389 27.0422 17.0489V16.2864H27.8047C28.0947 16.2864 28.3185 16.0626 28.3185 15.7726C28.2853 15.5157 28.0616 15.2919 27.8047 15.2919Z" fill="#F2A622"/>
<path d="M24.5234 42.9013H23.761V42.1388C23.761 41.8488 23.5372 41.625 23.2471 41.625C22.9571 41.625 22.7333 41.8488 22.7333 42.1388V42.9013H21.9709C21.6808 42.9013 21.457 43.125 21.457 43.4151C21.457 43.7052 21.6808 43.9289 21.9709 43.9289H22.7333V44.6914C22.7333 44.9814 22.9571 45.2052 23.2471 45.2052C23.5372 45.2052 23.761 44.9814 23.761 44.6914V43.9289H24.5234C24.8135 43.9289 25.0372 43.7052 25.0372 43.4151C25.0372 43.125 24.8135 42.9013 24.5234 42.9013Z" fill="#F2A622"/>
<path d="M42.4746 14.8123H41.8696V14.2073C41.8696 13.9836 41.679 13.793 41.4552 13.793C41.2315 13.793 41.0408 13.9836 41.0408 14.2073V14.8123H40.4359C40.2121 14.8123 40.0215 15.0029 40.0215 15.2267C40.0215 15.4505 40.2121 15.6411 40.4359 15.6411H41.0408V16.2461C41.0408 16.4698 41.2315 16.6604 41.4552 16.6604C41.679 16.6604 41.8696 16.4698 41.8696 16.2461V15.6411H42.4746C42.6983 15.6411 42.889 15.4505 42.889 15.2267C42.889 15.0029 42.6983 14.8123 42.4746 14.8123Z" fill="#F2A622"/>
</svg>
