<svg width="17" height="16" viewBox="0 0 17 16" fill="none" xmlns="http://www.w3.org/2000/svg">
<g clip-path="url(#clip0_1274_55060)">
<path d="M10.7194 4.34606C10.334 5.40558 11.1056 6.44589 11.9076 7.88954C12.0127 8.07875 12.2426 8.16444 12.4479 8.08572C13.9182 7.52597 15.2685 7.2233 15.6645 6.13488C15.9752 5.28138 15.5883 4.38331 14.7836 4.09035C14.3308 3.92445 13.8905 4.01014 13.5615 4.18496C13.4223 3.83967 13.1618 3.51095 12.7089 3.34608C11.8812 3.04535 11.0251 3.50695 10.7194 4.34606Z" fill="#3FB8BE"/>
<path d="M5.07367 8.08572C5.27887 8.16433 5.50876 8.07886 5.61399 7.88954C6.37289 6.52358 7.19818 5.43494 6.80216 4.3456C6.49789 3.51095 5.64507 3.04432 4.81281 3.34607C4.3599 3.51095 4.09939 3.83967 3.96011 4.18496C3.63059 4.0098 3.19001 3.92708 2.73755 4.09035C1.9334 4.38342 1.54641 5.28149 1.85708 6.13488C2.24247 7.19393 3.52924 7.49775 5.07367 8.08572Z" fill="#3FB8BE"/>
<path d="M8.75906 1.8135C9.00152 1.8135 9.19781 1.61721 9.19781 1.37475V0.43875C9.19781 0.196295 9.00152 0 8.75906 0C8.51661 0 8.32031 0.196295 8.32031 0.43875V1.37475C8.32031 1.61721 8.51661 1.8135 8.75906 1.8135Z" fill="#3FB8BE"/>
<path d="M10.8271 2.56005L11.7046 1.68255C11.876 1.51117 11.876 1.23352 11.7046 1.06213C11.5332 0.890747 11.2556 0.890747 11.0842 1.06213L10.2067 1.93963C10.0353 2.11102 10.0353 2.38867 10.2067 2.56005C10.3781 2.73144 10.6557 2.73144 10.8271 2.56005Z" fill="#3FB8BE"/>
<path d="M6.69354 2.56005C6.86493 2.73144 7.14257 2.73144 7.31396 2.56005C7.48535 2.38867 7.48535 2.11102 7.31396 1.93963L6.43646 1.06213C6.26507 0.890747 5.98743 0.890747 5.81604 1.06213C5.64465 1.23352 5.64465 1.51117 5.81604 1.68255L6.69354 2.56005Z" fill="#3FB8BE"/>
<path d="M9.19922 10.1511C9.19922 11.0475 9.74114 11.8178 10.5133 12.1577C10.7937 11.5461 10.9542 10.8681 10.9542 10.1511C10.9542 9.43416 10.7937 8.75615 10.5133 8.14453C9.74114 8.48445 9.19922 9.25477 9.19922 10.1511Z" fill="#3FB8BE"/>
<path d="M13.9543 8.46057C14.2749 8.9456 14.4932 9.52523 14.4932 10.1501C14.4932 11.8463 13.0888 13.2214 11.3927 13.2214C9.6965 13.2214 8.32141 11.8463 8.32141 10.1501C8.32141 8.75901 9.25215 7.59747 10.5206 7.21973C10.2067 6.65575 9.94981 6.12423 9.82355 5.58984C7.9295 6.2418 6.56641 8.03473 6.56641 10.1501C6.56641 12.8155 8.72725 14.9764 11.3927 14.9764C14.0581 14.9764 16.2482 12.8155 16.2482 10.1501C16.2482 9.24141 15.9924 8.39442 15.5558 7.66865C15.081 8.02593 14.5093 8.24988 13.9543 8.46057Z" fill="#3FB8BE"/>
<path d="M6.12894 14.9796C6.75084 14.9796 7.34327 14.8579 7.88919 14.6437C7.36852 14.2363 6.92177 13.7415 6.56849 13.1802C6.42361 13.2013 6.27953 13.2246 6.12894 13.2246C4.43278 13.2246 3.02844 11.8495 3.02844 10.1533C3.02844 9.52845 3.21753 8.94871 3.53803 8.46368C2.98708 8.25459 2.44138 8.02973 1.96584 7.67188C1.52926 8.39764 1.27344 9.24463 1.27344 10.1533C1.27344 12.8187 3.46353 14.9796 6.12894 14.9796Z" fill="#3FB8BE"/>
</g>
<defs>
<clipPath id="clip0_1274_55060">
<rect width="16" height="16" fill="white" transform="translate(0.757812)"/>
</clipPath>
</defs>
</svg>
