<svg width="100" height="100" viewBox="0 0 100 100" fill="none" xmlns="http://www.w3.org/2000/svg">
<path d="M65.625 16.6673C65.625 12.0423 69.3333 8.33398 73.9583 8.33398C78.5833 8.33398 82.2916 12.0423 82.2916 16.6673C82.2916 21.2923 78.5833 25.0007 73.9583 25.0007C69.3333 25.0007 65.625 21.2923 65.625 16.6673ZM82.2916 91.6673V66.6673H92.7083L82.125 34.8756C80.9583 31.459 77.7916 29.1673 74.2083 29.1673H73.7083C70.125 29.1673 66.9166 31.459 65.7916 34.8756L62.2083 45.6256C66.7083 48.1256 69.7916 52.834 69.7916 58.334V91.6673H82.2916ZM51.0416 47.9173C54.5 47.9173 57.2916 45.1256 57.2916 41.6673C57.2916 38.209 54.5 35.4173 51.0416 35.4173C47.5833 35.4173 44.7916 38.209 44.7916 41.6673C44.7916 45.1256 47.5833 47.9173 51.0416 47.9173ZM21.875 25.0007C26.5 25.0007 30.2083 21.2923 30.2083 16.6673C30.2083 12.0423 26.5 8.33398 21.875 8.33398C17.25 8.33398 13.5416 12.0423 13.5416 16.6673C13.5416 21.2923 17.25 25.0007 21.875 25.0007ZM30.2083 91.6673V62.5006H36.4583V37.5006C36.4583 32.9173 32.7083 29.1673 28.125 29.1673H15.625C11.0416 29.1673 7.29163 32.9173 7.29163 37.5006V62.5006H13.5416V91.6673H30.2083ZM57.2916 91.6673V75.0006H61.4583V58.334C61.4583 54.9173 58.625 52.084 55.2083 52.084H46.875C43.4583 52.084 40.625 54.9173 40.625 58.334V75.0006H44.7916V91.6673H57.2916Z" fill="#A9A8AA"/>
</svg>
