<svg width="327" height="86" viewBox="0 0 327 86" fill="none" xmlns="http://www.w3.org/2000/svg">
<path d="M33.7798 43.176C33.3478 42.816 33.0358 42.384 32.8438 41.88C32.6518 41.352 32.5558 41.004 32.5558 40.836C32.2198 36.972 32.3758 33.192 33.0238 29.496C33.1438 28.992 33.2758 28.536 33.4198 28.128C33.5638 27.72 33.7078 27.516 33.8518 27.516C34.0198 27.516 34.1998 27.564 34.3918 27.66C34.5838 27.756 34.7518 27.876 34.8958 28.02C35.0398 28.164 35.1478 28.32 35.2198 28.488C35.3158 28.656 35.3638 28.812 35.3638 28.956C34.8838 31.308 34.6198 33.66 34.5718 36.012C34.5478 38.34 34.6078 40.668 34.7518 42.996C34.7518 43.236 34.6438 43.38 34.4278 43.428C34.3078 43.452 34.1878 43.44 34.0678 43.392C33.9718 43.32 33.8758 43.248 33.7798 43.176ZM41.0493 42.924C41.1693 43.788 40.8093 44.28 39.9693 44.4C39.5373 44.448 39.1773 44.328 38.8893 44.04C38.6253 43.752 38.4573 43.404 38.3853 42.996C38.3133 42.564 38.3373 42.144 38.4573 41.736C38.6013 41.328 38.8653 41.1 39.2493 41.052C39.7293 40.98 40.1373 41.16 40.4733 41.592C40.8093 42 41.0013 42.444 41.0493 42.924ZM70.443 26.436C70.395 27.444 70.371 28.428 70.371 29.388C70.395 30.348 70.431 31.332 70.479 32.34C70.767 32.268 71.127 32.196 71.559 32.124C71.991 32.052 72.447 31.992 72.927 31.944C73.407 31.896 73.887 31.86 74.367 31.836C74.847 31.812 75.291 31.812 75.699 31.836C76.179 31.884 76.587 32.004 76.923 32.196C77.283 32.388 77.463 32.628 77.463 32.916C77.463 33.204 77.235 33.42 76.779 33.564C76.347 33.708 75.939 33.792 75.555 33.816C75.243 33.84 74.871 33.876 74.439 33.924C74.031 33.972 73.599 34.044 73.143 34.14C72.687 34.212 72.231 34.308 71.775 34.428C71.343 34.524 70.959 34.632 70.623 34.752C70.695 35.496 70.779 36.24 70.875 36.984C70.971 37.704 71.079 38.436 71.199 39.18C71.223 39.372 71.211 39.576 71.163 39.792C71.115 39.984 71.043 40.164 70.947 40.332C70.851 40.5 70.743 40.644 70.623 40.764C70.503 40.884 70.395 40.956 70.299 40.98C70.107 41.028 69.939 41.016 69.795 40.944C69.675 40.872 69.567 40.776 69.471 40.656C69.375 40.536 69.291 40.404 69.219 40.26C69.171 40.092 69.135 39.948 69.111 39.828C68.919 39.084 68.739 38.184 68.571 37.128C68.403 36.072 68.271 34.932 68.175 33.708C68.103 32.484 68.055 31.224 68.031 29.928C68.031 28.608 68.091 27.312 68.211 26.04C68.283 25.344 68.559 24.936 69.039 24.816C69.207 24.792 69.375 24.828 69.543 24.924C69.735 25.02 69.891 25.164 70.011 25.356C70.155 25.524 70.263 25.716 70.335 25.932C70.407 26.124 70.443 26.292 70.443 26.436ZM63.351 32.772C63.255 33.18 63.135 33.792 62.991 34.608C62.847 35.4 62.715 36.276 62.595 37.236C62.499 38.172 62.427 39.108 62.379 40.044C62.331 40.956 62.343 41.724 62.415 42.348C62.463 42.852 62.331 43.176 62.019 43.32C61.707 43.464 61.443 43.512 61.227 43.464C61.035 43.44 60.867 43.368 60.723 43.248C60.603 43.104 60.507 42.948 60.435 42.78C60.363 42.612 60.303 42.444 60.255 42.276C60.231 42.108 60.207 41.952 60.183 41.808C60.135 41.376 60.123 40.764 60.147 39.972C60.171 39.18 60.219 38.328 60.291 37.416C60.387 36.504 60.495 35.616 60.615 34.752C60.759 33.888 60.915 33.168 61.083 32.592C60.771 32.664 60.399 32.772 59.967 32.916C59.535 33.06 59.091 33.228 58.635 33.42C58.203 33.588 57.783 33.768 57.375 33.96C56.967 34.152 56.631 34.308 56.367 34.428C56.079 34.572 55.803 34.536 55.539 34.32C55.275 34.104 55.095 33.9 54.999 33.708C54.927 33.564 54.879 33.372 54.855 33.132C54.855 32.892 55.023 32.676 55.359 32.484C55.599 32.34 55.947 32.148 56.403 31.908C56.859 31.668 57.351 31.428 57.879 31.188C58.431 30.948 58.995 30.744 59.571 30.576C60.147 30.408 60.675 30.324 61.155 30.324C62.043 30.324 62.679 30.564 63.063 31.044C63.447 31.5 63.543 32.076 63.351 32.772ZM79.3904 31.08C79.9664 29.736 80.5424 28.488 81.1184 27.336C81.7184 26.184 82.2584 24.9 82.7384 23.484C82.2584 23.604 81.7424 23.796 81.1904 24.06C80.6624 24.3 80.1584 24.54 79.6784 24.78C79.2944 24.948 78.9704 24.948 78.7064 24.78C78.4424 24.612 78.2504 24.408 78.1304 24.168C77.9144 23.688 78.0704 23.292 78.5984 22.98C79.1504 22.572 79.7624 22.236 80.4344 21.972C81.1064 21.684 81.8624 21.48 82.7024 21.36C83.0144 21.312 83.3264 21.348 83.6384 21.468C83.9504 21.588 84.2264 21.756 84.4664 21.972C84.7064 22.188 84.8864 22.452 85.0064 22.764C85.1264 23.052 85.1504 23.364 85.0784 23.7C84.7184 24.972 84.2264 26.292 83.6024 27.66C84.0824 27.612 84.6584 27.564 85.3304 27.516C86.0264 27.444 86.7584 27.384 87.5264 27.336C88.4864 27.312 89.4224 27.324 90.3344 27.372C91.2704 27.42 92.0024 27.54 92.5304 27.732C93.4184 28.044 93.8024 28.428 93.6824 28.884C93.6344 29.076 93.4664 29.268 93.1784 29.46C92.9144 29.652 92.5784 29.724 92.1704 29.676C90.9464 29.556 89.7224 29.52 88.4984 29.568C87.2984 29.592 86.1224 29.628 84.9704 29.676C84.4904 29.676 84.0944 29.616 83.7824 29.496C83.4704 29.376 83.2064 29.208 82.9904 28.992C82.7504 29.448 82.5104 29.904 82.2704 30.36C82.0304 30.816 81.7784 31.26 81.5144 31.692C81.2984 32.028 81.0584 32.28 80.7944 32.448C80.5304 32.616 80.2184 32.604 79.8584 32.412C79.3304 32.124 79.1744 31.68 79.3904 31.08ZM86.4464 31.8C86.5184 31.536 86.6504 31.32 86.8424 31.152C87.0344 30.96 87.3104 30.852 87.6704 30.828C88.4384 30.756 88.7864 31.068 88.7144 31.764C88.6664 32.076 88.6064 32.448 88.5344 32.88C88.4624 33.312 88.3904 33.78 88.3184 34.284C88.2704 34.764 88.2104 35.256 88.1384 35.76C88.0904 36.24 88.0544 36.708 88.0304 37.164C88.8464 36.948 89.6144 36.732 90.3344 36.516C91.0784 36.3 91.6784 36.12 92.1344 35.976C92.4704 35.856 92.9024 35.82 93.4304 35.868C93.6464 35.916 93.8384 36 94.0064 36.12C94.1744 36.24 94.2704 36.42 94.2944 36.66C94.3184 37.14 94.0664 37.5 93.5384 37.74C93.0584 37.956 92.3984 38.208 91.5584 38.496C90.7424 38.784 89.8784 39.06 88.9664 39.324C88.0544 39.588 87.1784 39.828 86.3384 40.044C85.4984 40.236 84.8384 40.356 84.3584 40.404C83.9504 40.452 83.5304 40.452 83.0984 40.404C82.6904 40.356 82.4264 40.164 82.3064 39.828C82.2104 39.564 82.2704 39.288 82.4864 39C82.7264 38.712 83.0744 38.508 83.5304 38.388C83.7944 38.316 84.1064 38.232 84.4664 38.136C84.8504 38.04 85.2464 37.932 85.6544 37.812C85.7264 36.828 85.8344 35.808 85.9784 34.752C86.1224 33.696 86.2784 32.712 86.4464 31.8ZM92.8184 49.224C92.7704 49.392 92.6144 49.608 92.3504 49.872C92.0864 50.16 91.7504 50.268 91.3424 50.196C91.1264 50.148 90.9224 50.004 90.7304 49.764C90.5624 49.548 90.5144 49.26 90.5864 48.9C90.8264 47.508 90.9704 46.092 91.0184 44.652C90.4424 44.796 89.8184 45 89.1464 45.264C88.4744 45.504 87.8624 45.732 87.3104 45.948C86.9984 46.068 86.6864 46.092 86.3744 46.02C86.0864 45.924 85.8824 45.72 85.7624 45.408C85.6904 45.144 85.7264 44.892 85.8704 44.652C86.0144 44.388 86.1824 44.196 86.3744 44.076C86.5904 43.932 86.9024 43.764 87.3104 43.572C87.7184 43.38 88.1504 43.188 88.6064 42.996C89.0624 42.828 89.5064 42.684 89.9384 42.564C90.3704 42.42 90.7304 42.336 91.0184 42.312C91.8344 42.264 92.4224 42.432 92.7824 42.816C93.1664 43.2 93.3464 43.74 93.3224 44.436C93.2984 45.18 93.2504 45.996 93.1784 46.884C93.1064 47.772 92.9864 48.552 92.8184 49.224ZM123.625 39.756C123.337 39.756 123.085 39.54 122.869 39.108C122.677 38.676 122.521 38.208 122.401 37.704C122.257 37.056 122.149 36.228 122.077 35.22C122.005 34.212 121.957 33.168 121.933 32.088C121.141 32.616 120.277 33.144 119.341 33.672C118.405 34.2 117.241 34.752 115.849 35.328C115.297 35.544 114.841 35.64 114.481 35.616C114.121 35.568 113.881 35.424 113.761 35.184C113.641 34.992 113.629 34.752 113.725 34.464C113.821 34.152 114.145 33.852 114.697 33.564C115.849 32.94 117.061 32.304 118.333 31.656C119.605 31.008 120.817 30.3 121.969 29.532C121.993 28.668 122.065 27.948 122.185 27.372C122.281 26.892 122.425 26.448 122.617 26.04C122.833 25.608 123.121 25.392 123.481 25.392C123.697 25.392 123.925 25.572 124.165 25.932C124.429 26.292 124.537 26.772 124.489 27.372C124.273 29.364 124.189 31.26 124.237 33.06C124.309 34.86 124.417 36.588 124.561 38.244C124.609 38.796 124.525 39.192 124.309 39.432C124.117 39.648 123.889 39.756 123.625 39.756ZM112.789 31.404C112.573 32.268 112.393 33.06 112.249 33.78C112.105 34.476 111.961 35.196 111.817 35.94C111.697 36.66 111.577 37.44 111.457 38.28C111.337 39.096 111.205 40.056 111.061 41.16C111.013 41.496 110.881 41.76 110.665 41.952C110.473 42.144 110.209 42.216 109.873 42.168C109.633 42.12 109.453 42.036 109.333 41.916C109.213 41.772 109.117 41.616 109.045 41.448C108.997 41.256 108.961 41.052 108.937 40.836C108.937 40.62 108.937 40.404 108.937 40.188C109.009 39.444 109.081 38.736 109.153 38.064C109.249 37.392 109.345 36.72 109.441 36.048C109.561 35.376 109.681 34.692 109.801 33.996C109.945 33.3 110.101 32.544 110.269 31.728C109.645 31.752 109.081 31.848 108.577 32.016C108.073 32.16 107.593 32.352 107.137 32.592C106.945 32.688 106.681 32.748 106.345 32.772C106.033 32.796 105.781 32.628 105.589 32.268C105.469 32.052 105.433 31.8 105.481 31.512C105.553 31.224 105.709 30.984 105.949 30.792C106.333 30.48 106.741 30.228 107.173 30.036C107.605 29.82 108.025 29.652 108.433 29.532C108.865 29.388 109.273 29.292 109.657 29.244C110.041 29.196 110.377 29.172 110.665 29.172C111.457 29.172 112.033 29.412 112.393 29.892C112.777 30.348 112.909 30.852 112.789 31.404ZM119.485 40.116C119.245 40.668 118.981 41.304 118.693 42.024C118.405 42.72 118.177 43.308 118.009 43.788C119.473 43.788 120.913 43.68 122.329 43.464C123.769 43.248 125.125 43.02 126.397 42.78C126.685 42.708 126.973 42.72 127.261 42.816C127.573 42.888 127.729 43.056 127.729 43.32C127.729 43.584 127.597 43.848 127.333 44.112C127.093 44.352 126.793 44.568 126.433 44.76C126.121 44.928 125.605 45.096 124.885 45.264C124.189 45.432 123.409 45.588 122.545 45.732C121.705 45.876 120.829 45.984 119.917 46.056C119.029 46.128 118.249 46.152 117.577 46.128C116.617 46.08 115.993 45.864 115.705 45.48C115.417 45.072 115.381 44.448 115.597 43.608C115.693 43.248 115.813 42.864 115.957 42.456C116.101 42.024 116.257 41.604 116.425 41.196C116.617 40.788 116.809 40.404 117.001 40.044C117.193 39.684 117.373 39.372 117.541 39.108C117.733 38.868 117.889 38.688 118.009 38.568C118.153 38.424 118.321 38.364 118.513 38.388C118.657 38.388 118.801 38.448 118.945 38.568C119.089 38.688 119.209 38.844 119.305 39.036C119.425 39.204 119.497 39.384 119.521 39.576C119.569 39.768 119.557 39.948 119.485 40.116ZM132.233 42.384C131.921 42.312 131.693 42.12 131.549 41.808C131.405 41.472 131.333 41.172 131.333 40.908C131.357 40.452 131.429 39.9 131.549 39.252C131.669 38.58 131.801 37.86 131.945 37.092C132.113 36.3 132.281 35.496 132.449 34.68C132.617 33.84 132.785 33.036 132.953 32.268C132.689 32.316 132.353 32.4 131.945 32.52C131.561 32.64 131.153 32.772 130.721 32.916C130.289 33.036 129.881 33.156 129.497 33.276C129.113 33.396 128.813 33.48 128.597 33.528C128.309 33.6 128.009 33.6 127.697 33.528C127.385 33.432 127.181 33.168 127.085 32.736C127.013 32.352 127.037 32.064 127.157 31.872C127.301 31.656 127.541 31.488 127.877 31.368C128.069 31.296 128.381 31.188 128.813 31.044C129.269 30.9 129.761 30.756 130.289 30.612C130.817 30.444 131.333 30.3 131.837 30.18C132.365 30.036 132.797 29.928 133.133 29.856C133.829 29.688 134.393 29.796 134.825 30.18C135.281 30.54 135.425 31.14 135.257 31.98C134.945 33.612 134.645 35.172 134.357 36.66C134.093 38.148 133.841 39.696 133.601 41.304C133.505 41.688 133.349 41.988 133.133 42.204C132.917 42.42 132.617 42.48 132.233 42.384ZM142.097 37.02C142.073 37.452 141.953 37.788 141.737 38.028C141.545 38.268 141.329 38.388 141.089 38.388C140.777 38.388 140.537 38.304 140.369 38.136C140.225 37.944 140.141 37.704 140.117 37.416C140.069 36.648 140.045 35.748 140.045 34.716C140.045 33.684 140.057 32.628 140.081 31.548C140.129 30.444 140.189 29.364 140.261 28.308C140.333 27.252 140.405 26.328 140.477 25.536C140.501 25.248 140.633 24.972 140.873 24.708C141.113 24.444 141.413 24.36 141.773 24.456C142.013 24.504 142.181 24.636 142.277 24.852C142.397 25.044 142.469 25.26 142.493 25.5C142.541 25.716 142.565 25.932 142.565 26.148C142.565 26.34 142.565 26.472 142.565 26.544C142.541 27.024 142.517 27.492 142.493 27.948C142.493 28.38 142.481 28.836 142.457 29.316C143.273 29.052 144.053 28.86 144.797 28.74C145.565 28.62 146.357 28.584 147.173 28.632C147.629 28.656 148.001 28.776 148.289 28.992C148.577 29.184 148.721 29.364 148.721 29.532C148.745 29.868 148.601 30.084 148.289 30.18C147.977 30.276 147.629 30.36 147.245 30.432C146.453 30.552 145.625 30.696 144.761 30.864C143.897 31.032 143.093 31.224 142.349 31.44C142.301 32.376 142.253 33.312 142.205 34.248C142.181 35.16 142.145 36.084 142.097 37.02ZM144.833 40.872C144.929 41.064 145.025 41.304 145.121 41.592C145.217 41.856 145.265 42.168 145.265 42.528C145.289 42.864 145.253 43.212 145.157 43.572C145.061 43.932 144.881 44.28 144.617 44.616C143.465 46.08 142.109 46.944 140.549 47.208C139.877 47.328 139.325 47.22 138.893 46.884C138.485 46.548 138.257 46.116 138.209 45.588C138.137 45.012 138.161 44.46 138.281 43.932C138.425 43.404 138.641 42.9 138.929 42.42C139.217 41.94 139.565 41.496 139.973 41.088C140.381 40.68 140.825 40.32 141.305 40.008C141.593 39.816 141.881 39.66 142.169 39.54C142.481 39.396 142.721 39.384 142.889 39.504C143.057 39.648 143.165 39.816 143.213 40.008C143.501 39.84 143.801 39.876 144.113 40.116C144.425 40.356 144.665 40.608 144.833 40.872ZM142.781 41.34C142.541 41.58 142.277 41.856 141.989 42.168C141.725 42.456 141.473 42.78 141.233 43.14C140.993 43.476 140.789 43.812 140.621 44.148C140.477 44.484 140.405 44.808 140.405 45.12C141.077 44.88 141.665 44.496 142.169 43.968C142.673 43.44 142.973 42.972 143.069 42.564C143.117 42.3 143.105 42.072 143.033 41.88C142.985 41.664 142.925 41.46 142.853 41.268C142.853 41.268 142.829 41.292 142.781 41.34ZM161.415 38.46C161.655 38.364 161.967 38.232 162.351 38.064C162.735 37.872 163.131 37.692 163.539 37.524C163.971 37.356 164.379 37.212 164.763 37.092C165.171 36.948 165.519 36.876 165.807 36.876C166.455 36.876 166.983 37.044 167.391 37.38C167.823 37.716 167.991 38.256 167.895 39C167.847 39.384 167.751 39.828 167.607 40.332C167.463 40.812 167.295 41.304 167.103 41.808C166.935 42.312 166.743 42.816 166.527 43.32C166.311 43.8 166.119 44.22 165.951 44.58C166.743 44.388 167.559 44.136 168.399 43.824C169.239 43.512 169.995 43.236 170.667 42.996C170.955 42.876 171.267 42.828 171.603 42.852C171.963 42.876 172.167 43.02 172.215 43.284C172.239 43.428 172.179 43.704 172.035 44.112C171.915 44.496 171.627 44.82 171.171 45.084C170.739 45.3 170.259 45.516 169.731 45.732C169.203 45.948 168.663 46.152 168.111 46.344C167.559 46.536 167.019 46.704 166.491 46.848C165.963 46.992 165.495 47.1 165.087 47.172C164.847 47.22 164.595 47.22 164.331 47.172C164.091 47.124 163.875 47.028 163.683 46.884C163.419 46.692 163.215 46.452 163.071 46.164C162.951 45.852 162.975 45.528 163.143 45.192C163.311 44.832 163.503 44.412 163.719 43.932C163.935 43.428 164.151 42.912 164.367 42.384C164.607 41.832 164.823 41.28 165.015 40.728C165.231 40.176 165.399 39.66 165.519 39.18C165.039 39.3 164.511 39.48 163.935 39.72C163.359 39.936 162.819 40.176 162.315 40.44C162.051 40.56 161.859 40.584 161.739 40.512C161.619 40.416 161.535 40.332 161.487 40.26C161.487 40.812 161.547 41.436 161.667 42.132C161.787 42.804 161.931 43.476 162.099 44.148C162.147 44.34 162.135 44.52 162.063 44.688C162.015 44.856 161.883 44.988 161.667 45.084C161.355 45.204 161.055 45.204 160.767 45.084C160.479 44.94 160.287 44.748 160.191 44.508C159.855 43.644 159.615 42.708 159.471 41.7C159.351 40.692 159.315 39.648 159.363 38.568C159.387 38.4 159.411 38.232 159.435 38.064C159.483 37.872 159.531 37.704 159.579 37.56C159.651 37.416 159.747 37.308 159.867 37.236C159.987 37.14 160.143 37.116 160.335 37.164C160.671 37.236 160.935 37.38 161.127 37.596C161.343 37.788 161.439 38.076 161.415 38.46ZM166.635 34.824C166.347 34.776 166.107 34.536 165.915 34.104C165.747 33.648 165.627 33.168 165.555 32.664C165.483 32.208 165.447 31.524 165.447 30.612C164.679 31.116 163.839 31.632 162.927 32.16C162.015 32.664 160.875 33.192 159.507 33.744C158.955 33.96 158.499 34.056 158.139 34.032C157.779 33.984 157.539 33.84 157.419 33.6C157.299 33.408 157.287 33.168 157.383 32.88C157.479 32.568 157.803 32.268 158.355 31.98C159.507 31.356 160.707 30.72 161.955 30.072C163.227 29.424 164.439 28.716 165.591 27.948C165.615 27.66 165.651 27.372 165.699 27.084C165.747 26.796 165.795 26.508 165.843 26.22C165.939 25.74 166.083 25.296 166.275 24.888C166.491 24.456 166.779 24.24 167.139 24.24C167.355 24.24 167.595 24.42 167.859 24.78C168.123 25.14 168.219 25.62 168.147 26.22C168.051 27.06 167.967 27.816 167.895 28.488C167.823 29.136 167.763 29.748 167.715 30.324C167.691 30.876 167.679 31.404 167.679 31.908C167.679 32.412 167.691 32.916 167.715 33.42C167.739 33.972 167.619 34.356 167.355 34.572C167.115 34.764 166.875 34.848 166.635 34.824ZM157.131 30.54C156.915 31.404 156.735 32.196 156.591 32.916C156.447 33.612 156.303 34.332 156.159 35.076C156.039 35.796 155.919 36.576 155.799 37.416C155.679 38.232 155.547 39.192 155.403 40.296C155.355 40.632 155.223 40.896 155.007 41.088C154.815 41.28 154.551 41.352 154.215 41.304C153.975 41.256 153.795 41.172 153.675 41.052C153.555 40.908 153.459 40.752 153.387 40.584C153.339 40.392 153.303 40.188 153.279 39.972C153.279 39.756 153.279 39.54 153.279 39.324C153.423 37.812 153.603 36.396 153.819 35.076C154.059 33.732 154.347 32.244 154.683 30.612C154.059 30.636 153.411 30.768 152.739 31.008C152.091 31.248 151.539 31.488 151.083 31.728C150.891 31.824 150.627 31.884 150.291 31.908C149.979 31.932 149.727 31.764 149.535 31.404C149.415 31.188 149.379 30.936 149.427 30.648C149.499 30.36 149.655 30.12 149.895 29.928C150.279 29.616 150.699 29.364 151.155 29.172C151.635 28.956 152.103 28.788 152.559 28.668C153.039 28.524 153.495 28.428 153.927 28.38C154.359 28.332 154.719 28.308 155.007 28.308C155.799 28.308 156.375 28.548 156.735 29.028C157.119 29.484 157.251 29.988 157.131 30.54ZM174.733 37.92C174.709 37.968 174.661 38.052 174.589 38.172C174.541 38.292 174.469 38.4 174.373 38.496C174.109 38.76 173.785 38.88 173.401 38.856C173.209 38.832 173.065 38.748 172.969 38.604C172.873 38.46 172.813 38.292 172.789 38.1C172.741 37.908 172.729 37.704 172.753 37.488C172.777 37.272 172.813 37.092 172.861 36.948C173.485 35.34 174.229 33.948 175.093 32.772C175.981 31.572 176.821 30.516 177.613 29.604C176.701 29.868 175.825 30.216 174.985 30.648C174.169 31.08 173.413 31.524 172.717 31.98C172.429 32.172 172.141 32.28 171.853 32.304C171.565 32.304 171.325 32.208 171.133 32.016C170.821 31.704 170.737 31.38 170.881 31.044C171.025 30.684 171.217 30.408 171.457 30.216C171.841 29.904 172.417 29.52 173.185 29.064C173.953 28.608 174.769 28.212 175.633 27.876C176.497 27.564 177.337 27.372 178.153 27.3C178.969 27.228 179.629 27.408 180.133 27.84C180.397 28.08 180.541 28.38 180.565 28.74C180.613 29.076 180.445 29.484 180.061 29.964C179.485 30.66 178.945 31.32 178.441 31.944C177.961 32.568 177.505 33.192 177.073 33.816C176.641 34.464 176.233 35.124 175.849 35.796C175.465 36.444 175.093 37.152 174.733 37.92ZM177.397 35.22C177.349 34.812 177.349 34.452 177.397 34.14C177.469 33.804 177.661 33.624 177.973 33.6C178.357 33.576 178.669 33.708 178.909 33.996C179.149 34.26 179.293 34.548 179.341 34.86C179.437 35.412 179.533 35.976 179.629 36.552C179.725 37.104 179.809 37.644 179.881 38.172C179.977 38.676 180.049 39.156 180.097 39.612C180.145 40.044 180.193 40.416 180.241 40.728C180.289 41.136 180.193 41.496 179.953 41.808C179.713 42.12 179.449 42.3 179.161 42.348C178.825 42.372 178.573 42.168 178.405 41.736C178.309 41.568 178.237 41.4 178.189 41.232C178.165 41.064 178.153 40.944 178.153 40.872C178.057 40.128 177.937 39.276 177.793 38.316C177.673 37.332 177.541 36.3 177.397 35.22ZM187.261 39.108C186.973 38.988 186.757 38.808 186.613 38.568C186.493 38.328 186.409 38.112 186.361 37.92C186.289 37.248 186.253 36.348 186.253 35.22C186.277 34.068 186.313 32.844 186.361 31.548C186.409 30.252 186.481 29.016 186.577 27.84C186.697 26.64 186.829 25.68 186.973 24.96C187.165 24.264 187.477 23.94 187.909 23.988C188.245 24.036 188.521 24.264 188.737 24.672C188.977 25.056 189.073 25.428 189.025 25.788C188.905 26.556 188.809 27.504 188.737 28.632C188.665 29.736 188.605 30.864 188.557 32.016C188.509 33.168 188.473 34.284 188.449 35.364C188.425 36.444 188.425 37.344 188.449 38.064C188.425 38.208 188.389 38.352 188.341 38.496C188.317 38.64 188.257 38.772 188.161 38.892C187.969 39.18 187.669 39.252 187.261 39.108ZM184.561 39.54C184.417 40.404 184.297 41.244 184.201 42.06C184.105 42.852 184.081 43.656 184.129 44.472C185.305 44.136 186.421 43.752 187.477 43.32C188.533 42.888 189.565 42.372 190.573 41.772C190.933 41.556 191.245 41.376 191.509 41.232C191.773 41.088 191.965 41.148 192.085 41.412C192.205 41.724 192.145 42.144 191.905 42.672C191.665 43.2 191.293 43.644 190.789 44.004C189.997 44.532 189.013 45.072 187.837 45.624C186.661 46.176 185.485 46.584 184.309 46.848C184.165 46.872 183.949 46.908 183.661 46.956C183.373 46.98 183.085 46.944 182.797 46.848C182.509 46.752 182.257 46.572 182.041 46.308C181.825 46.044 181.717 45.624 181.717 45.048C181.717 44.208 181.777 43.284 181.897 42.276C182.017 41.244 182.245 40.272 182.581 39.36C182.653 39.168 182.797 38.964 183.013 38.748C183.229 38.532 183.469 38.424 183.733 38.424C184.165 38.424 184.417 38.532 184.489 38.748C184.585 38.964 184.609 39.228 184.561 39.54ZM197.344 22.044C197.8 22.092 198.148 22.248 198.388 22.512C198.628 22.776 198.748 23.112 198.748 23.52C198.748 24.024 198.652 24.504 198.46 24.96C198.268 25.416 197.992 25.824 197.632 26.184C197.296 26.544 196.9 26.856 196.444 27.12C195.988 27.36 195.496 27.528 194.968 27.624C194.608 27.696 194.284 27.708 193.996 27.66C193.732 27.612 193.492 27.552 193.276 27.48C193.06 27.384 192.88 27.288 192.736 27.192C192.592 27.096 192.496 27.012 192.448 26.94C192.136 26.58 191.968 26.172 191.944 25.716C191.944 25.236 192.028 24.768 192.196 24.312C192.364 23.832 192.604 23.376 192.916 22.944C193.228 22.512 193.552 22.152 193.888 21.864C194.2 21.6 194.536 21.372 194.896 21.18C195.256 20.988 195.64 20.868 196.048 20.82C196.432 20.796 196.72 20.94 196.912 21.252C197.128 21.54 197.272 21.804 197.344 22.044ZM196.624 24.06C196.624 23.892 196.564 23.712 196.444 23.52C196.348 23.304 196.24 23.208 196.12 23.232C195.904 23.304 195.676 23.436 195.436 23.628C195.22 23.796 195.016 23.988 194.824 24.204C194.656 24.396 194.524 24.6 194.428 24.816C194.332 25.008 194.284 25.188 194.284 25.356C194.836 25.356 195.304 25.224 195.688 24.96C196.096 24.672 196.408 24.372 196.624 24.06ZM201.772 31.692C200.308 31.884 198.796 32.184 197.236 32.592C195.7 33 194.26 33.408 192.916 33.816C192.484 33.936 192.112 33.924 191.8 33.78C191.488 33.636 191.272 33.348 191.152 32.916C191.104 32.796 191.14 32.628 191.26 32.412C191.38 32.172 191.584 31.992 191.872 31.872C192.568 31.608 193.312 31.356 194.104 31.116C194.92 30.876 195.736 30.66 196.552 30.468C197.368 30.276 198.148 30.108 198.892 29.964C199.66 29.82 200.332 29.712 200.908 29.64C201.22 29.592 201.508 29.628 201.772 29.748C202.036 29.868 202.288 30.096 202.528 30.432C202.72 30.72 202.732 30.996 202.564 31.26C202.396 31.5 202.132 31.644 201.772 31.692ZM201.088 38.1C200.872 38.268 200.62 38.52 200.332 38.856C200.068 39.168 199.78 39.504 199.468 39.864C199.18 40.224 198.892 40.572 198.604 40.908C198.34 41.244 198.1 41.52 197.884 41.736C198.556 41.688 199.24 41.712 199.936 41.808C200.656 41.88 201.16 42 201.448 42.168C201.88 42.432 202.108 42.78 202.132 43.212C202.18 43.644 202.036 44.136 201.7 44.688C201.46 45.144 201.196 45.552 200.908 45.912C200.62 46.272 200.32 46.632 200.008 46.992C199.72 47.328 199.432 47.676 199.144 48.036C198.856 48.42 198.592 48.852 198.352 49.332C199.312 49.14 200.344 48.888 201.448 48.576C202.576 48.288 203.536 48 204.328 47.712C204.664 47.592 204.952 47.568 205.192 47.64C205.456 47.688 205.66 47.784 205.804 47.928C205.996 48.12 206.08 48.384 206.056 48.72C206.056 49.056 205.888 49.308 205.552 49.476C204.52 50.028 203.32 50.508 201.952 50.916C200.584 51.348 199.24 51.684 197.92 51.924C196.912 52.116 196.156 51.948 195.652 51.42C195.172 50.916 195.136 50.232 195.544 49.368C195.856 48.768 196.168 48.252 196.48 47.82C196.792 47.364 197.104 46.944 197.416 46.56C197.752 46.152 198.088 45.756 198.424 45.372C198.76 44.964 199.132 44.484 199.54 43.932C199.228 43.908 198.88 43.896 198.496 43.896C198.136 43.896 197.776 43.908 197.416 43.932C197.056 43.956 196.72 43.992 196.408 44.04C196.096 44.064 195.856 44.076 195.688 44.076C195.472 44.076 195.28 44.016 195.112 43.896C194.944 43.776 194.812 43.62 194.716 43.428C194.644 43.212 194.62 42.972 194.644 42.708C194.668 42.444 194.776 42.18 194.968 41.916C195.136 41.7 195.376 41.424 195.688 41.088C196 40.728 196.324 40.368 196.66 40.008C196.996 39.624 197.332 39.252 197.668 38.892C198.004 38.532 198.292 38.208 198.532 37.92C197.98 37.944 197.344 38.04 196.624 38.208C195.928 38.376 195.34 38.52 194.86 38.64C194.332 38.784 193.948 38.712 193.708 38.424C193.468 38.136 193.336 37.86 193.312 37.596C193.288 37.332 193.384 37.116 193.6 36.948C193.816 36.756 194.068 36.612 194.356 36.516C196.084 35.94 197.764 35.676 199.396 35.724C199.948 35.772 200.368 35.88 200.656 36.048C200.968 36.216 201.184 36.42 201.304 36.66C201.448 36.924 201.496 37.2 201.448 37.488C201.4 37.752 201.28 37.956 201.088 38.1ZM219.526 40.152C219.766 40.152 219.982 40.092 220.174 39.972C220.39 39.852 220.57 39.708 220.714 39.54C220.858 39.348 220.954 39.156 221.002 38.964C221.074 38.772 221.086 38.616 221.038 38.496C220.894 38.088 220.798 37.728 220.75 37.416C220.702 37.104 220.786 36.852 221.002 36.66C221.242 36.468 221.506 36.456 221.794 36.624C222.106 36.792 222.322 36.984 222.442 37.2C222.778 37.824 222.934 38.4 222.91 38.928C222.91 39.432 222.802 39.9 222.586 40.332C222.37 40.764 222.082 41.148 221.722 41.484C221.362 41.796 220.99 42.048 220.606 42.24C220.222 42.432 219.838 42.576 219.454 42.672C219.07 42.768 218.722 42.768 218.41 42.672C218.098 42.576 217.846 42.384 217.654 42.096C217.462 41.784 217.366 41.34 217.366 40.764C217.366 39.396 217.63 38.016 218.158 36.624C218.71 35.208 219.358 33.924 220.102 32.772C219.382 32.724 218.71 32.748 218.086 32.844C217.486 32.916 216.838 33.012 216.142 33.132C215.518 33.252 215.026 33.024 214.666 32.448C214.474 32.088 214.534 31.764 214.846 31.476C214.918 31.404 215.182 31.32 215.638 31.224C216.094 31.104 216.622 30.996 217.222 30.9C217.822 30.804 218.434 30.744 219.058 30.72C219.682 30.696 220.198 30.732 220.606 30.828C220.27 30.012 219.862 29.208 219.382 28.416C218.902 27.624 218.41 26.808 217.906 25.968C217.834 25.8 217.846 25.608 217.942 25.392C218.038 25.176 218.182 25.02 218.374 24.924C218.47 24.876 218.59 24.84 218.734 24.816C218.902 24.792 219.058 24.816 219.202 24.888C219.922 25.416 220.474 26.004 220.858 26.652C221.266 27.276 221.542 27.888 221.686 28.488C221.854 29.088 221.926 29.652 221.902 30.18C221.878 30.684 221.806 31.08 221.686 31.368C222.094 31.632 222.298 31.992 222.298 32.448C222.322 32.88 222.19 33.36 221.902 33.888C221.374 34.824 220.882 35.82 220.426 36.876C219.97 37.908 219.67 39 219.526 40.152ZM229.57 38.028C229.282 37.932 229.042 37.776 228.85 37.56C228.682 37.32 228.586 37.104 228.562 36.912C228.49 36.192 228.43 35.352 228.382 34.392C228.334 33.408 228.31 32.424 228.31 31.44C228.334 30.456 228.382 29.52 228.454 28.632C228.55 27.72 228.67 26.976 228.814 26.4C228.91 26.112 229.018 25.86 229.138 25.644C229.282 25.404 229.45 25.308 229.642 25.356C229.858 25.404 230.122 25.56 230.434 25.824C230.746 26.088 230.89 26.4 230.866 26.76C230.698 27.984 230.59 29.34 230.542 30.828C231.31 30.684 232.114 30.6 232.954 30.576C233.818 30.552 234.574 30.696 235.222 31.008C235.534 31.152 235.75 31.368 235.87 31.656C236.014 31.944 236.038 32.184 235.942 32.376C235.894 32.496 235.738 32.58 235.474 32.628C235.234 32.652 234.958 32.664 234.646 32.664C233.782 32.664 233.026 32.7 232.378 32.772C231.754 32.82 231.13 32.94 230.506 33.132C230.506 33.828 230.518 34.512 230.542 35.184C230.566 35.832 230.602 36.432 230.65 36.984C230.674 37.248 230.602 37.524 230.434 37.812C230.29 38.076 230.002 38.148 229.57 38.028ZM227.842 39.612C227.77 40.116 227.698 40.776 227.626 41.592C227.554 42.408 227.542 43.248 227.59 44.112C228.646 43.896 229.714 43.62 230.794 43.284C231.898 42.924 232.954 42.6 233.962 42.312C234.13 42.264 234.334 42.288 234.574 42.384C234.838 42.456 235.03 42.576 235.15 42.744C235.294 42.912 235.33 43.116 235.258 43.356C235.186 43.596 234.91 43.836 234.43 44.076C233.95 44.34 233.386 44.604 232.738 44.868C232.114 45.108 231.49 45.336 230.866 45.552C230.242 45.768 229.654 45.948 229.102 46.092C228.574 46.236 228.166 46.344 227.878 46.416C226.966 46.608 226.282 46.632 225.826 46.488C225.37 46.32 225.142 45.852 225.142 45.084C225.142 44.796 225.142 44.436 225.142 44.004C225.166 43.548 225.19 43.08 225.214 42.6C225.262 42.096 225.322 41.604 225.394 41.124C225.466 40.644 225.574 40.236 225.718 39.9C225.886 39.492 226.09 39.168 226.33 38.928C226.57 38.664 226.894 38.532 227.302 38.532C227.446 38.532 227.578 38.616 227.698 38.784C227.842 38.928 227.89 39.204 227.842 39.612ZM241.658 37.524C241.298 37.644 240.89 37.74 240.434 37.812C240.002 37.86 239.642 37.872 239.354 37.848C238.61 37.8 238.238 37.524 238.238 37.02C238.286 36.684 238.55 36.372 239.03 36.084C239.51 35.772 240.338 35.412 241.514 35.004C243.146 34.452 244.79 33.96 246.446 33.528C248.102 33.096 249.878 32.88 251.774 32.88C251.894 32.88 252.014 32.928 252.134 33.024C252.254 33.12 252.314 33.264 252.314 33.456C252.314 34.104 252.098 34.548 251.666 34.788C251.258 35.004 250.802 35.16 250.298 35.256C249.506 35.376 248.714 35.52 247.922 35.688C248.234 36 248.414 36.36 248.462 36.768C248.51 37.152 248.498 37.62 248.426 38.172C248.354 38.7 248.258 39.336 248.138 40.08C248.042 40.8 247.994 41.652 247.994 42.636C247.994 42.996 247.886 43.26 247.67 43.428C247.454 43.572 247.202 43.644 246.914 43.644C246.65 43.596 246.446 43.452 246.302 43.212C246.158 42.948 246.062 42.636 246.014 42.276C245.942 41.844 245.918 41.364 245.942 40.836C245.966 40.308 246.002 39.828 246.05 39.396C246.194 38.124 246.458 36.972 246.842 35.94C245.978 36.156 245.114 36.396 244.25 36.66C243.386 36.924 242.522 37.212 241.658 37.524ZM239.75 24.492C239.678 24.78 239.618 25.14 239.57 25.572C239.522 25.98 239.486 26.424 239.462 26.904C239.438 27.36 239.438 27.84 239.462 28.344C239.486 28.824 239.534 29.28 239.606 29.712C239.99 29.496 240.506 29.22 241.154 28.884C241.802 28.548 242.51 28.224 243.278 27.912C244.046 27.576 244.838 27.276 245.654 27.012C246.494 26.748 247.286 26.568 248.03 26.472C248.198 26.448 248.39 26.484 248.606 26.58C248.846 26.676 248.99 26.916 249.038 27.3C249.11 27.756 248.966 28.068 248.606 28.236C247.19 28.74 245.846 29.316 244.574 29.964C243.326 30.588 241.994 31.26 240.578 31.98C240.026 32.292 239.462 32.328 238.886 32.088C238.31 31.848 237.89 31.404 237.626 30.756C237.362 30.108 237.182 29.46 237.086 28.812C236.99 28.14 236.954 27.492 236.978 26.868C237.026 26.22 237.11 25.62 237.23 25.068C237.35 24.516 237.482 24.024 237.626 23.592C237.746 23.208 237.974 22.932 238.31 22.764C238.646 22.596 238.982 22.572 239.318 22.692C239.606 22.812 239.774 23.028 239.822 23.34C239.894 23.628 239.87 24.012 239.75 24.492ZM244.394 42.672C244.13 43.056 243.866 43.476 243.602 43.932C243.338 44.388 243.158 44.88 243.062 45.408C243.734 45.384 244.478 45.288 245.294 45.12C246.11 44.928 246.914 44.712 247.706 44.472C248.498 44.208 249.254 43.944 249.974 43.68C250.694 43.392 251.306 43.14 251.81 42.924C252.002 42.828 252.194 42.78 252.386 42.78C252.578 42.756 252.734 42.804 252.854 42.924C253.022 43.116 253.058 43.416 252.962 43.824C252.866 44.208 252.65 44.508 252.314 44.724C251.666 45.156 250.97 45.552 250.226 45.912C249.506 46.248 248.786 46.548 248.066 46.812C247.37 47.052 246.686 47.268 246.014 47.46C245.366 47.628 244.79 47.76 244.286 47.856C243.878 47.928 243.47 47.952 243.062 47.928C242.678 47.904 242.318 47.82 241.982 47.676C241.67 47.508 241.406 47.268 241.19 46.956C240.998 46.62 240.902 46.2 240.902 45.696C240.902 44.976 241.034 44.304 241.298 43.68C241.562 43.032 241.946 42.396 242.45 41.772C242.642 41.556 242.834 41.388 243.026 41.268C243.242 41.124 243.47 41.076 243.71 41.124C244.022 41.196 244.274 41.388 244.466 41.7C244.658 42.012 244.634 42.336 244.394 42.672ZM269.016 40.008C268.824 40.008 268.656 39.936 268.512 39.792C268.368 39.648 268.248 39.468 268.152 39.252C268.056 39.036 267.972 38.796 267.9 38.532C267.852 38.268 267.816 38.004 267.792 37.74C267.672 36.9 267.6 35.964 267.576 34.932C267.552 33.9 267.564 32.904 267.612 31.944C266.484 32.304 265.356 32.688 264.228 33.096C263.1 33.48 262.176 33.828 261.456 34.14C261.576 34.692 261.564 35.196 261.42 35.652C261.156 36.54 260.652 37.296 259.908 37.92C259.548 38.232 259.152 38.496 258.72 38.712C258.288 38.904 257.844 39.012 257.388 39.036C256.884 39.06 256.44 38.952 256.056 38.712C255.672 38.448 255.372 38.112 255.156 37.704C254.916 37.296 254.76 36.84 254.688 36.336C254.616 35.832 254.616 35.34 254.688 34.86C254.88 33.852 255.228 33.012 255.732 32.34C256.26 31.668 256.776 31.068 257.28 30.54C257.64 30.204 257.94 30.06 258.18 30.108C258.42 30.132 258.6 30.252 258.72 30.468C258.984 30.9 259.056 31.38 258.936 31.908C259.488 31.884 260.004 32.028 260.484 32.34C260.892 32.172 261.384 31.98 261.96 31.764C262.56 31.548 263.196 31.332 263.868 31.116C264.54 30.876 265.212 30.66 265.884 30.468C266.556 30.252 267.18 30.06 267.756 29.892C267.756 29.724 267.768 29.592 267.792 29.496C267.84 28.944 267.984 28.476 268.224 28.092C268.488 27.708 268.8 27.516 269.16 27.516C269.496 27.516 269.748 27.684 269.916 28.02C270.108 28.332 270.204 28.62 270.204 28.884C270.012 30.468 269.916 32.076 269.916 33.708C269.94 35.316 270.012 36.9 270.132 38.46C270.132 39.012 270.012 39.408 269.772 39.648C269.532 39.888 269.28 40.008 269.016 40.008ZM274.236 39.828C273.972 39.828 273.744 39.684 273.552 39.396C273.384 39.108 273.24 38.772 273.12 38.388C272.952 37.644 272.832 36.84 272.76 35.976C272.712 35.088 272.688 34.2 272.688 33.312C272.688 32.4 272.712 31.512 272.76 30.648C272.832 29.76 272.916 28.956 273.012 28.236C273.06 27.828 273.168 27.492 273.336 27.228C273.528 26.94 273.78 26.832 274.092 26.904C274.428 27.024 274.716 27.312 274.956 27.768C275.196 28.2 275.28 28.656 275.208 29.136C275.016 30.432 274.908 31.896 274.884 33.528C274.884 35.136 274.956 36.744 275.1 38.352C275.148 38.712 275.1 39.048 274.956 39.36C274.812 39.672 274.572 39.828 274.236 39.828ZM257.064 36.66C257.52 36.492 258 36.24 258.504 35.904C259.032 35.544 259.404 35.112 259.62 34.608C259.812 34.104 259.692 33.696 259.26 33.384C258.9 33.144 258.528 33.072 258.144 33.168C257.832 33.576 257.556 34.104 257.316 34.752C257.1 35.4 257.016 36.036 257.064 36.66ZM284.404 24.636C284.188 25.692 283.96 26.736 283.72 27.768C283.504 28.8 283.3 29.832 283.108 30.864C282.916 31.896 282.772 32.928 282.676 33.96C282.58 34.992 282.568 36.024 282.64 37.056C282.688 37.32 282.64 37.572 282.496 37.812C282.376 38.052 282.232 38.208 282.064 38.28C281.536 38.472 281.152 38.34 280.912 37.884C280.624 36.66 280.468 35.448 280.444 34.248C280.444 33.048 280.528 31.86 280.696 30.684C280.888 29.508 281.128 28.344 281.416 27.192C281.728 26.016 282.04 24.852 282.352 23.7C282.472 23.22 282.664 22.956 282.928 22.908C283.192 22.86 283.444 22.884 283.684 22.98C284.044 23.1 284.272 23.34 284.368 23.7C284.464 24.06 284.476 24.372 284.404 24.636ZM282.964 44.004C282.964 44.268 282.928 44.628 282.856 45.084C282.808 45.516 282.712 45.924 282.568 46.308C282.448 46.692 282.268 47.004 282.028 47.244C281.812 47.484 281.536 47.532 281.2 47.388C281.008 47.268 280.816 47.04 280.624 46.704C280.432 46.368 280.348 46.056 280.372 45.768C280.42 45.192 280.54 44.628 280.732 44.076C280.924 43.524 281.176 43.188 281.488 43.068C281.632 43.02 281.788 43.02 281.956 43.068C282.148 43.116 282.316 43.2 282.46 43.32C282.604 43.416 282.724 43.536 282.82 43.68C282.916 43.8 282.964 43.908 282.964 44.004Z" fill="white"/>
<path d="M65.8123 62.5859V68.5957H68.203V69.6914H65.8123V77.3447H64.5174V62.5859H65.8123ZM61.994 64.1797C61.994 68.3633 60.035 72.165 55.2205 74.5391L54.4901 73.5098C58.3084 71.6089 60.3836 68.77 60.6825 65.2754H55.1707V64.1797H61.994ZM81.2923 63.2002V64.2627H76.6107C76.6273 65.9395 79.1341 67.2676 81.7405 67.5664L81.2591 68.5957C78.8436 68.2886 76.5775 67.2095 75.764 65.5576C74.9588 67.2095 72.701 68.2886 70.2855 68.5957L69.804 67.5664C72.3939 67.2676 74.8841 65.9395 74.9173 64.2627H70.2689V63.2002H81.2923ZM82.5374 70.0068V71.0859H69.0404V70.0068H75.1165V67.7656H76.3948V70.0068H82.5374ZM80.8275 72.5469V77.3447H79.5159V73.6094H70.5345V72.5469H80.8275ZM88.5213 63.665C90.8455 63.665 92.4891 65.0762 92.4891 67.1348C92.4891 69.1934 90.8455 70.6045 88.5213 70.6045C86.1971 70.6045 84.5203 69.1934 84.5369 67.1348C84.5203 65.0762 86.1971 63.665 88.5213 63.665ZM88.5213 64.8105C86.9441 64.8105 85.7986 65.7568 85.8152 67.1348C85.7986 68.5127 86.9441 69.459 88.5213 69.459C90.0818 69.459 91.2107 68.5127 91.2107 67.1348C91.2107 65.7568 90.0818 64.8105 88.5213 64.8105ZM95.7928 62.5859V77.3779H94.4979V62.5859H95.7928ZM83.7732 73.0117C86.4959 73.0117 90.2479 72.9951 93.5184 72.5137L93.618 73.4766C90.2479 74.1074 86.6121 74.124 83.9559 74.124L83.7732 73.0117ZM114.8 62.6025V73.5098H113.488V68.2471H110.218V67.1514H113.488V62.6025H114.8ZM110.284 63.7314C110.267 67.5166 107.561 70.4053 103.361 71.7832L102.797 70.7373C106.2 69.6167 108.566 67.5 108.856 64.8271H103.544V63.7314H110.284ZM115.181 75.9336V77.0293H105.403V72.3975H106.731V75.9336H115.181ZM128.752 62.5859V66.4375H130.977V67.5166H128.752V71.4512H127.457V62.5859H128.752ZM124.735 63.6816C124.735 67.4336 122.078 70.2061 117.779 71.4678L117.231 70.4053C120.792 69.376 123.066 67.3257 123.34 64.7607H117.878V63.6816H124.735ZM124.087 71.6172C127.059 71.6172 128.918 72.6963 128.918 74.4561C128.918 76.249 127.059 77.3115 124.087 77.3115C121.149 77.3115 119.239 76.249 119.256 74.4561C119.239 72.6963 121.149 71.6172 124.087 71.6172ZM124.087 72.6631C121.929 72.6465 120.534 73.3438 120.551 74.4561C120.534 75.5684 121.929 76.2656 124.087 76.2656C126.262 76.2656 127.656 75.5684 127.656 74.4561C127.656 73.3438 126.262 72.6465 124.087 72.6631ZM148.323 62.6025V73.5264H147.012V69.5586H143.526V71.0029H136.835V63.582H138.13V66.2051H142.247V63.582H143.526V65.3086H147.012V62.6025H148.323ZM148.655 75.9336V77.0293H138.778V72.4473H140.089V75.9336H148.655ZM138.13 69.9238H142.247V67.2344H138.13V69.9238ZM143.526 68.4795H147.012V66.4043H143.526V68.4795ZM162.193 62.5859V68.8779H164.55V69.9736H162.193V77.3447H160.882V62.5859H162.193ZM150.555 73.4102C151.759 73.4102 153.162 73.4102 154.623 73.3604V71.7168C152.904 71.5259 151.784 70.5215 151.8 69.0605C151.784 67.4004 153.195 66.3213 155.287 66.3213C157.345 66.3213 158.773 67.4004 158.79 69.0605C158.773 70.5215 157.636 71.5259 155.934 71.7334V73.3105C157.312 73.2441 158.698 73.1362 159.985 72.9453L160.068 73.9414C156.847 74.4893 153.361 74.5225 150.771 74.5225L150.555 73.4102ZM159.719 64.3955V65.458H150.821V64.3955H154.623V62.6191H155.934V64.3955H159.719ZM155.287 67.334C153.925 67.334 153.012 68.0312 153.012 69.0605C153.012 70.0898 153.925 70.7539 155.287 70.7373C156.632 70.7539 157.545 70.0898 157.545 69.0605C157.545 68.0312 156.632 67.334 155.287 67.334ZM178.885 69.4424V70.4717H165.371V69.4424H178.885ZM177.192 71.6504V74.7881H168.326V76.1992H177.673V77.1455H167.015V73.8916H175.897V72.6299H166.998V71.6504H177.192ZM177.142 63.0342V66.0889H168.426V67.3838H177.407V68.3301H167.131V65.1924H175.83V63.9805H167.081V63.0342H177.142ZM195.8 62.5859V66.5205H198.025V67.6328H195.8V71.4844H194.505V62.5859H195.8ZM195.8 72.3311V77.1455H186.486V72.3311H195.8ZM187.765 73.377V76.083H194.505V73.377H187.765ZM193.094 64.1631V65.2422H184.295V64.1631H188.047V62.4697H189.342V64.1631H193.094ZM188.694 65.9727C190.819 65.9727 192.231 67.0186 192.247 68.5957C192.231 70.2061 190.819 71.2354 188.694 71.2354C186.553 71.2354 185.125 70.2061 185.142 68.5957C185.125 67.0186 186.553 65.9727 188.694 65.9727ZM188.694 66.9854C187.3 66.9854 186.37 67.6328 186.387 68.5957C186.37 69.6084 187.3 70.2227 188.694 70.2393C190.072 70.2227 191.002 69.6084 191.019 68.5957C191.002 67.6328 190.072 66.9854 188.694 66.9854ZM202.581 64.3789C202.564 67.4834 202.132 70.9697 199.974 73.8252L198.945 73.2275C200.796 70.9116 201.344 68.1807 201.452 65.458H199.244V64.3789H202.581ZM205.851 64.3789C205.843 65.5825 205.818 66.9688 205.635 68.3965H207.594V62.9844H208.839V76.5977H207.594V69.4756H205.469C205.129 71.3184 204.482 73.186 203.278 74.8047L202.265 74.1904C204.307 71.584 204.648 68.2139 204.706 65.458H203.046V64.3789H205.851ZM211.612 62.5859V77.3447H210.35V62.5859H211.612ZM225.97 63.7314V64.5117C225.954 65.4746 225.954 66.9521 225.588 68.8779L224.277 68.7783C224.634 67.0103 224.667 65.7568 224.692 64.8271H218.616V63.7314H225.97ZM222.169 67.002V70.1729C223.804 70.1064 225.497 69.9902 227.033 69.7744L227.116 70.7373C224.028 71.2686 220.459 71.335 217.836 71.335L217.703 70.2559C218.657 70.2476 219.736 70.2393 220.874 70.2061V67.002H222.169ZM229.357 62.5859V67.4004H231.515V68.5127H229.357V73.6924H228.029V62.5859H229.357ZM229.838 75.9336V77.0293H219.977V72.6963H221.289V75.9336H229.838ZM244.621 62.5859V77.3779H243.326V62.5859H244.621ZM240.139 63.9639V69.21H234.627V72.6963C237.076 72.6963 239.259 72.5884 241.898 72.165L242.031 73.2607C239.309 73.6924 237.067 73.792 234.527 73.792H233.299V68.1475H238.827V65.043H233.266V63.9639H240.139ZM254.457 65.1426V66.2051H247.052V65.1426H250.124V63.0342H251.418V65.1426H254.457ZM250.754 67.2012C252.614 67.2012 253.942 68.5957 253.959 70.5547C253.942 72.5303 252.614 73.9414 250.754 73.9414C248.912 73.9414 247.584 72.5303 247.584 70.5547C247.584 68.5957 248.912 67.2012 250.754 67.2012ZM250.754 68.2969C249.592 68.3135 248.746 69.2598 248.746 70.5547C248.746 71.8662 249.592 72.8125 250.754 72.7959C251.933 72.8125 252.796 71.8662 252.796 70.5547C252.796 69.2598 251.933 68.3135 250.754 68.2969ZM259.653 62.5859V77.3447H258.408V69.8906H256.449V76.6143H255.22V62.9512H256.449V68.8115H258.408V62.5859H259.653ZM275.249 74.3564V75.4521H261.735V74.3564H265.089V70.3721C263.827 69.7163 263.063 68.6538 263.063 67.3174C263.063 65.0264 265.305 63.5322 268.459 63.5156C271.613 63.5322 273.854 65.0264 273.854 67.3174C273.854 68.6289 273.116 69.6831 271.896 70.3389V74.3564H275.249ZM268.459 64.5947C266.035 64.5781 264.325 65.6738 264.325 67.3174C264.325 68.9609 266.035 70.0732 268.459 70.0732C270.866 70.0732 272.593 68.9609 272.593 67.3174C272.593 65.6738 270.866 64.5781 268.459 64.5947ZM266.367 74.3564H270.584V70.8369C269.945 71.0112 269.231 71.1025 268.459 71.1025C267.704 71.1025 266.998 71.0195 266.367 70.8535V74.3564Z" fill="#CFCFD8"/>
</svg>
