<svg width="105" height="84" viewBox="0 0 105 84" fill="none" xmlns="http://www.w3.org/2000/svg">
<g clip-path="url(#clip0_1210_95723)">
<path d="M65.6794 8.17027V9.26013C65.6731 11.2474 64.9403 13.1649 63.6171 14.6563C62.2939 16.1477 60.4703 17.1116 58.485 17.369C58.7891 18.2016 58.9876 19.0686 59.0761 19.9498C59.0203 20.3289 55.1273 17.4311 55.1273 17.4311C53.8968 17.4377 52.6664 17.4311 51.436 17.4311C49.2669 17.4064 47.1947 16.5354 45.6673 15.0064C44.1399 13.4775 43.28 11.4133 43.2734 9.26013V8.17027C43.2798 6.0172 44.1396 3.95312 45.6669 2.42425C47.1942 0.895376 49.2663 0.0245391 51.4353 0H57.5249C59.6931 0.0249031 61.7642 0.896088 63.2903 2.42509C64.8163 3.9541 65.6746 6.01798 65.6794 8.17027Z" fill="#FCEACA"/>
<path d="M86.0629 16.6797V66.787H59.3145V27.635L79.0543 16.6797H86.0629Z" fill="#FFCCA9"/>
<path d="M42.2587 21.1703C42.113 21.0247 41.9397 20.9092 41.7488 20.8304C41.5579 20.7515 41.3532 20.7109 41.1464 20.7109C40.9396 20.7109 40.7349 20.7515 40.544 20.8304C40.3531 20.9092 40.1798 21.0247 40.0341 21.1703L19.7689 41.2856V64.4459L19.6387 64.7563C19.6815 64.7721 19.7227 64.7955 19.7689 64.8139V67.672H62.5323V41.2856L42.2587 21.1703Z" fill="#FCEACA"/>
<path d="M73.0137 31.7422H82.4251V41.5496H73.0137V31.7422Z" fill="white"/>
<path d="M41.7448 48.9805V68.6145H32.3418V48.9805H41.7448Z" fill="white"/>
<path d="M41.7461 48.9805H51.1483V68.6145H41.7461V48.9805Z" fill="white"/>
<path d="M88.7054 16.241C87.6018 16.8709 86.8194 17.3105 86.0638 17.716C78.6249 21.6845 59.3154 32.1643 59.3154 32.1643C57.8127 30.7236 56.1435 29.111 54.4668 27.4975L54.4752 27.4892L59.3154 24.8329L73.9755 16.785L83.2886 11.6694C84.1802 11.1584 85.2348 11.0051 86.2365 11.2408C87.2382 11.4766 88.1112 12.0835 88.6768 12.9374C88.9949 13.4294 89.1663 14.0006 89.1714 14.5851C89.1764 15.1697 89.0149 15.7437 88.7054 16.241Z" fill="#F99F62"/>
<path d="M65.184 37.8425C65.5289 38.1703 65.8035 38.564 65.9913 38.9998C66.179 39.4356 66.2761 39.9046 66.2766 40.3786C66.2808 40.8511 66.1906 41.3197 66.0112 41.7574C65.8318 42.195 65.5667 42.593 65.2313 42.9283C64.8959 43.2637 64.4969 43.5296 64.0573 43.7109C63.6177 43.8921 63.1462 43.985 62.6702 43.9842L42.3983 23.8697C42.2526 23.7242 42.0793 23.6086 41.8884 23.5298C41.6975 23.451 41.4928 23.4104 41.286 23.4104C41.0792 23.4104 40.8745 23.451 40.6836 23.5298C40.4927 23.6086 40.3194 23.7242 40.1737 23.8697L19.9085 43.9851C19.1915 43.9852 18.4907 43.7731 17.8956 43.376C17.3005 42.9789 16.8381 42.4148 16.5675 41.7557C16.2969 41.0965 16.2303 40.3723 16.3763 39.6754C16.5223 38.9786 16.8743 38.3407 17.3872 37.8433C17.3872 37.8433 32.4204 23.3525 37.3901 18.4788C37.8878 17.9482 38.4904 17.525 39.1602 17.2356C39.8299 16.9462 40.5526 16.7969 41.2831 16.7969C42.0135 16.7969 42.7362 16.9462 43.4059 17.2356C44.0757 17.525 44.6783 17.9482 45.1761 18.4788C47.1831 20.4543 50.8332 23.9907 54.4656 27.5095C56.1466 29.123 57.8115 30.7356 59.3142 32.1763C62.6458 35.4023 65.184 37.8425 65.184 37.8425Z" fill="#FFC07B"/>
<path d="M58.5425 6.18583C59.8563 8.06989 58.9459 10.9477 54.8922 12.5067C54.6289 12.6108 54.3353 12.6108 54.072 12.5067C50.0122 10.9477 49.1018 8.06989 50.4156 6.18583C51.2568 4.97851 53.6827 4.71756 54.4821 6.21386C55.2741 4.71622 57.7014 4.97851 58.5425 6.18583Z" fill="#FF8878"/>
<path d="M10.0777 61.342C9.88605 61.3511 8.90103 61.4112 8.70436 61.4112C8.5077 61.4112 7.52772 61.3511 7.3403 61.342C2.76065 60.9716 -0.159104 56.5551 1.67393 52.3797L1.87396 51.8541C2.99513 49.2921 4.20287 46.5249 4.28692 43.7369C4.2955 42.6684 4.6967 41.6398 5.4152 40.8441C6.13369 40.0484 7.12007 39.5404 8.18916 39.4155C8.53072 39.398 8.87296 39.398 9.21452 39.4155C10.2842 39.5389 11.2714 40.0465 11.9901 40.8425C12.7087 41.6385 13.1092 42.668 13.1159 43.7369C13.2117 46.5233 14.4111 49.2921 15.5322 51.8541L15.7407 52.3797C16.1544 53.3355 16.3283 54.3767 16.2475 55.4139C16.1666 56.4511 15.8335 57.4534 15.2766 58.3347C14.7198 59.216 13.9558 59.9501 13.0503 60.4739C12.1447 60.9976 11.1247 61.2955 10.0777 61.342Z" fill="#25C194"/>
<path d="M97.1864 61.4972C96.9956 61.4972 96.0097 61.4363 95.8223 61.4279C91.2426 61.0567 88.3229 56.6402 90.1568 52.4656L90.356 51.9392C91.4771 49.3781 92.6849 46.6092 92.7807 43.8228C92.786 42.7534 93.1861 41.723 93.9052 40.9267C94.6243 40.1303 95.6126 39.6232 96.6829 39.5014C97.0214 39.4839 97.3606 39.4839 97.699 39.5014C98.7688 39.6248 99.7561 40.1323 100.475 40.9284C101.194 41.7244 101.594 42.7539 101.601 43.8228C101.697 46.6092 102.905 49.3781 104.017 51.9392L104.225 52.4656C104.639 53.4216 104.813 54.463 104.732 55.5004C104.651 56.5379 104.318 57.5403 103.76 58.4216C103.203 59.303 102.439 60.037 101.533 60.5606C100.627 61.0843 99.6069 61.3819 98.5597 61.4279C98.368 61.4363 97.3864 61.4972 97.1864 61.4972Z" fill="#25C194"/>
<path d="M65.8184 47.5703H82.425V65.3181H65.8184V47.5703Z" fill="white"/>
<path d="M92.6393 69.7199C92.7378 69.7199 92.8334 69.687 92.9107 69.6264C92.988 69.5658 93.0424 69.4811 93.0653 69.386C93.0881 69.291 93.078 69.191 93.0365 69.1023C92.9951 69.0137 92.9247 68.9414 92.8368 68.8974C89.5473 67.1454 87.0595 63.9678 86.167 63.3613C85.6398 62.9088 85.0076 62.5935 84.3272 62.4436C83.6975 62.3153 83.0467 62.3301 82.4236 62.487C82.1728 62.5542 81.9316 62.6526 81.7058 62.7798C81.4238 62.938 81.0964 62.9975 80.7763 62.9486C80.4561 62.8997 80.1619 62.7454 79.9408 62.5104C79.2494 61.8529 78.404 61.3765 77.4809 61.124C76.5578 60.8714 75.5859 60.8508 74.6527 61.0638C73.9308 61.2779 73.2746 61.6683 72.744 62.1992C71.1682 63.6438 69.1016 64.4454 66.9566 64.4441H62.6703V66.272C62.6703 66.6427 62.522 66.9982 62.258 67.2604C61.994 67.5225 61.636 67.67 61.2625 67.6702H34.5242C34.3193 67.6741 34.1161 67.6319 33.93 67.5468C33.7438 67.4617 33.5795 67.3359 33.4492 67.1788C32.9173 66.4969 32.2437 65.9366 31.4742 65.5362C30.5159 65.042 29.4493 64.7909 28.3695 64.8054C28.0084 64.819 27.6558 64.6938 27.3853 64.4558C25.0699 62.2985 23.1368 63.6508 22.1157 64.7745C21.9045 65.0131 21.6164 65.1715 21.3006 65.2226C20.9848 65.2737 20.6609 65.2144 20.3843 65.0548C20.1925 64.9366 19.9892 64.8376 19.7775 64.7595C17.8831 64.0521 16.4401 65.7155 15.3895 66.5798C14.8457 67.0261 13.2194 68.1532 12.0865 68.9282C12.0091 68.9811 11.9509 69.0571 11.9204 69.1453C11.8898 69.2334 11.8885 69.3289 11.9168 69.4178C11.945 69.5067 12.0012 69.5843 12.0771 69.6391C12.1531 69.694 12.2447 69.7231 12.3386 69.7224L92.6393 69.7199Z" fill="#26918E"/>
<path d="M8.70765 67.2143C8.48474 67.2143 8.27097 67.1264 8.11335 66.97C7.95574 66.8135 7.86719 66.6013 7.86719 66.3801V57.4436C7.86719 57.2224 7.95574 57.0102 8.11335 56.8537C8.27097 56.6973 8.48474 56.6094 8.70765 56.6094C8.93055 56.6094 9.14432 56.6973 9.30194 56.8537C9.45955 57.0102 9.5481 57.2224 9.5481 57.4436V66.3801C9.5481 66.6013 9.45955 66.8135 9.30194 66.97C9.14432 67.1264 8.93055 67.2143 8.70765 67.2143Z" fill="#2A725A"/>
<path d="M97.1901 67.2143C96.9672 67.2143 96.7534 67.1264 96.5958 66.97C96.4382 66.8135 96.3496 66.6013 96.3496 66.3801V57.4436C96.3496 57.2224 96.4382 57.0102 96.5958 56.8537C96.7534 56.6973 96.9672 56.6094 97.1901 56.6094C97.413 56.6094 97.6267 56.6973 97.7844 56.8537C97.942 57.0102 98.0305 57.2224 98.0305 57.4436V66.3801C98.0305 66.6013 97.942 66.8135 97.7844 66.97C97.6267 67.1264 97.413 67.2143 97.1901 67.2143Z" fill="#2A725A"/>
</g>
<defs>
<clipPath id="clip0_1210_95723">
<rect width="104" height="84" fill="white" transform="translate(0.75)"/>
</clipPath>
</defs>
</svg>
