<svg width="57" height="56" viewBox="0 0 57 56" fill="none" xmlns="http://www.w3.org/2000/svg">
<rect x="1.875" y="1" width="54" height="54" rx="27" fill="#E7FAEF"/>
<rect x="1.875" y="1" width="54" height="54" rx="27" stroke="#0CC25A" stroke-width="2"/>
<path d="M29.6096 15.7736C29.5222 15.6856 29.4182 15.6159 29.3038 15.5682C29.1893 15.5206 29.0665 15.4961 28.9425 15.4961C28.8185 15.4961 28.6958 15.5206 28.5813 15.5682C28.4668 15.6159 28.3629 15.6856 28.2755 15.7736L16.123 27.926V41.9181L16.0449 42.1056C16.0706 42.1152 16.0953 42.1293 16.123 42.1404V43.8671H41.7671V27.926L29.6096 15.7736Z" fill="#FDE2B2"/>
<circle cx="23.3708" cy="33.3278" r="1.77704" fill="#CE893D"/>
<circle cx="29.0251" cy="33.3278" r="1.77704" fill="#CE893D"/>
<circle cx="34.6794" cy="33.3278" r="1.77704" fill="#CE893D"/>
<path d="M43.355 25.8434C43.5618 26.0414 43.7265 26.2792 43.8391 26.5425C43.9517 26.8058 44.0099 27.0892 44.0102 27.3755C44.0127 27.661 43.9586 27.9441 43.851 28.2085C43.7434 28.4729 43.5845 28.7134 43.3833 28.9159C43.1822 29.1185 42.9429 29.2792 42.6793 29.3887C42.4157 29.4982 42.133 29.5543 41.8475 29.5538L29.691 17.4019C29.6036 17.3139 29.4997 17.2442 29.3852 17.1965C29.2707 17.1489 29.148 17.1244 29.024 17.1244C28.9 17.1244 28.7772 17.1489 28.6628 17.1965C28.5483 17.2442 28.4443 17.3139 28.3569 17.4019L16.2045 29.5543C15.7745 29.5544 15.3542 29.4263 14.9974 29.1864C14.6405 28.9465 14.3632 28.6057 14.201 28.2075C14.0387 27.8093 13.9988 27.3717 14.0863 26.9507C14.1739 26.5297 14.3849 26.1444 14.6925 25.8439C14.6925 25.8439 23.7075 17.0894 26.6877 14.145C26.9862 13.8244 27.3475 13.5688 27.7492 13.3939C28.1508 13.2191 28.5842 13.1289 29.0222 13.1289C29.4603 13.1289 29.8936 13.2191 30.2953 13.3939C30.6969 13.5688 31.0582 13.8244 31.3567 14.145C32.5603 15.3385 34.7492 17.475 36.9275 19.6008C37.9355 20.5756 38.9339 21.5498 39.835 22.4202C41.8329 24.3692 43.355 25.8434 43.355 25.8434Z" fill="#FBAF40"/>
</svg>
