<svg width="17" height="16" viewBox="0 0 17 16" fill="none" xmlns="http://www.w3.org/2000/svg">
<g clip-path="url(#clip0_1274_93852)">
<path d="M6.08984 10C6.64213 10 7.08984 9.55228 7.08984 9C7.08984 8.44772 6.64213 8 6.08984 8C5.53756 8 5.08984 8.44772 5.08984 9C5.08984 9.55228 5.53756 10 6.08984 10Z" fill="#F78D15"/>
<path d="M15.6118 7.30736C15.6878 6.65136 15.7578 5.90403 15.7578 5.39003C15.7578 1.70536 11.4645 0.332031 8.75781 0.332031C7.00181 0.332031 5.73448 1.27403 5.30848 1.64003C3.97515 1.7167 1.75781 2.56536 1.75781 5.39003C1.75781 5.91136 1.82715 6.65536 1.90248 7.30803C1.22715 7.58403 0.757812 8.23736 0.757812 8.9987C0.757812 9.96136 1.50648 10.7447 2.45048 10.818C3.35381 13.44 5.83715 15.332 8.75781 15.332C11.6785 15.332 14.1618 13.4407 15.0651 10.818C16.0098 10.7447 16.7578 9.96136 16.7578 8.9987C16.7578 8.2367 16.2885 7.58336 15.6118 7.30736ZM14.2078 10.2167C14.2078 10.218 14.2065 10.2187 14.2065 10.22V10.222C13.5225 12.592 11.3411 14.332 8.75781 14.332C5.94115 14.332 3.60381 12.2634 3.16381 9.5647L3.82915 7.23736C4.42315 7.0487 5.75381 6.5147 6.33648 5.38736C7.23315 6.2347 9.24248 7.2747 13.7138 7.33003L14.3525 9.56137C14.3165 9.78403 14.2691 10.0027 14.2078 10.2167Z" fill="#F78D15"/>
<path d="M11.4219 10C11.9742 10 12.4219 9.55228 12.4219 9C12.4219 8.44772 11.9742 8 11.4219 8C10.8696 8 10.4219 8.44772 10.4219 9C10.4219 9.55228 10.8696 10 11.4219 10Z" fill="#F78D15"/>
<path d="M10.0761 11.4714C9.34876 12.1748 8.16476 12.1748 7.43743 11.4714C7.23943 11.2814 6.92209 11.2854 6.73009 11.4848C6.53809 11.6834 6.54409 11.9994 6.74276 12.1921C7.29809 12.7281 8.02743 12.9954 8.75676 12.9954C9.48609 12.9954 10.2154 12.7281 10.7708 12.1921C10.9694 12.0001 10.9748 11.6834 10.7834 11.4848C10.5914 11.2854 10.2748 11.2814 10.0761 11.4714Z" fill="#F78D15"/>
</g>
<defs>
<clipPath id="clip0_1274_93852">
<rect width="16" height="16" fill="white" transform="translate(0.757812)"/>
</clipPath>
</defs>
</svg>
