<svg width="327" height="85" viewBox="0 0 327 85" fill="none" xmlns="http://www.w3.org/2000/svg">
<path d="M29.324 29.676C29.636 30.684 29.624 31.632 29.288 32.52C29.096 33 28.844 33.528 28.532 34.104C28.22 34.68 27.872 35.268 27.488 35.868C27.104 36.444 26.708 37.008 26.3 37.56C25.892 38.088 25.52 38.568 25.184 39C25.616 38.952 26.144 38.892 26.768 38.82C27.416 38.724 28.076 38.628 28.748 38.532C29.444 38.436 30.116 38.352 30.764 38.28C31.436 38.184 32.036 38.112 32.564 38.064C32.828 38.04 33.128 38.064 33.464 38.136C33.824 38.208 34.064 38.268 34.184 38.316C34.328 38.388 34.376 38.52 34.328 38.712C34.304 38.88 34.232 39.06 34.112 39.252C33.992 39.444 33.848 39.624 33.68 39.792C33.536 39.936 33.416 40.008 33.32 40.008C32.552 40.128 31.7 40.26 30.764 40.404C29.852 40.548 28.928 40.692 27.992 40.836C27.056 40.98 26.132 41.124 25.22 41.268C24.332 41.388 23.528 41.484 22.808 41.556C22.472 41.604 22.184 41.472 21.944 41.16C21.728 40.848 21.596 40.524 21.548 40.188C21.548 40.14 21.56 40.056 21.584 39.936C21.608 39.816 21.752 39.624 22.016 39.36C23.024 38.232 24.008 36.996 24.968 35.652C25.952 34.284 26.72 32.928 27.272 31.584C27.344 31.392 27.368 31.212 27.344 31.044C27.32 30.852 27.272 30.732 27.2 30.684C27.08 30.588 26.924 30.54 26.732 30.54C26.564 30.516 26.36 30.516 26.12 30.54C25.784 30.564 25.436 30.624 25.076 30.72C24.716 30.816 24.356 30.924 23.996 31.044C23.66 31.164 23.348 31.296 23.06 31.44C22.772 31.56 22.52 31.668 22.304 31.764C22.016 31.908 21.776 31.968 21.584 31.944C21.392 31.92 21.224 31.872 21.08 31.8C20.96 31.704 20.864 31.608 20.792 31.512C20.72 31.416 20.684 31.344 20.684 31.296C20.66 31.176 20.672 31.02 20.72 30.828C20.768 30.636 20.816 30.48 20.864 30.36C21.08 30.096 21.416 29.82 21.872 29.532C22.352 29.244 22.892 29.004 23.492 28.812C24.116 28.596 24.764 28.44 25.436 28.344C26.132 28.248 26.828 28.248 27.524 28.344C27.98 28.464 28.352 28.644 28.64 28.884C28.952 29.124 29.18 29.388 29.324 29.676ZM38.2213 42.924C38.3413 43.788 37.9813 44.28 37.1413 44.4C36.7093 44.448 36.3493 44.328 36.0613 44.04C35.7973 43.752 35.6293 43.404 35.5573 42.996C35.4853 42.564 35.5093 42.144 35.6293 41.736C35.7733 41.328 36.0373 41.1 36.4213 41.052C36.9013 40.98 37.3093 41.16 37.6453 41.592C37.9813 42 38.1733 42.444 38.2213 42.924ZM67.6151 26.436C67.5671 27.444 67.5431 28.428 67.5431 29.388C67.5671 30.348 67.6031 31.332 67.6511 32.34C67.9391 32.268 68.2991 32.196 68.7311 32.124C69.1631 32.052 69.6191 31.992 70.0991 31.944C70.5791 31.896 71.0591 31.86 71.5391 31.836C72.0191 31.812 72.4631 31.812 72.8711 31.836C73.3511 31.884 73.7591 32.004 74.0951 32.196C74.4551 32.388 74.6351 32.628 74.6351 32.916C74.6351 33.204 74.4071 33.42 73.9511 33.564C73.5191 33.708 73.1111 33.792 72.7271 33.816C72.4151 33.84 72.0431 33.876 71.6111 33.924C71.2031 33.972 70.7711 34.044 70.3151 34.14C69.8591 34.212 69.4031 34.308 68.9471 34.428C68.5151 34.524 68.1311 34.632 67.7951 34.752C67.8671 35.496 67.9511 36.24 68.0471 36.984C68.1431 37.704 68.2511 38.436 68.3711 39.18C68.3951 39.372 68.3831 39.576 68.3351 39.792C68.2871 39.984 68.2151 40.164 68.1191 40.332C68.0231 40.5 67.9151 40.644 67.7951 40.764C67.6751 40.884 67.5671 40.956 67.4711 40.98C67.2791 41.028 67.1111 41.016 66.9671 40.944C66.8471 40.872 66.7391 40.776 66.6431 40.656C66.5471 40.536 66.4631 40.404 66.3911 40.26C66.3431 40.092 66.3071 39.948 66.2831 39.828C66.0911 39.084 65.9111 38.184 65.7431 37.128C65.5751 36.072 65.4431 34.932 65.3471 33.708C65.2751 32.484 65.2271 31.224 65.2031 29.928C65.2031 28.608 65.2631 27.312 65.3831 26.04C65.4551 25.344 65.7311 24.936 66.2111 24.816C66.3791 24.792 66.5471 24.828 66.7151 24.924C66.9071 25.02 67.0631 25.164 67.1831 25.356C67.3271 25.524 67.4351 25.716 67.5071 25.932C67.5791 26.124 67.6151 26.292 67.6151 26.436ZM60.5231 32.772C60.4271 33.18 60.3071 33.792 60.1631 34.608C60.0191 35.4 59.8871 36.276 59.7671 37.236C59.6711 38.172 59.5991 39.108 59.5511 40.044C59.5031 40.956 59.5151 41.724 59.5871 42.348C59.6351 42.852 59.5031 43.176 59.1911 43.32C58.8791 43.464 58.6151 43.512 58.3991 43.464C58.2071 43.44 58.0391 43.368 57.8951 43.248C57.7751 43.104 57.6791 42.948 57.6071 42.78C57.5351 42.612 57.4751 42.444 57.4271 42.276C57.4031 42.108 57.3791 41.952 57.3551 41.808C57.3071 41.376 57.2951 40.764 57.3191 39.972C57.3431 39.18 57.3911 38.328 57.4631 37.416C57.5591 36.504 57.6671 35.616 57.7871 34.752C57.9311 33.888 58.0871 33.168 58.2551 32.592C57.9431 32.664 57.5711 32.772 57.1391 32.916C56.7071 33.06 56.2631 33.228 55.8071 33.42C55.3751 33.588 54.9551 33.768 54.5471 33.96C54.1391 34.152 53.8031 34.308 53.5391 34.428C53.2511 34.572 52.9751 34.536 52.7111 34.32C52.4471 34.104 52.2671 33.9 52.1711 33.708C52.0991 33.564 52.0511 33.372 52.0271 33.132C52.0271 32.892 52.1951 32.676 52.5311 32.484C52.7711 32.34 53.1191 32.148 53.5751 31.908C54.0311 31.668 54.5231 31.428 55.0511 31.188C55.6031 30.948 56.1671 30.744 56.7431 30.576C57.3191 30.408 57.8471 30.324 58.3271 30.324C59.2151 30.324 59.8511 30.564 60.2351 31.044C60.6191 31.5 60.7151 32.076 60.5231 32.772ZM76.5625 31.08C77.1385 29.736 77.7145 28.488 78.2905 27.336C78.8905 26.184 79.4305 24.9 79.9105 23.484C79.4305 23.604 78.9145 23.796 78.3625 24.06C77.8345 24.3 77.3305 24.54 76.8505 24.78C76.4665 24.948 76.1425 24.948 75.8785 24.78C75.6145 24.612 75.4225 24.408 75.3025 24.168C75.0865 23.688 75.2425 23.292 75.7705 22.98C76.3225 22.572 76.9345 22.236 77.6065 21.972C78.2785 21.684 79.0345 21.48 79.8745 21.36C80.1865 21.312 80.4985 21.348 80.8105 21.468C81.1225 21.588 81.3985 21.756 81.6385 21.972C81.8785 22.188 82.0585 22.452 82.1785 22.764C82.2985 23.052 82.3225 23.364 82.2505 23.7C81.8905 24.972 81.3985 26.292 80.7745 27.66C81.2545 27.612 81.8305 27.564 82.5025 27.516C83.1985 27.444 83.9305 27.384 84.6985 27.336C85.6585 27.312 86.5945 27.324 87.5065 27.372C88.4425 27.42 89.1745 27.54 89.7025 27.732C90.5905 28.044 90.9745 28.428 90.8545 28.884C90.8065 29.076 90.6385 29.268 90.3505 29.46C90.0865 29.652 89.7505 29.724 89.3425 29.676C88.1185 29.556 86.8945 29.52 85.6705 29.568C84.4705 29.592 83.2945 29.628 82.1425 29.676C81.6625 29.676 81.2665 29.616 80.9545 29.496C80.6425 29.376 80.3785 29.208 80.1625 28.992C79.9225 29.448 79.6825 29.904 79.4425 30.36C79.2025 30.816 78.9505 31.26 78.6865 31.692C78.4705 32.028 78.2305 32.28 77.9665 32.448C77.7025 32.616 77.3905 32.604 77.0305 32.412C76.5025 32.124 76.3465 31.68 76.5625 31.08ZM83.6185 31.8C83.6905 31.536 83.8225 31.32 84.0145 31.152C84.2065 30.96 84.4825 30.852 84.8425 30.828C85.6105 30.756 85.9585 31.068 85.8865 31.764C85.8385 32.076 85.7785 32.448 85.7065 32.88C85.6345 33.312 85.5625 33.78 85.4905 34.284C85.4425 34.764 85.3825 35.256 85.3105 35.76C85.2625 36.24 85.2265 36.708 85.2025 37.164C86.0185 36.948 86.7865 36.732 87.5065 36.516C88.2505 36.3 88.8505 36.12 89.3065 35.976C89.6425 35.856 90.0745 35.82 90.6025 35.868C90.8185 35.916 91.0105 36 91.1785 36.12C91.3465 36.24 91.4425 36.42 91.4665 36.66C91.4905 37.14 91.2385 37.5 90.7105 37.74C90.2305 37.956 89.5705 38.208 88.7305 38.496C87.9145 38.784 87.0505 39.06 86.1385 39.324C85.2265 39.588 84.3505 39.828 83.5105 40.044C82.6705 40.236 82.0105 40.356 81.5305 40.404C81.1225 40.452 80.7025 40.452 80.2705 40.404C79.8625 40.356 79.5985 40.164 79.4785 39.828C79.3825 39.564 79.4425 39.288 79.6585 39C79.8985 38.712 80.2465 38.508 80.7025 38.388C80.9665 38.316 81.2785 38.232 81.6385 38.136C82.0225 38.04 82.4185 37.932 82.8265 37.812C82.8985 36.828 83.0065 35.808 83.1505 34.752C83.2945 33.696 83.4505 32.712 83.6185 31.8ZM89.9905 49.224C89.9425 49.392 89.7865 49.608 89.5225 49.872C89.2585 50.16 88.9225 50.268 88.5145 50.196C88.2985 50.148 88.0945 50.004 87.9025 49.764C87.7345 49.548 87.6865 49.26 87.7585 48.9C87.9985 47.508 88.1425 46.092 88.1905 44.652C87.6145 44.796 86.9905 45 86.3185 45.264C85.6465 45.504 85.0345 45.732 84.4825 45.948C84.1705 46.068 83.8585 46.092 83.5465 46.02C83.2585 45.924 83.0545 45.72 82.9345 45.408C82.8625 45.144 82.8985 44.892 83.0425 44.652C83.1865 44.388 83.3545 44.196 83.5465 44.076C83.7625 43.932 84.0745 43.764 84.4825 43.572C84.8905 43.38 85.3225 43.188 85.7785 42.996C86.2345 42.828 86.6785 42.684 87.1105 42.564C87.5425 42.42 87.9025 42.336 88.1905 42.312C89.0065 42.264 89.5945 42.432 89.9545 42.816C90.3385 43.2 90.5185 43.74 90.4945 44.436C90.4705 45.18 90.4225 45.996 90.3505 46.884C90.2785 47.772 90.1585 48.552 89.9905 49.224ZM114.281 22.152C113.777 23.736 113.369 25.404 113.057 27.156C112.769 28.884 112.493 30.54 112.229 32.124C112.613 32.7 112.841 33.312 112.913 33.96C112.985 34.584 112.973 35.208 112.877 35.832C112.805 36.432 112.685 36.996 112.517 37.524C112.349 38.028 112.217 38.448 112.121 38.784C112.265 38.76 112.517 38.712 112.877 38.64C113.237 38.544 113.633 38.46 114.065 38.388C114.521 38.292 114.989 38.232 115.469 38.208C115.973 38.16 116.441 38.172 116.873 38.244C117.329 38.316 117.725 38.46 118.061 38.676C118.397 38.892 118.613 39.228 118.709 39.684C118.709 39.948 118.601 40.104 118.385 40.152C118.169 40.2 117.917 40.224 117.629 40.224C117.029 40.296 116.369 40.404 115.649 40.548C114.929 40.668 114.185 40.824 113.417 41.016C112.673 41.208 111.941 41.424 111.221 41.664C110.501 41.88 109.841 42.12 109.241 42.384C108.569 42.672 108.029 42.78 107.621 42.708C107.213 42.636 106.949 42.468 106.829 42.204C106.661 41.844 106.805 41.436 107.261 40.98C107.525 40.716 107.873 40.476 108.305 40.26C108.737 40.02 109.085 39.708 109.349 39.324C109.853 38.508 110.189 37.644 110.357 36.732C110.525 35.82 110.609 35.004 110.609 34.284C110.609 34.092 110.573 33.936 110.501 33.816C110.237 33.984 109.949 34.116 109.637 34.212C109.349 34.308 109.073 34.332 108.809 34.284C108.521 34.212 108.269 34.056 108.053 33.816C107.861 33.576 107.693 33.3 107.549 32.988C107.405 32.652 107.297 32.304 107.225 31.944C107.153 31.56 107.117 31.2 107.117 30.864C107.117 30.408 107.165 29.904 107.261 29.352C107.381 28.776 107.573 28.248 107.837 27.768C108.125 27.288 108.509 26.88 108.989 26.544C109.469 26.208 110.069 26.016 110.789 25.968C110.861 25.608 110.945 25.2 111.041 24.744C111.161 24.264 111.293 23.784 111.437 23.304C111.581 22.8 111.761 22.332 111.977 21.9C112.193 21.444 112.457 21.072 112.769 20.784C112.841 20.712 112.937 20.652 113.057 20.604C113.201 20.532 113.333 20.52 113.453 20.568C113.789 20.688 114.029 20.916 114.173 21.252C114.341 21.588 114.377 21.888 114.281 22.152ZM105.749 24.564C105.629 25.26 105.509 25.968 105.389 26.688C105.269 27.384 105.185 28.116 105.137 28.884C105.089 29.652 105.089 30.456 105.137 31.296C105.209 32.112 105.377 32.976 105.641 33.888C105.737 34.344 105.593 34.656 105.209 34.824C105.017 34.896 104.729 34.92 104.345 34.896C103.961 34.848 103.709 34.644 103.589 34.284C103.325 33.468 103.145 32.628 103.049 31.764C102.953 30.876 102.917 30 102.941 29.136C102.989 28.248 103.073 27.372 103.193 26.508C103.313 25.644 103.445 24.816 103.589 24.024C103.637 23.832 103.733 23.676 103.877 23.556C104.021 23.412 104.213 23.364 104.453 23.412C104.597 23.436 104.741 23.496 104.885 23.592C105.053 23.664 105.197 23.76 105.317 23.88C105.461 24 105.569 24.12 105.641 24.24C105.737 24.36 105.773 24.468 105.749 24.564ZM110.573 27.876C109.949 28.02 109.433 28.356 109.025 28.884C108.641 29.388 108.413 29.964 108.341 30.612C108.341 30.708 108.341 30.84 108.341 31.008C108.341 31.176 108.353 31.344 108.377 31.512C108.425 31.68 108.485 31.824 108.557 31.944C108.653 32.064 108.797 32.124 108.989 32.124C109.205 32.1 109.397 31.992 109.565 31.8C109.757 31.584 109.901 31.356 109.997 31.116C110.165 30.636 110.273 30.144 110.321 29.64C110.393 29.112 110.477 28.524 110.573 27.876ZM118.169 44.004C118.385 44.34 118.433 44.904 118.313 45.696C118.217 46.488 118.037 47.292 117.773 48.108C117.533 48.948 117.269 49.704 116.981 50.376C116.717 51.048 116.549 51.432 116.477 51.528C116.069 51.816 115.733 51.936 115.469 51.888C115.157 51.84 114.953 51.648 114.857 51.312C114.761 51 114.761 50.712 114.857 50.448C115.121 49.536 115.373 48.576 115.613 47.568C115.853 46.536 115.985 45.636 116.009 44.868C115.121 44.892 114.317 45.048 113.597 45.336C112.901 45.624 112.265 45.912 111.689 46.2C111.281 46.392 110.933 46.464 110.645 46.416C110.357 46.368 110.153 46.284 110.033 46.164C109.817 45.972 109.733 45.768 109.781 45.552C109.853 45.336 109.949 45.18 110.069 45.084C110.693 44.604 111.449 44.148 112.337 43.716C113.225 43.26 114.101 42.936 114.965 42.744C115.589 42.696 116.165 42.756 116.693 42.924C117.245 43.092 117.737 43.452 118.169 44.004ZM125.332 32.412C125.092 32.724 124.804 33.072 124.468 33.456C124.132 33.84 123.832 34.32 123.568 34.896C123.472 35.064 123.376 35.28 123.28 35.544C123.208 35.808 123.172 36.072 123.172 36.336C123.196 36.576 123.268 36.792 123.388 36.984C123.532 37.176 123.784 37.284 124.144 37.308C124.504 37.356 124.876 37.26 125.26 37.02C125.668 36.756 125.908 36.456 125.98 36.12C126.1 35.76 126.124 35.376 126.052 34.968C126.004 34.56 125.848 34.14 125.584 33.708C125.344 33.372 125.296 33.12 125.44 32.952C125.512 32.856 125.656 32.82 125.872 32.844C126.088 32.844 126.292 32.892 126.484 32.988C126.868 33.132 127.18 33.396 127.42 33.78C127.684 34.164 127.864 34.596 127.96 35.076C128.056 35.556 128.08 36.048 128.032 36.552C127.984 37.056 127.84 37.5 127.6 37.884C127.36 38.292 127.06 38.628 126.7 38.892C126.34 39.132 125.956 39.324 125.548 39.468C125.14 39.588 124.732 39.672 124.324 39.72C123.916 39.744 123.544 39.72 123.208 39.648C122.944 39.576 122.668 39.456 122.38 39.288C122.116 39.12 121.852 38.904 121.588 38.64C121.348 38.352 121.144 38.016 120.976 37.632C120.808 37.248 120.724 36.804 120.724 36.3C120.724 35.292 120.964 34.296 121.444 33.312C121.948 32.328 122.62 31.488 123.46 30.792C123.772 30.552 124.06 30.372 124.324 30.252C124.588 30.108 124.888 30.096 125.224 30.216C125.488 30.312 125.656 30.456 125.728 30.648C125.824 30.84 125.86 31.044 125.836 31.26C125.812 31.476 125.74 31.692 125.62 31.908C125.524 32.124 125.428 32.292 125.332 32.412ZM136.276 24.852C136.18 26.052 136.108 27.144 136.06 28.128C136.036 29.112 136.036 30.072 136.06 31.008C136.084 31.92 136.132 32.856 136.204 33.816C136.276 34.752 136.372 35.784 136.492 36.912C136.516 37.224 136.48 37.548 136.384 37.884C136.312 38.22 136.168 38.424 135.952 38.496C135.616 38.64 135.304 38.604 135.016 38.388C134.728 38.148 134.512 37.8 134.368 37.344C134.152 36.432 133.984 35.4 133.864 34.248C133.744 33.072 133.66 31.86 133.612 30.612C133.588 29.364 133.588 28.104 133.612 26.832C133.66 25.56 133.744 24.36 133.864 23.232C133.888 22.968 133.96 22.74 134.08 22.548C134.224 22.332 134.488 22.248 134.872 22.296C135.28 22.344 135.628 22.632 135.916 23.16C136.204 23.664 136.324 24.228 136.276 24.852ZM143.296 26.364C143.776 26.412 144.196 26.568 144.556 26.832C144.916 27.072 145.084 27.276 145.06 27.444C145.036 27.684 144.892 27.864 144.628 27.984C144.388 28.08 144.136 28.152 143.872 28.2C143.032 28.392 142.168 28.572 141.28 28.74C140.392 28.884 139.396 29.172 138.292 29.604C137.404 29.94 136.864 29.952 136.672 29.64C136.408 29.232 136.372 28.872 136.564 28.56C136.78 28.224 137.092 27.96 137.5 27.768C137.956 27.552 138.448 27.36 138.976 27.192C139.504 27 140.02 26.844 140.524 26.724C141.052 26.604 141.556 26.508 142.036 26.436C142.516 26.364 142.936 26.34 143.296 26.364ZM145.96 33.096C145.96 33.216 145.9 33.36 145.78 33.528C145.684 33.672 145.444 33.78 145.06 33.852C143.812 34.068 142.72 34.284 141.784 34.5C140.872 34.692 139.948 34.944 139.012 35.256C138.508 35.352 138.052 35.352 137.644 35.256C137.236 35.136 136.984 34.896 136.888 34.536C136.816 34.248 136.9 33.996 137.14 33.78C137.404 33.54 137.764 33.348 138.22 33.204C139.156 32.868 140.08 32.592 140.992 32.376C141.904 32.16 142.912 32.076 144.016 32.124C144.16 32.124 144.34 32.16 144.556 32.232C144.772 32.28 144.988 32.352 145.204 32.448C145.42 32.52 145.6 32.616 145.744 32.736C145.912 32.856 145.984 32.976 145.96 33.096ZM139.516 41.592C139.732 42.144 139.816 42.972 139.768 44.076C139.72 45.156 139.528 46.332 139.192 47.604C139.12 47.94 138.952 48.204 138.688 48.396C138.448 48.612 138.196 48.708 137.932 48.684C137.74 48.66 137.572 48.564 137.428 48.396C137.308 48.252 137.212 48.084 137.14 47.892C137.068 47.676 137.02 47.472 136.996 47.28C136.972 47.064 136.972 46.884 136.996 46.74C137.116 45.948 137.212 45.192 137.284 44.472C137.38 43.728 137.428 43.02 137.428 42.348C136.78 42.324 136.06 42.468 135.268 42.78C134.5 43.068 133.816 43.356 133.216 43.644C132.688 43.908 132.268 43.968 131.956 43.824C131.668 43.68 131.488 43.524 131.416 43.356C131.224 43.02 131.2 42.72 131.344 42.456C131.488 42.192 131.668 41.976 131.884 41.808C132.604 41.28 133.456 40.824 134.44 40.44C135.448 40.032 136.408 39.864 137.32 39.936C137.968 39.984 138.46 40.188 138.796 40.548C139.156 40.908 139.396 41.256 139.516 41.592ZM172.796 28.812C172.82 28.62 172.904 28.416 173.048 28.2C173.192 27.96 173.432 27.84 173.768 27.84C174.2 27.912 174.536 28.164 174.776 28.596C175.04 29.028 175.136 29.496 175.064 30C174.944 30.696 174.848 31.512 174.776 32.448C174.728 33.384 174.692 34.332 174.668 35.292C174.644 36.252 174.632 37.176 174.632 38.064C174.632 38.928 174.644 39.648 174.668 40.224C174.668 40.752 174.572 41.184 174.38 41.52C174.188 41.832 173.984 41.988 173.768 41.988C173.552 41.988 173.36 41.928 173.192 41.808C173.024 41.664 172.868 41.496 172.724 41.304C172.604 41.088 172.508 40.86 172.436 40.62C172.364 40.38 172.328 40.164 172.328 39.972C172.28 39.228 172.244 38.364 172.22 37.38C172.22 36.396 172.244 35.364 172.292 34.284C171.38 34.98 170.372 35.628 169.268 36.228C168.164 36.828 167 37.332 165.776 37.74C165.296 37.908 164.816 37.92 164.336 37.776C163.88 37.608 163.628 37.368 163.58 37.056C163.556 36.888 163.592 36.732 163.688 36.588C163.784 36.444 163.892 36.324 164.012 36.228C164.132 36.108 164.264 36.024 164.408 35.976C164.552 35.904 164.66 35.844 164.732 35.796C165.38 35.508 166.064 35.208 166.784 34.896C167.528 34.56 168.248 34.2 168.944 33.816C169.664 33.432 170.324 33.036 170.924 32.628C171.548 32.22 172.064 31.788 172.472 31.332C172.544 30.42 172.652 29.58 172.796 28.812ZM161.672 38.28C161.336 38.52 160.928 38.688 160.448 38.784C159.992 38.88 159.524 38.868 159.044 38.748C158.348 38.556 157.88 38.148 157.64 37.524C157.424 36.876 157.352 36.168 157.424 35.4C157.472 34.968 157.556 34.536 157.676 34.104C157.82 33.672 157.976 33.264 158.144 32.88C158.336 32.496 158.552 32.172 158.792 31.908C159.032 31.62 159.284 31.404 159.548 31.26C159.74 31.164 159.908 31.128 160.052 31.152C160.22 31.176 160.352 31.224 160.448 31.296C160.568 31.368 160.664 31.452 160.736 31.548C160.832 31.644 160.916 31.728 160.988 31.8C161.204 31.536 161.444 31.308 161.708 31.116C161.972 30.9 162.332 30.696 162.788 30.504C163.916 30.096 165.092 29.808 166.316 29.64C167.564 29.472 168.776 29.604 169.952 30.036C170.144 30.108 170.264 30.216 170.312 30.36C170.36 30.504 170.372 30.624 170.348 30.72C170.3 30.984 170.168 31.176 169.952 31.296C169.736 31.392 169.496 31.452 169.232 31.476C168.584 31.452 167.924 31.476 167.252 31.548C166.604 31.596 165.968 31.692 165.344 31.836C164.744 31.956 164.168 32.112 163.616 32.304C163.064 32.496 162.572 32.688 162.14 32.88C162.428 33.312 162.62 33.792 162.716 34.32C162.812 34.848 162.824 35.376 162.752 35.904C162.704 36.408 162.584 36.876 162.392 37.308C162.2 37.74 161.96 38.064 161.672 38.28ZM161.312 34.968C161.336 34.8 161.336 34.62 161.312 34.428C161.288 34.212 161.252 34.02 161.204 33.852C161.18 33.684 161.132 33.54 161.06 33.42C161.012 33.3 160.976 33.24 160.952 33.24C160.736 33.384 160.532 33.612 160.34 33.924C160.172 34.212 160.028 34.536 159.908 34.896C159.812 35.232 159.752 35.568 159.728 35.904C159.704 36.24 159.728 36.504 159.8 36.696C159.872 36.744 159.968 36.756 160.088 36.732C160.232 36.708 160.376 36.648 160.52 36.552C160.688 36.432 160.844 36.252 160.988 36.012C161.132 35.748 161.24 35.4 161.312 34.968ZM186.313 24.168C186.313 23.712 186.373 23.328 186.493 23.016C186.613 22.704 186.757 22.452 186.925 22.26C187.117 22.068 187.309 21.936 187.501 21.864C187.693 21.768 187.849 21.72 187.969 21.72C188.305 21.72 188.533 21.888 188.653 22.224C188.797 22.56 188.869 22.992 188.869 23.52C188.869 24.456 188.845 25.428 188.797 26.436C188.749 27.444 188.677 28.428 188.581 29.388C188.485 30.348 188.353 31.26 188.185 32.124C188.041 32.964 187.849 33.708 187.609 34.356C187.369 35.076 186.973 35.616 186.421 35.976C185.869 36.312 185.269 36.408 184.621 36.264C184.237 36.192 183.901 36.024 183.613 35.76C183.325 35.472 183.085 35.148 182.893 34.788C182.701 34.404 182.557 34.008 182.461 33.6C182.389 33.192 182.377 32.808 182.425 32.448C182.545 31.584 182.881 30.828 183.433 30.18C183.985 29.532 184.885 28.98 186.133 28.524C186.181 27.9 186.217 27.228 186.241 26.508C186.265 25.764 186.289 24.984 186.313 24.168ZM188.041 49.8C187.801 49.8 187.597 49.74 187.429 49.62C187.261 49.524 187.117 49.404 186.997 49.26C186.901 49.116 186.817 48.96 186.745 48.792C186.697 48.648 186.673 48.528 186.673 48.432C186.481 47.208 186.373 45.972 186.349 44.724C186.325 43.452 186.337 42.312 186.385 41.304C185.713 41.616 185.065 41.928 184.441 42.24C183.841 42.528 183.277 42.804 182.749 43.068C182.269 43.308 181.801 43.344 181.345 43.176C180.913 42.984 180.637 42.708 180.517 42.348C180.421 42.036 180.481 41.772 180.697 41.556C180.937 41.316 181.261 41.076 181.669 40.836C181.933 40.668 182.377 40.428 183.001 40.116C183.649 39.804 184.381 39.48 185.197 39.144C186.013 38.808 186.865 38.496 187.753 38.208C188.641 37.92 189.481 37.716 190.273 37.596C190.609 37.548 190.897 37.62 191.137 37.812C191.401 38.004 191.593 38.208 191.713 38.424C191.857 38.712 191.809 38.952 191.569 39.144C191.353 39.336 191.041 39.516 190.633 39.684C189.865 39.9 189.109 40.152 188.365 40.44C188.509 40.68 188.605 40.956 188.653 41.268C188.629 41.724 188.605 42.264 188.581 42.888C188.581 43.512 188.581 44.172 188.581 44.868C188.581 45.54 188.581 46.212 188.581 46.884C188.581 47.556 188.581 48.168 188.581 48.72C188.581 49.008 188.533 49.26 188.437 49.476C188.365 49.692 188.233 49.8 188.041 49.8ZM180.769 25.428C180.649 26.988 180.613 28.632 180.661 30.36C180.733 32.088 180.925 33.852 181.237 35.652C181.261 35.796 181.285 35.988 181.309 36.228C181.333 36.468 181.333 36.708 181.309 36.948C181.285 37.164 181.225 37.356 181.129 37.524C181.033 37.692 180.889 37.788 180.697 37.812C180.433 37.86 180.193 37.788 179.977 37.596C179.785 37.404 179.617 37.176 179.473 36.912C179.329 36.624 179.209 36.336 179.113 36.048C179.017 35.76 178.957 35.532 178.933 35.364C178.621 33.612 178.429 31.884 178.357 30.18C178.285 28.476 178.309 26.748 178.429 24.996C178.477 24.732 178.561 24.48 178.681 24.24C178.825 24 179.053 23.856 179.365 23.808C179.677 23.784 179.929 23.82 180.121 23.916C180.313 24.012 180.457 24.144 180.553 24.312C180.649 24.48 180.709 24.672 180.733 24.888C180.757 25.08 180.769 25.26 180.769 25.428ZM184.189 32.952C184.189 33.144 184.237 33.372 184.333 33.636C184.429 33.876 184.573 34.008 184.765 34.032C185.005 34.056 185.197 33.876 185.341 33.492C185.581 32.748 185.773 31.824 185.917 30.72C185.749 30.792 185.569 30.888 185.377 31.008C185.185 31.128 184.993 31.284 184.801 31.476C184.633 31.644 184.489 31.86 184.369 32.124C184.249 32.364 184.189 32.64 184.189 32.952ZM218.531 40.26C219.683 40.068 220.571 40.176 221.195 40.584C221.819 40.992 222.131 41.508 222.131 42.132C222.131 42.588 221.927 43.14 221.519 43.788C221.111 44.436 220.619 45.096 220.043 45.768C219.491 46.44 218.927 47.064 218.351 47.64C217.775 48.216 217.331 48.66 217.019 48.972C218.027 48.9 219.143 48.768 220.367 48.576C221.591 48.408 222.719 48.252 223.751 48.108C224.231 48.036 224.603 48.072 224.867 48.216C225.131 48.384 225.287 48.6 225.335 48.864C225.431 49.632 224.891 50.136 223.715 50.376C223.187 50.472 222.587 50.568 221.915 50.664C221.267 50.784 220.595 50.892 219.899 50.988C219.203 51.084 218.507 51.168 217.811 51.24C217.139 51.312 216.515 51.36 215.939 51.384C215.387 51.408 214.943 51.348 214.607 51.204C214.271 51.084 214.007 50.952 213.815 50.808C213.575 50.616 213.443 50.316 213.419 49.908C213.419 49.524 213.587 49.164 213.923 48.828C214.259 48.492 214.667 48.084 215.147 47.604C215.651 47.124 216.167 46.608 216.695 46.056C217.223 45.48 217.739 44.88 218.243 44.256C218.771 43.632 219.227 43.008 219.611 42.384C219.059 42.36 218.423 42.408 217.703 42.528C217.007 42.624 216.299 42.732 215.579 42.852C214.859 42.972 214.343 42.924 214.031 42.708C213.743 42.492 213.575 42.24 213.527 41.952C213.479 41.544 213.551 41.232 213.743 41.016C213.959 40.8 214.247 40.596 214.607 40.404C215.135 40.116 215.663 39.792 216.191 39.432C216.743 39.048 217.223 38.676 217.631 38.316C218.039 37.956 218.375 37.632 218.639 37.344C218.903 37.032 219.035 36.804 219.035 36.66C219.035 36.516 218.951 36.408 218.783 36.336C218.639 36.264 218.435 36.216 218.171 36.192C217.907 36.168 217.595 36.168 217.235 36.192C216.899 36.192 216.551 36.216 216.191 36.264C215.855 36.288 215.519 36.324 215.183 36.372C214.871 36.396 214.595 36.42 214.355 36.444C213.923 36.492 213.527 36.42 213.167 36.228C212.831 36.036 212.675 35.772 212.699 35.436C212.723 35.1 212.915 34.848 213.275 34.68C213.635 34.488 213.971 34.356 214.283 34.284C215.075 34.092 215.939 33.972 216.875 33.924C217.811 33.852 218.639 33.888 219.359 34.032C219.983 34.152 220.487 34.464 220.871 34.968C221.279 35.472 221.459 36.012 221.411 36.588C221.387 36.876 221.291 37.188 221.123 37.524C220.979 37.836 220.775 38.16 220.511 38.496C220.271 38.832 219.971 39.156 219.611 39.468C219.275 39.756 218.915 40.02 218.531 40.26ZM209.387 26.292C209.747 26.508 210.035 26.796 210.251 27.156C210.491 27.516 210.671 27.912 210.791 28.344C210.935 28.776 211.019 29.244 211.043 29.748C211.067 30.228 211.043 30.696 210.971 31.152C210.899 31.68 210.743 32.208 210.503 32.736C210.263 33.24 209.963 33.708 209.603 34.14C209.243 34.548 208.835 34.884 208.379 35.148C207.923 35.388 207.455 35.508 206.975 35.508C206.639 35.508 206.303 35.472 205.967 35.4C205.655 35.328 205.331 35.16 204.995 34.896C204.395 34.392 204.023 33.756 203.879 32.988C203.735 32.22 203.723 31.44 203.843 30.648C203.963 29.832 204.167 29.064 204.455 28.344C204.743 27.624 205.007 27.06 205.247 26.652C205.439 26.316 205.631 26.04 205.823 25.824C206.039 25.608 206.315 25.548 206.651 25.644C207.107 25.764 207.395 25.968 207.515 26.256C207.611 26.136 207.743 26.064 207.911 26.04C208.103 25.992 208.283 25.98 208.451 26.004C208.643 26.028 208.823 26.076 208.991 26.148C209.159 26.196 209.291 26.244 209.387 26.292ZM219.611 31.404C219.563 31.812 219.467 32.076 219.323 32.196C219.203 32.316 218.999 32.364 218.711 32.34C218.423 32.316 218.159 32.196 217.919 31.98C217.679 31.764 217.535 31.464 217.487 31.08C217.439 30.432 217.427 29.652 217.451 28.74C217.499 27.828 217.559 26.904 217.631 25.968C217.703 25.032 217.787 24.132 217.883 23.268C217.979 22.404 218.075 21.696 218.171 21.144C218.195 20.952 218.303 20.76 218.495 20.568C218.711 20.352 218.975 20.268 219.287 20.316C219.671 20.388 219.947 20.628 220.115 21.036C220.283 21.444 220.343 21.78 220.295 22.044C220.247 22.38 220.199 22.776 220.151 23.232C220.127 23.688 220.091 24.192 220.043 24.744C220.739 24.696 221.435 24.66 222.131 24.636C222.827 24.612 223.523 24.624 224.219 24.672C224.963 24.72 225.563 24.9 226.019 25.212C226.499 25.5 226.751 25.764 226.775 26.004C226.775 26.148 226.703 26.28 226.559 26.4C226.439 26.496 226.283 26.58 226.091 26.652C225.923 26.724 225.731 26.772 225.515 26.796C225.323 26.82 225.167 26.832 225.047 26.832C224.351 26.856 223.535 26.88 222.599 26.904C221.687 26.904 220.775 26.904 219.863 26.904C219.815 27.816 219.767 28.68 219.719 29.496C219.671 30.288 219.635 30.924 219.611 31.404ZM207.371 27.48C207.107 28.104 206.843 28.74 206.579 29.388C206.339 30.036 206.183 30.672 206.111 31.296C206.063 31.728 206.075 32.148 206.147 32.556C206.243 32.964 206.483 33.168 206.867 33.168C207.155 33.168 207.407 33.06 207.623 32.844C207.839 32.604 208.019 32.34 208.163 32.052C208.331 31.764 208.451 31.488 208.523 31.224C208.619 30.936 208.679 30.732 208.703 30.612C208.727 30.372 208.739 30.096 208.739 29.784C208.763 29.448 208.751 29.124 208.703 28.812C208.655 28.476 208.559 28.164 208.415 27.876C208.271 27.588 208.067 27.36 207.803 27.192C207.755 27.168 207.707 27.144 207.659 27.12C207.611 27.096 207.563 27.072 207.515 27.048C207.467 27.24 207.419 27.384 207.371 27.48ZM244.278 26.184C244.206 27.552 244.122 28.896 244.026 30.216C243.93 31.536 243.918 32.916 243.99 34.356C243.966 34.548 243.834 34.752 243.594 34.968C243.354 35.16 243.126 35.256 242.91 35.256C242.742 35.256 242.598 35.172 242.478 35.004C242.382 34.836 242.298 34.644 242.226 34.428C242.154 34.188 242.094 33.96 242.046 33.744C242.022 33.504 241.998 33.324 241.974 33.204C241.902 32.652 241.854 32.04 241.83 31.368C241.83 30.696 241.842 30.024 241.866 29.352C241.914 28.656 241.962 27.984 242.01 27.336C242.082 26.688 242.142 26.124 242.19 25.644C242.238 25.452 242.322 25.284 242.442 25.14C242.586 24.996 242.838 24.948 243.198 24.996C243.63 25.044 243.918 25.2 244.062 25.464C244.206 25.704 244.278 25.944 244.278 26.184ZM232.218 26.184C232.794 26.76 233.082 27.348 233.082 27.948C233.082 28.548 232.95 29.052 232.686 29.46C232.422 29.844 232.146 30.204 231.858 30.54C232.146 30.54 232.434 30.576 232.722 30.648C233.01 30.72 233.274 30.828 233.514 30.972C233.778 31.116 233.982 31.284 234.126 31.476C234.294 31.668 234.378 31.884 234.378 32.124C234.378 32.484 234.282 32.88 234.09 33.312C233.922 33.72 233.718 34.152 233.478 34.608C233.238 35.064 232.998 35.532 232.758 36.012C232.518 36.492 232.35 36.948 232.254 37.38C233.478 36.804 234.678 36.132 235.854 35.364C237.054 34.572 238.17 33.828 239.202 33.132C239.322 33.06 239.406 33.072 239.454 33.168C239.526 33.264 239.562 33.384 239.562 33.528C239.562 33.792 239.49 34.116 239.346 34.5C239.202 34.86 239.034 35.136 238.842 35.328C238.002 36.288 237.018 37.14 235.89 37.884C234.762 38.628 233.622 39.276 232.47 39.828C231.87 40.116 231.33 40.272 230.85 40.296C230.37 40.296 229.998 40.2 229.734 40.008C229.542 39.888 229.398 39.672 229.302 39.36C229.23 39.048 229.218 38.748 229.266 38.46C229.338 38.076 229.47 37.644 229.662 37.164C229.854 36.684 230.07 36.192 230.31 35.688C230.574 35.184 230.85 34.704 231.138 34.248C231.426 33.768 231.678 33.348 231.894 32.988C231.534 32.94 231.138 32.94 230.706 32.988C230.298 33.036 229.926 33.084 229.59 33.132C229.254 33.18 228.978 33.132 228.762 32.988C228.546 32.82 228.39 32.616 228.294 32.376C228.222 32.136 228.198 31.884 228.222 31.62C228.27 31.356 228.366 31.152 228.51 31.008C228.726 30.792 228.978 30.552 229.266 30.288C229.554 30 229.818 29.724 230.058 29.46C230.298 29.172 230.478 28.896 230.598 28.632C230.742 28.344 230.754 28.068 230.634 27.804C230.514 27.564 230.226 27.456 229.77 27.48C229.338 27.48 228.954 27.516 228.618 27.588C228.354 27.636 228.066 27.624 227.754 27.552C227.466 27.456 227.298 27.24 227.25 26.904C227.178 26.544 227.262 26.268 227.502 26.076C227.766 25.884 228.066 25.728 228.402 25.608C229.026 25.392 229.71 25.332 230.454 25.428C231.222 25.524 231.81 25.776 232.218 26.184ZM243.738 38.604C244.074 38.796 244.326 39.048 244.494 39.36C244.686 39.672 244.722 39.996 244.602 40.332C244.386 40.956 244.146 41.592 243.882 42.24C243.618 42.888 243.438 43.488 243.342 44.04C244.086 43.776 244.758 43.488 245.358 43.176C245.958 42.84 246.582 42.468 247.23 42.06C247.566 41.868 247.854 41.712 248.094 41.592C248.358 41.448 248.586 41.544 248.778 41.88C248.874 42.024 248.85 42.276 248.706 42.636C248.586 42.996 248.358 43.332 248.022 43.644C247.758 43.884 247.398 44.16 246.942 44.472C246.486 44.76 245.982 45.06 245.43 45.372C244.902 45.684 244.362 45.972 243.81 46.236C243.282 46.476 242.826 46.656 242.442 46.776C241.77 46.968 241.23 46.86 240.822 46.452C240.582 46.212 240.486 45.816 240.534 45.264C240.606 44.712 240.738 44.136 240.93 43.536C241.122 42.912 241.338 42.336 241.578 41.808C241.818 41.28 242.01 40.92 242.154 40.728C241.554 40.848 240.954 41.052 240.354 41.34C239.778 41.604 239.286 41.844 238.878 42.06C238.83 42.372 238.794 42.732 238.77 43.14C238.77 43.524 238.77 43.92 238.77 44.328C238.77 44.712 238.77 45.084 238.77 45.444C238.794 45.804 238.806 46.128 238.806 46.416C238.806 46.992 238.554 47.28 238.05 47.28C237.714 47.28 237.378 47.172 237.042 46.956C236.73 46.74 236.562 46.464 236.538 46.128C236.514 45.696 236.502 45.204 236.502 44.652C236.502 44.076 236.514 43.5 236.538 42.924C236.586 42.324 236.658 41.76 236.754 41.232C236.85 40.68 236.982 40.212 237.15 39.828C237.246 39.636 237.402 39.42 237.618 39.18C237.834 38.916 238.11 38.808 238.446 38.856C238.614 38.88 238.77 38.988 238.914 39.18C239.082 39.348 239.154 39.528 239.13 39.72C239.49 39.48 239.874 39.264 240.282 39.072C240.714 38.856 241.134 38.688 241.542 38.568C241.974 38.448 242.37 38.388 242.73 38.388C243.114 38.388 243.45 38.46 243.738 38.604ZM273.328 40.728C273.28 40.992 273.232 41.34 273.184 41.772C273.136 42.204 273.088 42.648 273.04 43.104C273.016 43.56 272.992 44.004 272.968 44.436C272.944 44.844 272.932 45.168 272.932 45.408C273.748 45.264 274.648 45.06 275.632 44.796C276.616 44.508 277.6 44.148 278.584 43.716C279.064 43.5 279.412 43.44 279.628 43.536C279.868 43.608 280.024 43.752 280.096 43.968C280.168 44.184 280.12 44.46 279.952 44.796C279.808 45.132 279.604 45.408 279.34 45.624C279.076 45.84 278.704 46.068 278.224 46.308C277.768 46.548 277.252 46.776 276.676 46.992C276.124 47.184 275.548 47.352 274.948 47.496C274.348 47.64 273.784 47.748 273.256 47.82C272.56 47.916 271.924 47.796 271.348 47.46C270.772 47.124 270.472 46.536 270.448 45.696C270.424 45.288 270.436 44.868 270.484 44.436C270.532 43.98 270.592 43.536 270.664 43.104C270.736 42.672 270.808 42.276 270.88 41.916C270.976 41.532 271.06 41.208 271.132 40.944C271.132 40.896 271.144 40.848 271.168 40.8C270.832 40.872 270.532 40.836 270.268 40.692C270.028 40.548 269.884 40.344 269.836 40.08C269.788 39.816 269.836 39.54 269.98 39.252C270.148 38.94 270.436 38.712 270.844 38.568C271.852 38.208 272.836 37.92 273.796 37.704C274.78 37.488 275.812 37.38 276.892 37.38C277.372 37.38 277.696 37.5 277.864 37.74C278.056 37.98 278.152 38.196 278.152 38.388C278.152 38.652 278.032 38.892 277.792 39.108C277.576 39.3 277.3 39.42 276.964 39.468C276.244 39.564 275.584 39.672 274.984 39.792C274.384 39.888 273.808 40.02 273.256 40.188C273.352 40.356 273.376 40.536 273.328 40.728ZM268 28.74C267.856 29.676 267.784 30.66 267.784 31.692C267.808 32.7 267.784 33.72 267.712 34.752C267.664 35.76 267.508 36.78 267.244 37.812C266.98 38.82 266.512 39.792 265.84 40.728C265.744 40.872 265.588 40.956 265.372 40.98C265.156 41.004 264.928 40.992 264.688 40.944C264.448 40.872 264.208 40.776 263.968 40.656C263.752 40.512 263.584 40.368 263.464 40.224C263.296 40.032 263.128 39.816 262.96 39.576C262.792 39.336 262.636 39.048 262.492 38.712C262.348 38.376 262.228 37.98 262.132 37.524C262.06 37.044 262.024 36.48 262.024 35.832C262.024 35.448 262.108 35.064 262.276 34.68C262.444 34.272 262.672 33.912 262.96 33.6C263.272 33.264 263.632 33 264.04 32.808C264.448 32.616 264.88 32.52 265.336 32.52C265.336 31.704 265.36 30.888 265.408 30.072C265.48 29.256 265.624 28.452 265.84 27.66C266.032 27.18 266.392 27 266.92 27.12C267.256 27.192 267.532 27.348 267.748 27.588C267.964 27.828 268.048 28.212 268 28.74ZM273.184 25.464C273.256 24.864 273.388 24.384 273.58 24.024C273.772 23.64 274.06 23.46 274.444 23.484C274.78 23.508 275.044 23.748 275.236 24.204C275.428 24.636 275.5 25.212 275.452 25.932C275.404 26.34 275.368 26.772 275.344 27.228C275.344 27.684 275.332 28.164 275.308 28.668C275.452 28.572 275.62 28.488 275.812 28.416C276.028 28.344 276.244 28.284 276.46 28.236C277.156 28.044 277.84 27.888 278.512 27.768C279.184 27.624 279.868 27.552 280.564 27.552C281.044 27.552 281.392 27.648 281.608 27.84C281.824 28.032 281.932 28.26 281.932 28.524C281.932 28.908 281.776 29.16 281.464 29.28C281.152 29.376 280.696 29.472 280.096 29.568C279.688 29.64 279.184 29.748 278.584 29.892C278.008 30.012 277.48 30.144 277 30.288C276.736 30.384 276.448 30.444 276.136 30.468C275.824 30.468 275.536 30.408 275.272 30.288C275.248 30.96 275.236 31.632 275.236 32.304C275.236 32.952 275.236 33.588 275.236 34.212C275.236 34.716 275.152 35.052 274.984 35.22C274.816 35.364 274.624 35.436 274.408 35.436C274.192 35.436 274 35.364 273.832 35.22C273.688 35.076 273.556 34.896 273.436 34.68C273.34 34.464 273.256 34.236 273.184 33.996C273.136 33.756 273.1 33.54 273.076 33.348C272.932 32.124 272.884 30.816 272.932 29.424C272.98 28.008 273.064 26.688 273.184 25.464ZM260.728 28.92C260.656 29.664 260.596 30.444 260.548 31.26C260.5 32.052 260.464 32.832 260.44 33.6C260.44 34.368 260.452 35.112 260.476 35.832C260.5 36.552 260.548 37.2 260.62 37.776C260.644 37.92 260.656 38.112 260.656 38.352C260.68 38.592 260.68 38.832 260.656 39.072C260.656 39.288 260.608 39.48 260.512 39.648C260.416 39.816 260.272 39.912 260.08 39.936C259.816 39.96 259.576 39.876 259.36 39.684C259.168 39.492 259 39.264 258.856 39C258.712 38.712 258.592 38.424 258.496 38.136C258.4 37.848 258.34 37.608 258.316 37.416C258.22 36.768 258.148 36.084 258.1 35.364C258.052 34.62 258.028 33.876 258.028 33.132C258.028 32.364 258.04 31.62 258.064 30.9C258.112 30.156 258.172 29.46 258.244 28.812C258.292 28.548 258.388 28.296 258.532 28.056C258.7 27.792 258.916 27.66 259.18 27.66C259.636 27.66 260.008 27.804 260.296 28.092C260.608 28.38 260.752 28.656 260.728 28.92ZM265.3 34.5C265.012 34.476 264.688 34.572 264.328 34.788C263.992 34.98 263.764 35.232 263.644 35.544C263.428 36.096 263.416 36.66 263.608 37.236C263.824 37.788 264.028 38.28 264.22 38.712C264.484 38.16 264.724 37.5 264.94 36.732C265.18 35.94 265.3 35.196 265.3 34.5ZM291.921 33.564C291.777 34.068 291.633 34.644 291.489 35.292C291.345 35.916 291.213 36.564 291.093 37.236C290.997 37.908 290.925 38.568 290.877 39.216C290.853 39.84 290.877 40.416 290.949 40.944C290.949 41.424 290.817 41.772 290.553 41.988C290.289 42.18 290.061 42.252 289.869 42.204C289.533 42.132 289.269 41.952 289.077 41.664C288.885 41.352 288.741 41.04 288.645 40.728C288.549 40.392 288.501 39.912 288.501 39.288C288.525 38.664 288.573 37.992 288.645 37.272C288.717 36.528 288.813 35.784 288.933 35.04C289.053 34.296 289.185 33.624 289.329 33.024C289.041 33.024 288.705 33.084 288.321 33.204C287.937 33.3 287.529 33.432 287.097 33.6C286.689 33.768 286.269 33.96 285.837 34.176C285.429 34.368 285.045 34.548 284.685 34.716C284.421 34.836 284.085 34.836 283.677 34.716C283.293 34.572 283.017 34.368 282.849 34.104C282.681 33.84 282.717 33.588 282.957 33.348C283.197 33.084 283.449 32.856 283.713 32.664C284.049 32.424 284.457 32.196 284.937 31.98C285.441 31.74 285.957 31.524 286.485 31.332C287.013 31.14 287.541 30.996 288.069 30.9C288.597 30.78 289.065 30.72 289.473 30.72C290.409 30.768 291.093 31.056 291.525 31.584C291.981 32.112 292.113 32.772 291.921 33.564ZM299.589 39.288C299.589 39.696 299.517 39.972 299.373 40.116C299.229 40.236 299.013 40.296 298.725 40.296C298.629 40.296 298.509 40.272 298.365 40.224C298.221 40.176 298.077 40.104 297.933 40.008C297.789 39.888 297.657 39.756 297.537 39.612C297.441 39.468 297.381 39.3 297.357 39.108C297.261 37.932 297.201 36.84 297.177 35.832C297.153 34.824 297.141 33.864 297.141 32.952C297.141 32.04 297.165 31.176 297.213 30.36C297.261 29.52 297.309 28.692 297.357 27.876C297.357 27.612 297.465 27.396 297.681 27.228C297.897 27.036 298.137 26.94 298.401 26.94C298.785 26.94 299.085 27.132 299.301 27.516C299.541 27.9 299.649 28.26 299.625 28.596C299.577 29.604 299.529 30.54 299.481 31.404C299.457 32.268 299.445 33.12 299.445 33.96C299.445 34.8 299.457 35.652 299.481 36.516C299.505 37.356 299.541 38.28 299.589 39.288ZM308.888 24.636C308.672 25.692 308.444 26.736 308.204 27.768C307.988 28.8 307.784 29.832 307.592 30.864C307.4 31.896 307.256 32.928 307.16 33.96C307.064 34.992 307.052 36.024 307.124 37.056C307.172 37.32 307.124 37.572 306.98 37.812C306.86 38.052 306.716 38.208 306.548 38.28C306.02 38.472 305.636 38.34 305.396 37.884C305.108 36.66 304.952 35.448 304.928 34.248C304.928 33.048 305.012 31.86 305.18 30.684C305.372 29.508 305.612 28.344 305.9 27.192C306.212 26.016 306.524 24.852 306.836 23.7C306.956 23.22 307.148 22.956 307.412 22.908C307.676 22.86 307.928 22.884 308.168 22.98C308.528 23.1 308.756 23.34 308.852 23.7C308.948 24.06 308.96 24.372 308.888 24.636ZM307.448 44.004C307.448 44.268 307.412 44.628 307.34 45.084C307.292 45.516 307.196 45.924 307.052 46.308C306.932 46.692 306.752 47.004 306.512 47.244C306.296 47.484 306.02 47.532 305.684 47.388C305.492 47.268 305.3 47.04 305.108 46.704C304.916 46.368 304.832 46.056 304.856 45.768C304.904 45.192 305.024 44.628 305.216 44.076C305.408 43.524 305.66 43.188 305.972 43.068C306.116 43.02 306.272 43.02 306.44 43.068C306.632 43.116 306.8 43.2 306.944 43.32C307.088 43.416 307.208 43.536 307.304 43.68C307.4 43.8 307.448 43.908 307.448 44.004Z" fill="white"/>
<path d="M65.9369 69.2578V70.21H60.5609V71.6016C63.0219 71.7041 64.4721 72.5098 64.4867 73.8867C64.4721 75.3369 62.8021 76.1572 60.0043 76.1572C57.1771 76.1572 55.5072 75.3369 55.5072 73.8867C55.5072 72.5098 56.9501 71.7041 59.433 71.6016V70.21H54.0717V69.2578H65.9369ZM60.0043 72.4805C57.9096 72.4951 56.6645 73.0078 56.6791 73.8867C56.6645 74.751 57.9096 75.2637 60.0043 75.2637C62.0697 75.2637 63.3295 74.751 63.3295 73.8867C63.3295 73.0078 62.0697 72.4951 60.0043 72.4805ZM64.8822 63.7793V64.7168H60.7514C60.8246 66.1816 62.9779 67.3169 65.2777 67.5586L64.8529 68.4668C62.7216 68.2104 60.7221 67.2583 60.0043 65.8008C59.2938 67.2583 57.3017 68.2104 55.1557 68.4668L54.7455 67.5586C57.0014 67.3169 59.1693 66.1816 59.2572 64.7168H55.1557V63.7793H64.8822ZM78.9219 73.5498V74.5166H66.998V73.5498H69.957V70.0342C68.8438 69.4556 68.1699 68.5181 68.1699 67.3389C68.1699 65.3174 70.1475 63.999 72.9307 63.9844C75.7139 63.999 77.6914 65.3174 77.6914 67.3389C77.6914 68.4961 77.0396 69.4263 75.9629 70.0049V73.5498H78.9219ZM72.9307 64.9365C70.792 64.9219 69.2832 65.8887 69.2832 67.3389C69.2832 68.7891 70.792 69.7705 72.9307 69.7705C75.0547 69.7705 76.5781 68.7891 76.5781 67.3389C76.5781 65.8887 75.0547 64.9219 72.9307 64.9365ZM71.085 73.5498H74.8057V70.4443C74.2417 70.5981 73.6118 70.6787 72.9307 70.6787C72.2642 70.6787 71.6416 70.6055 71.085 70.459V73.5498ZM90.1051 63.1787V67.4707H92.068V68.4375H90.1051V72.9346H88.9625V63.1787H90.1051ZM87.7174 64.7754V65.7129H79.9537V64.7754H83.2643V63.1787H84.4068V64.7754H87.7174ZM83.8355 66.4307C85.6959 66.4307 86.9557 67.3828 86.9703 68.8623C86.9557 70.3271 85.6959 71.2646 83.8355 71.2646C81.9605 71.2646 80.6861 70.3271 80.7008 68.8623C80.6861 67.3828 81.9605 66.4307 83.8355 66.4307ZM83.8355 67.3389C82.6051 67.3389 81.7848 67.9395 81.7994 68.8623C81.7848 69.7852 82.6051 70.3711 83.8355 70.3564C85.0514 70.3711 85.8717 69.7852 85.8863 68.8623C85.8717 67.9395 85.0514 67.3389 83.8355 67.3389ZM90.7057 74.9414V75.9082H81.9605V72.1582H83.0885V74.9414H90.7057ZM108.443 69.9023V70.8545H96.5779V69.9023H101.939V68.335H98.16V63.4717H99.3025V64.9805H105.748V63.4717H106.89V68.335H103.082V69.9023H108.443ZM106.978 72.1436V76.1865H105.821V73.0664H97.8963V72.1436H106.978ZM99.3025 67.4121H105.748V65.8594H99.3025V67.4121ZM121.619 65.1855V66.123H119.685V67.9541H121.619V68.9355H119.685V70.9131H118.542V63.1641H119.685V65.1855H121.619ZM119.685 71.5137V76.1865H118.542V72.4658H111.16V71.5137H119.685ZM113.166 63.9551C115.144 63.9404 116.579 65.2148 116.594 67.0166C116.579 68.8477 115.144 70.1074 113.166 70.1074C111.189 70.1074 109.739 68.8477 109.753 67.0166C109.739 65.2148 111.189 63.9404 113.166 63.9551ZM113.166 64.9365C111.848 64.9365 110.867 65.7861 110.881 67.0166C110.867 68.2617 111.848 69.126 113.166 69.1113C114.499 69.126 115.466 68.2617 115.466 67.0166C115.466 65.7861 114.499 64.9365 113.166 64.9365ZM136.954 63.1641V70.9277H135.796V67.5146H133.174V66.5625H135.796V63.1641H136.954ZM132.632 71.3379C135.342 71.3379 136.998 72.2168 136.998 73.7549C136.998 75.293 135.342 76.1719 132.632 76.1865C129.922 76.1719 128.267 75.293 128.267 73.7549C128.267 72.2168 129.922 71.3379 132.632 71.3379ZM132.632 72.2314C130.64 72.2314 129.395 72.8027 129.41 73.7549C129.395 74.6924 130.64 75.2637 132.632 75.2637C134.625 75.2637 135.855 74.6924 135.855 73.7549C135.855 72.8027 134.625 72.2314 132.632 72.2314ZM130.684 65.5518C130.684 67.251 131.988 68.8623 133.892 69.5215L133.292 70.4443C131.827 69.917 130.692 68.8257 130.142 67.4707C129.571 69.0015 128.362 70.2246 126.817 70.8105L126.216 69.8877C128.15 69.1846 129.527 67.4268 129.527 65.5664V65.083H126.583V64.1162H133.599V65.083H130.684V65.5518ZM151.008 73.5645V74.5166H139.084V73.5645H144.446V70.752H140.49V64.0869H141.648V66.4453H148.415V64.0869H149.543V70.752H145.573V73.5645H151.008ZM141.648 69.8145H148.415V67.3828H141.648V69.8145ZM163.92 69.2139V70.1221H151.996V69.2139H163.92ZM162.426 71.1621V73.9307H154.603V75.1758H162.85V76.0107H153.446V73.1396H161.283V72.0264H153.431V71.1621H162.426ZM162.382 63.5596V66.2549H154.691V67.3975H162.616V68.2324H153.549V65.4639H161.224V64.3945H153.505V63.5596H162.382ZM179.445 71.1328V72.041H169.777V71.1328H174.025V69.917H175.168V71.1328H179.445ZM179.211 66.2402V67.1631H175.197V68.4814H180.573V69.4189H168.649V68.4814H174.069V67.1631H170.305V63.3691H171.447V66.2402H179.211ZM174.597 72.6416C177.102 72.6416 178.537 73.2422 178.537 74.4141C178.537 75.5566 177.102 76.1572 174.597 76.1572C172.077 76.1572 170.671 75.5566 170.671 74.4141C170.671 73.2422 172.077 72.6416 174.597 72.6416ZM174.597 73.4619C172.854 73.4619 171.843 73.7842 171.857 74.4141C171.843 75.0293 172.854 75.3369 174.597 75.3369C176.325 75.3369 177.351 75.0293 177.351 74.4141C177.351 73.7842 176.325 73.4619 174.597 73.4619ZM192.328 63.1641V76.1865H191.171V63.1641H192.328ZM186.395 67.4121C186.395 69.5947 187.919 71.7041 189.881 72.5391L189.237 73.4326C187.735 72.7661 186.461 71.3525 185.853 69.624C185.267 71.4551 184 72.9565 182.499 73.667L181.854 72.7734C183.788 71.8945 185.267 69.6973 185.267 67.4121V66.3721H182.206V65.4346H185.253V63.4131H186.395V65.4346H189.427V66.3721H186.395V67.4121ZM199.175 67.1631C199.175 69.375 200.786 71.6162 202.705 72.4512L202.061 73.3594C200.537 72.6636 199.219 71.1621 198.618 69.3604C198.003 71.272 196.692 72.9346 195.205 73.6816L194.517 72.7734C196.377 71.8799 198.003 69.4189 198.018 67.1631V65.4639H194.942V64.5117H202.28V65.4639H199.175V67.1631ZM205.254 63.1641V76.1865H204.097V63.1641H205.254ZM217.718 64.4824V72.876H211.712V64.4824H217.718ZM212.826 65.4053V71.9385H216.576V65.4053H212.826ZM221.248 63.1641V68.3643H223.431V69.3604H221.248V76.1865H220.106V63.1641H221.248ZM227.964 66.8701C227.964 68.9355 228.975 71.1768 230.703 72.2021L230.044 73.0957C228.792 72.334 227.891 70.9424 227.437 69.3604C226.953 71.0889 225.986 72.5757 224.683 73.374L223.95 72.5098C225.752 71.4551 226.851 69.1406 226.851 66.9141V64.3945H227.964V66.8701ZM235.259 63.1641V76.1865H234.146V63.1641H235.259ZM232.563 63.4424V75.5273H231.479V68.8184H229.268V67.8369H231.479V63.4424H232.563ZM248.947 73.5498V74.5166H237.023V73.5498H239.982V70.0342C238.869 69.4556 238.195 68.5181 238.195 67.3389C238.195 65.3174 240.172 63.999 242.956 63.9844C245.739 63.999 247.716 65.3174 247.716 67.3389C247.716 68.4961 247.065 69.4263 245.988 70.0049V73.5498H248.947ZM242.956 64.9365C240.817 64.9219 239.308 65.8887 239.308 67.3389C239.308 68.7891 240.817 69.7705 242.956 69.7705C245.08 69.7705 246.603 68.7891 246.603 67.3389C246.603 65.8887 245.08 64.9219 242.956 64.9365ZM241.11 73.5498H244.831V70.4443C244.267 70.5981 243.637 70.6787 242.956 70.6787C242.289 70.6787 241.667 70.6055 241.11 70.459V73.5498Z" fill="#CFCFD8"/>
</svg>
