<svg width="57" height="56" viewBox="0 0 57 56" fill="none" xmlns="http://www.w3.org/2000/svg">
<rect x="1.625" y="1" width="54" height="54" rx="27" fill="#E7FAEF"/>
<rect x="1.625" y="1" width="54" height="54" rx="27" stroke="#0CC25A" stroke-width="2"/>
<path d="M39.7373 28.1435L33.041 24.6711L33.4885 23.8423C34.0935 22.6904 35.4941 22.218 36.6792 22.823L39.1655 24.0992C40.3174 24.7042 40.7898 26.1048 40.1848 27.2899L39.7373 28.1435Z" fill="#F36B3C"/>
<path d="M40.0504 27.5132C39.2879 26.527 38.2934 25.6982 37.1166 25.0932H37.0835C35.9066 24.4882 34.6304 24.1402 33.3872 24.0739C32.0198 24.0076 30.6772 24.2313 29.4341 24.7452C30.0059 25.3833 30.4866 26.1126 30.8678 26.9413C32.4922 26.4027 34.3154 26.4938 35.9398 27.3557C39.1305 28.9801 40.4068 32.9664 38.7493 36.1902C37.0918 39.414 33.1055 40.6903 29.8816 39.0245C29.2766 38.7096 28.7628 38.3201 28.3153 37.8726C27.6772 37.2676 27.1965 36.53 26.8816 35.7675C26.1191 34.0106 26.1523 31.9719 27.0722 30.1569C27.4865 29.3944 28.0252 28.7232 28.6385 28.1762C28.2904 27.3806 27.7766 26.643 27.2048 26.0712C26.2517 26.8336 25.423 27.8281 24.8097 29.0049C23.4671 31.6155 23.5003 34.5824 24.6522 37.0438C25.0003 37.8394 25.481 38.577 26.086 39.24C26.8153 40.0687 27.7103 40.7732 28.7297 41.3119C33.1966 43.6075 38.7078 41.8506 41.0366 37.3919C42.7024 34.0769 42.1886 30.2232 40.0504 27.5132Z" fill="#F2A622"/>
<path d="M43.6557 20.4003C43.0507 19.2483 41.7412 18.519 40.465 18.519C40.15 18.0383 39.6694 17.6571 39.1555 17.367C38.5174 17.0521 37.7881 16.8864 37.0837 16.9858C35.4925 17.2096 34.5643 18.577 35.0449 20.0771L35.0781 20.1765L36.2549 23.8396C36.2881 23.9059 36.3212 23.997 36.3544 24.0633C36.3544 24.0965 36.3875 24.0965 36.3875 24.1296C36.4207 24.1959 36.4207 24.2291 36.4538 24.2871C36.4538 24.3203 36.487 24.3534 36.487 24.3534C36.5201 24.3866 36.5533 24.4529 36.5864 24.4777C36.5864 24.5109 36.6196 24.5109 36.6196 24.544C36.6196 24.544 36.6196 24.5772 36.6527 24.5772L36.6859 24.6103C36.719 24.6435 36.7522 24.7098 36.7853 24.7346C36.9759 24.9915 37.2991 25.149 37.6472 25.149H37.8047H37.8378H37.871C37.871 25.149 37.9041 25.149 37.9373 25.149C38.0036 25.149 38.0367 25.149 38.0947 25.1159H38.161C38.2273 25.1159 38.2605 25.0827 38.3185 25.0827H38.3848C38.4511 25.0496 38.5091 25.0496 38.5754 25.0164L42.2716 23.8396L42.396 23.8064C43.0672 23.5827 43.5479 23.1683 43.8297 22.6545C44.07 22.0246 44.07 21.1959 43.6557 20.4003Z" fill="#00ACAC"/>
<path d="M23.6376 22.3361L16.5601 24.7892L16.2451 23.8941C15.8308 22.651 16.4689 21.3084 17.712 20.894L20.3557 19.9658C21.5989 19.5515 22.9414 20.1896 23.3558 21.4327L23.6376 22.3361Z" fill="#FBB959"/>
<path d="M31.2287 27.7627C31.1293 27.4726 31.0049 27.1909 30.8806 26.9008C30.085 27.1577 29.3143 27.6052 28.6513 28.1439C28.7176 28.2682 28.7756 28.434 28.8088 28.5914C29.737 31.202 28.8751 34.0446 26.8612 35.7353C26.2562 36.2491 25.5518 36.6635 24.7562 36.9452C24.723 36.9452 24.6899 36.9784 24.6319 36.9784C21.2174 38.0972 17.5543 36.274 16.3692 32.9009C15.1924 29.4865 17.0074 25.724 20.4218 24.5471C22.8418 23.7184 25.4275 24.3897 27.1844 26.0472C27.8557 25.5085 28.6181 25.061 29.4469 24.7046C27.9137 22.9477 25.7507 21.8703 23.4219 21.6465C22.1788 21.5222 20.8693 21.6797 19.5931 22.1272C19.5931 22.1272 19.5931 22.1272 19.5599 22.1272C18.3168 22.5747 17.198 23.246 16.3112 24.1079C13.7835 26.4864 12.731 30.2241 13.941 33.7297C15.5985 38.4784 20.7947 40.9978 25.5435 39.3735C25.7009 39.3072 25.8584 39.2492 26.0242 39.1829C26.8529 38.8348 27.6154 38.3873 28.2866 37.8403C31.2287 35.5447 32.505 31.5252 31.2287 27.7627Z" fill="#FEC080"/>
<path d="M30.8721 26.8998C30.0765 27.1567 29.3057 27.6042 28.6427 28.1429C28.2946 27.3473 27.7808 26.6097 27.209 26.0379C27.8803 25.4992 28.6427 25.0517 29.4715 24.6953C30.0184 25.3749 30.4908 26.1042 30.8721 26.8998Z" fill="#F2A622"/>
<path d="M20.7369 14.1725C19.4938 13.8245 18.0601 14.272 17.1982 15.1919C16.6263 15.0924 16.0213 15.1587 15.4744 15.3494C14.8031 15.5731 14.1981 16.0206 13.7837 16.5925C12.8307 17.9019 13.2119 19.5263 14.6125 20.1975L14.7119 20.2307L18.1595 21.8882C18.2258 21.9213 18.317 21.9545 18.3833 21.9876C18.4164 21.9876 18.4164 22.0208 18.4496 22.0208C18.5159 22.0539 18.549 22.0539 18.607 22.0871C18.6402 22.0871 18.6733 22.0871 18.7065 22.1202C18.7728 22.1202 18.8059 22.1534 18.864 22.1534C18.8971 22.1534 18.9303 22.1534 18.9634 22.1865H18.9966H19.0297C19.096 22.1865 19.1292 22.2197 19.1872 22.2197C19.5021 22.2528 19.8585 22.1202 20.0822 21.9048C20.1154 21.8716 20.1485 21.8053 20.2065 21.7805C20.2065 21.7805 20.2065 21.7805 20.2397 21.7473C20.2397 21.7473 20.2397 21.7473 20.2397 21.7142L20.2728 21.681C20.306 21.6479 20.3391 21.5816 20.3723 21.5567C20.3723 21.5235 20.4054 21.5235 20.4054 21.4904C20.4386 21.4572 20.4717 21.3909 20.5049 21.3661C20.5049 21.3329 20.538 21.3329 20.538 21.2998C20.5712 21.2335 20.6043 21.1755 20.6375 21.1092L22.3281 17.6367L22.3944 17.5373C22.7094 16.8991 22.7425 16.261 22.5187 15.7223C22.2038 15.0013 21.5988 14.4294 20.7369 14.1725Z" fill="#00CCCC"/>
<path d="M27.5547 15.2919H26.7922V14.5295C26.7922 14.2394 26.5684 14.0156 26.2784 14.0156C25.9883 14.0156 25.7646 14.2394 25.7646 14.5295V15.2919H25.0021C24.712 15.2919 24.4883 15.5157 24.4883 15.8057C24.4883 16.0958 24.712 16.3196 25.0021 16.3196H25.7646V17.0489C25.7646 17.3389 25.9883 17.5627 26.2784 17.5627C26.5684 17.5627 26.7922 17.3389 26.7922 17.0489V16.2864H27.5547C27.8447 16.2864 28.0685 16.0626 28.0685 15.7726C28.0353 15.5157 27.8116 15.2919 27.5547 15.2919Z" fill="#F2A622"/>
<path d="M24.2734 42.9013H23.511V42.1388C23.511 41.8488 23.2872 41.625 22.9971 41.625C22.7071 41.625 22.4833 41.8488 22.4833 42.1388V42.9013H21.7209C21.4308 42.9013 21.207 43.125 21.207 43.4151C21.207 43.7052 21.4308 43.9289 21.7209 43.9289H22.4833V44.6914C22.4833 44.9814 22.7071 45.2052 22.9971 45.2052C23.2872 45.2052 23.511 44.9814 23.511 44.6914V43.9289H24.2734C24.5635 43.9289 24.7872 43.7052 24.7872 43.4151C24.7872 43.125 24.5635 42.9013 24.2734 42.9013Z" fill="#F2A622"/>
<path d="M42.2246 14.8123H41.6196V14.2073C41.6196 13.9836 41.429 13.793 41.2052 13.793C40.9815 13.793 40.7908 13.9836 40.7908 14.2073V14.8123H40.1859C39.9621 14.8123 39.7715 15.0029 39.7715 15.2267C39.7715 15.4505 39.9621 15.6411 40.1859 15.6411H40.7908V16.2461C40.7908 16.4698 40.9815 16.6604 41.2052 16.6604C41.429 16.6604 41.6196 16.4698 41.6196 16.2461V15.6411H42.2246C42.4483 15.6411 42.639 15.4505 42.639 15.2267C42.639 15.0029 42.4483 14.8123 42.2246 14.8123Z" fill="#F2A622"/>
</svg>
