<svg width="57" height="56" viewBox="0 0 57 56" fill="none" xmlns="http://www.w3.org/2000/svg">
<rect x="0.125" width="56" height="56" rx="28" fill="#F8F8FC"/>
<path d="M27.0589 17.1476C26.4004 16.4891 25.9553 17.2653 24.6679 16.6731C24.3133 16.3977 23.9369 16.1516 23.5423 15.9374C23.2082 15.6654 22.8889 15.3756 22.5859 15.0693C20.8755 13.3735 18.2712 13.8186 16.5423 14.981C13.1545 15.7167 10.793 17.9936 10.793 19.5054C10.793 21.3152 11.6979 26.0935 11.6979 26.0935H25.6574C25.6574 26.0935 26.5439 21.8412 26.5439 19.6673C26.5396 19.3662 26.4811 19.0684 26.371 18.7881C27.0478 18.1371 27.3715 17.4602 27.0589 17.1476Z" fill="#715860"/>
<path d="M18.6709 35.0781C17.1817 35.0775 15.7119 35.4164 14.3734 36.0691C13.0349 36.7218 11.8628 37.6711 10.9462 38.8448C10.8371 38.9767 10.7773 39.1426 10.7773 39.3138C10.7773 39.485 10.8371 39.6509 10.9462 39.7828C13.5211 42.7991 24.0045 42.7844 26.3955 39.7828C26.499 39.6526 26.5554 39.4912 26.5554 39.3248C26.5554 39.1585 26.499 38.9971 26.3955 38.8669C25.4812 37.6891 24.3101 36.7356 22.9714 36.079C21.6327 35.4224 20.1619 35.0801 18.6709 35.0781Z" fill="#CCCCCC"/>
<path d="M19.9287 42.0006C19.9287 42.0006 18.7627 38.3774 18.9944 38.1457C19.2875 37.9057 19.6 37.6904 19.9287 37.502L18.656 36.3984L17.3943 37.4284C17.7178 37.6484 18.0285 37.8866 18.3249 38.142C18.5567 38.3737 17.3906 41.997 17.3906 41.997L19.9287 42.0006Z" fill="#119F4D"/>
<path d="M16.2476 35.3789C14.1429 35.9214 12.2775 37.1465 10.9434 38.8624C10.8408 38.9923 10.7851 39.153 10.7852 39.3185C10.7834 39.4865 10.8393 39.6501 10.9434 39.782C12.0469 41.0731 14.5997 41.8051 17.3401 41.989L16.2476 35.3789Z" fill="#4B4B4B"/>
<path d="M15.0692 41.4863C15.0088 41.4861 14.9498 41.4678 14.9 41.4337C14.8502 41.3996 14.8117 41.3513 14.7896 41.2951L14.3004 40.0076C14.2749 39.941 14.2738 39.8675 14.2974 39.8001C14.3209 39.7328 14.3676 39.676 14.4291 39.6398L14.9331 39.3455L13.9509 38.9777C13.8765 38.9496 13.8162 38.8932 13.7832 38.8209C13.7501 38.7486 13.7469 38.6661 13.7744 38.5914L14.6425 36.2262C14.672 36.1542 14.7283 36.0963 14.7995 36.0648C14.8708 36.0333 14.9514 36.0306 15.0246 36.0572C15.0978 36.0838 15.1579 36.1377 15.1922 36.2076C15.2266 36.2775 15.2326 36.358 15.209 36.4322L14.4402 38.5252L15.7386 39.0071C15.7889 39.0284 15.8324 39.063 15.8646 39.1071C15.8967 39.1512 15.9163 39.2033 15.9212 39.2576C15.9261 39.312 15.9161 39.3667 15.8924 39.4158C15.8687 39.465 15.8321 39.5068 15.7865 39.5368L14.9551 40.0223L15.3524 41.078C15.3704 41.1237 15.3769 41.173 15.3715 41.2218C15.366 41.2705 15.3488 41.3172 15.3213 41.3578C15.2937 41.3983 15.2567 41.4316 15.2134 41.4546C15.1701 41.4777 15.1219 41.4898 15.0728 41.49L15.0692 41.4863Z" fill="#3D3D3D"/>
<path d="M21.0886 35.3789C23.1933 35.9214 25.0587 37.1465 26.3928 38.8624C26.4954 38.9923 26.5511 39.153 26.551 39.3185C26.5528 39.4865 26.4969 39.6501 26.3928 39.782C25.2893 41.0731 22.7365 41.8051 19.9961 41.989L21.0886 35.3789Z" fill="#4B4B4B"/>
<path d="M22.2575 41.4863C22.3179 41.4861 22.3768 41.4678 22.4267 41.4337C22.4765 41.3996 22.515 41.3513 22.5371 41.2951L23.0263 40.0076C23.0518 39.941 23.0529 39.8675 23.0293 39.8001C23.0057 39.7328 22.9591 39.676 22.8976 39.6398L22.3936 39.3455L23.3758 38.9777C23.4502 38.9496 23.5105 38.8932 23.5435 38.8209C23.5766 38.7486 23.5798 38.6661 23.5523 38.5914L22.6842 36.2262C22.6547 36.1542 22.5984 36.0963 22.5271 36.0648C22.4559 36.0333 22.3753 36.0306 22.3021 36.0572C22.2289 36.0838 22.1688 36.1377 22.1345 36.2076C22.1001 36.2775 22.0941 36.358 22.1177 36.4322L22.8865 38.5252L21.5881 39.0071C21.5378 39.0284 21.4943 39.063 21.4621 39.1071C21.43 39.1512 21.4104 39.2033 21.4055 39.2576C21.4006 39.312 21.4105 39.3667 21.4343 39.4158C21.458 39.465 21.4946 39.5068 21.5402 39.5368L22.3716 40.0223L21.9743 41.078C21.9563 41.1237 21.9498 41.173 21.9552 41.2218C21.9606 41.2705 21.9779 41.3172 22.0054 41.3578C22.0329 41.3983 22.07 41.4316 22.1133 41.4546C22.1565 41.4777 22.2048 41.4898 22.2538 41.49L22.2575 41.4863Z" fill="#3D3D3D"/>
<path d="M18.668 36.405L21.0405 38.4429L21.0994 35.3714L20.1761 35.1875C20.4373 36.0482 18.668 36.405 18.668 36.405Z" fill="#F3F3F3"/>
<path d="M18.665 36.4214L16.127 38.4592L16.2447 35.3877L17.1348 35.2148C16.8626 36.0756 18.665 36.4214 18.665 36.4214Z" fill="#F3F3F3"/>
<path d="M20.1702 35.2011V30.9378C20.1692 30.5381 20.01 30.1551 19.7274 29.8725C19.4448 29.5899 19.0617 29.4307 18.6621 29.4297C18.2624 29.4307 17.8793 29.5899 17.5967 29.8725C17.3141 30.1551 17.1549 30.5381 17.1539 30.9378V35.2158C16.5139 35.9074 18.6694 36.4186 18.6694 36.4186C18.6694 36.4186 20.8507 35.8816 20.1702 35.2011Z" fill="#FD9E77"/>
<path d="M26.7844 27.2464C27.6605 26.3703 27.8538 25.1431 27.2161 24.5053C26.5784 23.8676 25.3512 24.0609 24.4751 24.9371C23.5989 25.8132 23.4056 27.0404 24.0434 27.6781C24.6811 28.3158 25.9083 28.1225 26.7844 27.2464Z" fill="#FD9E77"/>
<path d="M13.2786 27.6861C13.9163 27.0483 13.7231 25.8211 12.8469 24.945C11.9708 24.0689 10.7436 23.8756 10.1059 24.5133C9.46814 25.151 9.66142 26.3782 10.5376 27.2544C11.4137 28.1305 12.6409 28.3238 13.2786 27.6861Z" fill="#FD9E77"/>
<path d="M22.6729 20.4241C18.2588 20.4241 15.6177 18.4488 14.7533 17.5843C14.7533 17.5843 14.7533 17.5843 14.7533 17.5586C14.1719 18.0967 13.7084 18.7494 13.3918 19.4755C13.0753 20.2017 12.9126 20.9856 12.9141 21.7777V26.3868C12.9141 29.5612 15.489 31.5365 18.6634 31.5365C21.8379 31.5365 24.4128 29.5649 24.4128 26.3868V21.7777C24.4153 21.2264 24.3385 20.6776 24.1847 20.1482C23.7001 20.3256 23.1888 20.4189 22.6729 20.4241Z" fill="#FFB391"/>
<path d="M16.2303 25.1825C16.5106 25.1825 16.7379 24.7691 16.7379 24.2592C16.7379 23.7493 16.5106 23.3359 16.2303 23.3359C15.9499 23.3359 15.7227 23.7493 15.7227 24.2592C15.7227 24.7691 15.9499 25.1825 16.2303 25.1825Z" fill="#5A2F2F"/>
<path d="M21.0799 25.1825C21.3602 25.1825 21.5875 24.7691 21.5875 24.2592C21.5875 23.7493 21.3602 23.3359 21.0799 23.3359C20.7995 23.3359 20.5723 23.7493 20.5723 24.2592C20.5723 24.7691 20.7995 25.1825 21.0799 25.1825Z" fill="#5A2F2F"/>
<path d="M16.6157 22.3502C16.8842 22.3852 17.1543 22.4061 17.425 22.4128C17.505 22.4128 17.5817 22.381 17.6383 22.3244C17.6948 22.2679 17.7266 22.1911 17.7266 22.1111C17.7266 22.0312 17.6948 21.9544 17.6383 21.8979C17.5817 21.8413 17.505 21.8095 17.425 21.8095C17.1789 21.8025 16.9334 21.7828 16.6893 21.7507C15.9757 21.6734 15.24 21.5925 14.8501 21.9971C14.8221 22.0251 14.7998 22.0584 14.7847 22.095C14.7695 22.1316 14.7617 22.1708 14.7617 22.2105C14.7617 22.2501 14.7695 22.2893 14.7847 22.3259C14.7998 22.3625 14.8221 22.3958 14.8501 22.4238C14.8781 22.4518 14.9114 22.4741 14.948 22.4892C14.9846 22.5044 15.0238 22.5122 15.0634 22.5122C15.1031 22.5122 15.1423 22.5044 15.1789 22.4892C15.2155 22.4741 15.2488 22.4518 15.2768 22.4238C15.457 22.2362 16.0934 22.2951 16.6157 22.3502Z" fill="#5A2F2F"/>
<path d="M20.6311 21.7507C20.387 21.7828 20.1414 21.8025 19.8954 21.8095C19.8154 21.8095 19.7387 21.8413 19.6821 21.8979C19.6255 21.9544 19.5938 22.0312 19.5938 22.1111C19.5938 22.1911 19.6255 22.2679 19.6821 22.3244C19.7387 22.381 19.8154 22.4128 19.8954 22.4128C20.166 22.4061 20.4362 22.3852 20.7046 22.3502C21.2196 22.2951 21.8633 22.2215 22.0656 22.4238C22.1222 22.4804 22.199 22.5122 22.279 22.5122C22.359 22.5122 22.4357 22.4804 22.4923 22.4238C22.5489 22.3672 22.5807 22.2905 22.5807 22.2105C22.5807 22.1304 22.5489 22.0537 22.4923 21.9971C22.0767 21.5925 21.341 21.6734 20.6311 21.7507Z" fill="#5A2F2F"/>
<path d="M19.9289 27.2183C19.9289 27.2183 19.5868 27.5456 18.6562 27.5456C18.1482 27.5724 17.644 27.4441 17.2106 27.1778C17.1476 27.1413 17.0735 27.1289 17.0021 27.1427C16.9306 27.1566 16.8666 27.1958 16.8218 27.2531C16.7769 27.3105 16.7544 27.3821 16.7582 27.4548C16.7621 27.5275 16.7921 27.5963 16.8427 27.6486C17.3863 28.0077 18.0317 28.1807 18.6819 28.1415C19.8848 28.1415 20.3519 27.6707 20.3997 27.6155C20.4265 27.5863 20.4473 27.5521 20.4609 27.5148C20.4745 27.4776 20.4806 27.438 20.4789 27.3984C20.4772 27.3587 20.4677 27.3198 20.451 27.2839C20.4342 27.2479 20.4106 27.2156 20.3813 27.1888C20.3521 27.162 20.3179 27.1412 20.2806 27.1276C20.2434 27.1141 20.2038 27.1079 20.1642 27.1097C20.1246 27.1114 20.0857 27.1209 20.0497 27.1376C20.0138 27.1543 19.9815 27.178 19.9547 27.2072L19.9289 27.2183Z" fill="#5A2F2F"/>
<path d="M12.4943 26.0232C12.3354 25.7923 12.128 25.599 11.8866 25.4566C11.6451 25.3143 11.3755 25.2264 11.0966 25.1992C11.0166 25.1992 10.9398 25.231 10.8833 25.2876C10.8267 25.3441 10.7949 25.4209 10.7949 25.5008C10.7949 25.5808 10.8267 25.6576 10.8833 25.7141C10.9398 25.7707 11.0166 25.8025 11.0966 25.8025C11.6777 25.8025 12.2405 26.6485 12.4392 27.0163C12.5753 27.3143 12.8364 26.4425 12.4943 26.0232Z" fill="#E27A4C"/>
<path d="M25.0486 27.0193C25.2472 26.6294 25.7842 25.7908 26.3949 25.7908C26.4748 25.7908 26.5516 25.759 26.6081 25.7024C26.6647 25.6458 26.6965 25.5691 26.6965 25.4891C26.6965 25.4091 26.6647 25.3324 26.6081 25.2758C26.5516 25.2193 26.4748 25.1875 26.3949 25.1875C26.1159 25.2147 25.8463 25.3026 25.6048 25.4449C25.3634 25.5872 25.156 25.7806 24.9971 26.0115C24.7249 26.4529 24.8168 27.4203 25.0486 27.0193Z" fill="#E27A4C"/>
<path d="M30.5814 26.8288V20.5461C30.5814 18.6002 33.2593 14.1016 38.0853 14.1016C42.9114 14.1016 45.5893 18.3906 45.5893 20.7227V26.8288C45.5893 30.5955 43.8641 35.0795 38.0596 35.0795C33.6161 35.0795 29.625 33.06 29.625 31.8057C31.1773 30.2718 30.5814 28.1494 30.5814 26.8288Z" fill="#8B7159"/>
<path d="M38.0595 35.0781C36.5703 35.0775 35.1006 35.4164 33.7621 36.0691C32.4235 36.7218 31.2514 37.6711 30.3349 38.8448C30.2257 38.9767 30.166 39.1426 30.166 39.3138C30.166 39.485 30.2257 39.6509 30.3349 39.7828C32.9098 42.7991 43.3932 42.7844 45.7842 39.7828C45.8877 39.6526 45.9441 39.4912 45.9441 39.3248C45.9441 39.1585 45.8877 38.9971 45.7842 38.8669C44.8699 37.6891 43.6987 36.7356 42.3601 36.079C41.0214 35.4224 39.5505 35.0801 38.0595 35.0781Z" fill="#715860"/>
<path d="M39.5606 35.2006V30.93C39.5606 30.53 39.4017 30.1464 39.1189 29.8636C38.836 29.5808 38.4524 29.4219 38.0525 29.4219C37.6525 29.4219 37.2689 29.5808 36.986 29.8636C36.7032 30.1464 36.5443 30.53 36.5443 30.93V35.2006C35.8169 35.3087 35.1046 35.5013 34.4219 35.7745C34.4219 35.8628 34.8559 39.2726 34.9552 40.0672H41.1754C41.2747 39.2726 41.7198 35.8628 41.7088 35.7745C41.0178 35.4995 40.2967 35.3068 39.5606 35.2006Z" fill="#FD9E77"/>
<path d="M45.8115 38.8635C44.7402 37.4898 43.3236 36.4248 41.7064 35.7773L40.9707 41.843C43.1262 41.5304 44.9802 40.8425 45.8225 39.7831C45.9254 39.6514 45.9804 39.4885 45.9784 39.3214C45.9764 39.1542 45.9175 38.9927 45.8115 38.8635Z" fill="#CCCCCC"/>
<path d="M43.6059 39.1247C43.3889 37.7122 42.8703 36.4689 41.7005 35.7773L40.9648 41.843C43.1204 41.5304 42.7857 40.4857 42.4068 39.9744C42.793 39.636 43.6611 39.4631 43.6059 39.1247Z" fill="#999999"/>
<path d="M30.3368 38.8635C31.406 37.4908 32.8199 36.426 34.4345 35.7773L35.1702 41.843C33.0147 41.5304 31.1608 40.8425 30.3184 39.7831C30.2165 39.6506 30.1628 39.4872 30.1662 39.3201C30.1695 39.1529 30.2297 38.9919 30.3368 38.8635Z" fill="#CCCCCC"/>
<path d="M32.5315 39.1247C32.7485 37.7122 33.2672 36.4689 34.4369 35.7773L35.1726 41.843C33.017 41.5304 33.3518 40.4857 33.7306 39.9744C33.3481 39.636 32.48 39.4631 32.5315 39.1247Z" fill="#999999"/>
<path d="M46.2082 27.2464C47.0844 26.3703 47.2777 25.1431 46.6399 24.5053C46.0022 23.8676 44.775 24.0609 43.8989 24.9371C43.0227 25.8132 42.8295 27.0404 43.4672 27.6781C44.1049 28.3158 45.3321 28.1225 46.2082 27.2464Z" fill="#FD9E77"/>
<path d="M32.6985 27.6782C33.3363 27.0405 33.143 25.8133 32.2668 24.9372C31.3907 24.061 30.1635 23.8678 29.5258 24.5055C28.8881 25.1432 29.0813 26.3704 29.9575 27.2465C30.8336 28.1227 32.0608 28.316 32.6985 27.6782Z" fill="#FD9E77"/>
<path d="M36.1647 17.5078C35.7969 19.2036 32.3281 20.2813 32.3281 24.997V25.7842C32.3281 27.309 32.9339 28.7714 34.0121 29.8496C35.0903 30.9278 36.5526 31.5336 38.0775 31.5336C39.6023 31.5336 41.0647 30.9278 42.1429 29.8496C43.2211 28.7714 43.8268 27.309 43.8268 25.7842V23.7133C43.0801 18.3097 37.213 20.2372 36.1647 17.5078Z" fill="#FFB391"/>
<path d="M35.658 25.2059C35.9384 25.2059 36.1656 24.7926 36.1656 24.2827C36.1656 23.7727 35.9384 23.3594 35.658 23.3594C35.3777 23.3594 35.1504 23.7727 35.1504 24.2827C35.1504 24.7926 35.3777 25.2059 35.658 25.2059Z" fill="#5A2F2F"/>
<path d="M40.5018 25.2059C40.7821 25.2059 41.0094 24.7926 41.0094 24.2827C41.0094 23.7727 40.7821 23.3594 40.5018 23.3594C40.2214 23.3594 39.9941 23.7727 39.9941 24.2827C39.9941 24.7926 40.2214 25.2059 40.5018 25.2059Z" fill="#5A2F2F"/>
<path d="M34.4639 22.5207C34.4042 22.5207 34.3458 22.503 34.2962 22.4699C34.2466 22.4367 34.2079 22.3896 34.1851 22.3345C34.1622 22.2794 34.1563 22.2187 34.1679 22.1602C34.1796 22.1016 34.2083 22.0479 34.2505 22.0057C34.7949 21.4613 36.0897 21.2148 36.8475 21.2148C36.9275 21.2148 37.0042 21.2466 37.0608 21.3032C37.1173 21.3598 37.1491 21.4365 37.1491 21.5165C37.1491 21.5965 37.1173 21.6732 37.0608 21.7298C37.0042 21.7863 36.9275 21.8181 36.8475 21.8181C36.1118 21.8181 35.0267 22.0829 34.6772 22.4324C34.6492 22.4604 34.6159 22.4826 34.5793 22.4978C34.5427 22.5129 34.5035 22.5207 34.4639 22.5207Z" fill="#5A2F2F"/>
<path d="M41.693 22.5207C41.6534 22.5207 41.6142 22.5129 41.5776 22.4978C41.541 22.4826 41.5077 22.4604 41.4797 22.4324C41.1119 22.0646 40.0414 21.8181 39.3094 21.8181C39.2294 21.8181 39.1527 21.7863 39.0962 21.7298C39.0396 21.6732 39.0078 21.5965 39.0078 21.5165C39.0078 21.4365 39.0396 21.3598 39.0962 21.3032C39.1527 21.2466 39.2294 21.2148 39.3094 21.2148C40.0451 21.2148 41.362 21.4613 41.9064 22.0057C41.9486 22.0479 41.9773 22.1016 41.989 22.1602C42.0006 22.2187 41.9947 22.2794 41.9718 22.3345C41.949 22.3896 41.9103 22.4367 41.8607 22.4699C41.8111 22.503 41.7527 22.5207 41.693 22.5207Z" fill="#5A2F2F"/>
<path d="M38.066 28.7008C37.8013 28.6848 37.5434 28.6105 37.3107 28.4833C37.078 28.3562 36.8762 28.1792 36.7197 27.9651C36.6734 27.8997 36.6549 27.8187 36.6684 27.7397C36.6818 27.6607 36.7261 27.5903 36.7914 27.5439C36.8568 27.4976 36.9379 27.4791 37.0169 27.4926C37.0959 27.506 37.1663 27.5503 37.2126 27.6157C37.3129 27.7519 37.4407 27.8655 37.5877 27.9492C37.7347 28.0328 37.8977 28.0846 38.066 28.1012C38.2343 28.0846 38.3973 28.0328 38.5443 27.9492C38.6914 27.8655 38.8191 27.7519 38.9194 27.6157C38.9657 27.5503 39.0361 27.506 39.1151 27.4926C39.1941 27.4791 39.2752 27.4976 39.3406 27.5439C39.4059 27.5903 39.4502 27.6607 39.4637 27.7397C39.4771 27.8187 39.4586 27.8997 39.4123 27.9651C39.256 28.1794 39.0543 28.3565 38.8215 28.4837C38.5888 28.6109 38.3308 28.685 38.066 28.7008Z" fill="#5A2F2F"/>
<path d="M31.8088 26.0271C31.6499 25.7962 31.4425 25.6029 31.201 25.4605C30.9596 25.3182 30.6899 25.2304 30.411 25.2031C30.331 25.2031 30.2543 25.2349 30.1977 25.2915C30.1412 25.348 30.1094 25.4248 30.1094 25.5048C30.1094 25.5848 30.1412 25.6615 30.1977 25.718C30.2543 25.7746 30.331 25.8064 30.411 25.8064C31.0032 25.8064 31.5587 26.6451 31.7573 27.035C31.8897 27.3182 32.1509 26.4464 31.8088 26.0271Z" fill="#E27A4C"/>
<path d="M44.3669 27.0232C44.5655 26.6333 45.1026 25.7947 45.7132 25.7947C45.7932 25.7947 45.8699 25.7629 45.9265 25.7063C45.9831 25.6498 46.0148 25.573 46.0148 25.493C46.0148 25.413 45.9831 25.3363 45.9265 25.2798C45.8699 25.2232 45.7932 25.1914 45.7132 25.1914C45.4343 25.2186 45.1646 25.3065 44.9232 25.4488C44.6818 25.5911 44.4743 25.7845 44.3154 26.0154C44.0432 26.4568 44.1352 27.4242 44.3669 27.0232Z" fill="#E27A4C"/>
</svg>
