<svg width="221" height="220" viewBox="0 0 221 220" fill="none" xmlns="http://www.w3.org/2000/svg">
<path d="M207.593 202.203H14.4258V74.0658L111.009 6.875L207.593 74.0658V202.203Z" fill="white" stroke="#ECDBCA" stroke-width="2.8314"/>
<mask id="mask0_1210_95785" style="mask-type:alpha" maskUnits="userSpaceOnUse" x="4" y="6" width="213" height="197">
<rect x="4.92969" y="6.80469" width="211.351" height="195.284" fill="#D9D9D9"/>
</mask>
<g mask="url(#mask0_1210_95785)">
<g clip-path="url(#clip0_1210_95785)">
<path d="M145.529 134.787C145.486 134.787 145.441 134.781 145.397 134.77C142.504 134.004 139.815 131.962 137.824 129.022C135.93 126.222 134.889 123.045 134.122 120.305C131.699 111.662 130.828 102.743 131.534 93.7944C131.556 93.5104 131.806 93.3001 132.088 93.3219C132.372 93.3448 132.583 93.5926 132.56 93.8754C131.863 102.702 132.722 111.501 135.113 120.027C135.859 122.687 136.866 125.768 138.677 128.444C140.528 131.179 143.008 133.072 145.661 133.774C145.936 133.846 146.1 134.128 146.027 134.404C145.965 134.634 145.758 134.787 145.529 134.787Z" fill="#5C3E34"/>
<path d="M131.391 100.488C132.258 107.127 133.152 113.857 135.737 120.033C138.322 126.209 142.852 131.869 149.082 134.322C155.593 132.034 161.65 128.714 167.192 124.602C163.091 120.428 158.849 116.394 154.475 112.507C151.197 109.594 147.823 106.748 144.037 104.535C140.251 102.322 135.772 100.657 131.391 100.489V100.488Z" fill="#5C3E34"/>
<path d="M192.566 126.374C193.907 123.728 194.404 120.702 192.742 118.1C191.148 115.603 188.539 114.003 185.949 112.639C183.36 111.276 180.644 110.025 178.552 107.951C174.81 104.243 172.428 98.6736 172.803 93.3531C173.232 87.2713 170.326 81.054 165.434 77.5864C160.541 74.1188 153.903 73.3731 148.504 75.9318C142.22 75.1993 135.654 78.4071 132.25 83.8701C128.847 89.3344 128.771 96.7893 132.062 102.325C139.496 96.7664 149.814 95.4731 158.369 98.9467C158.908 103.642 157.62 108.733 154.982 112.612C153.108 115.37 150.484 117.741 149.621 120.984C148.49 125.236 150.88 129.848 154.396 132.384C157.911 134.921 162.317 135.763 166.598 136.163C174.358 136.89 184.587 136.196 190.184 129.851C191.076 128.84 191.919 127.652 192.565 126.376L192.566 126.374Z" fill="#5C3E34"/>
<path d="M155.294 126.675C157.409 125.477 159.285 123.757 160.786 121.691C160.565 119.646 160.505 117.585 160.647 115.539C155.439 116.889 149.099 118.088 143.891 119.438C144.485 122.432 144.953 125.458 145.299 128.502C148.691 129.044 152.23 128.414 155.294 126.677V126.675Z" fill="#F1B695"/>
<path d="M155.296 126.676C152.232 128.413 148.693 129.044 145.301 128.501C145.524 130.471 145.697 132.447 145.816 134.429C146.037 138.128 148.034 141.268 149.692 144.466C154.248 140.388 158.724 136.24 163.281 132.162C162.071 128.826 161.179 125.282 160.79 121.691C159.288 123.757 157.413 125.478 155.297 126.676H155.296Z" fill="#FFE3D7"/>
<path d="M165.61 97.6717C166.73 106.307 163.712 117.943 155.222 122.346C151.561 124.245 147.663 124.523 143.788 122.899C140.392 121.476 135.284 116.95 134.217 112.364C132.597 105.406 130.768 97.1109 134.726 90.635C138.824 83.9307 146.759 80.3096 154.421 83.0931C159.781 85.0402 164.015 89.8699 165.241 95.3814C165.409 96.1343 165.511 96.9055 165.61 97.6705V97.6717Z" fill="#FFE3D7"/>
<g filter="url(#filter0_f_1210_95785)">
<path d="M136.791 105.252C135.962 105.252 135.218 105.668 134.703 106.329C134.952 107.931 135.262 109.504 135.563 111.003C135.635 111.195 135.71 111.388 135.787 111.58C136.099 111.718 136.437 111.797 136.792 111.797C138.35 111.797 139.613 110.332 139.613 108.523C139.613 106.715 138.35 105.25 136.792 105.25L136.791 105.252Z" fill="#F8A68C" fill-opacity="0.4"/>
</g>
<g filter="url(#filter1_f_1210_95785)">
<path d="M156.795 110.16C158.151 110.16 159.25 109.061 159.25 107.705C159.25 106.349 158.151 105.25 156.795 105.25C155.439 105.25 154.34 106.349 154.34 107.705C154.34 109.061 155.439 110.16 156.795 110.16Z" fill="#F8A68C" fill-opacity="0.4"/>
</g>
<path d="M131.886 102.091C134.929 95.7739 139.719 90.3882 145.527 86.7538C149.854 94.2305 157.727 99.1484 166.002 100.393C167.315 93.8389 164.488 86.6184 159.05 83.0747C153.613 79.531 146.248 79.6953 140.803 83.2258C135.357 86.7562 131.6 92.8417 131.539 99.5388C131.534 100.022 131.929 101.609 131.887 102.091H131.886Z" fill="#5C3E34"/>
<path d="M164.603 103.371C164.34 102.009 165.059 100.514 166.288 99.871C167.517 99.228 169.155 99.4879 170.124 100.481C170.825 101.201 171.159 102.211 171.263 103.209C171.47 105.2 170.815 107.264 169.497 108.77C168.18 110.276 165.904 111.636 163.904 111.695C163.86 109.285 165.061 105.738 164.603 103.371Z" fill="#FFE3D7"/>
<path d="M189.917 127.064C189.709 127.064 189.513 126.937 189.436 126.732C189.335 126.466 189.469 126.168 189.735 126.067C192.009 125.201 193.833 123.11 194.383 120.739C194.933 118.369 194.214 115.688 192.552 113.91C190.86 112.099 188.49 111.271 185.981 110.393C184.964 110.038 183.913 109.67 182.918 109.233C179.321 107.651 176.142 104.832 173.968 101.297C171.794 97.7616 170.713 93.6522 170.925 89.729C170.94 89.445 171.186 89.2262 171.466 89.2431C171.75 89.2588 171.968 89.5005 171.952 89.7846C171.54 97.4268 176.325 105.209 183.331 108.29C184.29 108.712 185.322 109.072 186.319 109.421C188.835 110.301 191.438 111.211 193.304 113.208C195.222 115.26 196.02 118.236 195.385 120.974C194.751 123.711 192.726 126.032 190.1 127.031C190.039 127.054 189.978 127.065 189.917 127.065V127.064Z" fill="#5C3E34"/>
<path d="M159.807 99.6479C156.637 99.6479 153.467 98.6544 150.904 96.7629C147.079 93.9407 144.763 89.2342 144.862 84.4806C144.868 84.1966 145.099 83.9718 145.388 83.9766C145.672 83.9827 145.898 84.2184 145.892 84.5024C145.799 88.9272 147.954 93.3074 151.515 95.935C153.899 97.6947 156.851 98.6193 159.802 98.6193C161.258 98.6193 162.71 98.3945 164.098 97.934C164.368 97.8446 164.659 97.9909 164.749 98.2604C164.839 98.5299 164.693 98.8212 164.423 98.9118C162.933 99.4062 161.371 99.6479 159.809 99.6479H159.807Z" fill="#5C3E34"/>
<path d="M181.395 202.885L183.841 151.306C184 147.962 183.2 144.641 181.533 141.736C179.456 138.118 176.16 135.355 172.232 133.945L166.648 131.941C164.745 134.973 162.36 137.698 159.375 139.643C155.449 142.2 150.378 143.256 145.964 141.684C142.144 140.326 139.07 136.772 138.568 132.815L137.13 133.306C132.824 134.773 128.698 136.719 124.826 139.106C119.522 142.376 116.579 148.41 117.267 154.603L125.988 233.029L187.139 231.549L181.393 202.885H181.395Z" fill="#F5C590"/>
<path d="M145.963 141.686C150.377 143.257 155.448 142.201 159.374 139.645C162.36 137.7 164.744 134.975 166.648 131.943L162.495 130.453L145.326 130.514L138.566 132.817C139.068 136.774 142.144 140.327 145.963 141.686Z" fill="#FFE3D7"/>
<path d="M115.227 169.801L126.41 172.068V217.819L116.835 227.626L115.227 169.801Z" fill="#FFE3D7"/>
<path d="M145.795 239.447C137.283 238.991 128.977 241.856 120.576 243.342C112.175 244.829 102.756 244.675 96.1205 239.125C95.1234 234.281 97.1986 229.324 100.876 226.166C104.554 223.008 109.174 221.336 113.672 219.679C118.171 218.024 122.774 216.249 126.331 212.946C129.276 210.211 131.31 206.603 133.707 203.342C136.105 200.08 139.119 196.996 142.969 196.061C149.799 194.403 156.814 198.76 162.749 202.64C168.685 206.52 173.787 211.619 178.596 216.919C181.858 220.515 185.241 225.268 183.706 229.943C181.363 237.079 172.509 240.031 165.777 242.862C159.045 245.694 151.317 244.347 145.797 239.447H145.795Z" fill="#FED3A3"/>
<path d="M151.402 198.902L175.976 229.583C177.75 231.797 178.739 234.743 178.739 237.809C178.739 243.195 175.711 247.91 171.358 249.299L165.131 251.286L151.402 198.902Z" fill="#E7C3BD"/>
<path d="M188.113 275.385L153.578 202.089C152.249 199.268 149.883 197.067 146.973 195.945L145.345 195.317C140.383 193.403 134.754 194.947 131.461 199.124C129.657 201.413 128.738 204.277 128.872 207.189L128.963 209.142C129.066 211.356 129.773 213.499 131.009 215.339L173.982 279.328L188.113 275.385Z" fill="#FFE3D7"/>
<path d="M184.115 152.066C182.265 153.387 180.239 154.49 178.249 155.581C176.437 156.576 174.688 157.633 172.943 158.737C171.182 159.85 169.274 160.857 167.759 162.307C167.603 162.457 167.44 162.572 167.273 162.66L172.915 202.075L169.551 254.351L177.839 256.226L186.302 207.623C186.861 204.418 187.044 201.157 186.85 197.909L184.112 152.068L184.115 152.066Z" fill="#FFE3D7"/>
<path d="M165.394 173.038C173.701 173.161 182.022 170.382 188.59 165.295C187.526 157.374 184.864 149.395 181.805 142.012C175.852 146.435 169.091 150.95 163.138 155.373C163.288 155.193 163.437 155.012 163.587 154.832C162.82 155.306 162.054 155.781 161.289 156.254C161.453 162.126 163.385 167.518 165.394 173.038Z" fill="#F5C590"/>
<path d="M120.964 142.435C114.966 150.918 111.955 161.472 112.576 171.843C119.09 172.683 125.063 173.751 131.576 174.59C130.418 163.523 126.239 152.232 120.964 142.434V142.435Z" fill="#FED3A3"/>
<path d="M126.271 154.617C121.017 162.892 121.707 173.53 128.003 181.29C130.284 177.175 132.624 173.122 134.906 169.007C131.867 164.487 128.465 159.461 126.271 154.617Z" fill="#FED3A3"/>
<path d="M158.779 150.028C158.729 150.028 158.678 150.014 158.633 149.985C157.017 148.926 155.454 147.789 153.942 146.69C152.477 145.625 150.965 144.524 149.406 143.497C147.742 144.38 146.156 145.229 144.621 146.051C143.043 146.896 141.411 147.768 139.695 148.68C139.631 148.713 139.555 148.721 139.486 148.698C139.417 148.675 139.359 148.625 139.327 148.559C137.151 144.008 135.983 138.936 135.949 133.891C135.949 133.743 136.068 133.622 136.215 133.621C136.215 133.621 136.215 133.621 136.216 133.621C136.364 133.621 136.483 133.74 136.485 133.887C136.517 138.76 137.624 143.66 139.69 148.075C141.316 147.212 142.866 146.382 144.367 145.579C145.946 144.735 147.578 143.862 149.294 142.951C149.38 142.905 149.485 142.91 149.566 142.963C151.182 144.021 152.745 145.159 154.255 146.257C155.705 147.311 157.201 148.399 158.741 149.417C163.205 144.876 166.663 139.537 168.747 133.968C168.799 133.829 168.952 133.759 169.091 133.811C169.23 133.863 169.301 134.018 169.249 134.155C167.114 139.86 163.558 145.322 158.967 149.95C158.915 150.002 158.846 150.03 158.777 150.03L158.779 150.028Z" fill="#E17C4E" fill-opacity="0.2"/>
<path d="M123.575 173.706C123.453 173.706 123.342 173.621 123.314 173.496C121.82 166.901 121.835 161.603 126.175 152.519C126.239 152.386 126.398 152.329 126.533 152.394C126.666 152.458 126.722 152.617 126.658 152.751C122.385 161.694 122.369 166.901 123.836 173.379C123.869 173.523 123.778 173.667 123.634 173.7C123.615 173.704 123.594 173.707 123.575 173.707V173.706Z" fill="#E17C4E" fill-opacity="0.2"/>
<path d="M168.081 173.139H168.072C167.924 173.139 167.803 173.02 167.805 172.871C167.805 172.724 167.924 172.604 168.073 172.604C168.077 172.604 168.08 172.604 168.083 172.604C171.991 172.604 179.137 170.456 184.711 167.604C184.843 167.536 185.004 167.588 185.071 167.72C185.139 167.852 185.087 168.014 184.955 168.08C179.316 170.965 172.065 173.139 168.083 173.139H168.081Z" fill="#E17C4E" fill-opacity="0.2"/>
<path d="M124.696 156.881C124.571 156.881 124.457 156.792 124.433 156.662C123.341 150.839 123.237 146.072 124.071 140.207C124.092 140.06 124.227 139.958 124.375 139.979C124.521 140 124.623 140.135 124.602 140.283C123.775 146.086 123.879 150.803 124.959 156.564C124.986 156.71 124.89 156.85 124.745 156.878C124.728 156.881 124.711 156.882 124.695 156.882L124.696 156.881Z" fill="#E17C4E" fill-opacity="0.2"/>
<path d="M168.012 172.8C167.898 172.8 167.791 172.725 167.756 172.609C167.362 171.294 166.862 169.976 166.331 168.578C165.052 165.21 163.731 161.725 163.995 158.298C164.322 154.055 165.747 149.843 168.115 146.116C170.484 142.388 173.692 139.309 177.393 137.211C177.521 137.138 177.685 137.183 177.758 137.311C177.83 137.439 177.785 137.603 177.656 137.676C170.216 141.894 165.185 149.811 164.528 158.338C164.273 161.646 165.573 165.073 166.83 168.386C167.34 169.73 167.867 171.119 168.267 172.452C168.31 172.594 168.23 172.743 168.087 172.786C168.062 172.793 168.035 172.797 168.01 172.797L168.012 172.8Z" fill="#E17C4E" fill-opacity="0.2"/>
<path d="M148.595 151.04C148.067 151.868 147.247 152.289 146.761 151.979C146.275 151.67 146.31 150.748 146.838 149.92C147.366 149.092 148.187 148.671 148.673 148.981C149.159 149.29 149.124 150.212 148.595 151.04Z" fill="#E17C4E" fill-opacity="0.2"/>
<path d="M133.527 183.18C142.054 192.219 154.398 197.535 166.824 197.518C155.953 193.123 143.9 188.649 133.527 183.18Z" fill="#FBB988"/>
<path d="M166.199 168.236C166.125 168.236 166.051 168.206 165.998 168.145C162.984 164.739 161.318 160.179 161.427 155.632C161.431 155.485 161.555 155.366 161.701 155.371C161.849 155.375 161.966 155.498 161.962 155.646C161.856 160.058 163.473 164.486 166.399 167.79C166.497 167.901 166.487 168.07 166.376 168.168C166.326 168.213 166.261 168.236 166.199 168.236Z" fill="#E17C4E" fill-opacity="0.2"/>
<path d="M167.676 111.868C168.166 111.868 168.563 111.471 168.563 110.981C168.563 110.491 168.166 110.094 167.676 110.094C167.186 110.094 166.789 110.491 166.789 110.981C166.789 111.471 167.186 111.868 167.676 111.868Z" fill="white"/>
<mask id="mask1_1210_95785" style="mask-type:luminance" maskUnits="userSpaceOnUse" x="24" y="127" width="92" height="116">
<path d="M65.8393 127.723L45.3467 130.351C44.1924 130.5 43.0539 130.75 41.9444 131.101L38.4611 132.201C32.3091 134.143 27.5095 138.992 25.6301 145.163C24.7707 147.987 24.5604 150.967 25.0149 153.884L38.8249 242.411H109.961L115.574 152.09C115.837 147.848 114.713 143.636 112.371 140.089L111.266 138.417C108.174 133.734 103.223 130.605 97.6665 129.821L85.5063 128.106L65.8381 127.723H65.8393Z" fill="white"/>
</mask>
<g mask="url(#mask1_1210_95785)">
<path d="M65.8432 127.719L45.3506 130.348C44.1964 130.496 43.0578 130.746 41.9483 131.097L38.465 132.197C32.313 134.139 27.5134 138.988 25.634 145.159C24.7747 147.983 24.5643 150.963 25.0188 153.88L38.8288 242.407H109.965L115.578 152.086C115.841 147.844 114.717 143.632 112.375 140.086L111.27 138.413C108.178 133.731 103.227 130.601 97.6704 129.817L85.5102 128.102L65.842 127.719H65.8432Z" fill="#E6ECF7"/>
<g opacity="0.5">
<path d="M23.8213 125.559L23.5 125.57L27.5649 246.198L27.8862 246.187L23.8213 125.559Z" fill="#B2C6EA"/>
<path d="M30.7041 125.317L30.3828 125.328L34.4477 245.956L34.769 245.945L30.7041 125.317Z" fill="#B2C6EA"/>
<path d="M37.5791 125.083L37.2578 125.094L41.3227 245.723L41.644 245.712L37.5791 125.083Z" fill="#B2C6EA"/>
<path d="M44.4541 124.856L44.1328 124.867L48.1977 245.495L48.519 245.484L44.4541 124.856Z" fill="#B2C6EA"/>
<path d="M51.3291 124.634L51.0078 124.645L55.0727 245.272L55.394 245.262L51.3291 124.634Z" fill="#B2C6EA"/>
<path d="M58.2041 124.399L57.8828 124.41L61.9477 245.039L62.269 245.028L58.2041 124.399Z" fill="#B2C6EA"/>
<path d="M65.0791 124.165L64.7578 124.176L68.8227 244.804L69.144 244.793L65.0791 124.165Z" fill="#B2C6EA"/>
<path d="M71.9463 123.938L71.625 123.949L75.6899 244.577L76.0112 244.566L71.9463 123.938Z" fill="#B2C6EA"/>
<path d="M78.833 123.692L78.5117 123.703L82.5766 244.332L82.8979 244.321L78.833 123.692Z" fill="#B2C6EA"/>
<path d="M85.7041 123.474L85.3828 123.484L89.4477 244.112L89.769 244.101L85.7041 123.474Z" fill="#B2C6EA"/>
<path d="M92.5791 123.227L92.2578 123.238L96.3227 243.866L96.644 243.855L92.5791 123.227Z" fill="#B2C6EA"/>
<path d="M99.4619 123.005L99.1406 123.016L103.206 243.645L103.527 243.634L99.4619 123.005Z" fill="#B2C6EA"/>
<path d="M106.333 122.77L106.012 122.781L110.077 243.409L110.398 243.398L106.333 122.77Z" fill="#B2C6EA"/>
<path d="M113.208 122.54L112.887 122.551L116.952 243.18L117.273 243.169L113.208 122.54Z" fill="#B2C6EA"/>
<path d="M132.276 127.072L11.6484 131.137L11.6593 131.458L132.287 127.393L132.276 127.072Z" fill="#B2C6EA"/>
<path d="M132.508 133.943L11.8789 138.008L11.8897 138.329L132.519 134.264L132.508 133.943Z" fill="#B2C6EA"/>
<path d="M132.737 140.818L12.1094 144.883L12.1202 145.204L132.748 141.139L132.737 140.818Z" fill="#B2C6EA"/>
<path d="M132.979 147.684L12.3516 151.77L12.3624 152.091L132.99 148.005L132.979 147.684Z" fill="#B2C6EA"/>
<path d="M133.207 154.576L12.5781 158.641L12.589 158.962L133.218 154.897L133.207 154.576Z" fill="#B2C6EA"/>
<path d="M133.44 161.43L12.8125 165.516L12.8234 165.837L133.451 161.751L133.44 161.43Z" fill="#B2C6EA"/>
<path d="M133.667 168.33L13.0391 172.395L13.0499 172.716L133.678 168.651L133.667 168.33Z" fill="#B2C6EA"/>
<path d="M133.906 175.184L13.2773 179.27L13.2882 179.591L133.917 175.505L133.906 175.184Z" fill="#B2C6EA"/>
<path d="M134.12 182.08L13.4922 186.145L13.503 186.466L134.131 182.401L134.12 182.08Z" fill="#B2C6EA"/>
<path d="M134.369 188.93L13.7422 193.016L13.7531 193.337L134.38 189.251L134.369 188.93Z" fill="#B2C6EA"/>
<path d="M134.585 195.834L13.957 199.898L13.9679 200.22L134.596 196.155L134.585 195.834Z" fill="#B2C6EA"/>
</g>
</g>
<path d="M52.8251 96.683C52.6136 96.683 52.4141 96.5573 52.3295 96.3507C50.2471 91.2707 49.3357 83.6466 52.2534 78.9075C55.1566 74.1926 60.39 70.997 65.9099 70.5679C66.206 70.5461 66.4622 70.7661 66.4852 71.061C66.5081 71.3559 66.2882 71.6134 65.9921 71.6363C60.807 72.04 55.8914 75.0411 53.1647 79.4695C50.4429 83.8896 51.3372 91.1076 53.3194 95.9446C53.4318 96.2189 53.3001 96.5307 53.0269 96.6431C52.9605 96.6709 52.8916 96.683 52.8239 96.683H52.8251Z" fill="#513A41"/>
<path d="M74.0061 125.242C69.4531 123.778 65.7075 120.5 62.9688 116.531C63.2105 120.584 63.5247 126.206 63.7084 128.127C67.1978 131.016 72.9667 133.416 77.0881 135.297C80.1194 133.105 82.9694 130.857 85.4931 128.098C85.429 127.572 85.2682 126.291 85.064 124.664C81.6653 126.18 77.5849 126.391 74.0061 125.241V125.242Z" fill="#FFD4C2"/>
<path d="M62.7539 113.121C62.8119 113.929 62.8869 115.139 62.969 116.533C65.7078 120.503 69.4534 123.78 74.0064 125.244C77.5852 126.394 81.6656 126.183 85.0643 124.668C84.5856 120.858 83.8641 115.142 83.5704 112.732C77.0038 112.41 69.2866 112.378 62.7539 113.123V113.121Z" fill="#FEC7A8"/>
<path d="M76.0526 71.0396C72.6176 69.6642 68.7403 69.4213 65.1603 70.3568C61.5803 71.2922 58.3181 73.4013 55.9939 76.2803C51.3068 82.0891 50.4257 90.3042 52.1819 97.5585C53.938 104.813 58.8076 111.257 65.3065 114.927C65.0624 114.796 75.5425 77.6642 76.9869 71.4893C76.8285 71.6585 76.2097 70.8704 76.0502 71.0396H76.0526Z" fill="#513A41"/>
<path d="M57.5683 95.1732C57.2987 104.691 61.0189 116.735 70.6277 120.62C74.7709 122.295 79.701 122.322 83.7717 120.292C88.5446 117.913 91.3789 112.706 92.9259 107.805C95.3481 100.129 94.9855 90.8378 90.0264 84.2133C84.8921 77.3554 75.965 74.2649 68.0255 78.1132C62.4705 80.8061 58.4397 86.5145 57.7169 92.6435C57.6178 93.4811 57.5912 94.3308 57.5671 95.1744L57.5683 95.1732Z" fill="#FFD4C2"/>
<g filter="url(#filter2_f_1210_95785)">
<path d="M70.3354 108.464C71.3897 107.058 71.1049 105.064 69.6991 104.01C68.2934 102.956 66.2992 103.24 65.2449 104.646C64.1906 106.052 64.4755 108.046 65.8812 109.1C67.2869 110.155 69.2812 109.87 70.3354 108.464Z" fill="#F8A68C" fill-opacity="0.4"/>
</g>
<g filter="url(#filter3_f_1210_95785)">
<path d="M87.845 108.177C89.3958 107.92 90.4443 106.454 90.187 104.904C89.9297 103.353 88.4641 102.304 86.9133 102.561C85.3626 102.819 84.314 104.284 84.5713 105.835C84.8286 107.386 86.2943 108.434 87.845 108.177Z" fill="#F8A68C" fill-opacity="0.4"/>
</g>
<path d="M81.3715 110.557C81.5785 110.493 81.8093 110.581 81.919 110.778L81.9559 110.865C82.0202 111.072 81.9318 111.304 81.7353 111.413L81.734 111.413C79.4996 112.638 76.7059 112.669 74.444 111.493L74.4263 111.482L74.4267 111.482C74.238 111.372 74.1533 111.151 74.2121 110.948L74.2469 110.862C74.3648 110.634 74.6471 110.544 74.8749 110.663L75.2485 110.842C77.1457 111.674 79.4716 111.588 81.285 110.594L81.3715 110.557Z" fill="#E2877F" stroke="#E2877F" stroke-width="0.185439"/>
<path d="M76.6992 106.149V106.149C77.0717 104.907 78.8301 104.907 79.2026 106.149V106.149" stroke="#CD8C86" stroke-width="0.834474" stroke-linecap="round"/>
<path d="M71.9893 98.7963C72.0415 100.069 71.5194 101.124 70.8221 101.154C70.1248 101.182 69.5167 100.173 69.4645 98.9008C69.4123 97.6281 69.9345 96.5729 70.6317 96.5435C71.329 96.5153 71.9371 97.5236 71.9893 98.7963Z" fill="#513A41"/>
<path d="M141.151 104.079C141.197 105.224 140.728 106.174 140.1 106.2C139.472 106.226 138.925 105.318 138.878 104.173C138.831 103.027 139.301 102.078 139.929 102.051C140.556 102.026 141.104 102.933 141.151 104.079Z" fill="#513A41"/>
<path d="M84.7002 98.5659C84.7524 99.8386 84.2303 100.894 83.533 100.923C82.8358 100.951 82.2277 99.943 82.1755 98.6703C82.1233 97.3976 82.6454 96.3425 83.3427 96.3131C84.0399 96.2848 84.648 97.2932 84.7002 98.5659Z" fill="#513A41"/>
<path d="M152.592 103.872C152.639 105.017 152.169 105.967 151.541 105.993C150.914 106.019 150.367 105.111 150.32 103.966C150.273 102.82 150.743 101.871 151.37 101.844C151.998 101.819 152.545 102.726 152.592 103.872Z" fill="#513A41"/>
<path d="M59.1896 106.286C55.7704 106.251 52.5433 103.66 51.7686 100.329C51.493 99.1446 51.5111 97.8647 51.9994 96.7503C52.4877 95.6359 53.4897 94.7174 54.6862 94.4986C55.8828 94.2798 57.228 94.8636 57.7453 95.9647C59.1933 99.0503 58.1816 103.03 59.1909 106.285L59.1896 106.286Z" fill="#FFD4C2"/>
<path d="M58.5256 96.5973C60.3289 97.4941 62.6289 96.8233 64.0575 95.4031C65.4861 93.983 66.1702 91.9682 66.4748 89.9775C66.7794 87.9869 66.7504 85.9576 66.9957 83.9585C67.1553 82.6544 67.4695 81.291 68.3736 80.3362C69.2777 79.3826 71.4883 78.8846 72.4588 79.7706C73.1731 79.107 74.3479 79.1336 75.1807 79.6424C76.0122 80.1513 76.544 81.0433 76.8692 81.9618C77.1943 82.8816 77.3454 83.8521 77.6101 84.7913C78.5008 87.9519 80.7416 90.7064 83.6545 92.222C86.5673 93.7376 90.1099 93.9914 93.2088 92.9061C93.4759 94.3565 94.6096 95.634 95.9138 96.3241C96.9882 96.8922 98.3528 96.5248 99.2061 95.6606C98.0531 95.2956 97.2674 93.9636 97.311 92.7562C97.4717 88.3422 96.0274 83.9778 94.0379 80.034C92.0485 76.0914 88.9048 72.6106 84.8462 70.8653C80.7888 69.1212 75.7826 69.3339 72.2437 71.9772C66.8495 71.4587 61.071 74.4888 58.2609 79.1215C55.4508 83.7542 55.1232 89.6645 56.8214 94.8109C57.0438 95.4853 57.8898 96.277 58.5256 96.5937V96.5973Z" fill="#513A41"/>
<path d="M84.2445 93.6969C83.2824 93.6969 82.3228 93.5253 81.4296 93.176C79.2044 92.3058 77.4169 90.3357 76.7654 88.0369C76.45 86.9237 76.3919 85.7767 76.3363 84.6684C76.2977 83.8985 76.2578 83.102 76.1297 82.349C75.8468 80.6871 74.8485 78.8947 73.2579 78.6348C72.9654 78.5865 72.7684 78.3121 72.8156 78.0196C72.8639 77.7272 73.1395 77.5301 73.4308 77.5773C75.6885 77.9459 76.8645 80.2822 77.186 82.1689C77.325 82.9847 77.3661 83.8139 77.4072 84.6152C77.4628 85.7127 77.5148 86.7497 77.7964 87.7456C78.3584 89.729 79.9006 91.4271 81.82 92.1789C83.7393 92.9307 86.0248 92.7288 87.7834 91.6531C88.036 91.4984 88.366 91.5782 88.5195 91.8308C88.6742 92.0834 88.5944 92.4134 88.3418 92.5669C87.1211 93.3138 85.6804 93.6969 84.2433 93.6969H84.2445Z" fill="#513A41"/>
<path d="M58.9589 244.055C58.8308 244.055 58.7184 243.963 58.6954 243.833C53.4197 213.847 49.4154 183.261 46.7939 152.928C46.7818 152.78 46.8906 152.651 47.038 152.638C47.1855 152.626 47.3148 152.734 47.3281 152.882C49.9472 183.201 53.9491 213.77 59.2236 243.74C59.249 243.885 59.1523 244.024 59.006 244.051C58.9903 244.053 58.9746 244.055 58.9589 244.055Z" fill="#8C8691" fill-opacity="0.2"/>
<path d="M46.4886 151.963C46.3835 151.963 46.2843 151.9 46.2408 151.797L38.665 133.527C38.6082 133.391 38.6735 133.234 38.8101 133.177C38.9467 133.12 39.1038 133.185 39.1606 133.322L46.7376 151.592C46.7944 151.728 46.7291 151.885 46.5925 151.942C46.5587 151.957 46.5237 151.963 46.4898 151.963H46.4886Z" fill="#8C8691" fill-opacity="0.2"/>
<path d="M48.3739 167.787C48.3558 167.787 48.3364 167.785 48.3171 167.781C48.1721 167.749 48.0802 167.607 48.1116 167.463C49.6768 160.211 49.869 152.508 48.6676 145.187C48.6434 145.04 48.7425 144.903 48.8888 144.878C49.0338 144.855 49.1728 144.953 49.197 145.1C50.4093 152.487 50.2159 160.258 48.6362 167.575C48.6096 167.701 48.4984 167.787 48.3751 167.787H48.3739Z" fill="#8C8691" fill-opacity="0.2"/>
<path d="M66.4712 145.661C66.453 145.661 66.4349 145.659 66.418 145.655C66.3394 145.639 66.2717 145.589 66.2343 145.517C63.5088 140.366 61.1858 134.953 59.3305 129.428C59.2833 129.288 59.3583 129.135 59.4997 129.088C59.6399 129.041 59.7922 129.116 59.8393 129.258C61.6511 134.652 63.9112 139.941 66.5582 144.98C68.1282 143.716 69.9605 142.351 71.736 141.027C73.6034 139.635 75.5348 138.195 77.1495 136.884C77.2644 136.791 77.4336 136.808 77.5266 136.923C77.6197 137.038 77.6028 137.207 77.4879 137.3C75.8647 138.618 73.9285 140.062 72.0563 141.458C70.1889 142.85 68.2575 144.289 66.6416 145.602C66.5932 145.641 66.534 145.662 66.4724 145.662L66.4712 145.661Z" fill="#8C8691" fill-opacity="0.2"/>
<path d="M88.8852 144.465C88.8357 144.465 88.7861 144.452 88.7438 144.424L77.333 137.294C77.2073 137.215 77.1698 137.05 77.2472 136.925C77.3258 136.8 77.4913 136.762 77.6158 136.839L88.6991 143.764C89.5983 139.257 90.2027 134.651 90.4951 130.067C90.5048 129.92 90.6317 129.805 90.7792 129.817C90.9266 129.827 91.039 129.954 91.0294 130.101C90.7272 134.838 90.0939 139.598 89.1463 144.25C89.1294 144.335 89.0702 144.408 88.9892 144.442C88.9553 144.456 88.9191 144.464 88.8828 144.464L88.8852 144.465Z" fill="#8C8691" fill-opacity="0.2"/>
<path d="M93.8776 238.158C93.8655 238.158 93.8534 238.158 93.8414 238.156C93.6951 238.136 93.5924 238.001 93.6117 237.855C93.851 236.084 95.189 217.745 96.4835 200.011C97.7779 182.268 99.1171 163.921 99.3576 162.135C99.377 161.988 99.5123 161.884 99.6586 161.905C99.8048 161.924 99.9075 162.06 99.8882 162.206C99.6489 163.977 98.3109 182.315 97.0165 200.05C95.722 217.793 94.3828 236.14 94.1423 237.926C94.1242 238.06 94.0094 238.158 93.8776 238.158Z" fill="#8C8691" fill-opacity="0.2"/>
<path d="M101.346 158.157C101.32 158.157 101.293 158.153 101.267 158.145C101.125 158.101 101.047 157.95 101.09 157.81C103.104 151.333 106.244 145.338 110.42 139.994C110.51 139.878 110.68 139.856 110.796 139.948C110.912 140.038 110.932 140.208 110.841 140.324C106.705 145.617 103.597 151.554 101.601 157.969C101.565 158.083 101.46 158.157 101.345 158.157H101.346Z" fill="#8C8691" fill-opacity="0.2"/>
<path d="M99.8376 162.652C99.7566 162.652 99.6769 162.616 99.6249 162.547C99.5354 162.43 99.5584 162.262 99.6757 162.171C104.272 158.667 109.332 155.819 114.71 153.702C114.848 153.648 115.004 153.716 115.057 153.853C115.111 153.991 115.044 154.147 114.906 154.2C109.572 156.297 104.557 159.122 99.9996 162.597C99.9512 162.634 99.8944 162.651 99.8376 162.651V162.652Z" fill="#8C8691" fill-opacity="0.2"/>
<path d="M47.019 212.575C46.9417 212.575 46.8655 212.542 46.8124 212.477C41.6382 206.19 37.3052 199.244 33.9306 191.833C33.869 191.698 33.9282 191.539 34.0636 191.477C34.1989 191.416 34.3573 191.476 34.4189 191.61C37.7729 198.978 42.0829 205.884 47.2269 212.137C47.3212 212.251 47.3043 212.419 47.1907 212.514C47.1411 212.555 47.0807 212.574 47.0202 212.574L47.019 212.575Z" fill="#8C8691" fill-opacity="0.2"/>
<path d="M96.7173 201.616C96.6775 201.616 96.6376 201.608 96.5989 201.589C96.4659 201.523 96.4116 201.362 96.4768 201.23C99.548 194.989 104.694 189.9 110.967 186.897C111.101 186.833 111.261 186.89 111.325 187.023C111.389 187.156 111.332 187.317 111.199 187.381C105.034 190.332 99.9771 195.334 96.9579 201.466C96.9107 201.561 96.8164 201.616 96.7173 201.616Z" fill="#8C8691" fill-opacity="0.2"/>
<path d="M100.635 203.956C100.563 203.956 100.492 203.928 100.44 203.871C100.339 203.764 100.343 203.594 100.452 203.493C103.717 200.422 107.737 198.208 112.078 197.091C112.221 197.053 112.367 197.14 112.405 197.283C112.441 197.427 112.355 197.572 112.212 197.609C107.958 198.703 104.019 200.873 100.82 203.882C100.768 203.93 100.702 203.955 100.636 203.955L100.635 203.956Z" fill="#8C8691" fill-opacity="0.2"/>
<g opacity="0.5">
<path d="M75.7949 138.307C75.6874 145.421 75.4396 151.978 75.332 159.092C76.2119 151.949 77.168 144.815 78.0491 137.671C77.7759 137.474 77.6007 137.292 77.3263 137.094C77.3952 137.1 77.4653 137.107 77.5342 137.113C76.983 137.279 76.2325 137.933 75.7949 138.306V138.307Z" fill="#8C8691" fill-opacity="0.2"/>
</g>
<path d="M78.279 161.247C77.7509 162.075 76.9302 162.496 76.4443 162.186C75.9584 161.877 75.9935 160.955 76.5217 160.127C77.0499 159.299 77.8705 158.878 78.3564 159.188C78.8423 159.497 78.8072 160.419 78.279 161.247Z" fill="#8C8691" fill-opacity="0.2"/>
<path d="M80.6424 144.089C81.1701 143.261 81.2046 142.339 80.7193 142.03C80.2341 141.721 79.413 142.141 78.8852 142.969C78.3575 143.797 78.323 144.719 78.8083 145.029C79.2935 145.338 80.1147 144.917 80.6424 144.089Z" fill="#8C8691" fill-opacity="0.2"/>
<path d="M77.5642 180.333C77.036 181.161 76.2154 181.582 75.7295 181.272C75.2436 180.963 75.2787 180.041 75.8068 179.213C76.335 178.385 77.1557 177.964 77.6416 178.274C78.1274 178.583 78.0924 179.505 77.5642 180.333Z" fill="#8C8691" fill-opacity="0.2"/>
<path d="M76.8494 199.411C76.3212 200.239 75.5005 200.66 75.0146 200.35C74.5288 200.041 74.5638 199.119 75.092 198.291C75.6202 197.463 76.4408 197.042 76.9267 197.352C77.4126 197.661 77.3775 198.583 76.8494 199.411Z" fill="#8C8691" fill-opacity="0.2"/>
<g opacity="0.5">
<path d="M49.2934 161.01C48.7688 157.595 48.4244 156.088 47.0586 152.914C47.0586 158.72 48.1911 161.586 48.341 166.687C48.2709 166.904 49.5859 162.913 49.2934 161.008V161.01Z" fill="#8C8691" fill-opacity="0.2"/>
</g>
<path d="M74.706 162.039C74.6939 162.039 74.6818 162.039 74.6686 162.036C74.5223 162.016 74.4196 161.88 74.4401 161.734L77.7748 137.622C77.7953 137.475 77.9307 137.373 78.0769 137.393C78.2232 137.414 78.3259 137.549 78.3054 137.695L74.9707 161.808C74.9526 161.942 74.8378 162.039 74.706 162.039Z" fill="#8C8691" fill-opacity="0.2"/>
<g opacity="0.3">
<path d="M57.9648 217.365C72.5242 212.613 85.5594 207.232 96.7152 201.371C95.4691 205.041 90.9995 208.61 84.3085 211.377C77.6174 214.145 67.7537 216.473 57.9648 217.366V217.365Z" fill="#8C8691" fill-opacity="0.2"/>
</g>
<g opacity="0.3">
<path d="M49.0078 173.082L61.0024 234.543L57.2169 233.554L49.0078 173.082Z" fill="#8C8691" fill-opacity="0.2"/>
</g>
<path d="M145.014 114.426C147.122 115.085 148.697 114.584 149.577 114.005C149.875 113.81 150.323 113.888 150.388 114.239C150.606 115.42 149.939 116.36 148.617 116.714C145.85 117.456 144.606 116.155 144.419 114.849C144.373 114.529 144.706 114.329 145.014 114.426Z" fill="white" stroke="#EFA39D" stroke-width="0.982023"/>
</g>
<path d="M143.692 108.561C143.355 108.854 142.763 109.636 143.088 110.417C143.413 111.199 144.439 111.46 144.911 111.493" stroke="#E2877F" stroke-width="0.946671" stroke-linecap="round"/>
<path d="M71.6307 91.4046C71.6574 91.5813 71.5729 91.7702 71.4226 91.8667C71.1882 92.0185 70.863 91.8767 70.6093 91.8412C70.3217 91.799 70.0292 91.7931 69.7389 91.8208C69.3107 91.8622 68.894 91.9791 68.507 92.1637C68.2294 92.2969 67.884 92.3954 67.6983 92.0562C67.5897 91.8571 67.6231 91.6011 67.7424 91.4068C68.0213 90.9508 68.7003 90.8265 69.1894 90.7415C69.7721 90.6406 70.3769 90.6693 70.9445 90.8324C71.248 90.9192 71.5822 91.0939 71.6307 91.4046Z" fill="#51291C"/>
<path d="M140.829 97.4336C140.853 97.5926 140.777 97.7627 140.642 97.8495C140.431 97.9861 140.138 97.8585 139.91 97.8266C139.651 97.7885 139.388 97.7833 139.127 97.8082C138.741 97.8455 138.366 97.9506 138.018 98.1168C137.768 98.2367 137.457 98.3253 137.29 98.02C137.192 97.8409 137.223 97.6105 137.33 97.4356C137.581 97.0252 138.192 96.9134 138.632 96.8368C139.157 96.7461 139.701 96.7719 140.212 96.9187C140.485 96.9968 140.786 97.154 140.829 97.4336Z" fill="#51291C"/>
<path d="M84.7283 91.4046C84.755 91.5813 84.6706 91.7702 84.5203 91.8667C84.2859 92.0185 83.9606 91.8767 83.707 91.8412C83.4193 91.799 83.1269 91.7931 82.8366 91.8208C82.4084 91.8622 81.9916 91.9791 81.6046 92.1637C81.327 92.2969 80.9817 92.3954 80.796 92.0562C80.6873 91.8571 80.7208 91.6011 80.8401 91.4068C81.119 90.9508 81.7979 90.8265 82.2871 90.7415C82.8697 90.6406 83.4746 90.6693 84.0422 90.8324C84.3457 90.9192 84.681 91.0929 84.7295 91.4036L84.7283 91.4046Z" fill="#51291C"/>
<path d="M152.618 97.4336C152.642 97.5926 152.566 97.7627 152.431 97.8495C152.22 97.9861 151.927 97.8585 151.699 97.8266C151.44 97.7885 151.177 97.7833 150.916 97.8082C150.53 97.8455 150.155 97.9506 149.807 98.1168C149.557 98.2367 149.246 98.3253 149.079 98.02C148.982 97.8409 149.012 97.6105 149.119 97.4356C149.37 97.0252 149.981 96.9134 150.421 96.8368C150.946 96.7461 151.49 96.7719 152.001 96.9187C152.274 96.9968 152.576 97.1531 152.619 97.4327L152.618 97.4336Z" fill="#51291C"/>
<path d="M90.2871 133.19C90.2795 133.19 90.2732 133.19 90.2656 133.19C89.9675 133.178 89.7351 132.927 89.7465 132.63C89.9094 128.35 92.0351 124.239 95.4339 121.633C98.8328 119.026 103.354 118.04 107.53 118.993C107.821 119.06 108.002 119.349 107.937 119.64C107.87 119.93 107.581 120.113 107.29 120.047C103.425 119.164 99.2382 120.078 96.092 122.49C92.9458 124.903 90.978 128.71 90.8276 132.672C90.8163 132.962 90.5776 133.191 90.2883 133.191L90.2871 133.19Z" fill="#6A3E30"/>
<path d="M132.471 162.531C131.684 162.531 130.927 162.355 130.248 162.008C129.983 161.872 129.878 161.547 130.013 161.281C130.15 161.015 130.474 160.91 130.741 161.046C131.662 161.518 132.787 161.579 133.907 161.216C135.284 160.77 136.485 159.759 137.123 158.509C138.203 156.391 138.097 153.577 136.833 150.787C135.893 148.712 134.453 146.843 133.061 145.034C132.763 144.646 132.465 144.26 132.171 143.87C130.455 141.596 128.792 139.089 128.229 136.174C128.172 135.881 128.364 135.598 128.657 135.541C128.95 135.484 129.233 135.676 129.29 135.969C129.811 138.67 131.398 141.049 133.035 143.22C133.326 143.607 133.622 143.991 133.919 144.376C135.348 146.233 136.826 148.153 137.818 150.341C139.218 153.432 139.317 156.588 138.087 159.001C137.323 160.5 135.885 161.713 134.242 162.244C133.65 162.436 133.055 162.531 132.474 162.531H132.471Z" fill="#6A3E30"/>
<path d="M88.6938 162.425C86.0022 162.425 83.3057 161.005 81.8254 158.756C80.2226 156.32 80.0773 152.961 81.4642 150.396C82.2548 148.932 83.4522 147.781 84.6104 146.668C84.9362 146.355 85.2735 146.03 85.5917 145.708L85.7837 145.515C87.0973 144.189 88.7316 142.539 88.7721 140.804C88.7796 140.506 89.0297 140.274 89.324 140.277C89.6221 140.284 89.8583 140.531 89.852 140.829C89.8014 142.994 87.9991 144.813 86.5516 146.276L86.3609 146.468C86.0325 146.8 85.6903 147.129 85.3593 147.448C84.21 148.552 83.125 149.595 82.414 150.91C81.2115 153.135 81.3378 156.049 82.7272 158.162C84.1178 160.275 86.7436 161.543 89.2634 161.321C89.5589 161.294 89.8229 161.514 89.8494 161.811C89.876 162.108 89.6562 162.37 89.3594 162.397C89.1383 162.417 88.916 162.426 88.6938 162.426V162.425Z" fill="#6A3E30"/>
<path d="M102.988 162.549C98.8065 164.218 93.959 164.2 89.791 162.497C86.9315 161.329 84.341 159.322 82.9491 156.599C81.5573 153.875 81.5232 150.403 83.2662 147.885C84.2791 146.422 85.7948 145.359 86.8456 143.923C89.1582 140.763 88.8248 136.486 89.868 132.73C90.9833 128.717 96.2135 122.858 99.9281 120.875C105.559 128.304 106.988 139.745 107.744 148.985C107.942 151.415 107.956 153.886 107.41 156.264C106.865 158.642 105.282 161.633 102.987 162.55L102.988 162.549Z" fill="#6A3E30"/>
<path d="M116.358 162.563C120.539 164.233 125.387 164.214 129.555 162.511C132.414 161.343 135.005 159.336 136.397 156.613C137.789 153.89 137.823 150.418 136.08 147.899C135.067 146.437 133.551 145.373 132.5 143.937C130.188 140.777 130.521 136.501 129.478 132.744C128.363 128.732 122.511 122.035 118.294 120.641C112.663 128.07 112.357 139.759 111.602 148.998C111.404 151.428 111.39 153.899 111.936 156.277C112.481 158.655 114.064 161.646 116.359 162.563H116.358Z" fill="#6A3E30"/>
<path d="M93.8524 139.045C92.9342 138.017 91.3453 137.895 90.2263 138.646C89.1072 139.398 88.4883 140.894 88.5603 142.333C88.6323 143.772 89.3384 145.123 90.3362 146.058C91.334 146.992 92.6033 147.53 93.8979 147.76C93.6908 144.932 93.4799 141.791 93.831 138.98C93.759 139.108 93.9232 138.916 93.8512 139.045H93.8524Z" fill="#F2C1B8"/>
<path d="M125.112 138.709C126.03 137.681 127.619 137.559 128.738 138.31C129.857 139.062 130.476 140.558 130.404 141.997C130.332 143.436 129.626 144.787 128.628 145.722C127.629 146.655 126.361 147.194 125.066 147.424C125.274 144.596 125.484 141.455 125.133 138.644C125.205 138.773 125.041 138.581 125.113 138.709H125.112Z" fill="#F2C1B8"/>
<path d="M127.347 204.958C129.561 195.736 131.144 186.362 132.082 176.925C132.573 171.976 132.876 166.89 131.5 162.112C130.77 159.58 129.452 157.048 127.166 155.739C124.351 154.126 120.961 155.557 117.723 155.756C111.553 156.138 105.155 159.688 99.5551 157.072C95.54 155.196 90.1923 157.051 88.2005 161.011C86.6722 164.048 87.0625 167.671 87.694 171.011C89.9548 182.985 94.8263 194.356 100.961 204.885C109.534 206.832 118.837 207.158 127.349 204.958H127.347Z" fill="#FEEBE4"/>
<path d="M101.488 158.848C102.55 162.435 106.361 164.989 110.082 164.61C113.803 164.23 117.019 160.958 117.334 157.23C112.282 158.14 106.621 158.793 101.488 158.848Z" fill="#FEC7A8"/>
<path d="M126.249 145.63C125.232 151.934 121.013 157.755 115.118 160.209C109.222 162.662 101.828 161.394 97.4351 156.759C94.0514 153.188 92.6608 148.125 92.4171 143.213C92.1783 138.417 93.0221 133.345 96.0167 129.591C98.9507 125.914 103.7 123.934 108.402 123.805C114.458 123.64 120.953 125.998 123.88 131.725C124.915 133.749 125.674 135.916 126.103 138.149C126.577 140.611 126.648 143.153 126.249 145.631V145.63Z" fill="#FED7C6"/>
<g filter="url(#filter4_f_1210_95785)">
<path d="M121.067 152.149C122.006 150.528 121.453 148.452 119.831 147.513C118.21 146.574 116.135 147.127 115.196 148.748C114.257 150.369 114.81 152.445 116.431 153.384C118.052 154.323 120.128 153.77 121.067 152.149Z" fill="#F8A68C" fill-opacity="0.5"/>
</g>
<path d="M138.494 188.281C136.408 190.401 133.588 191.796 130.637 192.163C131.544 193.302 132.669 194.264 134.047 194.68C135.858 195.227 138.135 194.521 138.853 192.77C139.261 191.775 139.118 190.644 138.868 189.599C138.762 189.154 138.634 188.716 138.494 188.283V188.281Z" fill="#E99952"/>
<path d="M138.499 188.278C137.742 185.931 136.532 183.738 135.263 181.614C132.525 181.387 129.858 182.594 127.234 183.407C127.488 186.112 128.394 188.753 129.851 191.044C130.094 191.425 130.358 191.8 130.643 192.158C133.595 191.791 136.414 190.397 138.501 188.276L138.499 188.278Z" fill="#DB7B4F"/>
<g filter="url(#filter5_f_1210_95785)">
<path d="M100.436 153.801C102.288 153.76 103.757 152.225 103.716 150.373C103.674 148.521 102.14 147.053 100.287 147.094C98.4351 147.135 96.9669 148.67 97.0079 150.522C97.049 152.374 98.5838 153.842 100.436 153.801Z" fill="#F8A68C" fill-opacity="0.5"/>
</g>
<path d="M127.486 191.511C130.617 189.083 132.521 185.096 132.602 181.134C132.64 179.267 130.312 178.2 128.646 177.356C125.312 175.666 121.65 174.624 117.927 174.305C111.935 176.862 107.099 180.843 102.868 185.797C100.25 184.67 97.5417 183.525 94.6911 183.515C93.7855 183.511 92.8597 183.654 91.9844 183.933C92.5136 184.203 92.9986 184.606 93.399 185.042C95.2897 187.092 96.1309 190.062 95.5954 192.799C95.3971 193.813 95.003 194.82 94.2806 195.56C93.8815 195.969 93.3674 196.284 92.8192 196.441C93.7905 196.807 94.8174 197.044 95.8442 197.171C98.2389 197.466 100.663 197.215 103.062 196.963C109.038 196.337 114.613 200.506 120.616 200.758C122.559 200.84 124.555 200.796 126.368 200.092C128.18 199.389 129.793 197.908 130.182 196.002C130.571 194.098 129.397 191.87 127.487 191.51L127.486 191.511Z" fill="#DB7B4F"/>
<path d="M95.5941 192.796C96.1296 190.059 95.2884 187.089 93.3977 185.039C92.996 184.603 92.511 184.2 91.9831 183.93C90.1037 184.53 88.458 185.766 87.7582 187.581C86.8905 189.833 87.7014 192.506 89.3762 194.242C90.3323 195.234 91.5259 195.951 92.818 196.439C93.3661 196.282 93.8789 195.968 94.2793 195.558C95.0017 194.818 95.3958 193.812 95.5941 192.797V192.796Z" fill="#E99952"/>
<path d="M126.793 137.852C124.607 138.8 122.149 138.835 119.945 137.948C117.741 137.062 115.998 135.055 114.744 132.723C113.74 135.532 110.942 137.06 108.393 136.708C105.844 136.356 103.676 134.331 102.121 131.901C100.978 134.304 99.1856 136.263 97.0763 137.415C94.9671 138.567 92.5496 138.907 90.2724 138.373C90.0514 129.536 95.269 122.269 102.867 119.529C109.856 117.01 117.837 118.595 123.148 124.481C126.081 127.729 127.503 133.161 126.794 137.852H126.793Z" fill="#6A3E30"/>
<path d="M117.399 174.742C119.498 178.861 124.371 181.371 128.943 180.687C133.514 180.004 137.442 176.18 138.245 171.628C139.048 167.076 136.669 162.139 132.607 159.931C130.937 159.024 129.025 158.605 127.13 158.648C125.217 158.69 123.307 159.201 121.644 160.154C120.247 160.955 119.225 161.881 118.304 163.189C117.205 164.75 116.534 166.597 116.32 168.492C116.107 170.385 116.352 172.336 117.097 174.094C117.19 174.314 117.29 174.53 117.399 174.744V174.742Z" fill="#DB7B4F"/>
<path d="M121.331 191.752C119.919 192.05 118.535 192.198 117.254 192.092C116.795 192.054 116.284 191.943 116.034 191.554C115.785 191.166 116.114 190.252 116.558 190.374C116.138 190.656 115.619 190.833 115.125 190.726C114.631 190.618 114.197 190.164 114.229 189.66C114.264 189.154 114.64 188.538 115.074 188.797C114.51 189.442 113.254 189.163 113.016 188.34C112.777 187.516 113.578 186.361 114.4 186.604C113.896 187.123 112.892 186.691 112.742 185.984C112.591 185.277 113.095 184.561 113.737 184.227C114.38 183.895 115.129 183.857 115.851 183.832C115.385 183.783 114.903 183.727 114.498 183.488C114.094 183.25 113.791 182.774 113.905 182.319C114.053 181.728 114.759 181.497 115.361 181.407C117.143 181.143 118.981 181.259 120.716 181.744C124.446 179.815 128.548 177.663 132.739 177.929C134.468 178.038 136.334 178.662 137.19 180.168C137.948 181.5 137.702 183.233 136.902 184.539C135.437 186.931 132.574 187.829 130.097 188.787C127.566 189.766 124.385 191.107 121.333 191.751L121.331 191.752Z" fill="#FED7C6"/>
<path d="M108.564 168.652C110.836 167.729 112.416 165.34 112.425 162.895C111.671 162.3 110.829 161.833 109.904 161.557C107.675 160.893 104.976 161.565 103.684 163.499C102.773 164.86 102.67 166.629 103.085 168.224C104.728 169.163 106.803 169.368 108.564 168.653V168.652Z" fill="#E99952"/>
<path d="M117.433 172.554C116.825 170.31 116.205 168.036 115.052 166.017C114.377 164.835 113.491 163.738 112.426 162.898C112.417 165.344 110.837 167.732 108.565 168.655C106.804 169.37 104.729 169.166 103.086 168.226C103.128 168.384 103.172 168.542 103.224 168.696C103.791 170.405 104.887 171.884 106.033 173.272C107.747 175.349 109.937 177.45 112.631 177.457C114.019 177.461 115.293 177.584 116.234 176.566C117.175 175.546 117.795 173.893 117.433 172.554Z" fill="#DB7B4F"/>
<path d="M87.3844 193.272C83.0421 193.133 79.2062 194.397 77.6262 198.766C75.0066 206.007 83.3174 211.093 88.9897 213.009C96.991 215.713 105.758 215.943 114.33 216.14C116.822 212.352 119.352 208.765 121.842 204.978C115.88 201.492 108.792 199.168 102.3 196.926C98.6544 195.667 92.6474 193.44 87.3856 193.272H87.3844Z" fill="#FFD8C8"/>
<path d="M134.325 191.815C138.668 191.676 142.503 192.94 144.083 197.309C146.703 204.55 138.392 209.636 132.72 211.552C124.719 214.256 115.952 214.486 107.38 214.683C104.888 210.895 102.358 207.308 99.8672 203.521C105.83 200.035 112.918 197.711 119.41 195.469C123.055 194.21 129.062 191.983 134.324 191.815H134.325Z" fill="#FFD8C8"/>
<path d="M124.255 160.087C122.982 158.411 123.184 155.792 124.7 154.332C126.216 152.872 128.84 152.766 130.468 154.099C132.096 155.433 132.509 158.027 131.375 159.801C129.238 159.232 126.463 159.989 124.254 160.087H124.255Z" fill="#DB7B4F"/>
<path d="M138.05 166.429C138.14 165.461 138.95 164.659 139.879 164.372C140.809 164.085 141.827 164.242 142.738 164.585C144.025 165.072 145.209 165.984 145.733 167.255C146.49 169.088 145.658 171.329 144.085 172.535C142.513 173.742 140.371 174.02 138.423 173.656C138.664 170.816 137.785 169.269 138.05 166.429Z" fill="#DB7B4F"/>
<path d="M124.763 164.583C124.152 165.331 123.988 166.208 124.397 166.542C124.806 166.877 125.634 166.542 126.245 165.796C126.856 165.048 127.02 164.172 126.611 163.837C126.202 163.502 125.375 163.837 124.763 164.583Z" fill="#6A3E30"/>
<path d="M132.599 170.587C131.988 171.335 131.824 172.212 132.233 172.546C132.642 172.881 133.469 172.546 134.081 171.8C134.692 171.052 134.856 170.176 134.447 169.841C134.038 169.506 133.211 169.841 132.599 170.587Z" fill="#6A3E30"/>
<path d="M130.249 174.28C131.387 172.63 130.638 170.139 128.575 168.716C126.512 167.294 123.918 167.478 122.779 169.129C121.641 170.779 122.391 173.27 124.454 174.693C126.516 176.115 129.111 175.93 130.249 174.28Z" fill="#E99952"/>
<path d="M129.537 168.669C129.986 169.191 129.999 169.916 129.567 170.289C129.134 170.663 128.163 170.707 127.713 170.186C127.263 169.664 127.506 168.775 127.939 168.401C128.372 168.027 129.088 168.147 129.537 168.669Z" fill="#6A3E30"/>
<path d="M129.319 174.18C129.319 174.18 129.317 174.18 129.314 174.18C128.589 174.167 127.866 173.882 127.328 173.395C126.866 172.979 126.517 172.319 126.387 171.635C125.783 171.582 125.201 171.349 124.724 170.97C124.19 170.545 123.806 169.943 123.645 169.28C123.609 169.136 123.698 168.991 123.842 168.957C123.984 168.922 124.131 169.01 124.165 169.154C124.299 169.703 124.616 170.2 125.059 170.552C125.501 170.905 126.057 171.103 126.623 171.11C126.757 171.112 126.869 171.213 126.885 171.347C126.961 171.986 127.269 172.619 127.689 172.997C128.132 173.398 128.728 173.633 129.326 173.643C129.473 173.645 129.591 173.768 129.588 173.916C129.586 174.062 129.467 174.178 129.321 174.178L129.319 174.18Z" fill="#6A3E30"/>
<path d="M125.019 181.011C121.195 183.09 117.183 184.825 113.048 186.188C109.813 187.254 106.401 188.1 103.025 187.652C98.4739 187.047 94.3375 183.937 92.4922 179.733C95.3833 176.924 98.599 174.615 102.479 173.523C103.795 174.309 104.739 174.9 106.055 175.686C112.382 174.341 119.156 174.03 125.624 174.133C128.135 174.174 130.35 174.595 132.019 176.473C132.462 176.972 132.852 177.681 132.554 178.279C132.317 178.752 131.749 178.939 131.238 179.081C129.231 179.637 126.848 180.018 125.019 181.012V181.011Z" fill="#FED7C6"/>
<path d="M113.072 186.27C112.943 186.27 112.83 186.177 112.808 186.044C112.784 185.898 112.884 185.761 113.031 185.737C116.014 185.26 118.745 183.944 120.791 182.851C121.758 182.333 122.729 181.779 123.668 181.242C125.124 180.41 126.63 179.548 128.169 178.803C129.415 178.201 130.761 177.653 132.164 177.735C132.312 177.744 132.424 177.87 132.417 178.018C132.408 178.165 132.284 178.28 132.134 178.27C130.852 178.197 129.584 178.715 128.403 179.287C126.881 180.025 125.383 180.881 123.934 181.71C122.992 182.249 122.018 182.806 121.043 183.326C118.96 184.439 116.178 185.779 113.115 186.269C113.101 186.272 113.086 186.273 113.072 186.273V186.27Z" fill="#E2877F"/>
<path d="M92.6033 147.495C92.477 147.495 92.3659 147.407 92.3406 147.278C91.8026 144.504 91.7306 141.68 92.1259 138.883C92.1461 138.736 92.2813 138.634 92.429 138.655C92.5756 138.675 92.6779 138.812 92.6564 138.958C92.2686 141.697 92.3394 144.461 92.8661 147.177C92.8938 147.322 92.7991 147.462 92.6539 147.491C92.6362 147.495 92.6198 147.496 92.6021 147.496L92.6033 147.495Z" fill="#E2877F"/>
<path d="M125.73 147.199C125.709 147.199 125.688 147.197 125.667 147.192C125.523 147.158 125.434 147.013 125.468 146.869C126.128 144.119 126.388 141.294 126.239 138.469C126.231 138.322 126.345 138.195 126.493 138.188C126.64 138.181 126.767 138.294 126.774 138.442C126.926 141.316 126.662 144.193 125.99 146.994C125.961 147.116 125.851 147.199 125.73 147.199Z" fill="#E2877F"/>
<path d="M102.639 173.207C102.528 173.207 102.424 173.138 102.385 173.027C101.247 169.702 99.7378 166.499 97.8988 163.506C97.8218 163.38 97.8609 163.215 97.9872 163.137C98.1135 163.06 98.2777 163.099 98.356 163.226C100.215 166.252 101.742 169.491 102.893 172.854C102.941 172.994 102.866 173.145 102.726 173.193C102.697 173.203 102.668 173.207 102.639 173.207Z" fill="#E4D1C7"/>
<path d="M91.8255 179.906C91.7244 179.906 91.6284 179.849 91.583 179.751L88.4279 173.054C88.3648 172.92 88.4229 172.761 88.5555 172.697C88.6894 172.634 88.8485 172.692 88.9117 172.825L92.0667 179.523C92.1299 179.657 92.073 179.816 91.9391 179.879C91.9025 179.897 91.8634 179.904 91.8255 179.904V179.906Z" fill="#E4D1C7"/>
<path d="M114.378 216.146C114.369 216.146 114.359 216.146 114.35 216.144C114.202 216.129 114.096 215.998 114.111 215.85C114.509 211.984 115.804 208.071 117.856 204.514C117.835 204.502 117.815 204.488 117.793 204.474C117.678 204.401 117.558 204.326 117.472 204.285L107.576 199.459C107.444 199.394 107.388 199.234 107.453 199.1C107.517 198.967 107.677 198.912 107.811 198.976L117.707 203.802C117.82 203.856 117.951 203.94 118.079 204.021C118.175 204.081 118.273 204.143 118.348 204.182C118.412 204.216 118.46 204.276 118.48 204.346C118.5 204.417 118.49 204.493 118.454 204.556C116.361 208.108 115.045 212.032 114.646 215.906C114.632 216.043 114.514 216.146 114.378 216.146Z" fill="#F4887C" fill-opacity="0.29"/>
<path d="M113.582 187.243C113.539 187.243 113.494 187.243 113.452 187.243C113.304 187.242 113.185 187.119 113.188 186.971C113.189 186.825 113.309 186.707 113.455 186.707C113.455 186.707 113.458 186.707 113.459 186.707C114.581 186.72 115.685 186.545 116.744 186.182C116.884 186.135 117.036 186.209 117.084 186.349C117.132 186.489 117.057 186.641 116.917 186.689C115.84 187.056 114.718 187.243 113.582 187.243Z" fill="#E2877F"/>
<path d="M114.364 189.28C114.332 189.28 114.301 189.28 114.268 189.28C114.12 189.278 114.001 189.157 114.004 189.009C114.006 188.862 114.125 188.745 114.272 188.745C114.273 188.745 114.274 188.745 114.277 188.745C115.144 188.756 116.015 188.563 116.794 188.18C116.927 188.115 117.087 188.169 117.153 188.303C117.218 188.435 117.163 188.596 117.03 188.661C116.204 189.068 115.285 189.282 114.364 189.282V189.28Z" fill="#E2877F"/>
<path d="M115.995 190.885C115.87 190.885 115.758 190.796 115.732 190.67C115.703 190.525 115.796 190.383 115.942 190.354L118.22 189.896C118.365 189.867 118.507 189.96 118.536 190.106C118.565 190.251 118.471 190.392 118.326 190.421L116.048 190.88C116.03 190.884 116.012 190.885 115.995 190.885Z" fill="#E2877F"/>
<path d="M130.847 159.556C130.815 159.556 130.784 159.551 130.752 159.538C128.887 158.835 126.81 158.773 124.906 159.363C124.764 159.407 124.614 159.327 124.571 159.186C124.527 159.044 124.606 158.894 124.748 158.851C126.766 158.226 128.966 158.292 130.943 159.037C131.082 159.089 131.151 159.244 131.099 159.382C131.059 159.489 130.957 159.555 130.849 159.555L130.847 159.556Z" fill="#B96841"/>
<path d="M137.932 173.444C137.908 173.444 137.884 173.44 137.86 173.434C137.718 173.393 137.634 173.246 137.675 173.103C138.357 170.673 138.288 168.017 137.483 165.623C137.436 165.483 137.51 165.331 137.651 165.283C137.79 165.237 137.942 165.311 137.99 165.451C138.83 167.945 138.902 170.713 138.191 173.247C138.158 173.366 138.051 173.443 137.934 173.443L137.932 173.444Z" fill="#B96841"/>
<path d="M139.418 172.064C139.128 172.064 138.836 172.027 138.553 171.95C138.411 171.911 138.326 171.765 138.365 171.622C138.404 171.479 138.551 171.396 138.693 171.434C139.725 171.714 140.887 171.368 141.516 170.593C142.171 169.786 142.178 168.525 141.535 167.782C141.213 167.411 140.699 167.176 140.161 167.155C139.656 167.137 139.191 167.302 138.875 167.613C138.77 167.717 138.6 167.715 138.496 167.611C138.393 167.506 138.394 167.335 138.499 167.232C138.92 166.817 139.531 166.594 140.183 166.619C140.876 166.647 141.518 166.942 141.941 167.431C142.76 168.376 142.757 169.913 141.933 170.93C141.35 171.651 140.391 172.065 139.42 172.065L139.418 172.064Z" fill="#B96841"/>
<path d="M125.498 158.816C125.381 158.816 125.274 158.739 125.241 158.621C124.909 157.435 125.309 156.087 126.213 155.344C127.183 154.549 128.672 154.523 129.605 155.286C130.086 155.68 130.396 156.287 130.457 156.95C130.514 157.582 130.338 158.175 129.963 158.617C129.867 158.729 129.698 158.743 129.586 158.647C129.473 158.551 129.459 158.382 129.555 158.27C129.837 157.937 129.968 157.485 129.924 156.996C129.877 156.476 129.637 156.002 129.266 155.699C128.525 155.093 127.334 155.118 126.554 155.757C125.809 156.369 125.481 157.487 125.757 158.474C125.798 158.617 125.714 158.765 125.572 158.804C125.548 158.81 125.524 158.814 125.5 158.814L125.498 158.816Z" fill="#B96841"/>
<path d="M117.926 173.83C117.847 173.83 117.769 173.796 117.717 173.73C116.614 172.357 116.046 170.562 116.159 168.805C116.167 168.657 116.294 168.546 116.443 168.555C116.59 168.564 116.703 168.692 116.693 168.839C116.589 170.465 117.115 172.125 118.134 173.394C118.226 173.509 118.208 173.678 118.092 173.77C118.043 173.809 117.984 173.83 117.924 173.83H117.926Z" fill="#B96841"/>
<path d="M106.533 196.646C106.499 196.646 106.464 196.64 106.43 196.625C106.293 196.568 106.229 196.41 106.287 196.274C107.272 193.93 107.374 191.201 106.567 188.79C106.521 188.65 106.596 188.499 106.737 188.452C106.877 188.404 107.028 188.481 107.075 188.621C107.924 191.155 107.817 194.02 106.781 196.483C106.738 196.586 106.638 196.648 106.533 196.648V196.646Z" fill="#B96841"/>
<path d="M119.728 193.238C119.617 193.238 119.514 193.169 119.476 193.058C119.428 192.917 119.501 192.766 119.641 192.717C121.947 191.917 124.355 191.512 126.795 191.512C126.844 191.512 126.893 191.512 126.943 191.512C127.09 191.512 127.209 191.633 127.209 191.782C127.209 191.93 127.088 192.049 126.941 192.049H126.94C126.892 192.049 126.844 192.049 126.796 192.049C124.415 192.049 122.069 192.444 119.818 193.224C119.789 193.234 119.76 193.24 119.731 193.24L119.728 193.238Z" fill="#B96841"/>
<path d="M111.724 153.556C112.149 153.452 112.525 153.565 112.749 153.769C112.934 153.938 113.035 154.187 112.961 154.495L112.918 154.631C112.63 155.368 112.198 156.127 111.634 156.704C111.073 157.279 110.395 157.661 109.603 157.695C108.066 157.761 106.848 156.583 106.128 155.22L105.99 154.945C105.822 154.588 105.903 154.278 106.11 154.059C106.299 153.859 106.611 153.724 106.975 153.738L107.134 153.752L108.705 153.998C109.134 154.065 109.572 154.057 109.997 153.975L110.179 153.935L111.724 153.556Z" fill="white" stroke="#E2877F" stroke-width="0.684143"/>
<path d="M109.334 151.226V151.226C108.295 151.578 107.432 150.366 108.106 149.499V149.499" stroke="#F0B1AC" stroke-width="0.706341" stroke-linecap="round"/>
<path d="M104.222 147.002C104.271 148.199 103.78 149.191 103.124 149.219C102.468 149.245 101.896 148.297 101.847 147.1C101.798 145.903 102.289 144.911 102.945 144.883C103.601 144.857 104.173 145.805 104.222 147.002Z" fill="#6A3E30"/>
<path d="M116.179 146.799C116.228 147.996 115.737 148.988 115.081 149.016C114.425 149.042 113.853 148.094 113.804 146.897C113.755 145.7 114.246 144.708 114.902 144.68C115.558 144.654 116.13 145.602 116.179 146.799Z" fill="#6A3E30"/>
<path d="M103.886 140.067C103.911 140.233 103.832 140.411 103.691 140.502C103.47 140.644 103.164 140.511 102.926 140.478C102.655 140.438 102.38 140.432 102.107 140.458C101.704 140.497 101.312 140.607 100.948 140.781C100.687 140.906 100.362 140.999 100.188 140.68C100.086 140.493 100.117 140.252 100.229 140.069C100.492 139.64 101.13 139.523 101.59 139.443C102.138 139.348 102.707 139.375 103.241 139.529C103.526 139.611 103.841 139.775 103.886 140.067Z" fill="#6A3E30"/>
<path d="M116.203 140.067C116.228 140.233 116.148 140.411 116.007 140.502C115.786 140.644 115.481 140.511 115.242 140.478C114.971 140.438 114.696 140.432 114.423 140.458C114.021 140.497 113.629 140.607 113.265 140.781C113.004 140.906 112.679 140.999 112.504 140.68C112.402 140.493 112.433 140.252 112.546 140.069C112.808 139.64 113.447 139.523 113.907 139.443C114.455 139.348 115.023 139.375 115.557 139.529C115.843 139.611 116.158 139.774 116.204 140.066L116.203 140.067Z" fill="#6A3E30"/>
</g>
<defs>
<filter id="filter0_f_1210_95785" x="128.156" y="98.7032" width="18.0038" height="19.6405" filterUnits="userSpaceOnUse" color-interpolation-filters="sRGB">
<feFlood flood-opacity="0" result="BackgroundImageFix"/>
<feBlend mode="normal" in="SourceGraphic" in2="BackgroundImageFix" result="shape"/>
<feGaussianBlur stdDeviation="3.27341" result="effect1_foregroundBlur_1210_95785"/>
</filter>
<filter id="filter1_f_1210_95785" x="147.793" y="98.7032" width="18.0038" height="18.0038" filterUnits="userSpaceOnUse" color-interpolation-filters="sRGB">
<feFlood flood-opacity="0" result="BackgroundImageFix"/>
<feBlend mode="normal" in="SourceGraphic" in2="BackgroundImageFix" result="shape"/>
<feGaussianBlur stdDeviation="3.27341" result="effect1_foregroundBlur_1210_95785"/>
</filter>
<filter id="filter2_f_1210_95785" x="58.0626" y="96.8282" width="19.4569" height="19.4569" filterUnits="userSpaceOnUse" color-interpolation-filters="sRGB">
<feFlood flood-opacity="0" result="BackgroundImageFix"/>
<feBlend mode="normal" in="SourceGraphic" in2="BackgroundImageFix" result="shape"/>
<feGaussianBlur stdDeviation="3.27341" result="effect1_foregroundBlur_1210_95785"/>
</filter>
<filter id="filter3_f_1210_95785" x="77.9844" y="95.9766" width="18.789" height="18.785" filterUnits="userSpaceOnUse" color-interpolation-filters="sRGB">
<feFlood flood-opacity="0" result="BackgroundImageFix"/>
<feBlend mode="normal" in="SourceGraphic" in2="BackgroundImageFix" result="shape"/>
<feGaussianBlur stdDeviation="3.27341" result="effect1_foregroundBlur_1210_95785"/>
</filter>
<filter id="filter4_f_1210_95785" x="111.318" y="143.634" width="13.6266" height="13.6266" filterUnits="userSpaceOnUse" color-interpolation-filters="sRGB">
<feFlood flood-opacity="0" result="BackgroundImageFix"/>
<feBlend mode="normal" in="SourceGraphic" in2="BackgroundImageFix" result="shape"/>
<feGaussianBlur stdDeviation="1.71036" result="effect1_foregroundBlur_1210_95785"/>
</filter>
<filter id="filter5_f_1210_95785" x="93.5871" y="143.673" width="13.5485" height="13.5485" filterUnits="userSpaceOnUse" color-interpolation-filters="sRGB">
<feFlood flood-opacity="0" result="BackgroundImageFix"/>
<feBlend mode="normal" in="SourceGraphic" in2="BackgroundImageFix" result="shape"/>
<feGaussianBlur stdDeviation="1.71036" result="effect1_foregroundBlur_1210_95785"/>
</filter>
<clipPath id="clip0_1210_95785">
<rect width="214.758" height="239.277" fill="white" transform="translate(8.30078 69.7461)"/>
</clipPath>
</defs>
</svg>
