<svg width="30" height="30" viewBox="0 0 30 30" fill="none" xmlns="http://www.w3.org/2000/svg">
<path d="M15.0004 2.5249C8.11289 2.5249 2.52539 8.1124 2.52539 14.9999C2.52539 21.8874 8.11289 27.4749 15.0004 27.4749C21.8879 27.4749 27.4754 21.8874 27.4754 14.9999C27.4754 8.1124 21.8879 2.5249 15.0004 2.5249ZM15.0004 24.9749C9.50039 24.9749 5.02539 20.4999 5.02539 14.9999C5.02539 9.4999 9.50039 5.0249 15.0004 5.0249C20.5004 5.0249 24.9754 9.4999 24.9754 14.9999C24.9754 20.4999 20.5004 24.9749 15.0004 24.9749ZM15.9379 6.2499L10.3129 16.8749H14.2379V23.7499L19.6879 13.1249H15.9379V6.2499Z" fill="white"/>
</svg>
