<svg width="28" height="24" viewBox="0 0 28 24" fill="none" xmlns="http://www.w3.org/2000/svg">
<path d="M18.3614 7.08C18.3614 8.85 17.3975 10.33 16.0663 10.9V21H13.7712V10.9C12.4401 10.33 11.4761 8.85 11.4761 7.08C11.4876 4.83 13.0253 3 14.9188 3C16.8237 3 18.3614 4.83 18.3614 7.08ZM19.5089 3V21H21.804V13H24.0991V7C24.0991 5.24 22.6761 3 19.5089 3ZM9.50238 3C9.04336 3 8.67615 3.32 8.67615 3.72V7H7.71221V3.72C7.71221 3.32 7.345 3 6.88598 3C6.42697 3 6.05975 3.32 6.05975 3.72V7H5.09582V3.72C5.09582 3.32 4.72861 3 4.26959 3C3.81057 3 3.44336 3.32 3.44336 3.72V9C3.44336 10.1 4.47615 11 5.73844 11V21H8.03352V11C9.29582 11 10.3286 10.1 10.3286 9V3.72C10.3286 3.32 9.96139 3 9.50238 3Z" fill="#A9A8AA"/>
</svg>
