<svg width="16" height="16" viewBox="0 0 16 16" fill="none" xmlns="http://www.w3.org/2000/svg">
<g clip-path="url(#clip0_3739_163511)">
<path d="M12.6416 12.2082H2.47214C1.89419 12.2082 1.33991 11.9786 0.931233 11.5699C0.522559 11.1612 0.292969 10.607 0.292969 10.029V2.76511C0.292969 2.18716 0.522559 1.63288 0.931233 1.2242C1.33991 0.81553 1.89419 0.585939 2.47214 0.585939H4.60046C4.95969 0.585487 5.31347 0.673849 5.6303 0.843162C5.94712 1.01248 6.21718 1.25749 6.41644 1.5564L7.2191 2.76511H12.6416C13.2196 2.76511 13.7738 2.9947 14.1825 3.40337C14.5912 3.81205 14.8208 4.36633 14.8208 4.94428V10.029C14.8208 10.607 14.5912 11.1612 14.1825 11.5699C13.7738 11.9786 13.2196 12.2082 12.6416 12.2082Z" fill="#FFC83B"/>
<path d="M15.0853 14.4611C14.6182 14.9274 13.8613 14.9274 13.3942 14.4611L9.09961 10.174L10.7926 8.48438L15.0855 12.7697C15.5532 13.2367 15.5532 13.9942 15.0853 14.4611Z" fill="#009890"/>
<path d="M8.68183 11.6024C10.6435 11.6024 12.2338 10.0151 12.2338 8.05708C12.2338 6.09903 10.6435 4.51172 8.68183 4.51172C6.72015 4.51172 5.12988 6.09903 5.12988 8.05708C5.12988 10.0151 6.72015 11.6024 8.68183 11.6024Z" fill="white"/>
<path d="M9.82202 10.4653C7.86035 10.4653 6.27008 8.87797 6.27008 6.91994C6.27008 6.23389 6.4655 5.59349 6.80355 5.05078C5.79863 5.677 5.12988 6.79053 5.12988 8.06014C5.12988 10.0182 6.72015 11.6055 8.68183 11.6055C9.95618 11.6055 11.0736 10.9355 11.7003 9.9293C11.1554 10.2688 10.5117 10.4653 9.82202 10.4653Z" fill="#E6E7E8"/>
<path d="M8.68439 11.9728C6.52466 11.9728 4.76758 10.2186 4.76758 8.06257C4.76758 5.90648 6.52466 4.15234 8.68439 4.15234C10.8441 4.15234 12.6012 5.90646 12.6012 8.06257C12.6012 10.2187 10.8441 11.9728 8.68439 11.9728ZM8.68439 4.88207C6.92703 4.88207 5.4973 6.30884 5.4973 8.06257C5.4973 9.8163 6.92703 11.2431 8.68439 11.2431C10.4417 11.2431 11.8715 9.8163 11.8715 8.06257C11.8715 6.30884 10.4418 4.88207 8.68439 4.88207Z" fill="#275E46"/>
<path d="M6.86638 9.29097C6.70004 9.40473 6.47025 9.36297 6.38128 9.18216C6.21028 8.83466 6.12109 8.45283 6.12109 8.0604C6.12109 7.66006 6.21368 7.27132 6.39118 6.91861C6.48177 6.73861 6.71191 6.69885 6.87725 6.81405V6.81405C7.04259 6.92924 7.07918 7.15579 6.99916 7.34073C6.90149 7.56646 6.85082 7.81025 6.85082 8.0604C6.85082 8.30491 6.89935 8.54366 6.99291 8.76533C7.07127 8.95098 7.0327 9.17722 6.86638 9.29097V9.29097Z" fill="#009863"/>
</g>
<defs>
<clipPath id="clip0_3739_163511">
<rect width="16" height="16" fill="white"/>
</clipPath>
</defs>
</svg>
