<svg width="25" height="25" viewBox="0 0 25 25" fill="none" xmlns="http://www.w3.org/2000/svg">
<path d="M18.4467 3.73438H6.00229C5.36759 3.73438 4.75888 3.98651 4.31007 4.43532C3.86127 4.88412 3.60913 5.49283 3.60913 6.12754V18.572C3.60913 19.2067 3.86127 19.8154 4.31007 20.2642C4.75888 20.713 5.36759 20.9651 6.00229 20.9651H18.4467C19.0814 20.9651 19.6902 20.713 20.139 20.2642C20.5878 19.8154 20.8399 19.2067 20.8399 18.572V6.12754C20.8399 5.49283 20.5878 4.88412 20.139 4.43532C19.6902 3.98651 19.0814 3.73438 18.4467 3.73438ZM10.31 13.7617V16.5857C10.3064 16.8694 10.2044 17.1432 10.0214 17.3601C9.83846 17.577 9.58586 17.7237 9.30676 17.7751C9.02766 17.8266 8.73937 17.7795 8.49111 17.642C8.24285 17.5045 8.05002 17.2851 7.94554 17.0212C6.84947 14.1494 6.95956 14.628 6.95956 13.7617C6.95956 13.438 7.08815 13.1276 7.31704 12.8987C7.54593 12.6698 7.85637 12.5412 8.18007 12.5412H9.08947C9.41317 12.5412 9.72361 12.6698 9.95251 12.8987C10.1814 13.1276 10.31 13.438 10.31 13.7617ZM8.39546 9.9566C7.96469 9.9566 8.00298 9.78908 6.99306 7.2619C6.94923 7.15083 6.9485 7.02739 6.99101 6.91581C7.03351 6.80423 7.11619 6.71257 7.22281 6.65882C9.93187 5.2995 14.5172 5.2995 17.2262 6.65882C17.3328 6.71257 17.4155 6.80423 17.458 6.91581C17.5005 7.02739 17.4998 7.15083 17.456 7.2619L16.4987 9.65506C16.3264 10.0858 16.6567 9.9566 8.39546 9.9566ZM14.139 13.7617C14.139 13.438 14.2676 13.1276 14.4965 12.8987C14.7254 12.6698 15.0359 12.5412 15.3596 12.5412H16.269C16.5927 12.5412 16.9031 12.6698 17.132 12.8987C17.3609 13.1276 17.4895 13.438 17.4895 13.7617C17.4895 14.6376 17.6043 14.1255 16.5035 17.0212C16.399 17.2851 16.2062 17.5045 15.9579 17.642C15.7097 17.7795 15.4214 17.8266 15.1423 17.7751C14.8632 17.7237 14.6106 17.577 14.4276 17.3601C14.2446 17.1432 14.1426 16.8694 14.139 16.5857V13.7617Z" fill="#36DDD4"/>
<path d="M12.7014 9.4791V7.56457C12.7014 7.43763 12.651 7.31589 12.5612 7.22613C12.4715 7.13636 12.3497 7.08594 12.2228 7.08594C12.0958 7.08594 11.9741 7.13636 11.8843 7.22613C11.7946 7.31589 11.7441 7.43763 11.7441 7.56457V9.4791C11.7441 9.60604 11.7946 9.72778 11.8843 9.81754C11.9741 9.90731 12.0958 9.95773 12.2228 9.95773C12.3497 9.95773 12.4715 9.90731 12.5612 9.81754C12.651 9.72778 12.7014 9.60604 12.7014 9.4791Z" fill="#009890"/>
</svg>
