<svg width="17" height="17" viewBox="0 0 17 17" fill="none" xmlns="http://www.w3.org/2000/svg">
<g clip-path="url(#clip0_863_20002)">
<path d="M8.70006 3.73704C9.5094 3.73704 10.1604 3.08606 10.1604 2.27672C10.1604 1.46739 9.5094 0.816406 8.70006 0.816406C7.89073 0.816406 7.23975 1.46739 7.23975 2.27672C7.23975 3.06846 7.89073 3.73704 8.70006 3.73704Z" fill="#BEBEC7"/>
<path d="M11.6908 5.1475C10.9695 4.35576 10.1249 4.05666 9.0341 4.03906H8.36552C7.27468 4.05666 6.43016 4.35576 5.7088 5.1475C4.75871 6.16796 4.38924 7.96256 4.61796 9.51085C4.65315 9.80995 4.88187 10.0915 5.18097 10.0915H5.21616C5.53286 10.0739 5.7088 9.88033 5.74399 9.49326C5.83196 8.33204 5.88474 7.41714 6.23662 6.69578C6.16625 7.31158 6.14865 7.90978 6.14865 8.52558C6.09587 12.9065 6.9228 15.1058 6.9228 15.1058C7.01077 15.4753 7.23949 15.8975 7.71454 15.8975C8.06642 15.8975 8.31274 15.6336 8.36552 15.229C8.47109 14.4196 8.59424 11.1295 8.59424 11.1295C8.59424 11.0591 8.64703 11.0064 8.7174 11.0064C8.78778 11.0064 8.84056 11.0591 8.84056 11.1295C8.84056 11.1295 8.94613 14.4196 9.05169 15.229C9.10448 15.6336 9.35079 15.8975 9.70268 15.8975C10.1601 15.8975 10.3889 15.4753 10.4944 15.1058C10.4944 15.1058 11.3213 12.9241 11.3037 8.52558C11.3037 7.90978 11.2686 7.31158 11.1982 6.69578C11.5325 7.41714 11.5677 8.34964 11.6908 9.49326C11.726 9.89792 11.902 10.0739 12.2186 10.0915H12.2538C12.5529 10.0739 12.7817 9.82755 12.7993 9.52845C12.9752 7.78662 12.6233 6.16796 11.6908 5.1475Z" fill="#BEBEC7"/>
</g>
<defs>
<clipPath id="clip0_863_20002">
<rect width="16" height="16" fill="white" transform="translate(0.685059 0.351562)"/>
</clipPath>
</defs>
</svg>
