<svg width="17" height="17" viewBox="0 0 17 17" fill="none" xmlns="http://www.w3.org/2000/svg">
<path d="M13.8387 3.05523C13.0921 2.319 12.0856 1.90625 11.0371 1.90625C9.98856 1.90625 8.98216 2.319 8.23556 3.05523L2.47856 8.81223C1.73554 9.55524 1.31812 10.563 1.31812 11.6138C1.31812 12.6646 1.73554 13.6723 2.47856 14.4153C3.22157 15.1583 4.22932 15.5758 5.28011 15.5758C6.33089 15.5758 7.33864 15.1583 8.08166 14.4153L13.8387 8.65833C14.5749 7.91172 14.9876 6.90532 14.9876 5.85678C14.9876 4.80823 14.5749 3.80183 13.8387 3.05523ZM7.28366 13.6002C6.75273 14.1205 6.03792 14.4103 5.29456 14.4065C4.5512 14.4028 3.83935 14.1058 3.31371 13.5802C2.78806 13.0545 2.4911 12.3427 2.48734 11.5993C2.48359 10.856 2.77335 10.1412 3.29366 9.61023L5.76746 7.13358L9.75745 11.1236L7.28366 13.6002Z" fill="#929299"/>
</svg>
