<svg width="17" height="16" viewBox="0 0 17 16" fill="none" xmlns="http://www.w3.org/2000/svg">
<path d="M14.7092 2.12843V13.8762C14.7092 14.0117 14.6507 14.1416 14.5465 14.2374C14.4423 14.3332 14.301 14.387 14.1537 14.387C14.0064 14.387 13.865 14.3332 13.7609 14.2374C13.6567 14.1416 13.5981 14.0117 13.5981 13.8762V10.8116H10.2649C10.1175 10.8116 9.97621 10.7578 9.87203 10.662C9.76784 10.5662 9.70931 10.4363 9.70931 10.3008C9.73511 9.07729 9.90319 7.85983 10.2107 6.6692C10.8898 4.08406 12.1773 2.35126 13.9349 1.65916C14.0194 1.62589 14.1116 1.61241 14.2031 1.61992C14.2946 1.62744 14.3827 1.65572 14.4595 1.70222C14.5362 1.74872 14.5992 1.812 14.6428 1.88639C14.6864 1.96077 14.7092 2.04394 14.7092 2.12843ZM8.03503 2.0448C8.02415 1.97773 7.99885 1.91332 7.96061 1.85534C7.92237 1.79735 7.87196 1.74695 7.81231 1.70707C7.75267 1.66718 7.68498 1.63862 7.6132 1.62304C7.54141 1.60746 7.46698 1.60518 7.39423 1.61632C7.32148 1.62747 7.25187 1.65183 7.18946 1.68797C7.12706 1.72411 7.0731 1.77131 7.03075 1.82683C6.98839 1.88234 6.95849 1.94505 6.94277 2.01131C6.92705 2.07756 6.92584 2.14603 6.93921 2.21271L7.47948 5.19307H5.82048V2.12843C5.82048 1.99297 5.76194 1.86305 5.65776 1.76726C5.55357 1.67148 5.41227 1.61766 5.26493 1.61766C5.11759 1.61766 4.97628 1.67148 4.8721 1.76726C4.76791 1.86305 4.70938 1.99297 4.70938 2.12843V5.19307H3.05038L3.59065 2.21271C3.60401 2.14603 3.6028 2.07756 3.58708 2.01131C3.57137 1.94505 3.54146 1.88234 3.49911 1.82683C3.45675 1.77131 3.4028 1.72411 3.34039 1.68797C3.27799 1.65183 3.20838 1.62747 3.13563 1.61632C3.06288 1.60518 2.98844 1.60746 2.91666 1.62304C2.84488 1.63862 2.77719 1.66718 2.71754 1.70707C2.65789 1.74695 2.60748 1.79735 2.56924 1.85534C2.531 1.91332 2.50571 1.97773 2.49483 2.0448L1.93928 5.10943C1.93429 5.13708 1.93174 5.16505 1.93164 5.19307C1.93275 5.91697 2.21214 6.61721 2.72043 7.17005C3.22872 7.7229 3.9332 8.09276 4.70938 8.21429V13.8762C4.70938 14.0117 4.76791 14.1416 4.8721 14.2374C4.97628 14.3332 5.11759 14.387 5.26493 14.387C5.41227 14.387 5.55357 14.3332 5.65776 14.2374C5.76194 14.1416 5.82048 14.0117 5.82048 13.8762V8.21429C6.59666 8.09276 7.30114 7.7229 7.80943 7.17005C8.31772 6.61721 8.5971 5.91697 8.59821 5.19307C8.59812 5.16505 8.59556 5.13708 8.59058 5.10943L8.03503 2.0448Z" fill="#8A8FA4"/>
</svg>
