<svg width="21" height="21" viewBox="0 0 21 21" fill="none" xmlns="http://www.w3.org/2000/svg">
<g opacity="0.9" clip-path="url(#clip0_772_53154)">
<path fill-rule="evenodd" clip-rule="evenodd" d="M10.018 17.6952L10.0152 17.6938L10.0097 17.691L9.9909 17.6815C9.97504 17.6733 9.95243 17.6617 9.92355 17.6465C9.86581 17.6162 9.7829 17.5719 9.67853 17.5141C9.46988 17.3986 9.17453 17.2287 8.82145 17.0081C8.11675 16.5677 7.17408 15.9199 6.22799 15.0921C4.36635 13.4631 2.34326 11.0058 2.34326 7.95383C2.34326 6.91386 2.65239 5.75093 3.35645 4.83024C4.0786 3.88589 5.19736 3.22656 6.70691 3.22656C8.20709 3.22656 9.2845 3.87488 9.97293 4.51034C10.1113 4.6381 10.2346 4.76575 10.3433 4.88823C10.4519 4.76575 10.5752 4.6381 10.7136 4.51034C11.402 3.87488 12.4795 3.22656 13.9796 3.22656C15.4892 3.22656 16.6079 3.88589 17.3301 4.83024C18.0341 5.75093 18.3433 6.91386 18.3433 7.95383C18.3433 11.0058 16.3201 13.4631 14.4585 15.0921C13.5124 15.9199 12.5698 16.5677 11.8651 17.0081C11.512 17.2287 11.2167 17.3986 11.008 17.5141C10.9036 17.5719 10.8207 17.6162 10.763 17.6465C10.7341 17.6617 10.7116 17.6733 10.6956 17.6815L10.6769 17.691L10.6714 17.6938L10.6685 17.6952C10.4638 17.7976 10.2228 17.7976 10.018 17.6952Z" fill="#929299"/>
<path fill-rule="evenodd" clip-rule="evenodd" d="M6.6323 7.55469C6.8702 7.55469 7.08414 7.69953 7.1725 7.92042L8.37775 10.9335L9.11753 9.08406C9.20591 8.86317 9.41985 8.71832 9.65775 8.71832C9.89566 8.71832 10.1096 8.86317 10.198 9.08406L10.7498 10.4638H11.2868C11.6082 10.4638 11.8687 10.7243 11.8687 11.0456C11.8687 11.3669 11.6082 11.6274 11.2868 11.6274H10.3559C10.118 11.6274 9.90409 11.4825 9.81572 11.2617L9.65775 10.8667L8.91797 12.7162C8.82959 12.9371 8.61566 13.082 8.37775 13.082C8.13985 13.082 7.92591 12.9371 7.83753 12.7162L6.6323 9.70311L6.00887 11.2617C5.92051 11.4825 5.70657 11.6274 5.46866 11.6274H3.14139C2.82006 11.6274 2.55957 11.3669 2.55957 11.0456C2.55957 10.7243 2.82006 10.4638 3.14139 10.4638H5.07475L6.09209 7.92042C6.18045 7.69953 6.39439 7.55469 6.6323 7.55469Z" fill="white"/>
</g>
<defs>
<clipPath id="clip0_772_53154">
<rect width="16" height="15.9999" fill="white" transform="translate(2.10254 2.49609)"/>
</clipPath>
</defs>
</svg>
