<svg width="17" height="16" viewBox="0 0 17 16" fill="none" xmlns="http://www.w3.org/2000/svg">
<g clip-path="url(#clip0_981_100894)">
<path d="M14.8031 4.9711C14.7416 4.72929 14.6627 4.46713 14.4803 4.24643C14.275 3.99798 13.9966 3.87152 13.751 3.75992C13.6003 3.69148 13.458 3.62683 13.3669 3.54904C13.2765 3.47186 13.1896 3.34096 13.0976 3.20239C12.9467 2.97525 12.7758 2.71783 12.4985 2.55473C12.2236 2.39307 11.9202 2.37078 11.6524 2.35108C11.4869 2.33891 11.3306 2.3274 11.217 2.28537C11.1083 2.24513 10.9837 2.15335 10.8519 2.05618C10.6325 1.89446 10.3838 1.71118 10.0649 1.65443C9.75563 1.59937 9.46525 1.68361 9.20895 1.75789C9.04749 1.80469 8.89498 1.84891 8.77109 1.84891C8.6472 1.84891 8.49471 1.80471 8.33322 1.75789C8.07692 1.68361 7.78646 1.59948 7.47724 1.65443C7.15846 1.71118 6.90973 1.89446 6.69027 2.05618C6.55844 2.15335 6.43391 2.24513 6.32513 2.28537C6.2116 2.32737 6.05527 2.33889 5.88974 2.35105C5.62202 2.37075 5.31862 2.39307 5.04375 2.5547C4.76645 2.7178 4.59547 2.97522 4.44465 3.20236C4.35263 3.34093 4.26572 3.47183 4.17529 3.54902C4.08422 3.62677 3.94189 3.69143 3.79124 3.75987C3.5456 3.87146 3.26719 3.99793 3.06186 4.2464C2.8795 4.46707 2.80053 4.72926 2.73909 4.97107H1.66309V6.09803C1.66309 8.0279 2.40246 9.84225 3.74495 11.2069C4.41571 11.8887 5.1969 12.4174 6.04756 12.7759V14.3553H11.4946V12.7759C12.3452 12.4174 13.1265 11.8887 13.7972 11.2069C15.1397 9.84231 15.8791 8.02793 15.8791 6.09806V4.9711H14.8031ZM5.37102 10.4145C4.3674 9.59623 3.67865 8.44384 3.43156 7.16968L4.24882 7.00593C4.45797 8.08451 5.04161 9.06048 5.89223 9.75405L5.37102 10.4145ZM3.60723 4.9711C3.633 4.89831 3.66257 4.83591 3.69969 4.79098C3.78188 4.69153 3.9515 4.61448 4.13112 4.53289C4.31837 4.44782 4.53064 4.35139 4.71106 4.19735C4.89087 4.04384 5.02059 3.84846 5.13507 3.67605C5.24541 3.50993 5.34958 3.35304 5.4609 3.28756C5.56988 3.22347 5.75443 3.20989 5.94985 3.19553C6.15501 3.18043 6.38749 3.16333 6.61006 3.08097C6.82841 3.00017 7.01477 2.86284 7.1792 2.74168C7.33985 2.62329 7.49159 2.51147 7.62092 2.48844C7.7419 2.46687 7.91815 2.51801 8.10479 2.57215C8.30443 2.63 8.53075 2.69559 8.77106 2.69559C9.01137 2.69559 9.23769 2.63 9.43732 2.57215C9.62402 2.51804 9.80025 2.46687 9.92122 2.48844C10.0505 2.51144 10.2023 2.62329 10.3629 2.74168C10.5273 2.86284 10.7137 3.0002 10.932 3.08097C11.1547 3.16335 11.3872 3.18046 11.5923 3.19556C11.7877 3.20992 11.9723 3.2235 12.0812 3.28759C12.1926 3.35307 12.2968 3.50996 12.4071 3.67608C12.5216 3.84846 12.6513 4.04387 12.8311 4.19738C13.0115 4.35142 13.2238 4.44785 13.411 4.53292C13.5906 4.61451 13.7603 4.69158 13.8425 4.79101C13.8796 4.83594 13.9091 4.89834 13.9349 4.9711H3.60723Z" fill="url(#paint0_linear_981_100894)"/>
</g>
<defs>
<linearGradient id="paint0_linear_981_100894" x1="8.77109" y1="14.3553" x2="6.23541" y2="2.15672" gradientUnits="userSpaceOnUse">
<stop stop-color="#997DEF"/>
<stop offset="0.740978" stop-color="#62B6EF"/>
</linearGradient>
<clipPath id="clip0_981_100894">
<rect width="13.44" height="13.4394" fill="white" transform="translate(2.0498 1.28125)"/>
</clipPath>
</defs>
</svg>
