<svg width="25" height="25" viewBox="0 0 25 25" fill="none" xmlns="http://www.w3.org/2000/svg">
<path fill-rule="evenodd" clip-rule="evenodd" d="M5.04956 6.255C5.04956 4.25021 6.67477 2.625 8.67956 2.625H15.9396C17.9443 2.625 19.5696 4.25021 19.5696 6.255V15.7837C19.5696 19.5427 16.5223 22.59 12.7633 22.59H11.8558C8.09682 22.59 5.04956 19.5427 5.04956 15.7837V6.255ZM9.13331 4.89375C8.13091 4.89375 7.31831 5.70635 7.31831 6.70875V13.9687C7.31831 14.9712 8.13091 15.7837 9.13331 15.7837H15.4858C16.4882 15.7837 17.3008 14.9712 17.3008 13.9687V6.70875C17.3008 5.70635 16.4882 4.89375 15.4858 4.89375H9.13331ZM12.3096 8.07L12.9338 7.41131C12.5837 7.07956 12.0354 7.07956 11.6853 7.41131L12.3096 8.07ZM12.3096 8.07C11.6853 7.41131 11.6853 7.41131 11.6853 7.41131L11.6842 7.41234L11.6825 7.414L11.677 7.4192L11.6586 7.4369C11.6431 7.45187 11.6213 7.47312 11.594 7.50004C11.5395 7.55381 11.463 7.63054 11.3718 7.72536C11.1904 7.91397 10.9461 8.1791 10.6993 8.48115C10.4553 8.77976 10.193 9.13374 9.98738 9.499C9.79542 9.83994 9.58706 10.3032 9.58706 10.7925C9.58706 12.2961 10.8059 13.515 12.3096 13.515C13.8132 13.515 15.0321 12.2961 15.0321 10.7925C15.0321 10.3032 14.8237 9.83994 14.6318 9.499C14.4261 9.13374 14.1638 8.77976 13.9198 8.48115C13.673 8.1791 13.4287 7.91397 13.2473 7.72536C13.1561 7.63054 13.0796 7.55381 13.0251 7.50004C12.9978 7.47312 12.976 7.45187 12.9605 7.4369L12.9421 7.4192L12.9366 7.414L12.9349 7.41234L12.9338 7.41131C12.9338 7.41131 12.9338 7.41131 12.3096 8.07ZM10.9483 18.96H8.67956V17.145H10.9483V18.96ZM13.6708 18.96H15.9396V17.145H13.6708V18.96Z" fill="#F66754"/>
<path fill-rule="evenodd" clip-rule="evenodd" d="M5.04956 6.255C5.04956 4.25021 6.67477 2.625 8.67956 2.625H15.9396C17.9443 2.625 19.5696 4.25021 19.5696 6.255V15.7837C19.5696 19.5427 16.5223 22.59 12.7633 22.59H11.8558C8.09682 22.59 5.04956 19.5427 5.04956 15.7837V6.255ZM9.13331 4.89375C8.13091 4.89375 7.31831 5.70635 7.31831 6.70875V13.9687C7.31831 14.9712 8.13091 15.7837 9.13331 15.7837H15.4858C16.4882 15.7837 17.3008 14.9712 17.3008 13.9687V6.70875C17.3008 5.70635 16.4882 4.89375 15.4858 4.89375H9.13331ZM12.3096 8.07L12.9338 7.41131C12.5837 7.07956 12.0354 7.07956 11.6853 7.41131L12.3096 8.07ZM10.9483 18.96H8.67956V17.145H10.9483V18.96ZM13.6708 18.96H15.9396V17.145H13.6708V18.96Z" fill="#7C83A7"/>
</svg>
