<svg width="17" height="17" viewBox="0 0 17 17" fill="none" xmlns="http://www.w3.org/2000/svg">
<path d="M11.9249 5.2003C13.5155 5.2003 14.8049 6.48971 14.8049 8.08031C14.8049 9.57875 13.6606 10.8099 12.1981 10.9475C11.7449 12.8052 9.59281 14.3803 7.42494 14.3803C7.41002 14.3803 7.3951 14.3794 7.38028 14.3775C5.73171 14.1715 2.56494 8.4411 2.56494 5.92031C2.56494 3.75404 3.37532 2.32031 4.36494 2.32031C4.73771 2.32031 5.34251 2.50642 6.22406 2.87759C6.62453 3.04623 6.88494 3.43843 6.88494 3.87295V4.39533C6.88494 4.80441 6.65382 5.17838 6.28793 5.36131L6.26001 5.37381L4.74887 5.975C4.90333 6.77639 5.8024 7.98521 7.35487 9.50285C7.60063 8.69958 8.23782 8.06023 9.05644 7.82126C9.1874 6.35205 10.4217 5.2003 11.9249 5.2003Z" fill="#BEBEC7"/>
</svg>
