<svg width="69" height="30" viewBox="0 0 69 30" fill="none" xmlns="http://www.w3.org/2000/svg">
<g filter="url(#filter0_d_693_79782)">
<rect x="1.5" y="0.445312" width="66" height="27" rx="8" fill="white"/>
<rect x="1.5" y="0.445312" width="66" height="27" rx="8" fill="#FF9A49"/>
<rect x="2" y="0.945312" width="65" height="26" rx="7.5" stroke="url(#paint0_linear_693_79782)"/>
<g filter="url(#filter1_d_693_79782)">
<path d="M37.4675 17.3468C37.5161 15.079 37.5161 12.8112 37.4675 10.5434C37.4312 8.93663 36.0494 7.59838 34.4175 7.56527C27.5092 7.43788 17.3612 7.43788 10.4529 7.56526C8.82104 7.59837 7.43925 8.93663 7.40303 10.5434C7.35443 12.8112 7.35443 15.079 7.40303 17.3468C7.43931 18.9536 8.82104 20.2919 10.4529 20.3249C17.3612 20.4523 27.5092 20.4523 34.4175 20.3249C36.0494 20.2918 37.4312 18.9536 37.4675 17.3468Z" fill="#4A4D54"/>
<path d="M8.39639 10.5312C8.41835 9.45698 9.335 8.56495 10.4251 8.54668C17.3519 8.43887 27.5184 8.43887 34.4452 8.54668C35.5352 8.56489 36.4519 9.45698 36.4738 10.5312C36.5188 12.8071 36.5188 15.083 36.4738 17.3588C36.4519 18.433 35.5352 19.3251 34.4452 19.3433C27.5184 19.4512 17.3519 19.4512 10.4251 19.3433C9.33506 19.3251 8.41835 18.433 8.39638 17.3588C8.35142 15.0829 8.35142 12.8071 8.39639 10.5312Z" fill="#6A6C72"/>
<path d="M9.38966 17.3699C9.34826 15.0865 9.34826 12.8032 9.38966 10.5199C9.39964 9.97973 9.85424 9.53531 10.4017 9.52805C17.3439 9.43987 24.2862 9.43987 31.2284 9.52805C31.7759 9.53531 32.2305 9.97973 32.2404 10.5199C32.2818 12.8032 32.2818 15.0866 32.2404 17.3699C32.2305 17.9101 31.7759 18.3544 31.2284 18.3617C24.2862 18.4499 17.3439 18.4499 10.4017 18.3617C9.85424 18.3544 9.39964 17.91 9.38966 17.3699Z" fill="#4A4D54"/>
<path d="M9.3897 17.3699C9.3483 15.0865 9.3483 12.8032 9.3897 10.5199C9.39968 9.97973 9.85427 9.53531 10.4017 9.52805C17.344 9.43987 27.5259 9.43987 34.4682 9.52805C35.0157 9.53531 35.4703 9.97973 35.4802 10.5199C35.5216 12.8032 35.5216 15.0866 35.4802 17.3699C35.4703 17.9101 35.0156 18.3544 34.4682 18.3617C27.5259 18.4499 17.344 18.4499 10.4017 18.3617C9.85427 18.3544 9.39968 17.91 9.3897 17.3699Z" fill="#5C5F66"/>
<path d="M13.0332 16.6168C11.5521 16.6066 10.3313 15.408 10.3309 13.9447C10.3313 12.4814 11.5521 11.2828 13.0332 11.2725C14.5146 11.263 15.7096 12.4615 15.7104 13.9447C15.7096 15.4279 14.5146 16.6263 13.0332 16.6168Z" fill="#3D3F45"/>
<path d="M12.1262 14.8336C12.121 13.3626 13.3352 12.163 14.8183 12.1575C14.8923 12.1573 14.9652 12.1609 15.0376 12.1665C14.5475 11.6136 13.8331 11.2678 13.0337 11.2725C11.5526 11.2828 10.3318 12.4813 10.3314 13.9447C10.3317 15.3354 11.4345 16.4852 12.8145 16.6059C12.3898 16.132 12.1286 15.512 12.1262 14.8336Z" fill="#34363B"/>
<path d="M25.5607 16.6168C24.0792 16.6264 22.8842 15.4279 22.8834 13.9447C22.8842 12.4616 24.0791 11.263 25.5607 11.2725C27.0418 11.2828 28.2625 12.4813 28.2629 13.9447C28.2626 15.408 27.0418 16.6065 25.5607 16.6168Z" fill="#FF8928"/>
<path d="M25.5607 16.6168C24.0792 16.6264 22.8842 15.4279 22.8834 13.9447C22.8842 12.4616 24.0791 11.263 25.5607 11.2725C27.0418 11.2828 28.2625 12.4813 28.2629 13.9447C28.2626 15.408 27.0418 16.6065 25.5607 16.6168Z" fill="url(#paint1_radial_693_79782)" style="mix-blend-mode:screen"/>
<path d="M24.6752 14.8369C24.6797 13.3573 25.8754 12.1621 27.359 12.1709C27.4329 12.1713 27.5059 12.1754 27.5784 12.1815C27.0814 11.6299 26.3597 11.2771 25.5604 11.2725C24.079 11.263 22.884 12.4615 22.8832 13.9447C22.8838 15.3538 23.9633 16.5057 25.3414 16.6084C24.9256 16.1389 24.6734 15.5181 24.6752 14.8369Z" fill="#FF722B" fill-opacity="0.3"/>
<path d="M31.8368 16.6168C30.3553 16.6264 29.1603 15.4279 29.1595 13.9447C29.1603 12.4616 30.3553 11.263 31.8368 11.2725C33.3179 11.2828 34.5387 12.4813 34.5391 13.9447C34.5387 15.408 33.318 16.6065 31.8368 16.6168Z" fill="#3D3F45"/>
<path d="M30.9513 14.8369C30.9558 13.3573 32.1515 12.1621 33.6351 12.1709C33.709 12.1713 33.7821 12.1754 33.8545 12.1815C33.3575 11.6299 32.6358 11.2771 31.8366 11.2725C30.3551 11.263 29.1601 12.4615 29.1593 13.9447C29.1599 15.3538 30.2394 16.5057 31.6175 16.6084C31.2017 16.1389 30.9495 15.5181 30.9513 14.8369Z" fill="#34363B"/>
<path d="M31.8371 16.5397C30.3556 16.5492 29.1606 15.3507 29.1598 13.8675C29.1606 12.3844 30.3555 11.1859 31.8371 11.1954C33.3181 11.2057 34.5389 12.4042 34.5393 13.8675C34.539 15.3308 33.3182 16.5294 31.8371 16.5397Z" fill="#3D3F45"/>
<path d="M19.297 16.6344C17.8157 16.6341 16.6079 15.4277 16.6073 13.9447C16.6079 12.4616 17.8157 11.2552 19.297 11.2549C20.7784 11.2552 21.9862 12.4616 21.9868 13.9447C21.9862 15.4276 20.7783 16.6341 19.297 16.6344Z" fill="#3D3F45"/>
<path d="M18.4003 14.8411C18.4 13.3561 19.6049 12.1507 21.0883 12.1524C21.1622 12.1525 21.2352 12.1564 21.3076 12.1623C20.814 11.6065 20.096 11.2548 19.2967 11.2549C17.8154 11.2552 16.6075 12.4616 16.6069 13.9447C16.6073 15.3538 17.6985 16.5123 19.0776 16.6247C18.6573 16.1498 18.4006 15.5254 18.4003 14.8411Z" fill="#34363B"/>
</g>
<g filter="url(#filter2_d_693_79782)">
<path d="M45.9971 12.6596C45.5164 13.1729 44.9216 13.5762 44.2127 13.8696C43.512 14.1547 42.7623 14.3055 41.9638 14.3218V12.8429C42.7216 12.8103 43.4101 12.6188 44.0294 12.2685C44.6568 11.9181 45.0886 11.4577 45.3249 10.8873H42.1227V9.42067H50.1282V10.8873H47.036C47.0034 11.0503 46.9423 11.2377 46.8527 11.4496L50.4705 12.9773L49.8716 14.3218L45.9971 12.6596ZM46.9138 16.6196V18.8807H45.3494V16.6196H41.6338V15.1162H50.6294V16.6196H46.9138ZM58.3128 18.6607V9.27401H59.8406V18.6607H58.3128ZM54.3772 9.37178C54.915 9.37178 55.3958 9.49808 55.8195 9.75067C56.2513 10.0033 56.5854 10.3577 56.8217 10.814C57.0661 11.2703 57.1883 11.7959 57.1883 12.3907C57.1883 12.9855 57.0661 13.5151 56.8217 13.9796C56.5854 14.4359 56.2513 14.7903 55.8195 15.0429C55.3958 15.2955 54.915 15.4218 54.3772 15.4218C53.8313 15.4218 53.3424 15.2955 52.9106 15.0429C52.4787 14.7903 52.1406 14.4359 51.8961 13.9796C51.6598 13.5151 51.5417 12.9855 51.5417 12.3907C51.5417 11.7959 51.6598 11.2703 51.8961 10.814C52.1406 10.3577 52.4787 10.0033 52.9106 9.75067C53.3424 9.49808 53.8313 9.37178 54.3772 9.37178ZM54.3772 10.8262C53.9698 10.8262 53.6439 10.977 53.3995 11.2785C53.1632 11.5718 53.045 11.9425 53.045 12.3907C53.045 12.8551 53.1632 13.234 53.3995 13.5273C53.6439 13.8125 53.9698 13.9551 54.3772 13.9551C54.7765 13.9551 55.0983 13.8085 55.3428 13.5151C55.5872 13.2218 55.7095 12.847 55.7095 12.3907C55.7095 11.9425 55.5872 11.5718 55.3428 11.2785C55.0983 10.977 54.7765 10.8262 54.3772 10.8262ZM57.7261 17.7807C57.4491 17.911 57.0824 18.0129 56.6261 18.0862C56.1698 18.1514 55.6809 18.184 55.1595 18.184H51.285V16.6685H55.2206C55.7176 16.6685 56.1861 16.6359 56.6261 16.5707C57.0743 16.5055 57.4409 16.4077 57.7261 16.2773V17.7807Z" fill="white"/>
</g>
</g>
<defs>
<filter id="filter0_d_693_79782" x="0.684211" y="0.445312" width="67.6316" height="28.6316" filterUnits="userSpaceOnUse" color-interpolation-filters="sRGB">
<feFlood flood-opacity="0" result="BackgroundImageFix"/>
<feColorMatrix in="SourceAlpha" type="matrix" values="0 0 0 0 0 0 0 0 0 0 0 0 0 0 0 0 0 0 127 0" result="hardAlpha"/>
<feOffset dy="0.815789"/>
<feGaussianBlur stdDeviation="0.407895"/>
<feComposite in2="hardAlpha" operator="out"/>
<feColorMatrix type="matrix" values="0 0 0 0 0 0 0 0 0 0 0 0 0 0 0 0 0 0 0.4 0"/>
<feBlend mode="normal" in2="BackgroundImageFix" result="effect1_dropShadow_693_79782"/>
<feBlend mode="normal" in="SourceGraphic" in2="effect1_dropShadow_693_79782" result="shape"/>
</filter>
<filter id="filter1_d_693_79782" x="4.8958" y="4.99882" width="35.079" height="17.893" filterUnits="userSpaceOnUse" color-interpolation-filters="sRGB">
<feFlood flood-opacity="0" result="BackgroundImageFix"/>
<feColorMatrix in="SourceAlpha" type="matrix" values="0 0 0 0 0 0 0 0 0 0 0 0 0 0 0 0 0 0 127 0" result="hardAlpha"/>
<feOffset/>
<feGaussianBlur stdDeviation="1.23545"/>
<feComposite in2="hardAlpha" operator="out"/>
<feColorMatrix type="matrix" values="0 0 0 0 0 0 0 0 0 0 0 0 0 0 0 0 0 0 0.26 0"/>
<feBlend mode="multiply" in2="BackgroundImageFix" result="effect1_dropShadow_693_79782"/>
<feBlend mode="normal" in="SourceGraphic" in2="effect1_dropShadow_693_79782" result="shape"/>
</filter>
<filter id="filter2_d_693_79782" x="39.6338" y="7.27441" width="22.2068" height="13.6064" filterUnits="userSpaceOnUse" color-interpolation-filters="sRGB">
<feFlood flood-opacity="0" result="BackgroundImageFix"/>
<feColorMatrix in="SourceAlpha" type="matrix" values="0 0 0 0 0 0 0 0 0 0 0 0 0 0 0 0 0 0 127 0" result="hardAlpha"/>
<feOffset/>
<feGaussianBlur stdDeviation="1"/>
<feComposite in2="hardAlpha" operator="out"/>
<feColorMatrix type="matrix" values="0 0 0 0 0 0 0 0 0 0 0 0 0 0 0 0 0 0 0.26 0"/>
<feBlend mode="multiply" in2="BackgroundImageFix" result="effect1_dropShadow_693_79782"/>
<feBlend mode="normal" in="SourceGraphic" in2="effect1_dropShadow_693_79782" result="shape"/>
</filter>
<linearGradient id="paint0_linear_693_79782" x1="16.7197" y1="-1.36335" x2="21.8661" y2="31.5847" gradientUnits="userSpaceOnUse">
<stop stop-color="white"/>
<stop offset="0.368309" stop-color="white" stop-opacity="0.8"/>
<stop offset="0.609213" stop-color="white"/>
<stop offset="0.986634" stop-color="white" stop-opacity="0.9"/>
</linearGradient>
<radialGradient id="paint1_radial_693_79782" cx="0" cy="0" r="1" gradientUnits="userSpaceOnUse" gradientTransform="translate(25.5732 13.9447) rotate(90) scale(2.67221 2.68977)">
<stop offset="0.215" stop-color="#FF9A72"/>
<stop offset="1" stop-color="#4F0000"/>
</radialGradient>
</defs>
</svg>
