<svg width="41" height="41" viewBox="0 0 41 41" fill="none" xmlns="http://www.w3.org/2000/svg">
<path d="M40.6019 37.4455C40.595 38.1134 40.392 38.7646 40.018 39.3181C39.6441 39.8716 39.1158 40.303 38.4987 40.5587C37.8816 40.8144 37.2029 40.8831 36.5471 40.7563C35.8913 40.6295 35.2872 40.3128 34.8099 39.8455L26.2019 31.2375L31.0019 26.4375L39.6099 35.0455C39.9255 35.3602 40.1756 35.7344 40.3459 36.1463C40.5162 36.5582 40.6032 36.9998 40.6019 37.4455Z" fill="#DDDDDD"/>
<path d="M28.2729 24.3684L24.1321 28.5093C23.5073 29.1341 23.5073 30.1472 24.1321 30.772L25.0711 31.711C25.696 32.3359 26.709 32.3359 27.3339 31.711L31.4747 27.5702C32.0995 26.9454 32.0995 25.9323 31.4747 25.3075L30.5357 24.3684C29.9108 23.7436 28.8978 23.7436 28.2729 24.3684Z" fill="#BEBEC7"/>
<path d="M16.6018 32.8359C25.4383 32.8359 32.6018 25.6725 32.6018 16.8359C32.6018 7.99937 25.4383 0.835938 16.6018 0.835938C7.76524 0.835938 0.601807 7.99937 0.601807 16.8359C0.601807 25.6725 7.76524 32.8359 16.6018 32.8359Z" fill="#D5D8E0"/>
<path d="M16.602 29.6351C23.6712 29.6351 29.402 23.9044 29.402 16.8351C29.402 9.76591 23.6712 4.03516 16.602 4.03516C9.53275 4.03516 3.802 9.76591 3.802 16.8351C3.802 23.9044 9.53275 29.6351 16.602 29.6351Z" fill="#F4F7FA"/>
<path d="M16.6018 20.0332C14.3138 20.0332 14.4738 16.0172 17.1138 15.1532C17.3924 15.0591 17.6398 14.8899 17.8286 14.6644C18.0174 14.4389 18.1404 14.1657 18.1841 13.8749C18.2277 13.584 18.1904 13.2868 18.0761 13.0158C17.9619 12.7447 17.7751 12.5105 17.5364 12.3387C17.2977 12.1669 17.0162 12.0642 16.723 12.0419C16.4297 12.0196 16.136 12.0786 15.874 12.2124C15.6121 12.3462 15.3921 12.5495 15.2382 12.8002C15.0844 13.0508 15.0026 13.3391 15.0018 13.6332C15.0018 14.0575 14.8332 14.4645 14.5332 14.7645C14.2331 15.0646 13.8261 15.2332 13.4018 15.2332C10.3458 15.2332 11.8018 8.83317 16.6018 8.83317C17.7523 8.80808 18.8736 9.19717 19.7613 9.92957C20.6489 10.662 21.2439 11.6889 21.4378 12.8232C21.6318 13.9576 21.4117 15.1239 20.8177 16.1095C20.2237 17.0952 19.2953 17.8347 18.2018 18.1932V18.4332C18.2018 18.8575 18.0332 19.2645 17.7332 19.5645C17.4331 19.8646 17.0261 20.0332 16.6018 20.0332Z" fill="#C0C3C5"/>
<path d="M16.6017 24.8406C16.2853 24.8406 15.9759 24.7468 15.7128 24.571C15.4497 24.3952 15.2446 24.1453 15.1235 23.8529C15.0024 23.5606 14.9707 23.2388 15.0325 22.9285C15.0942 22.6181 15.2466 22.333 15.4703 22.1093C15.6941 21.8855 15.9792 21.7331 16.2896 21.6714C16.5999 21.6096 16.9216 21.6413 17.214 21.7624C17.5064 21.8835 17.7562 22.0886 17.9321 22.3517C18.1079 22.6148 18.2017 22.9242 18.2017 23.2406C18.2017 23.665 18.0331 24.0719 17.7331 24.372C17.433 24.6721 17.0261 24.8406 16.6017 24.8406Z" fill="#C0C3C5"/>
</svg>
