<svg width="33" height="33" viewBox="0 0 33 33" fill="none" xmlns="http://www.w3.org/2000/svg">
<g clip-path="url(#clip0_764_62942)">
<path d="M12.3599 15.2607C13.1883 15.2607 13.8599 14.5892 13.8599 13.7607C13.8599 12.9323 13.1883 12.2607 12.3599 12.2607C11.5314 12.2607 10.8599 12.9323 10.8599 13.7607C10.8599 14.5892 11.5314 15.2607 12.3599 15.2607Z" fill="white"/>
<path d="M21.3599 15.2607C22.1883 15.2607 22.8599 14.5892 22.8599 13.7607C22.8599 12.9323 22.1883 12.2607 21.3599 12.2607C20.5314 12.2607 19.8599 12.9323 19.8599 13.7607C19.8599 14.5892 20.5314 15.2607 21.3599 15.2607Z" fill="white"/>
<path d="M21.8599 22.2607C20.8224 20.467 19.0811 19.2607 16.8599 19.2607C14.6386 19.2607 12.8974 20.467 11.8599 22.2607" stroke="white" stroke-width="2.33333" stroke-linecap="round" stroke-linejoin="round"/>
<path d="M16.8599 32.2598C25.6964 32.2598 32.8599 25.0963 32.8599 16.2598C32.8599 7.42321 25.6964 0.259766 16.8599 0.259766C8.02331 0.259766 0.859863 7.42321 0.859863 16.2598C0.859863 25.0963 8.02331 32.2598 16.8599 32.2598Z" fill="url(#paint0_linear_764_62942)"/>
<path d="M13.4122 22.5846C13.2985 22.5846 13.1863 22.5587 13.0841 22.5091C12.9818 22.4594 12.8922 22.3872 12.8219 22.2978C12.7516 22.2085 12.7025 22.1044 12.6783 21.9933C12.6542 21.8822 12.6555 21.7671 12.6822 21.6566C13.0922 19.9696 14.9072 18.7451 16.9979 18.7451C19.0952 18.7451 20.8652 19.9237 21.3022 21.6114C21.3521 21.8041 21.3233 22.0088 21.2224 22.1803C21.1214 22.3519 20.9564 22.4763 20.7637 22.5262C20.5709 22.5761 20.3663 22.5474 20.1948 22.4464C20.0232 22.3454 19.8988 22.1804 19.8489 21.9877C19.5876 20.9786 18.3886 20.2463 16.9979 20.2463C15.6136 20.2463 14.3854 21.005 14.141 22.0111C14.1012 22.1745 14.0078 22.3198 13.8757 22.4238C13.7435 22.5278 13.5803 22.5844 13.4122 22.5846Z" fill="#414D4D"/>
<path d="M14.1583 16.219C14.9032 16.219 15.5071 15.6152 15.5071 14.8703C15.5071 14.1253 14.9032 13.5215 14.1583 13.5215C13.4134 13.5215 12.8096 14.1253 12.8096 14.8703C12.8096 15.6152 13.4134 16.219 14.1583 16.219Z" fill="#414D4D"/>
<path d="M19.8288 16.219C20.5737 16.219 21.1775 15.6152 21.1775 14.8703C21.1775 14.1253 20.5737 13.5215 19.8288 13.5215C19.0838 13.5215 18.48 14.1253 18.48 14.8703C18.48 15.6152 19.0838 16.219 19.8288 16.219Z" fill="#414D4D"/>
<path d="M15.0557 12.8822C14.9011 12.8822 14.7504 12.8344 14.6242 12.7452L11.5602 10.588C11.3974 10.4734 11.2868 10.2988 11.2528 10.1027C11.2187 9.90654 11.264 9.70491 11.3785 9.54214C11.4931 9.37936 11.6677 9.26878 11.8638 9.23471C12.06 9.20064 12.2616 9.24588 12.4244 9.36048L15.4884 11.5178C15.6188 11.6096 15.7166 11.7406 15.7675 11.8918C15.8185 12.043 15.8199 12.2064 15.7717 12.3585C15.7235 12.5105 15.628 12.6433 15.4993 12.7374C15.3705 12.8316 15.2152 12.8823 15.0557 12.8822Z" fill="#414D4D"/>
<path d="M18.9313 12.8822C18.7718 12.8823 18.6164 12.8316 18.4877 12.7374C18.3589 12.6432 18.2635 12.5105 18.2153 12.3584C18.1671 12.2064 18.1685 12.0429 18.2195 11.8918C18.2704 11.7406 18.3682 11.6096 18.4986 11.5178L21.5626 9.36048C21.7254 9.24588 21.927 9.20064 22.1232 9.23471C22.3193 9.26878 22.4939 9.37936 22.6085 9.54214C22.723 9.70491 22.7683 9.90654 22.7342 10.1027C22.7002 10.2988 22.5896 10.4734 22.4268 10.588L19.3628 12.7452C19.2366 12.8344 19.0859 12.8822 18.9313 12.8822Z" fill="#414D4D"/>
</g>
<defs>
<linearGradient id="paint0_linear_764_62942" x1="29.6689" y1="27.332" x2="3.74005" y2="4.91892" gradientUnits="userSpaceOnUse">
<stop offset="0.0056" stop-color="#FB7271"/>
<stop offset="1" stop-color="#FF9392"/>
</linearGradient>
<clipPath id="clip0_764_62942">
<rect width="32" height="32" fill="white" transform="translate(0.859863 0.260742)"/>
</clipPath>
</defs>
</svg>
