<svg width="33" height="33" viewBox="0 0 33 33" fill="none" xmlns="http://www.w3.org/2000/svg">
<path d="M16.1934 32.2607C25.0299 32.2607 32.1934 25.0973 32.1934 16.2607C32.1934 7.42418 25.0299 0.260742 16.1934 0.260742C7.3568 0.260742 0.193359 7.42418 0.193359 16.2607C0.193359 25.0973 7.3568 32.2607 16.1934 32.2607Z" fill="url(#paint0_linear_764_62918)"/>
<path d="M16.1891 21.8707C14.0919 21.8707 12.3219 20.6921 11.8848 19.0044C11.8601 18.909 11.8544 18.8097 11.8681 18.712C11.8818 18.6144 11.9146 18.5205 11.9646 18.4355C12.0146 18.3506 12.0808 18.2763 12.1595 18.217C12.2383 18.1576 12.3279 18.1144 12.4233 18.0897C12.5187 18.065 12.6181 18.0593 12.7157 18.073C12.8133 18.0867 12.9073 18.1195 12.9922 18.1695C13.0771 18.2195 13.1514 18.2857 13.2107 18.3644C13.2701 18.4431 13.3133 18.5328 13.3381 18.6282C13.5994 19.6372 14.7984 20.3696 16.1891 20.3696C17.5734 20.3696 18.8016 19.6108 19.0461 18.6046C19.0693 18.5088 19.1112 18.4186 19.1694 18.339C19.2276 18.2594 19.3008 18.192 19.385 18.1408C19.4692 18.0895 19.5627 18.0553 19.6601 18.0402C19.7575 18.025 19.8569 18.0292 19.9527 18.0525C20.0485 18.0758 20.1387 18.1177 20.2183 18.1758C20.2979 18.234 20.3652 18.3073 20.4165 18.3914C20.4678 18.4756 20.502 18.5691 20.5171 18.6665C20.5323 18.7639 20.5281 18.8633 20.5048 18.9591C20.0949 20.6462 18.2798 21.8707 16.1891 21.8707Z" fill="#414D4D"/>
<path d="M13.358 15.5052C14.103 15.5052 14.7068 14.9013 14.7068 14.1564C14.7068 13.4115 14.103 12.8076 13.358 12.8076C12.6131 12.8076 12.0093 13.4115 12.0093 14.1564C12.0093 14.9013 12.6131 15.5052 13.358 15.5052Z" fill="#414D4D"/>
<path d="M19.0294 15.5052C19.7743 15.5052 20.3782 14.9013 20.3782 14.1564C20.3782 13.4115 19.7743 12.8076 19.0294 12.8076C18.2845 12.8076 17.6807 13.4115 17.6807 14.1564C17.6807 14.9013 18.2845 15.5052 19.0294 15.5052Z" fill="#414D4D"/>
<defs>
<linearGradient id="paint0_linear_764_62918" x1="16.1934" y1="0.260742" x2="16.1934" y2="32.2607" gradientUnits="userSpaceOnUse">
<stop stop-color="#77E98C"/>
<stop offset="1" stop-color="#5CDC73"/>
</linearGradient>
</defs>
</svg>
