<svg width="57" height="57" viewBox="0 0 57 57" fill="none" xmlns="http://www.w3.org/2000/svg">
<rect x="1.87402" y="1.86328" width="54" height="54" rx="27" fill="#E7FAEF"/>
<rect x="1.87402" y="1.86328" width="54" height="54" rx="27" stroke="#0CC25A" stroke-width="2"/>
<path d="M22.7538 12.7344C22.5317 12.7343 22.3122 12.7829 22.1109 12.8769C21.9096 12.9709 21.7313 13.1079 21.5888 13.2783C21.4462 13.4486 21.3428 13.6482 21.2858 13.863C21.2287 14.0777 21.2196 14.3023 21.2588 14.521C21.5757 16.2896 22.4181 18.9632 24.6562 20.5992C27.584 22.739 27.4127 30.8045 23.699 31.9311C22.049 32.4316 18.7882 31.7735 16.9948 33.6236C16.8399 33.7821 16.6488 33.9003 16.4379 33.9681C15.7399 34.1957 14.1636 35.0723 14.3387 38.334C14.3918 39.3248 14.437 40.049 14.4717 40.5603C14.4909 40.8438 14.6171 41.1093 14.8247 41.3032C15.0324 41.4971 15.306 41.6048 15.5901 41.6045C15.8867 41.6039 16.171 41.486 16.381 41.2765C16.591 41.0671 16.7095 40.783 16.7108 40.4864C16.7188 39.58 16.8407 38.3414 17.3816 37.6351C17.4366 37.5619 17.5067 37.5015 17.5872 37.4579C17.6677 37.4143 17.7567 37.3886 17.848 37.3825C17.9393 37.3764 18.0309 37.3901 18.1165 37.4227C18.202 37.4552 18.2795 37.5058 18.3438 37.5711C19.3598 38.6169 22.5081 41.2633 27.6178 40.364C34.951 39.0734 42.344 28.6356 37.9833 21.0796C34.9855 15.8846 30.4899 16.7669 28.2036 17.4141C27.1275 17.7186 26.2093 17.1256 25.5023 16.2591C24.9113 15.5526 24.4731 14.7312 24.2155 13.8468C24.1277 13.5267 23.9371 13.2443 23.6729 13.0432C23.4088 12.8422 23.0858 12.7337 22.7538 12.7344Z" fill="#FC9090"/>
<path d="M37.0794 29.758C36.7515 30.8592 36.2618 31.9056 35.6262 32.8628C33.1216 36.5938 26.4134 42.5293 19.0294 36.634C18.8106 36.467 18.6324 36.2528 18.508 36.0073C18.3836 35.7618 18.3163 35.4914 18.3111 35.2162C18.3089 34.786 18.4657 34.37 18.7513 34.0482C19.0369 33.7264 19.4313 33.5214 19.8587 33.4724C21.8152 33.2645 23.9229 33.8481 25.6643 32.4469C26.8481 31.4947 27.6633 29.9754 27.9965 28.1678C28.3864 26.0695 28.1241 23.5861 27.0372 21.1524C26.9041 20.8546 26.8558 20.5259 26.8975 20.2024C26.9392 19.8789 27.0693 19.5731 27.2735 19.3188H27.2758C27.5451 18.9933 27.9165 18.7685 28.3297 18.6808C36.4107 16.8472 38.8421 23.9571 37.0794 29.758Z" fill="#EC6D6D"/>
<path d="M36.9245 43.7583C40.7831 43.7583 43.9111 40.6303 43.9111 36.7717C43.9111 32.9131 40.7831 29.7852 36.9245 29.7852C33.066 29.7852 29.938 32.9131 29.938 36.7717C29.938 40.6303 33.066 43.7583 36.9245 43.7583Z" fill="#1FCC68"/>
<circle cx="34.3154" cy="36.4501" r="0.778272" fill="white"/>
<circle cx="37.2319" cy="36.4501" r="0.778272" fill="white"/>
<circle cx="40.1484" cy="36.4501" r="0.778272" fill="white"/>
</svg>
