<svg width="57" height="57" viewBox="0 0 57 57" fill="none" xmlns="http://www.w3.org/2000/svg">
<rect x="0.375" y="0.863281" width="56" height="56" rx="28" fill="#F8F8FC"/>
<path d="M22.2548 12.7344C22.0326 12.7343 21.8132 12.7829 21.6119 12.8769C21.4106 12.9709 21.2323 13.1079 21.0898 13.2783C20.9472 13.4486 20.8437 13.6482 20.7867 13.863C20.7297 14.0777 20.7205 14.3023 20.7598 14.521C21.0767 16.2896 21.919 18.9632 24.1572 20.5992C27.085 22.739 26.9137 30.8045 23.2 31.9311C21.55 32.4316 18.2892 31.7735 16.4958 33.6236C16.3409 33.7821 16.1497 33.9003 15.9388 33.9681C15.2408 34.1957 13.6646 35.0723 13.8396 38.334C13.8928 39.3248 13.9379 40.049 13.9727 40.5603C13.9919 40.8438 14.1181 41.1093 14.3257 41.3032C14.5334 41.4971 14.8069 41.6048 15.091 41.6045C15.3876 41.6039 15.672 41.486 15.882 41.2765C16.0919 41.0671 16.2105 40.783 16.2117 40.4864C16.2198 39.58 16.3417 38.3414 16.8826 37.6351C16.9376 37.5619 17.0077 37.5015 17.0882 37.4579C17.1687 37.4143 17.2576 37.3886 17.349 37.3825C17.4403 37.3764 17.5319 37.3901 17.6174 37.4227C17.703 37.4552 17.7805 37.5058 17.8447 37.5711C18.8608 38.6169 22.0091 41.2633 27.1188 40.364C34.452 39.0734 41.845 28.6356 37.4843 21.0796C34.4865 15.8846 29.9909 16.7669 27.7045 17.4141C26.6285 17.7186 25.7103 17.1256 25.0033 16.2591C24.4122 15.5526 23.9741 14.7312 23.7165 13.8468C23.6287 13.5267 23.4381 13.2443 23.1739 13.0432C22.9097 12.8422 22.5868 12.7337 22.2548 12.7344Z" fill="#FC9090"/>
<path d="M36.5804 29.758C36.2525 30.8592 35.7628 31.9056 35.1272 32.8628C32.6226 36.5938 25.9143 42.5293 18.5303 36.634C18.3116 36.467 18.1333 36.2528 18.009 36.0073C17.8846 35.7618 17.8173 35.4914 17.812 35.2162C17.8099 34.786 17.9666 34.37 18.2523 34.0482C18.5379 33.7264 18.9322 33.5214 19.3597 33.4724C21.3162 33.2645 23.4239 33.8481 25.1653 32.4469C26.3491 31.4947 27.1643 29.9754 27.4975 28.1678C27.8873 26.0695 27.6251 23.5861 26.5381 21.1524C26.4051 20.8546 26.3568 20.5259 26.3985 20.2024C26.4402 19.8789 26.5703 19.5731 26.7744 19.3188H26.7768C27.046 18.9933 27.4174 18.7685 27.8306 18.6808C35.9117 16.8472 38.3431 23.9571 36.5804 29.758Z" fill="#EC6D6D"/>
<path d="M36.4255 43.7583C40.2841 43.7583 43.4121 40.6303 43.4121 36.7717C43.4121 32.9131 40.2841 29.7852 36.4255 29.7852C32.567 29.7852 29.439 32.9131 29.439 36.7717C29.439 40.6303 32.567 43.7583 36.4255 43.7583Z" fill="#1FCC68"/>
<circle cx="33.8164" cy="36.4501" r="0.778272" fill="white"/>
<circle cx="36.7329" cy="36.4501" r="0.778272" fill="white"/>
<circle cx="39.6494" cy="36.4501" r="0.778272" fill="white"/>
</svg>
