<svg width="24" height="25" viewBox="0 0 24 25" fill="none" xmlns="http://www.w3.org/2000/svg">
<g clip-path="url(#clip0_778_59763)">
<path d="M12.982 15.9652C12.7543 15.9652 12.5404 15.8517 12.4132 15.661L11.249 13.9144H10.2476C9.87022 13.9144 9.56396 13.6081 9.56396 13.2308C9.56396 12.8534 9.87022 12.5472 10.2476 12.5472H11.6148C11.8431 12.5472 12.0564 12.6613 12.1835 12.8514L12.8972 13.9219L14.421 10.8737C14.5331 10.6509 14.7566 10.5059 15.0061 10.4964C15.2693 10.4895 15.4901 10.6139 15.6186 10.8272L17.4705 13.9144H18.4508C18.8282 13.9144 19.1344 14.2206 19.1344 14.598C19.1344 14.9753 18.8282 15.2816 18.4508 15.2816H17.0836C16.8437 15.2816 16.6208 15.1558 16.4978 14.95L15.0875 12.5998L13.5938 15.5878C13.4844 15.8059 13.2677 15.9495 13.0244 15.9645C13.0107 15.9652 12.9963 15.9652 12.982 15.9652Z" fill="#EA151D"/>
<path d="M17.6491 17.0591C16.8596 17.0591 16.1226 16.638 15.7166 15.9612L15.5737 15.7281L15.1526 16.5628C14.7992 17.2847 14.0773 17.7584 13.2802 17.8035L13.1373 17.8111C12.3779 17.8111 11.6785 17.4351 11.2574 16.8034L10.4227 15.5552H10.1295C8.88873 15.5552 7.87358 14.54 7.87358 13.2993C7.87358 12.0585 8.88873 11.0434 10.1295 11.0434H11.6334C12.0244 11.0434 12.4004 11.1411 12.7313 11.3291L13.378 10.0357C13.7464 9.29882 14.4834 8.81756 15.3105 8.78748C15.6339 8.77996 15.9497 8.8326 16.2354 8.95292C14.4533 6.14809 12.1899 3.84708 12.0319 3.68916C11.8214 3.47861 11.4454 3.47861 11.2349 3.68916C10.9717 3.95235 4.86572 10.1636 4.86572 14.7506C4.86572 18.5104 7.90366 21.5709 11.6334 21.5709C14.5585 21.5709 17.0626 19.6835 18.0025 17.0591H17.6491Z" fill="#FF6C72"/>
</g>
<defs>
<clipPath id="clip0_778_59763">
<rect y="0.550781" width="24" height="24" rx="12" fill="white"/>
</clipPath>
</defs>
</svg>
