<svg width="57" height="56" viewBox="0 0 57 56" fill="none" xmlns="http://www.w3.org/2000/svg">
<rect x="1.5" y="1" width="54" height="54" rx="27" fill="#E7FAEF"/>
<rect x="1.5" y="1" width="54" height="54" rx="27" stroke="#0CC25A" stroke-width="2"/>
<mask id="mask0_844_58352" style="mask-type:alpha" maskUnits="userSpaceOnUse" x="11" y="10" width="35" height="36">
<path fill-rule="evenodd" clip-rule="evenodd" d="M45.6457 10.8535H11.3545V45.1447H45.6457V34.5849C45.1935 39.7636 40.9678 43.8222 35.8216 43.8222C30.3738 43.8222 25.9575 39.2739 25.9575 33.6633C25.9575 28.0527 30.3738 23.5044 35.8216 23.5044C40.9678 23.5044 45.1935 27.563 45.6457 32.7417V10.8535Z" fill="#D9D9D9"/>
</mask>
<g mask="url(#mask0_844_58352)">
<path d="M36.918 18.8221V17.1146C36.918 15.8572 35.9282 14.8379 34.7073 14.8379H17.0222C15.8013 14.8379 14.8115 15.8572 14.8115 17.1146V41.5892C14.8115 42.8466 15.8013 43.8659 17.0222 43.8659H36.918V18.8221Z" fill="#FBAF40"/>
<path d="M31.3916 14.8378V16.5453C31.3916 17.174 30.8967 17.6836 30.2863 17.6836H21.4437C20.8332 17.6836 20.3384 17.174 20.3384 16.5453V14.8378C20.3384 13.8947 21.0807 13.1302 21.9964 13.1302H22.549V12.561C22.549 11.618 23.2913 10.8535 24.207 10.8535H27.523C28.4387 10.8535 29.181 11.618 29.181 12.561V13.1302H29.7336C30.6493 13.1302 31.3916 13.8947 31.3916 14.8378Z" fill="#BDC3C7"/>
<path d="M26.9699 33.617C26.9668 36.7128 28.3264 39.6432 30.6672 41.5855H17.022V17.1109H20.4872C20.6844 17.4627 21.0488 17.6797 21.4433 17.6801H30.2858C30.6803 17.6797 31.0447 17.4627 31.2419 17.1109H35.2598V17.1121C35.1762 17.1613 35.4864 16.9299 35.2598 17.1121V21.0951V23.5198C30.4738 24.3504 26.9696 28.6185 26.9699 33.617Z" fill="white"/>
<path d="M25.8648 21.6676V27.3594C25.8648 28.6168 24.8751 29.6361 23.6542 29.6361L24.1019 37.0411C24.1019 37.0753 24.1074 37.1094 24.1074 37.1436C24.1081 37.7293 23.7988 38.2689 23.3004 38.5512C22.802 38.8334 22.1938 38.8134 21.7139 38.4989C21.2341 38.1845 20.9588 37.6256 20.9959 37.0411L21.4436 29.6361C20.2226 29.6361 19.2329 28.6168 19.2329 27.3594V21.6676C19.2374 21.0409 19.7297 20.5339 20.3382 20.5293C20.9487 20.5293 21.4436 21.039 21.4436 21.6676C21.442 21.3657 21.5597 21.076 21.7696 20.8651C21.8363 20.7935 21.9126 20.7322 21.9962 20.683C22.338 20.4797 22.7591 20.4796 23.101 20.6827C23.443 20.8857 23.6538 21.2612 23.6542 21.6676C23.6526 21.3657 23.7703 21.076 23.9803 20.8651C24.0469 20.7935 24.1232 20.7322 24.2069 20.683C24.5487 20.4797 24.9698 20.4796 25.3117 20.6827C25.6536 20.8857 25.8644 21.2612 25.8648 21.6676Z" fill="#BDC3C7"/>
<path d="M26.9698 15.9762H24.7592C24.454 15.9762 24.2065 15.7214 24.2065 15.4071C24.2065 15.0927 24.454 14.8379 24.7592 14.8379H26.9698C27.2751 14.8379 27.5225 15.0927 27.5225 15.4071C27.5225 15.7214 27.2751 15.9762 26.9698 15.9762Z" fill="#7F8C8D"/>
<path d="M24.2069 20.6836V25.6525C24.2069 25.9669 23.9595 26.2217 23.6542 26.2217C23.349 26.2217 23.1016 25.9669 23.1016 25.6525V20.6836C23.4432 20.8867 23.6538 21.262 23.6542 21.6683C23.6527 21.3663 23.7704 21.0766 23.9803 20.8657C24.0469 20.7941 24.1232 20.7328 24.2069 20.6836Z" fill="#95A5A5"/>
<path d="M21.9959 20.6836V25.6525C21.9959 25.9669 21.7485 26.2217 21.4433 26.2217C21.1381 26.2217 20.8906 25.9669 20.8906 25.6525V20.6836C21.2323 20.8867 21.4429 21.262 21.4433 21.6683C21.4417 21.3663 21.5594 21.0766 21.7694 20.8657C21.836 20.7941 21.9123 20.7328 21.9959 20.6836Z" fill="#95A5A5"/>
</g>
<g clip-path="url(#clip0_844_58352)">
<path d="M36.2381 28.2324C33.3208 28.2324 30.9468 30.6768 30.9468 33.6819C30.9468 36.6871 33.3202 39.1314 36.2381 39.1314C39.1561 39.1314 41.5301 36.6871 41.5301 33.6819C41.5301 30.6768 39.1555 28.2324 36.2381 28.2324ZM38.1374 35.191C38.0304 35.3327 37.8705 35.4076 37.7082 35.4076C37.5934 35.4076 37.4769 35.3699 37.3783 35.2919L35.907 34.1232C35.7742 34.018 35.696 33.8546 35.696 33.6819V31.3799C35.696 31.0723 35.9382 30.8229 36.2369 30.8229C36.5357 30.8229 36.7779 31.0723 36.7779 31.3799V33.4077L38.0388 34.4092C38.2756 34.5974 38.3201 34.9471 38.1374 35.191Z" fill="#1FCC68"/>
<path d="M36.2379 25.0605C32.1871 25.0605 28.757 28.1084 28.0238 32.0909L27.6644 31.6236C27.4787 31.3834 27.1397 31.342 26.9047 31.5332C26.6703 31.7245 26.6312 32.0748 26.817 32.3162L27.9937 33.8463C28.1007 33.985 28.2582 34.0574 28.4181 34.0574C28.5353 34.0574 28.6543 34.0184 28.7534 33.9373L30.2392 32.7254C30.4736 32.5341 30.5126 32.1838 30.3269 31.9424C30.1418 31.7022 29.8022 31.6607 29.5672 31.852L29.096 32.2364C29.7577 28.7986 32.7316 26.1759 36.2385 26.1759C40.2575 26.1747 43.5277 29.5426 43.5277 33.6823C43.5277 37.822 40.2581 41.1899 36.2379 41.1899C33.54 41.1899 31.0758 39.6672 29.8076 37.2167C29.6676 36.9456 29.3406 36.8422 29.0762 36.987C28.8123 37.1319 28.7126 37.4692 28.8532 37.741C30.3101 40.5561 33.1397 42.3047 36.2379 42.3047C40.8544 42.3047 44.6101 38.4367 44.6101 33.6829C44.6101 28.9292 40.8538 25.0605 36.2379 25.0605Z" fill="#7F8C8D"/>
</g>
<defs>
<clipPath id="clip0_844_58352">
<rect width="19.2326" height="19.8073" fill="white" transform="translate(26.0381 23.7754)"/>
</clipPath>
</defs>
</svg>
