<svg width="57" height="57" viewBox="0 0 57 57" fill="none" xmlns="http://www.w3.org/2000/svg">
<rect x="0.625" y="0.863281" width="56" height="56" rx="28" fill="#F8F8FC"/>
<path d="M41.2099 35.6781C39.7162 38.8963 37.085 41.4103 33.8019 42.7588C32.0787 43.4661 30.2703 43.8197 28.4619 43.8197C26.6266 43.8197 24.7919 43.4551 23.0472 42.727C21.3521 42.0191 19.8418 41.0102 18.5746 39.7572C17.2511 38.4491 16.1926 36.8761 15.4641 35.1042C14.0383 31.6339 14.0494 27.8167 15.496 24.355C16.9426 20.8932 19.6514 18.2024 23.1231 16.7768C23.5051 16.6172 23.9452 16.627 24.3241 16.8068C24.6822 16.9756 24.9529 17.2742 25.0863 17.6468C25.2198 18.0194 25.2002 18.422 25.0306 18.7799C23.7254 21.5778 23.6544 24.8242 24.8371 27.6815C25.3863 29.0085 26.171 30.1937 27.1456 31.1909C28.1772 32.2469 29.4223 33.0925 30.8279 33.6749C33.5398 34.7995 36.5261 34.8092 39.2435 33.7043C39.2606 33.6957 39.2778 33.6883 39.2949 33.6804C39.6824 33.5189 40.122 33.5287 40.5015 33.7086C41.2399 34.0574 41.5564 34.9402 41.2099 35.6781Z" fill="#FBAF40"/>
<mask id="path-3-outside-1_778_59738" maskUnits="userSpaceOnUse" x="25.7969" y="15.5703" width="15" height="16" fill="black">
<rect fill="white" x="25.7969" y="15.5703" width="15" height="16"/>
<path fill-rule="evenodd" clip-rule="evenodd" d="M39.9804 17.3814L36.4429 21.2467H39.6225C39.8907 21.2467 40.1074 21.4638 40.1074 21.731C40.1074 21.9982 39.8907 22.2153 39.6225 22.2153H35.3426C35.1502 22.2153 34.9761 22.1016 34.8988 21.9261C34.8214 21.7505 34.8551 21.5458 34.9847 21.4042L38.5222 17.5389H35.3426C35.0745 17.5389 34.8577 17.3218 34.8577 17.0546C34.8577 16.7874 35.0744 16.5703 35.3426 16.5703H39.6225C39.815 16.5703 39.989 16.684 40.0663 16.8595C40.1437 17.0351 40.11 17.2398 39.9804 17.3814ZM27.2818 24.1259C27.0894 24.1259 26.9154 24.0123 26.8381 23.8368C26.7607 23.6613 26.7943 23.4565 26.9239 23.3148L29.6023 20.3883H27.2818C27.0137 20.3883 26.7969 20.1712 26.7969 19.904C26.7969 19.6368 27.0136 19.4197 27.2818 19.4197H30.7025C30.895 19.4197 31.069 19.5334 31.1464 19.7089C31.2238 19.8845 31.1901 20.0892 31.0605 20.2308L28.382 23.1573H30.7026C30.9707 23.1573 31.1875 23.3745 31.1875 23.6416C31.1875 23.9088 30.9707 24.1259 30.7026 24.1259H27.2818ZM33.8926 30.2516C33.9699 30.4271 34.1439 30.5407 34.3363 30.5407H37.7571C38.0252 30.5407 38.242 30.3236 38.242 30.0564C38.242 29.7892 38.0252 29.5721 37.7571 29.5721H35.4366L38.115 26.6455C38.2446 26.504 38.2783 26.2992 38.2009 26.1237C38.1235 25.9482 37.9495 25.8345 37.757 25.8345H34.3363C34.0681 25.8345 33.8514 26.0516 33.8514 26.3188C33.8514 26.5859 34.0682 26.8031 34.3363 26.8031H36.6568L33.9784 29.7296C33.8488 29.8713 33.8152 30.0761 33.8926 30.2516Z"/>
</mask>
<path fill-rule="evenodd" clip-rule="evenodd" d="M39.9804 17.3814L36.4429 21.2467H39.6225C39.8907 21.2467 40.1074 21.4638 40.1074 21.731C40.1074 21.9982 39.8907 22.2153 39.6225 22.2153H35.3426C35.1502 22.2153 34.9761 22.1016 34.8988 21.9261C34.8214 21.7505 34.8551 21.5458 34.9847 21.4042L38.5222 17.5389H35.3426C35.0745 17.5389 34.8577 17.3218 34.8577 17.0546C34.8577 16.7874 35.0744 16.5703 35.3426 16.5703H39.6225C39.815 16.5703 39.989 16.684 40.0663 16.8595C40.1437 17.0351 40.11 17.2398 39.9804 17.3814ZM27.2818 24.1259C27.0894 24.1259 26.9154 24.0123 26.8381 23.8368C26.7607 23.6613 26.7943 23.4565 26.9239 23.3148L29.6023 20.3883H27.2818C27.0137 20.3883 26.7969 20.1712 26.7969 19.904C26.7969 19.6368 27.0136 19.4197 27.2818 19.4197H30.7025C30.895 19.4197 31.069 19.5334 31.1464 19.7089C31.2238 19.8845 31.1901 20.0892 31.0605 20.2308L28.382 23.1573H30.7026C30.9707 23.1573 31.1875 23.3745 31.1875 23.6416C31.1875 23.9088 30.9707 24.1259 30.7026 24.1259H27.2818ZM33.8926 30.2516C33.9699 30.4271 34.1439 30.5407 34.3363 30.5407H37.7571C38.0252 30.5407 38.242 30.3236 38.242 30.0564C38.242 29.7892 38.0252 29.5721 37.7571 29.5721H35.4366L38.115 26.6455C38.2446 26.504 38.2783 26.2992 38.2009 26.1237C38.1235 25.9482 37.9495 25.8345 37.757 25.8345H34.3363C34.0681 25.8345 33.8514 26.0516 33.8514 26.3188C33.8514 26.5859 34.0682 26.8031 34.3363 26.8031H36.6568L33.9784 29.7296C33.8488 29.8713 33.8152 30.0761 33.8926 30.2516Z" fill="#A4B3C1"/>
<path d="M36.4429 21.2467L36.3461 21.1581L36.145 21.3778H36.4429V21.2467ZM39.9804 17.3814L39.8837 17.2928L39.8837 17.2928L39.9804 17.3814ZM34.8988 21.9261L35.0188 21.8732L35.0188 21.8732L34.8988 21.9261ZM34.9847 21.4042L35.0814 21.4928L35.0814 21.4928L34.9847 21.4042ZM38.5222 17.5389L38.619 17.6275L38.8201 17.4078H38.5222V17.5389ZM40.0663 16.8595L39.9463 16.9124L39.9463 16.9124L40.0663 16.8595ZM26.8381 23.8368L26.9581 23.784L26.9581 23.7839L26.8381 23.8368ZM26.9239 23.3148L26.8271 23.2263L26.8271 23.2263L26.9239 23.3148ZM29.6023 20.3883L29.6991 20.4769L29.9002 20.2572H29.6023V20.3883ZM31.1464 19.7089L31.0263 19.7618L31.0263 19.7618L31.1464 19.7089ZM31.0605 20.2308L30.9638 20.1422L30.9638 20.1422L31.0605 20.2308ZM28.382 23.1573L28.2853 23.0688L28.0842 23.2885H28.382V23.1573ZM33.8926 30.2516L34.0126 30.1987L34.0126 30.1987L33.8926 30.2516ZM35.4366 29.5721L35.3398 29.4835L35.1387 29.7032H35.4366V29.5721ZM38.115 26.6455L38.0183 26.557L38.0183 26.557L38.115 26.6455ZM38.2009 26.1237L38.0808 26.1766L38.0808 26.1766L38.2009 26.1237ZM36.6568 26.8031L36.7536 26.8916L36.9547 26.6719H36.6568V26.8031ZM33.9784 29.7296L33.8816 29.641L33.8816 29.6411L33.9784 29.7296ZM36.5396 21.3352L40.0772 17.4699L39.8837 17.2928L36.3461 21.1581L36.5396 21.3352ZM39.6225 21.1155H36.4429V21.3778H39.6225V21.1155ZM40.2386 21.731C40.2386 21.3913 39.9631 21.1155 39.6225 21.1155V21.3778C39.8183 21.3778 39.9763 21.5363 39.9763 21.731H40.2386ZM39.6225 22.3465C39.9631 22.3465 40.2386 22.0706 40.2386 21.731H39.9763C39.9763 21.9257 39.8183 22.0841 39.6225 22.0841V22.3465ZM35.3426 22.3465H39.6225V22.0841H35.3426V22.3465ZM34.7788 21.979C34.8771 22.202 35.0982 22.3465 35.3426 22.3465V22.0841C35.2022 22.0841 35.0752 22.0011 35.0188 21.8732L34.7788 21.979ZM34.8879 21.3157C34.7232 21.4956 34.6804 21.7558 34.7788 21.979L35.0188 21.8732C34.9624 21.7452 34.987 21.596 35.0814 21.4928L34.8879 21.3157ZM38.4255 17.4504L34.8879 21.3157L35.0814 21.4928L38.619 17.6275L38.4255 17.4504ZM35.3426 17.6701H38.5222V17.4078H35.3426V17.6701ZM34.7265 17.0546C34.7265 17.3943 35.0021 17.6701 35.3426 17.6701V17.4078C35.1469 17.4078 34.9888 17.2493 34.9888 17.0546H34.7265ZM35.3426 16.4391C35.002 16.4391 34.7265 16.715 34.7265 17.0546H34.9888C34.9888 16.8599 35.1468 16.7015 35.3426 16.7015V16.4391ZM39.6225 16.4391H35.3426V16.7015H39.6225V16.4391ZM40.1863 16.8067C40.088 16.5835 39.867 16.4391 39.6225 16.4391V16.7015C39.763 16.7015 39.8899 16.7845 39.9463 16.9124L40.1863 16.8067ZM40.0772 17.4699C40.2419 17.29 40.2847 17.0298 40.1863 16.8066L39.9463 16.9124C40.0027 17.0404 39.9781 17.1896 39.8837 17.2928L40.0772 17.4699ZM26.718 23.8897C26.8163 24.1128 27.0374 24.2571 27.2818 24.2571V23.9948C27.1413 23.9948 27.0144 23.9118 26.9581 23.784L26.718 23.8897ZM26.8271 23.2263C26.6624 23.4063 26.6197 23.6667 26.718 23.8897L26.9581 23.7839C26.9017 23.656 26.9262 23.5067 27.0206 23.4034L26.8271 23.2263ZM29.5056 20.2998L26.8271 23.2263L27.0206 23.4034L29.6991 20.4769L29.5056 20.2998ZM27.2818 20.5195H29.6023V20.2572H27.2818V20.5195ZM26.6657 19.904C26.6657 20.2436 26.9413 20.5195 27.2818 20.5195V20.2572C27.0861 20.2572 26.928 20.0987 26.928 19.904H26.6657ZM27.2818 19.2885C26.9412 19.2885 26.6657 19.5643 26.6657 19.904H26.928C26.928 19.7093 27.086 19.5509 27.2818 19.5509V19.2885ZM30.7025 19.2885H27.2818V19.5509H30.7025V19.2885ZM31.2664 19.656C31.1681 19.433 30.947 19.2885 30.7025 19.2885V19.5509C30.843 19.5509 30.97 19.6339 31.0263 19.7618L31.2664 19.656ZM31.1573 20.3193C31.3219 20.1394 31.3648 19.8792 31.2664 19.656L31.0263 19.7618C31.0827 19.8898 31.0582 20.039 30.9638 20.1422L31.1573 20.3193ZM28.4788 23.2459L31.1573 20.3193L30.9638 20.1422L28.2853 23.0688L28.4788 23.2459ZM30.7026 23.0261H28.382V23.2885H30.7026V23.0261ZM31.3187 23.6416C31.3187 23.302 31.0431 23.0261 30.7026 23.0261V23.2885C30.8983 23.2885 31.0563 23.4469 31.0563 23.6416H31.3187ZM30.7026 24.2571C31.0431 24.2571 31.3187 23.9813 31.3187 23.6416H31.0563C31.0563 23.8363 30.8983 23.9948 30.7026 23.9948V24.2571ZM27.2818 24.2571H30.7026V23.9948H27.2818V24.2571ZM34.3363 30.4095C34.1958 30.4095 34.0689 30.3266 34.0126 30.1987L33.7725 30.3045C33.8708 30.5276 34.0919 30.6719 34.3363 30.6719V30.4095ZM37.7571 30.4095H34.3363V30.6719H37.7571V30.4095ZM38.1108 30.0564C38.1108 30.2511 37.9528 30.4095 37.7571 30.4095V30.6719C38.0976 30.6719 38.3732 30.3961 38.3732 30.0564H38.1108ZM37.7571 29.7032C37.9528 29.7032 38.1108 29.8617 38.1108 30.0564H38.3732C38.3732 29.7167 38.0976 29.4409 37.7571 29.4409V29.7032ZM35.4366 29.7032H37.7571V29.4409H35.4366V29.7032ZM38.0183 26.557L35.3398 29.4835L35.5333 29.6606L38.2118 26.7341L38.0183 26.557ZM38.0808 26.1766C38.1372 26.3045 38.1127 26.4538 38.0183 26.557L38.2118 26.7341C38.3764 26.5542 38.4193 26.2939 38.3209 26.0708L38.0808 26.1766ZM37.757 25.9656C37.8975 25.9656 38.0245 26.0486 38.0808 26.1766L38.3209 26.0708C38.2226 25.8477 38.0015 25.7033 37.757 25.7033V25.9656ZM34.3363 25.9656H37.757V25.7033H34.3363V25.9656ZM33.9825 26.3188C33.9825 26.1241 34.1405 25.9656 34.3363 25.9656V25.7033C33.9957 25.7033 33.7202 25.9791 33.7202 26.3188H33.9825ZM34.3363 26.6719C34.1406 26.6719 33.9825 26.5134 33.9825 26.3188H33.7202C33.7202 26.6584 33.9958 26.9342 34.3363 26.9342V26.6719ZM36.6568 26.6719H34.3363V26.9342H36.6568V26.6719ZM34.0751 29.8182L36.7536 26.8916L36.5601 26.7145L33.8816 29.641L34.0751 29.8182ZM34.0126 30.1987C33.9562 30.0708 33.9807 29.9214 34.0752 29.8181L33.8816 29.6411C33.7169 29.8211 33.6742 30.0814 33.7725 30.3045L34.0126 30.1987Z" fill="#A4B3C1" mask="url(#path-3-outside-1_778_59738)"/>
</svg>
