<svg width="24" height="25" viewBox="0 0 24 25" fill="none" xmlns="http://www.w3.org/2000/svg">
<g clip-path="url(#clip0_778_59718)">
<path fill-rule="evenodd" clip-rule="evenodd" d="M4.55078 6.79211C4.55078 4.78731 6.17599 3.16211 8.18078 3.16211H15.4408C17.4455 3.16211 19.0708 4.78731 19.0708 6.79211V16.3209C19.0708 20.0798 16.0235 23.1271 12.2645 23.1271H11.357C7.59804 23.1271 4.55078 20.0798 4.55078 16.3209V6.79211ZM8.63453 5.43086C7.63213 5.43086 6.81953 6.24346 6.81953 7.24586V14.5059C6.81953 15.5083 7.63213 16.3209 8.63453 16.3209H14.987C15.9895 16.3209 16.802 15.5083 16.802 14.5059V7.24586C16.802 6.24346 15.9895 5.43086 14.987 5.43086H8.63453ZM11.8108 8.60711L12.4351 7.94842C12.0849 7.61667 11.5366 7.61667 11.1865 7.94842L11.8108 8.60711ZM11.8108 8.60711C11.1865 7.94842 11.1865 7.94842 11.1865 7.94842L11.1854 7.94945L11.1837 7.95111L11.1783 7.95631L11.1598 7.97401C11.1443 7.98898 11.1225 8.01023 11.0952 8.03714C11.0408 8.09092 10.9643 8.16765 10.8731 8.26247C10.6917 8.45108 10.4474 8.71621 10.2005 9.01826C9.95654 9.31687 9.69425 9.67084 9.4886 10.0361C9.29664 10.3771 9.08828 10.8403 9.08828 11.3296C9.08828 12.8332 10.3071 14.0521 11.8108 14.0521C13.3144 14.0521 14.5333 12.8332 14.5333 11.3296C14.5333 10.8403 14.3249 10.3771 14.133 10.0361C13.9273 9.67084 13.665 9.31687 13.421 9.01826C13.1742 8.71621 12.9299 8.45108 12.7485 8.26247C12.6573 8.16765 12.5808 8.09092 12.5263 8.03714C12.499 8.01023 12.4772 7.98898 12.4617 7.97401L12.4433 7.95631L12.4379 7.95111L12.4361 7.94945L12.4351 7.94842C12.4351 7.94842 12.4351 7.94842 11.8108 8.60711ZM10.4495 19.4971H8.18078V17.6821H10.4495V19.4971ZM13.172 19.4971H15.4408V17.6821H13.172V19.4971Z" fill="#F66754"/>
<path fill-rule="evenodd" clip-rule="evenodd" d="M4.55078 6.79211C4.55078 4.78731 6.17599 3.16211 8.18078 3.16211H15.4408C17.4455 3.16211 19.0708 4.78731 19.0708 6.79211V16.3209C19.0708 20.0798 16.0235 23.1271 12.2645 23.1271H11.357C7.59804 23.1271 4.55078 20.0798 4.55078 16.3209V6.79211ZM8.63453 5.43086C7.63213 5.43086 6.81953 6.24346 6.81953 7.24586V14.5059C6.81953 15.5083 7.63213 16.3209 8.63453 16.3209H14.987C15.9895 16.3209 16.802 15.5083 16.802 14.5059V7.24586C16.802 6.24346 15.9895 5.43086 14.987 5.43086H8.63453ZM11.8108 8.60711L12.4351 7.94842C12.0849 7.61667 11.5366 7.61667 11.1865 7.94842L11.8108 8.60711ZM10.4495 19.4971H8.18078V17.6821H10.4495V19.4971ZM13.172 19.4971H15.4408V17.6821H13.172V19.4971Z" fill="#7C83A7"/>
</g>
<defs>
<clipPath id="clip0_778_59718">
<rect y="0.863281" width="24" height="24" rx="12" fill="white"/>
</clipPath>
</defs>
</svg>
