<svg width="57" height="56" viewBox="0 0 57 56" fill="none" xmlns="http://www.w3.org/2000/svg">
<rect x="1.25" y="1" width="54" height="54" rx="27" fill="#E7FAEF"/>
<rect x="1.25" y="1" width="54" height="54" rx="27" stroke="#0CC25A" stroke-width="2"/>
<path d="M40.8349 34.8128C39.3412 38.0311 36.71 40.5451 33.4269 41.8935C31.7037 42.6008 29.8953 42.9545 28.0869 42.9545C26.2516 42.9545 24.4169 42.5898 22.6722 41.8617C20.9771 41.1539 19.4668 40.1449 18.1996 38.8919C16.8761 37.5839 15.8176 36.0108 15.0891 34.239C13.6633 30.7687 13.6744 26.9515 15.121 23.4897C16.5676 20.028 19.2764 17.3371 22.7481 15.9116C23.1301 15.7519 23.5702 15.7617 23.9491 15.9415C24.3072 16.1104 24.5779 16.409 24.7113 16.7816C24.8448 17.1542 24.8252 17.5568 24.6556 17.9147C23.3504 20.7126 23.2794 23.959 24.4621 26.8162C25.0113 28.1433 25.796 29.3284 26.7706 30.3257C27.8022 31.3817 29.0473 32.2273 30.4529 32.8097C33.1648 33.9343 36.1511 33.944 38.8685 32.839C38.8856 32.8305 38.9028 32.8231 38.9199 32.8152C39.3074 32.6537 39.747 32.6635 40.1265 32.8434C40.8649 33.1921 41.1814 34.075 40.8349 34.8128Z" fill="#FBAF40"/>
<mask id="path-3-outside-1_844_58353" maskUnits="userSpaceOnUse" x="25.4219" y="14.7051" width="15" height="16" fill="black">
<rect fill="white" x="25.4219" y="14.7051" width="15" height="16"/>
<path fill-rule="evenodd" clip-rule="evenodd" d="M39.6054 16.5162L36.0679 20.3814H39.2475C39.5157 20.3814 39.7324 20.5986 39.7324 20.8657C39.7324 21.1329 39.5157 21.3501 39.2475 21.3501H34.9676C34.7752 21.3501 34.6011 21.2363 34.5238 21.0608C34.4464 20.8853 34.4801 20.6805 34.6097 20.539L38.1472 16.6737H34.9676C34.6995 16.6737 34.4827 16.4566 34.4827 16.1894C34.4827 15.9222 34.6994 15.7051 34.9676 15.7051H39.2475C39.44 15.7051 39.614 15.8188 39.6913 15.9943C39.7687 16.1698 39.735 16.3746 39.6054 16.5162ZM26.9068 23.2607C26.7144 23.2607 26.5404 23.1471 26.4631 22.9716C26.3857 22.7961 26.4193 22.5913 26.5489 22.4496L29.2273 19.5231H26.9068C26.6387 19.5231 26.4219 19.3059 26.4219 19.0388C26.4219 18.7716 26.6386 18.5545 26.9068 18.5545H30.3275C30.52 18.5545 30.694 18.6682 30.7714 18.8437C30.8488 19.0192 30.8151 19.224 30.6855 19.3655L28.007 22.2921H30.3276C30.5957 22.2921 30.8125 22.5092 30.8125 22.7764C30.8125 23.0436 30.5957 23.2607 30.3276 23.2607H26.9068ZM33.5176 29.3864C33.5949 29.5619 33.7689 29.6755 33.9613 29.6755H37.3821C37.6502 29.6755 37.867 29.4583 37.867 29.1912C37.867 28.924 37.6502 28.7068 37.3821 28.7068H35.0616L37.74 25.7803C37.8696 25.6387 37.9033 25.434 37.8259 25.2584C37.7485 25.083 37.5745 24.9692 37.382 24.9692H33.9613C33.6931 24.9692 33.4764 25.1863 33.4764 25.4535C33.4764 25.7207 33.6932 25.9378 33.9613 25.9378H36.2818L33.6034 28.8644C33.4738 29.006 33.4402 29.2109 33.5176 29.3864Z"/>
</mask>
<path fill-rule="evenodd" clip-rule="evenodd" d="M39.6054 16.5162L36.0679 20.3814H39.2475C39.5157 20.3814 39.7324 20.5986 39.7324 20.8657C39.7324 21.1329 39.5157 21.3501 39.2475 21.3501H34.9676C34.7752 21.3501 34.6011 21.2363 34.5238 21.0608C34.4464 20.8853 34.4801 20.6805 34.6097 20.539L38.1472 16.6737H34.9676C34.6995 16.6737 34.4827 16.4566 34.4827 16.1894C34.4827 15.9222 34.6994 15.7051 34.9676 15.7051H39.2475C39.44 15.7051 39.614 15.8188 39.6913 15.9943C39.7687 16.1698 39.735 16.3746 39.6054 16.5162ZM26.9068 23.2607C26.7144 23.2607 26.5404 23.1471 26.4631 22.9716C26.3857 22.7961 26.4193 22.5913 26.5489 22.4496L29.2273 19.5231H26.9068C26.6387 19.5231 26.4219 19.3059 26.4219 19.0388C26.4219 18.7716 26.6386 18.5545 26.9068 18.5545H30.3275C30.52 18.5545 30.694 18.6682 30.7714 18.8437C30.8488 19.0192 30.8151 19.224 30.6855 19.3655L28.007 22.2921H30.3276C30.5957 22.2921 30.8125 22.5092 30.8125 22.7764C30.8125 23.0436 30.5957 23.2607 30.3276 23.2607H26.9068ZM33.5176 29.3864C33.5949 29.5619 33.7689 29.6755 33.9613 29.6755H37.3821C37.6502 29.6755 37.867 29.4583 37.867 29.1912C37.867 28.924 37.6502 28.7068 37.3821 28.7068H35.0616L37.74 25.7803C37.8696 25.6387 37.9033 25.434 37.8259 25.2584C37.7485 25.083 37.5745 24.9692 37.382 24.9692H33.9613C33.6931 24.9692 33.4764 25.1863 33.4764 25.4535C33.4764 25.7207 33.6932 25.9378 33.9613 25.9378H36.2818L33.6034 28.8644C33.4738 29.006 33.4402 29.2109 33.5176 29.3864Z" fill="#A4B3C1"/>
<path d="M36.0679 20.3814L35.9711 20.2929L35.77 20.5126H36.0679V20.3814ZM39.6054 16.5162L39.5087 16.4276L39.5087 16.4276L39.6054 16.5162ZM34.5238 21.0608L34.6438 21.008L34.6438 21.0079L34.5238 21.0608ZM34.6097 20.539L34.7064 20.6275L34.7064 20.6275L34.6097 20.539ZM38.1472 16.6737L38.244 16.7623L38.4451 16.5425H38.1472V16.6737ZM39.6913 15.9943L39.5713 16.0472L39.5713 16.0472L39.6913 15.9943ZM26.4631 22.9716L26.5831 22.9187L26.5831 22.9187L26.4631 22.9716ZM26.5489 22.4496L26.4521 22.361L26.4521 22.3611L26.5489 22.4496ZM29.2273 19.5231L29.3241 19.6116L29.5252 19.3919H29.2273V19.5231ZM30.7714 18.8437L30.6513 18.8966L30.6513 18.8966L30.7714 18.8437ZM30.6855 19.3655L30.5888 19.277L30.5888 19.277L30.6855 19.3655ZM28.007 22.2921L27.9103 22.2035L27.7092 22.4232H28.007V22.2921ZM33.5176 29.3864L33.6376 29.3335L33.6376 29.3335L33.5176 29.3864ZM35.0616 28.7068L34.9648 28.6183L34.7637 28.838H35.0616V28.7068ZM37.74 25.7803L37.6433 25.6917L37.6433 25.6917L37.74 25.7803ZM37.8259 25.2584L37.7058 25.3113L37.7058 25.3113L37.8259 25.2584ZM36.2818 25.9378L36.3786 26.0264L36.5797 25.8067H36.2818V25.9378ZM33.6034 28.8644L33.5066 28.7758L33.5066 28.7758L33.6034 28.8644ZM36.1646 20.47L39.7022 16.6047L39.5087 16.4276L35.9711 20.2929L36.1646 20.47ZM39.2475 20.2503H36.0679V20.5126H39.2475V20.2503ZM39.8636 20.8657C39.8636 20.5261 39.5881 20.2503 39.2475 20.2503V20.5126C39.4433 20.5126 39.6013 20.671 39.6013 20.8657H39.8636ZM39.2475 21.4812C39.5881 21.4812 39.8636 21.2054 39.8636 20.8657H39.6013C39.6013 21.0605 39.4433 21.2189 39.2475 21.2189V21.4812ZM34.9676 21.4812H39.2475V21.2189H34.9676V21.4812ZM34.4038 21.1137C34.5021 21.3368 34.7232 21.4812 34.9676 21.4812V21.2189C34.8272 21.2189 34.7002 21.1359 34.6438 21.008L34.4038 21.1137ZM34.5129 20.4504C34.3482 20.6303 34.3054 20.8906 34.4038 21.1137L34.6438 21.0079C34.5874 20.88 34.612 20.7307 34.7064 20.6275L34.5129 20.4504ZM38.0505 16.5852L34.5129 20.4504L34.7064 20.6275L38.244 16.7623L38.0505 16.5852ZM34.9676 16.8049H38.1472V16.5425H34.9676V16.8049ZM34.3515 16.1894C34.3515 16.529 34.6271 16.8049 34.9676 16.8049V16.5425C34.7719 16.5425 34.6138 16.3841 34.6138 16.1894H34.3515ZM34.9676 15.5739C34.627 15.5739 34.3515 15.8497 34.3515 16.1894H34.6138C34.6138 15.9947 34.7718 15.8362 34.9676 15.8362V15.5739ZM39.2475 15.5739H34.9676V15.8362H39.2475V15.5739ZM39.8113 15.9414C39.713 15.7183 39.492 15.5739 39.2475 15.5739V15.8362C39.388 15.8362 39.5149 15.9192 39.5713 16.0472L39.8113 15.9414ZM39.7022 16.6047C39.8669 16.4248 39.9097 16.1645 39.8113 15.9414L39.5713 16.0472C39.6277 16.1752 39.6031 16.3244 39.5087 16.4276L39.7022 16.6047ZM26.343 23.0245C26.4413 23.2476 26.6624 23.3919 26.9068 23.3919V23.1295C26.7663 23.1295 26.6394 23.0466 26.5831 22.9187L26.343 23.0245ZM26.4521 22.3611C26.2874 22.5411 26.2447 22.8014 26.343 23.0245L26.5831 22.9187C26.5267 22.7908 26.5512 22.6414 26.6456 22.5381L26.4521 22.3611ZM29.1306 19.4345L26.4521 22.361L26.6456 22.5382L29.3241 19.6116L29.1306 19.4345ZM26.9068 19.6542H29.2273V19.3919H26.9068V19.6542ZM26.2907 19.0388C26.2907 19.3784 26.5663 19.6542 26.9068 19.6542V19.3919C26.7111 19.3919 26.553 19.2334 26.553 19.0388H26.2907ZM26.9068 18.4233C26.5662 18.4233 26.2907 18.6991 26.2907 19.0388H26.553C26.553 18.8441 26.711 18.6856 26.9068 18.6856V18.4233ZM30.3275 18.4233H26.9068V18.6856H30.3275V18.4233ZM30.8914 18.7908C30.7931 18.5677 30.572 18.4233 30.3275 18.4233V18.6856C30.468 18.6856 30.595 18.7686 30.6513 18.8966L30.8914 18.7908ZM30.7823 19.4541C30.9469 19.2742 30.9898 19.0139 30.8914 18.7908L30.6513 18.8966C30.7077 19.0245 30.6832 19.1738 30.5888 19.277L30.7823 19.4541ZM28.1038 22.3806L30.7823 19.4541L30.5888 19.277L27.9103 22.2035L28.1038 22.3806ZM30.3276 22.1609H28.007V22.4232H30.3276V22.1609ZM30.9437 22.7764C30.9437 22.4367 30.6681 22.1609 30.3276 22.1609V22.4232C30.5233 22.4232 30.6813 22.5817 30.6813 22.7764H30.9437ZM30.3276 23.3919C30.6681 23.3919 30.9437 23.1161 30.9437 22.7764H30.6813C30.6813 22.9711 30.5233 23.1295 30.3276 23.1295V23.3919ZM26.9068 23.3919H30.3276V23.1295H26.9068V23.3919ZM33.9613 29.5443C33.8208 29.5443 33.6939 29.4614 33.6376 29.3335L33.3975 29.4392C33.4958 29.6624 33.7169 29.8066 33.9613 29.8066V29.5443ZM37.3821 29.5443H33.9613V29.8066H37.3821V29.5443ZM37.7358 29.1912C37.7358 29.3859 37.5778 29.5443 37.3821 29.5443V29.8066C37.7226 29.8066 37.9982 29.5308 37.9982 29.1912H37.7358ZM37.3821 28.838C37.5778 28.838 37.7358 28.9965 37.7358 29.1912H37.9982C37.9982 28.8515 37.7226 28.5757 37.3821 28.5757V28.838ZM35.0616 28.838H37.3821V28.5757H35.0616V28.838ZM37.6433 25.6917L34.9648 28.6183L35.1583 28.7954L37.8368 25.8688L37.6433 25.6917ZM37.7058 25.3113C37.7622 25.4393 37.7377 25.5885 37.6433 25.6917L37.8368 25.8689C38.0014 25.6889 38.0443 25.4287 37.9459 25.2055L37.7058 25.3113ZM37.382 25.1004C37.5225 25.1004 37.6495 25.1834 37.7058 25.3113L37.9459 25.2056C37.8476 24.9825 37.6265 24.8381 37.382 24.8381V25.1004ZM33.9613 25.1004H37.382V24.8381H33.9613V25.1004ZM33.6075 25.4535C33.6075 25.2588 33.7655 25.1004 33.9613 25.1004V24.8381C33.6207 24.8381 33.3452 25.1139 33.3452 25.4535H33.6075ZM33.9613 25.8067C33.7656 25.8067 33.6075 25.6482 33.6075 25.4535H33.3452C33.3452 25.7932 33.6208 26.069 33.9613 26.069V25.8067ZM36.2818 25.8067H33.9613V26.069H36.2818V25.8067ZM33.7001 28.9529L36.3786 26.0264L36.1851 25.8493L33.5066 28.7758L33.7001 28.9529ZM33.6376 29.3335C33.5812 29.2055 33.6057 29.0562 33.7002 28.9529L33.5066 28.7758C33.3419 28.9559 33.2992 29.2162 33.3975 29.4393L33.6376 29.3335Z" fill="#A4B3C1" mask="url(#path-3-outside-1_844_58353)"/>
</svg>
