<svg width="57" height="57" viewBox="0 0 57 57" fill="none" xmlns="http://www.w3.org/2000/svg">
<rect x="0.125" y="0.863281" width="56" height="56" rx="28" fill="#F8F8FC"/>
<mask id="mask0_778_59732" style="mask-type:alpha" maskUnits="userSpaceOnUse" x="10" y="11" width="36" height="36">
<path fill-rule="evenodd" clip-rule="evenodd" d="M45.2707 11.7148H10.9795V46.006H45.2707V35.4462C44.8185 40.6249 40.5928 44.6835 35.4466 44.6835C29.9988 44.6835 25.5825 40.1352 25.5825 34.5246C25.5825 28.914 29.9988 24.3657 35.4466 24.3657C40.5928 24.3657 44.8185 28.4243 45.2707 33.6031V11.7148Z" fill="#D9D9D9"/>
</mask>
<g mask="url(#mask0_778_59732)">
<path d="M36.543 19.6835V17.9759C36.543 16.7185 35.5532 15.6992 34.3323 15.6992H16.6472C15.4263 15.6992 14.4365 16.7185 14.4365 17.9759V42.4505C14.4365 43.7079 15.4263 44.7272 16.6472 44.7272H36.543V19.6835Z" fill="#FBAF40"/>
<path d="M31.0166 15.6991V17.4066C31.0166 18.0353 30.5217 18.545 29.9113 18.545H21.0687C20.4582 18.545 19.9634 18.0353 19.9634 17.4066V15.6991C19.9634 14.756 20.7057 13.9915 21.6214 13.9915H22.174V13.4224C22.174 12.4793 22.9163 11.7148 23.832 11.7148H27.148C28.0637 11.7148 28.806 12.4793 28.806 13.4224V13.9915H29.3586C30.2743 13.9915 31.0166 14.756 31.0166 15.6991Z" fill="#BDC3C7"/>
<path d="M26.5949 34.4783C26.5918 37.5741 27.9514 40.5045 30.2922 42.4468H16.647V17.9722H20.1122C20.3094 18.3241 20.6738 18.541 21.0683 18.5414H29.9108C30.3053 18.541 30.6697 18.3241 30.8669 17.9722H34.8848V17.9734C34.8012 18.0226 35.1114 17.7913 34.8848 17.9734V21.9565V24.3811C30.0988 25.2117 26.5946 29.4798 26.5949 34.4783Z" fill="white"/>
<path d="M25.4898 22.529V28.2207C25.4898 29.4781 24.5001 30.4974 23.2792 30.4974L23.7269 37.9024C23.7269 37.9366 23.7324 37.9707 23.7324 38.0049C23.7331 38.5907 23.4238 39.1303 22.9254 39.4125C22.427 39.6947 21.8188 39.6747 21.3389 39.3603C20.8591 39.0458 20.5838 38.487 20.6209 37.9024L21.0686 30.4974C19.8476 30.4974 18.8579 29.4781 18.8579 28.2207V22.529C18.8624 21.9022 19.3547 21.3953 19.9632 21.3906C20.5737 21.3906 21.0686 21.9003 21.0686 22.529C21.067 22.227 21.1847 21.9373 21.3946 21.7264C21.4613 21.6548 21.5376 21.5935 21.6212 21.5443C21.963 21.3411 22.3841 21.3409 22.726 21.544C23.068 21.7471 23.2788 22.1225 23.2792 22.529C23.2776 22.227 23.3953 21.9373 23.6053 21.7264C23.6719 21.6548 23.7482 21.5935 23.8319 21.5443C24.1737 21.3411 24.5948 21.3409 24.9367 21.544C25.2786 21.7471 25.4894 22.1225 25.4898 22.529Z" fill="#BDC3C7"/>
<path d="M26.5948 16.8376H24.3842C24.079 16.8376 23.8315 16.5827 23.8315 16.2684C23.8315 15.954 24.079 15.6992 24.3842 15.6992H26.5948C26.9001 15.6992 27.1475 15.954 27.1475 16.2684C27.1475 16.5827 26.9001 16.8376 26.5948 16.8376Z" fill="#7F8C8D"/>
<path d="M23.8319 21.543V26.5119C23.8319 26.8262 23.5845 27.0811 23.2792 27.0811C22.974 27.0811 22.7266 26.8262 22.7266 26.5119V21.543C23.0682 21.7461 23.2788 22.1214 23.2792 22.5276C23.2777 22.2256 23.3954 21.936 23.6053 21.7251C23.6719 21.6535 23.7482 21.5921 23.8319 21.543Z" fill="#95A5A5"/>
<path d="M21.6209 21.543V26.5119C21.6209 26.8262 21.3735 27.0811 21.0683 27.0811C20.7631 27.0811 20.5156 26.8262 20.5156 26.5119V21.543C20.8573 21.7461 21.0679 22.1214 21.0683 22.5276C21.0667 22.2256 21.1844 21.936 21.3944 21.7251C21.461 21.6535 21.5373 21.5921 21.6209 21.543Z" fill="#95A5A5"/>
</g>
<g clip-path="url(#clip0_778_59732)">
<path d="M35.8631 29.0938C32.9458 29.0938 30.5718 31.5381 30.5718 34.5432C30.5718 37.5484 32.9452 39.9927 35.8631 39.9927C38.7811 39.9927 41.1551 37.5484 41.1551 34.5432C41.1551 31.5381 38.7805 29.0938 35.8631 29.0938ZM37.7624 36.0523C37.6554 36.1941 37.4955 36.269 37.3332 36.269C37.2184 36.269 37.1019 36.2312 37.0033 36.1532L35.532 34.9846C35.3992 34.8793 35.321 34.7159 35.321 34.5432V32.2413C35.321 31.9336 35.5632 31.6842 35.8619 31.6842C36.1607 31.6842 36.4029 31.9336 36.4029 32.2413V34.269L37.6638 35.2705C37.9006 35.4587 37.9451 35.8084 37.7624 36.0523Z" fill="#1FCC68"/>
<path d="M35.8629 25.9219C31.8121 25.9219 28.382 28.9697 27.6488 32.9522L27.2894 32.4849C27.1037 32.2448 26.7647 32.2033 26.5297 32.3945C26.2953 32.5858 26.2562 32.9362 26.442 33.1776L27.6187 34.7077C27.7257 34.8463 27.8832 34.9187 28.0431 34.9187C28.1603 34.9187 28.2793 34.8797 28.3784 34.7987L29.8642 33.5867C30.0986 33.3954 30.1376 33.0451 29.9519 32.8037C29.7668 32.5635 29.4272 32.5221 29.1922 32.7133L28.721 33.0977C29.3827 29.6599 32.3566 27.0373 35.8635 27.0373C39.8825 27.036 43.1527 30.4039 43.1527 34.5436C43.1527 38.6834 39.8831 42.0512 35.8629 42.0512C33.165 42.0512 30.7008 40.5286 29.4326 38.078C29.2926 37.8069 28.9656 37.7035 28.7012 37.8484C28.4373 37.9932 28.3376 38.3306 28.4782 38.6023C29.9351 41.4174 32.7647 43.166 35.8629 43.166C40.4794 43.166 44.2351 39.298 44.2351 34.5443C44.2351 29.7905 40.4788 25.9219 35.8629 25.9219Z" fill="#7F8C8D"/>
</g>
<defs>
<clipPath id="clip0_778_59732">
<rect width="19.2326" height="19.8073" fill="white" transform="translate(25.6631 24.6367)"/>
</clipPath>
</defs>
</svg>
