<svg width="24" height="25" viewBox="0 0 24 25" fill="none" xmlns="http://www.w3.org/2000/svg">
<g clip-path="url(#clip0_778_59913)">
<path d="M18.8782 11.5403C18.9281 10.1939 20.1173 9.63497 20.1173 8.20693C20.1173 6.77883 19.5821 6.17001 18.8782 5.45312C18.8999 6.81382 17.0737 7.88809 17.0737 9.09111C17.0737 10.6242 18.0525 11.0594 18.8782 11.5403Z" fill="#B0B0BC"/>
<path d="M16.2464 8.49484C16.2797 7.59746 17.0722 7.22487 17.0722 6.273C17.0722 5.32113 16.7155 4.91528 16.2464 4.4375C16.2609 5.34441 15.0439 6.06049 15.0439 6.86231C15.0439 7.88425 15.6962 8.17429 16.2464 8.49484Z" fill="#B0B0BC"/>
<path d="M18.0884 15.7688L18.9285 16.6089H20.1174V12.5508H18.0884V15.7688Z" fill="#6B6B72"/>
<path d="M17.0745 12.5508H14.8711L17.0745 14.7542V12.5508Z" fill="#6B6B72"/>
<path d="M3.88379 5.86817L10.5654 12.5498H3.88379V16.608H14.6235L18.6817 20.6661L20.1163 19.2315L12.7173 11.8325L5.31839 4.43359L3.88379 5.86817Z" fill="#6B6B72"/>
</g>
<defs>
<clipPath id="clip0_778_59913">
<rect width="16.2325" height="16.2325" fill="white" transform="translate(3.88379 4.43359)"/>
</clipPath>
</defs>
</svg>
