<svg width="26" height="25" viewBox="0 0 26 25" fill="none" xmlns="http://www.w3.org/2000/svg">
<path d="M4.79053 6.70989L11.1353 13.0546L10.2396 13.9326H13.2501L14.8808 15.5633L15.3826 17.194L18.8422 20.7616L20.2045 19.3994L6.15279 5.34766L4.79053 6.70989Z" fill="#BC7559"/>
<path d="M17.3145 13.0547H15.2222L17.3145 15.147V13.0547Z" fill="white"/>
<path d="M15.7548 11.7695L15.2006 10.9928C15.1108 10.8679 15.0562 10.7235 15.0522 10.5674C14.9859 9.15052 14.8571 7.87813 14.6854 6.88281C14.6303 6.89507 10.9424 6.89652 10.8876 6.88281C10.712 7.87813 10.5832 9.15052 10.5168 10.5674C10.5129 10.7235 10.4622 10.8679 10.3724 10.9928C10.3439 11.0327 9.78231 11.8198 9.81818 11.7695C9.29906 12.6165 8.98682 13.1278 8.98682 14.248V20.692C8.98682 21.4922 9.63472 22.144 10.4388 22.144H15.1342C15.9344 22.144 16.5862 21.4922 16.5862 20.692V14.248C16.5862 13.1278 16.27 12.6165 15.7548 11.7695ZM12.7884 18.5765C11.8673 18.5765 11.1179 17.8272 11.1179 16.906C11.1179 15.9849 11.8673 15.2394 12.7884 15.2394C13.7096 15.2394 14.4551 15.9849 14.4551 16.906C14.4551 17.8272 13.7096 18.5765 12.7884 18.5765Z" fill="#BC7559"/>
<path d="M10.9855 6.10688H14.5842C14.7989 6.10688 14.9745 5.93124 14.9745 5.71657V4.18656C14.9745 3.53863 14.4476 3.01562 13.8036 3.01562H11.7661C11.1221 3.01562 10.5952 3.53863 10.5952 4.18656V5.71657C10.5952 5.93124 10.7709 6.10688 10.9855 6.10688Z" fill="#BC7559"/>
<path d="M10.1161 8.28906L9.73975 8.91626L18.2696 17.4461H19.2732L10.1161 8.28906Z" fill="white"/>
</svg>
