<?xml version="1.0" encoding="UTF-8"?>
<svg xmlns="http://www.w3.org/2000/svg" version="1.1" xmlns:xlink="http://www.w3.org/1999/xlink" viewBox="0 0 157.5 122.3">
  <!-- Generator: Adobe Illustrator 29.1.0, SVG Export Plug-In . SVG Version: 2.1.0 Build 142)  -->
  <defs>
    <style>
      .st0 {
        fill: #00dfd4;
      }

      .st1 {
        opacity: .2;
      }

      .st2 {
        fill: url(#_무제_그라디언트_3);
      }

      .st2, .st3, .st4, .st5, .st6, .st7, .st8, .st9, .st10, .st11, .st12, .st13, .st14, .st15, .st16, .st17, .st18, .st19, .st20, .st21, .st22, .st23, .st24, .st25, .st26, .st27, .st28, .st29, .st30, .st31, .st32, .st33, .st34 {
        mix-blend-mode: multiply;
      }

      .st35 {
        mask: url(#mask-5);
      }

      .st3 {
        fill: url(#_무제_그라디언트_418);
      }

      .st4 {
        fill: url(#_무제_그라디언트_47);
      }

      .st4, .st5, .st18, .st19, .st20, .st22, .st27, .st29, .st30 {
        opacity: .5;
      }

      .st36 {
        mask: url(#mask-13);
      }

      .st37 {
        fill: #9bcbf3;
      }

      .st38 {
        fill: #edf5ff;
      }

      .st39 {
        fill: #594ba6;
      }

      .st40 {
        fill: #c58f80;
      }

      .st41 {
        mask: url(#mask-1);
      }

      .st42 {
        fill: #cf6e6a;
      }

      .st43 {
        fill: #b9dafc;
      }

      .st44 {
        fill: #2b2775;
      }

      .st45 {
        fill: #00ceba;
      }

      .st46 {
        fill: url(#_무제_그라디언트_48);
      }

      .st5 {
        fill: url(#_무제_그라디언트_421);
      }

      .st47 {
        fill: #3b9ad8;
      }

      .st6 {
        fill: url(#_무제_그라디언트_45);
      }

      .st48 {
        mask: url(#mask-10);
      }

      .st49 {
        mask: url(#mask-6);
      }

      .st50 {
        mask: url(#mask-7);
      }

      .st51 {
        filter: url(#luminosity-noclip6);
      }

      .st52 {
        fill: #fff;
      }

      .st53 {
        mask: url(#mask);
      }

      .st7 {
        fill: url(#_무제_그라디언트_35);
      }

      .st54 {
        fill: #b3b2b9;
      }

      .st8 {
        fill: url(#_무제_그라디언트_411);
      }

      .st55, .st25 {
        fill: #d689e0;
      }

      .st56 {
        filter: url(#luminosity-noclip10);
      }

      .st9 {
        fill: url(#_무제_그라디언트_417);
      }

      .st57 {
        fill: #c4dfff;
      }

      .st10 {
        fill: url(#_무제_그라디언트_43);
      }

      .st11 {
        fill: url(#_무제_그라디언트_9);
      }

      .st12 {
        fill: url(#_무제_그라디언트_420);
      }

      .st58, .st59 {
        fill: none;
      }

      .st13 {
        fill: url(#_무제_그라디언트_413);
      }

      .st60 {
        fill: #b263c4;
      }

      .st14 {
        fill: url(#_무제_그라디언트_46);
      }

      .st15 {
        fill: url(#_무제_그라디언트_32);
      }

      .st61 {
        mask: url(#mask-8);
      }

      .st59 {
        stroke: #fff;
        stroke-linecap: round;
        stroke-linejoin: round;
        stroke-width: 3px;
      }

      .st62 {
        mask: url(#mask-2);
      }

      .st63 {
        fill: #a74543;
      }

      .st16 {
        fill: url(#_무제_그라디언트_414);
      }

      .st64 {
        fill: #92c9ff;
      }

      .st17 {
        fill: url(#_무제_그라디언트_34);
      }

      .st65 {
        mask: url(#mask-9);
      }

      .st18 {
        fill: url(#_무제_그라디언트_412);
      }

      .st66 {
        fill: #fff6e0;
      }

      .st67 {
        clip-path: url(#clippath-1);
      }

      .st68 {
        fill: url(#_무제_그라디언트_91);
      }

      .st20 {
        fill: url(#_무제_그라디언트_4);
      }

      .st69 {
        isolation: isolate;
      }

      .st70 {
        fill: #bfbfbf;
      }

      .st21 {
        fill: url(#_무제_그라디언트_33);
      }

      .st71 {
        fill: #ffd7d5;
      }

      .st72 {
        fill: url(#_무제_그라디언트_49);
      }

      .st22 {
        fill: url(#_무제_그라디언트_422);
      }

      .st73 {
        fill: #46435a;
      }

      .st74 {
        fill: url(#_무제_그라디언트_415);
      }

      .st23 {
        fill: url(#_무제_그라디언트_36);
      }

      .st75 {
        opacity: .7;
      }

      .st76 {
        fill: #00baad;
      }

      .st77 {
        fill: #68b2f2;
      }

      .st78 {
        fill: #807f92;
      }

      .st79 {
        fill: #ffb27f;
      }

      .st80 {
        fill: #00baab;
      }

      .st81 {
        fill: #b5d6f8;
      }

      .st82 {
        filter: url(#luminosity-noclip2);
      }

      .st83 {
        fill: #ffcac7;
      }

      .st84 {
        fill: #7bc5ff;
      }

      .st85 {
        filter: url(#luminosity-noclip8);
      }

      .st86 {
        fill: #12111e;
      }

      .st87 {
        fill: #00a89f;
      }

      .st88 {
        mask: url(#mask-11);
      }

      .st89 {
        filter: url(#luminosity-noclip12);
      }

      .st90 {
        fill: #ffcaa6;
      }

      .st91 {
        fill: #302e43;
      }

      .st92 {
        mask: url(#mask-12);
      }

      .st26 {
        fill: url(#_무제_그라디언트_44);
      }

      .st27 {
        fill: url(#_무제_그라디언트_62);
      }

      .st28 {
        fill: url(#_무제_그라디언트_416);
      }

      .st93 {
        clip-path: url(#clippath-2);
      }

      .st94 {
        filter: url(#luminosity-noclip4);
      }

      .st95 {
        fill: #ffa7a1;
      }

      .st29 {
        fill: url(#_무제_그라디언트_6);
      }

      .st30 {
        fill: url(#_무제_그라디언트_61);
      }

      .st96 {
        mask: url(#mask-4);
      }

      .st31 {
        fill: url(#_무제_그라디언트_410);
      }

      .st97 {
        fill: #ffbfac;
      }

      .st98 {
        fill: #423c8f;
      }

      .st99 {
        fill: #00bfb1;
      }

      .st32 {
        fill: url(#_무제_그라디언트_31);
      }

      .st100 {
        fill: url(#_무제_그라디언트_419);
      }

      .st33 {
        fill: url(#_무제_그라디언트_41);
      }

      .st101 {
        fill: #24aaef;
      }

      .st102 {
        fill: #cde4fd;
      }

      .st103 {
        fill: #ffe8a7;
      }

      .st104 {
        clip-path: url(#clippath);
      }

      .st34 {
        fill: url(#_무제_그라디언트_42);
      }

      .st105 {
        fill: #ae786a;
      }

      .st106 {
        mask: url(#mask-3);
      }

      .st107 {
        filter: url(#luminosity-noclip);
      }
    </style>
    <linearGradient id="_무제_그라디언트_4" data-name="무제 그라디언트 4" x1="303.5" y1="102.9" x2="301.3" y2="103" gradientUnits="userSpaceOnUse">
      <stop offset="0" stop-color="#fff"/>
      <stop offset="1" stop-color="#c4dfff"/>
    </linearGradient>
    <clipPath id="clippath">
      <path class="st58" d="M247.9,92c0,0,3.9-2.2,5.9,2.3,0,0,1.5,2.3,1.4,5.3,0,0,.3,1.8-3.2,1.3,0,0-2.2,0-3.1-1.7l-1-.7s-2.3-3.5-1.6-4.5c0,0,.2-1.3,1.6-2Z"/>
    </clipPath>
    <linearGradient id="_무제_그라디언트_41" data-name="무제 그라디언트 4" x1="210.7" y1="130.8" x2="231" y2="130.8" xlink:href="#_무제_그라디언트_4"/>
    <linearGradient id="_무제_그라디언트_42" data-name="무제 그라디언트 4" x1="208.4" y1="138.6" x2="226.3" y2="138.6" xlink:href="#_무제_그라디언트_4"/>
    <linearGradient id="_무제_그라디언트_43" data-name="무제 그라디언트 4" x1="218.4" y1="138.4" x2="235.7" y2="138.4" xlink:href="#_무제_그라디언트_4"/>
    <linearGradient id="_무제_그라디언트_44" data-name="무제 그라디언트 4" x1="331.5" y1="77" x2="323.3" y2="72.6" xlink:href="#_무제_그라디언트_4"/>
    <linearGradient id="_무제_그라디언트_45" data-name="무제 그라디언트 4" x1="307.5" y1="140.9" x2="317.8" y2="140.9" xlink:href="#_무제_그라디언트_4"/>
    <linearGradient id="_무제_그라디언트_46" data-name="무제 그라디언트 4" x1="299.6" y1="90.8" x2="330" y2="90.8" xlink:href="#_무제_그라디언트_4"/>
    <linearGradient id="_무제_그라디언트_47" data-name="무제 그라디언트 4" x1="327.1" y1="106.7" x2="308.5" y2="108.8" xlink:href="#_무제_그라디언트_4"/>
    <linearGradient id="_무제_그라디언트_48" data-name="무제 그라디언트 4" x1="284" y1="64.6" x2="284" y2="64.6" xlink:href="#_무제_그라디언트_4"/>
    <linearGradient id="_무제_그라디언트_49" data-name="무제 그라디언트 4" x1="287.5" y1="57.4" x2="282.4" y2="63.4" xlink:href="#_무제_그라디언트_4"/>
    <clipPath id="clippath-1">
      <path class="st58" d="M298.3,63.8s-4.2,8.4-3.2,14c0,0,0,3,1.4,6.2,0,0,1.7,3.4,4.7,1,0,0,2.8-1.3,3.5-3.8,0,0,1.5,0,2-2,0,0,.9-3.8-2.2-1.9,0,0,.3-14.7-6.1-13.4Z"/>
    </clipPath>
    <filter id="luminosity-noclip" x="245" y="86.8" width="8.8" height="11.6" color-interpolation-filters="sRGB" filterUnits="userSpaceOnUse">
      <feFlood flood-color="#fff" result="bg"/>
      <feBlend in="SourceGraphic" in2="bg"/>
    </filter>
    <filter id="luminosity-noclip1" x="245" y="-8261" width="8.8" height="32766" color-interpolation-filters="sRGB" filterUnits="userSpaceOnUse">
      <feFlood flood-color="#fff" result="bg"/>
      <feBlend in="SourceGraphic" in2="bg"/>
    </filter>
    <mask id="mask-1" x="245" y="-8261" width="8.8" height="32766" maskUnits="userSpaceOnUse"/>
    <linearGradient id="_무제_그라디언트_3" data-name="무제 그라디언트 3" x1="250.1" y1="93.1" x2="248.4" y2="91.7" gradientUnits="userSpaceOnUse">
      <stop offset="0" stop-color="#5c5c5c"/>
      <stop offset="1" stop-color="#fff"/>
    </linearGradient>
    <mask id="mask" x="245" y="86.8" width="8.8" height="11.6" maskUnits="userSpaceOnUse">
      <g class="st107">
        <g class="st41">
          <path class="st2" d="M253.7,90.2c.3-1.2-.3-2.6-1.4-3.1-.3-.1-.6-.2-.9-.2.1.8,0,1.7-.2,2.5-.4,1.2-1.1,2.4-1.9,3.4-1.2,1.5-2.7,2.8-4.3,3.9,0,0,0,0,0,0,.6.7,1.3,1.2,2,1.7-.1-.3-.4-.8,0-1,0,0,.2,0,.3,0,.3,0,.5,0,.7.3.1.1.3.2.4.3,0,0,.1,0,.2,0,0,0,0-.2,0-.3,0-.2-.1-.5-.2-.7,0-.2-.1-.3-.2-.5,0-.4.3-.7.3-1.1,0-.6,0-.7.5-1.1.5-.4,1-.8,1.5-1.1.3-.2.6-.5.8-.7,0,0,0,0,0-.1.1-.2.1-.3.3-.5.4.2.7.5,1,.8.2.2.4.5.6.7.2-.4-.2-1.2-.1-1.8,0-.5.3-1,.5-1.5Z"/>
        </g>
      </g>
    </mask>
    <linearGradient id="_무제_그라디언트_410" data-name="무제 그라디언트 4" x1="250.1" y1="93.1" x2="248.4" y2="91.7" xlink:href="#_무제_그라디언트_4"/>
    <filter id="luminosity-noclip2" x="300.3" y="70.9" width="10.4" height="18.9" color-interpolation-filters="sRGB" filterUnits="userSpaceOnUse">
      <feFlood flood-color="#fff" result="bg"/>
      <feBlend in="SourceGraphic" in2="bg"/>
    </filter>
    <filter id="luminosity-noclip3" x="300.3" y="-8261" width="10.4" height="32766" color-interpolation-filters="sRGB" filterUnits="userSpaceOnUse">
      <feFlood flood-color="#fff" result="bg"/>
      <feBlend in="SourceGraphic" in2="bg"/>
    </filter>
    <mask id="mask-3" x="300.3" y="-8261" width="10.4" height="32766" maskUnits="userSpaceOnUse"/>
    <linearGradient id="_무제_그라디언트_31" data-name="무제 그라디언트 3" x1="294.4" y1="80.4" x2="310.7" y2="80.4" xlink:href="#_무제_그라디언트_3"/>
    <mask id="mask-2" x="300.3" y="70.9" width="10.4" height="18.9" maskUnits="userSpaceOnUse">
      <g class="st82">
        <g class="st106">
          <path class="st32" d="M310.3,79.1c-.3-1.4-.7-2.7-1.2-4.1-.4-1.3-.9-2.6-1.8-3.7-.1-.2-.3-.3-.4-.4-.3,1.2-1.1,2.3-2.1,3.1-1.1.9-2.4,1.6-3.8,2.1-.2,0-.5.2-.7.3.5.2,1,.4,1.6.6,0,0,1.3,1.1,2.5.1,0,0,2.6-1.5,2.2,1.9,0,0-.6,1.8-2.1,2.1.1.9.2,1.9.2,2.8,0,1.4-.8,2.1-1.1,3.4-.1.9.3,2.1,1.2,2.3-.6-.5-.5-1.5,0-2.1s1.3-.8,2.1-1.1c1.1-.5,2.3-1.1,2.9-2.2,1-1.5.6-3.5.2-5.3Z"/>
        </g>
      </g>
    </mask>
    <linearGradient id="_무제_그라디언트_411" data-name="무제 그라디언트 4" x1="294.4" y1="80.4" x2="310.7" y2="80.4" xlink:href="#_무제_그라디언트_4"/>
    <linearGradient id="_무제_그라디언트_412" data-name="무제 그라디언트 4" x1="239.8" y1="116.3" x2="265" y2="116.3" xlink:href="#_무제_그라디언트_4"/>
    <linearGradient id="_무제_그라디언트_413" data-name="무제 그라디언트 4" x1="97.5" y1="50.3" x2="118.9" y2="50.3" xlink:href="#_무제_그라디언트_4"/>
    <linearGradient id="_무제_그라디언트_6" data-name="무제 그라디언트 6" x1="71.4" y1="90.6" x2="69" y2="88.5" gradientUnits="userSpaceOnUse">
      <stop offset="0" stop-color="#fff"/>
      <stop offset="1" stop-color="#ffdec9"/>
    </linearGradient>
    <linearGradient id="_무제_그라디언트_61" data-name="무제 그라디언트 6" x1="72.3" y1="63.6" x2="66.5" y2="62.5" xlink:href="#_무제_그라디언트_6"/>
    <clipPath id="clippath-2">
      <path class="st58" d="M66,23.9c0,0,5.2-1.2,5.9,4.6,0,0,.9,3.1-.3,6.5,0,0-.3,2.2-4,.4,0,0-2.5-.8-2.9-2.9l-.9-1.2s-1.4-4.7-.3-5.7c0,0,.7-1.4,2.5-1.7Z"/>
    </clipPath>
    <linearGradient id="_무제_그라디언트_9" data-name="무제 그라디언트 9" x1="126.9" y1="36.7" x2="119.6" y2="32.7" gradientUnits="userSpaceOnUse">
      <stop offset="0" stop-color="#fff"/>
      <stop offset="1" stop-color="#ffc49f"/>
    </linearGradient>
    <linearGradient id="_무제_그라디언트_414" data-name="무제 그라디언트 4" x1="57.2" y1="28.1" x2="53" y2="30.8" xlink:href="#_무제_그라디언트_4"/>
    <linearGradient id="_무제_그라디언트_415" data-name="무제 그라디언트 4" x1="88.3" y1="29.9" x2="88.3" y2="29.9" xlink:href="#_무제_그라디언트_4"/>
    <linearGradient id="_무제_그라디언트_91" data-name="무제 그라디언트 9" x1="91.2" y1="23.9" x2="86.9" y2="28.9" xlink:href="#_무제_그라디언트_9"/>
    <filter id="luminosity-noclip4" x="61" y="20.7" width="11.9" height="10.4" color-interpolation-filters="sRGB" filterUnits="userSpaceOnUse">
      <feFlood flood-color="#fff" result="bg"/>
      <feBlend in="SourceGraphic" in2="bg"/>
    </filter>
    <filter id="luminosity-noclip5" x="61" y="-8261" width="11.9" height="32766" color-interpolation-filters="sRGB" filterUnits="userSpaceOnUse">
      <feFlood flood-color="#fff" result="bg"/>
      <feBlend in="SourceGraphic" in2="bg"/>
    </filter>
    <mask id="mask-5" x="61" y="-8261" width="11.9" height="32766" maskUnits="userSpaceOnUse"/>
    <linearGradient id="_무제_그라디언트_32" data-name="무제 그라디언트 3" x1="60.5" y1="25.9" x2="73" y2="25.9" xlink:href="#_무제_그라디언트_3"/>
    <mask id="mask-4" x="61" y="20.7" width="11.9" height="10.4" maskUnits="userSpaceOnUse">
      <g class="st94">
        <g class="st35">
          <path class="st15" d="M72.9,24.8c-.2-1.2-1-2.3-2.1-2.8,0,0-.3-1.1-.5-1.2,0,0,0,0,0,0-.3.8-.8,1.5-1.3,2.2-2,2.6-4.8,4.6-7.9,5.6.4.8,1,1.6,1.7,2.5,0-.4-.2-1.1.3-1.1.1,0,.2,0,.3,0,.3.1.6.3.7.6,0,.2.2.3.4.5,0,0,.1.1.2,0,.3,0,.2-1.4.1-1.6.7.2,1.5.3,2.2,0,.7-.2,1.3-.9,1.3-1.6,0-.6-.5-1.2-.4-1.8,0-.8,1.8-1.8,1.9-.6,0-1.2,1.1,0,1.3.4.1.2.8,1.9.5,2.1.9-.8,1.4-2.1,1.3-3.3Z"/>
        </g>
      </g>
    </mask>
    <linearGradient id="_무제_그라디언트_416" data-name="무제 그라디언트 4" x1="60.5" y1="25.9" x2="73" y2="25.9" xlink:href="#_무제_그라디언트_4"/>
    <filter id="luminosity-noclip6" x="105" y="25.8" width="4.4" height="9" color-interpolation-filters="sRGB" filterUnits="userSpaceOnUse">
      <feFlood flood-color="#fff" result="bg"/>
      <feBlend in="SourceGraphic" in2="bg"/>
    </filter>
    <filter id="luminosity-noclip7" x="105" y="-8261" width="4.4" height="32766" color-interpolation-filters="sRGB" filterUnits="userSpaceOnUse">
      <feFlood flood-color="#fff" result="bg"/>
      <feBlend in="SourceGraphic" in2="bg"/>
    </filter>
    <mask id="mask-7" x="105" y="-8261" width="4.4" height="32766" maskUnits="userSpaceOnUse"/>
    <linearGradient id="_무제_그라디언트_33" data-name="무제 그라디언트 3" x1="99" y1="30.3" x2="109.4" y2="30.3" xlink:href="#_무제_그라디언트_3"/>
    <mask id="mask-6" x="105" y="25.8" width="4.4" height="9" maskUnits="userSpaceOnUse">
      <g class="st51">
        <g class="st50">
          <path class="st21" d="M108.9,27c-.2-.5-.5-.9-.9-1.2-.2.9-.5,1.9-1,2.7-.5.9-1.2,1.7-2,2.4,0,0,.2.1.3.2,0,0,0,0,.1,0,0,0,.1,0,.2,0,.4-.3.7-.6,1.2-.3,1.4.9-.8,2.2-.6,2.9.1.4.2.8.4,1.1-.1-.4,1.8-2.1,2-2.5,1.1-1.6,1.1-3.5.3-5.2Z"/>
        </g>
      </g>
    </mask>
    <linearGradient id="_무제_그라디언트_417" data-name="무제 그라디언트 4" x1="99" y1="30.3" x2="109.4" y2="30.3" xlink:href="#_무제_그라디언트_4"/>
    <filter id="luminosity-noclip8" x="109.1" y="20.3" width="4.4" height="8" color-interpolation-filters="sRGB" filterUnits="userSpaceOnUse">
      <feFlood flood-color="#fff" result="bg"/>
      <feBlend in="SourceGraphic" in2="bg"/>
    </filter>
    <filter id="luminosity-noclip9" x="109.1" y="-8261" width="4.4" height="32766" color-interpolation-filters="sRGB" filterUnits="userSpaceOnUse">
      <feFlood flood-color="#fff" result="bg"/>
      <feBlend in="SourceGraphic" in2="bg"/>
    </filter>
    <mask id="mask-9" x="109.1" y="-8261" width="4.4" height="32766" maskUnits="userSpaceOnUse"/>
    <linearGradient id="_무제_그라디언트_34" data-name="무제 그라디언트 3" x1="105.4" y1="24.3" x2="113.5" y2="24.3" xlink:href="#_무제_그라디언트_3"/>
    <mask id="mask-8" x="109.1" y="20.3" width="4.4" height="8" maskUnits="userSpaceOnUse">
      <g class="st85">
        <g class="st65">
          <path class="st17" d="M110.1,20.3c.3.7.6,1.5.7,2.3.2,1.5,0,3.2-.8,4.5-.3.4-.6.8-.9,1.1.1,0,.2,0,.4,0,2.2,0,4-1.8,4-4s-1.4-3.6-3.3-4Z"/>
        </g>
      </g>
    </mask>
    <linearGradient id="_무제_그라디언트_418" data-name="무제 그라디언트 4" x1="105.4" y1="24.3" x2="113.5" y2="24.3" xlink:href="#_무제_그라디언트_4"/>
    <filter id="luminosity-noclip10" x="99.3" y="61.5" width="14.1" height="8.3" color-interpolation-filters="sRGB" filterUnits="userSpaceOnUse">
      <feFlood flood-color="#fff" result="bg"/>
      <feBlend in="SourceGraphic" in2="bg"/>
    </filter>
    <filter id="luminosity-noclip11" x="99.3" y="-8261" width="14.1" height="32766" color-interpolation-filters="sRGB" filterUnits="userSpaceOnUse">
      <feFlood flood-color="#fff" result="bg"/>
      <feBlend in="SourceGraphic" in2="bg"/>
    </filter>
    <mask id="mask-11" x="99.3" y="-8261" width="14.1" height="32766" maskUnits="userSpaceOnUse"/>
    <linearGradient id="_무제_그라디언트_35" data-name="무제 그라디언트 3" x1="99.3" y1="65.7" x2="113.4" y2="65.7" xlink:href="#_무제_그라디언트_3"/>
    <mask id="mask-10" x="99.3" y="61.5" width="14.1" height="8.3" maskUnits="userSpaceOnUse">
      <g class="st56">
        <g class="st88">
          <path class="st7" d="M109.1,66.5c1.2.9,2.2,2,2.8,3.3.2-.3.4-.6.6-.8,0,0,1.9-3.2,0-7.5,0,0-8.2,2.5-13.3,1,0,0,0,1.1.2,2.6.8-.2,1.6-.4,2.4-.4,2.5-.3,5.2.3,7.2,1.8Z"/>
        </g>
      </g>
    </mask>
    <linearGradient id="_무제_그라디언트_419" data-name="무제 그라디언트 4" x1="99.3" y1="65.7" x2="113.4" y2="65.7" xlink:href="#_무제_그라디언트_4"/>
    <filter id="luminosity-noclip12" x="113.9" y="86.2" width="6.3" height="11.8" color-interpolation-filters="sRGB" filterUnits="userSpaceOnUse">
      <feFlood flood-color="#fff" result="bg"/>
      <feBlend in="SourceGraphic" in2="bg"/>
    </filter>
    <filter id="luminosity-noclip13" x="113.9" y="-8261" width="6.3" height="32766" color-interpolation-filters="sRGB" filterUnits="userSpaceOnUse">
      <feFlood flood-color="#fff" result="bg"/>
      <feBlend in="SourceGraphic" in2="bg"/>
    </filter>
    <mask id="mask-13" x="113.9" y="-8261" width="6.3" height="32766" maskUnits="userSpaceOnUse"/>
    <linearGradient id="_무제_그라디언트_36" data-name="무제 그라디언트 3" x1="125.6" y1="96.3" x2="115.2" y2="91.9" xlink:href="#_무제_그라디언트_3"/>
    <mask id="mask-12" x="113.9" y="86.2" width="6.3" height="11.8" maskUnits="userSpaceOnUse">
      <g class="st89">
        <g class="st36">
          <path class="st23" d="M120.2,95.9c-1.8-3.5-4.4-8.3-5.8-9.7,0,.7,0,1.3,0,2,0,1.8-.1,3.7-.6,5.5,1,1.4,2,2.9,2.9,4.3,1.3-.4,2.4-1.1,3.4-2Z"/>
        </g>
      </g>
    </mask>
    <linearGradient id="_무제_그라디언트_420" data-name="무제 그라디언트 4" x1="125.6" y1="96.3" x2="115.2" y2="91.9" xlink:href="#_무제_그라디언트_4"/>
    <linearGradient id="_무제_그라디언트_421" data-name="무제 그라디언트 4" x1="97.4" y1="106.6" x2="106.2" y2="106.6" xlink:href="#_무제_그라디언트_4"/>
    <linearGradient id="_무제_그라디언트_422" data-name="무제 그라디언트 4" x1="116.5" y1="103.4" x2="124.5" y2="103.4" xlink:href="#_무제_그라디언트_4"/>
    <linearGradient id="_무제_그라디언트_62" data-name="무제 그라디언트 6" x1="50.8" y1="55.4" x2="69.5" y2="55.4" xlink:href="#_무제_그라디언트_6"/>
  </defs>
  <g class="st69">
    <g id="_레이어_1" data-name="레이어_1">
      <g>
        <g>
          <rect class="st37" x="291.5" y="57.1" width="46.5" height="96.4" rx="23.2" ry="23.2"/>
          <rect class="st37" x="293.6" y="57.1" width="46.5" height="96.4" rx="23.2" ry="23.2"/>
          <rect class="st77" x="292" y="57.9" width="45.2" height="95" rx="22.6" ry="22.6"/>
          <g>
            <path class="st102" d="M329.8,59.4h-3.3c-.3.2-.3,1.2-.3,1.2,0,1.3-1.1,2.4-2.4,2.4h-18.2c-1.3,0-2.4-1.1-2.4-2.4,0,0,0-1-.3-1.2h-3.6c-3.5,0-6.3,2.8-6.3,6.3v79.6c0,3.5,2.8,6.3,6.3,6.3h30.4c3.5,0,6.3-2.8,6.3-6.3v-79.6c0-3.5-2.8-6.3-6.3-6.3Z"/>
            <path class="st77" d="M303.3,60.6c0,1.3,1.1,2.4,2.4,2.4h18.2c1.3,0,2.4-1.1,2.4-2.4,0,0,0-1,.3-1.2h-23.5c.3.2.3,1.2.3,1.2Z"/>
          </g>
          <path class="st102" d="M317,61.2h-4.5c-.2,0-.4-.2-.4-.4h0c0-.2.2-.4.4-.4h4.5c.2,0,.4.2.4.4h0c0,.2-.2.4-.4.4Z"/>
          <path class="st102" d="M320.1,60.9c0,.3-.2.5-.5.5s-.5-.2-.5-.5.2-.5.5-.5.5.2.5.5Z"/>
        </g>
        <g>
          <path class="st64" d="M293.4,106.9l-9.3,4.3c-.5.2-1.2,0-1.4-.5l-6.9-14.8c-.2-.5,0-1.2.5-1.4l9.3-4.3c.5-.2,1.2,0,1.4.5l6.9,14.8c.2.5,0,1.2-.5,1.4Z"/>
          <path class="st43" d="M292.5,106.2l-8.4,3.8c-.5.2-1,0-1.3-.5l-6.2-13.3c-.2-.5,0-1,.5-1.3l8.4-3.8c.5-.2,1,0,1.3.5l6.2,13.3c.2.5,0,1-.5,1.3Z"/>
          <path class="st71" d="M291.8,101.2s-1.2-.1-1.9-1.8l-.2-.9-1.3-1.2s-.4-.6,0-1.1l1.7,1-.7-1.5s1.7.4,2.2,1l2,4,4.3,2.2-1.3,3.5-3.7-3.1-1-2Z"/>
          <path class="st95" d="M291.3,98s0,0,0,0l-1.2-.8s0,0,0-.1c0,0,0,0,.1,0l1.2.8s0,0,0,.1c0,0,0,0,0,0Z"/>
        </g>
        <path class="st52" d="M304.7,103.3s-4.9-6-4.6-12.9c0,0-2.6,1.1-3,16.9l-3.8.4,6,7.6s4,2,4.8-2.9h0c0-.2.1-.3.1-.5l.6-8.7Z"/>
        <path class="st20" d="M304.7,103.3s-4.9-6-4.6-12.9c0,0-1.1.4-1.9,4.8,1.7,3.4,3,7.2,3,11,0,3-.8,6-2.3,8.5l.4.5s4,2,4.8-2.9h0c0-.2.1-.3.1-.5l.6-8.7Z"/>
        <path class="st64" d="M230.9,157.3l-.9-6.9h6.7s-1.1,7-1.1,7c0,0-2.4,1.2-4.7-.1Z"/>
        <ellipse class="st38" cx="233.3" cy="150.3" rx="3.4" ry=".9"/>
        <ellipse class="st97" cx="233.4" cy="150.2" rx="2.7" ry=".6"/>
        <rect class="st43" x="232.4" y="115.8" width="28.6" height="10.3" rx="5.2" ry="5.2"/>
        <path class="st71" d="M263.9,153.5l.8,3.2s-.3,1.1.3,2.3,0,.4,0,.4c0,0,2.8,4.8,7.8,2.5,0,0,1.8-.3-3.8-5.5l-.6-4.1s-5,1.4-4.6,1.1Z"/>
        <path class="st71" d="M271.9,150.5l-.6,3.1s-.6,1.7-.8,3.2c0,0,4.8,1.7,9.9.9,0,0,1.7-1.4-4.8-4l.6-2.9-4.3-.3Z"/>
        <g>
          <polygon class="st105" points="229.4 142.7 228.6 148.1 228.9 148.6 230.1 143.3 229.4 142.7"/>
          <polygon class="st40" points="228.9 148.6 228.9 148.7 230.1 148.6 231.7 144.5 230.1 143.3 228.9 148.6"/>
          <polygon class="st97" points="240.7 158.8 240.8 158.9 242 158.7 244.2 150.3 241.6 150.5 240.7 158.8"/>
          <polygon class="st40" points="240.7 150.6 240.2 158.3 240.7 158.8 241.6 150.5 240.7 150.6"/>
          <polygon class="st97" points="280.1 145.9 278 146.2 280.2 153.2 281.3 153 280.1 145.9"/>
          <polygon class="st40" points="276.6 146.3 279.5 152.9 280.2 153.2 278 146.2 276.6 146.3"/>
        </g>
        <path class="st52" d="M246.7,143.8v6s31.2-3.6,31.2-3.6v-2.8c.2-1.2-.8-2.2-.8-2.2l-30.3,2.5Z"/>
        <path class="st52" d="M263.6,120.1l-.3-3.6c0-.6-.6-1.1-1.2-1.1-3.7,0-16,.1-24.6.3-.6,0-1.1.5-1.1,1.1v3.4c-.1,0,8.1,1.3,8.1,1.3,0,0,2.2-.3,2.2,3.7v6.2s16.3-.4,16.3-.4c0,0,0,0,0,0,.4-.8.5-1.9.5-1.9l.2-9Z"/>
        <g>
          <path class="st58" d="M277.9,143v3.2s0-2.8,0-2.8c0-.2,0-.3,0-.5Z"/>
          <path class="st57" d="M277.2,121.4l-13.6-1.3-.2,9s-.1,1.1-.5,1.9c.7.1,13.6,2.3,14.4,5.2l-.3,5.1s.7.7.9,1.7l.3-20.4c0-.9-1-1.3-1-1.3Z"/>
          <path class="st52" d="M280.6,121.5s-.2-.6-1.1-.8l-14.4-.8-1.5.2,13.6,1.3s1,.4,1,1.3l-.3,20.4c0,.2,0,.3,0,.5v2.8c0,0,4-.5,4-.5,0,0,.7-17.9-1.3-24.2Z"/>
        </g>
        <g>
          <path class="st38" d="M246.7,143.8l30.3-2.5.3-5.1c-3.6.4-29.4,1.5-30.6,1.5v6.1Z"/>
          <path class="st57" d="M262.9,131l-16.3.4v6.3c1.3,0,27-1.2,30.7-1.5-.7-2.9-14.4-5.2-14.4-5.2Z"/>
        </g>
        <path class="st55" d="M246.7,129.5s.9,4.4,3.3,5.1l10.4,2.2s.2,4.9.8,6.1l2.4,12.2s4.1,1.1,5.9,0c0,0-2.3-18.2-2.3-18.5s-.5-3.3-1.8-4.4l8,1.6s-.9,1.6-1,3.7l-1.5,15.1s4.1,1.1,5.5-.5l4.1-20.7s.2-3.5-2.1-3.9l-15.1-1.6s-17,3.6-16.7,3.6Z"/>
        <path class="st95" d="M240.6,114.2s-.8,4.7-.6,4.7c.2,0,4.9-3.5,4.9-3.5,0,0-3-1.7-4.2-1.2Z"/>
        <path class="st95" d="M260.8,111.2l2.5,6s.8,1,2,.5l.4-3.9-2.1-3.8s-3,1.3-2.8,1.3Z"/>
        <path class="st39" d="M249,102.2s-5.3,1.3-6.3,2.7-.5,2-.5,2l3,6.3s1,12.7,1.4,16.4c0,0,10.4.9,16.7-3.8,0,0-1.2-7.6-2.4-14.3l-2.2-8.4s-2-.5-3.7-.8h-6.1Z"/>
        <path class="st71" d="M247.9,92c0,0,3.9-2.2,5.9,2.3,0,0,1.5,2.3,1.4,5.3,0,0,.3,1.8-3.2,1.3,0,0-2.2,0-3.1-1.7l-1-.7s-2.3-3.5-1.6-4.5c0,0,.2-1.3,1.6-2Z"/>
        <path class="st83" d="M251.8,97.3c.2.3,0,.8-.6,1s-1,.1-1.1-.2c-.2-.3,0-.8.6-1,.5-.2,1-.1,1.1.2Z"/>
        <g class="st104">
          <path class="st83" d="M255.3,95.5c.2.3,0,.8-.6,1s-1,.1-1.1-.2c-.2-.3,0-.8.6-1,.5-.2,1-.1,1.1.2Z"/>
        </g>
        <path class="st71" d="M247.5,97.3s-1.3-.5-.6.9c0,0,.7,1.6,1.8,1.3,0,0,.4-.2.2-.7,0,0,0-1-1.3-1.6Z"/>
        <path class="st71" d="M248.9,99.3s0,2.5-.2,3.9c0,0,.8,2.6,4.5,2.4v-3.7c.1,0-3.5-3.4-4.4-2.5Z"/>
        <path class="st73" d="M251.5,96.2c0,.2,0,.3,0,.4-.1,0-.3,0-.3-.2,0-.2,0-.3,0-.4.1,0,.3,0,.3.2Z"/>
        <path class="st73" d="M253.4,95.3c0,.2,0,.3,0,.4-.1,0-.3,0-.3-.2,0-.2,0-.3,0-.4s.3,0,.3.2Z"/>
        <path class="st73" d="M248.3,97.9s0,0,0,0c0-.2-.3-.3-.5-.4-.2,0-.4-.1-.7-.1,0,0,0,0,0,0,0,0,0,0,0,0h0c.3,0,.5,0,.8.1.3.1.5.3.6.5,0,0,0,.1,0,.1,0,0,0,0,0,0Z"/>
        <path class="st63" d="M252.3,98.7l2-1s.6,1.2-.5,1.6c0,0-1,.3-1.4-.7Z"/>
        <path class="st78" d="M251.4,92.4s0,0,0,.1c-.2.3-.5.5-.8.7-.5.4-1,.8-1.5,1.1-.5.4-.5.5-.5,1.1,0,.4-.3.7-.3,1.1,0,.2,0,.4.2.5,0,.2.2.4.2.7,0,0,0,.2,0,.3,0,0-.1,0-.2,0-.1-.1-.3-.2-.4-.3-.2-.2-.4-.3-.7-.3,0,0-.2,0-.3,0-.4.2,0,.8,0,1-.7-.5-1.5-1.1-2.1-1.8s-1-1.5-1.1-2.4c0-.7.1-1.6.7-2.1.3-.3.7-.4.9-.7.6-.6.7-1.7,1.5-2,.4-.2.8-.2,1.2-.4.3-.2.5-.7.7-1,.7-1.1,2.1-1.5,3.3-1,1.1.5,1.8,1.9,1.4,3.1-.1.5-.4.9-.5,1.5,0,.5.3,1.3.1,1.8-.2-.2-.4-.4-.6-.7-.3-.3-.6-.6-1-.8-.1.2-.2.3-.3.5Z"/>
        <path class="st78" d="M250.2,95.8c0-.2,0-.6.5-.9,0,0,.2,0,.2,0h0c0,0,0,.2,0,.3-.1,0-.3.3-.3.6,0,.1-.1.2-.2.1h0c0,0-.1-.1-.1-.2Z"/>
        <path class="st78" d="M253.1,94.2c-.2,0-.5-.2-.8,0,0,0,0,.1,0,.2h0c0,0,.1.1.2,0,0,0,.3,0,.5,0,0,0,.2,0,.2-.1h0c0-.1,0-.2-.1-.2Z"/>
        <path class="st39" d="M243.3,104.5s-1.8.3-3,6.4l-.6,3.8,5.4.7.3-1.8-2.1-9.1Z"/>
        <path class="st39" d="M258.6,103.1s1.8-.6,6.4,6.5l-3.9,2.6-2.5-9.1Z"/>
        <polygon class="st71" points="252 105.2 253.3 107.9 253.2 105.4 252 105.2"/>
        <path class="st44" d="M255.2,105.8s0,0,0,0l-1.8-.4c0,0,0,0,0-.1,0,0,0,0,.1,0l1.7.4c0-.5,0-2.3-.3-3.1,0,0,0-.1,0-.1,0,0,.1,0,.1,0,.3.9.3,3.2.3,3.3,0,0,0,0,0,0,0,0,0,0,0,0Z"/>
        <path class="st44" d="M253.9,110.3s0,0,0,0l-.5-2.3-1.1-2.3-1.9,1.3s0,0-.1,0c-2.6-2.6-2.5-4-2.5-4.1,0,0,0,0,.1,0,0,0,0,0,0,.1,0,0-.2,1.4,2.3,3.9l2-1.4s0,0,0,0c0,0,0,0,0,0l1.2,2.4.5,2.2h.9c0,0-.6-2.4-.6-2.4v-2.2c0,0,0,0,0,0,0,0,0,0,0,0v2.1c0,0,.7,2.4.7,2.4,0,0,0,0,0,0,0,0,0,0,0,0h-1.1c0,0,0,0,0,0Z"/>
        <path class="st44" d="M245.4,113.6s0,0,0,0c0,0-.2-1-1-5,0,0,0-.1,0-.1,0,0,.1,0,.1,0,.8,4,1,5,1,5,0,0,0,0,0,.1,0,0,0,0,0,0Z"/>
        <path class="st44" d="M261.1,112s0,0,0,0l-.8-4.9c0,0,0-.1,0-.1,0,0,.1,0,.1,0l.8,4.9c0,0,0,.1,0,.1,0,0,0,0,0,0Z"/>
        <path class="st95" d="M253.6,100.9s-2.2.3-4.4-1.5c0,0,1,2.2,4.2,2.4l.2-.9Z"/>
        <path class="st71" d="M243.8,121.2l8.9-9.3-1.7-1.5-10.1,6.5s-1.7,1.7-.6,3.4c0,0,.5,2,3.5,1Z"/>
        <g>
          <path class="st71" d="M252.6,112.6c.5,0,1.5-1,1.5-1,.4-.5,2-1.6,2-1.6.7-.4.4-.7.4-.7l.3-.2c.4-.2,0-.5,0-.5h0c0-.7-.4-.6-.4-.6l-.7.2c0-.7-.7-.3-.7-.3-.8.4-3.5,1.1-3.5,1.1l.3-1c.2-.7-.1-1-.1-1-.4-.3-.5.4-.5.4-.1.3-.6,1.2-.6,1.2-.5.6-.4,2.1-.4,2.1,0,0,.5,2.2,2.2,1.9Z"/>
          <path class="st95" d="M251,109.3s0,0,0,0c0,0,0-.1,0-.1.2,0,.7-.2.7-.2,0,0,.1,0,.1,0,0,0,0,.1,0,.1,0,0-.4.1-.7.2,0,0,0,0,0,0Z"/>
          <path class="st95" d="M253.1,109.9s0,0,0,0c0,0,0-.1,0-.1l1.2-.6,1.5-.9s.1,0,.1,0c0,0,0,.1,0,.1l-1.5.9-1.2.6s0,0,0,0Z"/>
          <path class="st95" d="M253.8,110.6s0,0,0,0c0,0,0-.1,0-.1l1.5-.9,1.6-.9s.1,0,.1,0c0,0,0,.1,0,.1l-1.6.9-1.5.9s0,0,0,0Z"/>
          <path class="st95" d="M254.2,111s0,0,0,0c0,0,0-.1,0-.1l2.3-1.5s.1,0,.1,0c0,0,0,.1,0,.1l-2.3,1.5s0,0,0,0Z"/>
        </g>
        <path class="st60" d="M265.4,132.2s0,0,0,0c0,0-.9-2-5.8-3.3,0,0,0,0,0-.1,0,0,0,0,.1,0,5,1.3,5.9,3.4,5.9,3.5,0,0,0,.1,0,.1,0,0,0,0,0,0Z"/>
        <path class="st42" d="M252.9,97.4c0,0-.1,0-.2,0,0,0,0,0,0-.1,0,0,0,0,.1,0,.2,0,.4,0,.6-.2,0,0,0-.1,0-.2,0-.1-.1-.2-.3-.2-.6-.3-1-.9-1.2-1.5,0,0,0-.1,0-.1,0,0,.1,0,.1,0,.2.6.6,1.1,1.1,1.4.1,0,.3.2.4.4,0,.1,0,.2,0,.3-.1.2-.4.3-.6.3Z"/>
        <path class="st52" d="M252.5,98.7l1.7-.8s0,1-1.7.8Z"/>
        <path class="st52" d="M250.7,97.6h0s-.7-.4-1.1-1c0,0,0-.2,0-.2,0,0,0-.2.1-.2l1.7-1c.1,0,.3,0,.4,0,.2.3.5.8.5,1.4h0s0,0,0,0c0,0-.8.8-1.5.9h0ZM249.7,96.3s0,0,0,0c0,0,0,0,0,0,.3.5.9.8,1,.9.6-.1,1.2-.7,1.4-.8,0-.5-.3-1-.5-1.3,0,0-.1,0-.2,0l-1.7,1Z"/>
        <path class="st52" d="M253.3,96.1h0s-.6-.4-1-1c0,0,0-.2,0-.3,0,0,0-.2.2-.2l1.5-.9c.2,0,.3,0,.4,0,.2.3.5.8.5,1.4h0s0,0,0,0c0,0-.8.8-1.5.9h0ZM252.4,94.7s0,0,0,0c0,0,0,0,0,.1.3.5.8.9.9.9.6-.1,1.2-.7,1.3-.8,0-.5-.3-1-.5-1.2,0,0-.1,0-.2,0l-1.5.9Z"/>
        <path class="st52" d="M252,95.7h-.1c0-.1.4-.6.7-.5v.2c-.2,0-.5.2-.6.3Z"/>
        <rect class="st52" x="253.8" y="94.3" width=".7" height=".2" transform="translate(-14.1 133.7) rotate(-28.7)"/>
        <polygon class="st52" points="248 97.7 247.9 97.6 249.7 96.7 249.8 96.8 248 97.7"/>
        <path class="st39" d="M267,160s-.2-3.7,3.6-3.2c0,0,3,0,2.5,5,0,0,0,3.7-6.1,0-.5-.3-1.1-.7-1.7-1.2-.6-.5-1.1-1-1.4-1.4-.3-.3-.3-.7-.2-1.1.1-.3.4-.5.9-.6,0,0-.2.9,1.2,2.1l1.2.9v-.5Z"/>
        <path class="st98" d="M272.4,158s5.9.9,8.7.3c0,0,1.5-4.6-3.7-4.6,0,0-1.7.4-1.6,3.9,0,0-3-.2-5.2-1,0,0-.3-.1-.3.2,0,0,1.8.5,2.2,1.2Z"/>
        <g>
          <path class="st52" d="M246.6,125.3c0-4-2.2-3.7-2.2-3.7l-8.2-1.3s-4.1-.4-5.8,0l11.1,1.3c1,.3.7,1.5.7,1.5l-1.6,27.4,6-.7v-24.6Z"/>
          <path class="st43" d="M241.6,121.6l-11.1-1.3c-.2,0-.4.1-.5.2l-1.6,21.3s9.7,7.3,12.4,8.7l1.6-27.4s.3-1.3-.7-1.5Z"/>
        </g>
        <path class="st95" d="M250.5,96.9s0,0,0,0c0,0,0-.1,0-.1l.3-.2s.1,0,.1,0c0,0,0,.1,0,.1l-.3.2s0,0,0,0Z"/>
        <path class="st95" d="M253.5,95.3s0,0,0,0c0,0,0-.1,0-.1,0,0,.1,0,.2-.1,0,0,0,0,.1,0,0,0,0,0,0,.1,0,0-.2.1-.3.1,0,0,0,0,0,0Z"/>
        <path class="st95" d="M251.6,99.8s0,0,0,0c0,0,0,0,0-.1,0-.6.2-1.2.4-1.7,0,0,0,0,.1,0,0,0,0,0,0,.1-.2.5-.4,1.1-.4,1.7,0,0,0,0,0,0Z"/>
        <path class="st95" d="M254.6,97.7s0,0,0,0c-.1-.2-.3-.3-.5-.5,0,0,0,0,0-.1,0,0,0,0,.1,0,.2.1.4.3.5.5,0,0,0,.1,0,.1,0,0,0,0,0,0Z"/>
        <path class="st76" d="M230.1,124.6c-.4-1.1-.9-2.2-1.6-3.1-1.9-2.2-5-2.9-7.9-2.8-1.2,0-2.5.3-3.6.6-1,.3-2,.7-2.8,1.3-.7.5-1.3,1.3-1.8,2-2.2,3.5-2.3,8.2-.3,11.8.4-.5.6-1.1.9-1.7,1.6-2.7,4.8-4.4,7.9-4,1.9.2,3.7,1.1,5,2.5,1.1,1.1,1.6,4,2.9,4.7,3.5,1.8,1.8-9.9,1.3-11.4Z"/>
        <path class="st33" d="M224,126.8c-1.5-.4-3-1-4.6-1.2-2.9-.5-5.9.2-8.6,1.5-.4,2.5,0,5.2,1.3,7.4.4-.5.6-1.1.9-1.7,1.6-2.7,4.8-4.4,7.9-4,1.9.2,3.7,1.1,5,2.5,1.1,1.1,1.6,4,2.9,4.7,2.7,1.4,2.3-5.5,1.7-9.3-2.1.6-4.4.6-6.6,0Z"/>
        <rect class="st80" x="226.8" y="141.9" width="16" height=".5" transform="translate(87.3 373.7) rotate(-88.7)"/>
        <rect class="st99" x="230.7" y="131.9" width=".5" height="18.4" transform="translate(-18.6 36.4) rotate(-8.7)"/>
        <path class="st45" d="M214.1,135.6c-1.2,1.7-2,3.6-2.8,5.6-.9,2.1-1.8,4.1-2.9,6.1,3.7-.5,7.5-1,10.9-2.7,3.4-1.6,6.3-4.6,6.9-8.3,1.3-8.2-9.4-4.3-12.1-.7Z"/>
        <path class="st34" d="M217.4,132.9c.3,1.2.4,2.5.4,3.8,0,3.2-.8,6.3-2.2,9.2,1.3-.3,2.5-.8,3.7-1.4,3.4-1.6,6.3-4.6,6.9-8.3,1-6.1-4.7-5.5-8.8-3.3Z"/>
        <rect class="st87" x="232.7" y="138" width=".5" height="12.5" transform="translate(-8 13.9) rotate(-3.4)"/>
        <path class="st0" d="M226.3,129c-3.4,1-6.6,3.4-7.6,6.9-.6,2.2-.2,4.5.1,6.7.5,2.9,1,5.7,1.6,8.5,2.8-1.9,5.7-3.9,8.5-5.8,2.2-1.5,4.6-3.2,5.7-5.6.6-1.2.8-2.6,1-3.9.8-5.6-4.4-8.2-9.4-6.8Z"/>
        <path class="st80" d="M220.8,150.9h-.5c2.1-8.4,6.2-15.8,11.6-21.4l.4.4c-5.4,5.6-9.4,12.9-11.5,21.1Z"/>
        <path class="st99" d="M208.9,147.5l-.3-.4c3.4-2.6,6.1-5.1,9.2-8.1l.4.4c-3.1,3-5.8,5.5-9.2,8.1Z"/>
        <path class="st87" d="M211.9,134.1c-1.3-4.5,1.7-8.2,1.9-8.3h0c3.3-3,6.5-4.2,9.5-3.6,4.7.9,7.1,5.9,7.2,6.1l-.5.2s-2.4-5-6.8-5.9c-2.8-.6-5.8.6-9,3.5-.2.2-2.9,3.8-1.7,7.9h-.5Z"/>
        <path class="st10" d="M227.7,128.7c.9,1.1,1.3,2.4,1.5,3.8.2,1.8,0,3.6-.4,5.3-.5,2.5-1.2,5-2.3,7.4-.5,1-1,2-1.6,2.9,1.4-.9,2.7-1.9,4.1-2.8,2.2-1.5,4.6-3.2,5.7-5.6.6-1.2.8-2.6,1-3.9.7-5.1-3.5-7.6-8-7Z"/>
        <g>
          <path class="st37" d="M266.5,91.1h0c0,0,0-.1,0-.2,0-1.3-1.1-2.4-2.4-2.4s-2.2.9-2.4,2.1c-.2-1.2-1.2-2.1-2.4-2.1s-2.4,1.1-2.4,2.4,0,.1,0,.2h0s-.4,3.5,4.8,5.9h0s0,0,0,0c0,0,0,0,0,0h0c5.2-2.4,4.8-5.9,4.8-5.9Z"/>
          <path class="st52" d="M262.4,96.1s0,0,0,0c0,0-.1,0-.1-.1l-.4-3h-2.2c0,0-.1,0-.1,0l-.6-2.1-.8,3.3c0,0,0,0-.1,0,0,0-.1,0-.1,0l-.7-2.3h-.3c0,0-.1,0-.1-.1s0-.1.1-.1h.3c0,0,.1,0,.1,0l.6,2,.8-3.3c0,0,0,0,.1,0h0c0,0,.1,0,.1,0l.7,2.4h2.2c0,0,.1,0,.1.1l.3,2.4,1.2-5.7c0,0,0-.1.1-.1,0,0,.1,0,.1,0l.7,2.8h1.7c0,0,.1,0,.1.1s0,.1-.1.1h-1.8c0,0-.1,0-.1,0l-.6-2.4-1.2,5.9c0,0,0,.1-.1.1Z"/>
        </g>
        <path class="st47" d="M302.2,91.6s0,0,0,0c0,0,0-.1,0-.2l1.6-2s0,0,0,0c0,0,0,0,0,0l1.9,2c0,0,0,.1,0,.2,0,0-.1,0-.2,0l-1.8-1.9-1.5,1.9s0,0,0,0Z"/>
        <g>
          <rect class="st43" x="267.3" y="72.2" width="13.3" height="14.7" rx=".6" ry=".6"/>
          <g>
            <rect class="st52" x="265.9" y="70.8" width="13.3" height="14.7" rx="2.5" ry="2.5"/>
            <g>
              <g>
                <path class="st64" d="M269.8,76.4h-1.9c0,0-.1,0-.1-.1v-1.9c0,0,0-.1.1-.1h1.9c0,0,.1,0,.1.1v1.9c0,0,0,.1-.1.1ZM268,76.1h1.6v-1.6h-1.6v1.6Z"/>
                <path class="st64" d="M268.7,75.9h0s0,0-.1,0l-.5-.7c0,0,0-.1,0-.2,0,0,.1,0,.2,0l.4.6.6-.8c0,0,.1,0,.2,0,0,0,0,.1,0,.2l-.7.9s0,0-.1,0Z"/>
              </g>
              <path class="st64" d="M276.7,75.5h-6.4c0,0-.1,0-.1-.1s0-.1.1-.1h6.4c0,0,.1,0,.1.1s0,.1-.1.1Z"/>
              <path class="st64" d="M269.8,79.2h-1.9c0,0-.1,0-.1-.1v-1.9c0,0,0-.1.1-.1h1.9c0,0,.1,0,.1.1v1.9c0,0,0,.1-.1.1ZM268,79h1.6v-1.6h-1.6v1.6Z"/>
              <path class="st64" d="M276.7,78.4h-6.4c0,0-.1,0-.1-.1s0-.1.1-.1h6.4c0,0,.1,0,.1.1s0,.1-.1.1Z"/>
              <g>
                <path class="st64" d="M269.8,82.1h-1.9c0,0-.1,0-.1-.1v-1.9c0,0,0-.1.1-.1h1.9c0,0,.1,0,.1.1v1.9c0,0,0,.1-.1.1ZM268,81.8h1.6v-1.6h-1.6v1.6Z"/>
                <path class="st64" d="M268.7,81.6h0s0,0-.1,0l-.5-.7c0,0,0-.1,0-.2,0,0,.1,0,.2,0l.4.6.6-.8c0,0,.1,0,.2,0,0,0,0,.1,0,.2l-.7.9s0,0-.1,0Z"/>
              </g>
              <path class="st64" d="M276.7,81.2h-6.4c0,0-.1,0-.1-.1s0-.1.1-.1h6.4c0,0,.1,0,.1.1s0,.1-.1.1Z"/>
            </g>
          </g>
        </g>
        <g>
          <path class="st43" d="M330.5,69.5h-8.7c-.7,0-1.3.6-1.3,1.3v6.5c0,3.1,2.5,5.6,5.6,5.7h0s0,0,0,0h0c3.1,0,5.7-2.5,5.7-5.7v-6.5c0-.7-.6-1.3-1.3-1.3Z"/>
          <g>
            <g>
              <path class="st64" d="M325,81.5h0c-3.1,0-5.7-2.5-5.7-5.7v-6.5c0-.7.6-1.3,1.3-1.3h8.7c.7,0,1.3.6,1.3,1.3v6.5c0,3.1-2.5,5.7-5.7,5.7Z"/>
              <path class="st52" d="M325,80.2h0c-2.5,0-4.6-2.1-4.6-4.6v-5.3c0-.6.5-1.1,1.1-1.1h7.1c.6,0,1.1.5,1.1,1.1v5.3c0,2.5-2.1,4.6-4.6,4.6Z"/>
              <polygon class="st64" points="328 73.5 325.6 73.5 325.6 71.1 324.3 71.1 324.3 73.5 321.9 73.5 321.9 74.8 324.3 74.8 324.3 77.2 325.6 77.2 325.6 74.8 328 74.8 328 73.5"/>
            </g>
            <g class="st75">
              <path class="st26" d="M329.3,68h-4.4v13.5s0,0,0,0h0c3.1,0,5.7-2.5,5.7-5.7v-6.5c0-.7-.6-1.3-1.3-1.3Z"/>
            </g>
          </g>
        </g>
        <g>
          <polygon class="st77" points="308.8 131.3 307.5 150.5 315.3 150.5 317.8 131.8 308.8 131.3"/>
          <path class="st6" d="M317.8,131.8l-9-.5v1.8c2.1.2,5.6,2.8,4.2,17.4h2.3l2.5-18.7Z"/>
          <polygon class="st77" points="318.3 131.8 318.9 150.5 327 150.5 328 131 318.3 131.8"/>
          <g>
            <g>
              <g>
                <g>
                  <path class="st0" d="M280.6,101.4c-2.1,0-4.4-.3-7-.9-.1,0-.2-.2-.2-.3,0-.1.2-.2.3-.2,15.8,3.9,23-6.4,23-6.5,0-.1.2-.1.4,0,.1,0,.1.2,0,.4,0,.1-1.9,2.7-5.7,4.9-2.4,1.4-6.1,2.7-10.9,2.7Z"/>
                  <g>
                    <g>
                      <path class="st0" d="M275.4,101c0,1.6-1.1,2.9-2.7,3s-2.9-1.1-3-2.7c0-1.6,1.1-2.9,2.7-3,1.6,0,2.9,1.1,3,2.7Z"/>
                      <path class="st52" d="M270.8,102.3c-.7-1-.5-2.5.6-3.2,1-.7,2.5-.5,3.2.6.7,1,.5,2.5-.6,3.2-1,.7-2.5.5-3.2-.6Z"/>
                      <path class="st95" d="M273.1,103.3s0,0,0,0l-.6-.7s0,0,0-.1c0,0,0,0,.1,0l.6.7s0,0,0,.1c0,0,0,0,0,0Z"/>
                      <g>
                        <path class="st0" d="M274.5,99.3c.7.7.8,1.8.1,2.6-.7.7-1.8.8-2.6.1-.7-.7-.8-1.8-.1-2.6.7-.7,1.8-.8,2.6-.1Z"/>
                        <g>
                          <g>
                            <path class="st73" d="M295.1,90.2c0,0,.2.1.3.1,0,0-.2,0-.3-.1Z"/>
                            <path class="st73" d="M296.8,84.3c-.3-.7-.5-1.4-.6-2.2-.4-2.2-.7-4.3-.8-6.5l-.9-.3c.3,2.5.7,5.5-.4,7.8-.4.8-.8,1.5-1.1,2.3-.5,1.8.4,3.9,2,4.8-.6-.4-.6-1.5,0-2,.6-.6,1.6-.7,2.5-.5.9.2,1.7.5,2.6.4,0,0,.2,0,.2,0-1.6-.9-2.9-2.1-3.6-3.7Z"/>
                            <path class="st91" d="M303.3,85.7c.5-1.3.5-2.7,0-4.1-.4-1.3-1-2.6-1.7-3.8l-6.3-2.2c.1,2.2-.5,5.1,0,7.3.1.7.3,1.5.6,2.2.7,1.6,2.9,2.1,4.4,3,1.3-.2,2.4-1.2,2.9-2.4Z"/>
                          </g>
                          <path class="st71" d="M298.3,71.3s-4.2.9-3.2,6.5c0,0,0,3,1.4,6.2,0,0,1.7,3.4,4.7,1,0,0,2.8-1.3,3.5-3.8,0,0,1.5,0,2-2,0,0,.9-3.8-2.2-1.9,0,0,.3-7.1-6.1-5.8Z"/>
                          <g>
                            <path class="st73" d="M296.3,78.9c0,.3-.1.5-.3.5s-.3-.2-.3-.4c0-.3.1-.5.3-.5.2,0,.3.2.3.4Z"/>
                            <path class="st73" d="M299.4,78.7c0,.3-.1.5-.3.5s-.3-.2-.3-.4c0-.3.1-.5.3-.5s.3.2.3.4Z"/>
                          </g>
                          <path class="st42" d="M297.6,81.7s0,0,0,0c0,0,0,0-.1,0-.3,0-.5,0-.7-.4,0,0,0,0,0-.1.4-.7.6-1.6.6-2.4,0,0,0-.1.1-.1,0,0,.1,0,.1.1,0,.8-.2,1.7-.6,2.5.1.2.3.2.5.3,0,0,0,0,.1,0,0,0,.1,0,.1.1,0,0,0,.1-.1.1Z"/>
                          <path class="st71" d="M300,85.5s2.5,3.1,3.4,4.7c0,0,3.2-4.2,4.3-6.9l-1.8-2.9-1.6.2-4.3,4.8Z"/>
                          <path class="st95" d="M300,85.7s3.2-1.6,4.5-4.4c0,0,.5,3.2-3.3,5.8l-1.2-1.3Z"/>
                          <path class="st77" d="M302,87.8s-.5.7-.4,1.9l.2,1.6v.8s.3.3.3.3l1.2,5.1,2.1-2.3s.2-6.1,3-11.9l-.9-.9-3.9,7s-1-1.2-1.7-1.6Z"/>
                          <path class="st52" d="M328.2,114.3l-10.4-26.4s-1-3.3-5.8-3.3h-2.4c0-.1-1.1-1.2-1.1-1.2,0,0-2.2,3.1-3.4,12.3l-1.8,1.7s-1.5-6.3-1.7-8.1l-1.7,1.5s-.5.8,0,2.3l.9,3.2,7.8,19.1-1.4,16s17.8,2.4,22.9-.4l-1.8-16.8Z"/>
                          <g>
                            <path class="st58" d="M307.7,113.6c-.4,0-.8,0-1.2,0-.4.8.3,1.9,1.2,2.2.2,0,.5.1.7.2v-.6c0,0-.7-1.8-.7-1.8Z"/>
                            <path class="st58" d="M305.1,95.7c.2-1.9.5-3.5.8-4.9-1.4-.1-2.7,0-4,.4.5,2.5,1.4,6.1,1.4,6.1l1.8-1.7Z"/>
                            <path class="st14" d="M301.6,89.2l-1.7,1.5s-.3.6-.2,1.6c.7-.5,1.4-.9,2.3-1.2-.2-.8-.3-1.5-.4-1.9Z"/>
                            <path class="st4" d="M330,131.1l-1.8-16.8-10.4-26.4s-1-3.3-5.8-3.3h-2.4c0-.1-1.1-1.2-1.1-1.2,0,0-1.4,2-2.6,7.4,1.5.1,2.9.6,4.1,1.3,2.8,1.7,5.1,5,6.8,7.8,2,3.2,3.4,6.7,4.2,10.4,1.3,5.8,1,12-1,17.7-.3.8-1.7,3-1.5,3.8.4,1.2,2.6.7,3.7.7,2.5,0,5.4,0,7.7-1.3Z"/>
                          </g>
                          <path class="st71" d="M282.3,101.7h-1.6c0-.1-.4-1.1-2.7-1.2,0,0-2.7-.2-3-.8,0,0,0,.8.1.8.1,0-2.6-.8-2.6-.8,0,0-.6-.2-.6.5,0,0-.1.7,3,1.7l.8.3v.4s-2.1-.6-2.1-.6c0,0-1.2-1.5-1.8-.8,0,0-.3.2.1,1l1,1.2,2.3.6h-1.8c0,0-.2-.4-.2-.4l-.9-.9s-.1,1.1.7,2c0,0,1.1.3,1.8.2h-1.8c0,.1-.6-.7-.6-.7,0,0,0,.9.4,1.2,0,0,.2.4,2.8.4,0,0,3.5-.2,4.3-.6h2.3s0-3.5,0-3.5Z"/>
                          <path class="st52" d="M309.8,88.4l-11.2,11.6-17.1,1.5s-.4,3.7.6,7.3h20.9c0,0,15.3-15.4,15.3-15.4,0,0-2.6-11.9-8.5-4.9Z"/>
                          <path class="st73" d="M295.2,77.8s.5-1.2,1.3-.2c0,0-.6-.2-1.3.2Z"/>
                          <path class="st73" d="M298.3,77.3s.7-1,1.3,0c0,0-.6-.4-1.3,0Z"/>
                          <path class="st43" d="M305,107.1s0,0,0,0c0,0,0-.1,0-.2l12.5-13.1s.1,0,.2,0c0,0,0,.1,0,.2l-12.5,13.1s0,0,0,0Z"/>
                          <path class="st43" d="M305.6,92.8s0,0,0,0c0,0,0-.1,0-.2l5-5.3c0,0,.1,0,.2,0,0,0,0,.1,0,.2l-5,5.3s0,0,0,0Z"/>
                          <path class="st73" d="M294.9,77.2c.9-1.6.7-2.7,1.7-4.2,0,0,1.1,2.7,5.3,4.1,0,0,1.3,1.1,2.5.1,0,0,2.6-1.5,2.2,1.9,0,0-.6,1.8-2.1,2.1.1.9.2,1.9.2,2.8,0,1.4-.8,2.1-1.1,3.4-.1.9.3,2.1,1.2,2.3-.6-.5-.5-1.5,0-2.1.5-.6,1.3-.8,2.1-1.1,1.1-.5,2.3-1.1,2.9-2.2,1-1.5.6-3.5.2-5.3-.3-1.4-.7-2.7-1.2-4.1-.4-1.3-.9-2.6-1.8-3.7-2.3-2.8-6.8-2.3-9.8-1.4,0,0-4,1.1-2.9,5.6l.3,1.6Z"/>
                        </g>
                        <path class="st95" d="M273.2,105c0,0,0,0,0,0,0,0,0,0,0,0h2.2s0,0,0,0c0,0,0,0,0,0,0,0,0,0,0,0h-2.2s0,0,0,0Z"/>
                        <path class="st95" d="M277.7,100.8s0,0,0,0l-2.5-.5c0,0,0,0,0-.1s0,0,.1,0l2.5.5c0,0,0,0,0,.1,0,0,0,0,0,0Z"/>
                      </g>
                    </g>
                    <path class="st70" d="M307.3,79.8c-.5-.8-1.9-.9-2-.9-.1,0-.3.1-.3.2,0,.1.1.3.2.3.3,0,1.2.2,1.5.7.2.3.1.7-.1,1.2,0,0-3,6.3-7.1,8.6-.2,0-1.1.2-1.7-.2-.3-.2-.5-.6-.5-1.1v-3.2c-.2-.2-.3-.4-.4-.5v3.7c0,.7.2,1.2.7,1.5.5.3,1.1.4,1.5.4.3,0,.6,0,.6,0,0,0,0,0,0,0,4.2-2.3,7.2-8.6,7.3-8.8.3-.6.4-1.2.1-1.6ZM299.8,90h0s0,0,0,0Z"/>
                    <path class="st0" d="M297,88.6s0-.4.5-.2c0,0,0,1.1.9,1.3,0,0,1,.4,2.3-.7,0,0,.4,0,.4.3,0,0-1.3,1.3-2.8.8,0,0-1.4-.3-1.3-1.7Z"/>
                    <path class="st0" d="M297,93.9s0,0,0,0c-.1,0-.2-.2-.2-.3l.5-4.2c0-.1.1-.2.3-.2.1,0,.2.1.2.3l-.4,3.3,2.3-2.8c0-.1.2-.1.4,0,.1,0,.1.2,0,.4l-2.8,3.5c0,0-.1,0-.2,0Z"/>
                  </g>
                </g>
                <path class="st63" d="M298.4,83.2c-.4,0-.7,0-.7,0,0,0-.1,0,0-.2,0,0,0-.1.2,0,0,0,1.8.5,2.6-1.2,0,0,.1,0,.2,0,0,0,0,.1,0,.2-.5,1.2-1.5,1.4-2.2,1.4Z"/>
              </g>
              <path class="st43" d="M297.6,100.2c0,0-.1,0-.1-.1,0,0,0-.1.1-.1h.9c0,0,2.5-2.9,2.5-2.9l1.7-1.7c0,0,.1,0,.2,0,0,0,0,.1,0,.2l-1.7,1.7-2.5,2.9s0,0,0,0h-1c0,0,0,0,0,0Z"/>
              <path class="st43" d="M301.9,96.3s0,0,0,0c0,0-.1,0-.1-.1l.2-1.7-1.6-1.7s0,0,0-.1l.4-2.9c0,0,0-.1.1-.1,0,0,.1,0,.1.1l-.3,2.8,1.6,1.7s0,0,0,0l-.2,1.7c0,0,0,.1-.1.1Z"/>
              <path class="st43" d="M308.6,89.5c0,0-.1,0-.1-.1v-3.4c0,0,0-.1.1-.1h0c0,0,.1,0,.1.1v3.4c0,0,0,.1-.1.1h0Z"/>
              <path class="st43" d="M310.9,131.9h0c0,0-.1,0-.1-.1v-17.1c0,0-3.8-9.8-3.8-9.8,0,0,0-.1,0-.2,0,0,.1,0,.2,0l3.9,9.8s0,0,0,0v17.1c0,0-.1.1-.2.1Z"/>
            </g>
            <path class="st43" d="M320,127.4c-2.4,0-4.8-.4-5-.4,0,0-.1,0-.1-.1l-.3-8.9s0,0,0-.1c0,0,0,0,.1,0,3.5.8,7.6,0,7.7,0,0,0,0,0,.1,0,0,0,0,0,0,0l.6,9.1c0,0,0,.1,0,.1-.9.3-2,.4-3.2.4ZM315.2,126.7c.7.1,5.3.8,7.8,0l-.6-8.8c-.8.1-4.3.8-7.5,0l.3,8.6Z"/>
          </g>
        </g>
        <g>
          <g>
            <path class="st37" d="M287.2,61.7v-2.2c0-1.3-.9-2.4-2.2-2.8,0,0,0-.1,0-.2,0-.5-.5-.9-1-.9s-1,.4-1,.9,0,.2,0,.2c-1.3.4-2.2,1.5-2.2,2.8v2.2c-.4,0-.7.4-.7.8h0c0,.5.4.9.9.9h2c0,0,0,.2,0,.2,0,.5.5.9,1,.9s1-.4,1-.9,0-.2,0-.2h2c.5,0,.9-.4.9-.8h0c0-.4-.3-.8-.7-.8Z"/>
            <g>
              <path class="st52" d="M284.1,66.8c-.7,0-1.4-.4-1.6-1.1,0-.1,0-.3.2-.3.1,0,.3,0,.3.2.2.4.6.7,1.1.7s.9-.3,1.1-.7c0-.1.2-.2.3-.1.1,0,.2.2.2.3-.2.6-.9,1-1.6,1Z"/>
              <path class="st59" d="M284,64.6"/>
              <path class="st52" d="M284.1,66.8c-.7,0-1.4-.4-1.6-1.1,0-.1,0-.3.2-.3.1,0,.3,0,.3.2.2.4.6.7,1.1.7s.9-.3,1.1-.7c0-.1.2-.2.3-.1.1,0,.2.2.2.3-.2.6-.9,1-1.6,1Z"/>
              <path class="st52" d="M284.1,68.6c-1.3,0-2.4-.6-3.1-1.6,0-.1,0-.3,0-.3.1,0,.3,0,.4,0,.6.8,1.5,1.3,2.6,1.3s2-.5,2.6-1.3c0-.1.2-.1.4,0,.1,0,.2.2,0,.3-.7.9-1.8,1.5-3,1.5Z"/>
            </g>
          </g>
          <path class="st46" d="M284,64.6"/>
          <g class="st24">
            <path class="st72" d="M287.2,61.7v-2.2c0-1.3-.9-2.4-2.2-2.8,0,0,0-.1,0-.2,0-.5-.5-.9-1-.9s0,0-.1,0v8.9s0,0,.1,0c.6,0,1-.4,1-.9s0-.2,0-.2h2c.5,0,.9-.4.9-.8h0c0-.4-.3-.8-.7-.8Z"/>
          </g>
        </g>
        <g>
          <rect class="st64" x="280.3" y="95.5" width=".7" height="4.1" transform="translate(-15.1 126.5) rotate(-24.8)"/>
          <rect class="st64" x="281.9" y="96.7" width=".7" height="2.3" transform="translate(-15 127.2) rotate(-24.8)"/>
          <rect class="st64" x="283" y="95" width=".7" height="3.4" transform="translate(-14.5 127.6) rotate(-24.8)"/>
          <rect class="st64" x="284.7" y="96.6" width=".7" height="1.2" transform="translate(-14.5 128.4) rotate(-24.8)"/>
          <rect class="st64" x="285.9" y="95.3" width=".7" height="1.9" transform="translate(-14 128.8) rotate(-24.8)"/>
        </g>
        <g>
          <path class="st81" d="M344.5,85.6h-14c-.8,0-1.5.7-1.5,1.5v6.2c0,.8.7,1.5,1.5,1.5h1.8l-1.9,2.9,4.9-2.9h9.2c.8,0,1.5-.7,1.5-1.5v-6.2c0-.8-.7-1.5-1.5-1.5Z"/>
          <path class="st77" d="M329.3,98s0,0,0,0c0,0,0-.1,0-.2l1.8-2.7h-1.6c-.9,0-1.6-.7-1.6-1.6v-6.2c0-.9.7-1.6,1.6-1.6h14c.9,0,1.6.7,1.6,1.6v6.2c0,.9-.7,1.6-1.6,1.6h-9.2l-4.9,2.9s0,0,0,0ZM329.4,85.9c-.8,0-1.4.6-1.4,1.4v6.2c0,.8.6,1.4,1.4,1.4h1.8s0,0,.1,0c0,0,0,0,0,.1l-1.6,2.4,4.5-2.6s0,0,0,0h9.2c.8,0,1.4-.6,1.4-1.4v-6.2c0-.8-.6-1.4-1.4-1.4h-14Z"/>
          <g>
            <path class="st52" d="M334.2,90.3c0,.6-.5,1-1,1s-1-.5-1-1,.5-1,1-1,1,.5,1,1Z"/>
            <path class="st52" d="M338,90.3c0,.6-.5,1-1,1s-1-.5-1-1,.5-1,1-1,1,.5,1,1Z"/>
            <circle class="st52" cx="340.8" cy="90.3" r="1"/>
          </g>
        </g>
        <g>
          <path class="st81" d="M236.4,81h8.5c.5,0,.9.4.9.9v3.7c0,.5-.4.9-.9.9h-1.1l1.2,1.8-3-1.8h-5.6c-.5,0-.9-.4-.9-.9v-3.7c0-.5.4-.9.9-.9Z"/>
          <path class="st77" d="M244.3,88.6s0,0,0,0l-2.9-1.7h-5.5c-.6,0-1-.5-1-1v-3.7c0-.6.5-1,1-1h8.5c.6,0,1,.5,1,1v3.7c0,.6-.5,1-1,1h-.9l1,1.6s0,.1,0,.2c0,0,0,0,0,0ZM235.8,81.3c-.4,0-.8.4-.8.8v3.7c0,.4.4.8.8.8h5.6s0,0,0,0l2.5,1.5-.9-1.3s0,0,0-.1c0,0,0,0,.1,0h1.1c.4,0,.8-.4.8-.8v-3.7c0-.4-.4-.8-.8-.8h-8.5Z"/>
          <g>
            <path class="st52" d="M241.9,83.8c0,.3.3.6.6.6s.6-.3.6-.6-.3-.6-.6-.6-.6.3-.6.6Z"/>
            <path class="st52" d="M239.6,83.8c0,.3.3.6.6.6s.6-.3.6-.6-.3-.6-.6-.6-.6.3-.6.6Z"/>
            <path class="st52" d="M237.3,83.8c0,.3.3.6.6.6s.6-.3.6-.6-.3-.6-.6-.6-.6.3-.6.6Z"/>
          </g>
        </g>
        <path class="st83" d="M302.4,80.1c0,.5-.6,1-1.4,1s-1.4-.4-1.4-1,.6-1,1.4-1,1.4.4,1.4,1Z"/>
        <g class="st67">
          <ellipse class="st83" cx="294.8" cy="80.5" rx="1.4" ry="1"/>
        </g>
        <g>
          <path class="st64" d="M304,120.4c0,0-.1,0-.1-.1v-2.4c0,0,0-.1.1-.1s.1,0,.1.1v2.4c0,0,0,.1-.1.1Z"/>
          <path class="st64" d="M305.1,119.3h-2.4c0,0-.1,0-.1-.1s0-.1.1-.1h2.4c0,0,.1,0,.1.1s0,.1-.1.1Z"/>
        </g>
        <g>
          <path class="st64" d="M315.8,83.1c0,0-.1,0-.1-.1v-2.1c0,0,0-.1.1-.1s.1,0,.1.1v2.1c0,0,0,.1-.1.1Z"/>
          <path class="st64" d="M316.8,82.1h-2.1c0,0-.1,0-.1-.1s0-.1.1-.1h2.1c0,0,.1,0,.1.1s0,.1-.1.1Z"/>
        </g>
        <path class="st64" d="M327.3,104.4c-.4,0-.8-.4-.8-.8s.4-.8.8-.8.8.4.8.8-.4.8-.8.8ZM327.3,103.1c-.3,0-.5.2-.5.5s.2.5.5.5.5-.2.5-.5-.2-.5-.5-.5Z"/>
        <path class="st64" d="M328.9,105.3c-.3,0-.5-.2-.5-.5s.2-.5.5-.5.5.2.5.5-.2.5-.5.5ZM328.9,104.6c-.1,0-.3.1-.3.3s.1.3.3.3.3-.1.3-.3-.1-.3-.3-.3Z"/>
        <g class="st1">
          <path class="st25" d="M263.6,130.5c.9.3,1.4,1.2,1.4,1.2l.6.5,7.8,1.6s-.9,1.6-1,3.7l-1.5,15.1s1,.3,2.2.4c1.3-18.5,2.5-20.5,2.5-20.5l-12.1-1.9Z"/>
        </g>
        <path class="st43" d="M302.7,109.1h0l-8.6-.2c0,0-.1,0-.1-.1,0,0,0-.1.1-.1l8.6.2c0,0,.1,0,.1.1,0,0,0,.1-.1.1Z"/>
        <g class="st19">
          <g class="st53">
            <path class="st31" d="M253.7,90.2c.3-1.2-.3-2.6-1.4-3.1-.3-.1-.6-.2-.9-.2.1.8,0,1.7-.2,2.5-.4,1.2-1.1,2.4-1.9,3.4-1.2,1.5-2.7,2.8-4.3,3.9,0,0,0,0,0,0,.6.7,1.3,1.3,2,1.8-.1-.3-.5-.9,0-1.1,0,0,.2,0,.3,0,.3,0,.5,0,.7.3.1.1.3.2.4.3,0,0,.1,0,.2,0,0,0,0-.2,0-.3,0-.2-.1-.5-.2-.7,0-.2-.1-.3-.2-.5,0-.4.3-.7.3-1.1,0-.6,0-.7.5-1.1.5-.4,1-.8,1.5-1.1.3-.2.6-.5.8-.7,0,0,0,0,0-.1.1-.2.1-.3.3-.5.4.2.7.5,1,.8.2.2.4.5.6.7.2-.4-.2-1.2-.1-1.8,0-.5.3-1,.5-1.5Z"/>
          </g>
        </g>
        <g class="st62">
          <path class="st8" d="M310.3,79.1c-.3-1.4-.7-2.7-1.2-4.1-.4-1.3-.9-2.6-1.8-3.7-.1-.2-.3-.3-.4-.4-.3,1.2-1.1,2.3-2.1,3.1-1.1.9-2.4,1.6-3.8,2.1-.2,0-.5.2-.7.3.5.2,1,.4,1.6.6,0,0,1.3,1.1,2.5.1,0,0,2.6-1.5,2.2,1.9,0,0-.6,1.8-2.1,2.1.1.9.2,1.9.2,2.8,0,1.4-.8,2.1-1.1,3.4-.1.9.3,2.1,1.2,2.3-.6-.5-.5-1.5,0-2.1s1.3-.8,2.1-1.1c1.1-.5,2.3-1.1,2.9-2.2,1-1.5.6-3.5.2-5.3Z"/>
        </g>
        <path class="st18" d="M261.1,112.2l3.9-2.6c-4.2-6.4-6-6.5-6.3-6.5-.2,0-.4-.1-.7-.2.2.8.4,1.7.5,2.5.3,2.3.6,4.7.3,7-.4,4.3-2.5,8.2-5,11.7-1.5,2-3.1,3.9-4.9,5.6,3.4,0,10-.5,14.6-3.9,0,0-1.1-7.1-2.3-13.6Z"/>
        <g>
          <g>
            <path class="st64" d="M262.9,108l-3.4-.5c-.1,0-.2-.1-.2-.3l2-7.9c0-.1.1-.2.2-.2l3.4.5c.1,0,.2.1.2.3l-2,7.9c0,.1-.1.2-.2.2Z"/>
            <path class="st52" d="M263.3,108l-3.4-.5c-.1,0-.2-.1-.2-.3l2-7.9c0-.1.1-.2.2-.2l3.4.5c.1,0,.2.1.2.3l-2,7.9c0,.1-.1.2-.2.2Z"/>
          </g>
          <g>
            <path class="st71" d="M266.7,113.7l-1.9-6s.4-.9.3-1.2c0,0,.4-.6.4-1l-.3-.5s.2-.8.2-1c0,0-.5-.8-.8,0v.5s-.4-.5-.4-.5l-1.8-.7s-.5-.2-.5.2c0,0-.3.3.5.6l1.2.6.3.5-.2.3-.8-.4-1.8-.7s-.7-.4-.7,0c0,.4,0,.4.9.9l1.1.5.8.6h0c0,.1-.9-.2-.9-.2l-1.8-.9s-.3-.2-.4.1c0,0-.4.4.6.8,0,0-.5.1.9,1.5,0,0,1.2,1,1.3,1,0,0,.1,0,.1,0v6.2s.1,2.8,2.3,2.9c0,0,2.6-.2,1.7-4.3Z"/>
            <path class="st95" d="M262.7,107.6s0,0,0,0l-.9-.5-1.4-.8s0,0,0-.1c0,0,0,0,.1,0l1.4.8.9.5s0,0,0,.1c0,0,0,0,0,0Z"/>
            <path class="st95" d="M262.8,105.7s0,0,0,0c0,0,0,0,0-.1,0,0,0,0,0-.1,0,0,0,0,0,0,0,0,0,0,0,0,0,0,0,.2,0,.2,0,0,0,0,0,0Z"/>
            <path class="st95" d="M262,106.8s0,0,0,0c0,0,0,0,0-.1,0,0,0-.1,0-.2,0,0,0,0,.1,0,0,0,0,0,0,.1,0,0,0,.2-.1.2,0,0,0,0,0,0Z"/>
            <path class="st95" d="M261.6,107.7s0,0,0,0c0,0,0,0,0-.1,0,0,0-.1,0-.2,0,0,0,0,0,0,0,0,0,0,0,0,0,0,0,.2,0,.2,0,0,0,0,0,0Z"/>
            <path class="st95" d="M264,104.5s0,0,0,0c0,0,0,0,0-.1v-.2c.1,0,.2,0,.2,0,0,0,0,0,0,.1v.2c-.1,0-.2,0-.2,0Z"/>
            <path class="st95" d="M265.2,105.1s0,0,0,0l-.7-.6s0,0,0-.1c0,0,0,0,.1,0l.7.6s0,0,0,.1c0,0,0,0,0,0Z"/>
            <path class="st95" d="M263,109c-.1,0-.3,0-.4-.1,0,0,0,0,0-.1,0,0,0,0,.1,0,0,0,.2.1.3,0,0,0,0,0,.1,0,0,0,0,0,0,.1,0,0,0,0,0,0Z"/>
            <path class="st95" d="M263.4,106.8s0,0,0,0c0,0,0,0,0,0l-.3-.2s0,0,0-.1c0,0,0,0,.1,0l.3.2c0,0,0,0,0,.1,0,0,0,0,0,0,0,0,0,0,0,0Z"/>
          </g>
          <path class="st95" d="M264.2,105.6s0,0,0,0c0-.1-.2-.3-.3-.4,0,0,0,0,0-.1,0,0,0,0,.1,0,.1.1.2.3.3.4,0,0,0,.1,0,.1,0,0,0,0,0,0Z"/>
        </g>
        <path class="st95" d="M304.9,80.4s0,0-.1,0c-.2-.3-.3-.7-.3-1.2,0-.5.1-.8.3-1.1.3-.4.8-.5,1.1-.3,0,0,0,.1,0,.2,0,0-.1,0-.2,0-.3-.1-.6,0-.8.3-.2.2-.3.6-.3,1,0,.4,0,.8.3,1,0,0,0,.1,0,.2,0,0,0,0,0,0Z"/>
        <path class="st95" d="M305,80.3c0,0-.1,0-.1-.1,0,0,0-.1.1-.1.1,0,.3,0,.4,0,0,0,.1,0,.2-.2.1-.2.2-.4.1-.5,0-.2-.2-.3-.4-.3-.2,0-.3,0-.4.2,0,0-.1,0-.2,0,0,0,0-.1,0-.2.1-.2.4-.4.6-.4.3,0,.5.2.6.5,0,.2,0,.5-.2.7,0,0-.1.2-.2.2-.2,0-.3.1-.5.1,0,0,0,0,0,0Z"/>
        <path class="st0" d="M306.1,78.9s-.6-.9-1.2-.4c0,0-.1.4,0,.8,0,0,.2.5,1.2,0,0,0-.2,0,0-.5Z"/>
        <path class="st95" d="M248.4,99.1s0,0-.1,0c0,0,0-.1,0-.2,0,0,0-.1,0-.2,0,0,0-.2-.2-.3-.1-.1-.2-.2-.4-.3,0,0-.1,0-.2,0,0,0,0,0-.1,0,0,0,0,.1-.1.1,0,0-.1,0-.1-.1,0-.2.2-.3.3-.3.1,0,.3,0,.4.1.2,0,.3.2.4.4.1.1.2.3.2.4,0,.2,0,.4-.2.5,0,0,0,0,0,0Z"/>
        <path class="st95" d="M248.3,99.2c-.1,0-.3,0-.4-.2-.1-.1-.2-.3-.2-.5,0-.1,0-.2,0-.3,0-.1.2-.2.3-.1,0,0,.1,0,0,.2,0,0,0,.1-.2,0,0,0,0,0,0,0,0,0,0,0,0,.2,0,.1,0,.2.1.3,0,0,.2,0,.3,0,0,0,.1,0,.2,0,0,0,0,.1,0,.2,0,0-.1,0-.2,0Z"/>
      </g>
      <rect class="st66" x="-845.2" y="-81.6" width="355.9" height="251.2"/>
      <g>
        <g>
          <circle class="st103" cx="31" cy="45.5" r="6.4" transform="translate(-20.4 65.4) rotate(-76.9)"/>
          <circle class="st79" cx="31.8" cy="44.5" r="6.4" transform="translate(-18.9 65.1) rotate(-76.6)"/>
          <circle class="st52" cx="31.8" cy="44.5" r="5.2"/>
          <path class="st103" d="M31.7,44.5v4.1s0,0,0,0c2.3,0,4.1-1.9,4.1-4.1s-.2-1.5-.6-2.2l-3.6,2.2Z"/>
          <path class="st79" d="M32.8,44.5c0,.6-.5,1-1,1s-1-.5-1-1,.5-1,1-1,1,.5,1,1Z"/>
          <path class="st79" d="M32.3,44.3s0,0-.1,0c0,0,0-.1,0-.2l3-1.8c0,0,.1,0,.2,0,0,0,0,.1,0,.2l-3,1.8s0,0,0,0Z"/>
          <path class="st79" d="M31.7,48.6c0,0-.1,0-.1-.1v-3.4c0,0,0-.1.1-.1s.1,0,.1.1v3.4c0,0,0,.1-.1.1Z"/>
        </g>
        <g>
          <g>
            <path class="st79" d="M95.3,38.3c0,0-.1,0-.1-.1v-1.9c0,0,0-.1.1-.1s.1,0,.1.1v1.9c0,0,0,.1-.1.1Z"/>
            <path class="st79" d="M96.3,37.3h-1.9c0,0-.1,0-.1-.1s0-.1.1-.1h1.9c0,0,.1,0,.1.1s0,.1-.1.1Z"/>
          </g>
          <g>
            <path class="st79" d="M116.4,59.5c0,0-.1,0-.1-.1v-1.9c0,0,0-.1.1-.1s.1,0,.1.1v1.9c0,0,0,.1-.1.1Z"/>
            <path class="st79" d="M117.4,58.6h-1.9c0,0-.1,0-.1-.1s0-.1.1-.1h1.9c0,0,.1,0,.1.1s0,.1-.1.1Z"/>
          </g>
          <g>
            <path class="st73" d="M114.1,85.9s-4.2-12.7-4.5-13.4c0,0,2.4-2.5,2.9-3.5,0,0,1.9-3.2,0-7.5,0,0-8.2,2.5-13.3,1,0,0,.5,6.6,1.3,8.6l-5.6,7.9s-1.6,2.5.5,5.9c0,0,3.9,10.4,5.5,15.7.9,0,1.4.4,2.3.2.3,0,.9-.7,1.2-.8-.4-4.8-1.6-14.6-4.1-16.8l-.3-.8,3.7-4,6.8,10.2s3.7,5.3,6.3,9.2c1.3-.4,2.4-1.1,3.4-2-2-3.8-4.9-9.2-6.2-10.1Z"/>
            <g>
              <g>
                <path class="st71" d="M102.4,25.3s-3.2-.2-3.5,4.1c0,0-.6,2.2-.1,4.7,0,0,.6,2.8,3.2,1.6,0,0,2.3-.4,3.2-2.1,0,0,1.1.3,1.8-1.1,0,0,1.4-2.6-1.2-1.8,0,0,1.6-5.1-3.3-5.4Z"/>
                <g>
                  <path class="st73" d="M99.5,30.4c0,.2-.2.3-.3.3-.1,0-.2-.2-.2-.4,0-.2.2-.3.3-.3.1,0,.2.2.2.4Z"/>
                  <path class="st73" d="M101.8,30.9c0,.2-.2.3-.3.3-.1,0-.2-.2-.2-.4,0-.2.2-.3.3-.3.1,0,.2.2.2.4Z"/>
                </g>
                <path class="st42" d="M99.9,32.7s0,0,0,0h0c-.2-.1-.4-.2-.5-.5,0,0,0,0,0-.1.4-.5.7-1,.9-1.6,0,0,0-.1.1,0,0,0,0,0,0,.1-.2.6-.5,1.2-.9,1.7,0,.1.1.2.3.3h.1c0,0,0,.1,0,.2,0,0,0,0-.1,0Z"/>
                <path class="st71" d="M101,35.9s1.2,2.7,1.5,4.1c0,0,3.6-1.3,4.9-3.1l-1.2-3.5-1.2-.2-4,2.7Z"/>
                <path class="st95" d="M100.9,36s2.6-.5,4.1-2.3c0,0-.3,2.4-3.5,3.5l-.6-1.2Z"/>
                <path class="st73" d="M98.9,29.4s.6-.7,1,.1c0,0-.4-.3-1-.1Z"/>
                <path class="st73" d="M101.3,29.6s.7-.6.9.3c0,0-.3-.4-.9-.3Z"/>
                <path class="st73" d="M99.1,27.2c0,.2.1.4,0,.4.4-.4.7-1,1.4-1.1.7-.1,1.6,0,2.2.3.8.5,1.5.9,1.5,2,0,.4-.1.9,0,1.3.2.4.6.7,1,1,0,0,0,0,.1,0,0,0,.1,0,.2,0,.4-.3.7-.6,1.2-.3,1.4.9-.8,2.2-.6,2.9.1.4.2.8.4,1.1-.1-.4,1.8-2.1,2-2.5,1.1-1.6,1.1-3.5.3-5.2-1.1-2.5-4.5-3-6.8-2.9-.5,0-1.1.2-1.5.4-.4.2-.8.6-1.1,1-.2.3-.3.6-.4.9,0,.3,0,.3,0,.5,0,0,0,.1,0,.2Z"/>
              </g>
              <path class="st84" d="M101.9,38.2s2.4,2.7,5.4-1.5l5.2,1.3c2.9,2.1.6,9.8.6,9.8-.7,1.9-1.8,6.3-1.8,6.3l2.1,7.5c-7,3.2-15.1.9-15.1.9,0-1.9.9-6.4.9-6.4l-1.1-5.5c-1.4-2.9-.4-5.2-.4-5.2l-.2-5.6,3.2-1.1"/>
              <path class="st84" d="M97.6,39.8s-.9,1.2-1.3,2.8l-1.6,6.5,3.8,2.1-.9-11.4Z"/>
              <path class="st71" d="M90,47.2s2.9,7.5,4.5,9.1c0,0,2.3,2.3,3.9-1.3l-.3-3.9-3-1.7-.3,1.2-2.2-3.7-2.6.3Z"/>
              <path class="st84" d="M112.6,38s1.3-.3,2.8,3l3.6,5.5-5.6,2.7-.8-1.4v-9.9Z"/>
              <path class="st13" d="M112.9,48.5l.5.8,5.6-2.7-3.6-5.5c-1.5-3.3-2.8-3-2.8-3l-3-.8c.6,6.1-.4,12.4-3.4,17.8-1.6,3-3.9,5.6-6.5,7.7,2.6.5,8.5,1.2,13.7-1.2l-2.1-7.5s.9-3.5,1.5-5.6Z"/>
              <path class="st71" d="M92.4,47.7c.2-.4.5-.9.6-1.4.1-.5,0-1-.2-1.4-.1-.2-.3-.3-.4-.5-.1-.2.2-2-.5-1.7-.2,0-.2.2-.3.4,0,.3-.1.6-.2.9-.3,0-.5,0-.8.1-.1,0-.3.1-.3.2,0,.1,0,.3,0,.4-.2,0-.4,0-.5.3,0,.2,0,.4.1.6-.2,0-.3.1-.3.3s0,.3.2.4c-.3.3-.4.8-.1,1.2.2.4.6.6,1.1.8"/>
              <path class="st71" d="M114.1,49l.9,1.6s-1.9,1-6.2,1.6l.5,2.6s8.3.9,11.3-3l-2.2-4.8-4.3,2.1Z"/>
              <path class="st71" d="M109.4,52.6c-.2,0-.3-.2-.4-.4-.3-.6-1-1-1.6-1.3-.7-.2-1.4-.4-1.9-.8,0,0-.2-.1-.3-.1-.2,0-.3.2-.2.4,0,.2.2.3.3.4.5.4.9.7,1.5,1-.5,0-1,0-1.5,0-.3,0-.7,0-1,.1-.5.1-.5.8-.2.7-.2,0-.3.2-.3.4,0,.2.1.4.3.5-.2,0-.3.3-.3.5,0,.2.2.4.4.4-.2,0-.2.5-.1.6.2.2.8.3,1.1.3.2,0,.5.1.7.2.3,0,.5,0,.8,0,1,0,2-.4,3-.7"/>
              <path class="st95" d="M91.8,47.7s0,0,0,0c0,0,0,0,0-.1,0,0,0,0,.1,0,.2,0,.3,0,.4-.2,0-.1,0-.3,0-.4,0,0,0,0,0-.1,0,0,0,0,0,0,.1,0,.3,0,.3-.2,0-.1,0-.3,0-.4,0,0,0,0,0,0,0,0,0,0,0,0,0,0,.1-.2.1-.3,0-.1,0-.2-.1-.4-.2-.3-.3-.6-.5-.8-.2-.2-.5-.4-.8-.4,0,0,0,0,0,0,0,0,0,0,0,0,.3,0,.7.2.9.4.2.2.4.5.6.8,0,.1.1.3.1.4,0,.2,0,.3-.1.4,0,.2,0,.4,0,.5,0,.1-.2.2-.3.3,0,.1,0,.3,0,.5,0,.2-.3.3-.5.3Z"/>
              <path class="st95" d="M92.3,46.1s0,0,0,0c-.2-.3-.3-.6-.6-.8-.2-.3-.5-.4-.8-.5,0,0-.2,0-.2,0h0c-.1,0-.2,0-.3,0,0,0,0,0,0-.1,0,0,0,0,.1,0,0,0,.2,0,.2,0h0c0,0,.2,0,.3,0,.3,0,.6.3.9.6.2.3.4.6.6.9,0,0,0,0,0,.1,0,0,0,0,0,0Z"/>
              <path class="st95" d="M92.1,46.9s0,0,0,0c-.3-.2-.5-.5-.8-.7-.3-.3-.8-.6-1.3-.5,0,0,0,0,0,0,0,0,0,0,0,0,.5,0,1,.3,1.4.6.3.2.6.5.8.7,0,0,0,0,0,.1,0,0,0,0,0,0Z"/>
              <path class="st95" d="M91.8,47.6s0,0,0,0l-1.2-1c-.1-.1-.3-.2-.4-.2,0,0,0,0,0,0,0,0-.2,0-.3,0,0,0,0,0,0-.1,0,0,0,0,.1,0,0,0,0,0,.1,0,0,0,0,0,0,0,.2,0,.4,0,.6.2l1.2,1s0,0,0,.1c0,0,0,0,0,0Z"/>
              <path class="st95" d="M91.4,47.9c-.4,0-.8-.3-1.2-.5-.1,0-.2-.2-.3-.3,0,0,0,0,0-.1,0,0,0,0,.1,0,0,0,.1.2.2.3.4.3.7.5,1.2.5,0,0,0,0,0,0,0,0,0-.1,0-.2,0,0,0,0,0,0,0,0,0,0,0,0,0,0,0,.3-.1.4,0,0-.1,0-.2,0,0,0,0,0-.1,0Z"/>
              <path class="st95" d="M105.1,52.7c-.2,0-.4,0-.5,0-.2,0-.5,0-.6,0,0,0,0,0,0,0,0,0,0,0,0,0,.2,0,.4,0,.7,0,.2,0,.4,0,.5,0s0,0,0,0,0,0,0,0Z"/>
              <path class="st95" d="M105.1,53.6s0,0,0,0c-.3,0-.7,0-.9,0-.1,0-.2,0-.3,0,0,0,0,0,0,0,0,0,0,0,0,0,0,0,.2,0,.3,0,.3,0,.6,0,.9,0,0,0,0,0,0,.1,0,0,0,0,0,0Z"/>
              <path class="st95" d="M105.1,54.5c-.2,0-.3,0-.5,0-.2,0-.4,0-.6,0h0s0,0,0,0c0,0,0,0,0,0,.2,0,.4,0,.6,0,.2,0,.4,0,.6,0h0s0,0,0,0c0,0,0,0,0,0,0,0,0,0,0,0Z"/>
              <rect class="st86" x="99.2" y="68.4" width="6.5" height=".2" transform="translate(-13.5 110.3) rotate(-53.6)"/>
              <polygon class="st86" points="103.8 78.6 103.6 78.4 109.5 72.4 109.7 72.6 103.8 78.6"/>
              <path class="st95" d="M97,53.2s0,0,0,0c0-.1-.1-.3-.2-.4l-1.9-2.3s0,0,0-.1c0,0,0,0,.1,0l1.9,2.3c.1.1.2.3.3.5,0,0,0,0,0,.1,0,0,0,0,0,0Z"/>
              <path class="st95" d="M114.9,50.7s0,0,0,0c0,0,0,0,0-.1.2,0,.4-.2.6-.2.3-.1.7-.2,1-.3l1.2-.3s0,0,.1,0c0,0,0,0,0,.1l-1.2.3c-.3,0-.7.2-1,.3-.2,0-.4.1-.6.2,0,0,0,0,0,0Z"/>
            </g>
            <g>
              <path class="st71" d="M102.8,104.3c.3.3.2.8.1,1.2.8-.6,1.5-1.3,2-2.1l-.3-.7s0-1-.2-2.6c-.3,0-.6.2-.9.3-.8.2-1.7.3-2.5.4.3,1.2.6,2.1.7,2.6,0,0,0,.3-.2.9.2,0,.5,0,.7,0,.2,0,.5,0,.7.2Z"/>
              <path class="st71" d="M120.7,102.1c.5,0,1,.6.8,1.2.4-.7.8-1.5,1-2.4,0-.3,0-.6,0-.9-.1,0-.2-.1-.4-.2,0,0-.8-1.7-1.9-3.9-1,.9-2.1,1.6-3.4,2,.9,1.4,1.7,2.6,2.1,3.4,0,0,.2.3.2,1,.4,0,.7-.1,1.1-.2.2,0,.3,0,.5,0Z"/>
            </g>
            <g>
              <path class="st52" d="M119.3,108.6c.8,0,1.7-.5,2.2-1.2.5-.7.6-1.5,1.2-2.2.3-.3.4-.6.6-.9.4-.8.8-1.6,1.1-2.4-.3-.5-1-1.3-2-1.9,0,.3,0,.6,0,.9-.2.8-.5,1.6-1,2.4.2-.5-.3-1.1-.8-1.2-.2,0-.3,0-.5,0-.4,0-.7.1-1.1.2,0,.7-.2,1.9-1,3.4,0,0-1.3,1.2-1.6,2,.8.6,1.8,1,2.8.9Z"/>
              <path class="st54" d="M123.4,104.3c-.2.3-.4.6-.6.9-.6.7-.7,1.5-1.2,2.2-.5.7-1.3,1.1-2.2,1.2-1,.1-2-.2-2.8-.9,0,.2-.1.4,0,.6,0,0,1.1,2.3,5,0,0,0,.6-.7,1.1-2.1,0,0,2.1-2,2.2-3.8,0,0,0-.2-.3-.5-.3.8-.7,1.6-1.1,2.4Z"/>
              <path class="st54" d="M105.2,107.7c-.3.3-.7.5-1,.8-.5.4-.9,1-1.4,1.5-1.3,1.4-3.6,1.8-5.4,1,0,.2,0,.5.2.8,0,0,2.5,1.7,5.6-1.1,0,0,.6-.9,1.3-1.4,0,0,2.3-1.1,1.8-2.6h0c-.3.3-.6.8-1,1.1Z"/>
              <path class="st52" d="M102.9,105.5c.1-.4.2-1-.1-1.2-.2-.2-.5-.2-.7-.2-.2,0-.5,0-.7,0-.3,1-.9,2.7-1.9,4.3,0,0-2,1.1-2.1,2.5,1.7.8,4,.4,5.4-1,.5-.5.9-1.1,1.4-1.5.3-.3.7-.5,1-.8.4-.3.7-.7,1-1.2l-1.3-3.1c-.5.8-1.2,1.5-2,2.1Z"/>
            </g>
            <path class="st95" d="M106.6,51.9s0,0,0,0c0,0,0,0,0-.1.3-.1.7-.2,1-.2,0,0,0,0,0,0,0,0,0,0,0,0-.3,0-.6,0-.9.2,0,0,0,0,0,0Z"/>
            <path class="st95" d="M91.5,44.3s0,0,0,0v-.2c0,0,0,0,0-.1,0,0,0,0,.1,0v.2c0,0,0,0,0,.1,0,0,0,0,0,0Z"/>
            <path class="st95" d="M92.4,47.1s0,0,0,0c0,0,0,0,0,0,0,0,0,0,0,0,0,0,0,0,0,0,0,0,0-.1.1-.1,0,0,.2,0,.3.1,0,0,0,0,0,.1,0,0,0,0,0,0Z"/>
            <path class="st95" d="M90,47.4s0,0,0,0c0,0,0,0,0-.1,0,0,0,0,.1,0,0,0,.1,0,.2,0,0,0,0,0,.1,0,0,0,0,0,0,.1,0,0-.1,0-.2,0Z"/>
            <path class="st101" d="M112.9,48.8s0,0,0,0c-.6-1.3-1.3-2.6-2-3.8,0,0,0,0,0-.1,0,0,0,0,.1,0,.7,1.3,1.3,2.6,2,3.8,0,0,0,0,0,.1,0,0,0,0,0,0Z"/>
            <path class="st101" d="M98.2,51.1s0,0,0,0c0-.4-.2-.8-.3-1.1,0-.4-.2-.7-.3-1.2,0-.4-.2-.7-.1-1.1,0-.2,0-.5.1-.7h0c.2-1.1.4-2.2.4-3.2,0,0,0,0,0,0,0,0,0,0,0,0,0,1.1-.2,2.1-.4,3.2h0c0,.3-.1.5-.1.7,0,.4,0,.7.1,1.1,0,.4.2.8.3,1.1,0,.4.2.7.3,1.2,0,0,0,0,0,.1,0,0,0,0,0,0Z"/>
          </g>
          <path class="st101" d="M103.9,39.8c-1.6,0-2.6-1.1-2.7-1.2,0,0,0,0,0-.1,0,0,0,0,.1,0,0,0,1.1,1.2,2.7,1.1,1.3,0,2.6-1,3.9-2.7,0,0,0,0,.1,0,0,0,0,0,0,.1-1.3,1.8-2.6,2.7-4,2.8,0,0-.1,0-.2,0Z"/>
        </g>
        <path class="st63" d="M99.7,33.5l2-.7s.6,1.5-.8,1.8c0,0-1.2.3-1.2-1.2Z"/>
        <path class="st52" d="M99.8,33.5l1.8-.6s-.8,1.1-1.8.6Z"/>
        <g>
          <g>
            <g>
              <rect class="st90" x="42.7" y="12.9" width="39.2" height="81.2" rx="19.6" ry="19.6" transform="translate(124.6 107) rotate(180)"/>
              <rect class="st90" x="41" y="12.9" width="39.2" height="81.2" rx="19.6" ry="19.6" transform="translate(121.1 107) rotate(180)"/>
              <rect class="st79" x="43.3" y="13.6" width="38.1" height="80" rx="19.1" ry="19.1" transform="translate(124.7 107.1) rotate(180)"/>
              <g>
                <path class="st102" d="M49.6,14.8h2.8c.2.2.2,1,.2,1,0,1.1.9,2,2,2h15.3c1.1,0,2-.9,2-2,0,0,0-.8.2-1h3c2.9,0,5.3,2.4,5.3,5.3v67c0,2.9-2.4,5.3-5.3,5.3h-25.6c-2.9,0-5.3-2.4-5.3-5.3V20.1c0-2.9,2.4-5.3,5.3-5.3Z"/>
                <path class="st79" d="M71.9,15.8c0,1.1-.9,2-2,2h-15.3c-1.1,0-2-.9-2-2,0,0,0-.8-.2-1h19.8c-.2.2-.2,1-.2,1Z"/>
              </g>
              <rect class="st66" x="60.1" y="15.7" width="4.4" height=".6" rx=".3" ry=".3" transform="translate(124.7 32) rotate(180)"/>
              <path class="st66" d="M57.8,16.1c0,.2.2.4.4.4s.4-.2.4-.4-.2-.4-.4-.4-.4.2-.4.4Z"/>
            </g>
            <g>
              <polygon class="st79" points="71.6 83.6 71.3 91.2 62.1 91.2 62.1 84.5 71.6 83.6"/>
              <path class="st29" d="M71.6,83.6l-2.6.2c-1,2.9-2.8,5.5-5.2,7.4h7.5l.3-7.6Z"/>
              <polygon class="st79" points="51.8 83.5 51.9 91.2 61.2 91.2 61.4 84 51.8 83.5"/>
              <g>
                <path class="st52" d="M72.3,39.3s3.7,1.1,4,1.6l5,10.6h-7.7s-1.4-12.2-1.2-12.2Z"/>
                <g>
                  <path class="st79" d="M71.1,38.6c-.9-.5-1.9-.9-2.7-1.1l-4.7-.9s-1,.1-2.3.4c1,3.6,3.8,14.2,4.6,18,0,0,4.2-11,5.2-16.4Z"/>
                  <path class="st52" d="M72.2,67.8s.8-8.2,1.7-16.3l.8-10.4s-1.7-1.4-3.6-2.5c-1,5.4-5.2,16.4-5.2,16.4-.8-3.8-3.6-14.4-4.6-18-2.1.4-5,1-5.9,1.7-1.5,1.2-1.3,2.1-1.3,2.1l-.3,3.2s-1.2,18.1-2.1,22.4c0,0-1.1,11.6-.9,17.3,0,0,17.4,2.2,21.6.4l-.2-16.3Z"/>
                  <path class="st30" d="M75.3,40.3s-.7-.4-1.8-.6c-.2,4.9-.8,10.1-1.8,14.9-1.4,5.9-3.7,11.7-7.4,16.6-3.2,4.1-7.3,7.4-11.6,10.4-.6.4-1.2.8-1.8,1.3,0,.3,0,.7,0,1,0,0,17.4,2.2,21.6.4l-.2-16.3s.8-8.2,1.7-16.3l1.4-11.2Z"/>
                </g>
                <g>
                  <g>
                    <path class="st71" d="M66,23.9c0,0,5.2-1.2,5.9,4.6,0,0,.9,3.1-.3,6.5,0,0-.3,2.2-4,.4,0,0-2.5-.8-2.9-2.9l-.9-1.2s-1.4-4.7-.3-5.7c0,0,.7-1.4,2.5-1.7Z"/>
                    <path class="st83" d="M68.7,31.4c0,.4-.4.9-1,1-.6,0-1.2-.2-1.2-.6,0-.4.4-.9,1-1,.6,0,1.2.2,1.2.6Z"/>
                    <g class="st93">
                      <path class="st83" d="M73.2,30.5c0,.4-.4.9-1,1-.6,0-1.2-.2-1.2-.6,0-.4.4-.9,1-1,.6,0,1.2.2,1.2.6Z"/>
                    </g>
                    <path class="st71" d="M64.7,32.7s-.8,2.7-1.5,4.1c0,0,.3,2.4,4.6,3.4l1.2-3.1s-3-5.1-4.3-4.4Z"/>
                    <path class="st73" d="M68.6,30c0,.2,0,.4-.2.4s-.3-.1-.3-.3c0-.2,0-.4.2-.4s.3.1.3.3Z"/>
                    <path class="st73" d="M71.1,29.6c0,.2,0,.4-.2.4-.1,0-.3-.1-.3-.3,0-.2,0-.4.2-.4.1,0,.3.1.3.3Z"/>
                    <path class="st73" d="M67,20.5c.7-.1,1.4-.2,2.1-.2.6,0,.9,0,1.3.4.2.1.6,1.2.5,1.2,1.1.5,1.9,1.6,2.1,2.8.2,1.2-.3,2.5-1.3,3.3.2-.2-.4-1.9-.5-2.1-.2-.4-1.2-1.6-1.3-.4-.2-1.2-1.9-.2-1.9.6,0,.6.4,1.2.4,1.8,0,.7-.6,1.4-1.3,1.6-.7.2-1.5,0-2.2,0,0,.2.2,1.5-.1,1.6,0,0-.1,0-.2,0-.1-.2-.3-.3-.4-.5-.1-.3-.4-.5-.7-.6-.1,0-.2,0-.3,0-.5,0-.4.8-.3,1.1-1.5-1.9-2.6-3.3-2.2-5.8.3-2.2,1.7-3.4,3.9-4.1.8-.3,1.7-.5,2.5-.6Z"/>
                    <path class="st95" d="M69.4,36.1s-2.6-.4-4.5-3.2c0,0,.4,2.8,4,4.2l.5-.9Z"/>
                    <path class="st42" d="M70.1,31.9c-.2,0-.3,0-.4-.1,0,0,0,0,0-.1,0,0,0,0,.1,0,.2.1.5.1.7,0,0,0,.1-.1.1-.2,0-.1,0-.3-.2-.4-.5-.6-.8-1.3-.9-2.1,0,0,0,0,0,0,0,0,0,0,0,0,0,.7.3,1.4.8,2,.1.1.3.3.3.5,0,.1,0,.2-.2.3-.1.1-.3.2-.5.2Z"/>
                  </g>
                  <path class="st71" d="M64.7,31.4c0-.4-.2-.9-.4-1.3-.1-.2-.2-.3-.4-.4-.2,0-.4-.1-.6,0-.3,0-.6.2-.7.5,0,.1-.1.2-.1.4,0,.5.2,1.1.6,1.4.4.3,1,.5,1.5.4"/>
                  <path class="st63" d="M69.7,33.7c-.4,0-.8,0-.8-.1,0,0-.1,0,0-.1,0,0,0-.1.1,0,0,0,1.5.4,2.2-.5,0,0,.1,0,.2,0,0,0,0,.1,0,.2-.5.6-1.1.7-1.7.7Z"/>
                  <path class="st73" d="M67,29.4s.2-1.5,1.6-.8c0,0-.8.1-1.6.8Z"/>
                  <path class="st73" d="M71.4,28s-.7-1-1.6,0c0,0,.7-.2,1.6,0Z"/>
                </g>
                <path class="st79" d="M66,55.1s0,0,0,0c0,0,0,0,0,0l-3.9-6.5s0,0,0,0l.7-3.1-2.5-2.7s0,0,0,0v-5.4c0,0,.2-.1.2-.1,0,0,.1,0,.1.1v5.3c0,0,2.4,2.7,2.4,2.7,0,0,0,0,0,.1l-.7,3.2,3.8,6.3,4-4.8-.4-3.8s0,0,0-.1l2.9-2.5-.8-4.5c0,0,0-.1,0-.1,0,0,.1,0,.1,0l.8,4.5s0,0,0,.1l-2.9,2.5.4,3.8s0,0,0,0l-4.2,5s0,0,0,0Z"/>
                <path class="st79" d="M74,50.8s0,0,0,0c0,0-.1,0-.1-.1l.7-6.6c0,0,0-.1.1-.1,0,0,.1,0,.1.1l-.7,6.6c0,0,0,.1-.1.1Z"/>
                <g>
                  <path class="st71" d="M66.2,52.5l1.8-.8,2-2.4s2.9-1.2,3.9-1.1l1.5,1s.6.6.6,1.6l-.7-.2s.4.4-.1.6h-.9c0,0,.1.2-.4.3-.6,0-1.1,0-1.5.5-.2.2-.3.5-.4.8-.6,1.4-1.8,2.5-3.2,3-.2,0-.5.2-.7.1-.6-.1-.6-1.2-.9-1.7-.3-.6-.6-1.2-.9-1.8Z"/>
                  <path class="st95" d="M75.2,50.7s0,0,0,0c-.2-.6-.8-.9-.9-1l-1.5.4s0,0-.1,0c0,0,0,0,0-.1l1.6-.4s0,0,0,0c0,0,.8.4,1,1.1,0,0,0,0,0,.1,0,0,0,0,0,0Z"/>
                  <path class="st95" d="M74.9,50.2s0,0,0,0c-.6-.2-2.8-.3-2.9-.3,0,0,0,0,0,0,0,0,0,0,0,0h0c0,0,2.2,0,2.9.3,0,0,0,0,0,.1,0,0,0,0,0,0Z"/>
                  <path class="st95" d="M74.2,51.2s0,0,0,0h-2.3c0-.1,0-.2,0-.2,0,0,0,0,0,0h2.3c0,.1,0,.2,0,.2,0,0,0,0,0,0Z"/>
                  <path class="st84" d="M70.3,49.1l-3.3-1s-.3,0-.3.7l2.9.9.7-.6Z"/>
                  <polygon class="st84" points="75.3 50.6 76.6 51.1 75.4 51.2 75.3 50.6"/>
                </g>
              </g>
            </g>
            <path class="st79" d="M65.1,84.9h0c0,0-.1,0-.1-.1v-15.9c.1,0,.8-13.9.8-13.9,0,0,0-.1.1-.1,0,0,.1,0,.1.1l-.7,13.9v15.8c-.1,0-.2.1-.3.1Z"/>
            <path class="st79" d="M59.2,80.7c-2.5,0-5.1-.9-5.3-1,0,0,0,0,0-.1l.3-8.1s0,0,0,0c0,0,0,0,.1,0,2.6,1.4,7.7.6,7.7.6,0,0,0,0,0,0,0,0,0,0,0,0v7.9c-.1,0-.2,0-.2.1-.8.4-1.7.6-2.7.6ZM54.1,79.6c.7.2,5.2,1.7,7.7.4v-7.7c-.7.1-4.9.7-7.4-.5l-.3,7.8Z"/>
            <path class="st79" d="M62.3,36.9l1.4-1.9,3.5,2.7,2.1-.7.8,1.5-2.2,3.3s-5-1.6-5.6-4.8Z"/>
            <path class="st52" d="M68.9,40.2s0,0,0,0l-1.7-2.1-2.2,2s0,0-.1,0c-.9-.5-2.6-3-2.7-3.1,0,0,0-.1,0-.2,0,0,.1,0,.2,0,0,0,1.6,2.4,2.5,3l2.2-2s0,0,0,0c0,0,0,0,0,0l1.6,2.1c.2-.4.8-1.3.8-1.8,0,0,0-.1.1-.1,0,0,.1,0,.1.1,0,.7-.9,2.1-.9,2.1,0,0,0,0,0,0h0Z"/>
            <path class="st52" d="M56.1,38.2s-2.2,1-2.8,2.8l-2.6,14s-.2,5.6,1.8,6.8c0,0,18.9-4,16.7-5.4-.4-.6-.8-1.3-1.2-2.3-.6-1.6-.8-3.1-.8-4.1-6.2,2.1-8.9,2.5-8.9,2.5s0-.3,0-.3c.2,0,1.8-10.7,0-11.6-.2-.1.3-2.7-2.3-2.5Z"/>
          </g>
          <path class="st79" d="M58.4,52.6s0,0,0,0c0,0,0,0,0-.1l.7-5.5c0,0,0-.1.1-.1,0,0,.1,0,.1.1l-.6,5.3,6.4-1.7c0,0,.1,0,.1,0,0,0,0,.1,0,.1l-6.5,1.7s0,0,0,0Z"/>
          <path class="st79" d="M53.6,62.2c-.3,0-.6,0-1-.2,0,0,0,0,0-.2,0,0,0,0,.2,0,1.2.6,2-.2,2.1-.2,0,0,0,0,0,0l13.1-3.9c0,0,.1,0,.1,0,0,0,0,.1,0,.1l-13.1,3.9c-.1,0-.6.4-1.3.4Z"/>
          <g>
            <g>
              <path class="st102" d="M72.1,51.2l-4.5,7.2c-.3.4,0,1,.6,1h10.6c.2,0,.4,0,.6-.2l5-7.5c.3-.4,0-1-.6-1l-11.1.2c-.2,0-.4.1-.6.3Z"/>
              <path class="st77" d="M72.3,51.6l-4.5,7.2c-.3.4,0,1,.6,1h10.6c.2,0,.4,0,.6-.2l5-7.5c.3-.4,0-1-.6-1l-11.1.2c-.2,0-.4.1-.6.3Z"/>
              <g>
                <path class="st71" d="M75,58.8s.9-.1.6-1.7c0,0,.4-.3.1-1,0,0,0-.7.2-1,0,0-.4-.9-1.2.2,0,0-.4.2-.3.8l-1,.2s-.9-.7-1.5-.1c0,0-.5,0,0,.6l.2.4-1.2.4-1-.7s-.5-1-1.1-.6l-.2.3s-.9.1-.4.9c0,0-.6.3.2,1.3l1.5.8,2.3-.5s.3.2,1,.2l1.6-.4Z"/>
                <path class="st95" d="M71.5,57.9s0,0,0,0c-.1-.1-.3-.2-.4-.3,0,0,0,0,0-.1,0,0,0,0,.1,0,.2,0,.3.2.5.3h.8c0-.1,0,0,.1,0,0,0,0,0,0,.1h-.8c0,.1,0,.1,0,.1Z"/>
                <path class="st95" d="M71,58.8c-.3,0-.6,0-.8-.2-.2-.1-.3-.3-.5-.4-.4-.5-.8-1-1.1-1.6,0,0,0,0,0-.1,0,0,0,0,.1,0,.3.5.7,1.1,1.1,1.5.1.1.3.3.4.4.3.2.6.3,1,.2,0,0,0,0,.1,0,0,0,0,0,0,.1,0,0-.2,0-.3,0Z"/>
                <path class="st95" d="M70.3,59.2c-.2,0-.3,0-.5-.1-.3-.1-.5-.4-.7-.6l-.9-1s0,0,0-.1c0,0,0,0,.1,0l.9,1c.2.2.4.4.6.5.3.1.5.1.7,0,0,0,0,0,.1,0,0,0,0,0,0,.1-.1,0-.3.1-.4.1Z"/>
                <path class="st95" d="M72.2,59s0,0,0,0c0,0,0,0,0-.1l1.1-.4s0,0,.1,0c0,0,0,0,0,.1l-1.1.4s0,0,0,0Z"/>
              </g>
            </g>
            <path class="st71" d="M73.3,59.2l5,1.1s1.3-.6,1.1-2.5l-3.9-.7s-1.3,2.1-2.2,2.1Z"/>
            <path class="st79" d="M74.6,59.5s.5,3,2.4,3.5c0,0,2.4-1.7.7-5.6,0,0,.4,1.7-.3,2.6l-2.8-.5Z"/>
            <path class="st52" d="M77,63s4.6-.8,6.9-3.8c.4-.6.5-1.3.2-2l-1.2-2.6-1.9,2.8h-3.2s1.3,3.1-.7,5.6Z"/>
            <path class="st79" d="M81.1,57.5c0,0-.1,0-.1-.1,0,0,0-.1.1-.1h.9s0,0,0,0c0,0,.1,0,.1.1,0,0,0,.1-.1.1h-.9s0,0,0,0Z"/>
            <path class="st95" d="M72.7,57.6s0,0,0,0l-.6-.5s0,0,0-.1c0,0,0,0,.1,0l.6.5s0,0,0,.1c0,0,0,0,0,0Z"/>
            <path class="st95" d="M74.8,57s0,0,0,0c-.1,0-.3-.1-.5-.1h-.1c-.3,0-.5-.2-.6-.3,0,0,0,0,0-.1,0,0,0-.1-.1-.1,0,0,0,0,0-.1,0,0,0,0,.1,0,.1,0,.2.2.2.2,0,0,0,0,0,0,0,.1.2.2.5.2h.1c.2,0,.4,0,.6.2,0,0,0,0,0,.1,0,0,0,0,0,0Z"/>
            <path class="st95" d="M74.5,56.5s0,0,0,0c-.1-.1-.1-.3-.1-.5,0,0,0,0,.1,0,0,0,0,0,0,.1,0,.1,0,.2,0,.3,0,0,0,0,0,.1,0,0,0,0,0,0Z"/>
          </g>
          <path class="st79" d="M54.2,53.7s0,0,0,0c0,0,0-.1,0-.2.5-.8,3.9-1.1,4.3-1.2,0,0,.1,0,.1.1,0,0,0,.1-.1.1-1,0-3.7.5-4.1,1.1,0,0,0,0,0,0Z"/>
          <path class="st79" d="M69,56.1s0,0-.1,0c-1-1.8-1.6-3.8-1.7-5.9,0,0,0-.1.1-.1h0c0,0,.1,0,.1.1,0,2,.6,4,1.7,5.7,0,0,0,.1,0,.2,0,0,0,0,0,0Z"/>
        </g>
        <g>
          <path class="st103" d="M126,30h-7.8c-.6,0-1.2.5-1.2,1.2v5.8c0,2.8,2.2,5,5,5.1h0s0,0,0,0h0c2.8,0,5.1-2.3,5.1-5.1v-5.8c0-.7-.5-1.2-1.2-1.2Z"/>
          <g>
            <g>
              <path class="st79" d="M117.1,28.6h7.8c.7,0,1.2.5,1.2,1.2v5.8c0,2.8-2.3,5.1-5.1,5.1h0c-2.8,0-5.1-2.3-5.1-5.1v-5.8c0-.6.5-1.2,1.2-1.2Z"/>
              <path class="st52" d="M117.9,29.8h6.3c.5,0,1,.4,1,1v4.7c0,2.3-1.8,4.1-4.1,4.1h0c-2.3,0-4.1-1.8-4.1-4.1v-4.7c0-.5.4-.9.9-.9Z"/>
              <polygon class="st79" points="123.8 33.6 121.6 33.6 121.6 31.4 120.5 31.4 120.5 33.6 118.3 33.6 118.3 34.7 120.5 34.7 120.5 36.9 121.6 36.9 121.6 34.7 123.8 34.7 123.8 33.6"/>
            </g>
            <path class="st11" d="M125,28.6h-4v12.1s0,0,0,0h0c2.8,0,5.1-2.3,5.1-5.1v-5.8c0-.7-.5-1.2-1.2-1.2Z"/>
          </g>
        </g>
        <g>
          <g>
            <rect class="st103" x="118.8" y="56.5" width="16.5" height="16.5" rx="7.3" ry="7.3"/>
            <rect class="st52" x="119.9" y="55.5" width="16.5" height="16.5" rx="7.3" ry="7.3"/>
            <g>
              <rect class="st79" x="122.5" y="60.3" width="1.6" height="5.2"/>
              <rect class="st79" x="125" y="58.7" width="1.6" height="6.7"/>
              <rect class="st79" x="127.6" y="62.5" width="1.6" height="3"/>
              <rect class="st79" x="130.2" y="63.7" width="1.6" height="1.8"/>
              <rect class="st79" x="132.8" y="61.7" width="1.6" height="3.8"/>
            </g>
            <path class="st79" d="M134.4,66.8h-11.9c0,0-.1,0-.1-.1s0-.1.1-.1h11.9c0,0,.1,0,.1.1s0,.1-.1.1Z"/>
          </g>
          <path class="st79" d="M121.9,67.2c-.3,0-.6-.2-.6-.6s.2-.6.6-.6.6.2.6.6-.2.6-.6.6ZM121.9,66.4c-.2,0-.3.1-.3.3s.1.3.3.3.3-.1.3-.3-.1-.3-.3-.3Z"/>
          <path class="st79" d="M135,67.2c-.3,0-.6-.2-.6-.6s.2-.6.6-.6.6.2.6.6-.2.6-.6.6ZM135,66.4c-.2,0-.3.1-.3.3s.1.3.3.3.3-.1.3-.3-.1-.3-.3-.3Z"/>
        </g>
        <g>
          <path class="st0" d="M83.7,34.7h0c0,0,0-.1,0-.2,0-1.2-1-2.2-2.2-2.2s-2,.8-2.2,1.9c-.1-1.1-1-1.9-2.2-1.9s-2.2,1-2.2,2.2,0,.1,0,.2h0s-.3,3.2,4.3,5.3h0s0,0,0,0c0,0,0,0,0,0h0c4.6-2.1,4.3-5.3,4.3-5.3Z"/>
          <path class="st52" d="M80,39.2s0,0,0,0c0,0-.1,0-.1-.1l-.3-2.7h-1.9c0,0-.1,0-.1,0l-.5-1.8-.7,2.9c0,0,0,0-.1,0,0,0-.1,0-.1,0l-.6-2.1h-.2c0,0-.1,0-.1-.1s0-.1.1-.1h.3c0,0,0,0,.1,0l.5,1.7.7-2.9c0,0,0,0,.1,0,0,0,.1,0,.1,0l.6,2.2h2c0,0,.1,0,.1.1l.3,2.1,1-5.1c0,0,0,0,.1,0,0,0,.1,0,.1,0l.6,2.5h1.5c0,0,.1,0,.1.1s0,.1-.1.1h-1.6c0,0-.1,0-.1,0l-.5-2.1-1.1,5.3c0,0,0,0-.1,0Z"/>
        </g>
        <g>
          <path class="st77" d="M56.4,29.2c0-2-1.6-3.7-3.7-3.7s-3.7,1.6-3.7,3.7.3,1.6.8,2.2h0s3,4.7,3,4.7l3.1-5.2h0c.3-.5.4-1.1.4-1.8Z"/>
          <circle class="st52" cx="52.8" cy="29.3" r="2.3" transform="translate(-7.2 22.3) rotate(-22.4)"/>
          <path class="st16" d="M56,31c.3-.5.4-1.1.4-1.8,0-2-1.6-3.6-3.5-3.7v10.5l3.1-5.1h0Z"/>
        </g>
        <g>
          <g>
            <path class="st79" d="M91,27.5v-1.8c0-1.1-.8-2-1.8-2.3,0,0,0-.1,0-.2,0-.4-.4-.8-.9-.8s-.9.4-.9.8,0,.1,0,.2c-1.1.3-1.8,1.2-1.8,2.3v1.8c-.3,0-.6.3-.6.7h0c0,.4.3.7.7.7h1.7c0,0,0,.1,0,.2,0,.4.4.8.9.8s.9-.4.9-.8,0-.1,0-.2h1.7c.4,0,.7-.3.7-.7h0c0-.4-.3-.7-.6-.7Z"/>
            <g>
              <path class="st52" d="M88.3,31.8c-.6,0-1.2-.4-1.4-.9,0-.1,0-.2.1-.3.1,0,.2,0,.3.1.1.4.5.6.9.6s.8-.2.9-.6c0-.1.2-.2.3-.1.1,0,.2.2.1.3-.2.5-.7.9-1.3.9Z"/>
              <path class="st59" d="M88.3,29.9"/>
              <path class="st103" d="M88.3,31.8c-.6,0-1.2-.4-1.4-.9,0-.1,0-.2.1-.3.1,0,.2,0,.3.1.1.4.5.6.9.6s.8-.2.9-.6c0-.1.2-.2.3-.1.1,0,.2.2.1.3-.2.5-.7.9-1.3.9Z"/>
              <path class="st103" d="M88.3,33.3c-1.1,0-2-.5-2.6-1.3,0,0,0-.2,0-.3.1,0,.2,0,.3,0,.5.7,1.3,1.1,2.2,1.1s1.7-.4,2.2-1.1c0,0,.2-.1.3,0,.1,0,.1.2,0,.3-.6.8-1.5,1.3-2.5,1.3Z"/>
            </g>
          </g>
          <path class="st74" d="M88.3,29.9"/>
          <g class="st24">
            <path class="st68" d="M91,27.5v-1.8c0-1.1-.8-2-1.8-2.3,0,0,0-.1,0-.2,0-.4-.4-.8-.9-.8s0,0-.1,0v7.5s0,0,.1,0c.5,0,.9-.4.9-.8s0-.1,0-.2h1.7c.4,0,.7-.3.7-.7h0c0-.4-.3-.7-.6-.7Z"/>
          </g>
        </g>
        <circle class="st73" cx="109.5" cy="24.3" r="4"/>
        <g class="st96">
          <path class="st28" d="M72.9,24.8c-.2-1.2-1-2.3-2.1-2.8,0,0-.3-1.1-.5-1.2,0,0,0,0,0,0-.3.8-.8,1.5-1.3,2.2-2,2.6-4.8,4.6-7.9,5.6.4.8,1,1.6,1.7,2.5,0-.4-.2-1.1.3-1.1.1,0,.2,0,.3,0,.3.1.6.3.7.6,0,.2.2.3.4.5,0,0,.1.1.2,0,.3,0,.2-1.4.1-1.6.7.2,1.5.3,2.2,0,.7-.2,1.3-.9,1.3-1.6,0-.6-.5-1.2-.4-1.8,0-.8,1.8-1.8,1.9-.6,0-1.2,1.1,0,1.3.4.1.2.8,1.9.5,2.1.9-.8,1.4-2.1,1.3-3.3Z"/>
        </g>
        <g class="st49">
          <path class="st9" d="M108.9,27c-.2-.5-.5-.9-.9-1.2-.2.9-.5,1.9-1,2.7-.5.9-1.2,1.7-2,2.4,0,0,.2.1.3.2,0,0,0,0,.1,0,0,0,.1,0,.2,0,.4-.3.7-.6,1.2-.3,1.4.9-.8,2.2-.6,2.9.1.4.2.8.4,1.1-.1-.4,1.8-2.1,2-2.5,1.1-1.6,1.1-3.5.3-5.2Z"/>
        </g>
        <g class="st61">
          <path class="st3" d="M110.1,20.3c.3.7.6,1.5.7,2.3.2,1.5,0,3.2-.8,4.5-.3.4-.6.8-.9,1.1.1,0,.2,0,.4,0,2.2,0,4-1.8,4-4s-1.4-3.6-3.3-4Z"/>
        </g>
        <g class="st24">
          <g class="st48">
            <path class="st100" d="M109.1,66.5c1.2.9,2.2,2,2.8,3.3.2-.3.4-.6.6-.8,0,0,1.9-3.2,0-7.5,0,0-8.2,2.5-13.3,1,0,0,0,1.1.2,2.6.8-.2,1.6-.4,2.4-.4,2.5-.3,5.2.3,7.2,1.8Z"/>
          </g>
        </g>
        <g class="st92">
          <path class="st12" d="M120.2,95.9c-1.8-3.5-4.4-8.3-5.8-9.7,0,.7,0,1.3,0,2,0,1.8-.1,3.7-.6,5.5,1,1.4,2,2.9,2.9,4.3,1.3-.4,2.4-1.1,3.4-2Z"/>
        </g>
        <path class="st5" d="M104.9,103.4c-.2.4-.5.7-.8,1,0,1.9-.5,3.8-1.3,5.5.4-.5.8-1,1.3-1.4.3-.3.7-.5,1-.8.4-.3.7-.7,1-1.2l-1.3-3.1Z"/>
        <path class="st22" d="M122.5,100c0,.3,0,.6,0,.9-.1.6-.3,1.1-.6,1.6,0,.1,0,.2,0,.3,0,1.3,0,2.6,0,3.9.3-.5.4-1.1.9-1.6.3-.3.4-.6.6-.9.4-.8.8-1.6,1.1-2.4-.3-.5-1-1.3-2-1.9Z"/>
        <path class="st79" d="M70.6,80c-.5,0-1,0-1.6-.2,0,0,0,0,0-.1v-7.4s0,0,0,0c0,0,0,0,0,0,0,0,2,.1,3.1-.1,0,0,.1,0,.1,0,0,0,0,.1,0,.1-1,.3-2.6.2-3.1.2v7.2c2,.5,3.2-.2,3.2-.2,0,0,.1,0,.2,0,0,0,0,.1,0,.2,0,0-.7.4-1.8.4Z"/>
        <path class="st27" d="M69.3,56.4c-.4-.6-.8-1.3-1.2-2.3-.6-1.6-.8-3.1-.8-4.1-.1,0-.2,0-.3.1-1.9,4.3-5.3,8-9.4,10.5,5.4-1.3,13.1-3.3,11.7-4.2Z"/>
        <path class="st52" d="M66.3,50.1s0,0,0,0c0,0-.1,0-.1-.1l.9-12.2c0,0,0-.1.1-.1,0,0,.1,0,.1.1l-.9,12.2c0,0,0,.1-.1.1Z"/>
        <path class="st83" d="M103.2,32.3c0,.3-.5.5-1,.4-.5-.1-.8-.5-.7-.8,0-.3.5-.5,1-.4.5.1.8.5.7.8Z"/>
        <path class="st83" d="M98.6,30.8c0,.3,0,.8,0,1.2.3,0,.6-.2.6-.4,0-.3-.2-.6-.6-.8Z"/>
        <g>
          <rect class="st103" x="10.3" y="48.6" width="17.3" height="17.3" rx="8.7" ry="8.7"/>
          <g>
            <path class="st102" d="M22.6,59.8h0s-2.5-3.7-2.5-3.7l-1.1.8,2.5,3.7h0s.5.8,1.3,1.1l1.1,1.6h.1c0-.1.1-.2.1-.2h.1c0-.1-1.1-1.7-1.1-1.7,0-.8-.6-1.6-.6-1.6Z"/>
            <path class="st79" d="M19.9,55.7h-.1c0,0-1-1.3-1-1.3.1-.7-.1-1.7-.8-2.6-.9-1.3-2.2-2-2.9-1.5-.7.5-.5,1.9.4,3.2.6.9,1.4,1.5,2.1,1.6l1,1.4h-.1c-.1.1-.1.3,0,.4l.2.3c0,.1.2.1.3,0l1.4-1c.1,0,.1-.2,0-.3l-.2-.3c0-.1-.2-.1-.3,0Z"/>
            <path class="st0" d="M22.4,60l-1.2-1.7-.7.5,1.2,1.7s.6.8.9.6c0,0,.3-.2-.3-1.1Z"/>
          </g>
          <path class="st0" d="M16.5,57.2s-3.3,6.5,0,6.5c0,0,3.7.5,0-6.5Z"/>
        </g>
        <g>
          <g>
            <rect class="st103" x="135.5" y="40.9" width="11.7" height="12.8"/>
            <g>
              <rect class="st52" x="136.8" y="42.6" width="4" height="4"/>
              <path class="st79" d="M139.4,44.2c0,.3-.3.6-.6.6s-.6-.3-.6-.6.3-.6.6-.6.6.3.6.6Z"/>
              <path class="st79" d="M138.8,44.9c-.8,0-1.4.6-1.4,1.4h2.7c0-.8-.6-1.4-1.4-1.4Z"/>
            </g>
            <path class="st52" d="M146.1,43.2h-4c0,0-.1,0-.1-.1s0-.1.1-.1h4c0,0,.1,0,.1.1s0,.1-.1.1Z"/>
            <path class="st52" d="M146.1,44.2h-4c0,0-.1,0-.1-.1s0-.1.1-.1h4c0,0,.1,0,.1.1s0,.1-.1.1Z"/>
            <path class="st52" d="M146.1,45.3h-4c0,0-.1,0-.1-.1s0-.1.1-.1h4c0,0,.1,0,.1.1s0,.1-.1.1Z"/>
            <path class="st52" d="M144.8,46.3h-2.7c0,0-.1,0-.1-.1s0-.1.1-.1h2.7c0,0,.1,0,.1.1s0,.1-.1.1Z"/>
            <path class="st52" d="M146.2,52.6h-9.3c0,0-.1,0-.1-.1v-4.6c0,0,0-.1.1-.1h9.3c0,0,.1,0,.1.1v4.6c0,0,0,.1-.1.1ZM137,52.3h9v-4.3h-9v4.3Z"/>
          </g>
          <rect class="st79" x="139.1" y="40.4" width="4.6" height="1"/>
        </g>
        <g>
          <path class="st103" d="M110.8,12.2c.6,0,1.1.2,1.5.6l1.5-1.6c-.8-.7-1.8-1.2-3-1.2-1.8,0-3.3,1.1-3.9,2.6l1.9.9c.3-.8,1.1-1.3,2-1.3Z"/>
          <g>
            <path class="st0" d="M113.7,11.3l-1.5,1.6c.3.3.5.8.6,1.2l2.1-.6c-.2-.9-.6-1.6-1.2-2.2Z"/>
            <path class="st79" d="M112.9,14.1c0,0,0,.2,0,.3,0,1.2-1,2.1-2.1,2.1s-2.1-1-2.1-2.1,0-.6.2-.8l-1.9-.9c-.2.5-.4,1.1-.4,1.7,0,2.4,1.9,4.3,4.3,4.3s4.3-1.9,4.3-4.3,0-.6,0-.8l-2.1.6Z"/>
          </g>
        </g>
        <g>
          <path class="st79" d="M95.8,68.6h-.7c0,0-.1,0-.1-.1s0-.1.1-.1h.7c0,0,.1,0,.1.1s0,.1-.1.1ZM94.3,68.6h-.7c0,0-.1,0-.1-.1s0-.1.1-.1h.7c0,0,.1,0,.1.1s0,.1-.1.1ZM92.9,68.6h-.7c0,0-.1,0-.1-.1s0-.1.1-.1h.7c0,0,.1,0,.1.1s0,.1-.1.1ZM91.5,68.6h-.7c0,0-.1,0-.1-.1s0-.1.1-.1h.7c0,0,.1,0,.1.1s0,.1-.1.1ZM90,68.6h-.7c0,0-.1,0-.1-.1s0-.1.1-.1h.7c0,0,.1,0,.1.1s0,.1-.1.1ZM88.6,68.6h-.7c0,0-.1,0-.1-.1s0-.1.1-.1h.7c0,0,.1,0,.1.1s0,.1-.1.1ZM87.2,68.6h-.7c0,0-.1,0-.1-.1s0-.1.1-.1h.7c0,0,.1,0,.1.1s0,.1-.1.1ZM85.7,68.6h-.7c0,0-.1,0-.1-.1s0-.1.1-.1h.7c0,0,.1,0,.1.1s0,.1-.1.1ZM84.3,68.6h-.7c0,0-.1,0-.1-.1s0-.1.1-.1h.7c0,0,.1,0,.1.1s0,.1-.1.1Z"/>
          <path class="st79" d="M84.8,68.4c0,.5-.4,1-1,1s-1-.4-1-1,.4-1,1-1,1,.4,1,1Z"/>
          <path class="st79" d="M98.9,68.4c0,.5-.4,1-1,1s-1-.4-1-1,.4-1,1-1,1,.4,1,1Z"/>
        </g>
        <path class="st71" d="M105.4,31.2c0-.3.2-.7.5-.8s.7,0,1,.2c.2.2.3.4.4.6.1.4,0,.8-.1,1.2-.2.4-.5.6-.8.9-.2.2-.5.3-.8.3-.3,0-.5-.2-.8-.4"/>
        <path class="st95" d="M105.9,33s0,0,0,0c-.2-.2-.2-.5-.2-.8,0-.2,0-.4,0-.6,0-.2.1-.3.2-.5.1-.2.3-.3.5-.3,0,0,.1,0,.1.1,0,0,0,.1-.1.1-.1,0-.2,0-.3.2,0,0-.1.2-.2.4,0,.2,0,.3,0,.6,0,.2,0,.5.1.6,0,0,0,.1,0,.2,0,0,0,0,0,0Z"/>
        <path class="st95" d="M106,33s0,0-.1,0c0,0,0-.1,0-.2.2,0,.3-.1.4-.2,0,0,.2-.2.2-.3,0-.1,0-.2-.2-.2-.1,0-.3,0-.3.2,0,0-.1,0-.2,0,0,0,0,0,0-.2.1-.2.4-.4.7-.3.2,0,.3.3.3.5,0,.2,0,.3-.2.5-.1.1-.2.2-.4.2,0,0,0,0,0,0Z"/>
        <path class="st95" d="M64.1,31.8s0,0,0,0c0,0,0-.1,0-.2,0,0,0-.2,0-.3,0-.3-.2-.6-.4-.8,0,0-.1-.2-.2-.2,0,0-.2,0-.2,0,0,0-.1,0-.2,0,0,0,0-.1,0-.2.1,0,.3,0,.5,0,.1,0,.2.2.3.3.2.3.4.6.4,1,0,.1,0,.3,0,.5,0,0,0,0-.1,0Z"/>
        <path class="st95" d="M63.9,31.9s0,0,0,0c0,0-.1,0-.2,0-.2,0-.3-.2-.3-.4,0,0,0-.2,0-.2,0-.2,0-.4.2-.5.2-.1.4-.1.5,0,0,0,0,0,0,.2,0,0,0,0-.2,0,0,0-.2,0-.3,0,0,0-.1.2-.1.3,0,0,0,.1,0,.2,0,0,.1.2.2.2,0,0,0,0,.1,0,0,0,.1,0,.1,0,0,0,.1,0,.2,0,0,0,0,.1,0,.2,0,0-.1.1-.3.1Z"/>
      </g>
    </g>
  </g>
</svg>