<svg width="57" height="56" viewBox="0 0 57 56" fill="none" xmlns="http://www.w3.org/2000/svg">
<rect x="1.25" y="1" width="54" height="54" rx="27" fill="#E7FAEF"/>
<rect x="1.25" y="1" width="54" height="54" rx="27" stroke="#0CC25A" stroke-width="2"/>
<path d="M28.2913 39.5894C34.7605 39.5894 40.0049 34.345 40.0049 27.8758C40.0049 21.4065 34.7605 16.1621 28.2913 16.1621C21.822 16.1621 16.5776 21.4065 16.5776 27.8758C16.5776 34.345 21.822 39.5894 28.2913 39.5894Z" fill="#DDE8F3" stroke="#B5C4D2"/>
<path d="M28.2911 37.0997C33.3841 37.0997 37.5128 32.971 37.5128 27.878C37.5128 22.785 33.3841 18.6562 28.2911 18.6562C23.198 18.6562 19.0693 22.785 19.0693 27.878C19.0693 32.971 23.198 37.0997 28.2911 37.0997Z" fill="#C7D6E4" stroke="#B5C4D2"/>
<path d="M44.3569 29.331C44.181 29.331 44.0124 29.2611 43.8881 29.1368C43.7637 29.0124 43.6938 28.8438 43.6938 28.6679V25.8291C43.6938 25.6532 43.7637 25.4846 43.8881 25.3602C44.0124 25.2359 44.181 25.166 44.3569 25.166C44.5328 25.166 44.7014 25.2359 44.8257 25.3602C44.9501 25.4846 45.02 25.6532 45.02 25.8291V28.6679C45.02 28.8438 44.9501 29.0124 44.8257 29.1368C44.7014 29.2611 44.5328 29.331 44.3569 29.331Z" fill="#1FCC68"/>
<path d="M46.3733 17.578C46.1946 17.614 46.0343 17.7118 45.9204 17.8541C45.8065 17.9965 45.7463 18.1744 45.7503 18.3566V20.9138C45.7503 20.9983 45.7167 21.0794 45.657 21.1392C45.5972 21.1989 45.5161 21.2325 45.4316 21.2325C45.3471 21.2325 45.266 21.1989 45.2062 21.1392C45.1465 21.0794 45.1129 20.9983 45.1129 20.9138V18.3006C45.1095 18.1047 45.0293 17.918 44.8896 17.7807C44.7499 17.6434 44.5619 17.5664 44.366 17.5664C44.1701 17.5664 43.982 17.6434 43.8423 17.7807C43.7026 17.918 43.6224 18.1047 43.619 18.3006V20.9138C43.6175 20.9973 43.5832 21.0768 43.5236 21.1353C43.464 21.1938 43.3839 21.2266 43.3004 21.2266C43.2169 21.2266 43.1367 21.1938 43.0771 21.1353C43.0175 21.0768 42.9833 20.9973 42.9817 20.9138V18.3566C42.9858 18.1743 42.9255 17.9964 42.8116 17.8541C42.6977 17.7117 42.5373 17.614 42.3586 17.578C42.2511 17.5598 42.141 17.5652 42.0358 17.5939C41.9307 17.6226 41.833 17.6739 41.7498 17.7443C41.6665 17.8146 41.5996 17.9022 41.5536 18.0011C41.5077 18.0999 41.4839 18.2076 41.4839 18.3166V23.9708C41.4839 25.5048 42.8662 26.5549 44.366 26.5549C45.8658 26.5549 47.248 25.5051 47.248 23.9708V18.3166C47.248 18.2076 47.2242 18.0999 47.1783 18.0011C47.1324 17.9022 47.0654 17.8146 46.9821 17.7443C46.8989 17.6739 46.8013 17.6226 46.6961 17.5939C46.591 17.5652 46.4808 17.5598 46.3733 17.578Z" fill="#C7D6E4"/>
<path d="M45.946 29.92C45.946 29.0473 45.2385 28.3398 44.3658 28.3398C43.4931 28.3398 42.7856 29.0473 42.7856 29.92V39.1558C42.7856 40.0285 43.4931 40.7359 44.3658 40.7359C45.2385 40.7359 45.946 40.0285 45.946 39.1558V29.92Z" fill="#00A545"/>
<path d="M12.1855 29.5693C12.0097 29.5693 11.841 29.4994 11.7167 29.3751C11.5923 29.2507 11.5225 29.0821 11.5225 28.9062V26.1318C11.5225 25.956 11.5923 25.7873 11.7167 25.663C11.841 25.5386 12.0097 25.4688 12.1855 25.4688C12.3614 25.4688 12.53 25.5386 12.6544 25.663C12.7787 25.7873 12.8486 25.956 12.8486 26.1318V28.9062C12.8486 29.0821 12.7787 29.2507 12.6544 29.3751C12.53 29.4994 12.3614 29.5693 12.1855 29.5693Z" fill="#1FCC68"/>
<path d="M13.7751 29.9337C13.7751 29.061 13.0676 28.3535 12.1949 28.3535C11.3222 28.3535 10.6147 29.061 10.6147 29.9337V39.1694C10.6147 40.0421 11.3222 40.7496 12.1949 40.7496C13.0676 40.7496 13.7751 40.0421 13.7751 39.1694V29.9337Z" fill="#00A545"/>
<path d="M10.9884 25.9241C11.354 26.1394 11.7706 26.2529 12.1949 26.2529C12.6192 26.2529 13.0358 26.1394 13.4014 25.9241C14.5943 25.231 15.7804 23.9081 15.7804 21.5855C15.7804 20.7513 15.473 19.6101 15.0382 18.9097C13.6744 16.7124 10.7152 16.7124 9.35155 18.9097C8.9167 19.6101 8.60938 20.7513 8.60938 21.5855C8.60938 23.9081 9.79535 25.231 10.9884 25.9241Z" fill="#C7D6E4"/>
</svg>
