<svg width="24" height="25" viewBox="0 0 24 25" fill="none" xmlns="http://www.w3.org/2000/svg">
<path d="M18.2224 3.93359H5.77793C5.14322 3.93359 4.53451 4.18573 4.08571 4.63453C3.6369 5.08334 3.38477 5.69205 3.38477 6.32676V18.7712C3.38477 19.4059 3.6369 20.0146 4.08571 20.4634C4.53451 20.9122 5.14322 21.1644 5.77793 21.1644H18.2224C18.8571 21.1644 19.4658 20.9122 19.9146 20.4634C20.3634 20.0146 20.6155 19.4059 20.6155 18.7712V6.32676C20.6155 5.69205 20.3634 5.08334 19.9146 4.63453C19.4658 4.18573 18.8571 3.93359 18.2224 3.93359ZM10.0856 13.9609V16.7849C10.082 17.0686 9.98003 17.3424 9.79706 17.5593C9.6141 17.7763 9.3615 17.923 9.0824 17.9744C8.8033 18.0258 8.51501 17.9787 8.26675 17.8412C8.01849 17.7037 7.82565 17.4843 7.72118 17.2204C6.62511 14.3486 6.73519 14.8273 6.73519 13.9609C6.73519 13.6372 6.86378 13.3268 7.09267 13.0979C7.32156 12.869 7.63201 12.7404 7.95571 12.7404H8.86511C9.18881 12.7404 9.49925 12.869 9.72814 13.0979C9.95703 13.3268 10.0856 13.6372 10.0856 13.9609ZM8.17109 10.1558C7.74032 10.1558 7.77861 9.98829 6.7687 7.46111C6.72487 7.35005 6.72414 7.22661 6.76664 7.11503C6.80915 7.00345 6.89182 6.91179 6.99844 6.85804C9.7075 5.49872 14.2928 5.49872 17.0019 6.85804C17.1085 6.91179 17.1912 7.00345 17.2337 7.11503C17.2762 7.22661 17.2754 7.35005 17.2316 7.46111L16.2743 9.85428C16.102 10.285 16.4323 10.1558 8.17109 10.1558ZM13.9147 13.9609C13.9147 13.6372 14.0433 13.3268 14.2722 13.0979C14.501 12.869 14.8115 12.7404 15.1352 12.7404H16.0446C16.3683 12.7404 16.6787 12.869 16.9076 13.0979C17.1365 13.3268 17.2651 13.6372 17.2651 13.9609C17.2651 14.8368 17.38 14.3247 16.2791 17.2204C16.1746 17.4843 15.9818 17.7037 15.7336 17.8412C15.4853 17.9787 15.197 18.0258 14.9179 17.9744C14.6388 17.923 14.3862 17.7763 14.2032 17.5593C14.0203 17.3424 13.9183 17.0686 13.9147 16.7849V13.9609Z" fill="#36DDD4"/>
<path d="M12.4773 9.67832V7.76379C12.4773 7.63685 12.4269 7.51511 12.3371 7.42534C12.2473 7.33558 12.1256 7.28516 11.9987 7.28516C11.8717 7.28516 11.75 7.33558 11.6602 7.42534C11.5704 7.51511 11.52 7.63685 11.52 7.76379V9.67832C11.52 9.80526 11.5704 9.927 11.6602 10.0168C11.75 10.1065 11.8717 10.157 11.9987 10.157C12.1256 10.157 12.2473 10.1065 12.3371 10.0168C12.4269 9.927 12.4773 9.80526 12.4773 9.67832Z" fill="#009890"/>
</svg>
