<svg width="57" height="57" viewBox="0 0 57 57" fill="none" xmlns="http://www.w3.org/2000/svg">
<rect x="0.875" y="0.863281" width="56" height="56" rx="28" fill="#F8F8FC"/>
<path d="M28.9163 40.814C35.3855 40.814 40.6299 35.5696 40.6299 29.1004C40.6299 22.6311 35.3855 17.3867 28.9163 17.3867C22.447 17.3867 17.2026 22.6311 17.2026 29.1004C17.2026 35.5696 22.447 40.814 28.9163 40.814Z" fill="#DDE8F3" stroke="#B5C4D2"/>
<path d="M28.9161 38.3224C34.0091 38.3224 38.1378 34.1936 38.1378 29.1006C38.1378 24.0076 34.0091 19.8789 28.9161 19.8789C23.823 19.8789 19.6943 24.0076 19.6943 29.1006C19.6943 34.1936 23.823 38.3224 28.9161 38.3224Z" fill="#C7D6E4" stroke="#B5C4D2"/>
<path d="M44.9819 30.5595C44.806 30.5595 44.6374 30.4896 44.5131 30.3653C44.3887 30.2409 44.3188 30.0723 44.3188 29.8964V27.0576C44.3188 26.8817 44.3887 26.7131 44.5131 26.5887C44.6374 26.4644 44.806 26.3945 44.9819 26.3945C45.1578 26.3945 45.3264 26.4644 45.4507 26.5887C45.5751 26.7131 45.645 26.8817 45.645 27.0576V29.8964C45.645 30.0723 45.5751 30.2409 45.4507 30.3653C45.3264 30.4896 45.1578 30.5595 44.9819 30.5595Z" fill="#1FCC68"/>
<path d="M46.9983 18.8045C46.8196 18.8406 46.6593 18.9383 46.5454 19.0807C46.4315 19.223 46.3713 19.4009 46.3753 19.5832V22.1404C46.3753 22.2249 46.3417 22.3059 46.282 22.3657C46.2222 22.4255 46.1411 22.4591 46.0566 22.4591C45.9721 22.4591 45.891 22.4255 45.8312 22.3657C45.7715 22.3059 45.7379 22.2249 45.7379 22.1404V19.5272C45.7345 19.3313 45.6543 19.1446 45.5146 19.0072C45.3749 18.8699 45.1869 18.793 44.991 18.793C44.7951 18.793 44.607 18.8699 44.4673 19.0072C44.3276 19.1446 44.2474 19.3313 44.244 19.5272V22.1404C44.2425 22.2238 44.2082 22.3034 44.1486 22.3619C44.089 22.4204 44.0089 22.4531 43.9254 22.4531C43.8419 22.4531 43.7617 22.4204 43.7021 22.3619C43.6425 22.3034 43.6083 22.2238 43.6067 22.1404V19.5832C43.6108 19.4009 43.5505 19.223 43.4366 19.0806C43.3227 18.9383 43.1623 18.8406 42.9836 18.8045C42.8761 18.7863 42.766 18.7917 42.6608 18.8205C42.5557 18.8492 42.458 18.9005 42.3748 18.9708C42.2915 19.0411 42.2246 19.1288 42.1786 19.2276C42.1327 19.3265 42.1089 19.4342 42.1089 19.5432V25.1974C42.1089 26.7313 43.4912 27.7815 44.991 27.7815C46.4908 27.7815 47.873 26.7317 47.873 25.1974V19.5432C47.873 19.4342 47.8492 19.3265 47.8033 19.2276C47.7574 19.1288 47.6904 19.0411 47.6071 18.9708C47.5239 18.9005 47.4263 18.8492 47.3211 18.8205C47.216 18.7917 47.1058 18.7863 46.9983 18.8045Z" fill="#C7D6E4"/>
<path d="M46.571 31.1466C46.571 30.2739 45.8635 29.5664 44.9908 29.5664C44.1181 29.5664 43.4106 30.2739 43.4106 31.1466V40.3823C43.4106 41.255 44.1181 41.9625 44.9908 41.9625C45.8635 41.9625 46.571 41.255 46.571 40.3823V31.1466Z" fill="#00A545"/>
<path d="M12.8105 30.7959C12.6347 30.7959 12.466 30.726 12.3417 30.6016C12.2173 30.4773 12.1475 30.3087 12.1475 30.1328V27.3584C12.1475 27.1825 12.2173 27.0139 12.3417 26.8895C12.466 26.7652 12.6347 26.6953 12.8105 26.6953C12.9864 26.6953 13.155 26.7652 13.2794 26.8895C13.4037 27.0139 13.4736 27.1825 13.4736 27.3584V30.1328C13.4736 30.3087 13.4037 30.4773 13.2794 30.6016C13.155 30.726 12.9864 30.7959 12.8105 30.7959Z" fill="#1FCC68"/>
<path d="M14.4001 31.1622C14.4001 30.2895 13.6926 29.582 12.8199 29.582C11.9472 29.582 11.2397 30.2895 11.2397 31.1622V40.398C11.2397 41.2707 11.9472 41.9781 12.8199 41.9781C13.6926 41.9781 14.4001 41.2707 14.4001 40.398V31.1622Z" fill="#00A545"/>
<path d="M11.6134 27.1506C11.979 27.366 12.3956 27.4795 12.8199 27.4795C13.2442 27.4795 13.6608 27.366 14.0264 27.1506C15.2193 26.4575 16.4054 25.1346 16.4054 22.8121C16.4054 21.9778 16.098 20.8366 15.6632 20.1362C14.2994 17.939 11.3402 17.939 9.97655 20.1362C9.5417 20.8366 9.23438 21.9778 9.23438 22.8121C9.23438 25.1346 10.4204 26.4575 11.6134 27.1506Z" fill="#C7D6E4"/>
</svg>
