<svg width="24" height="25" viewBox="0 0 24 25" fill="none" xmlns="http://www.w3.org/2000/svg">
<g clip-path="url(#clip0_568_40491)">
<path d="M12.9817 15.9105C12.7541 15.9105 12.5401 15.797 12.413 15.6063L11.2488 13.8597H10.2473C9.86998 13.8597 9.56372 13.5534 9.56372 13.1761C9.56372 12.7987 9.86998 12.4925 10.2473 12.4925H11.6145C11.8429 12.4925 12.0561 12.6066 12.1833 12.7967L12.897 13.8672L14.4207 10.819C14.5328 10.5962 14.7564 10.4512 15.0059 10.4417C15.2691 10.4348 15.4899 10.5593 15.6184 10.7725L17.4703 13.8597H18.4506C18.8279 13.8597 19.1342 14.166 19.1342 14.5433C19.1342 14.9206 18.8279 15.2269 18.4506 15.2269H17.0834C16.8434 15.2269 16.6206 15.1011 16.4975 14.8954L15.0872 12.5451L13.5936 15.5332C13.4842 15.7512 13.2675 15.8948 13.0241 15.9098C13.0105 15.9105 12.9961 15.9105 12.9817 15.9105Z" fill="#F54790"/>
<path d="M17.6491 17.0044C16.8596 17.0044 16.1226 16.5833 15.7166 15.9065L15.5737 15.6734L15.1526 16.5081C14.7992 17.23 14.0773 17.7037 13.2802 17.7489L13.1373 17.7564C12.3779 17.7564 11.6785 17.3804 11.2574 16.7487L10.4227 15.5005H10.1295C8.88873 15.5005 7.87358 14.4853 7.87358 13.2446C7.87358 12.0038 8.88873 10.9887 10.1295 10.9887H11.6334C12.0244 10.9887 12.4004 11.0864 12.7313 11.2744L13.378 9.98106C13.7464 9.24413 14.4834 8.76288 15.3105 8.7328C15.6339 8.72528 15.9497 8.77791 16.2354 8.89823C14.4533 6.0934 12.1899 3.79239 12.0319 3.63448C11.8214 3.42392 11.4454 3.42392 11.2349 3.63448C10.9717 3.89766 4.86572 10.1089 4.86572 14.6959C4.86572 18.4557 7.90366 21.5162 11.6334 21.5162C14.5585 21.5162 17.0626 19.6288 18.0025 17.0044H17.6491Z" fill="#FF8DC2"/>
</g>
<defs>
<clipPath id="clip0_568_40491">
<rect y="0.496094" width="24" height="24" rx="12" fill="white"/>
</clipPath>
</defs>
</svg>
