<svg width="16" height="16" viewBox="0 0 16 16" fill="none" xmlns="http://www.w3.org/2000/svg">
<path d="M7.99967 1.33301C4.31967 1.33301 1.33301 4.31967 1.33301 7.99967C1.33301 11.6797 4.31967 14.6663 7.99967 14.6663C11.6797 14.6663 14.6663 11.6797 14.6663 7.99967C14.6663 4.31967 11.6797 1.33301 7.99967 1.33301ZM7.99967 11.333C7.63301 11.333 7.33301 11.033 7.33301 10.6663V7.99967C7.33301 7.63301 7.63301 7.33301 7.99967 7.33301C8.36634 7.33301 8.66634 7.63301 8.66634 7.99967V10.6663C8.66634 11.033 8.36634 11.333 7.99967 11.333ZM8.66634 5.99967H7.33301V4.66634H8.66634V5.99967Z" fill="black"/>
</svg>
