<svg width="21" height="21" viewBox="0 0 21 21" fill="none" xmlns="http://www.w3.org/2000/svg">
<rect width="20" height="20" transform="translate(0.101562 0.328125)" fill="#F8F8FC"/>
<path d="M18.067 6.09026L14.3422 2.36536C14.1207 2.14384 13.7616 2.14384 13.5399 2.36536C13.3184 2.58687 13.3184 2.94604 13.5399 3.16767L15.0012 4.62897L13.0626 6.56756L9.92223 3.42729C9.7006 3.20566 9.34155 3.20566 9.11992 3.42729C8.89828 3.64869 8.89828 4.00798 9.11992 4.22961L10.3978 5.50748L5.24691 10.6584C5.12947 10.7756 5.0693 10.9384 5.08243 11.1038L5.33322 14.2968L2.13684 17.4932C1.91532 17.7147 1.91532 18.0739 2.13684 18.2955C2.24766 18.4064 2.39274 18.4617 2.53794 18.4617C2.68314 18.4617 2.82834 18.4062 2.93904 18.2955L6.13542 15.0992L9.32842 15.35C9.34317 15.3511 9.35816 15.3517 9.37291 15.3517C9.52264 15.3517 9.66715 15.2923 9.77401 15.1855L14.9249 10.0346L16.2028 11.3125C16.3136 11.4233 16.4588 11.4787 16.604 11.4787C16.7492 11.4787 16.8943 11.4233 17.0051 11.3125C17.2267 11.0908 17.2267 10.7318 17.0051 10.5101L13.8648 7.36988L15.8034 5.43128L17.2647 6.89258C17.3755 7.00339 17.5206 7.05869 17.6658 7.05869C17.811 7.05869 17.9562 7.00328 18.0669 6.89258C18.2885 6.67094 18.2885 6.31178 18.067 6.09026Z" fill="#929299"/>
</svg>
