<svg width="16" height="19" viewBox="0 0 16 19" fill="none" xmlns="http://www.w3.org/2000/svg">
<path d="M10.0545 15.9009C10.0545 16.957 9.14652 17.8157 8.02824 17.8157C6.90996 17.8157 6.00195 16.957 6.00195 15.9009V15.7429C6.00195 14.6868 6.90996 13.8281 8.02824 13.8281C9.14652 13.8281 10.0545 14.6868 10.0545 15.7429V15.9009Z" fill="url(#paint0_radial_3521_152677)"/>
<path d="M12.2241 9.05195C12.2241 6.64363 10.3316 4.69922 8.009 4.69922C5.68642 4.69922 3.79395 6.6535 3.79395 9.05195C3.79395 11.4504 4.11892 10.9569 4.65416 11.6873C4.65416 11.6971 4.67328 11.707 4.68283 11.7169C4.70195 11.7465 4.73062 11.7761 4.74974 11.8057C5.49526 12.8322 5.85846 14.2535 5.85846 14.2535H10.2742C10.2742 14.2535 10.5419 12.7039 11.3734 11.6774C11.9182 10.947 12.2336 10.0291 12.2336 9.04208L12.2241 9.05195Z" fill="url(#paint1_radial_3521_152677)"/>
<path style="mix-blend-mode:screen" opacity="0.3" d="M10.3993 6.59237C10.3993 6.59237 11.9859 9.39549 9.39567 11.0537C9.39567 11.0537 7.3216 13.1659 7.00619 14.2615H5.84968C5.84968 14.2615 5.70631 12.9093 5.14239 12.1986C5.14239 12.1986 3.30726 9.84952 4.31085 7.64848C4.31085 7.64848 5.17106 5.15133 7.4363 5.1612C7.4363 5.1612 9.2523 4.88484 10.3897 6.5825L10.3993 6.59237Z" fill="url(#paint2_linear_3521_152677)"/>
<path opacity="0.5" d="M7.56976 8.1435C7.3117 8.79493 6.61397 9.11078 6.01182 8.85415C5.40967 8.59753 5.13249 7.86714 5.38099 7.22558C5.63906 6.57415 6.33679 6.25831 6.93894 6.51493C7.54109 6.77156 7.81827 7.50195 7.56976 8.1435Z" fill="white"/>
<path d="M8.48715 2.75294C8.48715 2.96022 8.32466 3.12801 8.12394 3.12801C7.92323 3.12801 7.76074 2.96022 7.76074 2.75294V1.55866C7.76074 1.35139 7.92323 1.18359 8.12394 1.18359C8.32466 1.18359 8.48715 1.35139 8.48715 1.55866V2.75294Z" fill="url(#paint3_linear_3521_152677)"/>
<path style="mix-blend-mode:screen" opacity="0.5" d="M7.96138 2.822C7.96138 2.86148 7.9327 2.89109 7.90403 2.89109C7.87535 2.89109 7.84668 2.86148 7.84668 2.822V1.44018C7.84668 1.4007 7.87535 1.37109 7.90403 1.37109C7.9327 1.37109 7.96138 1.4007 7.96138 1.44018V2.822Z" fill="url(#paint4_linear_3521_152677)"/>
<path d="M13.1415 6.96888C12.9408 6.96888 12.7783 6.80109 12.7783 6.59382C12.7783 6.38654 12.9408 6.21875 13.1415 6.21875H14.298C14.4988 6.21875 14.6612 6.38654 14.6612 6.59382C14.6612 6.80109 14.4988 6.96888 14.298 6.96888H13.1415Z" fill="url(#paint5_linear_3521_152677)"/>
<path style="mix-blend-mode:screen" opacity="0.5" d="M13.0747 6.41532C13.0365 6.41532 13.0078 6.38571 13.0078 6.3561C13.0078 6.32649 13.0365 6.29688 13.0747 6.29688H14.4128C14.4511 6.29688 14.4797 6.32649 14.4797 6.3561C14.4797 6.38571 14.4511 6.41532 14.4128 6.41532H13.0747Z" fill="url(#paint6_linear_3521_152677)"/>
<path d="M1.70109 6.96888C1.50038 6.96888 1.33789 6.80109 1.33789 6.59382C1.33789 6.38654 1.50038 6.21875 1.70109 6.21875H2.8576C3.05832 6.21875 3.22081 6.38654 3.22081 6.59382C3.22081 6.80109 3.05832 6.96888 2.8576 6.96888H1.70109Z" fill="url(#paint7_linear_3521_152677)"/>
<path style="mix-blend-mode:screen" opacity="0.5" d="M1.62452 6.41532C1.58629 6.41532 1.55762 6.38571 1.55762 6.3561C1.55762 6.32649 1.58629 6.29688 1.62452 6.29688H2.96264C3.00087 6.29688 3.02954 6.32649 3.02954 6.3561C3.02954 6.38571 3.00087 6.41532 2.96264 6.41532H1.62452Z" fill="url(#paint8_linear_3521_152677)"/>
<path d="M11.5935 4.0279C11.4597 4.18582 11.2303 4.19569 11.0774 4.05751C10.9245 3.91932 10.9149 3.68244 11.0487 3.52452L11.8134 2.62634C11.9472 2.46842 12.1766 2.45855 12.3295 2.59673C12.4824 2.73491 12.492 2.97179 12.3582 3.12971L11.5935 4.0279Z" fill="url(#paint9_linear_3521_152677)"/>
<path style="mix-blend-mode:screen" opacity="0.5" d="M11.1446 3.72162C11.1255 3.75123 11.0873 3.75123 11.0586 3.72162C11.0299 3.70188 11.0299 3.6624 11.0586 3.63279L11.9475 2.59643C11.9666 2.56682 12.0049 2.56682 12.0335 2.59643C12.0622 2.61617 12.0622 2.65565 12.0335 2.68526L11.1446 3.72162Z" fill="url(#paint10_linear_3521_152677)"/>
<path d="M4.32022 4.0279C4.45403 4.18582 4.68342 4.19569 4.83635 4.05751C4.98927 3.91932 4.99883 3.68244 4.86502 3.52452L4.10038 2.62634C3.96657 2.46842 3.73718 2.45855 3.58426 2.59673C3.43133 2.73491 3.42177 2.97179 3.55558 3.12971L4.32022 4.0279Z" fill="url(#paint11_linear_3521_152677)"/>
<path style="mix-blend-mode:screen" opacity="0.5" d="M4.76977 3.72162C4.78889 3.75123 4.82712 3.75123 4.85579 3.72162C4.88446 3.70188 4.88446 3.6624 4.85579 3.63279L3.9669 2.59643C3.94779 2.56682 3.90955 2.56682 3.88088 2.59643C3.85221 2.61617 3.85221 2.65565 3.88088 2.68526L4.76977 3.72162Z" fill="url(#paint12_linear_3521_152677)"/>
<path d="M10.2077 14.8438H5.87793V15.0609H10.2077V14.8438Z" fill="#738293"/>
<path d="M10.504 14.6175C10.504 14.7853 10.3129 14.9136 10.0835 14.9136H6.0309C5.79195 14.9136 5.61035 14.7853 5.61035 14.6175V14.3313C5.61035 14.1635 5.80151 14.0352 6.0309 14.0352H10.0835C10.3224 14.0352 10.504 14.1635 10.504 14.3313V14.6175Z" fill="url(#paint13_linear_3521_152677)"/>
<path d="M10.1499 15.8594H5.99219V16.0864H10.1499V15.8594Z" fill="#738293"/>
<path d="M10.3227 16.5628C10.3227 16.7306 10.1506 16.8589 9.93079 16.8589H6.19363C5.9738 16.8589 5.80176 16.7306 5.80176 16.5628V16.2766C5.80176 16.1088 5.9738 15.9805 6.19363 15.9805H9.93079C10.1506 15.9805 10.3227 16.1088 10.3227 16.2766V16.5628Z" fill="url(#paint14_linear_3521_152677)"/>
<path d="M10.504 15.5823C10.504 15.7501 10.3129 15.8784 10.0835 15.8784H6.0309C5.79195 15.8784 5.61035 15.7501 5.61035 15.5823V15.2961C5.61035 15.1283 5.80151 15 6.0309 15H10.0835C10.3224 15 10.504 15.1283 10.504 15.2961V15.5823Z" fill="url(#paint15_linear_3521_152677)"/>
<defs>
<radialGradient id="paint0_radial_3521_152677" cx="0" cy="0" r="1" gradientUnits="userSpaceOnUse" gradientTransform="translate(7.5599 16.1476) scale(1.97849 2.04312)">
<stop stop-color="#C3C5D1"/>
<stop offset="0.1" stop-color="white"/>
<stop offset="0.3" stop-color="#C1C3D0"/>
<stop offset="0.5" stop-color="#AEA1B2"/>
<stop offset="0.9" stop-color="#8596AF"/>
</radialGradient>
<radialGradient id="paint1_radial_3521_152677" cx="0" cy="0" r="1" gradientUnits="userSpaceOnUse" gradientTransform="translate(7.21569 7.71948) scale(5.58184 5.76416)">
<stop stop-color="#F8E400"/>
<stop offset="0.4" stop-color="#F6DE46"/>
<stop offset="0.8" stop-color="#ECC13F"/>
<stop offset="1" stop-color="#DBA545"/>
</radialGradient>
<linearGradient id="paint2_linear_3521_152677" x1="3.80428" y1="7.15497" x2="9.34721" y2="10.9255" gradientUnits="userSpaceOnUse">
<stop stop-color="white"/>
<stop offset="1" stop-color="#272525"/>
</linearGradient>
<linearGradient id="paint3_linear_3521_152677" x1="7.45489" y1="2.15087" x2="8.37245" y2="2.15087" gradientUnits="userSpaceOnUse">
<stop stop-color="#F8E400"/>
<stop offset="0.4" stop-color="#F6DE46"/>
<stop offset="0.8" stop-color="#ECC13F"/>
<stop offset="1" stop-color="#DBA545"/>
</linearGradient>
<linearGradient id="paint4_linear_3521_152677" x1="7.89447" y1="1.43031" x2="7.89447" y2="2.9207" gradientUnits="userSpaceOnUse">
<stop stop-color="white"/>
<stop offset="1" stop-color="#272525"/>
</linearGradient>
<linearGradient id="paint5_linear_3521_152677" x1="13.7246" y1="5.90291" x2="13.7246" y2="6.85044" gradientUnits="userSpaceOnUse">
<stop stop-color="#F8E400"/>
<stop offset="0.4" stop-color="#F6DE46"/>
<stop offset="0.8" stop-color="#ECC13F"/>
<stop offset="1" stop-color="#DBA545"/>
</linearGradient>
<linearGradient id="paint6_linear_3521_152677" x1="14.4224" y1="6.3561" x2="12.9791" y2="6.3561" gradientUnits="userSpaceOnUse">
<stop stop-color="white"/>
<stop offset="1" stop-color="#272525"/>
</linearGradient>
<linearGradient id="paint7_linear_3521_152677" x1="2.27457" y1="5.90291" x2="2.27457" y2="6.85044" gradientUnits="userSpaceOnUse">
<stop stop-color="#F8E400"/>
<stop offset="0.4" stop-color="#F6DE46"/>
<stop offset="0.8" stop-color="#ECC13F"/>
<stop offset="1" stop-color="#DBA545"/>
</linearGradient>
<linearGradient id="paint8_linear_3521_152677" x1="2.98175" y1="6.3561" x2="1.52894" y2="6.3561" gradientUnits="userSpaceOnUse">
<stop stop-color="white"/>
<stop offset="1" stop-color="#272525"/>
</linearGradient>
<linearGradient id="paint9_linear_3521_152677" x1="11.1494" y1="2.89789" x2="11.857" y2="3.50194" gradientUnits="userSpaceOnUse">
<stop stop-color="#F8E400"/>
<stop offset="0.4" stop-color="#F6DE46"/>
<stop offset="0.8" stop-color="#ECC13F"/>
<stop offset="1" stop-color="#DBA545"/>
</linearGradient>
<linearGradient id="paint10_linear_3521_152677" x1="11.9409" y1="2.65737" x2="10.9519" y2="3.74379" gradientUnits="userSpaceOnUse">
<stop stop-color="white"/>
<stop offset="1" stop-color="#272525"/>
</linearGradient>
<linearGradient id="paint11_linear_3521_152677" x1="4.75637" y1="3.02238" x2="4.04883" y2="3.62643" gradientUnits="userSpaceOnUse">
<stop stop-color="#F8E400"/>
<stop offset="0.4" stop-color="#F6DE46"/>
<stop offset="0.8" stop-color="#ECC13F"/>
<stop offset="1" stop-color="#DBA545"/>
</linearGradient>
<linearGradient id="paint12_linear_3521_152677" x1="3.96548" y1="2.78186" x2="4.96112" y2="3.87547" gradientUnits="userSpaceOnUse">
<stop stop-color="white"/>
<stop offset="1" stop-color="#272525"/>
</linearGradient>
<linearGradient id="paint13_linear_3521_152677" x1="5.49566" y1="14.4694" x2="10.5423" y2="14.4694" gradientUnits="userSpaceOnUse">
<stop stop-color="#C3C5D1"/>
<stop offset="0.1" stop-color="white"/>
<stop offset="0.3" stop-color="#C1C3D0"/>
<stop offset="0.5" stop-color="#AEA1B2"/>
<stop offset="0.9" stop-color="#8596AF"/>
</linearGradient>
<linearGradient id="paint14_linear_3521_152677" x1="5.70618" y1="16.4148" x2="10.3609" y2="16.4148" gradientUnits="userSpaceOnUse">
<stop stop-color="#C3C5D1"/>
<stop offset="0.1" stop-color="white"/>
<stop offset="0.3" stop-color="#C1C3D0"/>
<stop offset="0.5" stop-color="#AEA1B2"/>
<stop offset="0.9" stop-color="#8596AF"/>
</linearGradient>
<linearGradient id="paint15_linear_3521_152677" x1="5.4861" y1="15.4442" x2="10.5327" y2="15.4442" gradientUnits="userSpaceOnUse">
<stop stop-color="#C3C5D1"/>
<stop offset="0.1" stop-color="white"/>
<stop offset="0.3" stop-color="#C1C3D0"/>
<stop offset="0.5" stop-color="#AEA1B2"/>
<stop offset="0.9" stop-color="#8596AF"/>
</linearGradient>
</defs>
</svg>
