<svg width="20" height="21" viewBox="0 0 20 21" fill="none" xmlns="http://www.w3.org/2000/svg">
<path d="M2.08398 12.1667C2.08398 13.2501 2.78398 14.1667 3.75065 14.5167V17.1667H2.08398V18.8334H7.08398V17.1667H5.41732V14.5167C6.38398 14.1667 7.08398 13.2501 7.08398 12.1667V5.50008H2.08398V12.1667ZM3.75065 7.16675H5.41732V9.66675H3.75065V7.16675ZM3.75065 11.3334H5.41732V12.1667C5.41732 12.6251 5.04232 13.0001 4.58398 13.0001C4.12565 13.0001 3.75065 12.6251 3.75065 12.1667V11.3334Z" fill="#A9A8AA"/>
<path d="M16.784 7.61675L15.984 7.35008C15.6423 7.23342 15.4173 6.91675 15.4173 6.55841V3.00008C15.4173 2.54175 15.0423 2.16675 14.584 2.16675H12.084C11.6257 2.16675 11.2507 2.54175 11.2507 3.00008V6.56675C11.2507 6.92508 11.0257 7.24175 10.684 7.35841L9.88398 7.62508C9.20898 7.85842 8.75065 8.49175 8.75065 9.20842V17.1667C8.75065 18.0834 9.50065 18.8334 10.4173 18.8334H16.2507C17.1673 18.8334 17.9173 18.0834 17.9173 17.1667V9.20008C17.9173 8.48341 17.459 7.85008 16.784 7.61675ZM12.9173 3.83341H13.7507V4.66675H12.9173V3.83341ZM16.2507 17.1667H10.4173V15.5001H16.2507V17.1667ZM16.2507 13.8334H10.4173V12.1667H16.2507V13.8334ZM16.2507 10.5001H10.4173V9.20008L11.209 8.93341C12.234 8.60008 12.9173 7.64175 12.9173 6.56675V6.33342H13.7507V6.56675C13.7507 7.64175 14.434 8.60008 15.459 8.94175L16.2507 9.20008V10.5001Z" fill="#A9A8AA"/>
</svg>
