<svg width="25" height="25" viewBox="0 0 25 25" fill="none" xmlns="http://www.w3.org/2000/svg">
<path d="M18.8535 3.49609H17.3535V2.74609C17.3535 2.54718 17.2745 2.35642 17.1338 2.21576C16.9932 2.07511 16.8024 1.99609 16.6035 1.99609C16.4046 1.99609 16.2138 2.07511 16.0732 2.21576C15.9325 2.35642 15.8535 2.54718 15.8535 2.74609V3.49609H12.8535V2.74609C12.8535 2.54718 12.7745 2.35642 12.6338 2.21576C12.4932 2.07511 12.3024 1.99609 12.1035 1.99609C11.9046 1.99609 11.7138 2.07511 11.5732 2.21576C11.4325 2.35642 11.3535 2.54718 11.3535 2.74609V3.49609H8.35352V2.74609C8.35352 2.54718 8.2745 2.35642 8.13385 2.21576C7.99319 2.07511 7.80243 1.99609 7.60352 1.99609C7.4046 1.99609 7.21384 2.07511 7.07319 2.21576C6.93253 2.35642 6.85352 2.54718 6.85352 2.74609V3.49609H5.35352C4.95569 3.49609 4.57416 3.65413 4.29286 3.93543C4.01155 4.21674 3.85352 4.59827 3.85352 4.99609V19.2461C3.85352 20.0417 4.16959 20.8048 4.7322 21.3674C5.2948 21.93 6.05787 22.2461 6.85352 22.2461H17.3535C18.1492 22.2461 18.9122 21.93 19.4748 21.3674C20.0374 20.8048 20.3535 20.0417 20.3535 19.2461V4.99609C20.3535 4.59827 20.1955 4.21674 19.9142 3.93543C19.6329 3.65413 19.2513 3.49609 18.8535 3.49609ZM15.1035 16.2461H9.10352C8.9046 16.2461 8.71384 16.1671 8.57319 16.0264C8.43253 15.8858 8.35352 15.695 8.35352 15.4961C8.35352 15.2972 8.43253 15.1064 8.57319 14.9658C8.71384 14.8251 8.9046 14.7461 9.10352 14.7461H15.1035C15.3024 14.7461 15.4932 14.8251 15.6338 14.9658C15.7745 15.1064 15.8535 15.2972 15.8535 15.4961C15.8535 15.695 15.7745 15.8858 15.6338 16.0264C15.4932 16.1671 15.3024 16.2461 15.1035 16.2461ZM15.1035 13.2461H9.10352C8.9046 13.2461 8.71384 13.1671 8.57319 13.0264C8.43253 12.8858 8.35352 12.695 8.35352 12.4961C8.35352 12.2972 8.43253 12.1064 8.57319 11.9658C8.71384 11.8251 8.9046 11.7461 9.10352 11.7461H15.1035C15.3024 11.7461 15.4932 11.8251 15.6338 11.9658C15.7745 12.1064 15.8535 12.2972 15.8535 12.4961C15.8535 12.695 15.7745 12.8858 15.6338 13.0264C15.4932 13.1671 15.3024 13.2461 15.1035 13.2461Z" fill="#BEBEC7"/>
</svg>
