<svg width="21" height="21" viewBox="0 0 21 21" fill="none" xmlns="http://www.w3.org/2000/svg">
<mask id="path-1-inside-1_1201_82420" fill="white">
<path d="M11.3789 18.1875H5.13891C4.44965 18.1875 3.89091 17.6288 3.89091 16.9395L3.89091 4.4595C3.89091 3.77025 4.44966 3.2115 5.13891 3.2115H11.3789L11.3789 18.1875Z"/>
</mask>
<path d="M11.3789 19.4355H5.13891C3.7604 19.4355 2.64291 18.318 2.64291 16.9395H5.13891H11.3789V19.4355ZM2.64291 4.4595C2.64291 3.081 3.7604 1.9635 5.13891 1.9635H11.3789V4.4595H5.13891L2.64291 4.4595ZM11.3789 3.2115L11.3789 18.1875L11.3789 3.2115ZM5.13891 19.4355C3.7604 19.4355 2.64291 18.318 2.64291 16.9395L2.64291 4.4595C2.64291 3.081 3.7604 1.9635 5.13891 1.9635V4.4595L5.13891 16.9395V19.4355Z" fill="#2D2D2D" mask="url(#path-1-inside-1_1201_82420)"/>
<line x1="7.63281" y1="10.7002" x2="17.6168" y2="10.7002" stroke="#2D2D2D" stroke-width="1.248"/>
<path d="M14.5 7.57812L17.62 10.6981L14.5 13.8181" stroke="#2D2D2D" stroke-width="1.1856"/>
</svg>
