<svg width="20" height="21" viewBox="0 0 20 21" fill="none" xmlns="http://www.w3.org/2000/svg">
<path d="M10.0003 4.07788C5.97406 4.07788 2.71033 6.65125 2.71033 9.82604C2.71033 11.8782 4.07502 13.6795 6.12715 14.6958C6.01561 15.0807 5.40981 17.1744 5.38576 17.3377C5.38576 17.3377 5.37118 17.4609 5.45137 17.5082C5.47815 17.5218 5.50744 17.5297 5.53742 17.5315C5.5674 17.5332 5.59741 17.5288 5.6256 17.5185C5.85523 17.4864 8.28499 15.7791 8.70562 15.4831C9.13454 15.5435 9.56717 15.5738 10.0003 15.5735C14.0266 15.5735 17.2903 13.0001 17.2903 9.82532C17.2903 6.65052 14.0266 4.07788 10.0003 4.07788Z" fill="black"/>
</svg>
