<svg width="243" height="87" viewBox="0 0 243 87" fill="none" xmlns="http://www.w3.org/2000/svg">
<rect width="243" height="86" transform="translate(0 0.5)" fill="#F8F8FC"/>
<path d="M67.9258 57.5V29.2188H74.5664V52.0703H86.4414V57.5H67.9258ZM115.309 43.3594C115.309 52.6953 109.449 57.8906 101.871 57.8906C94.2539 57.8906 88.4336 52.6562 88.4336 43.3594C88.4336 34.0234 94.2539 28.8281 101.871 28.8281C109.449 28.8281 115.309 34.0234 115.309 43.3594ZM108.512 43.3594C108.512 37.7344 106.012 34.6875 101.871 34.6875C97.7305 34.6875 95.2305 37.7344 95.2305 43.3594C95.2305 48.9844 97.7305 52.0312 101.871 52.0312C106.012 52.0312 108.512 48.9844 108.512 43.3594ZM137.848 38.4375C137.184 36.0547 135.27 34.6875 132.496 34.6875C128.355 34.6875 125.699 37.8125 125.699 43.3203C125.699 48.8672 128.199 52.0312 132.496 52.0312C136.266 52.0312 138.395 50.0586 138.473 46.9922H132.77V42.1094H144.879V45.8203C144.879 53.3594 139.684 57.8906 132.457 57.8906C124.371 57.8906 118.902 52.3438 118.902 43.3984C118.902 34.1406 124.84 28.8281 132.34 28.8281C138.863 28.8281 143.902 32.8125 144.605 38.4375H137.848ZM175.426 43.3594C175.426 52.6953 169.566 57.8906 161.988 57.8906C154.371 57.8906 148.551 52.6562 148.551 43.3594C148.551 34.0234 154.371 28.8281 161.988 28.8281C169.566 28.8281 175.426 34.0234 175.426 43.3594ZM168.629 43.3594C168.629 37.7344 166.129 34.6875 161.988 34.6875C157.848 34.6875 155.348 37.7344 155.348 43.3594C155.348 48.9844 157.848 52.0312 161.988 52.0312C166.129 52.0312 168.629 48.9844 168.629 43.3594Z" fill="#CFCFD8"/>
</svg>
