<?xml version="1.0" encoding="UTF-8"?>
<svg id="_레이어_1" data-name="레이어_1" xmlns="http://www.w3.org/2000/svg" version="1.1" xmlns:xlink="http://www.w3.org/1999/xlink" viewBox="0 0 300 300">
  <!-- Generator: Adobe Illustrator 29.7.1, SVG Export Plug-In . SVG Version: 2.1.1 Build 8)  -->
  <defs>
    <style>
      .st0 {
        fill: #5f5f5f;
      }

      .st1 {
        fill: #13b445;
      }

      .st2 {
        fill: #fff;
      }

      .st3 {
        fill: none;
      }

      .st4 {
        fill: #009428;
      }

      .st5 {
        fill: #0ee000;
      }

      .st6 {
        clip-path: url(#clippath);
      }
    </style>
    <clipPath id="clippath">
      <path class="st3" d="M198.2,13.6c31.1,0,56.3,25.2,56.3,56.3s-7.2,31.7-18.8,42l-85.7,85.7L63.4,110.9c-10.9-10.3-17.7-24.8-17.7-41,0-31.1,25.2-56.3,56.3-56.3s38.2,10.8,48.1,27c9.9-16.2,27.7-27,48.1-27Z"/>
    </clipPath>
  </defs>
  <g>
    <g>
      <path class="st5" d="M198.4,13.2c-20.4,0-38.2,10.8-48.1,27-9.9-16.2-27.7-27-48.1-27-31.1,0-56.3,25.2-56.3,56.3s6.8,30.7,17.7,41l69.9,69.9,34.8-1.1,67.7-67.8c11.5-10.3,18.8-25.3,18.8-42,0-31.1-25.2-56.3-56.3-56.3Z"/>
      <g class="st6">
        <path class="st2" d="M120,86.4c.2.7,1.1.7,1.4,0l6.2-15.6c.9-2.3,4.2-2.1,4.8.3l4,15.9c.1.5.6.8,1,.8h48.3v12.7h-56.1c-.4,0-.8.3-1,.7l-7.7,19.3c-.9,2.3-4.2,2.1-4.8-.3l-10.8-42.2c-.2-.7-1.2-.7-1.4,0l-5.4,21.1c-.2.8-.9,1.4-1.7,1.4h-41.4l-12.7-12.7h22.2s23.1,0,23.1,0c.5,0,.9-.3,1-.8l11.9-46.3c1-3.8,6.4-3.8,7.4,0l4.3,16.7,7.4,28.9Z"/>
        <path class="st2" d="M130.3,141.3l-9,26.8,12.2,12.2,16.9,5.3,17.9-6.3,6.9-6.9-37.9-37.9s-7,6.8-7,6.8Z"/>
        <g>
          <polygon class="st1" points="250.8 21.1 261.2 31.5 146.2 146.2 133.9 145 130.2 141.4 250.8 21.1"/>
          <path class="st1" d="M264.7,35l10.4,10.4-114,113.8h0c-5.3-1.2-9.1-4.9-10.4-10.2v-.2c0,0,114-113.8,114-113.8Z"/>
          <polygon class="st1" points="289.1 59.4 278.6 49 163.7 163.7 165 176 168.6 179.6 289.1 59.4"/>
        </g>
        <polyline class="st2" points="250.4 41.9 250 42.3 145.3 147 149.1 150.3 252.8 47.3"/>
        <polyline class="st2" points="264.1 56.2 263.6 56.6 158.9 161.3 162.8 164.6 266.5 61.6"/>
      </g>
    </g>
    <g>
      <path class="st2" d="M121.3,168.1l-2,6.1h8.1s-6.1-6.1-6.1-6.1Z"/>
      <path class="st2" d="M141.7,188.6l-5.9,2.1v-8.1s6,6,5.9,6Z"/>
      <path class="st4" d="M119.3,174.2h8.1l8.4,8.4v8.1l-11.1,3.8c-5.6,1.9-11.1-3.5-9.2-9.1l3.7-11.2Z"/>
    </g>
    <polyline class="st2" points="141.7 188.6 150.4 185.7 133.5 180.4 135.8 182.7 135.8 190.7"/>
  </g>
  <g>
    <g>
      <rect class="st0" x="63.3" y="247.2" width="10.1" height="38.8"/>
      <path class="st0" d="M34.2,230h-.5c-9.9,0-18.2,7.5-19.2,17.3l-4,38.7h10.3l1-10.2h0l.3-2.4.2-1.9h0s0-.7,0-.7h23.2l1.9,15.2h10l-4.6-38.9c-1.1-9.6-9.1-16.8-18.7-17ZM23.4,260.9l1.3-12.6v-.4c.7-4.4,4.5-7.7,9-7.7,4.6,0,8.5,3.5,9,8l1.5,12.7h-20.9Z"/>
      <path class="st5" d="M68.3,230.1c3.6,0,6.5,2.9,6.5,6.5s-2.9,6.5-6.5,6.5c-3.6,0-6.5-2.9-6.5-6.5s2.9-6.5,6.5-6.5Z"/>
    </g>
    <g>
      <polygon class="st0" points="109.1 266.7 100.3 266.7 100.3 285.9 132.8 285.9 132.8 278.3 109.1 278.3 109.1 266.7"/>
      <polygon class="st0" points="124.2 230.2 124.2 243.6 116.2 243.6 116.2 252 124.2 252 124.2 266.2 133 266.2 133 230.2 124.2 230.2"/>
      <polygon class="st0" points="104.2 262.7 112.5 262.7 112.5 233.1 84.5 233.1 84.5 240.7 104.2 240.7 104.2 262.7"/>
    </g>
    <g>
      <polygon class="st0" points="155.8 258.8 164.1 258.8 164.1 233.8 136.9 233.8 136.9 241.5 155.8 241.5 155.8 258.8"/>
      <polygon class="st0" points="181 241.2 181 230 172.1 230 172.1 260.2 181 260.2 181 249 189.9 249 189.9 241.2 181 241.2"/>
      <path class="st0" d="M165.8,261.2c-7.7,0-13.9,5.9-13.9,13.1s6.2,13.1,13.9,13.1,13.9-5.9,13.9-13.1-6.2-13.1-13.9-13.1ZM165.8,279.7c-3.3,0-5.9-2.4-5.9-5.4s2.6-5.4,5.9-5.4,5.9,2.4,5.9,5.4-2.6,5.4-5.9,5.4Z"/>
    </g>
    <g>
      <polygon class="st0" points="191.4 263.1 191.4 270.8 211.2 270.8 211.2 286.2 220 286.2 220 270.8 239.8 270.8 239.8 263.1 191.4 263.1"/>
      <polygon class="st0" points="215.6 239.8 227.8 259.6 237.7 259.6 220.1 230.1 211 230.1 193.4 259.6 203.4 259.6 215.6 239.8"/>
    </g>
    <g>
      <polygon class="st0" points="280.2 230 280.2 240.4 272.2 240.4 272.2 249 280.2 249 280.2 261.8 289.9 261.8 289.9 230 280.2 230"/>
      <path class="st0" d="M258.7,253.3c4.2,0,7.6,3.2,7.8,7.1h8.4c0-8.3-7.1-15.1-16-15.1s-2.3,0-3,.1l1.7-6h12.2v-8.3h-9.3v-4.2h-8.3v4.2h-10v8.3h6.8l-6.5,20.9h8.4c.1-4,3.6-7.1,7.8-7.1Z"/>
      <path class="st0" d="M279,268.2h-13.2v-3.9h-9.3v21.8h31.9v-21.8h-9.3v3.9ZM279,279.1h-13.2v-3.9h13.2v3.9Z"/>
    </g>
  </g>
</svg>