<svg width="41" height="40" viewBox="0 0 41 40" fill="none" xmlns="http://www.w3.org/2000/svg">
<rect x="0.768555" width="40" height="40" rx="20" fill="#FEE7E2"/>
<path d="M32.1293 19.9914C32.1293 19.8534 32.1268 19.7159 32.122 19.579C31.9049 13.4947 26.9041 8.62891 20.7668 8.62891C14.6295 8.62891 9.62871 13.4947 9.41166 19.579C9.40678 19.7159 9.4043 19.8534 9.4043 19.9914C9.4043 26.2667 15.241 30.9416 20.7668 30.9416C26.3927 30.9416 32.1293 26.2667 32.1293 19.9914Z" fill="#F87B72"/>
<path d="M20.7668 30.5283C14.6296 30.5283 9.62968 25.6623 9.41255 19.5781C9.40763 19.7151 9.4043 19.8524 9.4043 19.9905C9.4043 26.2658 14.4915 31.353 20.7668 31.353C27.0421 31.353 32.1293 26.2658 32.1293 19.9905C32.1293 19.8524 32.126 19.7151 32.1211 19.5782C31.9039 25.6624 26.904 30.5283 20.7668 30.5283Z" fill="#F87B72"/>
<path d="M29.7864 19.5942C29.5808 14.7893 25.6204 10.957 20.7649 10.957C15.9094 10.957 11.949 14.7893 11.7434 19.5942C11.7378 19.7244 11.7434 28.4424 20.7649 28.4424C29.7864 28.4424 29.792 19.7244 29.7864 19.5942Z" fill="#F8F3E6"/>
<path d="M20.7682 28.2348C15.9127 28.2348 11.953 24.4025 11.7473 19.5977C11.7417 19.7279 11.7383 19.8587 11.7383 19.9904C11.7383 24.9774 15.7811 29.0202 20.7682 29.0202C25.7552 29.0202 29.7981 24.9775 29.7981 19.9904C29.7981 19.8588 29.7946 19.7279 29.7891 19.5977C29.5834 24.4025 25.6236 28.2348 20.7682 28.2348Z" fill="#F7EFD7"/>
<path d="M20.7682 28.2348C15.9127 28.2348 11.953 24.4025 11.7473 19.5977C11.7417 19.7279 11.7383 19.8587 11.7383 19.9904C11.7383 24.9774 15.7811 29.0202 20.7682 29.0202C25.7552 29.0202 29.7981 24.9775 29.7981 19.9904C29.7981 19.8588 29.7946 19.7279 29.7891 19.5977C29.5834 24.4025 25.6236 28.2348 20.7682 28.2348Z" fill="#F7EFD7"/>
<g style="mix-blend-mode:multiply">
<path d="M29.7969 20.8965L20.4395 19.8828L24.9885 27.9637C24.9885 27.9637 26.25 27.3909 27.3923 26.1234C28.3252 25.0883 28.7476 24.4298 29.2547 23.132C29.5634 22.3418 29.7969 20.8965 29.7969 20.8965Z" fill="#FFCBBE"/>
</g>
<path d="M21.161 13.2255V12.0068C21.161 11.7895 20.9848 11.6133 20.7675 11.6133C20.5502 11.6133 20.374 11.7895 20.374 12.0068V13.2255C20.374 13.4428 20.5501 13.619 20.7675 13.619C20.9849 13.619 21.161 13.4428 21.161 13.2255Z" fill="#C9BFAA"/>
<path d="M20.375 26.7489V27.9677C20.375 28.185 20.5511 28.3612 20.7685 28.3612C20.9858 28.3612 21.162 28.185 21.162 27.9677V26.7489C21.162 26.5316 20.9858 26.3555 20.7685 26.3555C20.5512 26.3555 20.375 26.5316 20.375 26.7489Z" fill="#C9BFAA"/>
<path d="M28.7529 20.3846C28.9702 20.3846 29.1464 20.2084 29.1464 19.9911C29.1464 19.7738 28.9702 19.5977 28.7529 19.5977H27.5341C27.3168 19.5977 27.1406 19.7738 27.1406 19.9911C27.1406 20.2084 27.3168 20.3846 27.5341 20.3846H28.7529Z" fill="#C9BFAA"/>
<path d="M12.7831 19.5977C12.5658 19.5977 12.3896 19.7738 12.3896 19.9911C12.3896 20.2084 12.5658 20.3846 12.7831 20.3846H14.0019C14.2193 20.3846 14.3954 20.2084 14.3954 19.9911C14.3954 19.7738 14.2192 19.5977 14.0019 19.5977H12.7831Z" fill="#C9BFAA"/>
<path d="M25.1703 20.4909C25.2042 20.131 24.9399 19.8117 24.5801 19.7779L22.4026 19.5728L21.9259 20.1612L22.1945 20.8681L24.4574 21.0812C24.8172 21.115 25.1364 20.8507 25.1703 20.4909Z" fill="#405B6C"/>
<path d="M22.0152 21.1911L24.2633 25.2794C24.4375 25.5962 24.3219 25.9941 24.0051 26.1683C23.6884 26.3425 23.2904 26.2269 23.1162 25.9101L20.8238 21.7413L21.2297 21.075L22.0152 21.1911Z" fill="#405B6C"/>
<path d="M20.8237 21.7408L20.4292 21.0234L20.8644 20.3178L21.6592 20.5435L22.015 21.1906C21.7047 21.5131 21.2799 21.7137 20.8237 21.7408Z" fill="#2D4456"/>
<path d="M22.4029 19.5705L21.6661 19.5012L20.8649 20.1552L21.3826 20.7893L22.1948 20.8658C22.4252 20.4745 22.4975 20.0102 22.4029 19.5705Z" fill="#2D4456"/>
<path d="M21.8138 19.5968C21.6548 19.1729 21.2457 18.8711 20.7662 18.8711C20.2867 18.8711 19.8776 19.1729 19.7186 19.5968C19.6728 19.7191 19.7155 20.7154 20.7662 20.7154C21.8168 20.7154 21.8596 19.7191 21.8138 19.5968Z" fill="#F87B72"/>
<path d="M20.7689 20.3235C20.2894 20.3235 19.8805 20.0216 19.7215 19.5977C19.6756 19.7199 19.6504 19.8521 19.6504 19.9904C19.6504 20.6081 20.1512 21.1089 20.7689 21.1089C21.3866 21.1089 21.8874 20.6081 21.8874 19.9904C21.8874 19.8521 21.8621 19.7199 21.8163 19.5977C21.6573 20.0216 21.2485 20.3235 20.7689 20.3235Z" fill="#F77665"/>
</svg>
