<svg width="41" height="40" viewBox="0 0 41 40" fill="none" xmlns="http://www.w3.org/2000/svg">
<rect x="0.717773" width="40" height="40" rx="20" fill="#E2EAFA"/>
<mask id="mask0_1023_89797" style="mask-type:alpha" maskUnits="userSpaceOnUse" x="5" y="7" width="31" height="17">
<rect x="5.56055" y="7.11719" width="29.8386" height="16.0508" fill="#D9D9D9"/>
</mask>
<g mask="url(#mask0_1023_89797)">
<path fill-rule="evenodd" clip-rule="evenodd" d="M25.241 11.4781C24.7915 11.478 24.3606 11.2994 24.0428 10.9816L22.1568 9.09443C21.9994 8.93694 21.8126 8.81201 21.6069 8.72677C21.4012 8.64153 21.1807 8.59766 20.9581 8.59766C20.7354 8.59766 20.515 8.64153 20.3093 8.72677C20.1036 8.81201 19.9167 8.93694 19.7593 9.09443L17.8745 10.9793C17.5567 11.2971 17.1258 11.4757 16.6763 11.4758H14.0104C13.5613 11.4764 13.1308 11.6552 12.8135 11.973C12.4962 12.2908 12.318 12.7215 12.318 13.1705V15.8365C12.3179 16.2859 12.1392 16.7169 11.8214 17.0347L9.93427 18.9206C9.77678 19.078 9.65185 19.2649 9.56661 19.4706C9.48137 19.6763 9.4375 19.8967 9.4375 20.1194C9.4375 20.342 9.48137 20.5625 9.56661 20.7682C9.65185 20.9739 9.77678 21.1608 9.93427 21.3181L11.8191 23.203C12.1369 23.5207 12.3156 23.9517 12.3156 24.4011V27.0671C12.3163 27.5162 12.4951 27.9466 12.8128 28.2639C13.1306 28.5813 13.5613 28.7595 14.0104 28.7595H16.6763C17.1258 28.7596 17.5567 28.9382 17.8745 29.2561L19.7605 31.1432C19.9179 31.3007 20.1047 31.4256 20.3104 31.5108C20.5161 31.5961 20.7366 31.64 20.9592 31.64C21.1819 31.64 21.4023 31.5961 21.608 31.5108C21.8137 31.4256 22.0006 31.3007 22.158 31.1432L24.0428 29.2584C24.3606 28.9405 24.7915 28.7619 25.241 28.7618H27.9069C28.356 28.7612 28.7865 28.5824 29.1038 28.2646C29.4211 27.9469 29.5993 27.5162 29.5993 27.0671V24.4011C29.5996 23.9517 29.7782 23.5208 30.0959 23.203L31.9807 21.3181C32.1382 21.1608 32.2632 20.9739 32.3484 20.7682C32.4336 20.5625 32.4775 20.342 32.4775 20.1194C32.4775 19.8967 32.4336 19.6763 32.3484 19.4706C32.2632 19.2649 32.1382 19.078 31.9807 18.9206L30.0982 17.0358C29.7804 16.7181 29.6017 16.2871 29.6017 15.8376V13.1705C29.601 12.7215 29.4222 12.291 29.1045 11.9737C28.7867 11.6563 28.356 11.4781 27.9069 11.4781H25.241Z" fill="url(#paint0_linear_1023_89797)"/>
<path d="M20.9585 27.0321C24.7762 27.0321 27.871 23.9373 27.871 20.1196C27.871 16.3019 24.7762 13.207 20.9585 13.207C17.1408 13.207 14.0459 16.3019 14.0459 20.1196C14.0459 23.9373 17.1408 27.0321 20.9585 27.0321Z" fill="url(#paint1_linear_1023_89797)"/>
</g>
<path d="M34.9909 23.168H6.58706C6.09889 23.168 5.70312 23.5637 5.70312 24.0519C5.70312 24.5401 6.09889 24.9358 6.58706 24.9358H34.9909C35.4791 24.9358 35.8749 24.5401 35.8749 24.0519C35.8749 23.5637 35.4791 23.168 34.9909 23.168Z" fill="#7B9BDF"/>
<path opacity="0.75" d="M30.438 26.4688H11.1425C10.8108 26.4688 10.542 26.8645 10.542 27.3527C10.542 27.8409 10.8108 28.2366 11.1425 28.2366H30.438C30.7696 28.2366 31.0385 27.8409 31.0385 27.3527C31.0385 26.8645 30.7696 26.4688 30.438 26.4688Z" fill="#94B1EF" fill-opacity="0.8"/>
<path opacity="0.5" d="M27.1527 29.7734H14.4254C14.2066 29.7734 14.0293 30.1692 14.0293 30.6574C14.0293 31.1455 14.2066 31.5413 14.4254 31.5413H27.1527C27.3714 31.5413 27.5488 31.1455 27.5488 30.6574C27.5488 30.1692 27.3714 29.7734 27.1527 29.7734Z" fill="#7B9BDF" fill-opacity="0.6"/>
<defs>
<linearGradient id="paint0_linear_1023_89797" x1="20.9575" y1="8.59766" x2="20.9575" y2="31.64" gradientUnits="userSpaceOnUse">
<stop stop-color="#678CE1"/>
<stop offset="1" stop-color="#5F7BE7"/>
</linearGradient>
<linearGradient id="paint1_linear_1023_89797" x1="20.9585" y1="13.207" x2="20.9585" y2="34.5686" gradientUnits="userSpaceOnUse">
<stop stop-color="#B5CBFF"/>
<stop offset="1" stop-color="#9CB6F6"/>
</linearGradient>
</defs>
</svg>
