<svg width="24" height="24" viewBox="0 0 24 24" fill="none" xmlns="http://www.w3.org/2000/svg">
<path d="M19.9201 4.72159V19.2849C19.9201 19.4529 19.8475 19.6139 19.7184 19.7327C19.5892 19.8514 19.414 19.9181 19.2314 19.9181C19.0487 19.9181 18.8736 19.8514 18.7444 19.7327C18.6152 19.6139 18.5427 19.4529 18.5427 19.2849V15.4858H14.4105C14.2279 15.4858 14.0527 15.4191 13.9235 15.3003C13.7944 15.1816 13.7218 15.0205 13.7218 14.8526C13.7538 13.3359 13.9622 11.8266 14.3434 10.3506C15.1853 7.14591 16.7813 4.99782 18.9602 4.13985C19.0649 4.0986 19.1792 4.08189 19.2926 4.0912C19.4061 4.10052 19.5153 4.13557 19.6104 4.19322C19.7055 4.25087 19.7836 4.32932 19.8377 4.42153C19.8917 4.51374 19.92 4.61684 19.9201 4.72159ZM11.6463 4.6179C11.6328 4.53476 11.6014 4.45492 11.554 4.38304C11.5066 4.31116 11.4441 4.24867 11.3702 4.19923C11.2962 4.14979 11.2123 4.11438 11.1233 4.09506C11.0343 4.07575 10.9421 4.07292 10.8519 4.08674C10.7617 4.10056 10.6754 4.13075 10.598 4.17556C10.5207 4.22036 10.4538 4.27888 10.4013 4.34769C10.3488 4.41651 10.3117 4.49426 10.2922 4.57639C10.2727 4.65852 10.2712 4.74339 10.2878 4.82606L10.9576 8.52072H8.90095V4.72159C8.90095 4.55366 8.82839 4.3926 8.69923 4.27386C8.57008 4.15511 8.39491 4.0884 8.21225 4.0884C8.0296 4.0884 7.85443 4.15511 7.72527 4.27386C7.59612 4.3926 7.52356 4.55366 7.52356 4.72159V8.52072H5.46694L6.1367 4.82606C6.15327 4.74339 6.15176 4.65852 6.13228 4.57639C6.1128 4.49426 6.07572 4.41651 6.02322 4.34769C5.97071 4.27888 5.90383 4.22036 5.82646 4.17556C5.7491 4.13075 5.66281 4.10056 5.57262 4.08674C5.48244 4.07292 5.39016 4.07575 5.30118 4.09506C5.21219 4.11438 5.12828 4.14979 5.05434 4.19923C4.98039 4.24867 4.9179 4.31116 4.87049 4.38304C4.82309 4.45492 4.79173 4.53476 4.77824 4.6179L4.08955 8.41704C4.08337 8.45131 4.0802 8.48598 4.08008 8.52072C4.08145 9.41812 4.4278 10.2862 5.05791 10.9715C5.68803 11.6569 6.56135 12.1154 7.52356 12.266V19.2849C7.52356 19.4529 7.59612 19.6139 7.72527 19.7327C7.85443 19.8514 8.0296 19.9181 8.21225 19.9181C8.39491 19.9181 8.57008 19.8514 8.69923 19.7327C8.82839 19.6139 8.90095 19.4529 8.90095 19.2849V12.266C9.86316 12.1154 10.7365 11.6569 11.3666 10.9715C11.9967 10.2862 12.3431 9.41812 12.3444 8.52072C12.3443 8.48598 12.3411 8.45131 12.335 8.41704L11.6463 4.6179Z" fill="#596FE9"/>
</svg>
