<svg width="41" height="40" viewBox="0 0 41 40" fill="none" xmlns="http://www.w3.org/2000/svg">
<rect x="0.768555" width="40" height="40" rx="20" fill="#FBECD6"/>
<path fill-rule="evenodd" clip-rule="evenodd" d="M25.2311 11.0002C24.763 11.0001 24.3141 10.8141 23.9831 10.483L22.0187 8.51743C21.8548 8.35339 21.6602 8.22326 21.4459 8.13448C21.2317 8.0457 21.002 8 20.7701 8C20.5382 8 20.3086 8.0457 20.0944 8.13448C19.8801 8.22326 19.6855 8.35339 19.5215 8.51743L17.5583 10.4806C17.2274 10.8117 16.7785 10.9977 16.3103 10.9978H13.5335C13.0658 10.9985 12.6174 11.1847 12.2869 11.5157C11.9564 11.8467 11.7707 12.2953 11.7707 12.763V15.5398C11.7706 16.008 11.5846 16.4569 11.2535 16.7878L9.28794 18.7522C9.1239 18.9162 8.99377 19.1108 8.90499 19.325C8.8162 19.5393 8.77051 19.7689 8.77051 20.0008C8.77051 20.2327 8.8162 20.4624 8.90499 20.6766C8.99377 20.8909 9.1239 21.0855 9.28794 21.2494L11.2511 23.2126C11.5822 23.5436 11.7682 23.9925 11.7683 24.4606V27.2374C11.769 27.7052 11.9552 28.1535 12.2862 28.4841C12.6172 28.8146 13.0658 29.0002 13.5335 29.0002H16.3103C16.7785 29.0003 17.2274 29.1864 17.5583 29.5174L19.5227 31.483C19.6867 31.6471 19.8813 31.7772 20.0956 31.866C20.3098 31.9548 20.5394 32.0005 20.7713 32.0005C21.0032 32.0005 21.2329 31.9548 21.4471 31.866C21.6614 31.7772 21.856 31.6471 22.0199 31.483L23.9831 29.5198C24.3141 29.1888 24.763 29.0027 25.2311 29.0026H28.0079C28.4757 29.002 28.9241 28.8157 29.2546 28.4848C29.5851 28.1538 29.7707 27.7052 29.7707 27.2374V24.4606C29.771 23.9925 29.957 23.5437 30.2879 23.2126L32.2511 21.2494C32.4152 21.0855 32.5453 20.8909 32.6341 20.6766C32.7229 20.4624 32.7686 20.2327 32.7686 20.0008C32.7686 19.7689 32.7229 19.5393 32.6341 19.325C32.5453 19.1108 32.4152 18.9162 32.2511 18.7522L30.2903 16.789C29.9593 16.4581 29.7732 16.0092 29.7731 15.541V12.763C29.7725 12.2953 29.5862 11.8469 29.2553 11.5164C28.9243 11.1859 28.4757 11.0002 28.0079 11.0002H25.2311Z" fill="url(#paint0_linear_1023_89333)"/>
<path d="M20.7703 27.2008C24.7468 27.2008 27.9703 23.9772 27.9703 20.0008C27.9703 16.0243 24.7468 12.8008 20.7703 12.8008C16.7939 12.8008 13.5703 16.0243 13.5703 20.0008C13.5703 23.9772 16.7939 27.2008 20.7703 27.2008Z" fill="url(#paint1_linear_1023_89333)"/>
<defs>
<linearGradient id="paint0_linear_1023_89333" x1="20.7695" y1="8" x2="20.7695" y2="32.0005" gradientUnits="userSpaceOnUse">
<stop stop-color="#F99762"/>
<stop offset="1" stop-color="#FB7D47"/>
</linearGradient>
<linearGradient id="paint1_linear_1023_89333" x1="20.7703" y1="12.8008" x2="20.7703" y2="27.2008" gradientUnits="userSpaceOnUse">
<stop stop-color="#FFCB97"/>
<stop offset="1" stop-color="#F8C18A"/>
</linearGradient>
</defs>
</svg>
