<svg width="41" height="40" viewBox="0 0 41 40" fill="none" xmlns="http://www.w3.org/2000/svg">
<rect x="0.768555" width="40" height="40" rx="20" fill="#EDE9F8"/>
<path d="M30.8347 22.7429C31.0294 22.0904 30.2442 21.6303 29.6374 21.9393C29.4509 22.0343 29.2603 22.1221 29.066 22.2027C27.5979 22.8107 25.9825 22.9698 24.424 22.6598C22.8654 22.3498 21.4338 21.5846 20.3102 20.461C19.1865 19.3374 18.4213 17.9058 18.1113 16.3473C17.8013 14.7887 17.9605 13.1732 18.5686 11.7052C18.6491 11.5108 18.7369 11.3203 18.8319 11.1338C19.1409 10.527 18.6808 9.7419 18.0283 9.93648C17.0477 10.2289 16.1108 10.6674 15.2508 11.2421C13.558 12.3732 12.2385 13.9809 11.4594 15.8619C10.6803 17.7429 10.4764 19.8127 10.8736 21.8096C11.2708 23.8065 12.2512 25.6407 13.6908 27.0804C15.1305 28.52 16.9648 29.5003 18.9616 29.8977C20.9585 30.2948 23.0282 30.091 24.9092 29.3118C26.7902 28.5327 28.3979 27.2133 29.5291 25.5204C30.1038 24.6604 30.5424 23.7235 30.8347 22.7429Z" fill="url(#paint0_linear_1023_89227)"/>
<path d="M30.8347 22.7429C31.0294 22.0904 30.2442 21.6303 29.6374 21.9393C29.4509 22.0343 29.2603 22.1221 29.066 22.2027C27.5979 22.8107 25.9825 22.9698 24.424 22.6598C22.8654 22.3498 21.4338 21.5846 20.3102 20.461C19.1865 19.3374 18.4213 17.9058 18.1113 16.3473C17.8013 14.7887 17.9605 13.1732 18.5686 11.7052C18.6491 11.5108 18.7369 11.3203 18.8319 11.1338C19.1409 10.527 18.6808 9.7419 18.0283 9.93648C17.0477 10.2289 16.1108 10.6674 15.2508 11.2421C13.558 12.3732 12.2385 13.9809 11.4594 15.8619C10.6803 17.7429 10.4764 19.8127 10.8736 21.8096C11.2708 23.8065 12.2512 25.6407 13.6908 27.0804C15.1305 28.52 16.9648 29.5003 18.9616 29.8977C20.9585 30.2948 23.0282 30.091 24.9092 29.3118C26.7902 28.5327 28.3979 27.2133 29.5291 25.5204C30.1038 24.6604 30.5424 23.7235 30.8347 22.7429Z" fill="url(#paint1_linear_1023_89227)"/>
<path fill-rule="evenodd" clip-rule="evenodd" d="M27.1037 16.7111C26.8673 16.8298 26.6757 17.0217 26.5574 17.2583L25.7882 18.7966C25.6753 19.0224 25.3531 19.0224 25.2402 18.7966L24.471 17.2583C24.3528 17.0217 24.1611 16.8298 23.9247 16.7111L22.3857 15.9387C22.1601 15.8254 22.1606 15.5032 22.3866 15.3907L23.9223 14.6258C24.1602 14.5073 24.3531 14.3146 24.472 14.0769L25.2402 12.5404C25.3531 12.3147 25.6753 12.3147 25.7882 12.5404L26.5565 14.0769C26.6753 14.3146 26.8682 14.5073 27.1061 14.6257L28.6419 15.3907C28.8679 15.5032 28.8683 15.8254 28.6428 15.9387L27.1037 16.7111Z" fill="url(#paint2_linear_1023_89227)"/>
<path fill-rule="evenodd" clip-rule="evenodd" d="M27.1037 16.7111C26.8673 16.8298 26.6757 17.0217 26.5574 17.2583L25.7882 18.7966C25.6753 19.0224 25.3531 19.0224 25.2402 18.7966L24.471 17.2583C24.3528 17.0217 24.1611 16.8298 23.9247 16.7111L22.3857 15.9387C22.1601 15.8254 22.1606 15.5032 22.3866 15.3907L23.9223 14.6258C24.1602 14.5073 24.3531 14.3146 24.472 14.0769L25.2402 12.5404C25.3531 12.3147 25.6753 12.3147 25.7882 12.5404L26.5565 14.0769C26.6753 14.3146 26.8682 14.5073 27.1061 14.6257L28.6419 15.3907C28.8679 15.5032 28.8683 15.8254 28.6428 15.9387L27.1037 16.7111Z" fill="url(#paint3_linear_1023_89227)"/>
<path fill-rule="evenodd" clip-rule="evenodd" d="M27.1037 16.7111C26.8673 16.8298 26.6757 17.0217 26.5574 17.2583L25.7882 18.7966C25.6753 19.0224 25.3531 19.0224 25.2402 18.7966L24.471 17.2583C24.3528 17.0217 24.1611 16.8298 23.9247 16.7111L22.3857 15.9387C22.1601 15.8254 22.1606 15.5032 22.3866 15.3907L23.9223 14.6258C24.1602 14.5073 24.3531 14.3146 24.472 14.0769L25.2402 12.5404C25.3531 12.3147 25.6753 12.3147 25.7882 12.5404L26.5565 14.0769C26.6753 14.3146 26.8682 14.5073 27.1061 14.6257L28.6419 15.3907C28.8679 15.5032 28.8683 15.8254 28.6428 15.9387L27.1037 16.7111Z" fill="url(#paint4_linear_1023_89227)"/>
<path fill-rule="evenodd" clip-rule="evenodd" d="M27.1037 16.7111C26.8673 16.8298 26.6757 17.0217 26.5574 17.2583L25.7882 18.7966C25.6753 19.0224 25.3531 19.0224 25.2402 18.7966L24.471 17.2583C24.3528 17.0217 24.1611 16.8298 23.9247 16.7111L22.3857 15.9387C22.1601 15.8254 22.1606 15.5032 22.3866 15.3907L23.9223 14.6258C24.1602 14.5073 24.3531 14.3146 24.472 14.0769L25.2402 12.5404C25.3531 12.3147 25.6753 12.3147 25.7882 12.5404L26.5565 14.0769C26.6753 14.3146 26.8682 14.5073 27.1061 14.6257L28.6419 15.3907C28.8679 15.5032 28.8683 15.8254 28.6428 15.9387L27.1037 16.7111Z" fill="url(#paint5_linear_1023_89227)"/>
<defs>
<linearGradient id="paint0_linear_1023_89227" x1="16.1638" y1="9.90625" x2="20.7704" y2="26.8764" gradientUnits="userSpaceOnUse">
<stop stop-color="#FBCC40"/>
<stop offset="1" stop-color="#FCA321"/>
</linearGradient>
<linearGradient id="paint1_linear_1023_89227" x1="20.7704" y1="9.90625" x2="20.7704" y2="30.0955" gradientUnits="userSpaceOnUse">
<stop stop-color="#A08EB1"/>
<stop offset="1" stop-color="#7A628D"/>
</linearGradient>
<linearGradient id="paint2_linear_1023_89227" x1="24.0095" y1="12.3711" x2="25.5142" y2="17.9145" gradientUnits="userSpaceOnUse">
<stop stop-color="#FBCC40"/>
<stop offset="1" stop-color="#FCA321"/>
</linearGradient>
<linearGradient id="paint3_linear_1023_89227" x1="25.5142" y1="12.3711" x2="25.5142" y2="18.966" gradientUnits="userSpaceOnUse">
<stop stop-color="#9462C3"/>
<stop offset="1" stop-color="#8D5CB0"/>
</linearGradient>
<linearGradient id="paint4_linear_1023_89227" x1="25.5142" y1="12.3711" x2="25.5142" y2="18.966" gradientUnits="userSpaceOnUse">
<stop stop-color="#9462C3"/>
<stop offset="1" stop-color="#8D5CB0"/>
</linearGradient>
<linearGradient id="paint5_linear_1023_89227" x1="25.5142" y1="12.3711" x2="25.5142" y2="18.966" gradientUnits="userSpaceOnUse">
<stop stop-color="#A08EB1"/>
<stop offset="1" stop-color="#7A628D"/>
</linearGradient>
</defs>
</svg>
