<svg width="33" height="32" viewBox="0 0 33 32" fill="none" xmlns="http://www.w3.org/2000/svg">
<path d="M23.3645 9.13476V23.8548C23.3645 24.0245 23.2971 24.1873 23.1771 24.3073C23.0571 24.4273 22.8943 24.4948 22.7245 24.4948C22.5548 24.4948 22.392 24.4273 22.272 24.3073C22.152 24.1873 22.0845 24.0245 22.0845 23.8548V20.0148H18.2445C18.0748 20.0148 17.912 19.9473 17.792 19.8273C17.672 19.7073 17.6045 19.5445 17.6045 19.3748C17.6343 17.8417 17.8279 16.3162 18.1821 14.8244C18.9645 11.5852 20.4477 9.41396 22.4725 8.54676C22.5699 8.50507 22.676 8.48818 22.7815 8.49759C22.8869 8.50701 22.9884 8.54244 23.0768 8.60071C23.1652 8.65898 23.2377 8.73827 23.2879 8.83147C23.3382 8.92468 23.3645 9.02889 23.3645 9.13476ZM15.6757 9.02996C15.6632 8.94592 15.6341 8.86522 15.59 8.79257C15.546 8.71991 15.4879 8.65676 15.4192 8.60678C15.3504 8.55681 15.2725 8.52102 15.1898 8.5015C15.1071 8.48197 15.0213 8.47911 14.9375 8.49308C14.8537 8.50705 14.7735 8.53757 14.7016 8.58285C14.6297 8.62814 14.5676 8.68729 14.5188 8.75684C14.47 8.8264 14.4355 8.90498 14.4174 8.988C14.3993 9.07101 14.3979 9.1568 14.4133 9.24036L15.0357 12.9748H13.1245V9.13476C13.1245 8.96502 13.0571 8.80223 12.9371 8.68221C12.8171 8.56219 12.6543 8.49476 12.4845 8.49476C12.3148 8.49476 12.152 8.56219 12.032 8.68221C11.912 8.80223 11.8445 8.96502 11.8445 9.13476V12.9748H9.93333L10.5557 9.24036C10.5711 9.1568 10.5697 9.07101 10.5516 8.988C10.5335 8.90498 10.4991 8.8264 10.4503 8.75684C10.4015 8.68729 10.3393 8.62814 10.2674 8.58285C10.1955 8.53757 10.1154 8.50705 10.0315 8.49308C9.94773 8.47911 9.86198 8.48197 9.77929 8.5015C9.6966 8.52102 9.61862 8.55681 9.5499 8.60678C9.48119 8.65676 9.42311 8.71991 9.37906 8.79257C9.33501 8.86522 9.30587 8.94592 9.29333 9.02996L8.65333 12.87C8.64759 12.9046 8.64464 12.9396 8.64453 12.9748C8.64581 13.8818 8.96767 14.7592 9.55323 15.4519C10.1388 16.1446 10.9504 16.6081 11.8445 16.7604V23.8548C11.8445 24.0245 11.912 24.1873 12.032 24.3073C12.152 24.4273 12.3148 24.4948 12.4845 24.4948C12.6543 24.4948 12.8171 24.4273 12.9371 24.3073C13.0571 24.1873 13.1245 24.0245 13.1245 23.8548V16.7604C14.0187 16.6081 14.8303 16.1446 15.4158 15.4519C16.0014 14.7592 16.3233 13.8818 16.3245 12.9748C16.3244 12.9396 16.3215 12.9046 16.3157 12.87L15.6757 9.02996Z" fill="#FF9E20"/>
</svg>
