<svg width="41" height="40" viewBox="0 0 41 40" fill="none" xmlns="http://www.w3.org/2000/svg">
<rect x="0.717773" width="40" height="40" rx="20" fill="#D5F2FB"/>
<path fill-rule="evenodd" clip-rule="evenodd" d="M25.1794 11.0002C24.7113 11.0001 24.2623 10.8141 23.9314 10.483L21.967 8.51743C21.8031 8.35339 21.6084 8.22326 21.3942 8.13448C21.1799 8.0457 20.9503 8 20.7184 8C20.4865 8 20.2568 8.0457 20.0426 8.13448C19.8284 8.22326 19.6337 8.35339 19.4698 8.51743L17.5066 10.4806C17.1756 10.8117 16.7267 10.9977 16.2586 10.9978H13.4818C13.014 10.9985 12.5657 11.1847 12.2351 11.5157C11.9046 11.8467 11.719 12.2953 11.719 12.763V15.5398C11.7189 16.008 11.5328 16.4569 11.2018 16.7878L9.23618 18.7522C9.07214 18.9162 8.94201 19.1108 8.85323 19.325C8.76445 19.5393 8.71875 19.7689 8.71875 20.0008C8.71875 20.2327 8.76445 20.4624 8.85323 20.6766C8.94201 20.8909 9.07214 21.0855 9.23618 21.2494L11.1994 23.2126C11.5304 23.5436 11.7165 23.9925 11.7166 24.4606V27.2374C11.7172 27.7052 11.9035 28.1535 12.2344 28.4841C12.5654 28.8146 13.014 29.0002 13.4818 29.0002H16.2586C16.7267 29.0003 17.1756 29.1864 17.5066 29.5174L19.471 31.483C19.6349 31.6471 19.8296 31.7772 20.0438 31.866C20.258 31.9548 20.4877 32.0005 20.7196 32.0005C20.9515 32.0005 21.1811 31.9548 21.3954 31.866C21.6096 31.7772 21.8043 31.6471 21.9682 31.483L23.9314 29.5198C24.2623 29.1888 24.7113 29.0027 25.1794 29.0026H27.9562C28.4239 29.002 28.8723 28.8157 29.2028 28.4848C29.5333 28.1538 29.719 27.7052 29.719 27.2374V24.4606C29.7192 23.9925 29.9052 23.5437 30.2362 23.2126L32.1994 21.2494C32.3634 21.0855 32.4935 20.8909 32.5823 20.6766C32.6711 20.4624 32.7168 20.2327 32.7168 20.0008C32.7168 19.7689 32.6711 19.5393 32.5823 19.325C32.4935 19.1108 32.3634 18.9162 32.1994 18.7522L30.2386 16.789C29.9075 16.4581 29.7215 16.0092 29.7214 15.541V12.763C29.7207 12.2953 29.5345 11.8469 29.2035 11.5164C28.8725 11.1859 28.4239 11.0002 27.9562 11.0002H25.1794Z" fill="url(#paint0_linear_1023_89868)"/>
<path d="M20.7186 27.2008C24.695 27.2008 27.9186 23.9772 27.9186 20.0008C27.9186 16.0243 24.695 12.8008 20.7186 12.8008C16.7421 12.8008 13.5186 16.0243 13.5186 20.0008C13.5186 23.9772 16.7421 27.2008 20.7186 27.2008Z" fill="url(#paint1_linear_1023_89868)"/>
<defs>
<linearGradient id="paint0_linear_1023_89868" x1="20.7178" y1="8" x2="20.7178" y2="32.0005" gradientUnits="userSpaceOnUse">
<stop stop-color="#FFC42E"/>
<stop offset="1" stop-color="#FFB521"/>
</linearGradient>
<linearGradient id="paint1_linear_1023_89868" x1="20.7186" y1="12.8008" x2="20.7186" y2="27.2008" gradientUnits="userSpaceOnUse">
<stop stop-color="#FFF2A6"/>
<stop offset="1" stop-color="#FFE966"/>
</linearGradient>
</defs>
</svg>
