<svg width="70" height="70" viewBox="0 0 70 70" fill="none" xmlns="http://www.w3.org/2000/svg">
<path d="M34.9715 5.83203C18.8715 5.83203 5.83398 18.8987 5.83398 34.9987C5.83398 51.0987 18.8715 64.1654 34.9715 64.1654C51.1006 64.1654 64.1673 51.0987 64.1673 34.9987C64.1673 18.8987 51.1006 5.83203 34.9715 5.83203ZM35.0006 58.332C22.109 58.332 11.6673 47.8904 11.6673 34.9987C11.6673 22.107 22.109 11.6654 35.0006 11.6654C47.8923 11.6654 58.334 22.107 58.334 34.9987C58.334 47.8904 47.8923 58.332 35.0006 58.332ZM45.209 32.082C47.6298 32.082 49.584 30.1279 49.584 27.707C49.584 25.2862 47.6298 23.332 45.209 23.332C42.7881 23.332 40.834 25.2862 40.834 27.707C40.834 30.1279 42.7881 32.082 45.209 32.082ZM24.7923 32.082C27.2131 32.082 29.1673 30.1279 29.1673 27.707C29.1673 25.2862 27.2131 23.332 24.7923 23.332C22.3715 23.332 20.4173 25.2862 20.4173 27.707C20.4173 30.1279 22.3715 32.082 24.7923 32.082ZM35.0006 39.3737C28.2048 39.3737 22.4298 43.632 20.0965 49.582H49.9048C47.5715 43.632 41.7965 39.3737 35.0006 39.3737Z" fill="#00BF18"/>
</svg>
