<svg width="70" height="70" viewBox="0 0 70 70" fill="none" xmlns="http://www.w3.org/2000/svg">
<path d="M34.9715 5.83398C18.8715 5.83398 5.83398 18.9007 5.83398 35.0006C5.83398 51.1006 18.8715 64.1673 34.9715 64.1673C51.1006 64.1673 64.1673 51.1006 64.1673 35.0006C64.1673 18.9007 51.1006 5.83398 34.9715 5.83398ZM35.0006 58.334C22.109 58.334 11.6673 47.8923 11.6673 35.0006C11.6673 22.109 22.109 11.6673 35.0006 11.6673C47.8923 11.6673 58.334 22.109 58.334 35.0006C58.334 47.8923 47.8923 58.334 35.0006 58.334ZM45.209 32.084C47.6298 32.084 49.584 30.1298 49.584 27.709C49.584 25.2882 47.6298 23.334 45.209 23.334C42.7882 23.334 40.834 25.2882 40.834 27.709C40.834 30.1298 42.7882 32.084 45.209 32.084ZM24.7923 32.084C27.2132 32.084 29.1673 30.1298 29.1673 27.709C29.1673 25.2882 27.2132 23.334 24.7923 23.334C22.3715 23.334 20.4173 25.2882 20.4173 27.709C20.4173 30.1298 22.3715 32.084 24.7923 32.084ZM35.0006 51.0423C41.7965 51.0423 47.5715 46.784 49.9048 40.834H20.0965C22.4298 46.784 28.2048 51.0423 35.0006 51.0423Z" fill="#7C7C7C"/>
</svg>
