<?xml version="1.0" encoding="UTF-8"?>
<svg id="_레이어_1" data-name="레이어_1" xmlns="http://www.w3.org/2000/svg" version="1.1" viewBox="0 0 100 100">
  <!-- Generator: Adobe Illustrator 29.8.0, SVG Export Plug-In . SVG Version: 2.1.1 Build 160)  -->
  <defs>
    <style>
      .st0 {
        fill: #ef2d38;
      }
    </style>
  </defs>
  <path class="st0" d="M53.1,69v-4.7c-18.2,0-26.2-11.4-26.2-20.6,0-7.1,4.8-14.5,12.8-14.6,6.8,0,10.2,5.3,10.2,5.3,0,0,2.8-5.5,10.4-5.5,5.4,0,12.6,4.5,12.7,14.9,0,9.8-7,20.6-19.8,25.2M49.6,5.3C25.1,5.5,4.8,23.5,5,46.7c.1,11.6,6.1,23.4,16.7,31.2l-2.8,13.3c51.9,15,76.3-22.7,76.1-45.2-.2-22.9-20.3-40.9-45.4-40.7"/>
</svg>