<svg width="100" height="100" viewBox="0 0 100 100" fill="none" xmlns="http://www.w3.org/2000/svg">
<path d="M49.9998 90.625C54.5832 90.625 58.3332 86.875 58.3332 82.2917H41.6665C41.6665 86.875 45.4165 90.625 49.9998 90.625ZM74.9998 65.625V44.7917C74.9998 32 68.2082 21.2917 56.2498 18.4583V15.625C56.2498 12.1667 53.4582 9.375 49.9998 9.375C46.5415 9.375 43.7498 12.1667 43.7498 15.625V18.4583C31.8332 21.2917 24.9998 31.9583 24.9998 44.7917V65.625L16.6665 73.9583V78.125H83.3332V73.9583L74.9998 65.625ZM66.6665 69.7917H33.3332V44.7917C33.3332 34.4583 39.6248 26.0417 49.9998 26.0417C60.3748 26.0417 66.6665 34.4583 66.6665 44.7917V69.7917Z" fill="#A9A8AA"/>
<path d="M50 40C44.47 40 40 44.47 40 50C40 55.53 44.47 60 50 60C55.53 60 60 55.53 60 50C60 44.47 55.53 40 50 40ZM55 53.59L53.59 55L50 51.41L46.41 55L45 53.59L48.59 50L45 46.41L46.41 45L50 48.59L53.59 45L55 46.41L51.41 50L55 53.59Z" fill="#A9A8AA"/>
</svg>
