<svg width="21" height="20" viewBox="0 0 21 20" fill="none" xmlns="http://www.w3.org/2000/svg">
<path d="M19.2671 9.99861C19.2671 14.8734 15.3153 18.8252 10.4405 18.8252C5.56556 18.8252 1.61377 14.8734 1.61377 9.99861C1.61377 5.12367 5.56556 1.17188 10.4405 1.17188C15.3153 1.17188 19.2671 5.12367 19.2671 9.99861Z" fill="#FFC107"/>
<path d="M12.2653 14.0081C12.0006 14.0081 11.7662 13.8348 11.6892 13.5812L10.4422 9.46312L9.19437 13.5812C9.11664 13.8395 8.90477 13.996 8.60137 14.0081C8.33014 14.0001 8.09755 13.8124 8.03407 13.5483L6.57537 7.53013C6.49661 7.20674 6.69482 6.88173 7.01748 6.80313C7.33998 6.72202 7.66572 6.92346 7.74448 7.24612L8.6832 11.1178L9.86686 7.2132C9.94312 6.95961 10.1773 6.78623 10.4422 6.78623C10.707 6.78623 10.9414 6.95961 11.0183 7.2132L12.2019 11.1178L13.1407 7.24612C13.2193 6.92346 13.5436 6.72452 13.867 6.80313C14.1895 6.88173 14.3877 7.20674 14.3098 7.52939L12.8511 13.5476C12.7877 13.8115 12.5549 13.9992 12.2837 14.0073C12.2765 14.0081 12.2709 14.0081 12.2653 14.0081Z" fill="#FAFAFA"/>
<path d="M14.6533 9.59426H13.4343C13.1021 9.59426 12.8325 9.32465 12.8325 8.99244C12.8325 8.66024 13.1021 8.39062 13.4343 8.39062H14.6533C14.9855 8.39062 15.2551 8.66024 15.2551 8.99244C15.2551 9.32465 14.9855 9.59426 14.6533 9.59426Z" fill="#FAFAFA"/>
<path d="M7.44852 9.59426H6.22975C5.89754 9.59426 5.62793 9.32465 5.62793 8.99244C5.62793 8.66024 5.89754 8.39062 6.22975 8.39062H7.44852C7.78073 8.39062 8.05034 8.66024 8.05034 8.99244C8.05034 9.32465 7.78073 9.59426 7.44852 9.59426Z" fill="#FAFAFA"/>
<path d="M14.6609 11.606H13.1218C12.7896 11.606 12.52 11.3364 12.52 11.0042C12.52 10.672 12.7896 10.4023 13.1218 10.4023H14.6609C14.9931 10.4023 15.2627 10.672 15.2627 11.0042C15.2627 11.3364 14.9931 11.606 14.6609 11.606Z" fill="#FAFAFA"/>
<path d="M7.76883 11.606H6.22975C5.89754 11.606 5.62793 11.3364 5.62793 11.0042C5.62793 10.672 5.89754 10.4023 6.22975 10.4023H7.76883C8.10089 10.4023 8.37065 10.672 8.37065 11.0042C8.37065 11.3364 8.10089 11.606 7.76883 11.606Z" fill="#FAFAFA"/>
</svg>
