<svg width="21" height="20" viewBox="0 0 21 20" fill="none" xmlns="http://www.w3.org/2000/svg">
<path d="M10.428 1.18371C10.3855 1.18571 10.344 1.19689 10.3063 1.21648C10.3063 1.21648 6.81777 2.95659 2.46746 3.53663C2.39681 3.54639 2.33211 3.58152 2.28545 3.63546C2.23879 3.68941 2.21335 3.75848 2.21388 3.82981V9.99628C2.21388 13.7739 4.28206 16.0147 6.32121 17.2609C8.36035 18.507 10.3953 18.8071 10.3953 18.8071C10.4242 18.8114 10.4536 18.8114 10.4825 18.8071C10.4825 18.8071 12.5174 18.507 14.5565 17.2609C16.5957 16.0147 18.6639 13.7739 18.6639 9.99628V3.82981C18.6644 3.75848 18.639 3.68941 18.5923 3.63546C18.5456 3.58152 18.4809 3.54639 18.4103 3.53663C14.06 2.95659 10.5714 1.21648 10.5714 1.21648C10.5271 1.19357 10.4778 1.18229 10.428 1.18371Z" fill="#2386E9"/>
<path d="M10.4397 4.71094C7.52295 4.71094 5.15332 7.08054 5.15332 9.99726C5.15332 12.914 7.52295 15.2865 10.4397 15.2865C13.3564 15.2865 15.726 12.914 15.726 9.99726C15.726 7.08054 13.3564 4.71094 10.4397 4.71094Z" fill="white"/>
<path d="M9.52952 7.05899C9.45688 7.06612 9.3895 7.10004 9.34051 7.15413C9.29151 7.20822 9.2644 7.27861 9.26445 7.35159V8.82206H7.79685C7.71894 8.82176 7.64411 8.85243 7.58881 8.9073C7.53351 8.96218 7.50226 9.03675 7.50195 9.11466V10.8777C7.50226 10.9556 7.53351 11.0302 7.58881 11.0851C7.64411 11.14 7.71894 11.1706 7.79685 11.1703H9.26445V12.6408C9.26461 12.6794 9.27238 12.7176 9.28731 12.7533C9.30225 12.7889 9.32407 12.8212 9.35151 12.8484C9.37896 12.8755 9.41149 12.8971 9.44725 12.9116C9.48301 12.9262 9.5213 12.9336 9.55992 12.9334H11.3201C11.398 12.9337 11.4729 12.903 11.5282 12.8482C11.5835 12.7933 11.6147 12.7187 11.615 12.6408V11.1703H13.0832C13.1611 11.1706 13.2359 11.14 13.2912 11.0851C13.3465 11.0302 13.3778 10.9556 13.3781 10.8777V9.11466C13.3778 9.03675 13.3465 8.96218 13.2912 8.9073C13.2359 8.85243 13.1611 8.82176 13.0832 8.82206H11.615V7.35159C11.6147 7.27368 11.5835 7.19907 11.5282 7.1442C11.4729 7.08933 11.398 7.05869 11.3201 7.05899H9.55992C9.54979 7.05846 9.53964 7.05846 9.52952 7.05899Z" fill="#2386E9"/>
</svg>
