<svg width="14" height="14" viewBox="0 0 14 14" fill="none" xmlns="http://www.w3.org/2000/svg">
<path d="M5.24967 12.8333H10.4997C10.9838 12.8333 11.398 12.5416 11.573 12.1216L13.3347 8.00913C13.3872 7.87496 13.4163 7.73496 13.4163 7.58329V6.41663C13.4163 5.77496 12.8913 5.24996 12.2497 5.24996H8.56884L9.12301 2.58413L9.14051 2.39746C9.14051 2.15829 9.04134 1.93663 8.88384 1.77913L8.26551 1.16663L4.42134 5.01079C4.21134 5.22079 4.08301 5.51246 4.08301 5.83329V11.6666C4.08301 12.3083 4.60801 12.8333 5.24967 12.8333ZM5.24967 5.83329L7.78134 3.30163L6.99967 6.41663H12.2497V7.58329L10.4997 11.6666H5.24967V5.83329ZM0.583008 5.83329H2.91634V12.8333H0.583008V5.83329Z" fill="#00BF18"/>
</svg>
