<svg width="21" height="21" viewBox="0 0 21 21" fill="none" xmlns="http://www.w3.org/2000/svg">
<path d="M19.5727 9.5848C19.5727 7.9532 18.3741 6.59646 16.8112 6.34832V4.47609C16.8112 3.62772 16.2766 3.03516 15.5112 3.03516C15.2867 3.03516 15.0558 3.08779 14.8249 3.19172L7.9006 6.30763H3.86906C2.8233 6.30763 1.97266 7.15841 1.97266 8.20403V10.9654C1.97266 11.6285 2.31506 12.2129 2.83203 12.5521L3.64481 16.6164C3.84327 17.608 4.79074 18.3848 5.80198 18.3848C6.84773 18.3848 7.69838 17.534 7.69838 16.4884V12.8618H7.9006L14.8249 15.9777C15.0558 16.0817 15.2867 16.1343 15.5112 16.1343H15.5113C15.888 16.1343 16.2266 15.9838 16.4644 15.7104C16.6913 15.4498 16.8112 15.0981 16.8112 14.6935V12.8212C18.3741 12.573 19.5727 11.2163 19.5727 9.5848ZM3.00391 8.20403C3.00391 7.72694 3.39197 7.33888 3.86906 7.33888H7.49562V11.8306H3.86906C3.39197 11.8306 3.00391 11.4425 3.00391 10.9654V8.20403ZM6.66713 16.4884C6.66713 16.9654 6.27907 17.3536 5.80198 17.3536C5.29172 17.3536 4.75623 16.9145 4.65605 16.414L3.94573 12.8618H6.66713V16.4884ZM15.78 14.6934C15.78 14.8435 15.7468 14.9642 15.6865 15.0334C15.6605 15.0633 15.614 15.1031 15.5112 15.1031C15.4346 15.1031 15.3437 15.0804 15.2481 15.0373L8.52687 12.0128V7.15667L15.2481 4.13207C15.3437 4.0891 15.4346 4.06641 15.5112 4.06641C15.7333 4.06641 15.7799 4.28917 15.7799 4.47595V14.6934H15.78ZM16.8112 11.7708V7.39863C17.8018 7.63228 18.5414 8.52374 18.5414 9.5848C18.5414 10.6457 17.8018 11.5372 16.8112 11.7708Z" fill="#2B2B2D"/>
</svg>
