<?xml version="1.0" encoding="UTF-8"?>
<svg xmlns="http://www.w3.org/2000/svg" version="1.1" xmlns:xlink="http://www.w3.org/1999/xlink" viewBox="0 0 104.4 71.5">
  <!-- Generator: Adobe Illustrator 29.7.1, SVG Export Plug-In . SVG Version: 2.1.1 Build 8)  -->
  <defs>
    <style>
      .st0 {
        fill: #f5f5f5;
        opacity: .1;
      }

      .st1 {
        fill: #e4e4e4;
        opacity: .3;
      }

      .st2 {
        fill: #f2f2f2;
        opacity: .2;
      }

      .st3 {
        fill: #d1d0d0;
        opacity: .5;
      }

      .st4, .st5 {
        fill: #fff;
      }

      .st6 {
        mask: url(#mask);
      }

      .st7 {
        fill: #c3c3c3;
        opacity: .7;
      }

      .st8 {
        fill: #b6b6b5;
        opacity: .8;
      }

      .st9 {
        fill: #ebebeb;
        opacity: .2;
      }

      .st10 {
        fill: #cacac9;
        opacity: .6;
      }

      .st11 {
        fill: #0cc25a;
      }

      .st5 {
        opacity: 0;
      }

      .st12 {
        fill: #d4d4d3;
        opacity: .5;
      }

      .st13 {
        fill: #d7d7d7;
        opacity: .5;
      }

      .st14 {
        fill: url(#_무제_그라디언트_33);
      }

      .st15 {
        isolation: isolate;
      }

      .st16 {
        fill: #dededd;
        opacity: .4;
      }

      .st17 {
        fill: #fcfcfc;
        opacity: 0;
      }

      .st18 {
        fill: #dbdada;
        opacity: .4;
      }

      .st19 {
        fill: #b3b2b2;
        opacity: .9;
      }

      .st20 {
        fill: #eee;
        opacity: .2;
      }

      .st21 {
        fill: #bdbcbc;
        opacity: .8;
      }

      .st22 {
        fill: #e1e1e1;
        opacity: .3;
      }

      .st23 {
        mix-blend-mode: multiply;
      }

      .st24 {
        fill: #afafaf;
        opacity: .9;
      }

      .st25 {
        fill: #f8f8f8;
        opacity: 0;
      }

      .st26 {
        display: none;
      }

      .st27 {
        fill: #e8e8e8;
        opacity: .3;
      }

      .st28 {
        fill: #a9a8a8;
      }

      .st29 {
        fill: #acacab;
        opacity: 1;
      }

      .st30 {
        fill: #c0c0bf;
        opacity: .7;
      }

      .st31 {
        fill: #cdcdcd;
        opacity: .6;
      }

      .st32 {
        fill: url(#linear-gradient);
      }

      .st33 {
        fill: #b9b9b9;
        opacity: .8;
      }

      .st34 {
        fill: #c7c6c6;
        opacity: .7;
      }

      .st35 {
        filter: url(#luminosity-noclip);
      }
    </style>
    <filter id="luminosity-noclip" x="31.6" y="-6.7" width="99.9" height="83.7" color-interpolation-filters="sRGB" filterUnits="userSpaceOnUse">
      <feFlood flood-color="#fff" result="bg"/>
      <feBlend in="SourceGraphic" in2="bg"/>
    </filter>
    <linearGradient id="linear-gradient" x1="31.2" y1="39.2" x2="131.8" y2="31.1" gradientUnits="userSpaceOnUse">
      <stop offset=".6" stop-color="#fff"/>
      <stop offset="1" stop-color="#000"/>
    </linearGradient>
    <mask id="mask" x="31.6" y="-6.7" width="99.9" height="83.7" maskUnits="userSpaceOnUse">
      <g class="st35">
        <polygon class="st32" points="31.6 77 131.5 63.1 131.5 -6.7 31.6 7.2 31.6 77"/>
      </g>
    </mask>
    <linearGradient id="_무제_그라디언트_33" data-name="무제 그라디언트 33" x1="5.3" y1="45" x2="72.6" y2="73.8" gradientUnits="userSpaceOnUse">
      <stop offset="0" stop-color="#0cc25a"/>
      <stop offset="1" stop-color="#961496"/>
    </linearGradient>
  </defs>
  <g class="st15">
    <g id="_레이어_1" data-name="레이어_1">
      <g>
        <g class="st6">
          <g class="st23">
            <path class="st5" d="M36.2,70.7c0,2.4,85.8-23.8,90.2-34.4,3.1-7.4-56.1-18.8-56.1-18.8l-32.5,29.6s-1.7,21.3-1.6,23.7Z"/>
            <path class="st17" d="M36.3,70.7c0,2.3,82.6-23.2,87.8-34.2,3.2-7.3-53.9-18.4-54.5-18.2-.3.1-31.7,28.7-31.7,28.7,0,0-1.6,21.4-1.6,23.7Z"/>
            <path class="st25" d="M36.4,70.6c0,2.2,79.4-22.5,85.3-33.9,3.3-7.1-51.7-18.1-52.9-17.6-.6.2-30.9,27.9-30.9,27.9,0,0-1.6,21.4-1.5,23.6Z"/>
            <path class="st0" d="M36.4,70.6c0,2.1,76.3-21.8,82.9-33.7,3.5-7-49.5-17.7-51.3-17-.9.3-30.1,27.1-30.1,27.1,0,0-1.5,21.5-1.5,23.6Z"/>
            <path class="st2" d="M36.5,70.5c0,2,73.1-21.2,80.4-33.4,3.6-6.9-47.3-17.3-49.7-16.4-1.2.5-29.3,26.3-29.3,26.3,0,0-1.5,21.5-1.5,23.6Z"/>
            <path class="st20" d="M36.6,70.5c0,1.9,69.9-20.5,78-33.2,3.7-6.8-45.1-16.9-48.1-15.8-1.5.6-28.5,25.4-28.5,25.4,0,0-1.4,21.6-1.4,23.5Z"/>
            <path class="st9" d="M36.6,70.4c0,1.8,66.8-19.9,75.5-32.9,3.8-6.6-42.9-16.6-46.5-15.2-1.8.7-27.7,24.6-27.7,24.6,0,0-1.4,21.7-1.4,23.5Z"/>
            <path class="st27" d="M36.7,70.4c0,1.7,63.6-19.2,73.1-32.7,3.9-6.5-40.7-16.2-44.9-14.5-2.1.8-26.9,23.8-26.9,23.8,0,0-1.4,21.7-1.3,23.4Z"/>
            <path class="st1" d="M36.8,70.4c0,1.6,60.4-18.5,70.6-32.4,4-6.4-38.5-15.8-43.3-13.9-2.4.9-26.1,23-26.1,23,0,0-1.3,21.8-1.3,23.4Z"/>
            <path class="st22" d="M36.9,70.3c0,1.6,57.3-17.9,68.1-32.2,4.1-6.3-36.3-15.4-41.6-13.3-2.7,1-25.3,22.1-25.3,22.1,0,0-1.3,21.8-1.2,23.4Z"/>
            <path class="st16" d="M36.9,70.3c0,1.5,54.1-17.2,65.7-31.9,4.3-6.1-34-15-40-12.7-3,1.1-24.4,21.3-24.4,21.3,0,0-1.2,21.9-1.2,23.3Z"/>
            <path class="st18" d="M37,70.2c0,1.4,50.9-16.6,63.2-31.7,4.4-6-31.8-14.7-38.4-12.1-3.3,1.3-23.6,20.5-23.6,20.5,0,0-1.2,21.9-1.2,23.3Z"/>
            <path class="st13" d="M37.1,70.2c0,1.3,47.8-15.9,60.8-31.4,4.5-5.9-29.6-14.3-36.8-11.5-3.5,1.4-22.8,19.7-22.8,19.7,0,0-1.1,22-1.1,23.3Z"/>
            <path class="st12" d="M37.1,70.1c0,1.2,44.6-15.3,58.3-31.2,4.6-5.8-27.4-13.9-35.2-10.9-3.8,1.5-22,18.8-22,18.8,0,0-1.1,22.1-1.1,23.2Z"/>
            <path class="st3" d="M37.2,70.1c0,1.1,41.4-14.6,55.9-31,4.7-5.6-25.2-13.5-33.6-10.3-4.1,1.6-21.2,18-21.2,18,0,0-1.1,22.1-1,23.2Z"/>
            <path class="st31" d="M37.3,70c0,1,38.3-13.9,53.4-30.7,4.8-5.5-23-13.1-32-9.7-4.4,1.7-20.4,17.2-20.4,17.2,0,0-1,22.2-1,23.2Z"/>
            <path class="st10" d="M37.4,70c0,.9,35.1-13.3,50.9-30.5,4.9-5.4-20.8-12.8-30.4-9-4.7,1.8-19.6,16.4-19.6,16.4,0,0-1,22.2-1,23.1Z"/>
            <path class="st34" d="M37.4,69.9c0,.8,31.9-12.6,48.5-30.2,5.1-5.3-18.6-12.4-28.8-8.4-5,1.9-18.8,15.5-18.8,15.5,0,0-.9,22.3-.9,23.1Z"/>
            <path class="st7" d="M37.5,69.9c0,.7,28.8-12,46-30,5.2-5.1-16.4-12-27.2-7.8-5.3,2.1-18,14.7-18,14.7,0,0-.9,22.3-.9,23.1Z"/>
            <path class="st30" d="M37.6,69.8c0,.6,25.6-11.3,43.6-29.7,5.3-5-14.2-11.6-25.5-7.2-5.6,2.2-17.2,13.9-17.2,13.9,0,0-.8,22.4-.8,23Z"/>
            <path class="st21" d="M37.6,69.8c0,.5,22.4-10.6,41.1-29.5,5.4-4.9-12-11.2-23.9-6.6-5.9,2.3-16.4,13.1-16.4,13.1,0,0-.8,22.5-.8,23Z"/>
            <path class="st33" d="M37.7,69.8c0,.5,19.2-10,38.7-29.2,5.5-4.8-9.7-10.9-22.3-6-6.2,2.4-15.6,12.2-15.6,12.2,0,0-.8,22.5-.7,23Z"/>
            <path class="st8" d="M37.8,69.7c0,.4,16.1-9.3,36.2-29,5.6-4.6-7.5-10.5-20.7-5.4-6.5,2.5-14.8,11.4-14.8,11.4,0,0-.7,22.6-.7,22.9Z"/>
            <path class="st19" d="M37.9,69.7c0,.3,12.9-8.7,33.8-28.7,5.7-4.5-5.3-10.1-19.1-4.8-6.8,2.6-14,10.6-14,10.6,0,0-.7,22.6-.7,22.9Z"/>
            <path class="st24" d="M37.9,69.6c0,.2,9.7-8,31.3-28.5,5.9-4.4-3.1-9.7-17.5-4.1-7.1,2.8-13.2,9.7-13.2,9.7,0,0-.6,22.7-.6,22.9Z"/>
            <path class="st29" d="M38,69.6c0,0,6.6-7.3,28.8-28.2,6-4.3-.9-9.3-15.9-3.5-7.4,2.9-12.4,8.9-12.4,8.9,0,0-.6,22.7-.6,22.8Z"/>
            <path class="st28" d="M38.1,69.5s3.4-6.7,26.4-28c6.1-4.1,1.3-9-14.3-2.9-7.7,3-11.6,8.1-11.6,8.1l-.5,22.8Z"/>
          </g>
        </g>
        <path class="st11" d="M86.9,2.7c.9-1.2.6-2-.8-1.7L8.2,16.1c-2.3.4-4.3,2.7-4.5,5.1L1.2,55.6l75.7-14.7c1.3-.3,2-1.4,1.6-2.5l-5.8-14c-.5-1.1,0-3,.8-4.2l13.4-17.7Z"/>
        <path class="st14" d="M40.6,48l-3.7.7s0,0,0,0l-20.9,4-14.8,2.8,3.1,1.3s31.7,13.2,31.7,13.2c1.7.7,3.2-.4,3.3-2.4l1.4-19.6Z"/>
      </g>
      <g class="st26">
        <path class="st4" d="M40.6,25c-.3,2.7-.6,5.6-.9,8.3-.6,5.1-4.7,8.9-9.4,9.8-4.7.9-8.2-1.3-7.6-6.4.3-2.7.6-5.6.9-8.3.6-5.1,4.8-8.9,9.4-9.8,4.7-.9,8.1,1.3,7.6,6.4ZM34.2,34.2c.3-2.6.6-5.5.9-8,.2-1.9-1-2.6-2.6-2.3-1.7.3-3.1,1.6-3.3,3.5l-.9,8c-.2,1.9.9,2.6,2.7,2.2,1.7-.3,3.1-1.5,3.3-3.4Z"/>
        <path class="st4" d="M46.6,23.4l-4.9,1c.4-4.8,3.6-8.2,8.1-9.1,6.1-1.2,8.4,4.5,4.1,10.9,0,0,.3.2-4.8,7.3l6.9-1.4-.6,5.4-15.7,3.1v-1.3c.1,0,9.3-13.4,9.3-13.4,1.9-2.7,2.7-5.6,0-5.2-1.1.2-2.3,1.1-2.4,2.7Z"/>
      </g>
      <g>
        <path class="st4" d="M40.6,25c-.3,2.7-.6,5.6-.9,8.3-.6,5.1-4.7,8.9-9.4,9.8-4.7.9-8.2-1.3-7.6-6.4.3-2.7.6-5.6.9-8.3.6-5.1,4.8-8.9,9.4-9.8,4.7-.9,8.1,1.3,7.6,6.4ZM34.2,34.2c.3-2.6.6-5.5.9-8,.2-1.9-1-2.6-2.6-2.3-1.7.3-3.1,1.6-3.3,3.5l-.9,8c-.2,1.9.9,2.6,2.7,2.2,1.7-.3,3.1-1.5,3.3-3.4Z"/>
        <path class="st4" d="M45.5,32.5c-.2,1.5.8,2.1,2.3,1.8,1.6-.3,2.6-1.7,2.8-3.3.3-3.6-2.8-2.8-5.4-2v-.8c0,0,4.2-7.6,4.2-7.6l-7,1.4.6-5,14.5-2.9v.9c-.1,0-5.1,8.8-5.1,8.8,2.7.2,3.7,2.1,3.9,4.3.5,5.2-3,10.3-9,11.5-4.4.9-7.4-1.4-7-6l5.2-1Z"/>
      </g>
      <g class="st26">
        <path class="st4" d="M40.6,25c-.3,2.7-.6,5.6-.9,8.3-.6,5.1-4.7,8.9-9.4,9.8-4.7.9-8.2-1.3-7.6-6.4.3-2.7.6-5.6.9-8.3.6-5.1,4.8-8.9,9.4-9.8,4.7-.9,8.1,1.3,7.6,6.4ZM34.2,34.2c.3-2.6.6-5.5.9-8,.2-1.9-1-2.6-2.6-2.3-1.7.3-3.1,1.6-3.3,3.5l-.9,8c-.2,1.9.9,2.6,2.7,2.2,1.7-.3,3.1-1.5,3.3-3.4Z"/>
        <path class="st4" d="M42.4,21.8l.6-4.8,8.8-1.7-2.1,18.8,3.6-.7-.5,4.7-12.9,2.6.5-4.7,3.5-.7,1.5-14-3.1.6Z"/>
      </g>
    </g>
  </g>
</svg>