<svg width="17" height="17" viewBox="0 0 17 17" fill="none" xmlns="http://www.w3.org/2000/svg">
<g clip-path="url(#clip0_602_39368)">
<g clip-path="url(#clip1_602_39368)">
<path d="M15.6122 14.8676H14.6341V7.84639C14.6341 7.52068 14.3665 7.25313 14.035 7.25313H11.9586V2.48389C11.9586 2.15818 11.6911 1.89062 11.3654 1.89062H5.90399C5.57829 1.89062 5.31073 2.15818 5.31073 2.48389V7.25313H3.22853C2.897 7.25313 2.62948 7.52068 2.62948 7.84639V14.8676H1.6534C1.33192 14.8676 1.07178 15.1278 1.07178 15.4492C1.07178 15.7707 1.33192 16.0309 1.6534 16.0309H15.6122C15.9337 16.0309 16.1938 15.7707 16.1938 15.4492C16.1938 15.1278 15.9337 14.8676 15.6122 14.8676ZM10.8477 9.50402C10.8477 9.37022 10.9583 9.25972 11.092 9.25972H11.9877C12.1215 9.25972 12.232 9.37022 12.232 9.50402V10.3997C12.232 10.5335 12.1215 10.644 11.9877 10.644H11.092C10.9583 10.644 10.8477 10.5335 10.8477 10.3997V9.50402ZM6.41582 13.3078C6.41582 13.4416 6.30531 13.5521 6.17151 13.5521H5.27584C5.14207 13.5521 5.03157 13.4416 5.03157 13.3078V12.4121C5.03157 12.2783 5.14207 12.1678 5.27584 12.1678H6.17151C6.30531 12.1678 6.41582 12.2783 6.41582 12.4121V13.3078ZM6.45072 10.423C6.45072 10.5625 6.33438 10.6789 6.1948 10.6789H5.25258C5.11297 10.6789 4.99667 10.5625 4.99667 10.423V9.48073C4.99667 9.34115 5.11297 9.22482 5.25258 9.22482H6.1948C6.33438 9.22482 6.45072 9.34115 6.45072 9.48073V10.423ZM9.3297 13.3136C9.3297 13.4474 9.21919 13.5579 9.08543 13.5579H8.1781C8.04434 13.5579 7.93383 13.4474 7.93383 13.3136V12.4063C7.93383 12.2725 8.04434 12.162 8.1781 12.162H9.08543C9.21919 12.162 9.3297 12.2725 9.3297 12.4063V13.3136ZM9.3297 10.4055C9.3297 10.5393 9.21919 10.6498 9.08543 10.6498H8.1781C8.04434 10.6498 7.93383 10.5393 7.93383 10.4055V9.4982C7.93383 9.3644 8.04434 9.25389 8.1781 9.25389H9.08543C9.21919 9.25389 9.3297 9.3644 9.3297 9.4982V10.4055ZM9.77173 5.39198H9.12614V6.03756C9.12614 6.35745 8.86441 6.61918 8.54453 6.61918C8.22464 6.61918 7.96291 6.35745 7.96291 6.03756V5.39198H7.31732C6.99744 5.39198 6.7357 5.13024 6.7357 4.81036C6.7357 4.49044 6.99744 4.22874 7.31732 4.22874H7.96291V3.58312C7.96291 3.26323 8.22464 3.0015 8.54453 3.0015C8.86441 3.0015 9.12614 3.26323 9.12614 3.58312V4.22874H9.77173C10.0916 4.22874 10.3533 4.49044 10.3533 4.81036C10.3533 5.13024 10.0916 5.39198 9.77173 5.39198ZM12.2669 13.331C12.2669 13.4706 12.1506 13.587 12.011 13.587H11.0688C10.9291 13.587 10.8129 13.4706 10.8129 13.331V12.3888C10.8129 12.2492 10.9291 12.1329 11.0688 12.1329H12.011C12.1506 12.1329 12.2669 12.2492 12.2669 12.3888V13.331Z" fill="#5B93EE"/>
</g>
</g>
<defs>
<clipPath id="clip0_602_39368">
<rect width="16" height="16" fill="white" transform="translate(0.632812 0.960938)"/>
</clipPath>
<clipPath id="clip1_602_39368">
<rect width="16" height="16" fill="white" transform="translate(0.632812 0.960938)"/>
</clipPath>
</defs>
</svg>
