<svg width="21" height="21" viewBox="0 0 21 21" fill="none" xmlns="http://www.w3.org/2000/svg">
<path d="M16.5364 5.3946L13.2772 2.1354C13.1855 2.04372 13.0612 1.99219 12.9316 1.99219H5.76131C4.77289 1.99219 3.96875 2.79633 3.96875 3.78475V16.8867C3.96875 17.8751 4.77289 18.6793 5.76131 18.6793H14.8871C15.8755 18.6793 16.6796 17.8751 16.6796 16.8867V5.74027C16.6796 5.61062 16.6281 5.48628 16.5364 5.3946ZM13.4204 3.66132L15.0105 5.25139H13.4204V3.66132ZM14.8871 17.7015H5.76131C5.31203 17.7015 4.94651 17.336 4.94651 16.8867V3.78475C4.94651 3.33547 5.31203 2.96995 5.76131 2.96995H12.4427V5.74027C12.4427 6.01026 12.6616 6.22915 12.9316 6.22915H15.7019V16.8867C15.7019 17.336 15.3364 17.7015 14.8871 17.7015Z" fill="#2B2B2D"/>
<path d="M7.27344 8.73438H11.2734" stroke="#2B2B2D" stroke-width="1.1" stroke-linecap="round"/>
<path d="M7.27344 11.5352H13.2734" stroke="#2B2B2D" stroke-width="1.1" stroke-linecap="round"/>
<path d="M7.27344 14.3359H13.2734" stroke="#2B2B2D" stroke-width="1.1" stroke-linecap="round"/>
</svg>
