<svg width="32" height="32" viewBox="0 0 32 32" fill="none" xmlns="http://www.w3.org/2000/svg">
<path d="M20.0287 12.8589L23.2577 16.0817C24.2195 17.0435 24.7441 18.3176 24.7441 19.6729C24.7441 21.022 24.2195 22.2961 23.2577 23.2579C22.2958 24.2198 21.0217 24.7444 19.6727 24.7444C18.3173 24.7444 17.0432 24.2198 16.0814 23.2579L12.8524 20.0352L20.0287 12.8589Z" fill="#5381FF"/>
<path d="M8.74238 8.74257C9.70422 7.78074 10.9783 7.2561 12.3274 7.2561C13.6827 7.2561 14.9568 7.78074 15.9187 8.74257L20.0283 12.8585L12.852 20.0348L8.74238 15.9189C7.78679 14.957 7.25591 13.6829 7.25591 12.3276C7.25591 10.9785 7.78679 9.70441 8.74238 8.74257ZM10.31 9.94487C10.4318 10.0673 10.593 10.1291 10.7535 10.1291C10.9128 10.1291 11.072 10.0685 11.1932 9.94799C11.819 9.32717 12.8364 9.32717 13.461 9.94799C13.7064 10.1909 14.1005 10.1891 14.3448 9.94487C14.5877 9.70004 14.5865 9.30469 14.3416 9.06173C13.2305 7.95874 11.4237 7.95937 10.3138 9.06173C10.0683 9.30406 10.0671 9.70004 10.31 9.94487Z" fill="#9FBAFF"/>
<path d="M14.3429 9.05876C14.5877 9.30172 14.5889 9.69707 14.346 9.9419C14.1018 10.1861 13.7077 10.188 13.4622 9.94503C12.8376 9.32483 11.8202 9.3242 11.1944 9.94503C11.0726 10.0656 10.9134 10.1261 10.7547 10.1261C10.5942 10.1261 10.4331 10.0643 10.3113 9.9419C10.0683 9.69707 10.0696 9.30172 10.315 9.05814C11.4249 7.95578 13.2311 7.95578 14.3429 9.05876Z" fill="#9FBAFF"/>
</svg>
