<svg width="24" height="25" viewBox="0 0 24 25" fill="none" xmlns="http://www.w3.org/2000/svg">
<path d="M12 12.5933C10.9 12.5933 10 11.6886 10 10.583C10 9.47727 10.9 8.57261 12 8.57261C13.1 8.57261 14 9.47727 14 10.583C14 11.6886 13.1 12.5933 12 12.5933ZM18 10.784C18 7.13522 15.35 4.55194 12 4.55194C8.65 4.55194 6 7.13522 6 10.784C6 13.1361 7.95 16.2521 12 19.9712C16.05 16.2521 18 13.1361 18 10.784ZM12 2.5416C16.2 2.5416 20 5.77824 20 10.784C20 14.1212 17.33 18.0715 12 22.645C6.67 18.0715 4 14.1212 4 10.784C4 5.77824 7.8 2.5416 12 2.5416Z" fill="black"/>
</svg>
