<?xml version="1.0" encoding="UTF-8"?>
<svg id="_레이어_1" data-name="레이어_1" xmlns="http://www.w3.org/2000/svg" version="1.1" viewBox="0 0 1086.8 207.7">
  <!-- Generator: Adobe Illustrator 29.7.1, SVG Export Plug-In . SVG Version: 2.1.1 Build 8)  -->
  <defs>
    <style>
      .st0 {
        fill: #2561ae;
      }

      .st1 {
        font-family: GimpoTitle, GimpoTitle;
        font-size: 80px;
      }

      .st2 {
        fill: #76a0c7;
      }

      .st3 {
        fill: #2f367e;
      }
    </style>
  </defs>
  <g>
    <path class="st3" d="M726,138.4c0,3.3.4,5.8,1.1,7.3.6,1.1,1.5,1.9,2.8,2.5v2.3h-19.1c-.6-1.5-1-2.6-1.2-3.5-.2-.9-.3-2.1-.5-3.7-3,2.8-5.7,4.8-8.1,6-4.1,2.2-8.7,3.3-13.9,3.3s-10.4-1.5-14.2-4.5c-4.3-3.3-6.5-8.1-6.5-14.2s1.9-10.6,5.7-14.2c3.4-3.3,8.1-5.3,14.1-6.1l16.1-2.2c1.8-.4,3.2-.8,4.2-1.4,1.4-.9,2.2-2,2.2-3.5,0-3.1-1.4-5.2-4.2-6.3-1.7-.7-4.2-1.1-7.5-1.1s-7,1-8.8,2.9c-1.4,1.4-2.1,3.4-2.3,5.9h-17.2c.9-8.8,4.4-14.9,10.6-18.4,4.6-2.5,11.1-3.8,19.7-3.8s12.3,1.1,17.1,3.3c6.7,3.2,10,8.2,10,15.1v34.2ZM708.5,119.8c-.9.7-2.2,1.3-4,1.8-1.9.6-4.5,1.1-8.1,1.6-4.1.7-7,1.6-8.7,2.6-2.4,1.5-3.6,3.8-3.6,7s.9,4.7,2.8,6.1c1.5,1.1,3.4,1.6,5.5,1.6,4.2,0,7.9-1.1,10.9-3.4,3.4-2.4,5-5.4,5-9.1v-8.3Z"/>
    <path class="st3" d="M755.2,88.1v62.4h-17.9v-62.4h17.9Z"/>
    <path class="st3" d="M827.1,150.5h-17.8v-38.2c0-3.5-.6-6.1-1.7-7.9-1.8-3-5-4.5-9.9-4.5s-7.6,1.2-10.2,3.7c-2.7,2.6-4.1,6.2-4.1,10.9v36h-17.8v-62.9h17.2v9.3h.1c2-3.1,4.1-5.4,6.4-7,3.9-2.7,8.5-4,14.1-4s12.6,1.8,16.8,5.3c4.6,3.8,6.9,9.1,6.9,15.9v43.4Z"/>
    <path class="st3" d="M855.5,150.5h-17.9v-85.4h17.9v85.4Z"/>
    <rect class="st2" x="550.1" y="65.1" width="17.9" height="85.4"/>
    <path class="st3" d="M883.9,88.1v62.4h-17.9v-62.4h17.9Z"/>
    <path class="st3" d="M955.8,150.5h-17.8v-38.2c0-3.5-.6-6.1-1.7-7.9-1.8-3-5-4.5-9.9-4.5s-7.6,1.2-10.2,3.7c-2.7,2.6-4.1,6.2-4.1,10.9v36h-17.8v-62.9h17.2v9.3h.1c2-3.1,4.1-5.4,6.4-7,3.9-2.7,8.5-4,14.1-4s12.6,1.8,16.8,5.3c4.6,3.8,6.9,9.1,6.9,15.9v43.4Z"/>
    <path class="st3" d="M1023.9,132.2c-2.2,7-6.3,12.2-12.3,15.8-5,3-10.7,4.6-17.2,4.6-10.2,0-18.1-2.5-23.8-7.6-6.4-5.9-9.6-14.9-9.6-27.1,0-7.1,1.6-13.4,5.1-18.9,5.5-8.7,14.5-13.1,27.1-13.1s15.3,2.2,20.7,6.5c7.1,5.9,10.7,15.2,10.7,28.1v3.3h-45.7v.4c.6,4.1,1.7,7.3,3.1,9.4,2.5,3.8,6.7,5.7,12.5,5.7s4.8-.6,6.9-1.9c2.2-1.3,3.7-3,4.6-5.1h18ZM1006.5,112.7c-.5-4.6-2.2-8-5.1-10.3-2.4-1.8-5.2-2.7-8.4-2.7s-7.1,1.2-9.4,3.5c-2.2,2.3-3.6,5.4-4.1,9.6h26.9Z"/>
    <g>
      <rect class="st3" x="953.4" y="65.1" width="70.3" height="13.9"/>
      <rect class="st0" x="892.9" y="65.1" width="60.5" height="13.9"/>
      <rect class="st2" x="866" y="65.1" width="27" height="13.9"/>
    </g>
    <polygon class="st3" points="629.1 65.1 613 129.7 612.9 129.7 596.2 65.1 568 65.1 568 150.5 585.9 150.5 585.9 84.2 586.3 84.2 603.1 150.5 621.6 150.5 638.8 84.2 638.8 150.5 656.8 150.5 656.8 107.9 656.8 92.1 656.8 65.1 629.1 65.1"/>
  </g>
  <text class="st1" transform="translate(53.5 142)"><tspan x="0" y="0">powered by</tspan></text>
</svg>