<svg width="41" height="41" viewBox="0 0 41 41" fill="none" xmlns="http://www.w3.org/2000/svg">
<g clip-path="url(#clip0_355_36971)">
<path d="M13.0526 14.3614H9.513V5.29004C9.513 4.94216 9.795 4.66016 10.1429 4.66016H12.4228C12.7706 4.66016 13.0526 4.94216 13.0526 5.29004V14.3614Z" fill="#8AAADC"/>
<path d="M19.6378 4.66016H16.2037C14.466 4.66016 13.0573 6.06883 13.0573 7.8065V14.3614H15.9415V7.93765C15.9415 7.72046 16.1176 7.54434 16.3348 7.54434H19.6379C19.9857 7.54434 20.2677 7.26234 20.2677 6.91446V5.29004C20.2677 4.94216 19.9857 4.66016 19.6378 4.66016Z" fill="#F47C7C"/>
<path d="M29.636 20.7885C29.636 14.9955 25.2339 10.9561 19.8036 10.9561C19.1187 10.9561 18.4501 11.0263 17.8047 11.1596V30.2629H30.3874C29.0137 24.9617 29.636 23.1161 29.636 20.7885Z" fill="#EE6161"/>
<path d="M15.9415 9.18652C14.9368 9.2936 13.97 9.52906 13.0573 9.87556V14.3638H15.9415V9.18652Z" fill="#EE6161"/>
<path d="M30.3449 30.2143C26.9429 26.7923 27.0189 20.7885 27.0189 20.7885C27.0189 15.3582 22.6168 10.9561 17.1865 10.9561C11.7562 10.9561 7.35419 15.3582 7.35419 20.7885C7.35419 24.3136 8.53201 27.2103 10.1516 29.527C13.4097 34.1878 18.7825 36.9135 24.4693 36.9135H27.5387C29.7134 36.9135 31.4763 35.1505 31.4763 32.9758C31.4763 31.9425 31.0735 30.9471 30.3449 30.2143Z" fill="#F47C7C"/>
<path d="M13.0526 9.875C12.8259 9.96111 12.6024 10.054 12.3826 10.1536C12.2379 10.2191 12.0817 10.2554 11.9228 10.2554H11.3892C10.7416 10.2554 10.1086 10.3653 9.513 10.5734V14.3636H13.0526V9.875Z" fill="#7398D4"/>
<path d="M29.2263 16.2912H28.7749L28.5678 16.6924L25.5055 22.6259L25.2464 23.128L25.662 23.5109L27.5035 25.2068L25.4669 30.8612L24.5549 33.3932L26.6344 31.6849L35.125 24.7102L35.8279 24.1328L35.1202 23.5611L33.4213 22.1889L37.7063 17.5341L38.8505 16.2912H37.1611H29.2263Z" fill="#FFB300" stroke="white" stroke-width="1.48209"/>
<path d="M5.77344 20.7875C5.77344 21.5894 5.82874 22.3791 5.93903 23.1556C6.18003 24.8521 8.18067 25.6561 9.51509 24.5812C11.025 23.3649 12.657 22.647 13.8611 22.2402C14.9409 21.8754 15.6713 20.8675 15.6713 19.7278V14.7396C15.6713 13.2767 14.4855 12.0908 13.0226 12.0908H11.3859C10.2536 12.0908 9.1781 12.5897 8.4492 13.4562C6.78025 15.4399 5.77344 17.9982 5.77344 20.7875Z" fill="#FFC4C8"/>
</g>
<defs>
<clipPath id="clip0_355_36971">
<rect width="32.2502" height="32.2502" fill="white" transform="translate(4.20703 4.66406)"/>
</clipPath>
</defs>
</svg>
