<svg width="375" height="504" viewBox="0 0 375 504" fill="none" xmlns="http://www.w3.org/2000/svg">
<g filter="url(#filter0_d_721_60994)">
<path d="M192.899 110.082H240.686H288.473" stroke="#BEBEC7"/>
</g>
<g filter="url(#filter1_d_721_60994)">
<path d="M267 68C267 61.3726 272.373 56 279 56H343C349.627 56 355 61.3726 355 68V168C355 174.627 349.627 180 343 180H279C272.373 180 267 174.627 267 168V68Z" fill="white" shape-rendering="crispEdges"/>
<path d="M343 55.5H279C272.096 55.5 266.5 61.0964 266.5 68V168C266.5 174.904 272.096 180.5 279 180.5H343C349.904 180.5 355.5 174.904 355.5 168V68C355.5 61.0964 349.904 55.5 343 55.5Z" stroke="#EFEFF4" shape-rendering="crispEdges"/>
<g clip-path="url(#clip0_721_60994)">
<mask id="mask0_721_60994" style="mask-type:alpha" maskUnits="userSpaceOnUse" x="292" y="69" width="37" height="38">
<path d="M313.52 73.2131L314.962 70.4408V69.293H299.864L295.202 77.9289L292.986 93.2901L300.552 103.607L302.691 106.97H311.404L324.396 106.435V97.3406L328.065 89.6218L327.229 79.826L323.866 74.0248L312.411 83.4472L315.441 75.0225L313.52 73.2131Z" fill="#C2C2C2"/>
</mask>
<g mask="url(#mask0_721_60994)">
<path fill-rule="evenodd" clip-rule="evenodd" d="M304.999 106.278H322.418C322.76 106.278 322.96 105.889 322.761 105.611C321.84 104.322 320.882 94.5089 324.858 90.8014C327.939 87.9294 327.231 78.2767 322.031 73.7626C315.964 68.4956 306.089 69.368 300.979 75.2234C298.466 78.102 297.422 81.8064 297.955 85.9445C297.697 86.4654 296.598 88.6526 295.813 89.644C294.647 91.1168 295.423 92.1855 297.063 92.1694L298.181 92.1477L297.927 95.3554C297.771 97.3259 298.831 99.787 301.109 99.721L304.577 99.7216L304.577 105.856C304.577 106.089 304.767 106.278 304.999 106.278Z" fill="url(#paint0_linear_721_60994)"/>
<path fill-rule="evenodd" clip-rule="evenodd" d="M304.999 106.278H322.418C322.76 106.278 322.96 105.889 322.761 105.611C321.84 104.322 320.882 94.5089 324.858 90.8014C327.939 87.9294 327.231 78.2767 322.031 73.7626C315.964 68.4956 306.089 69.368 300.979 75.2234C298.466 78.102 297.422 81.8064 297.955 85.9445C297.697 86.4654 296.598 88.6526 295.813 89.644C294.647 91.1168 295.423 92.1855 297.063 92.1694L298.181 92.1477L297.927 95.3554C297.771 97.3259 298.831 99.787 301.109 99.721L304.577 99.7216L304.577 105.856C304.577 106.089 304.767 106.278 304.999 106.278Z" fill="url(#paint1_linear_721_60994)"/>
<path fill-rule="evenodd" clip-rule="evenodd" d="M311.819 91.019C312.173 90.7198 312.456 90.3312 312.634 89.8757L312.663 76.1174C312.663 75.8431 312.321 75.5518 311.819 75.3623V91.0188L311.819 91.019Z" fill="#FFB8BE"/>
<path fill-rule="evenodd" clip-rule="evenodd" d="M315.922 91.3152C317.044 91.3152 318.069 90.7174 318.626 89.7645C320.828 90.0068 322.486 87.8893 321.812 85.8487C323.013 84.7031 322.95 82.7753 321.681 81.7091C322.279 80.4589 321.855 78.9477 320.689 78.1881C321.209 76.3526 319.748 74.5324 317.834 74.6619C316.804 72.719 314.441 72.9515 313.437 73.5855C312.435 72.951 310.071 72.718 309.04 74.6614C307.108 74.5378 305.668 76.3644 306.186 78.1876C305.02 78.9474 304.595 80.4582 305.194 81.7087C303.924 82.7748 303.861 84.7036 305.062 85.8482C304.388 87.8888 306.043 90.0042 308.248 89.764C309.371 91.6863 312.097 91.8483 313.437 90.0929C314.018 90.8543 314.925 91.3152 315.923 91.3152H315.922Z" fill="url(#paint2_linear_721_60994)"/>
<path fill-rule="evenodd" clip-rule="evenodd" d="M313.908 73.3684C313.734 73.4341 313.577 73.5109 313.444 73.5949C313.312 73.5109 313.155 73.4341 312.981 73.3682C312.983 74.9437 312.968 90.3849 313.033 90.5443C313.183 90.4113 313.321 90.2635 313.444 90.102C313.582 90.2821 313.737 90.4455 313.908 90.5898V73.3682V73.3684Z" fill="#F76573"/>
<path fill-rule="evenodd" clip-rule="evenodd" d="M318.349 90.1719C318.452 90.0459 318.546 89.9113 318.629 89.7688C318.835 89.7915 319.036 89.7934 319.231 89.7769C319.254 89.1306 318.862 88.2761 317.956 87.9699C318 87.4624 317.758 87.03 317.323 87.1591C316.661 87.3549 317.361 88.1222 316.693 88.3204C315.908 88.5532 316.606 89.8753 317.579 88.8275C318.409 89.0208 318.265 89.8393 318.349 90.1721V90.1719ZM321.967 86.7847C321.967 86.4782 321.919 86.1646 321.816 85.853C321.852 85.8179 321.888 85.7822 321.922 85.7457C321.058 85.7891 321.139 86.0542 320.756 85.8678C321.245 85.396 320.553 84.7589 320.128 85.1839C319.797 85.5146 319.517 84.729 319.062 85.1839C318.698 85.5482 319.088 86.0379 319.647 86.1651C319.918 86.5172 320.45 86.83 321.023 86.83C321.197 86.83 321.61 86.8137 321.967 86.785V86.7847ZM322.552 83.0151C322.421 82.5944 322.189 82.1994 321.856 81.8698L320.849 81.6563C320.734 81.2098 320.421 80.9216 320.06 81.13C319.438 81.4897 320.397 82.1502 319.676 82.5668C319.142 82.8747 319.616 83.6765 320.139 83.3704C320.468 83.1792 320.675 82.9086 320.788 82.6194C321.203 82.4544 322.203 83.1818 322.552 83.0151ZM321.333 78.7702C321.155 78.55 320.94 78.3541 320.692 78.1924C320.709 78.1311 320.724 78.0698 320.737 78.0088C320.718 78.0315 320.701 78.0568 320.684 78.0854C320.439 78.5094 319.395 79.1859 318.907 79.0329C318.614 78.5913 318.166 78.2146 317.543 78.0492C316.951 77.8923 316.713 78.7881 317.302 78.9461C318.089 79.1569 318.558 79.9691 318.347 80.7563C318.149 81.4983 319.605 81.7703 319.312 80.0548C319.901 80.0434 320.88 79.3339 321.333 78.7702Z" fill="#F76573"/>
<path fill-rule="evenodd" clip-rule="evenodd" d="M306.105 78.253C305.845 78.4365 305.624 78.6591 305.447 78.9074C305.947 79.4185 306.755 79.9573 307.267 79.9673C306.975 81.6828 308.431 81.4108 308.232 80.6689C308.021 79.8819 308.49 79.0694 309.277 78.8587C309.866 78.7006 309.628 77.8048 309.037 77.9617C308.413 78.1272 307.965 78.5036 307.672 78.9455C307.275 79.0701 306.508 78.6443 306.105 78.253ZM305.169 81.6543C305.178 81.6749 305.188 81.6958 305.198 81.7165C304.8 82.0504 304.521 82.4691 304.362 82.9219C304.765 82.7952 305.508 82.4197 305.791 82.5324C305.911 82.8376 306.3 83.3463 306.671 83.3463C307.142 83.3463 307.314 82.7167 306.904 82.48C306.182 82.0634 307.141 81.4029 306.519 81.0432C306.158 80.8348 305.845 81.1228 305.73 81.5696L305.169 81.6547V81.6543ZM304.89 85.6722C304.946 85.7353 305.004 85.7968 305.066 85.8562C304.971 86.1447 304.922 86.4343 304.915 86.7189C305.179 86.7344 305.43 86.743 305.556 86.743C306.129 86.743 306.662 86.4302 306.932 86.0781C307.492 85.9509 307.882 85.4612 307.517 85.0969C307.062 84.642 306.782 85.4276 306.451 85.0969C306.026 84.672 305.334 85.309 305.823 85.7808C305.452 85.9618 305.4 85.7089 304.89 85.6724L304.89 85.6722ZM307.35 89.7384C307.636 89.7925 307.939 89.8062 308.253 89.7721L308.27 89.8013C308.308 89.3432 308.395 88.8813 309 88.7405C309.973 89.7883 310.672 88.4662 309.886 88.2334C309.218 88.0352 309.918 87.268 309.257 87.0721C308.821 86.9431 308.579 87.3754 308.623 87.883C307.684 88.2 307.321 89.0524 307.35 89.7384Z" fill="#F76573"/>
</g>
</g>
<path d="M317.561 68.0967H324.091L320.124 72.4055L322.028 73.9434L315.042 79.6825L316.855 74.6489L315.042 72.9791L317.561 68.0967Z" fill="url(#paint3_linear_721_60994)"/>
<path d="M303.091 123.062V136.304H301.479V123.062H303.091ZM292.06 132.231C293.166 132.231 294.404 132.231 295.679 132.202V129.609H293.027V124.277H294.668V128.291H299.985V129.609H297.319V132.144C298.462 132.1 299.597 132.012 300.674 131.88L300.776 133.081C297.861 133.564 294.756 133.594 292.236 133.564L292.06 132.231ZM311.784 127.28V128.643H317.028V129.932H304.958V128.643H310.172V127.28H311.784ZM315.519 130.737V134.019H307.99V134.941H315.885V136.187H306.393V132.847H313.922V131.953H306.378V130.737H315.519ZM315.944 123.442V124.731H312.15C312.458 125.735 314.047 126.57 316.457 126.768L315.944 127.998C313.498 127.793 311.688 126.899 310.993 125.581C310.304 126.899 308.488 127.793 306.056 127.998L305.514 126.768C307.909 126.57 309.499 125.728 309.821 124.731H306.056V123.442H315.944ZM329.954 129.141V130.459H324.71V131.558C327.083 131.719 328.475 132.539 328.489 133.916C328.475 135.439 326.761 136.289 323.904 136.289C321.019 136.289 319.29 135.439 319.29 133.916C319.29 132.539 320.696 131.711 323.099 131.558V130.459H317.884V129.141H329.954ZM323.904 132.788C321.971 132.803 320.931 133.184 320.945 133.916C320.931 134.648 321.971 135.044 323.904 135.044C325.794 135.044 326.849 134.648 326.863 133.916C326.849 133.184 325.794 132.803 323.904 132.788ZM328.87 123.647V124.951H325.062C325.318 126.042 326.9 127.024 329.383 127.251L328.812 128.54C326.409 128.298 324.622 127.339 323.904 125.991C323.187 127.332 321.429 128.298 319.026 128.54L318.47 127.251C320.901 127.024 322.483 126.028 322.762 124.951H318.983V123.647H328.87Z" fill="#1D1D1E"/>
</g>
<defs>
<filter id="filter0_d_721_60994" x="190.899" y="109.582" width="99.5732" height="5" filterUnits="userSpaceOnUse" color-interpolation-filters="sRGB">
<feFlood flood-opacity="0" result="BackgroundImageFix"/>
<feColorMatrix in="SourceAlpha" type="matrix" values="0 0 0 0 0 0 0 0 0 0 0 0 0 0 0 0 0 0 127 0" result="hardAlpha"/>
<feOffset dy="2"/>
<feGaussianBlur stdDeviation="1"/>
<feComposite in2="hardAlpha" operator="out"/>
<feColorMatrix type="matrix" values="0 0 0 0 0 0 0 0 0 0 0 0 0 0 0 0 0 0 0.1 0"/>
<feBlend mode="normal" in2="BackgroundImageFix" result="effect1_dropShadow_721_60994"/>
<feBlend mode="normal" in="SourceGraphic" in2="effect1_dropShadow_721_60994" result="shape"/>
</filter>
<filter id="filter1_d_721_60994" x="261" y="51" width="100" height="136" filterUnits="userSpaceOnUse" color-interpolation-filters="sRGB">
<feFlood flood-opacity="0" result="BackgroundImageFix"/>
<feColorMatrix in="SourceAlpha" type="matrix" values="0 0 0 0 0 0 0 0 0 0 0 0 0 0 0 0 0 0 127 0" result="hardAlpha"/>
<feOffset dy="1"/>
<feGaussianBlur stdDeviation="2.5"/>
<feComposite in2="hardAlpha" operator="out"/>
<feColorMatrix type="matrix" values="0 0 0 0 0 0 0 0 0 0 0 0 0 0 0 0 0 0 0.08 0"/>
<feBlend mode="normal" in2="BackgroundImageFix" result="effect1_dropShadow_721_60994"/>
<feBlend mode="normal" in="SourceGraphic" in2="effect1_dropShadow_721_60994" result="shape"/>
</filter>
<linearGradient id="paint0_linear_721_60994" x1="310.973" y1="106.278" x2="310.973" y2="70.2764" gradientUnits="userSpaceOnUse">
<stop stop-color="#FFD2BE"/>
<stop offset="1" stop-color="#FFDED0"/>
</linearGradient>
<linearGradient id="paint1_linear_721_60994" x1="310.973" y1="106.278" x2="310.973" y2="70.2764" gradientUnits="userSpaceOnUse">
<stop stop-color="#FBBCA1"/>
<stop offset="1" stop-color="#FFCCB6"/>
</linearGradient>
<linearGradient id="paint2_linear_721_60994" x1="313.437" y1="91.3152" x2="313.437" y2="73.1299" gradientUnits="userSpaceOnUse">
<stop stop-color="#F48993"/>
<stop offset="1" stop-color="#FF949E"/>
</linearGradient>
<linearGradient id="paint3_linear_721_60994" x1="319.566" y1="68.0967" x2="319.566" y2="79.6825" gradientUnits="userSpaceOnUse">
<stop stop-color="#FFA125"/>
<stop offset="1" stop-color="#FFB84D"/>
</linearGradient>
<clipPath id="clip0_721_60994">
<rect width="37.3596" height="37.3596" fill="white" transform="translate(291.885 68.8945)"/>
</clipPath>
</defs>
</svg>
