<svg width="375" height="504" viewBox="0 0 375 504" fill="none" xmlns="http://www.w3.org/2000/svg">
<g filter="url(#filter0_d_727_57372)">
<path d="M127.885 253.463H68.8121C66.6029 253.463 64.8121 255.254 64.8121 257.463L64.8115 350.227" stroke="#BEBEC7"/>
</g>
<g filter="url(#filter1_d_727_57372)">
<path d="M20 292.5C20 285.873 25.3726 280.5 32 280.5H96C102.627 280.5 108 285.873 108 292.5V392.5C108 399.127 102.627 404.5 96 404.5H32C25.3726 404.5 20 399.127 20 392.5V292.5Z" fill="white" shape-rendering="crispEdges"/>
<path d="M96 280H32C25.0964 280 19.5 285.596 19.5 292.5V392.5C19.5 399.404 25.0964 405 32 405H96C102.904 405 108.5 399.404 108.5 392.5V292.5C108.5 285.596 102.904 280 96 280Z" stroke="#EFEFF4" shape-rendering="crispEdges"/>
<path d="M74.0839 317.183L64.0418 332.76C55.079 332.76 47.7874 325.507 47.7874 316.591C47.7874 312.886 50.3999 307.695 55.5522 301.162C59.3034 296.407 62.992 292.732 63.1469 292.578C63.3941 292.332 63.7184 292.209 64.0418 292.209L74.0839 317.183Z" fill="url(#paint0_linear_727_57372)"/>
<path d="M80.2122 316.591C80.2122 325.507 72.9587 332.76 64.0425 332.76V292.209C64.3676 292.209 64.6918 292.333 64.9399 292.581C65.0939 292.735 68.7622 296.41 72.4914 301.165C77.6149 307.697 80.2122 312.887 80.2122 316.591Z" fill="url(#paint1_linear_727_57372)"/>
<path d="M66.8345 319.612L64.0408 324.631C63.8647 324.631 63.6895 324.594 63.5252 324.521L57.4298 321.812C56.971 321.608 56.6755 321.154 56.6755 320.652V313.202C56.6755 312.993 56.7263 312.793 56.8211 312.613L63.9985 315.981L64.0408 315.962L66.8345 319.612Z" fill="#EBE4F0"/>
<path d="M71.4065 313.207V320.657C71.4065 321.159 71.1111 321.614 70.6522 321.818L64.5568 324.527C64.3926 324.6 64.2173 324.636 64.0413 324.636V315.967L71.244 312.587C71.349 312.774 71.4065 312.987 71.4065 313.207Z" fill="#CDCDE4"/>
<path d="M66.7499 312.965L64.0408 317.19C63.8647 317.19 63.6895 317.154 63.5252 317.081L57.4298 314.372C56.971 314.168 56.6755 313.713 56.6755 313.211C56.6755 312.709 56.971 312.255 57.4298 312.051L63.5252 309.342C63.6895 309.269 63.8647 309.232 64.0408 309.232L66.7499 312.965Z" fill="#FDF3F3"/>
<path d="M71.4065 313.211C71.4065 313.713 71.1111 314.168 70.6522 314.372L64.5568 317.081C64.3926 317.154 64.2173 317.19 64.0413 317.19V309.232C64.2173 309.232 64.3926 309.269 64.5568 309.342L70.6522 312.051C71.1111 312.255 71.4065 312.709 71.4065 313.211Z" fill="#FDF3F3"/>
<path d="M61.9533 347.562V350.813H63.7844V352.146H61.9533V355.296H60.3127V347.562H61.9533ZM57.632 355.545C60.342 355.545 62.0559 356.512 62.0705 358.152C62.0559 359.822 60.342 360.789 57.632 360.789C54.8928 360.789 53.1496 359.822 53.1496 358.152C53.1496 356.512 54.8928 355.545 57.632 355.545ZM57.632 356.849C55.8156 356.849 54.7463 357.303 54.7609 358.152C54.7463 359.017 55.8156 359.485 57.632 359.485C59.4191 359.485 60.4885 359.017 60.4885 358.152C60.4885 357.303 59.4191 356.849 57.632 356.849ZM57.9396 348.499V349.817H53.6184V353.143C56.1525 353.135 57.5661 353.062 59.1262 352.732L59.2873 354.036C57.5734 354.402 56.0061 354.461 53.0764 354.461H52.007V348.499H57.9396ZM75.1727 353.421V354.739H73.3709V357.801H76.5203V359.119H64.4207V357.801H67.5848V354.739H65.7977V348.704H67.4236V353.421H75.1727ZM69.1961 357.801H71.7449V354.739H69.1961V357.801Z" fill="#1D1D1E"/>
</g>
<defs>
<filter id="filter0_d_727_57372" x="62.3115" y="252.963" width="67.5732" height="101.264" filterUnits="userSpaceOnUse" color-interpolation-filters="sRGB">
<feFlood flood-opacity="0" result="BackgroundImageFix"/>
<feColorMatrix in="SourceAlpha" type="matrix" values="0 0 0 0 0 0 0 0 0 0 0 0 0 0 0 0 0 0 127 0" result="hardAlpha"/>
<feOffset dy="2"/>
<feGaussianBlur stdDeviation="1"/>
<feComposite in2="hardAlpha" operator="out"/>
<feColorMatrix type="matrix" values="0 0 0 0 0 0 0 0 0 0 0 0 0 0 0 0 0 0 0.1 0"/>
<feBlend mode="normal" in2="BackgroundImageFix" result="effect1_dropShadow_727_57372"/>
<feBlend mode="normal" in="SourceGraphic" in2="effect1_dropShadow_727_57372" result="shape"/>
</filter>
<filter id="filter1_d_727_57372" x="14" y="275.5" width="100" height="136" filterUnits="userSpaceOnUse" color-interpolation-filters="sRGB">
<feFlood flood-opacity="0" result="BackgroundImageFix"/>
<feColorMatrix in="SourceAlpha" type="matrix" values="0 0 0 0 0 0 0 0 0 0 0 0 0 0 0 0 0 0 127 0" result="hardAlpha"/>
<feOffset dy="1"/>
<feGaussianBlur stdDeviation="2.5"/>
<feComposite in2="hardAlpha" operator="out"/>
<feColorMatrix type="matrix" values="0 0 0 0 0 0 0 0 0 0 0 0 0 0 0 0 0 0 0.08 0"/>
<feBlend mode="normal" in2="BackgroundImageFix" result="effect1_dropShadow_727_57372"/>
<feBlend mode="normal" in="SourceGraphic" in2="effect1_dropShadow_727_57372" result="shape"/>
</filter>
<linearGradient id="paint0_linear_727_57372" x1="60.9356" y1="292.209" x2="60.9356" y2="332.76" gradientUnits="userSpaceOnUse">
<stop stop-color="#F4677C"/>
<stop offset="1" stop-color="#FF5554"/>
</linearGradient>
<linearGradient id="paint1_linear_727_57372" x1="72.1274" y1="292.209" x2="72.1274" y2="332.76" gradientUnits="userSpaceOnUse">
<stop stop-color="#F4677C"/>
<stop offset="1" stop-color="#FF5554"/>
</linearGradient>
</defs>
</svg>
