<svg width="41" height="41" viewBox="0 0 41 41" fill="none" xmlns="http://www.w3.org/2000/svg">
<g clip-path="url(#clip0_355_36729)">
<path d="M29.0623 25.0007L20.6536 38.044C13.1488 38.044 7.04321 31.9703 7.04321 24.5045C7.04321 21.4024 9.2308 17.0556 13.545 11.5859C16.686 7.60418 19.7746 4.52695 19.9043 4.39794C20.1113 4.19165 20.3828 4.08887 20.6536 4.08887L29.0623 25.0007Z" fill="#FD8F7E"/>
<path d="M34.1932 24.5045C34.1932 31.9703 28.1196 38.044 20.6537 38.044V4.08887C20.9259 4.08887 21.1974 4.19236 21.4051 4.40006C21.5341 4.52908 24.6057 7.60631 27.7283 11.5881C32.0184 17.0577 34.1932 21.4031 34.1932 24.5045Z" fill="#F4677C"/>
<path d="M22.993 27.037L20.6537 31.2392C20.5062 31.2392 20.3595 31.2088 20.222 31.1478L15.1181 28.8794C14.7338 28.7086 14.4865 28.3279 14.4865 27.9075V21.6694C14.4865 21.495 14.529 21.327 14.6084 21.1768L20.6182 23.9967L20.6537 23.9804L22.993 27.037Z" fill="#EBE4F0"/>
<path d="M26.8209 21.669V27.9071C26.8209 28.3275 26.5735 28.7081 26.1893 28.879L21.0854 31.1474C20.9479 31.2083 20.8011 31.2388 20.6537 31.2388V23.98L26.6848 21.1494C26.7727 21.3061 26.8209 21.484 26.8209 21.669Z" fill="#CDCDE4"/>
<path d="M22.9221 21.4623L20.6537 25.0003C20.5062 25.0003 20.3595 24.9699 20.222 24.9089L15.1181 22.6405C14.7338 22.4697 14.4865 22.089 14.4865 21.6686C14.4865 21.2483 14.7338 20.8676 15.1181 20.6968L20.222 18.4284C20.3595 18.3674 20.5062 18.3369 20.6537 18.3369L22.9221 21.4623Z" fill="#FDF3F3"/>
<path d="M26.8209 21.6686C26.8209 22.089 26.5735 22.4697 26.1893 22.6405L21.0854 24.9089C20.9479 24.9699 20.8011 25.0003 20.6537 25.0003V18.3369C20.8011 18.3369 20.9479 18.3674 21.0854 18.4284L26.1893 20.6968C26.5735 20.8676 26.8209 21.2483 26.8209 21.6686Z" fill="#EBE4F0"/>
</g>
<defs>
<clipPath id="clip0_355_36729">
<rect width="40" height="40" fill="white" transform="translate(0.333313 0.790039)"/>
</clipPath>
</defs>
</svg>
