<svg width="40" height="41" viewBox="0 0 40 41" fill="none" xmlns="http://www.w3.org/2000/svg">
<g clip-path="url(#clip0_355_36669)">
<g clip-path="url(#clip1_355_36669)">
<path fill-rule="evenodd" clip-rule="evenodd" d="M14.166 38.5535H31.1003C31.433 38.5535 31.6272 38.1753 31.4342 37.9049C30.5389 36.6516 29.6072 27.1112 33.4733 23.5067C36.4682 20.7144 35.7804 11.3299 30.7247 6.94119C24.8257 1.82043 15.2252 2.66859 10.2569 8.36142C7.81431 11.16 6.79857 14.7615 7.31731 18.7847C7.06686 19.2911 5.998 21.4176 5.23496 22.3814C4.10086 23.8133 4.85549 24.8523 6.45028 24.8367L7.5374 24.8155L7.29044 27.9341C7.13865 29.8499 8.16937 32.2426 10.3834 32.1784L13.7557 32.1791L13.7555 38.1433C13.7557 38.3697 13.9395 38.5535 14.166 38.5535Z" fill="#FFDED0"/>
<path fill-rule="evenodd" clip-rule="evenodd" d="M20.7966 23.7149C21.1408 23.4241 21.4156 23.0463 21.5885 22.6034L21.6166 9.22728C21.6166 8.96063 21.2846 8.67736 20.7964 8.49316V23.7147L20.7966 23.7149Z" fill="#FFB8BE"/>
<path fill-rule="evenodd" clip-rule="evenodd" d="M24.7859 24.0103C25.8761 24.0103 26.873 23.429 27.4145 22.5026C29.5548 22.7382 31.1674 20.6795 30.5121 18.6956C31.6796 17.5819 31.6186 15.7075 30.3844 14.671C30.9657 13.4555 30.5537 11.9862 29.4196 11.2478C29.9253 9.46326 28.5052 7.69365 26.6442 7.81955C25.6426 5.93058 23.3455 6.15666 22.3699 6.77308C21.3949 6.15621 19.0969 5.92968 18.0951 7.8191C16.2165 7.69884 14.8167 9.47477 15.3196 11.2473C14.1861 11.986 13.7734 13.4549 14.3553 14.6706C13.1206 15.7071 13.0599 17.5823 14.2271 18.6951C13.5721 20.6791 15.1813 22.7357 17.325 22.5022C18.4162 24.371 21.0666 24.5285 22.3696 22.8219C22.9348 23.5622 23.8161 24.0103 24.7861 24.0103H24.7859Z" fill="#F7A3AB"/>
<path fill-rule="evenodd" clip-rule="evenodd" d="M22.8286 6.55296C22.6592 6.61681 22.5069 6.6915 22.3776 6.77317C22.2485 6.6915 22.096 6.61681 21.9268 6.55273C21.9295 8.08453 21.9148 23.0968 21.9773 23.2518C22.1235 23.1225 22.2575 22.9788 22.3774 22.8217C22.5112 22.9968 22.6626 23.1557 22.8286 23.296V6.55273V6.55296Z" fill="#F08B95"/>
<path fill-rule="evenodd" clip-rule="evenodd" d="M27.1454 22.8946C27.2455 22.772 27.3369 22.6412 27.4179 22.5026C27.6181 22.5248 27.8132 22.5266 28.0028 22.5105C28.0255 21.8822 27.6442 21.0514 26.7629 20.7538C26.8058 20.2603 26.5711 19.84 26.1474 19.9654C25.5041 20.1559 26.1849 20.9018 25.535 21.0945C24.7717 21.3208 25.4509 22.6062 26.3969 21.5875C27.204 21.7754 27.0632 22.5712 27.1454 22.8948V22.8946ZM30.6631 19.6015C30.6627 19.3035 30.6158 18.9986 30.5156 18.6956C30.5512 18.6615 30.5858 18.6268 30.6191 18.5914C29.7791 18.6336 29.8579 18.8912 29.4854 18.71C29.9608 18.2513 29.2877 17.632 28.8748 18.0451C28.5533 18.3666 28.2812 17.6029 27.8387 18.0451C27.4843 18.3994 27.8633 18.8754 28.4071 18.9991C28.6704 19.3414 29.188 19.6455 29.7453 19.6455C29.9141 19.6455 30.3157 19.6297 30.6631 19.6017V19.6015ZM31.2315 15.9366C31.1045 15.5275 30.8784 15.1435 30.5546 14.8231L29.5763 14.6156C29.4644 14.1814 29.16 13.9012 28.8092 14.1038C28.2038 14.4535 29.1365 15.0957 28.4351 15.5007C27.9163 15.8001 28.3768 16.5797 28.8859 16.282C29.2051 16.0961 29.4062 15.833 29.516 15.5519C29.9197 15.3915 30.8922 16.0986 31.2315 15.9366ZM30.0467 11.8096C29.8732 11.5955 29.6647 11.4051 29.4231 11.2478C29.44 11.1882 29.4547 11.1287 29.4673 11.0693C29.4488 11.0914 29.4314 11.116 29.4154 11.1438C29.1774 11.556 28.1618 12.2137 27.688 12.065C27.4028 11.6357 26.9678 11.2695 26.3613 11.1086C25.7862 10.9561 25.5544 11.827 26.1275 11.9807C26.8929 12.1855 27.3487 12.9752 27.1438 13.7406C26.9504 14.4619 28.366 14.7263 28.0819 13.0585C28.6539 13.0474 29.6056 12.3577 30.0467 11.8096Z" fill="#F08B95"/>
<path fill-rule="evenodd" clip-rule="evenodd" d="M15.2413 11.303C14.9881 11.4814 14.7736 11.6978 14.6012 11.9392C15.0874 12.4361 15.873 12.96 16.3708 12.9697C16.0869 14.6375 17.5023 14.3731 17.309 13.6518C17.1041 12.8867 17.5598 12.0967 18.3252 11.8919C18.8983 11.7382 18.6666 10.8673 18.0914 11.0198C17.4849 11.1807 17.0499 11.5466 16.7647 11.9762C16.3787 12.0974 15.6332 11.6834 15.2413 11.303ZM14.3313 14.6098C14.3403 14.6299 14.3496 14.6502 14.3593 14.6703C13.9726 14.9949 13.7009 15.402 13.5464 15.8422C13.9385 15.719 14.661 15.3539 14.9365 15.4636C15.0524 15.7603 15.4306 16.2549 15.7916 16.2549C16.2496 16.2549 16.4166 15.6427 16.0177 15.4126C15.3162 15.0076 16.2489 14.3654 15.6436 14.0157C15.293 13.8131 14.9884 14.0931 14.8764 14.5274L14.3313 14.6102V14.6098ZM14.0601 18.5161C14.114 18.5775 14.1709 18.6373 14.2314 18.695C14.1389 18.9755 14.0915 19.2571 14.0845 19.5337C14.3415 19.5488 14.5852 19.5572 14.7074 19.5572C15.2647 19.5572 15.7826 19.253 16.0457 18.9107C16.5894 18.7871 16.9685 18.311 16.614 17.9568C16.1716 17.5145 15.8994 18.2783 15.5779 17.9568C15.1648 17.5436 14.492 18.163 14.9674 18.6217C14.6061 18.7977 14.5558 18.5518 14.0603 18.5163L14.0601 18.5161ZM16.4518 22.4694C16.7302 22.5219 17.0242 22.5352 17.3293 22.5021L17.3462 22.5305C17.3832 22.0851 17.4673 21.6361 18.0558 21.4992C19.0018 22.5179 19.681 21.2325 18.9177 21.0062C18.2679 20.8135 18.9486 20.0675 18.3053 19.8771C17.8816 19.7517 17.6469 20.172 17.6898 20.6655C16.7769 20.9737 16.4238 21.8024 16.4518 22.4694Z" fill="#F08B95"/>
</g>
<path d="M26.3795 0.849548H26.0183L25.8527 1.1705L23.4029 5.91732L23.1956 6.31904L23.5281 6.62528L25.0012 7.982L23.3719 12.5055L22.6423 14.5311L24.306 13.1645L31.0984 7.5848L31.6608 7.12283L31.0946 6.66552L29.7355 5.56774L33.1635 1.8439L34.0789 0.849548H32.7273H26.3795Z" fill="#FFB300" stroke="white" stroke-width="1.18567"/>
</g>
<defs>
<clipPath id="clip0_355_36669">
<rect width="40" height="40" fill="white" transform="translate(0 0.790039)"/>
</clipPath>
<clipPath id="clip1_355_36669">
<rect width="36.3218" height="36.3218" fill="white" transform="translate(1.41736 2.21484)"/>
</clipPath>
</defs>
</svg>
