<svg width="375" height="504" viewBox="0 0 375 504" fill="none" xmlns="http://www.w3.org/2000/svg">
<g filter="url(#filter0_d_727_57268)">
<path d="M173.794 198.523V254.343C173.794 256.552 175.584 258.343 177.794 258.343H285.459" stroke="#BEBEC7"/>
</g>
<g filter="url(#filter1_d_727_57268)">
<path d="M267 208C267 201.373 272.373 196 279 196H343C349.627 196 355 201.373 355 208V308C355 314.627 349.627 320 343 320H279C272.373 320 267 314.627 267 308V208Z" fill="white" shape-rendering="crispEdges"/>
<path d="M343 195.5H279C272.096 195.5 266.5 201.096 266.5 208V308C266.5 314.904 272.096 320.5 279 320.5H343C349.904 320.5 355.5 314.904 355.5 308V208C355.5 201.096 349.904 195.5 343 195.5Z" stroke="#EFEFF4" shape-rendering="crispEdges"/>
<path d="M308.5 212.55V214.481C308.5 217.078 308.309 219.218 307.667 221.022V221.028L307.615 221.098L298.813 224.082C298.645 221.265 299.883 219.617 301.294 218.657C302.37 217.923 302.659 216.222 302.717 215.32C302.763 214.626 302.717 213.695 302.717 212.55H308.5Z" fill="#E1505D"/>
<path d="M320.222 221.452C316.931 220.411 315.023 220.972 314.08 221.516C314.077 221.516 314.074 221.518 314.074 221.521C316.041 221.319 317.55 223.118 318.406 224.656C320.002 227.536 320.355 230.931 320.031 234.164C319.805 236.339 319.285 238.473 318.487 240.508C317.995 242.004 317.015 243.291 315.705 244.163C314.097 245.1 312.143 244.967 310.408 244.522C308.922 244.119 307.483 243.559 306.116 242.85C297.742 238.669 295.868 229.225 298.812 224.083C299.613 222.61 300.935 221.489 302.519 220.937C303.506 220.586 304.557 220.45 305.602 220.538C306.3 220.604 306.982 220.794 307.614 221.099L307.666 221.03V221.024C308.858 219.41 313.068 214.628 319.777 216.825C320.422 217.039 321.051 217.302 321.656 217.612L320.222 221.452Z" fill="url(#paint0_linear_727_57268)"/>
<path d="M322.067 219.952C321.685 220.999 320.881 221.67 320.263 221.467C320.253 221.468 320.243 221.466 320.234 221.462C320.228 221.462 320.228 221.456 320.222 221.456C319.615 221.219 319.43 220.178 319.823 219.125C320.216 218.061 321.038 217.384 321.656 217.616C322.275 217.847 322.46 218.894 322.067 219.952Z" fill="#C54854"/>
<path d="M311.957 226.788C311.699 226.788 311.472 226.617 311.401 226.369C311.389 226.329 310.218 222.356 307.217 220.901C306.929 220.761 306.809 220.415 306.949 220.128C307.088 219.84 307.434 219.72 307.722 219.86C311.192 221.544 312.464 225.868 312.513 226.048C312.563 226.223 312.528 226.41 312.419 226.555C312.309 226.7 312.138 226.785 311.957 226.785V226.788Z" fill="#E1505D"/>
<path d="M299.851 229.246H299.809C299.656 229.235 299.514 229.164 299.413 229.048C299.313 228.932 299.263 228.781 299.274 228.628C299.491 225.563 300.909 223.299 303.069 222.578C303.265 222.512 303.481 222.556 303.636 222.694C303.791 222.831 303.861 223.04 303.82 223.243C303.778 223.446 303.632 223.611 303.435 223.676C301.735 224.244 300.61 226.127 300.428 228.712C300.405 229.014 300.153 229.247 299.851 229.246Z" fill="white"/>
<path d="M305.607 213.749C307.204 213.749 308.498 213.213 308.498 212.552C308.498 211.89 307.204 211.354 305.607 211.354C304.01 211.354 302.715 211.89 302.715 212.552C302.715 213.213 304.01 213.749 305.607 213.749Z" fill="#C54854"/>
<path d="M322.285 246.616C326.424 246.616 329.779 243.261 329.779 239.122C329.779 234.983 326.424 231.628 322.285 231.628C318.146 231.628 314.791 234.983 314.791 239.122C314.791 243.261 318.146 246.616 322.285 246.616Z" fill="#FFB200"/>
<path fill-rule="evenodd" clip-rule="evenodd" d="M323.031 235.135C323.059 234.919 322.936 234.712 322.732 234.635C322.528 234.558 322.298 234.631 322.177 234.812C321.298 236.124 320.129 237.867 319.567 238.705C319.487 238.824 319.466 238.973 319.51 239.109C319.554 239.245 319.657 239.354 319.791 239.405C320.631 239.721 322.133 240.287 322.133 240.287C322.133 240.287 321.734 241.527 321.338 242.759C321.269 242.974 321.363 243.208 321.562 243.315C321.761 243.422 322.009 243.371 322.15 243.195C323.155 241.939 324.373 240.418 324.969 239.672C325.058 239.561 325.092 239.416 325.061 239.277C325.03 239.138 324.937 239.021 324.81 238.958C324.032 238.577 322.664 237.907 322.664 237.907C322.664 237.907 322.858 236.44 323.031 235.135Z" fill="white"/>
<path d="M296.598 263.076V270.562H294.958V263.076H296.598ZM296.598 271.221V276.143H287.809V271.221H296.598ZM289.421 272.51V274.824H295.002V272.51H289.421ZM290.504 264.863C290.504 266.548 291.632 268.13 293.698 268.789L292.907 270.034C291.376 269.558 290.277 268.584 289.684 267.31C289.076 268.679 287.963 269.771 286.374 270.298L285.568 269.009C287.721 268.32 288.82 266.606 288.82 264.863V263.574H290.504V264.863ZM309.114 263.823V264.922C309.114 266.035 309.114 267.317 308.821 268.994H310.594V270.327H298.494V268.994H307.166C307.467 267.397 307.488 266.211 307.488 265.142H299.988V263.823H309.114ZM309.495 274.707V276.025H300.062V271.587H301.673V274.707H309.495ZM322.51 263.076V270.811H320.884V269.346H317.734V268.027H320.884V266.606H317.866C317.024 268.716 315.097 270.188 312.212 270.986L311.553 269.697C314.651 268.855 316.299 267.288 316.562 265.317H312.256V263.999H318.335C318.335 264.46 318.298 264.9 318.218 265.317H320.884V263.076H322.51ZM318.13 270.957C320.81 270.957 322.597 271.968 322.597 273.594C322.597 275.22 320.81 276.23 318.13 276.23C315.42 276.23 313.633 275.22 313.633 273.594C313.633 271.968 315.42 270.957 318.13 270.957ZM318.13 272.231C316.343 272.231 315.259 272.715 315.259 273.594C315.259 274.458 316.343 274.941 318.13 274.941C319.873 274.941 320.971 274.458 320.971 273.594C320.971 272.715 319.873 272.231 318.13 272.231ZM328.478 265.464C328.478 266.943 329.298 268.408 331.041 269.097L330.162 270.342C328.998 269.873 328.185 269.009 327.716 267.939C327.218 269.141 326.354 270.151 325.094 270.693L324.23 269.434C326.046 268.628 326.896 266.958 326.911 265.464V263.853H328.478V265.464ZM335.67 263.076V271.089H334.118V267.72H332.799V271.016H331.276V263.296H332.799V266.372H334.118V263.076H335.67ZM335.67 271.719V276.304H334.044V273.022H326.603V271.719H335.67Z" fill="#1D1D1E"/>
</g>
<defs>
<filter id="filter0_d_727_57268" x="171.293" y="198.523" width="116.166" height="64.3203" filterUnits="userSpaceOnUse" color-interpolation-filters="sRGB">
<feFlood flood-opacity="0" result="BackgroundImageFix"/>
<feColorMatrix in="SourceAlpha" type="matrix" values="0 0 0 0 0 0 0 0 0 0 0 0 0 0 0 0 0 0 127 0" result="hardAlpha"/>
<feOffset dy="2"/>
<feGaussianBlur stdDeviation="1"/>
<feComposite in2="hardAlpha" operator="out"/>
<feColorMatrix type="matrix" values="0 0 0 0 0 0 0 0 0 0 0 0 0 0 0 0 0 0 0.1 0"/>
<feBlend mode="normal" in2="BackgroundImageFix" result="effect1_dropShadow_727_57268"/>
<feBlend mode="normal" in="SourceGraphic" in2="effect1_dropShadow_727_57268" result="shape"/>
</filter>
<filter id="filter1_d_727_57268" x="261" y="191" width="100" height="136" filterUnits="userSpaceOnUse" color-interpolation-filters="sRGB">
<feFlood flood-opacity="0" result="BackgroundImageFix"/>
<feColorMatrix in="SourceAlpha" type="matrix" values="0 0 0 0 0 0 0 0 0 0 0 0 0 0 0 0 0 0 127 0" result="hardAlpha"/>
<feOffset dy="1"/>
<feGaussianBlur stdDeviation="2.5"/>
<feComposite in2="hardAlpha" operator="out"/>
<feColorMatrix type="matrix" values="0 0 0 0 0 0 0 0 0 0 0 0 0 0 0 0 0 0 0.08 0"/>
<feBlend mode="normal" in2="BackgroundImageFix" result="effect1_dropShadow_727_57268"/>
<feBlend mode="normal" in="SourceGraphic" in2="effect1_dropShadow_727_57268" result="shape"/>
</filter>
<linearGradient id="paint0_linear_727_57268" x1="311.476" y1="210.759" x2="312.986" y2="249.424" gradientUnits="userSpaceOnUse">
<stop stop-color="#F67A7C"/>
<stop offset="1" stop-color="#ED5B69"/>
</linearGradient>
</defs>
</svg>
