<svg width="40" height="41" viewBox="0 0 40 41" fill="none" xmlns="http://www.w3.org/2000/svg">
<g clip-path="url(#clip0_355_36911)">
<path d="M33.8682 19.7001L31.6995 19.7724H25.6219C25.2226 19.7724 24.8989 19.4488 24.8989 19.0495V17.9378C24.8989 17.5385 25.2226 17.2148 25.6219 17.2148H31.7054L33.8682 17.2871C34.2675 17.2871 34.5189 17.5385 34.5189 17.9378V19.0495C34.5189 19.4488 34.2674 19.7001 33.8682 19.7001Z" fill="#DB7A7A"/>
<path d="M32.7829 24.0859L30.6544 24.1581H25.6219C25.2226 24.1581 24.8989 23.8345 24.8989 23.4352V22.3235C24.8989 21.9242 25.2226 21.6006 25.6219 21.6006H30.7014L32.7828 21.6729C33.182 21.6729 33.4334 21.9242 33.4334 22.3235V23.4352C33.4335 23.8345 33.1821 24.0859 32.7829 24.0859Z" fill="#8AAADC"/>
<path d="M7.73163 38.6815L6.49839 38.7538C6.47974 38.7538 6.46123 38.7533 6.4428 38.7524C5.86973 38.7235 5.414 38.2497 5.414 37.6694V19.0625H8.81601L8.74372 37.6694C8.74372 38.2683 8.3305 38.6815 7.73163 38.6815Z" fill="#DB7A7A"/>
<path d="M8.81599 19.0635V37.6701C8.81599 38.2687 8.33019 38.7545 7.73161 38.7545H6.4983C6.46215 38.7545 6.42673 38.753 6.39203 38.7487C6.94073 38.6959 7.37015 38.2325 7.37015 37.6701V19.0635H8.81599Z" fill="#E25C5C"/>
<path d="M18.2815 18.3181H14.8749V12.6796C14.8749 8.03807 18.6376 4.27539 23.2792 4.27539H27.579L29.5232 4.34768C30.1503 4.34768 30.5864 4.78382 30.5864 5.41089V6.54646C30.5864 7.17359 30.1503 7.60966 29.5232 7.60966L27.579 7.68196H23.2792C20.519 7.68196 18.2815 9.91948 18.2815 12.6796V18.3181Z" fill="#8AAADC"/>
<path d="M30.3896 27.5554V34.1152C30.3896 36.1705 28.7963 37.7638 26.7417 37.7638L24.9221 37.8361H20.1812C12.0259 37.8361 5.414 31.225 5.414 23.069V3.96062C5.414 3.51169 5.67425 3.1242 6.05162 2.93913C6.20199 2.86611 6.37115 2.8972 6.54972 2.8972H7.68471C8.31221 2.8972 8.74813 3.33312 8.74813 3.96062V9.82354C8.74813 10.5906 9.05537 11.3316 9.55058 11.8781C9.70239 12.0465 9.873 12.1962 10.0573 12.3227C10.408 12.5627 10.8106 12.6964 11.2415 12.7536C11.4179 12.7774 11.6001 12.7883 11.7851 12.7883H14.024L15.6947 12.8605C23.8507 12.8605 30.3896 19.3994 30.3896 27.5554Z" fill="#F29696"/>
<path d="M30.4617 27.5553V34.1151C30.4617 36.1704 28.7961 37.836 26.7415 37.836H24.5728C26.6273 37.836 28.2929 36.1704 28.2929 34.1151V27.5553C28.2929 19.3992 21.6818 12.7881 13.5258 12.7881H15.6945C23.8505 12.7881 30.4617 19.3992 30.4617 27.5553Z" fill="#F67979"/>
<path d="M30.6584 5.41111V6.5461C30.6584 7.17359 30.1502 7.68181 29.5227 7.68181H27.3539C27.9814 7.68181 28.4897 7.17359 28.4897 6.5461V5.41111C28.4897 4.78361 27.9814 4.27539 27.3539 4.27539H29.5227C30.1502 4.27539 30.6584 4.78361 30.6584 5.41111Z" fill="#7398D4"/>
<path d="M34.5915 17.9378V19.0496C34.5915 19.4487 34.2677 19.7725 33.8686 19.7725H31.6998C32.0989 19.7725 32.4228 19.4487 32.4228 19.0496V17.9378C32.4228 17.5387 32.0989 17.2148 31.6998 17.2148H33.8686C34.2677 17.2148 34.5915 17.5387 34.5915 17.9378Z" fill="#E25C5C"/>
<path d="M33.506 22.3235V23.4354C33.506 23.8344 33.1821 24.1583 32.7831 24.1583H30.6143C31.0134 24.1583 31.3372 23.8344 31.3372 23.4354V22.3235C31.3372 21.9245 31.0134 21.6006 30.6143 21.6006H32.7831C33.1821 21.6006 33.506 21.9245 33.506 22.3235Z" fill="#7398D4"/>
</g>
<defs>
<clipPath id="clip0_355_36911">
<rect width="35.9293" height="35.9293" fill="white" transform="translate(2.03906 2.8252)"/>
</clipPath>
</defs>
</svg>
