<svg width="375" height="504" viewBox="0 0 375 504" fill="none" xmlns="http://www.w3.org/2000/svg">
<g filter="url(#filter0_d_727_57405)">
<path d="M168.573 177.07H131.501C129.292 177.07 127.501 175.279 127.501 173.07L127.501 148.369C127.501 146.16 125.71 144.369 123.501 144.369H95.3477" stroke="#BEBEC7"/>
</g>
<g filter="url(#filter1_d_727_57405)">
<path d="M20 111C20 104.373 25.3726 99 32 99H96C102.627 99 108 104.373 108 111V211C108 217.627 102.627 223 96 223H32C25.3726 223 20 217.627 20 211V111Z" fill="white" shape-rendering="crispEdges"/>
<path d="M96 98.5H32C25.0964 98.5 19.5 104.096 19.5 111V211C19.5 217.904 25.0964 223.5 32 223.5H96C102.904 223.5 108.5 217.904 108.5 211V111C108.5 104.096 102.904 98.5 96 98.5Z" stroke="#EFEFF4" shape-rendering="crispEdges"/>
<mask id="mask0_727_57405" style="mask-type:alpha" maskUnits="userSpaceOnUse" x="45" y="114" width="38" height="36">
<path fill-rule="evenodd" clip-rule="evenodd" d="M82.3198 114.011H45.967V128.545C48.3984 127.304 51.375 127.652 53.5011 129.588C56.217 127.162 60.3381 127.218 62.9344 129.987C65.6067 132.838 65.6176 137.432 62.971 140.298L55.6051 148.273C55.3412 148.564 55.0196 148.798 54.6608 148.959C54.2947 149.123 53.898 149.208 53.4968 149.208C53.0956 149.208 52.699 149.123 52.3329 148.959C51.974 148.798 51.6525 148.564 51.3886 148.273L45.967 142.403V149.999H82.3198V114.011ZM45.967 139.437L52.8753 146.917C52.9533 147.005 53.0491 147.075 53.1562 147.123C53.2633 147.171 53.3794 147.196 53.4968 147.196C53.6142 147.196 53.7303 147.171 53.8374 147.123C53.9445 147.075 54.0403 147.005 54.1184 146.917L61.4929 138.932C63.4249 136.841 63.4161 133.443 61.4664 131.363C59.6619 129.438 56.8189 129.362 54.8866 131.048C54.7477 131.169 54.6135 131.3 54.4848 131.439L53.4968 132.509L52.4652 131.392C52.3512 131.268 52.2331 131.152 52.1112 131.044C50.3357 129.459 47.7748 129.426 45.967 130.946V139.437Z" fill="#B8B8B8"/>
</mask>
<g mask="url(#mask0_727_57405)">
<path d="M82.317 131.552C82.3187 132.8 81.8542 134.003 81.0145 134.926C81.0145 134.93 81.0119 134.932 81.0086 134.932C81.0086 134.944 81.0027 134.95 81.0027 134.962C80.8914 135.561 80.7003 136.143 80.4343 136.691C79.9421 137.722 79.2091 138.619 78.2971 139.308H78.2912C78.1787 139.39 78.0662 139.473 77.9478 139.55C77.9291 139.565 77.9093 139.579 77.8886 139.592C77.5263 139.825 77.1439 140.025 76.746 140.19L76.7637 140.207C77.0691 140.485 77.3395 140.8 77.5689 141.143C78.9306 143.102 79.2562 145.962 79.3332 147.211C79.3413 147.373 79.2825 147.532 79.1706 147.649C79.0587 147.767 78.9034 147.833 78.7411 147.833H76.9354C76.6492 147.834 76.4018 147.633 76.3434 147.353C76.1717 146.465 75.5086 144.577 72.8445 143.689C69.9435 142.724 69.014 141.753 68.7713 140.136C68.7189 139.744 68.6951 139.348 68.7002 138.952C67.6754 138.952 66.6596 138.761 65.7045 138.39C64.5306 139.752 62.7184 140.384 60.9518 140.047C59.1852 139.71 57.7332 138.455 57.1437 136.756C56.7849 136.886 56.4168 136.989 56.0425 137.064C55.6282 137.137 55.2082 137.175 54.7874 137.176C51.0272 137.176 47.979 134.128 47.979 130.368C47.9774 129.346 48.2104 128.337 48.6599 127.419C48.8435 127.026 49.0677 126.653 49.3289 126.306C49.293 126.206 49.2634 126.103 49.24 125.999C49.1875 125.782 49.1617 125.559 49.1631 125.336C49.164 123.922 50.1625 122.705 51.549 122.429C51.5372 122.313 51.5312 122.196 51.5312 122.079C51.5295 121.794 51.5613 121.51 51.6259 121.233C52.0217 119.478 53.5805 118.231 55.3794 118.231C55.9582 118.229 56.5295 118.361 57.049 118.616C57.9027 117.177 59.3527 116.193 61.0051 115.931C62.6576 115.669 64.341 116.156 65.598 117.26C66.1837 116.319 67.246 115.785 68.3506 115.874C69.4552 115.964 70.4172 116.663 70.8434 117.686C71.1146 117.656 71.3874 117.64 71.6604 117.639C75.3549 117.639 78.4332 120.47 78.7411 124.151H78.7648C79.819 124.151 80.7939 124.711 81.3244 125.622C81.8549 126.533 81.8609 127.657 81.3401 128.574C81.9766 129.436 82.319 130.48 82.317 131.552Z" fill="url(#paint0_linear_727_57405)"/>
<path d="M54.8469 123.457C54.7453 123.536 54.6201 123.577 54.4917 123.576C54.3057 123.575 54.1307 123.487 54.0181 123.339C53.4676 122.611 52.5525 122.258 51.6559 122.427C51.6207 122.434 51.5851 122.438 51.5493 122.439C51.5375 122.323 51.5316 122.206 51.5316 122.09C51.5299 121.805 51.5617 121.521 51.6263 121.243C52.9083 121.065 54.1863 121.595 54.9654 122.629C55.1615 122.89 55.1085 123.261 54.8469 123.457Z" fill="#F6818D"/>
<path d="M81.0038 134.97C80.8925 135.569 80.7014 136.151 80.4354 136.699C79.7248 137.02 78.9537 137.186 78.1738 137.185C77.2865 137.185 76.4119 136.974 75.6222 136.569C75.1744 136.343 74.76 136.056 74.3907 135.716C72.9414 136.404 71.208 135.804 70.4952 134.367C70.3807 134.176 70.3823 133.938 70.4991 133.75C70.616 133.561 70.8285 133.453 71.0497 133.471C71.2709 133.489 71.4637 133.629 71.549 133.834C71.915 134.575 72.744 134.966 73.5487 134.776C74.3534 134.587 74.9209 133.867 74.9177 133.04C74.9175 132.765 74.8526 132.493 74.7282 132.247C74.5856 131.954 74.7042 131.601 74.9946 131.454C75.2857 131.308 75.6402 131.424 75.7879 131.714C76.3274 132.787 76.1611 134.081 75.3676 134.982C75.6106 135.19 75.8768 135.369 76.1609 135.515C77.7379 136.324 79.6458 136.109 81.0038 134.97Z" fill="#F6818D"/>
<path d="M76.7638 140.215C77.0691 140.493 77.3395 140.807 77.5689 141.15C76.9143 141.462 76.2186 141.68 75.5027 141.796C75.4714 141.8 75.4397 141.802 75.408 141.801C75.1175 141.801 74.8698 141.591 74.8219 141.304C74.7971 141.149 74.8349 140.991 74.9272 140.865C75.0194 140.738 75.1584 140.653 75.3133 140.629C75.8104 140.544 76.2968 140.405 76.7638 140.215Z" fill="#F6818D"/>
<path d="M71.3112 139.76C70.6678 139.954 70.0045 140.075 69.3339 140.121C69.1622 140.139 68.9668 140.145 68.7714 140.145C68.719 139.752 68.6953 139.356 68.7004 138.96C68.8839 138.96 69.0674 138.955 69.245 138.937C69.8296 138.9 70.4077 138.794 70.9679 138.623C71.1709 138.562 71.3913 138.613 71.5459 138.759C71.7006 138.904 71.766 139.12 71.7176 139.327C71.6692 139.533 71.5143 139.698 71.3112 139.76Z" fill="#F6818D"/>
<path d="M56.4516 120.655C56.4009 120.655 56.3504 120.649 56.3013 120.636C56.1492 120.596 56.0192 120.498 55.9398 120.362C55.8604 120.226 55.8382 120.065 55.878 119.913C56.4263 117.83 58.0136 116.18 60.0732 115.551C62.1328 114.921 64.3713 115.403 65.9899 116.824C66.1571 116.961 66.2361 117.178 66.196 117.391C66.1559 117.603 66.0031 117.777 65.7974 117.844C65.5917 117.911 65.3659 117.861 65.2084 117.712C64.292 116.906 63.1133 116.462 61.893 116.463C60.1163 116.469 58.4721 117.404 57.5582 118.928C57.3217 119.329 57.1424 119.761 57.0253 120.212C56.9573 120.473 56.7214 120.656 56.4516 120.655Z" fill="#F6818D"/>
<path d="M71.0688 119.424C70.7418 119.424 70.4767 119.158 70.4767 118.832C70.4767 117.524 69.4165 116.463 68.1086 116.463C66.8007 116.463 65.7405 117.524 65.7405 118.832C65.7405 119.158 65.4754 119.424 65.1484 119.424C64.8215 119.424 64.5564 119.158 64.5564 118.832C64.5564 116.87 66.1468 115.279 68.1086 115.279C70.0704 115.279 71.6608 116.87 71.6608 118.832C71.6608 118.989 71.5984 119.139 71.4874 119.25C71.3764 119.361 71.2258 119.424 71.0688 119.424Z" fill="#F6818D"/>
<path d="M80.0146 130.393C79.737 130.393 79.4965 130.2 79.4362 129.929C79.3759 129.658 79.512 129.382 79.7635 129.264C80.2111 129.055 80.5833 128.713 80.8292 128.285C81.384 127.309 81.1768 126.077 80.3331 125.336C79.4893 124.595 78.2411 124.548 77.3445 125.224C77.1753 125.351 76.9512 125.378 76.7567 125.295C76.5622 125.212 76.4268 125.031 76.4015 124.821C76.3762 124.611 76.4648 124.404 76.634 124.277C77.7104 123.47 79.1505 123.34 80.354 123.941C81.5574 124.543 82.3176 125.773 82.3176 127.119C82.3196 128.5 81.5186 129.756 80.2656 130.337C80.187 130.374 80.1013 130.393 80.0146 130.393Z" fill="#F6818D"/>
</g>
<path d="M54.1135 146.91C54.0354 146.998 53.9397 147.068 53.8326 147.116C53.7255 147.164 53.6094 147.189 53.492 147.189C53.3746 147.189 53.2585 147.164 53.1514 147.116C53.0443 147.068 52.9485 146.998 52.8704 146.91L45.4959 138.926C43.5727 136.843 43.5727 133.467 45.4959 131.385C47.419 129.303 50.5372 129.303 52.4603 131.385L53.492 132.502L54.4799 131.432C56.4 129.353 59.5274 129.293 61.4616 131.357C63.4113 133.436 63.4201 136.834 61.4881 138.926L54.1135 146.91Z" fill="url(#paint1_linear_727_57405)"/>
<path d="M54.6442 142.373H54.6442H54.6442ZM54.6442 142.373C54.7347 142.373 54.8228 142.344 54.8958 142.29C54.9687 142.236 55.0226 142.161 55.0497 142.075L55.0497 142.075L56.5436 137.301M54.6442 142.373L56.5436 137.301M57.7171 138.506L57.0043 135.622L56.9336 135.64L57.0043 135.622C56.9821 135.532 56.931 135.452 56.8588 135.393C56.7866 135.335 56.6974 135.302 56.6047 135.299C56.512 135.296 56.4209 135.324 56.3453 135.378C56.2698 135.432 56.2138 135.509 56.1861 135.597L56.1861 135.597L54.7043 140.332L53.2693 134.168C53.2488 134.08 53.2006 134 53.1318 133.941C53.0629 133.882 52.977 133.847 52.8867 133.84C52.7963 133.834 52.7062 133.856 52.6295 133.904C52.5527 133.952 52.4934 134.024 52.4601 134.108L51.0862 137.589H44.0342C43.9215 137.589 43.8134 137.634 43.7337 137.714C43.654 137.793 43.6092 137.901 43.6092 138.014C43.6092 138.127 43.654 138.235 43.7337 138.315C43.8134 138.394 43.9215 138.439 44.0342 138.439H51.3754C51.4606 138.439 51.5439 138.413 51.6144 138.365C51.6849 138.317 51.7394 138.249 51.7707 138.17L52.7504 135.688L54.2301 142.044C54.2513 142.135 54.3017 142.216 54.3736 142.275C54.4455 142.335 54.5349 142.369 54.6281 142.372L57.7171 138.506ZM57.7171 138.506L58.2436 137.447C58.2436 137.447 58.2436 137.447 58.2436 137.447C58.2788 137.376 58.333 137.317 58.4003 137.275C58.4675 137.234 58.545 137.212 58.6241 137.212H62.508C62.6208 137.212 62.7289 137.256 62.8085 137.336C62.8882 137.416 62.933 137.524 62.933 137.637C62.933 137.749 62.8882 137.857 62.8085 137.937C62.7289 138.017 62.6208 138.062 62.508 138.062H58.8873L57.9627 139.921L57.9627 139.921C57.9239 139.998 57.8622 140.063 57.7858 140.104C57.7095 140.146 57.6222 140.163 57.5357 140.154C57.4492 140.144 57.3678 140.108 57.3023 140.051C57.2368 139.994 57.1905 139.918 57.1696 139.833L57.1696 139.833L56.5436 137.301M57.7171 138.506L56.5436 137.301" fill="white" stroke="white" stroke-width="0.145788"/>
<path d="M49.5982 166.076V173.562H47.9576V166.076H49.5982ZM49.5982 174.221V179.143H40.8092V174.221H49.5982ZM42.4205 175.51V177.824H48.0016V175.51H42.4205ZM43.5045 167.863C43.5045 169.548 44.6324 171.13 46.6979 171.789L45.9068 173.034C44.3761 172.558 43.2774 171.584 42.6842 170.31C42.0763 171.679 40.963 172.771 39.3736 173.298L38.568 172.009C40.7213 171.32 41.8199 169.606 41.8199 167.863V166.574H43.5045V167.863ZM62.5539 166.062V179.304H60.9426V166.062H62.5539ZM51.5236 175.231C52.6296 175.231 53.8674 175.231 55.1418 175.202V172.609H52.4904V167.277H54.1311V171.291H59.4484V172.609H56.7824V175.144C57.925 175.1 59.0603 175.012 60.1369 174.88L60.2395 176.081C57.3244 176.564 54.2189 176.594 51.6994 176.564L51.5236 175.231ZM71.8475 167.087V168.332H64.45V167.087H67.409V165.915H69.035V167.087H71.8475ZM68.2 168.786C70.0311 168.786 71.2908 169.665 71.3055 171.042C71.2908 172.39 70.0311 173.283 68.2 173.283C66.3836 173.283 65.1238 172.39 65.1385 171.042C65.1238 169.665 66.3982 168.786 68.2 168.786ZM68.2 169.973C67.2918 169.958 66.6473 170.368 66.6619 171.042C66.6473 171.716 67.2918 172.126 68.2 172.126C69.1082 172.126 69.7674 171.716 69.7674 171.042C69.7674 170.368 69.1082 169.958 68.2 169.973ZM75.5096 166.062V173.371H73.8836V172.39H71.9207V171.13H73.8836V170.017H71.9354V168.757H73.8836V166.062H75.5096ZM75.5096 173.928V177.062H68.4197V177.971H75.8611V179.187H66.7937V175.949H73.8836V175.114H66.7791V173.928H75.5096ZM84.7445 167.043V167.834C84.7299 168.742 84.7299 170.046 84.4223 171.73L82.8109 171.584C83.0673 170.214 83.1186 169.204 83.1479 168.391H77.9916V167.043H84.7445ZM81.4047 170.061V172.697C82.7743 172.646 84.1806 172.543 85.4623 172.36L85.5502 173.532C82.7963 174.03 79.6762 174.074 77.3471 174.089L77.2006 172.785C77.9843 172.778 78.8632 172.771 79.7934 172.756V170.061H81.4047ZM87.9086 166.062V170.192H89.6225V171.555H87.9086V175.979H86.2387V166.062H87.9086ZM88.3334 177.722V179.04H79.1781V175.1H80.8187V177.722H88.3334Z" fill="#1D1D1E"/>
</g>
<defs>
<filter id="filter0_d_727_57405" x="93.3477" y="143.869" width="77.2258" height="37.7012" filterUnits="userSpaceOnUse" color-interpolation-filters="sRGB">
<feFlood flood-opacity="0" result="BackgroundImageFix"/>
<feColorMatrix in="SourceAlpha" type="matrix" values="0 0 0 0 0 0 0 0 0 0 0 0 0 0 0 0 0 0 127 0" result="hardAlpha"/>
<feOffset dy="2"/>
<feGaussianBlur stdDeviation="1"/>
<feComposite in2="hardAlpha" operator="out"/>
<feColorMatrix type="matrix" values="0 0 0 0 0 0 0 0 0 0 0 0 0 0 0 0 0 0 0.1 0"/>
<feBlend mode="normal" in2="BackgroundImageFix" result="effect1_dropShadow_727_57405"/>
<feBlend mode="normal" in="SourceGraphic" in2="effect1_dropShadow_727_57405" result="shape"/>
</filter>
<filter id="filter1_d_727_57405" x="14" y="94" width="100" height="136" filterUnits="userSpaceOnUse" color-interpolation-filters="sRGB">
<feFlood flood-opacity="0" result="BackgroundImageFix"/>
<feColorMatrix in="SourceAlpha" type="matrix" values="0 0 0 0 0 0 0 0 0 0 0 0 0 0 0 0 0 0 127 0" result="hardAlpha"/>
<feOffset dy="1"/>
<feGaussianBlur stdDeviation="2.5"/>
<feComposite in2="hardAlpha" operator="out"/>
<feColorMatrix type="matrix" values="0 0 0 0 0 0 0 0 0 0 0 0 0 0 0 0 0 0 0.08 0"/>
<feBlend mode="normal" in2="BackgroundImageFix" result="effect1_dropShadow_727_57405"/>
<feBlend mode="normal" in="SourceGraphic" in2="effect1_dropShadow_727_57405" result="shape"/>
</filter>
<linearGradient id="paint0_linear_727_57405" x1="65.148" y1="95.8655" x2="69.4054" y2="167.225" gradientUnits="userSpaceOnUse">
<stop stop-color="#FAA3AB"/>
<stop offset="1" stop-color="#F6818D"/>
</linearGradient>
<linearGradient id="paint1_linear_727_57405" x1="53.492" y1="129.823" x2="53.492" y2="147.189" gradientUnits="userSpaceOnUse">
<stop stop-color="#FF6943"/>
<stop offset="1" stop-color="#F34935"/>
</linearGradient>
</defs>
</svg>
