<svg width="41" height="41" viewBox="0 0 41 41" fill="none" xmlns="http://www.w3.org/2000/svg">
<g clip-path="url(#clip0_355_36789)">
<g clip-path="url(#clip1_355_36789)">
<path d="M26.8773 13.8516C24.0315 13.8516 21.7245 16.1585 21.7245 19.0043V36.3866C21.7245 36.6792 21.9618 36.9164 22.2544 36.9164H23.314C23.6066 36.9164 23.8438 36.6792 23.8438 36.3866V20.2094C23.8438 19.0389 24.7926 18.0901 25.9631 18.0901H31.1158V13.8516H26.8773Z" fill="#F7A3AB"/>
<path d="M14.4525 13.8516C17.2983 13.8516 19.6053 16.1585 19.6053 19.0043V36.3866C19.6053 36.6792 19.3681 36.9164 19.0755 36.9164H18.0158C17.7232 36.9164 17.486 36.6792 17.486 36.3866V20.2094C17.486 19.0389 16.5372 18.0901 15.3667 18.0901H10.214V13.8516H14.4525Z" fill="#F7A3AB"/>
<path d="M13.5403 15.971C13.5403 15.2832 13.7496 14.7404 14.2878 14.0686C16.0795 11.8417 15.5684 8.5398 13.2827 6.81958C12.1856 5.99391 10.8949 5.71657 9.63171 5.87954V26.0624C10.8949 26.2254 12.1857 25.948 13.2827 25.1224C15.5684 23.4021 16.0795 20.1002 14.2878 17.8733C13.7496 17.2016 13.5403 16.6588 13.5403 15.971Z" fill="#E85564"/>
<path d="M12.3549 17.8737C11.9098 17.2019 11.7366 16.6591 11.7366 15.9713C11.7366 15.2835 11.9097 14.7407 12.3549 14.069C13.8368 11.842 13.4141 8.54014 11.5236 6.81992C10.9426 6.29123 10.2959 5.98768 9.63155 5.87988C8.26292 6.05649 6.92657 6.75013 5.90388 7.82927C3.88739 9.95716 3.11011 13.0069 3.11011 15.9713C3.11011 18.9357 3.88739 21.9855 5.90388 24.1134C6.92657 25.1926 8.26292 25.8862 9.63155 26.0628C10.2959 25.955 10.9427 25.6514 11.5236 25.1227C13.4141 23.4024 13.8369 20.1006 12.3549 17.8737Z" fill="#F96A79"/>
<path d="M35.4259 7.8292C34.1477 6.48035 32.3796 5.73274 30.6708 5.84626L30.6718 26.0962C32.3803 26.2094 34.1479 25.4618 35.4259 24.1132C37.4424 21.9854 38.2196 18.9356 38.2196 15.9713C38.2196 13.0069 37.4424 9.95709 35.4259 7.8292Z" fill="#E85564"/>
<path d="M33.8884 24.1137C35.4848 21.9858 36.1001 18.936 36.1001 15.9717C36.1001 13.0073 35.4848 9.95751 33.8884 7.82962C33.0124 6.66197 31.8458 5.9448 30.6706 5.84668C29.7502 5.90786 28.8471 6.21805 28.047 6.82028C25.7612 8.54056 25.2501 11.8424 27.0419 14.0693C27.5802 14.7411 27.7894 15.2839 27.7894 15.9717C27.7894 16.6594 27.5801 17.2023 27.0419 17.874C25.2501 20.1009 25.7612 23.4028 28.047 25.1231C28.8474 25.7254 29.7509 26.0357 30.6716 26.0967C31.8465 25.9983 33.0127 25.281 33.8884 24.1137Z" fill="#F96A79"/>
</g>
</g>
<defs>
<clipPath id="clip0_355_36789">
<rect width="40" height="40" fill="white" transform="translate(0.666626 0.790039)"/>
</clipPath>
<clipPath id="clip1_355_36789">
<rect width="35.1094" height="35.1094" fill="white" transform="translate(3.11035 1.80762)"/>
</clipPath>
</defs>
</svg>
