<svg width="375" height="504" viewBox="0 0 375 504" fill="none" xmlns="http://www.w3.org/2000/svg">
<g filter="url(#filter0_d_727_57324)">
<path d="M195.816 277.461L195.816 398.934C195.816 401.143 197.607 402.934 199.816 402.934H286.746" stroke="#BEBEC7"/>
</g>
<g filter="url(#filter1_d_727_57324)">
<path d="M267 348C267 341.373 272.373 336 279 336H343C349.627 336 355 341.373 355 348V448C355 454.627 349.627 460 343 460H279C272.373 460 267 454.627 267 448V348Z" fill="white" shape-rendering="crispEdges"/>
<path d="M343 335.5H279C272.096 335.5 266.5 341.096 266.5 348V448C266.5 454.904 272.096 460.5 279 460.5H343C349.904 460.5 355.5 454.904 355.5 448V348C355.5 341.096 349.904 335.5 343 335.5Z" stroke="#EFEFF4" shape-rendering="crispEdges"/>
<path d="M302.83 367.905C305.18 368.79 306.853 371.057 306.853 373.718V384.777C306.853 385.159 307.163 385.468 307.544 385.468H308.927C309.308 385.468 309.618 385.159 309.618 384.777V373.718C309.618 368.755 305.595 364.732 300.632 364.732L299.25 367.497L302.83 367.905Z" fill="#FBABA6"/>
<path d="M319.169 367.905C316.819 368.79 315.146 371.057 315.146 373.718V384.777C315.146 385.159 314.837 385.468 314.455 385.468H313.073C312.691 385.468 312.382 385.159 312.382 384.777V373.718C312.382 368.755 316.404 364.732 321.367 364.732L322.75 367.497L319.169 367.905Z" fill="#FBABA6"/>
<path d="M304.952 370.882C304.952 373.721 302.946 375.797 299.579 375.797C295.293 375.797 291.819 370.845 291.819 364.738C291.819 358.63 295.293 353.679 299.579 353.679C302.946 353.679 304.952 355.755 304.952 358.594C304.952 360.873 303.059 362.618 301.215 362.864C301.215 362.864 301.496 363.6 301.496 364.738C301.496 365.82 301.215 366.612 301.215 366.612C303.06 366.858 304.952 368.602 304.952 370.882Z" fill="url(#paint0_linear_727_57324)"/>
<path d="M317.047 370.882C317.047 373.721 319.053 375.797 322.42 375.797C326.706 375.797 330.18 370.845 330.18 364.738C330.18 358.63 326.706 353.679 322.42 353.679C319.053 353.679 317.047 355.755 317.047 358.594C317.047 360.873 318.94 362.618 320.784 362.864C320.784 362.864 320.503 363.6 320.503 364.738C320.503 365.82 320.784 366.612 320.784 366.612C318.939 366.858 317.047 368.602 317.047 370.882Z" fill="url(#paint1_linear_727_57324)"/>
<path d="M296.598 403.076V412.744H294.958V403.076H296.598ZM296.964 414.722V416.04H287.838V411.821H289.479V414.722H296.964ZM290.504 405.098C290.504 406.943 291.588 408.687 293.683 409.39L292.848 410.679C291.339 410.151 290.263 409.097 289.684 407.749C289.084 409.192 287.992 410.349 286.432 410.913L285.583 409.624C287.736 408.862 288.82 407.002 288.82 405.098V403.809H290.504V405.098ZM303.24 405.449C303.24 407.075 304.295 408.599 306.361 409.229L305.584 410.503C304.097 410.042 303.043 409.097 302.464 407.896C301.878 409.287 300.758 410.393 299.168 410.928L298.348 409.639C300.487 408.936 301.6 407.222 301.6 405.464V405.303H298.802V403.984H305.994V405.303H303.24V405.449ZM308.939 403.062V406.24H310.784V407.573H308.939V410.957H307.313V403.062H308.939ZM304.632 411.25C307.371 411.25 309.056 412.173 309.071 413.755C309.056 415.352 307.371 416.289 304.632 416.289C301.863 416.289 300.15 415.352 300.15 413.755C300.15 412.173 301.863 411.25 304.632 411.25ZM304.632 412.524C302.816 412.524 301.776 412.949 301.776 413.755C301.776 414.575 302.816 415.015 304.632 415.015C306.448 415.015 307.459 414.575 307.459 413.755C307.459 412.949 306.448 412.524 304.632 412.524ZM322.422 403.062V409.888H320.81V403.062H322.422ZM322.451 410.444V413.857H315.288V414.927H322.846V416.187H313.691V412.671H320.825V411.689H313.662V410.444H322.451ZM319.228 403.721V405.039H316.46C316.526 406.504 317.646 407.888 319.697 408.452L318.906 409.712C317.361 409.265 316.255 408.32 315.654 407.119C315.061 408.445 313.904 409.5 312.27 409.99L311.523 408.701C313.574 408.093 314.717 406.606 314.804 405.039H311.948V403.721H319.228ZM334.835 403.062V407.5H336.622V408.848H334.835V413.403H333.209V403.062H334.835ZM335.304 414.722V416.04H326.134V412.715H327.76V414.722H335.304ZM324.23 410.752C325.219 410.752 326.369 410.745 327.57 410.693V409.858C326.098 409.683 325.167 408.958 325.167 407.896C325.167 406.592 326.442 405.83 328.361 405.845C330.294 405.83 331.554 406.592 331.554 407.896C331.554 408.95 330.646 409.668 329.196 409.858V410.62C330.324 410.562 331.459 410.459 332.521 410.298L332.653 411.44C329.855 411.968 326.691 411.997 324.406 412.026L324.23 410.752ZM332.169 404.219V405.405H324.567V404.219H327.57V403.018H329.196V404.219H332.169ZM328.361 406.943C327.335 406.943 326.72 407.28 326.735 407.896C326.72 408.467 327.335 408.804 328.361 408.804C329.386 408.804 330.001 408.467 330.001 407.896C330.001 407.28 329.386 406.943 328.361 406.943Z" fill="#1D1D1E"/>
</g>
<defs>
<filter id="filter0_d_727_57324" x="193.316" y="277.461" width="95.4292" height="129.973" filterUnits="userSpaceOnUse" color-interpolation-filters="sRGB">
<feFlood flood-opacity="0" result="BackgroundImageFix"/>
<feColorMatrix in="SourceAlpha" type="matrix" values="0 0 0 0 0 0 0 0 0 0 0 0 0 0 0 0 0 0 127 0" result="hardAlpha"/>
<feOffset dy="2"/>
<feGaussianBlur stdDeviation="1"/>
<feComposite in2="hardAlpha" operator="out"/>
<feColorMatrix type="matrix" values="0 0 0 0 0 0 0 0 0 0 0 0 0 0 0 0 0 0 0.1 0"/>
<feBlend mode="normal" in2="BackgroundImageFix" result="effect1_dropShadow_727_57324"/>
<feBlend mode="normal" in="SourceGraphic" in2="effect1_dropShadow_727_57324" result="shape"/>
</filter>
<filter id="filter1_d_727_57324" x="261" y="331" width="100" height="136" filterUnits="userSpaceOnUse" color-interpolation-filters="sRGB">
<feFlood flood-opacity="0" result="BackgroundImageFix"/>
<feColorMatrix in="SourceAlpha" type="matrix" values="0 0 0 0 0 0 0 0 0 0 0 0 0 0 0 0 0 0 127 0" result="hardAlpha"/>
<feOffset dy="1"/>
<feGaussianBlur stdDeviation="2.5"/>
<feComposite in2="hardAlpha" operator="out"/>
<feColorMatrix type="matrix" values="0 0 0 0 0 0 0 0 0 0 0 0 0 0 0 0 0 0 0.08 0"/>
<feBlend mode="normal" in2="BackgroundImageFix" result="effect1_dropShadow_727_57324"/>
<feBlend mode="normal" in="SourceGraphic" in2="effect1_dropShadow_727_57324" result="shape"/>
</filter>
<linearGradient id="paint0_linear_727_57324" x1="298.385" y1="353.679" x2="298.385" y2="375.797" gradientUnits="userSpaceOnUse">
<stop stop-color="#F67B72"/>
<stop offset="1" stop-color="#F78F83"/>
</linearGradient>
<linearGradient id="paint1_linear_727_57324" x1="323.614" y1="353.679" x2="323.614" y2="375.797" gradientUnits="userSpaceOnUse">
<stop stop-color="#F67B72"/>
<stop offset="1" stop-color="#F78F83"/>
</linearGradient>
</defs>
</svg>
