<svg width="73" height="73" viewBox="0 0 73 73" fill="none" xmlns="http://www.w3.org/2000/svg">
<rect x="0.328125" y="0.614258" width="72" height="72" rx="36" fill="#F9F4EF"/>
<path d="M26.8747 38.0021C29.5947 39.0261 31.5307 41.6501 31.5307 44.7301V57.5301C31.5307 57.9717 31.8891 58.3301 32.3307 58.3301H33.9307C34.3723 58.3301 34.7307 57.9717 34.7307 57.5301V44.7301C34.7307 38.9861 30.0747 34.3301 24.3307 34.3301L22.7307 37.5301L26.8747 38.0021Z" fill="#FBABA6"/>
<path d="M45.7852 38.0021C43.0652 39.0261 41.1292 41.6501 41.1292 44.7301V57.5301C41.1292 57.9717 40.7708 58.3301 40.3292 58.3301H38.7292C38.2876 58.3301 37.9292 57.9717 37.9292 57.5301V44.7301C37.9292 38.9861 42.5852 34.3301 48.3292 34.3301L49.9292 37.5301L45.7852 38.0021Z" fill="#FBABA6"/>
<path d="M29.3284 41.4483C29.3284 44.7339 27.0068 47.1371 23.11 47.1371C18.1492 47.1371 14.1284 41.4059 14.1284 34.3371C14.1284 27.2683 18.1492 21.5371 23.11 21.5371C27.0068 21.5371 29.3284 23.9403 29.3284 27.2259C29.3284 29.8643 27.138 31.8835 25.0036 32.1683C25.0036 32.1683 25.3284 33.0203 25.3284 34.3371C25.3284 35.5899 25.0036 36.5059 25.0036 36.5059C27.1388 36.7907 29.3284 38.8099 29.3284 41.4483Z" fill="url(#paint0_linear_693_77105)"/>
<path d="M43.3308 41.4483C43.3308 44.7339 45.6524 47.1371 49.5492 47.1371C54.51 47.1371 58.5308 41.4059 58.5308 34.3371C58.5308 27.2683 54.51 21.5371 49.5492 21.5371C45.6524 21.5371 43.3308 23.9403 43.3308 27.2259C43.3308 29.8643 45.5212 31.8835 47.6556 32.1683C47.6556 32.1683 47.3308 33.0203 47.3308 34.3371C47.3308 35.5899 47.6556 36.5059 47.6556 36.5059C45.5204 36.7907 43.3308 38.8099 43.3308 41.4483Z" fill="url(#paint1_linear_693_77105)"/>
<defs>
<linearGradient id="paint0_linear_693_77105" x1="21.7284" y1="21.5371" x2="21.7284" y2="47.1371" gradientUnits="userSpaceOnUse">
<stop stop-color="#F67B72"/>
<stop offset="1" stop-color="#F78F83"/>
</linearGradient>
<linearGradient id="paint1_linear_693_77105" x1="50.9308" y1="21.5371" x2="50.9308" y2="47.1371" gradientUnits="userSpaceOnUse">
<stop stop-color="#F67B72"/>
<stop offset="1" stop-color="#F78F83"/>
</linearGradient>
</defs>
</svg>
