<svg width="375" height="506" viewBox="0 0 375 506" fill="none" xmlns="http://www.w3.org/2000/svg">
<path d="M254.792 286.487C253.329 282.675 249.511 280.704 246.568 278.313C243.624 275.923 243.053 266.182 242.75 254.341C242.464 242.5 237.031 226.282 236.14 220.919C235.265 215.556 237.469 207.527 234.811 191.309C238.915 167.87 223.812 162.022 219.977 160.923C219.237 160.713 218.497 160.439 217.791 160.116L199.61 151.877C198.247 151.263 197.389 149.939 197.389 148.501V142.96L199.021 140.909C199.879 139.843 200.434 138.599 200.669 137.274L201.476 132.654C203.831 132.266 204.47 129.407 205.311 125.611C205.95 122.687 204.571 121.653 203.461 121.298L203.982 118.31C205.681 108.553 197.844 99.668 187.55 99.668C177.257 99.668 169.42 108.553 171.118 118.31L171.64 121.298C170.53 121.653 169.134 122.687 169.79 125.611C170.631 129.407 171.27 132.25 173.624 132.654L174.432 137.274C174.667 138.599 175.222 139.843 176.08 140.909L177.711 142.96V148.501C177.711 149.939 176.837 151.263 175.475 151.877L157.293 160.116C156.587 160.439 155.864 160.713 155.107 160.923C151.272 162.022 136.152 167.87 140.273 191.309C137.632 207.527 139.835 215.556 138.944 220.919C138.069 226.282 132.637 242.5 132.334 254.341C132.031 266.182 131.46 275.923 128.516 278.313C125.573 280.704 121.755 282.691 120.292 286.487C118.829 290.3 117.5 292.125 117.5 292.545C117.5 292.965 120.881 294.096 122.495 289.298C123.824 287.327 125.438 287.747 124.85 290.429C124.261 293.11 121.469 303.691 121.621 305.371C121.772 307.067 123.387 306.922 124.564 303.966C125.741 301.009 127.204 296.632 127.642 297.343C128.079 298.053 125.59 305.662 125.153 308.343C124.715 311.025 126.919 310.314 128.533 307.503C130.888 307.358 132.351 303.562 132.788 302.851C135.278 303.126 137.784 296.357 139.247 291.285C140.71 286.213 138.961 281.27 141.45 273.096C143.939 264.922 151.138 247.007 151.878 237.283C152.618 227.558 156.436 211.614 156.436 211.614C156.436 211.614 161.279 225.296 159.228 236.297C157.176 247.298 155.712 263.371 153.206 274.226C150.717 285.082 152.618 313.561 160.102 335.143C162.305 350.23 162.003 358.275 162.003 358.275C162.003 358.275 158.033 378.855 160.977 391.972C163.92 405.089 168.461 425.685 168.461 428.496C168.461 431.306 167.586 431.323 168.461 435.975C168.461 438.366 165.08 441.613 163.315 443.309C161.549 445.005 158.185 448.672 157.882 449.512C157.596 450.352 158.757 451.337 158.757 451.337C158.757 451.337 157.882 453.453 160.085 453.728C161.111 455.553 163.315 455.424 163.315 455.424C163.903 456.83 165.804 456.975 166.83 455.15C167.856 453.324 168.596 452.193 169.47 452.888C170.345 453.599 168.007 456.765 168.73 457.653C169.47 458.542 172.985 459.107 174.011 455.715C175.037 452.613 175.777 451.628 176.652 450.352C177.526 449.076 177.678 446.265 178.418 444.859C179.158 443.454 180.772 444.294 180.907 441.758C181.058 439.222 179.006 434.424 179.578 432.163C180.167 429.901 179.864 428.496 179.141 424.829C178.401 421.162 180.016 406.785 181.344 398.32C182.673 389.856 183.245 379.566 180.604 368C180.604 362.216 182.37 354.737 182.808 351.926C183.245 349.1 185.297 318.65 185.885 309.62C186.474 300.59 186.625 298.473 187.5 298.473C188.375 298.473 188.526 300.59 189.115 309.62C189.703 318.65 191.755 349.1 192.192 351.926C192.63 354.753 194.396 362.216 194.396 368C191.755 379.566 192.344 389.856 193.656 398.32C194.984 406.785 196.599 421.162 195.859 424.829C195.119 428.496 194.833 429.901 195.422 432.163C196.01 434.424 193.958 439.206 194.093 441.758C194.244 444.294 195.859 443.454 196.582 444.859C197.322 446.265 197.457 449.092 198.348 450.352C199.223 451.628 199.963 452.613 200.989 455.715C202.015 459.091 205.547 458.542 206.27 457.653C207.01 456.765 204.655 453.599 205.53 452.888C206.404 452.177 207.144 453.308 208.17 455.15C209.196 456.975 211.114 456.846 211.685 455.424C211.685 455.424 213.889 455.57 214.915 453.728C217.118 453.453 216.243 451.337 216.243 451.337C216.243 451.337 217.421 450.352 217.118 449.512C216.832 448.672 213.451 445.005 211.685 443.309C209.92 441.613 206.539 438.366 206.539 435.975C207.413 431.323 206.539 431.323 206.539 428.496C206.539 425.669 211.097 405.089 214.023 391.972C216.967 378.855 212.997 358.275 212.997 358.275C212.997 358.275 212.711 350.23 214.898 335.143C222.382 313.561 224.3 285.082 221.794 274.226C219.304 263.371 217.824 247.298 215.772 236.297C213.721 225.296 218.564 211.614 218.564 211.614C218.564 211.614 222.382 227.542 223.122 237.283C223.862 247.007 231.044 264.922 233.55 273.096C236.039 281.27 234.29 286.213 235.753 291.285C237.217 296.357 239.722 303.126 242.212 302.851C242.649 303.562 244.112 307.358 246.467 307.503C248.081 310.33 250.285 311.025 249.847 308.343C249.41 305.662 246.904 298.053 247.358 297.343C247.796 296.632 249.259 301.009 250.436 303.966C251.613 306.922 253.228 307.067 253.379 305.371C253.531 303.675 250.739 293.11 250.15 290.429C249.562 287.747 251.176 287.327 252.505 289.298C254.119 294.096 257.5 292.965 257.5 292.545C257.5 292.125 256.171 290.283 254.708 286.487H254.792Z" fill="#E2E2EB"/>
</svg>
