<svg width="17" height="17" viewBox="0 0 17 17" fill="none" xmlns="http://www.w3.org/2000/svg">
<path d="M11.251 2.55273C10.2407 2.55273 9.29076 2.9462 8.57711 3.66042L3.34074 8.89678C2.62652 9.61125 2.23279 10.561 2.23279 11.5709C2.23279 13.6562 3.92937 15.3528 6.01462 15.3528C7.02543 15.3528 7.97485 14.9593 8.68849 14.2451L13.9249 9.00898C14.6396 8.29449 15.0328 7.34477 15.0328 6.33454C15.0328 4.24932 13.3362 2.55273 11.251 2.55273ZM6.32029 8.38569L4.57484 10.1309C4.19018 10.5155 3.97824 11.0272 3.97824 11.5709C3.97824 11.7317 3.84813 11.8619 3.68733 11.8619C3.52653 11.8619 3.39641 11.7317 3.39641 11.5709C3.39641 10.8715 3.66856 10.2141 4.16345 9.71952L5.90891 7.97434C6.02255 7.86069 6.20665 7.86069 6.32026 7.97434C6.43394 8.08796 6.43394 8.27205 6.32029 8.38569ZM13.1021 8.18625L10.6897 10.5984L6.9873 6.89567L9.39985 4.48313C9.89417 3.98854 10.5515 3.71635 11.251 3.71635C12.6947 3.71635 13.8692 4.8908 13.8692 6.33454C13.8692 7.03397 13.597 7.69166 13.1021 8.18625Z" fill="#F78D15"/>
</svg>
