<svg width="21" height="21" viewBox="0 0 21 21" fill="none" xmlns="http://www.w3.org/2000/svg">
<path d="M14.5325 3.39971H13.8039V3.32115C13.8039 2.53545 13.161 1.89258 12.3753 1.89258H8.38961C7.59672 1.89258 6.96104 2.53545 6.96104 3.32115V3.39971H6.23246C5.04676 3.39971 4.0896 4.36402 4.0896 5.54257V16.8926C4.0896 18.0783 5.04676 19.0354 6.23246 19.0354H14.5325C15.711 19.0354 16.6753 18.0783 16.6753 16.8926V5.54257C16.6753 4.36402 15.711 3.39971 14.5325 3.39971ZM8.38961 3.32115H12.3753V4.90684H8.38961V3.32115ZM12.3349 12.3288H11.0946V13.569C11.0946 13.9635 10.7748 14.2833 10.3804 14.2833C9.9859 14.2833 9.66608 13.9635 9.66608 13.569V12.3288H8.42584C8.03138 12.3288 7.71156 12.0089 7.71156 11.6145C7.71156 11.22 8.03138 10.9002 8.42584 10.9002H9.66608V9.65996C9.66608 9.26549 9.9859 8.94567 10.3804 8.94567C10.7748 8.94567 11.0946 9.26549 11.0946 9.65996V10.9002H12.3349C12.7293 10.9002 13.0492 11.22 13.0492 11.6145C13.0492 12.0089 12.7293 12.3288 12.3349 12.3288Z" fill="#A6ACCF"/>
</svg>
