<svg width="30" height="30" viewBox="0 0 30 30" fill="none" xmlns="http://www.w3.org/2000/svg">
<circle cx="15" cy="15" r="14.5" fill="white" stroke="#E7E7ED"/>
<path d="M20.7692 9.69567H18.7716L17.7909 8.25437C17.7387 8.17557 17.667 8.11094 17.5826 8.06648C17.4981 8.02202 17.4036 7.99916 17.3077 8.00002H12.6923C12.5964 7.99916 12.5019 8.02202 12.4174 8.06648C12.333 8.11094 12.2613 8.17557 12.2091 8.25437L11.2284 9.69567H9.23077C8.77233 9.69753 8.3332 9.87678 8.00903 10.1944C7.68486 10.512 7.5019 10.9422 7.5 11.3913V19.3044C7.5019 19.7535 7.68486 20.1837 8.00903 20.5013C8.3332 20.8189 8.77233 20.9981 9.23077 21H20.7692C21.2277 20.9981 21.6668 20.8189 21.991 20.5013C22.3151 20.1837 22.4981 19.7535 22.5 19.3044V11.3913C22.4981 10.9422 22.3151 10.512 21.991 10.1944C21.6668 9.87678 21.2277 9.69753 20.7692 9.69567ZM17.5962 15.0652C17.5962 15.5683 17.4439 16.06 17.1586 16.4783C16.8734 16.8966 16.4679 17.2226 15.9935 17.4151C15.5191 17.6076 14.9971 17.658 14.4935 17.5598C13.9899 17.4617 13.5273 17.2194 13.1642 16.8637C12.8012 16.508 12.5539 16.0548 12.4537 15.5614C12.3536 15.0681 12.405 14.5566 12.6015 14.0919C12.798 13.6271 13.1307 13.2299 13.5577 12.9504C13.9846 12.6709 14.4865 12.5218 15 12.5218C15.6885 12.5218 16.3489 12.7897 16.8358 13.2667C17.3226 13.7437 17.5962 14.3907 17.5962 15.0652Z" fill="#929299"/>
</svg>
