<svg width="17" height="16" viewBox="0 0 17 16" fill="none" xmlns="http://www.w3.org/2000/svg">
<path d="M11.073 2.35938C10.9584 2.3597 10.8501 2.40209 10.7707 2.47671C10.2431 2.96951 9.78319 3.39841 9.25581 3.89097L12.8952 7.29045C13.3999 6.81939 13.9048 6.34826 14.4093 5.87701C14.5785 5.72038 14.5785 5.46492 14.4093 5.30829L11.3795 2.47828C11.298 2.40169 11.1876 2.35892 11.073 2.35938ZM8.64952 4.45803C6.54492 6.42366 4.39189 8.43437 2.58411 10.1228C2.50438 10.1985 2.46014 10.3006 2.46095 10.4068V13.2392C2.46181 13.4591 2.65256 13.6373 2.88803 13.6381H5.92116C6.03492 13.6379 6.14406 13.5954 6.22431 13.52C8.24378 11.6298 10.2669 9.74436 12.2889 7.85764L8.64952 4.45803Z" fill="#BEBEC7"/>
</svg>
