<svg width="24" height="25" viewBox="0 0 24 25" fill="none" xmlns="http://www.w3.org/2000/svg">
<path fill-rule="evenodd" clip-rule="evenodd" d="M11.7037 18.2785C8.28574 18.2785 5.49609 15.514 5.49609 12.0709C5.49609 8.65293 8.28574 5.86328 11.7037 5.86328C15.1216 5.86328 17.9113 8.65293 17.9113 12.0709C17.9113 15.514 15.1216 18.2785 11.7037 18.2785ZM11.7037 7.87384C9.39155 7.87384 7.50665 9.75873 7.50665 12.0709C7.50665 14.383 9.39155 16.2679 11.7037 16.2679C14.0158 16.2679 15.9007 14.383 15.9007 12.0709C15.9007 9.75873 14.0158 7.87384 11.7037 7.87384Z" fill="#0FCE61"/>
<path fill-rule="evenodd" clip-rule="evenodd" d="M17.0305 18.403C16.7792 18.403 16.5028 18.3025 16.3268 18.1014L12.7078 14.4824C12.3057 14.1054 12.3057 13.452 12.7078 13.075C13.0848 12.6729 13.7382 12.6729 14.1152 13.075L17.7342 16.694C18.1363 17.071 18.1363 17.7244 17.7342 18.1014C17.5332 18.3025 17.2818 18.403 17.0305 18.403Z" fill="#0FCE61"/>
</svg>
