<svg width="28" height="29" viewBox="0 0 28 29" fill="none" xmlns="http://www.w3.org/2000/svg">
<rect y="0.367188" width="28" height="28" rx="14" fill="#5967B4"/>
<path fill-rule="evenodd" clip-rule="evenodd" d="M13.9327 21.1075C10.1843 21.1075 7.125 18.0758 7.125 14.2998C7.125 10.5515 10.1843 7.49219 13.9327 7.49219C17.681 7.49219 20.7403 10.5515 20.7403 14.2998C20.7403 18.0758 17.681 21.1075 13.9327 21.1075ZM13.9327 9.6971C11.397 9.6971 9.32991 11.7642 9.32991 14.2998C9.32991 16.8355 11.397 18.9026 13.9327 18.9026C16.4683 18.9026 18.5354 16.8355 18.5354 14.2998C18.5354 11.7642 16.4683 9.6971 13.9327 9.6971Z" fill="white"/>
<path fill-rule="evenodd" clip-rule="evenodd" d="M19.7783 21.248C19.5027 21.248 19.1995 21.1377 19.0066 20.9172L15.0378 16.9484C14.5968 16.535 14.5968 15.8184 15.0378 15.405C15.4512 14.964 16.1678 14.964 16.5812 15.405L20.55 19.3738C20.991 19.7872 20.991 20.5038 20.55 20.9172C20.3296 21.1377 20.0539 21.248 19.7783 21.248Z" fill="white"/>
</svg>
