<svg width="49" height="49" viewBox="0 0 49 49" fill="none" xmlns="http://www.w3.org/2000/svg">
<path d="M35.5 44.2188H7.50064C6.97059 44.2175 6.4626 44.0064 6.08771 43.6317C5.71282 43.257 5.50152 42.7491 5.5 42.2191V4.21939C5.50127 3.68918 5.71246 3.18104 6.08737 2.80612C6.46229 2.43121 6.97043 2.22002 7.50064 2.21875H31.5006V6.21907C31.5022 6.74895 31.7133 7.25669 32.088 7.63138C32.4627 8.00606 32.9704 8.21723 33.5003 8.21875H37.5006V42.2191C37.4991 42.7491 37.2878 43.257 36.9129 43.6317C36.538 44.0064 36.0301 44.2175 35.5 44.2188Z" fill="url(#paint0_linear_1272_124509)"/>
<path d="M5.5 36.2227V42.2227C5.50152 42.7525 5.71269 43.2603 6.08737 43.635C6.46206 44.0096 6.9698 44.2208 7.49968 44.2223H35.5C36.0299 44.2208 36.5376 44.0096 36.9123 43.635C37.287 43.2603 37.4982 42.7525 37.4997 42.2227V36.2227H5.5Z" fill="url(#paint1_linear_1272_124509)" fill-opacity="0.2"/>
<path d="M37.5 8.21875H33.4997C32.9698 8.21723 32.4621 8.00606 32.0874 7.63138C31.7127 7.25669 31.5015 6.74895 31.5 6.21907V2.21875L37.5 8.21875Z" fill="#9AA6E2"/>
<path d="M21.5003 15.2194H12.5003C11.9003 15.2194 11.5 14.8191 11.5 14.2191C11.5 13.6191 11.9003 13.2188 12.5003 13.2188H21.5003C22.1003 13.2188 22.5006 13.6191 22.5006 14.2191C22.5006 14.8191 22.1003 15.2194 21.5003 15.2194Z" fill="#9AA6E2"/>
<path d="M30.5003 20.2184H12.5003C11.9003 20.2184 11.5 19.8181 11.5 19.2181C11.5 18.6181 11.9003 18.2188 12.5003 18.2188H30.5003C31.1003 18.2188 31.5006 18.6191 31.5006 19.2191C31.5006 19.8191 31.1003 20.2184 30.5003 20.2184Z" fill="#9AA6E2"/>
<path d="M26.5 25.2194H12.5003C11.9003 25.2194 11.5 24.8191 11.5 24.2191C11.5 23.6191 11.9003 23.2188 12.5003 23.2188H26.5C27.1 23.2188 27.5003 23.6191 27.5003 24.2191C27.5003 24.8191 27.1 25.2194 26.5 25.2194Z" fill="#9AA6E2"/>
<path d="M37.5 8.21875H33.4997C32.9698 8.21723 32.4621 8.00606 32.0874 7.63138C31.7127 7.25669 31.5015 6.74895 31.5 6.21907V2.21875L37.5 8.21875Z" fill="#8491C1"/>
<path d="M34.5 46.2266C39.4706 46.2266 43.5 42.1971 43.5 37.2266C43.5 32.256 39.4706 28.2266 34.5 28.2266C29.5294 28.2266 25.5 32.256 25.5 37.2266C25.5 42.1971 29.5294 46.2266 34.5 46.2266Z" fill="url(#paint2_linear_1272_124509)"/>
<path d="M37.5036 42.2286C37.2422 42.2263 36.9838 42.172 36.7436 42.069C36.5033 41.966 36.2859 41.8163 36.1039 41.6286L34.5036 40.0283L32.9032 41.6286C32.7207 41.8183 32.5021 41.9696 32.2604 42.0738C32.0186 42.178 31.7585 42.2329 31.4953 42.2354C31.2321 42.2379 30.971 42.1879 30.7273 42.0883C30.4837 41.9887 30.2623 41.8415 30.0762 41.6554C29.89 41.4693 29.7429 41.2479 29.6433 41.0042C29.5437 40.7605 29.4937 40.4995 29.4962 40.2362C29.4987 39.973 29.5536 39.7129 29.6578 39.4712C29.762 39.2295 29.9133 39.0109 30.1029 38.8283L31.7032 37.229L30.1029 35.6286C29.9133 35.4461 29.762 35.2275 29.6578 34.9858C29.5536 34.744 29.4987 34.4839 29.4962 34.2207C29.4937 33.9575 29.5437 33.6964 29.6433 33.4528C29.7429 33.2091 29.89 32.9877 30.0762 32.8016C30.2623 32.6154 30.4837 32.4683 30.7273 32.3687C30.971 32.2691 31.2321 32.2191 31.4953 32.2216C31.7585 32.2241 32.0186 32.279 32.2604 32.3832C32.5021 32.4874 32.7207 32.6387 32.9032 32.8283L34.5036 34.4286L36.1039 32.8283C36.2859 32.6364 36.5046 32.483 36.7469 32.377C36.9892 32.271 37.2503 32.2146 37.5148 32.2111C37.7792 32.2077 38.0417 32.2572 38.2867 32.3568C38.5317 32.4565 38.7543 32.6042 38.9413 32.7912C39.1283 32.9783 39.2759 33.2009 39.3755 33.446C39.475 33.691 39.5245 33.9535 39.5209 34.218C39.5174 34.4824 39.4609 34.7435 39.3548 34.9858C39.2487 35.2281 39.0952 35.4467 38.9032 35.6286L37.3029 37.229L38.9032 38.8283C39.1771 39.1079 39.363 39.4618 39.4377 39.8459C39.5125 40.2301 39.473 40.6278 39.324 40.9898C39.175 41.3517 38.9231 41.662 38.5996 41.8822C38.276 42.1024 37.8949 42.2229 37.5036 42.2286Z" fill="url(#paint3_linear_1272_124509)" fill-opacity="0.3"/>
<path d="M35.9032 37.2258L38.2072 34.9218C38.3901 34.7357 38.4922 34.4848 38.491 34.2238C38.4899 33.9628 38.3857 33.7127 38.2012 33.5282C38.0166 33.3436 37.7666 33.2394 37.5056 33.2383C37.2445 33.2372 36.9936 33.3392 36.8075 33.5222L34.5035 35.8262L32.1995 33.5222C32.0133 33.3392 31.7624 33.2372 31.5014 33.2383C31.2404 33.2394 30.9904 33.3436 30.8058 33.5282C30.6212 33.7127 30.5171 33.9628 30.5159 34.2238C30.5148 34.4848 30.6168 34.7357 30.7998 34.9218L33.1038 37.2258L30.7998 39.5298C30.7051 39.6201 30.6296 39.7287 30.5781 39.849C30.5266 39.9693 30.5 40.0988 30.5 40.2297C30.5 40.3606 30.5266 40.4901 30.5781 40.6104C30.6296 40.7307 30.7051 40.8392 30.7998 40.9295C30.8901 41.0243 30.9987 41.0997 31.119 41.1512C31.2393 41.2028 31.3688 41.2293 31.4996 41.2293C31.6305 41.2293 31.76 41.2028 31.8803 41.1512C32.0006 41.0997 32.1092 41.0243 32.1995 40.9295L34.5035 38.6255L36.8075 40.9295C36.8978 41.0243 37.0064 41.0997 37.1266 41.1512C37.2469 41.2028 37.3765 41.2293 37.5073 41.2293C37.6382 41.2293 37.7677 41.2028 37.888 41.1512C38.0083 41.0997 38.1169 41.0243 38.2072 40.9295C38.3019 40.8392 38.3773 40.7307 38.4289 40.6104C38.4804 40.4901 38.507 40.3606 38.507 40.2297C38.507 40.0988 38.4804 39.9693 38.4289 39.849C38.3773 39.7287 38.3019 39.6201 38.2072 39.5298L35.9032 37.2258Z" fill="url(#paint4_linear_1272_124509)"/>
<defs>
<linearGradient id="paint0_linear_1272_124509" x1="21.4998" y1="2.63875" x2="21.4998" y2="44.2188" gradientUnits="userSpaceOnUse">
<stop stop-color="#EAECF7"/>
<stop offset="1" stop-color="#CDD3F1"/>
</linearGradient>
<linearGradient id="paint1_linear_1272_124509" x1="21.4998" y1="37.7429" x2="21.4998" y2="44.6226" gradientUnits="userSpaceOnUse">
<stop stop-color="#E2E5F4" stop-opacity="0"/>
<stop offset="1" stop-color="#9AA6E2"/>
</linearGradient>
<linearGradient id="paint2_linear_1272_124509" x1="29.1" y1="30.9266" x2="40.26" y2="44.0666" gradientUnits="userSpaceOnUse">
<stop stop-color="#FF4343"/>
<stop offset="1" stop-color="#E40000"/>
</linearGradient>
<linearGradient id="paint3_linear_1272_124509" x1="30.803" y1="32.868" x2="39.0032" y2="42.2683" gradientUnits="userSpaceOnUse">
<stop stop-color="#E40000"/>
<stop offset="1" stop-color="#FF4343" stop-opacity="0"/>
</linearGradient>
<linearGradient id="paint4_linear_1272_124509" x1="30.5032" y1="33.7858" x2="34.503" y2="41.5455" gradientUnits="userSpaceOnUse">
<stop stop-color="#EAECF7"/>
<stop offset="1" stop-color="#CDD3F1"/>
</linearGradient>
</defs>
</svg>
