<svg width="41" height="40" viewBox="0 0 41 40" fill="none" xmlns="http://www.w3.org/2000/svg">
<path d="M39.741 20.0006C39.741 9.34935 31.0459 0.714844 20.32 0.714844C9.59403 0.714844 0.898926 9.34935 0.898926 20.0006C0.898926 30.6518 9.59403 39.2863 20.32 39.2863C31.0459 39.2863 39.741 30.6518 39.741 20.0006Z" fill="#E7FAEF"/>
<path d="M20.35 28.2768C25.0032 28.2768 28.7755 24.5308 28.7755 19.9099C28.7755 15.289 25.0032 11.543 20.35 11.543C15.6966 11.543 11.9243 15.289 11.9243 19.9099C11.9243 24.5308 15.6966 28.2768 20.35 28.2768Z" fill="#DDE8F3" stroke="#B5C4D2"/>
<path d="M20.3495 26.4981C24.0129 26.4981 26.9827 23.5491 26.9827 19.9112C26.9827 16.2734 24.0129 13.3242 20.3495 13.3242C16.6861 13.3242 13.7163 16.2734 13.7163 19.9112C13.7163 23.5491 16.6861 26.4981 20.3495 26.4981Z" fill="#C7D6E4" stroke="#B5C4D2"/>
<path d="M31.9057 20.9516C31.7792 20.9516 31.6579 20.9016 31.5685 20.8128C31.479 20.724 31.4287 20.6036 31.4287 20.4779V18.4502C31.4287 18.3246 31.479 18.2041 31.5685 18.1153C31.6579 18.0265 31.7792 17.9766 31.9057 17.9766C32.0322 17.9766 32.1535 18.0265 32.2429 18.1153C32.3324 18.2041 32.3826 18.3246 32.3826 18.4502V20.4779C32.3826 20.6036 32.3324 20.724 32.2429 20.8128C32.1535 20.9016 32.0322 20.9516 31.9057 20.9516Z" fill="#1FCC68"/>
<path d="M33.3563 12.5552C33.2278 12.5809 33.1125 12.6507 33.0305 12.7524C32.9486 12.8541 32.9053 12.9812 32.9082 13.1113V14.9379C32.9082 14.9982 32.884 15.0562 32.8411 15.0989C32.798 15.1415 32.7397 15.1655 32.6789 15.1655C32.6181 15.1655 32.5598 15.1415 32.5168 15.0989C32.4739 15.0562 32.4497 14.9982 32.4497 14.9379V13.0713C32.4472 12.9314 32.3896 12.798 32.2891 12.6999C32.1886 12.6019 32.0534 12.5469 31.9124 12.5469C31.7715 12.5469 31.6362 12.6019 31.5358 12.6999C31.4353 12.798 31.3776 12.9314 31.3751 13.0713V14.9379C31.3741 14.9975 31.3494 15.0543 31.3065 15.0961C31.2636 15.1379 31.206 15.1613 31.146 15.1613C31.0859 15.1613 31.0282 15.1379 30.9853 15.0961C30.9425 15.0543 30.9179 14.9975 30.9167 14.9379V13.1113C30.9197 12.9811 30.8763 12.854 30.7944 12.7524C30.7124 12.6507 30.5971 12.5809 30.4685 12.5552C30.3912 12.5422 30.312 12.546 30.2363 12.5665C30.1607 12.587 30.0905 12.6237 30.0306 12.6739C29.9707 12.7242 29.9226 12.7867 29.8895 12.8574C29.8565 12.9279 29.8394 13.0049 29.8394 13.0827V17.1214C29.8394 18.2172 30.8336 18.9672 31.9124 18.9672C32.9913 18.9672 33.9855 18.2174 33.9855 17.1214V13.0827C33.9855 13.0049 33.9683 12.9279 33.9353 12.8574C33.9023 12.7867 33.8541 12.7242 33.7942 12.6739C33.7344 12.6237 33.6642 12.587 33.5885 12.5665C33.5129 12.546 33.4336 12.5422 33.3563 12.5552Z" fill="#C7D6E4"/>
<path d="M33.0487 21.3709C33.0487 20.7475 32.5398 20.2422 31.912 20.2422C31.2843 20.2422 30.7754 20.7475 30.7754 21.3709V27.9679C30.7754 28.5913 31.2843 29.0965 31.912 29.0965C32.5398 29.0965 33.0487 28.5913 33.0487 27.9679V21.3709Z" fill="#00A545"/>
<path d="M8.76498 21.1203C8.63853 21.1203 8.51718 21.0704 8.42777 20.9816C8.33829 20.8928 8.28809 20.7723 8.28809 20.6467V18.665C8.28809 18.5394 8.33829 18.4189 8.42777 18.3301C8.51718 18.2413 8.63853 18.1914 8.76498 18.1914C8.89151 18.1914 9.01278 18.2413 9.10226 18.3301C9.19167 18.4189 9.24195 18.5394 9.24195 18.665V20.6467C9.24195 20.7723 9.19167 20.8928 9.10226 20.9816C9.01278 21.0704 8.89151 21.1203 8.76498 21.1203Z" fill="#1FCC68"/>
<path d="M9.90852 21.3826C9.90852 20.7593 9.39962 20.2539 8.77189 20.2539C8.14416 20.2539 7.63525 20.7593 7.63525 21.3826V27.9795C7.63525 28.6029 8.14416 29.1083 8.77189 29.1083C9.39962 29.1083 9.90852 28.6029 9.90852 27.9795V21.3826Z" fill="#00A545"/>
<path d="M7.9041 18.5155C8.16707 18.6693 8.46673 18.7504 8.77193 18.7504C9.07713 18.7504 9.37679 18.6693 9.63976 18.5155C10.4978 18.0205 11.351 17.0755 11.351 15.4165C11.351 14.8207 11.1299 14.0055 10.8171 13.5053C9.83613 11.9357 7.70758 11.9357 6.72671 13.5053C6.41393 14.0055 6.19287 14.8207 6.19287 15.4165C6.19287 17.0755 7.04594 18.0205 7.9041 18.5155Z" fill="#C7D6E4"/>
</svg>
