<svg width="48" height="48" viewBox="0 0 48 48" fill="none" xmlns="http://www.w3.org/2000/svg">
<rect width="48" height="48" rx="24" fill="#F0F4FF"/>
<mask id="mask0_4049_183511" style="mask-type:luminance" maskUnits="userSpaceOnUse" x="8" y="9" width="31" height="31">
<path d="M38.623 9.33984H8.50537V39.4575H38.623V9.33984Z" fill="white"/>
</mask>
<g mask="url(#mask0_4049_183511)">
<path d="M12.92 14.4861C14.3796 14.4861 15.567 15.6736 15.567 17.1332V17.5497L19.6289 13.4882C20.6495 12.4675 22.3101 12.4675 23.3308 13.4882C23.5673 13.7246 23.7483 13.9957 23.8752 14.2853C24.8851 13.7124 26.1936 13.8554 27.0534 14.7152C27.5534 15.2152 27.8288 15.8797 27.8288 16.5867C27.8288 17.294 27.5534 17.9587 27.0534 18.4585L24.5578 20.9541C24.3855 21.1265 24.1596 21.2127 23.934 21.2127C23.7081 21.2127 23.4822 21.1267 23.3101 20.9541C22.9655 20.6097 22.9655 20.0511 23.3101 19.7064L22.0622 18.4585L13.5439 26.9769C13.3752 27.1456 13.1493 27.2354 12.9198 27.2354C12.806 27.2354 12.6914 27.2134 12.5825 27.168C12.2527 27.0315 12.0377 26.7099 12.0377 26.353V22.428C12.0377 21.9413 11.6417 21.5456 11.1553 21.5456C10.6679 21.5456 10.2729 21.1504 10.2729 20.6632V17.1332C10.2729 16.4261 10.5482 15.7614 11.0482 15.2614C11.5482 14.7614 12.213 14.4861 12.92 14.4861Z" fill="#E09380"/>
<path d="M11.1529 19.7789C12.6125 19.7789 13.8 20.9662 13.8 22.426V24.2208L20.8119 17.2089C21.8441 16.1767 23.5233 16.1769 24.5555 17.2089C24.7742 17.4276 24.9458 17.6756 25.072 17.94L25.8032 17.2089C26.3032 16.7089 26.9679 16.4336 27.6749 16.4336C28.3819 16.4336 29.0468 16.7089 29.5467 17.2089C30.0118 17.6739 30.2821 18.2819 30.3175 18.9336C30.9696 18.969 31.5772 19.2394 32.0423 19.7045C32.5423 20.2045 32.8177 20.8692 32.8177 21.5763C32.8177 22.2833 32.5423 22.9481 32.0423 23.448L31.3112 24.1792C31.5757 24.3053 31.8236 24.4772 32.0423 24.696C33.0742 25.7279 33.0742 27.4074 32.0423 28.4393L23.7234 36.7582C22.6341 37.8477 21.203 38.3924 19.7719 38.3924C18.3409 38.3924 16.91 37.8477 15.8204 36.7582L9.45347 30.3911C8.84225 29.7801 8.50586 28.9675 8.50586 28.1033V22.426C8.50586 20.9662 9.69336 19.7789 11.1529 19.7789Z" fill="#FFBEAA"/>
<path d="M30.6816 15.0452C31.1689 15.0452 31.564 14.6503 31.564 14.1629V11.3394C31.564 10.852 31.1689 10.457 30.6816 10.457C30.1942 10.457 29.7993 10.852 29.7993 11.3394V14.1629C29.7993 14.6503 30.1942 15.0452 30.6816 15.0452Z" fill="#226DE7"/>
<path d="M33.9172 16.0464C34.143 16.0464 34.3687 15.9602 34.541 15.7879L36.6586 13.6703C37.0033 13.3258 37.0033 12.767 36.6586 12.4226C36.3142 12.0779 35.7553 12.0779 35.4108 12.4226L33.2932 14.5402C32.9485 14.8847 32.9485 15.4435 33.2932 15.7879C33.4654 15.9602 33.6913 16.0464 33.9172 16.0464Z" fill="#226DE7"/>
<path d="M34.9169 19.2803H37.7405C38.2278 19.2803 38.6229 18.8853 38.6229 18.398C38.6229 17.9106 38.2278 17.5156 37.7405 17.5156H34.9169C34.4296 17.5156 34.0347 17.9106 34.0347 18.398C34.0347 18.8853 34.4296 19.2803 34.9169 19.2803Z" fill="#226DE7"/>
<path d="M11.1529 19.7789C12.6125 19.7789 13.8 20.9662 13.8 22.426V24.2208L20.8119 17.2089C21.8441 16.1767 23.5233 16.1769 24.5555 17.2089C24.7742 17.4276 24.9459 17.6756 25.072 17.94L25.8032 17.2089C26.3032 16.7089 26.9679 16.4336 27.6749 16.4336C28.3819 16.4336 29.0468 16.7089 29.5467 17.2089C30.0118 17.6739 30.2822 18.2819 30.3175 18.9336L14.1568 35.0944L15.8206 36.7582L9.45347 30.3911C8.84226 29.7801 8.50586 28.9675 8.50586 28.1033V22.426C8.50586 20.9662 9.69336 19.7789 11.1529 19.7789Z" fill="#FFBEAA"/>
<path d="M24.5956 29.3495C24.8366 29.5993 25.2347 29.6066 25.4845 29.3655L29.0981 25.8813C29.2613 25.7257 29.3291 25.4944 29.2752 25.2754C29.2212 25.0561 29.0539 24.8828 28.8372 24.8211C28.6202 24.759 28.3866 24.8183 28.2253 24.9761L24.6117 28.4603C24.3619 28.7016 24.3545 29.0993 24.5956 29.3495Z" fill="#E09380"/>
<path d="M19.7372 23.6346C19.9782 23.8844 20.3763 23.8918 20.6261 23.6506L24.2397 20.1664C24.4029 20.0108 24.4707 19.7795 24.4168 19.5606C24.3629 19.3412 24.1955 19.1679 23.9788 19.1062C23.7618 19.0442 23.5282 19.1035 23.3668 19.2612L19.7533 22.7454C19.5034 22.9867 19.4961 23.3845 19.7372 23.6346Z" fill="#E09380"/>
<path d="M21.9873 26.639C22.2281 26.8891 22.6263 26.8962 22.8761 26.6553L29.1995 20.557C29.3627 20.4014 29.4304 20.1701 29.3766 19.9511C29.3226 19.7321 29.1552 19.5588 28.9382 19.4967C28.7212 19.4349 28.4879 19.4941 28.3262 19.6517L22.0032 25.7501C21.7535 25.9911 21.746 26.3892 21.9873 26.639Z" fill="#E09380"/>
<path d="M36.6596 12.4226L33.2941 15.7881C32.9495 15.4435 32.9495 14.8849 33.2941 14.5402L35.4118 12.4226C35.7563 12.0779 36.3151 12.0779 36.6596 12.4226Z" fill="#226DE7"/>
</g>
</svg>
