<svg width="41" height="41" viewBox="0 0 41 41" fill="none" xmlns="http://www.w3.org/2000/svg">
<rect width="41" height="41" rx="20.5" fill="#F0F4FF"/>
<mask id="mask0_4077_173996" style="mask-type:luminance" maskUnits="userSpaceOnUse" x="6" y="6" width="31" height="31">
<path d="M36.4687 6.33984H6.35107V36.456H36.4687V6.33984Z" fill="white"/>
</mask>
<g mask="url(#mask0_4077_173996)">
<path d="M27.5505 15.6978C25.4203 13.8336 23.5803 12.2237 23.5803 8.37547C23.5803 7.93673 23.3165 7.54031 22.9105 7.37289C22.5035 7.20229 22.0383 7.29765 21.7277 7.60819C19.0453 10.2906 17.4386 13.7626 17.1249 17.5007L14.2983 16.0869C13.9602 15.9205 13.5617 15.9364 13.2427 16.1345C12.9226 16.3326 12.7277 16.6814 12.7277 17.0576C12.7277 18.429 12.2783 19.3289 11.7568 20.3707C11.1941 21.4951 10.5571 22.7701 10.5571 24.6544C10.5571 30.6382 15.426 35.5071 21.4098 35.5071C27.3936 35.5071 32.2624 30.6382 32.2624 24.6544C32.2624 19.8206 29.7591 17.631 27.5505 15.6978ZM21.4098 31.1661C19.0156 31.1661 17.0687 29.2191 17.0687 26.825C17.0687 24.7181 20.0119 21.3308 20.6022 20.6737C21.0135 20.2159 21.8062 20.2159 22.2174 20.6737C22.8077 21.3308 25.7508 24.7181 25.7508 26.825C25.7508 29.2191 23.804 31.1661 21.4098 31.1661Z" fill="url(#paint0_linear_4077_173996)"/>
</g>
<defs>
<linearGradient id="paint0_linear_4077_173996" x1="21.4098" y1="35.5071" x2="21.4098" y2="7.28903" gradientUnits="userSpaceOnUse">
<stop stop-color="#FF5A4B"/>
<stop offset="1" stop-color="#FFAF3E"/>
</linearGradient>
</defs>
</svg>
