<svg width="25" height="24" viewBox="0 0 25 24" fill="none" xmlns="http://www.w3.org/2000/svg">
<rect x="6.34766" y="8.66016" width="13.6121" height="6.80604" fill="white"/>
<path d="M12.2862 0.999023C6.2444 0.999023 1.25293 5.9905 1.25293 12.0323C1.25293 13.9464 1.75142 15.8207 2.70845 17.4358C3.44622 18.732 3.02755 20.3869 1.75142 21.1446C1.35263 21.364 1.17324 21.8225 1.29288 22.2613C1.41251 22.6999 1.79136 22.999 2.24991 22.999H12.2862C13.1635 22.999 14.0209 22.8993 14.7587 22.7199C18.8065 21.7827 22.0366 18.5524 22.9738 14.5247C23.1533 13.767 23.2529 12.9295 23.2529 12.0323C23.2529 5.9905 18.3279 0.999023 12.2862 0.999023ZM8.29825 13.0292C7.73987 13.0292 7.30127 12.5905 7.30127 12.0323C7.30127 11.4739 7.73987 11.0353 8.29825 11.0353C8.85662 11.0353 9.29523 11.4739 9.29523 12.0323C9.29523 12.5905 8.85662 13.0292 8.29825 13.0292ZM12.2862 13.0292C11.7278 13.0292 11.2892 12.5905 11.2892 12.0323C11.2892 11.4739 11.7278 11.0353 12.2862 11.0353C12.8445 11.0353 13.2831 11.4739 13.2831 12.0323C13.2831 12.5905 12.8445 13.0292 12.2862 13.0292ZM16.2741 13.0292C15.7157 13.0292 15.2771 12.5905 15.2771 12.0323C15.2771 11.4739 15.7157 11.0353 16.2741 11.0353C16.8325 11.0353 17.2711 11.4739 17.2711 12.0323C17.2711 12.5905 16.8325 13.0292 16.2741 13.0292Z" fill="url(#paint0_linear_1976_134674)"/>
<defs>
<linearGradient id="paint0_linear_1976_134674" x1="14.0005" y1="21.3486" x2="9.00049" y2="4.34863" gradientUnits="userSpaceOnUse">
<stop stop-color="#5FADFF"/>
<stop offset="0.5625" stop-color="#26D5C0"/>
<stop offset="1" stop-color="#3FEB4F"/>
</linearGradient>
</defs>
</svg>
