<svg width="25" height="25" viewBox="0 0 25 25" fill="none" xmlns="http://www.w3.org/2000/svg">
<g clip-path="url(#clip0_355_49583)">
<path d="M12.667 21.291C17.6376 21.291 21.667 17.2616 21.667 12.291C21.667 7.32045 17.6376 3.29102 12.667 3.29102C7.69643 3.29102 3.66699 7.32045 3.66699 12.291C3.66699 17.2616 7.69643 21.291 12.667 21.291Z" fill="#F42A43" stroke="#F42A43" stroke-width="1.75" stroke-miterlimit="10"/>
<path d="M8.16699 16.041L9.66699 14.541L11.167 16.041L12.667 14.541L14.167 16.041L15.667 14.541L17.167 16.041" stroke="white" stroke-width="1.62" stroke-linecap="round" stroke-linejoin="round"/>
<path d="M9.29199 11.541C9.91331 11.541 10.417 11.0373 10.417 10.416C10.417 9.7947 9.91331 9.29102 9.29199 9.29102C8.67067 9.29102 8.16699 9.7947 8.16699 10.416C8.16699 11.0373 8.67067 11.541 9.29199 11.541Z" fill="white"/>
<path d="M16.042 11.541C16.6633 11.541 17.167 11.0373 17.167 10.416C17.167 9.7947 16.6633 9.29102 16.042 9.29102C15.4207 9.29102 14.917 9.7947 14.917 10.416C14.917 11.0373 15.4207 11.541 16.042 11.541Z" fill="white"/>
</g>
<defs>
<clipPath id="clip0_355_49583">
<rect width="24" height="24" fill="white" transform="translate(0.666992 0.291016)"/>
</clipPath>
</defs>
</svg>
