<svg width="49" height="48" viewBox="0 0 49 48" fill="none" xmlns="http://www.w3.org/2000/svg">
<rect x="0.25" width="48" height="48" rx="24" fill="#F0F4FF"/>
<path d="M18.7213 19.6875L14.29 24.1103C12.97 25.4302 12.25 27.1788 12.25 29.0387C12.25 30.8901 12.97 32.6387 14.29 33.9587C15.6099 35.2786 17.3585 35.9986 19.2099 35.9986C21.0698 35.9986 22.8184 35.2786 24.1383 33.9587L28.5697 29.5359L18.7213 19.6875Z" fill="#ADE1C4"/>
<path d="M34.2099 14.04C32.89 12.72 31.1414 12 29.29 12C27.4301 12 25.6815 12.72 24.3616 14.04L18.7217 19.6884L28.5701 29.5368L34.2099 23.8883C35.5214 22.5684 36.2499 20.8198 36.2499 18.9599C36.2499 17.1085 35.5214 15.3599 34.2099 14.04ZM32.0586 15.6899C31.8914 15.8579 31.6703 15.9428 31.45 15.9428C31.2314 15.9428 31.0129 15.8596 30.8466 15.6942C29.9877 14.8422 28.5915 14.8422 27.7344 15.6942C27.3975 16.0276 26.8567 16.0251 26.5215 15.6899C26.1881 15.3539 26.1898 14.8114 26.5258 14.478C28.0506 12.9643 30.5303 12.9651 32.0534 14.478C32.3903 14.8105 32.392 15.3539 32.0586 15.6899Z" fill="#10C160"/>
<path d="M34.2099 14.04C32.89 12.72 31.1414 12 29.29 12C27.4301 12 25.6815 12.72 24.3616 14.04L18.7217 19.6884L28.5701 29.5368L34.2099 23.8883C35.5214 22.5684 36.2499 20.8198 36.2499 18.9599C36.2499 17.1085 35.5214 15.3599 34.2099 14.04ZM32.0586 15.6899C31.8914 15.8579 31.6703 15.9428 31.45 15.9428C31.2314 15.9428 31.0129 15.8596 30.8466 15.6942C29.9877 14.8422 28.5915 14.8422 27.7344 15.6942C27.3975 16.0276 26.8567 16.0251 26.5215 15.6899C26.1881 15.3539 26.1898 14.8114 26.5258 14.478C28.0506 12.9643 30.5303 12.9651 32.0534 14.478C32.3903 14.8105 32.392 15.3539 32.0586 15.6899Z" fill="url(#paint0_linear_1976_134827)"/>
<path d="M26.5266 14.4772C26.1906 14.8106 26.1889 15.3532 26.5223 15.6891C26.8575 16.0243 27.3983 16.0269 27.7352 15.6934C28.5923 14.8423 29.9885 14.8414 30.8474 15.6934C31.0145 15.8589 31.2331 15.942 31.4508 15.942C31.6711 15.942 31.8922 15.8571 32.0594 15.6891C32.3928 15.3532 32.3911 14.8106 32.0542 14.4763C30.5311 12.9635 28.0523 12.9635 26.5266 14.4772Z" fill="white"/>
<defs>
<linearGradient id="paint0_linear_1976_134827" x1="27.4858" y1="12" x2="27.4858" y2="29.5368" gradientUnits="userSpaceOnUse">
<stop stop-color="#10C160"/>
<stop offset="1" stop-color="#0BB654"/>
</linearGradient>
</defs>
</svg>
