<svg width="59" height="58" viewBox="0 0 59 58" fill="none" xmlns="http://www.w3.org/2000/svg">
<g filter="url(#filter0_d_1976_134570)">
<rect x="1.25" width="56" height="56" rx="28" fill="white"/>
<rect x="1.25" width="56" height="56" rx="28" fill="url(#paint0_linear_1976_134570)"/>
<rect x="1.75" y="0.5" width="55" height="55" rx="27.5" stroke="url(#paint1_linear_1976_134570)"/>
<g filter="url(#filter1_dd_1976_134570)">
<path d="M24.059 39.1058C23.5559 39.6431 22.9333 40.0653 22.1913 40.3723C21.4578 40.6708 20.6732 40.8286 19.8374 40.8456V39.2977C20.6305 39.2636 21.3512 39.0632 21.9994 38.6964C22.6561 38.3297 23.1081 37.8478 23.3554 37.2508H20.0037V35.7157H28.383V37.2508H25.1464C25.1123 37.4214 25.0484 37.6176 24.9545 37.8393L28.7412 39.4384L28.1144 40.8456L24.059 39.1058ZM25.0185 43.2507V45.6174H23.381V43.2507H19.492V41.6772H28.9075V43.2507H25.0185ZM36.9497 45.3871V35.5622H38.5488V45.3871H36.9497ZM32.8304 35.6645C33.3933 35.6645 33.8965 35.7967 34.34 36.0611C34.792 36.3255 35.1417 36.6965 35.389 37.1741C35.6448 37.6517 35.7728 38.2018 35.7728 38.8244C35.7728 39.4469 35.6448 40.0013 35.389 40.4874C35.1417 40.965 34.792 41.336 34.34 41.6004C33.8965 41.8648 33.3933 41.997 32.8304 41.997C32.259 41.997 31.7473 41.8648 31.2953 41.6004C30.8432 41.336 30.4893 40.965 30.2335 40.4874C29.9861 40.0013 29.8625 39.4469 29.8625 38.8244C29.8625 38.2018 29.9861 37.6517 30.2335 37.1741C30.4893 36.6965 30.8432 36.3255 31.2953 36.0611C31.7473 35.7967 32.259 35.6645 32.8304 35.6645ZM32.8304 37.1869C32.404 37.1869 32.0628 37.3446 31.807 37.6602C31.5596 37.9672 31.436 38.3553 31.436 38.8244C31.436 39.3105 31.5596 39.7071 31.807 40.0141C32.0628 40.3126 32.404 40.4618 32.8304 40.4618C33.2483 40.4618 33.5852 40.3083 33.841 40.0013C34.0969 39.6943 34.2248 39.302 34.2248 38.8244C34.2248 38.3553 34.0969 37.9672 33.841 37.6602C33.5852 37.3446 33.2483 37.1869 32.8304 37.1869ZM36.3357 44.466C36.0457 44.6025 35.6619 44.7091 35.1843 44.7858C34.7067 44.8541 34.195 44.8882 33.6492 44.8882H29.5938V43.3019H33.7131C34.2334 43.3019 34.7238 43.2678 35.1843 43.1995C35.6534 43.1313 36.0372 43.029 36.3357 42.8925V44.466Z" fill="white"/>
</g>
<path d="M47.8222 26.2827C47.8822 23.481 47.8822 20.6792 47.8222 17.8775C47.7773 15.8924 46.0703 14.239 44.0541 14.1981C35.5193 14.0407 22.9819 14.0407 14.4471 14.1981C12.4309 14.239 10.7238 15.8924 10.679 17.8774C10.619 20.6792 10.619 23.481 10.679 26.2827C10.7239 28.2678 12.4309 29.9212 14.4471 29.962C22.9819 30.1194 35.5193 30.1194 44.0541 29.962C46.0703 29.9211 47.7773 28.2679 47.8222 26.2827Z" fill="#4A4D54"/>
<path d="M11.9067 17.8622C11.9339 16.5351 13.0663 15.433 14.4131 15.4104C22.9709 15.2772 35.5311 15.2772 44.0888 15.4104C45.4354 15.4329 46.568 16.5351 46.5951 17.8622C46.6506 20.674 46.6506 23.4857 46.5951 26.2974C46.5679 27.6246 45.4354 28.7266 44.0888 28.7492C35.531 28.8824 22.9708 28.8824 14.4131 28.7492C13.0664 28.7266 11.9339 27.6246 11.9067 26.2974C11.8512 23.4857 11.8512 20.674 11.9067 17.8622Z" fill="#6A6C72"/>
<path d="M13.133 26.3109C13.0818 23.49 13.0818 20.669 13.133 17.8481C13.1453 17.1808 13.7069 16.6317 14.3833 16.6227C22.9601 16.5138 31.5369 16.5138 40.1137 16.6227C40.7901 16.6317 41.3517 17.1808 41.364 17.8481C41.4151 20.669 41.4151 23.49 41.364 26.3109C41.3517 26.9783 40.79 27.5273 40.1137 27.5363C31.5369 27.6452 22.9601 27.6452 14.3833 27.5363C13.7069 27.5273 13.1453 26.9782 13.133 26.3109Z" fill="#4A4D54"/>
<path d="M13.1334 26.3109C13.0823 23.49 13.0823 20.669 13.1334 17.8481C13.1457 17.1808 13.7074 16.6317 14.3837 16.6227C22.9605 16.5138 35.5398 16.5138 44.1166 16.6227C44.793 16.6317 45.3547 17.1808 45.3669 17.8481C45.4181 20.669 45.4181 23.49 45.3669 26.3109C45.3547 26.9783 44.793 27.5273 44.1166 27.5363C35.5398 27.6452 22.9605 27.6452 14.3837 27.5363C13.7074 27.5273 13.1457 26.9782 13.1334 26.3109Z" fill="#5C5F66"/>
<path d="M17.6347 25.381C15.8049 25.3683 14.2967 23.8875 14.2962 22.0797C14.2967 20.2719 15.8049 18.7911 17.6347 18.7784C19.465 18.7666 20.9414 20.2473 20.9424 22.0797C20.9414 23.9121 19.465 25.3928 17.6347 25.381Z" fill="#3D3F45"/>
<path d="M16.5144 23.1779C16.508 21.3606 18.008 19.8785 19.8404 19.8717C19.9318 19.8714 20.0219 19.876 20.1113 19.8829C19.5059 19.1998 18.6232 18.7726 17.6356 18.7784C15.8058 18.7911 14.2976 20.2718 14.2971 22.0797C14.2974 23.7978 15.6599 25.2184 17.3648 25.3675C16.8401 24.782 16.5174 24.0161 16.5144 23.1779Z" fill="#34363B"/>
<path d="M33.1117 25.381C31.2814 25.3928 29.8051 23.9121 29.804 22.0797C29.8051 20.2474 31.2813 18.7666 33.1117 18.7784C34.9415 18.7911 36.4497 20.2718 36.4502 22.0797C36.4498 23.8875 34.9416 25.3683 33.1117 25.381Z" fill="#FF8928"/>
<path d="M33.1117 25.381C31.2814 25.3928 29.8051 23.9121 29.804 22.0797C29.8051 20.2474 31.2813 18.7666 33.1117 18.7784C34.9415 18.7911 36.4497 20.2718 36.4502 22.0797C36.4498 23.8875 34.9416 25.3683 33.1117 25.381Z" fill="url(#paint2_radial_1976_134570)" style="mix-blend-mode:screen"/>
<path d="M32.0177 23.1821C32.0233 21.3541 33.5006 19.8774 35.3335 19.8883C35.4247 19.8887 35.515 19.8939 35.6045 19.9014C34.9905 19.22 34.0989 18.7841 33.1114 18.7784C31.2811 18.7666 29.8048 20.2473 29.8038 22.0797C29.8046 23.8206 31.1383 25.2437 32.8408 25.3707C32.3271 24.7905 32.0156 24.0236 32.0177 23.1821Z" fill="#FF722B" fill-opacity="0.3"/>
<path d="M40.8656 25.381C39.0353 25.3928 37.559 23.9121 37.5579 22.0797C37.559 20.2474 39.0352 18.7666 40.8656 18.7784C42.6954 18.7911 44.2036 20.2718 44.2041 22.0797C44.2037 23.8875 42.6955 25.3683 40.8656 25.381Z" fill="#3D3F45"/>
<path d="M39.7716 23.1821C39.7772 21.3541 41.2545 19.8774 43.0874 19.8883C43.1786 19.8887 43.2689 19.8939 43.3584 19.9014C42.7444 19.22 41.8528 18.7841 40.8654 18.7784C39.035 18.7666 37.5587 20.2473 37.5577 22.0797C37.5585 23.8206 38.8922 25.2437 40.5948 25.3707C40.081 24.7905 39.7695 24.0236 39.7716 23.1821Z" fill="#34363B"/>
<path d="M40.8656 25.2863C39.0353 25.2981 37.559 23.8174 37.5579 21.985C37.559 20.1527 39.0352 18.6719 40.8656 18.6837C42.6954 18.6964 44.2036 20.1771 44.2041 21.985C44.2037 23.7928 42.6955 25.2735 40.8656 25.2863Z" fill="#3D3F45"/>
<path d="M25.3732 25.403C23.5431 25.4026 22.0509 23.9121 22.0501 22.0799C22.0509 20.2477 23.5431 18.7573 25.3732 18.7568C27.2033 18.7573 28.6956 20.2477 28.6963 22.0799C28.6955 23.912 27.2032 25.4026 25.3732 25.403Z" fill="#3D3F45"/>
<path d="M24.2646 23.1874C24.2642 21.3528 25.7529 19.8636 27.5855 19.8657C27.6768 19.8658 27.767 19.8706 27.8564 19.8779C27.2467 19.1912 26.3596 18.7568 25.372 18.7568C23.542 18.7573 22.0497 20.2477 22.049 22.0799C22.0495 23.8209 23.3976 25.2521 25.1014 25.391C24.5821 24.8043 24.265 24.0328 24.2646 23.1874Z" fill="#34363B"/>
<g filter="url(#filter2_i_1976_134570)">
<path fill-rule="evenodd" clip-rule="evenodd" d="M29.25 3.5C15.719 3.5 4.75 14.469 4.75 28C4.75 41.531 15.719 52.5 29.25 52.5C42.781 52.5 53.75 41.531 53.75 28C53.75 14.469 42.781 3.5 29.25 3.5ZM3.75 28C3.75 13.9167 15.1667 2.5 29.25 2.5C43.3333 2.5 54.75 13.9167 54.75 28C54.75 42.0833 43.3333 53.5 29.25 53.5C15.1667 53.5 3.75 42.0833 3.75 28Z" fill="#FFD8C3" style="mix-blend-mode:color-burn"/>
</g>
</g>
<defs>
<filter id="filter0_d_1976_134570" x="0.434211" y="0" width="57.6316" height="57.6316" filterUnits="userSpaceOnUse" color-interpolation-filters="sRGB">
<feFlood flood-opacity="0" result="BackgroundImageFix"/>
<feColorMatrix in="SourceAlpha" type="matrix" values="0 0 0 0 0 0 0 0 0 0 0 0 0 0 0 0 0 0 127 0" result="hardAlpha"/>
<feOffset dy="0.815789"/>
<feGaussianBlur stdDeviation="0.407895"/>
<feComposite in2="hardAlpha" operator="out"/>
<feColorMatrix type="matrix" values="0 0 0 0 0 0 0 0 0 0 0 0 0 0 0 0 0 0 0.4 0"/>
<feBlend mode="normal" in2="BackgroundImageFix" result="effect1_dropShadow_1976_134570"/>
<feBlend mode="normal" in="SourceGraphic" in2="effect1_dropShadow_1976_134570" result="shape"/>
</filter>
<filter id="filter1_dd_1976_134570" x="18.1689" y="35.2571" width="21.7033" height="12.7013" filterUnits="userSpaceOnUse" color-interpolation-filters="sRGB">
<feFlood flood-opacity="0" result="BackgroundImageFix"/>
<feColorMatrix in="SourceAlpha" type="matrix" values="0 0 0 0 0 0 0 0 0 0 0 0 0 0 0 0 0 0 127 0" result="hardAlpha"/>
<feOffset dy="1.01794"/>
<feGaussianBlur stdDeviation="0.66166"/>
<feComposite in2="hardAlpha" operator="out"/>
<feColorMatrix type="matrix" values="0 0 0 0 0 0 0 0 0 0 0 0 0 0 0 0 0 0 0.25 0"/>
<feBlend mode="normal" in2="BackgroundImageFix" result="effect1_dropShadow_1976_134570"/>
<feColorMatrix in="SourceAlpha" type="matrix" values="0 0 0 0 0 0 0 0 0 0 0 0 0 0 0 0 0 0 127 0" result="hardAlpha"/>
<feOffset dy="0.220263"/>
<feGaussianBlur stdDeviation="0.110132"/>
<feComposite in2="hardAlpha" operator="out"/>
<feColorMatrix type="matrix" values="0 0 0 0 0 0 0 0 0 0 0 0 0 0 0 0 0 0 0.25 0"/>
<feBlend mode="normal" in2="effect1_dropShadow_1976_134570" result="effect2_dropShadow_1976_134570"/>
<feBlend mode="normal" in="SourceGraphic" in2="effect2_dropShadow_1976_134570" result="shape"/>
</filter>
<filter id="filter2_i_1976_134570" x="3.75" y="2.5" width="51.1957" height="51.1957" filterUnits="userSpaceOnUse" color-interpolation-filters="sRGB">
<feFlood flood-opacity="0" result="BackgroundImageFix"/>
<feBlend mode="normal" in="SourceGraphic" in2="BackgroundImageFix" result="shape"/>
<feColorMatrix in="SourceAlpha" type="matrix" values="0 0 0 0 0 0 0 0 0 0 0 0 0 0 0 0 0 0 127 0" result="hardAlpha"/>
<feOffset dx="0.195688" dy="0.489219"/>
<feGaussianBlur stdDeviation="0.0978438"/>
<feComposite in2="hardAlpha" operator="arithmetic" k2="-1" k3="1"/>
<feColorMatrix type="matrix" values="0 0 0 0 0 0 0 0 0 0 0 0 0 0 0 0 0 0 0.1 0"/>
<feBlend mode="plus-darker" in2="shape" result="effect1_innerShadow_1976_134570"/>
</filter>
<linearGradient id="paint0_linear_1976_134570" x1="29.25" y1="0" x2="29.25" y2="56" gradientUnits="userSpaceOnUse">
<stop stop-color="#FFB062"/>
<stop offset="1" stop-color="#F98E23"/>
</linearGradient>
<linearGradient id="paint1_linear_1976_134570" x1="14.1637" y1="-3.7513" x2="37.4916" y2="57.3456" gradientUnits="userSpaceOnUse">
<stop stop-color="white"/>
<stop offset="0.368309" stop-color="white" stop-opacity="0.8"/>
<stop offset="0.609213" stop-color="white"/>
<stop offset="0.986634" stop-color="white" stop-opacity="0.9"/>
</linearGradient>
<radialGradient id="paint2_radial_1976_134570" cx="0" cy="0" r="1" gradientUnits="userSpaceOnUse" gradientTransform="translate(33.1271 22.0797) rotate(90) scale(3.30139 3.32308)">
<stop offset="0.215" stop-color="#FF9A72"/>
<stop offset="1" stop-color="#4F0000"/>
</radialGradient>
</defs>
</svg>
