<svg width="49" height="48" viewBox="0 0 49 48" fill="none" xmlns="http://www.w3.org/2000/svg">
<rect x="0.25" width="48" height="48" rx="24" fill="#F0F4FF"/>
<g clip-path="url(#clip0_1976_134689)">
<path d="M20.0711 26.21C22.5892 23.9498 26.574 24.3339 28.589 27.0683C29.175 25.3364 30.6215 23.8852 32.5885 23.3081C34.2165 22.8301 35.8823 23.0442 37.2365 23.7735V36.7263C37.2365 36.7263 33.1672 37.7374 29.929 35.4629C23.9002 37.3729 17.3103 36.1201 12.2971 31.572C11.4031 30.7604 11.0531 29.5243 11.3942 28.3784L15.3559 14.7733C15.4871 14.3332 15.804 13.9722 16.2237 13.7849L22.0837 11.1726C22.7427 10.8788 23.517 11.0708 23.9625 11.6385L25.6776 13.8222C26.0092 14.245 25.9683 14.85 25.5821 15.2241L23.4578 17.2828C23.0742 17.6543 22.4725 17.6784 22.0601 17.339L21.6356 16.989C21.3124 16.723 20.8618 16.6742 20.4892 16.8652L20.1125 17.0588C19.74 17.2497 19.5165 17.6443 19.5448 18.0625L20.0711 26.21Z" fill="#EDC0A5"/>
<path d="M28.9899 28.6598C28.2504 26.5501 26.2208 25.1327 23.9396 25.1327C22.1386 25.1327 20.4709 26.0124 19.4787 27.4859C19.3573 27.6661 19.1129 27.7139 18.9325 27.5925C18.7522 27.4711 18.7046 27.2266 18.8259 27.0463C19.9646 25.3553 21.8762 24.3457 23.9395 24.3457C26.5546 24.3457 28.8826 25.9748 29.7326 28.3994C29.8045 28.6045 29.6965 28.829 29.4914 28.9009C29.2855 28.9729 29.0616 28.8642 28.9899 28.6598Z" fill="#EA9E8E"/>
</g>
<defs>
<clipPath id="clip0_1976_134689">
<rect width="26.0727" height="26.0727" fill="white" transform="translate(11.2139 10.9648)"/>
</clipPath>
</defs>
</svg>
