<svg width="49" height="48" viewBox="0 0 49 48" fill="none" xmlns="http://www.w3.org/2000/svg">
<rect x="0.25" width="48" height="48" rx="24" fill="#F0F4FF"/>
<path d="M24.25 13.9258C30.1341 13.9258 34.905 18.696 34.9053 24.5801C34.9053 30.4644 30.1343 35.2354 24.25 35.2354C18.3659 35.2351 13.5957 30.4642 13.5957 24.5801C13.5959 18.6961 18.3661 13.926 24.25 13.9258Z" fill="#DDE8F3" stroke="#95A5A5" stroke-width="0.909575"/>
<path d="M24.25 16.1924C28.8823 16.1924 32.6384 19.9478 32.6387 24.5801C32.6387 29.2126 28.8825 32.9688 24.25 32.9688C19.6177 32.9685 15.8623 29.2124 15.8623 24.5801C15.8625 19.9479 19.6179 16.1926 24.25 16.1924Z" fill="#C7D6E4" stroke="#95A5A5" stroke-width="0.909575"/>
<path d="M38.8619 25.9026C38.7019 25.9026 38.5485 25.8391 38.4354 25.726C38.3223 25.6129 38.2588 25.4595 38.2588 25.2995V22.7174C38.2588 22.5574 38.3223 22.404 38.4354 22.2909C38.5485 22.1778 38.7019 22.1143 38.8619 22.1143C39.0218 22.1143 39.1752 22.1778 39.2883 22.2909C39.4014 22.404 39.465 22.5574 39.465 22.7174V25.2995C39.465 25.4595 39.4014 25.6129 39.2883 25.726C39.1752 25.8391 39.0218 25.9026 38.8619 25.9026Z" fill="#1FCC68"/>
<path d="M40.6964 15.2127C40.5338 15.2455 40.3879 15.3344 40.2843 15.4638C40.1807 15.5933 40.126 15.7551 40.1296 15.9209V18.2468C40.1296 18.3237 40.0991 18.3975 40.0447 18.4518C39.9904 18.5062 39.9166 18.5367 39.8398 18.5367C39.7629 18.5367 39.6891 18.5062 39.6348 18.4518C39.5804 18.3975 39.5499 18.3237 39.5499 18.2468V15.8699C39.5468 15.6918 39.4739 15.522 39.3468 15.3971C39.2197 15.2721 39.0487 15.2021 38.8705 15.2021C38.6923 15.2021 38.5212 15.2721 38.3942 15.3971C38.2671 15.522 38.1942 15.6918 38.1911 15.8699V18.2468C38.1897 18.3228 38.1585 18.3951 38.1043 18.4483C38.0501 18.5015 37.9772 18.5313 37.9013 18.5313C37.8253 18.5313 37.7524 18.5015 37.6982 18.4483C37.644 18.3951 37.6128 18.3228 37.6114 18.2468V15.9209C37.6151 15.7551 37.5603 15.5933 37.4567 15.4638C37.3531 15.3343 37.2072 15.2454 37.0446 15.2127C36.9469 15.1961 36.8467 15.201 36.751 15.2272C36.6554 15.2533 36.5666 15.3 36.4909 15.3639C36.4151 15.4279 36.3542 15.5076 36.3125 15.5975C36.2707 15.6874 36.249 15.7854 36.249 15.8845V21.0274C36.249 22.4227 37.5064 23.3779 38.8705 23.3779C40.2347 23.3779 41.4919 22.423 41.4919 21.0274V15.8845C41.4919 15.7854 41.4703 15.6874 41.4285 15.5975C41.3867 15.5076 41.3258 15.4279 41.2501 15.3639C41.1744 15.3 41.0856 15.2533 40.9899 15.2272C40.8943 15.201 40.7941 15.1961 40.6964 15.2127Z" fill="#C7D6E4"/>
<path d="M40.3072 26.4383C40.3072 25.6445 39.6637 25.001 38.8699 25.001C38.0761 25.001 37.4326 25.6445 37.4326 26.4383V34.8389C37.4326 35.6327 38.0761 36.2761 38.8699 36.2761C39.6637 36.2761 40.3072 35.6327 40.3072 34.8389V26.4383Z" fill="#00A545"/>
<path d="M9.60114 26.1194C9.44119 26.1194 9.28779 26.0559 9.17469 25.9428C9.06159 25.8296 8.99805 25.6762 8.99805 25.5163V22.9927C8.99805 22.8328 9.06159 22.6794 9.17469 22.5663C9.28779 22.4532 9.44119 22.3896 9.60114 22.3896C9.76109 22.3896 9.91449 22.4532 10.0276 22.5663C10.1407 22.6794 10.2042 22.8328 10.2042 22.9927V25.5163C10.2042 25.6762 10.1407 25.8296 10.0276 25.9428C9.91449 26.0559 9.76109 26.1194 9.60114 26.1194Z" fill="#1FCC68"/>
<path d="M11.0464 26.4519C11.0464 25.6581 10.4029 25.0146 9.60915 25.0146C8.81537 25.0146 8.17188 25.6581 8.17188 26.4519V34.8525C8.17188 35.6463 8.81537 36.2898 9.60915 36.2898C10.4029 36.2898 11.0464 35.6463 11.0464 34.8525V26.4519Z" fill="#00A545"/>
<path d="M8.51156 22.8019C8.84411 22.9978 9.22301 23.101 9.60895 23.101C9.99488 23.101 10.3738 22.9978 10.7063 22.8019C11.7914 22.1715 12.8702 20.9682 12.8702 18.8557C12.8702 18.0969 12.5906 17.0588 12.1952 16.4218C10.9547 14.4232 8.26309 14.4232 7.02272 16.4218C6.62719 17.0588 6.34766 18.0969 6.34766 18.8557C6.34766 20.9682 7.42639 22.1715 8.51156 22.8019Z" fill="#C7D6E4"/>
</svg>
