<svg width="25" height="25" viewBox="0 0 25 25" fill="none" xmlns="http://www.w3.org/2000/svg">
<g clip-path="url(#clip0_355_49535)">
<path d="M12.3333 21.291C17.3038 21.291 21.3333 17.2616 21.3333 12.291C21.3333 7.32045 17.3038 3.29102 12.3333 3.29102C7.36269 3.29102 3.33325 7.32045 3.33325 12.291C3.33325 17.2616 7.36269 21.291 12.3333 21.291Z" fill="#0D9F4C" stroke="#0D9F4C" stroke-width="1.75" stroke-linecap="round" stroke-linejoin="round"/>
<path d="M8.95825 11.541C9.57957 11.541 10.0833 11.0373 10.0833 10.416C10.0833 9.7947 9.57957 9.29102 8.95825 9.29102C8.33693 9.29102 7.83325 9.7947 7.83325 10.416C7.83325 11.0373 8.33693 11.541 8.95825 11.541Z" fill="white"/>
<path d="M15.7083 11.541C16.3296 11.541 16.8333 11.0373 16.8333 10.416C16.8333 9.7947 16.3296 9.29102 15.7083 9.29102C15.0869 9.29102 14.5833 9.7947 14.5833 10.416C14.5833 11.0373 15.0869 11.541 15.7083 11.541Z" fill="white"/>
<path d="M16.0833 14.541C15.3051 15.8863 13.9992 16.791 12.3333 16.791C10.6673 16.791 9.36138 15.8863 8.58325 14.541" stroke="white" stroke-width="1.75" stroke-linecap="round" stroke-linejoin="round"/>
</g>
<defs>
<clipPath id="clip0_355_49535">
<rect width="24" height="24" fill="white" transform="translate(0.333252 0.291016)"/>
</clipPath>
</defs>
</svg>
