<svg width="49" height="48" viewBox="0 0 49 48" fill="none" xmlns="http://www.w3.org/2000/svg">
<rect x="0.25" width="48" height="48" rx="24" fill="#F0F4FF"/>
<g clip-path="url(#clip0_1976_134873)">
<path d="M32.9021 12.4351L15.864 12.3684C14.8653 12.3645 14.0525 13.1709 14.0486 14.1696L13.9647 35.6152C13.9608 36.6139 14.7672 37.4267 15.7659 37.4306L32.8041 37.4973C33.8028 37.5012 34.6155 36.6947 34.6194 35.696L34.7033 14.2504C34.7072 13.2517 33.9008 12.439 32.9021 12.4351Z" fill="#1B89E5"/>
<path d="M15.6221 12.3643L33.1431 12.4328L33.0558 34.7392L15.5348 34.6706L15.6221 12.3643Z" fill="url(#paint0_linear_1976_134873)"/>
<path d="M24.6704 17.1474L24.0662 17.145C23.8346 17.1444 23.6121 17.2356 23.4477 17.3988C23.2833 17.562 23.1903 17.7837 23.1891 18.0153L23.1884 18.1657C23.1881 18.2156 23.1681 18.2633 23.1327 18.2984C23.0973 18.3336 23.0494 18.3533 22.9995 18.3533L22.8494 18.3526C22.6176 18.3519 22.3951 18.4432 22.2306 18.6065C22.0661 18.7698 21.9731 18.9917 21.972 19.2234L21.9698 19.8285C21.9692 20.0601 22.0605 20.2826 22.2237 20.447C22.3869 20.6114 22.6087 20.7043 22.8404 20.7053L22.9908 20.706C23.0407 20.7062 23.0884 20.7263 23.1236 20.7617C23.1588 20.7971 23.1785 20.845 23.1784 20.8949L23.178 21.0453C23.1774 21.277 23.2687 21.4994 23.432 21.6638C23.5952 21.8281 23.8169 21.9211 24.0486 21.9222L24.6528 21.9243C24.8845 21.925 25.1069 21.8338 25.2714 21.6707C25.4359 21.5076 25.5289 21.2859 25.5301 21.0543L25.5307 20.9031C25.5308 20.8531 25.5508 20.8053 25.5863 20.77C25.6217 20.7348 25.6696 20.7151 25.7196 20.7152L25.8708 20.716C26.1025 20.7166 26.325 20.6253 26.4895 20.462C26.6539 20.2988 26.7469 20.0769 26.7479 19.8452L26.7502 19.2417C26.7507 19.0101 26.6594 18.7877 26.4962 18.6233C26.3329 18.4589 26.1112 18.366 25.8796 18.3649L25.7284 18.3643C25.6784 18.3641 25.6307 18.3441 25.5955 18.3087C25.5603 18.2733 25.5406 18.2253 25.5407 18.1754L25.5413 18.0242C25.5419 17.7925 25.4505 17.5701 25.2872 17.4057C25.1239 17.2413 24.9021 17.1484 24.6704 17.1474Z" fill="#78C5EF"/>
<path d="M30.5799 24.8059L18.133 24.7572C17.9463 24.7565 17.7943 24.9072 17.7936 25.0939C17.7929 25.2807 17.9436 25.4326 18.1304 25.4333L30.5772 25.482C30.7639 25.4828 30.9159 25.332 30.9166 25.1453C30.9173 24.9586 30.7666 24.8066 30.5799 24.8059Z" fill="#78C5EF"/>
<path d="M30.643 27.739L18.106 27.6899C17.9024 27.6891 17.7367 27.8398 17.736 28.0266C17.7353 28.2133 17.8997 28.3653 18.1033 28.3661L30.6403 28.4151C30.8439 28.4159 31.0096 28.2652 31.0103 28.0785C31.011 27.8918 30.8466 27.7398 30.643 27.739Z" fill="#78C5EF"/>
<path d="M30.6094 30.6658L18.1007 30.6169C17.8676 30.616 17.6781 30.7666 17.6774 30.9533C17.6767 31.14 17.865 31.2921 18.098 31.2931L30.6068 31.342C30.8398 31.3429 31.0293 31.1923 31.03 31.0055C31.0308 30.8188 30.8424 30.6667 30.6094 30.6658Z" fill="#78C5EF"/>
<path d="M22.723 11.6591C22.7752 11.6589 22.8264 11.645 22.8716 11.6189C22.9168 11.5927 22.9543 11.5552 22.9804 11.51C23.0066 11.4648 23.0204 11.4136 23.0206 11.3614C23.0207 11.3092 23.0072 11.2578 22.9814 11.2125C22.8512 10.9764 22.7849 10.7105 22.7889 10.441C22.7928 10.1714 22.867 9.9076 23.004 9.67547C23.1411 9.44334 23.3363 9.25094 23.5704 9.11724C23.8044 8.98355 24.0693 8.91319 24.3389 8.91309C24.6085 8.91299 24.8734 8.98315 25.1076 9.11667C25.3417 9.25019 25.5371 9.44244 25.6743 9.67447C25.8115 9.9065 25.8859 10.1703 25.8901 10.4398C25.8942 10.7094 25.8281 10.9753 25.6981 11.2115C25.6722 11.2569 25.6585 11.3082 25.6586 11.3605C25.6587 11.4128 25.6725 11.4641 25.6986 11.5094C25.7247 11.5547 25.7622 11.5923 25.8074 11.6186C25.8526 11.6448 25.9039 11.6588 25.9561 11.6591L28.3451 11.6591C28.4331 11.659 28.5204 11.6764 28.6017 11.7101C28.6831 11.7438 28.7571 11.7931 28.8193 11.8554C28.8816 11.9177 28.931 11.9916 28.9647 12.073C28.9984 12.1544 29.0158 12.2416 29.0157 12.3297L29.0157 13.2529C29.0157 13.6249 28.8679 13.9817 28.6049 14.2447C28.3418 14.5078 27.985 14.6556 27.613 14.6556L21.0658 14.6556C20.6938 14.6556 20.337 14.5078 20.074 14.2447C19.8109 13.9817 19.6631 13.6249 19.6631 13.2529L19.6631 12.3297C19.6631 12.2416 19.6804 12.1544 19.7141 12.073C19.7478 11.9917 19.7972 11.9177 19.8595 11.8554C19.9218 11.7932 19.9957 11.7438 20.0771 11.7101C20.1584 11.6764 20.2456 11.659 20.3337 11.6591L22.723 11.6591Z" fill="#616971"/>
<path d="M24.3395 11.0979C24.6418 11.0979 24.887 10.8528 24.887 10.5504C24.887 10.248 24.6418 10.0029 24.3395 10.0029C24.0371 10.0029 23.792 10.248 23.792 10.5504C23.792 10.8528 24.0371 11.0979 24.3395 11.0979Z" fill="#171819"/>
</g>
<defs>
<linearGradient id="paint0_linear_1976_134873" x1="24.3826" y1="12.3985" x2="24.2953" y2="34.7049" gradientUnits="userSpaceOnUse">
<stop stop-color="#F8F8FC"/>
<stop offset="0.201923" stop-color="white"/>
</linearGradient>
<clipPath id="clip0_1976_134873">
<rect width="29.353" height="29.353" fill="white" transform="translate(10.5732 8.32422)"/>
</clipPath>
</defs>
</svg>
