<?xml version="1.0" encoding="UTF-8"?>
<svg id="_레이어_1" data-name="레이어_1" xmlns="http://www.w3.org/2000/svg" version="1.1" xmlns:xlink="http://www.w3.org/1999/xlink" viewBox="0 0 17 17">
  <!-- Generator: Adobe Illustrator 29.7.1, SVG Export Plug-In . SVG Version: 2.1.1 Build 8)  -->
  <defs>
    <style>
      .st0 {
        fill: #fff;
      }

      .st1 {
        fill: none;
      }

      .st2 {
        clip-path: url(#clippath);
      }
    </style>
    <clipPath id="clippath">
      <rect class="st1" x=".5" y=".3" width="16" height="16"/>
    </clipPath>
  </defs>
  <g class="st2">
    <g>
      <path class="st0" d="M10.2,10.5c-.1,0-.3,0-.4-.1l-1.7-1.7c0,0-.1-.2-.1-.4v-2.7c0-.3.2-.5.5-.5s.5.2.5.5v2.5l1.5,1.5c.2.2.2.5,0,.7s-.2.1-.4.1Z"/>
      <path class="st0" d="M3.4,5.4h1.7c.3,0,.5-.2.5-.5,0-.3-.2-.5-.5-.5h-.5c2.1-2.1,5.6-2.1,7.8,0s2.2,5.6,0,7.8c-2.1,2.1-5.6,2.1-7.8,0-1.3-1.3-1.8-3-1.6-4.7,0-.3-.2-.5-.4-.6-.3,0-.5.2-.6.4-.3,2,.4,4,1.9,5.5,2.5,2.5,6.7,2.6,9.2,0,2.5-2.5,2.5-6.6,0-9.2-2.5-2.5-6.7-2.6-9.2,0v-.5c0-.3-.2-.5-.5-.5-.3,0-.5.2-.5.5v1.7c0,.3.2.5.5.5"/>
    </g>
  </g>
</svg>