<svg width="17" height="17" viewBox="0 0 17 17" fill="none" xmlns="http://www.w3.org/2000/svg">
<g clip-path="url(#clip0_355_49508)">
<path d="M8.5 5.625V8.29167L10.1667 9.95833" stroke="#74747A" stroke-linecap="round" stroke-linejoin="round"/>
<path d="M4.23609 4.02711L3.88254 3.67356L4.23609 4.02711ZM3.39184 4.87136L2.89185 4.87388C2.89322 5.14805 3.11515 5.36998 3.38933 5.37136L3.39184 4.87136ZM5.08636 5.37988C5.3625 5.38127 5.58748 5.15854 5.58887 4.8824C5.59026 4.60626 5.36753 4.38128 5.09139 4.3799L5.08636 5.37988ZM3.88331 3.17182C3.88192 2.89568 3.65694 2.67295 3.3808 2.67433C3.10466 2.67572 2.88193 2.9007 2.88332 3.17684L3.88331 3.17182ZM3.05107 7.48096C3.08857 7.20738 2.89719 6.95519 2.6236 6.91769C2.35002 6.88019 2.09783 7.07158 2.06033 7.34516L3.05107 7.48096ZM13.0748 3.7162C10.528 1.1694 6.41249 1.14361 3.88254 3.67356L4.58965 4.38066C6.72239 2.24792 10.2047 2.26032 12.3677 4.4233L13.0748 3.7162ZM3.92518 12.8658C6.47197 15.4126 10.5875 15.4384 13.1175 12.9085L12.4104 12.2014C10.2776 14.3341 6.79527 14.3217 4.63229 12.1587L3.92518 12.8658ZM13.1175 12.9085C15.6474 10.3785 15.6216 6.26299 13.0748 3.7162L12.3677 4.4233C14.5307 6.58629 14.5431 10.0686 12.4104 12.2014L13.1175 12.9085ZM3.88254 3.67356L3.03829 4.51781L3.74539 5.22492L4.58965 4.38066L3.88254 3.67356ZM3.38933 5.37136L5.08636 5.37988L5.09139 4.3799L3.39435 4.37137L3.38933 5.37136ZM3.89183 4.86885L3.88331 3.17182L2.88332 3.17684L2.89185 4.87388L3.89183 4.86885ZM2.06033 7.34516C1.79271 9.29762 2.41595 11.3566 3.92518 12.8658L4.63229 12.1587C3.3519 10.8783 2.82442 9.1345 3.05107 7.48096L2.06033 7.34516Z" fill="#74747A"/>
</g>
<defs>
<clipPath id="clip0_355_49508">
<rect width="16" height="16" fill="white" transform="translate(0.5 0.291016)"/>
</clipPath>
</defs>
</svg>
