<?xml version="1.0" encoding="UTF-8"?>
<svg id="_레이어_1" data-name="레이어_1" xmlns="http://www.w3.org/2000/svg" version="1.1" xmlns:xlink="http://www.w3.org/1999/xlink" viewBox="0 0 43 43">
  <!-- Generator: Adobe Illustrator 29.7.1, SVG Export Plug-In . SVG Version: 2.1.1 Build 8)  -->
  <defs>
    <style>
      .st0 {
        fill: #fff;
      }

      .st1 {
        fill: none;
      }

      .st2 {
        fill: #929292;
      }

      .st3 {
        clip-path: url(#clippath);
      }
    </style>
    <clipPath id="clippath">
      <rect class="st1" x="6" y="6" width="30" height="30"/>
    </clipPath>
  </defs>
  <circle class="st2" cx="21.5" cy="21.5" r="21.5"/>
  <g class="st3">
    <path class="st0" d="M7.7,20.6l2.9-2.4c.5-.4,1.3-.4,1.8.2l2.4,2.9h0c.4.6.3,1.3-.2,1.8-.5.4-1.3.4-1.7-.1h0s-.5-.6-.5-.6c.2,1.5.9,3,1.9,4.3,3.1,3.7,8.6,4.3,12.3,1.2.3-.2.5-.5.8-.7h0s0,0,0,0c.5-.5,1.3-.5,1.7,0,.5.5.5,1.2,0,1.7h0s0,0,0,0c-.3.3-.6.6-1,.9-4.8,3.9-11.9,3.3-15.8-1.5-1.5-1.8-2.3-3.9-2.5-6l-.5.4c-.5.4-1.3.4-1.8-.2-.4-.5-.4-1.3.2-1.8ZM13.8,12.3c4.8-3.9,11.9-3.3,15.8,1.5,1.5,1.9,2.4,4.1,2.5,6.3l.6-.5c.5-.4,1.3-.4,1.8.2.4.5.4,1.3-.2,1.8l-2.9,2.4c-.5.4-1.3.4-1.8-.2l-2.4-2.9c-.4-.5-.4-1.3.2-1.8.5-.4,1.3-.4,1.8.2l.3.4c-.2-1.5-.9-3-1.9-4.3-3.1-3.7-8.6-4.3-12.3-1.2-.3.2-.5.5-.8.7h0s0,0,0,0c-.5.5-1.3.5-1.7,0-.5-.5-.5-1.2,0-1.7h0s0,0,0,0c.3-.3.6-.6,1-.9Z"/>
  </g>
</svg>