<svg width="32" height="32" viewBox="0 0 32 32" fill="none" xmlns="http://www.w3.org/2000/svg">
<path d="M18.7634 7.06616H22.0767C22.8666 7.06616 23.5064 7.70611 23.5064 8.49621V24.9418C23.5064 25.7319 22.8666 26.3718 22.0767 26.3718H9.92432C9.13442 26.3718 8.49463 25.7319 8.49463 24.9418V8.49621C8.49463 7.70611 9.13442 7.06616 9.92432 7.06616H18.7634Z" fill="#5A9BF1"/>
<path d="M18.573 9.05225H21.3245C21.5075 9.05225 21.6572 9.20203 21.6572 9.38509V24.0303C21.6572 24.2133 21.5075 24.3631 21.3245 24.3631H10.6779C10.4949 24.3631 10.3452 24.2133 10.3452 24.0303V9.38509C10.3452 9.20203 10.4949 9.05225 10.6779 9.05225H18.573Z" fill="white"/>
<path d="M19.6751 18.3494H12.4014C12.2186 18.3494 12.0708 18.1662 12.0708 17.9405C12.0708 17.7147 12.2186 17.5315 12.4014 17.5315H19.6751C19.858 17.5315 20.0057 17.7147 20.0057 17.9405C20.0057 18.1662 19.858 18.3494 19.6751 18.3494Z" fill="#CBDDE6"/>
<path d="M19.6751 19.9903H12.4014C12.2186 19.9903 12.0708 19.8071 12.0708 19.5813C12.0708 19.3556 12.2186 19.1724 12.4014 19.1724H19.6751C19.858 19.1724 20.0057 19.3556 20.0057 19.5813C20.0057 19.8071 19.858 19.9903 19.6751 19.9903Z" fill="#CBDDE6"/>
<path d="M19.6751 21.6199H12.4014C12.2186 21.6199 12.0708 21.4367 12.0708 21.211C12.0708 20.9852 12.2186 20.802 12.4014 20.802H19.6751C19.858 20.802 20.0057 20.9852 20.0057 21.211C20.0057 21.4367 19.858 21.6199 19.6751 21.6199Z" fill="#CBDDE6"/>
<path d="M18.8599 7.41745V8.13247C18.8599 8.52573 18.5382 8.8475 18.145 8.8475H13.856C13.4628 8.8475 13.1411 8.52573 13.1411 8.13247V7.41745C13.1411 7.02418 13.4628 6.70242 13.856 6.70242H14.5708V6.34491C14.5708 5.95164 14.8925 5.62988 15.2856 5.62988H16.7153C17.1085 5.62988 17.4302 5.95164 17.4302 6.34491V6.70242H18.145C18.5382 6.70242 18.8599 7.02418 18.8599 7.41745Z" fill="#3E4D6C"/>
<path d="M17.7677 12.1263H17.082V11.4404C17.082 11.2511 16.9287 11.0974 16.7391 11.0974H15.3676C15.178 11.0974 15.0247 11.2511 15.0247 11.4404V12.1263H14.339C14.1494 12.1263 13.9961 12.2799 13.9961 12.4693V13.8411C13.9961 14.0304 14.1494 14.1841 14.339 14.1841H15.0247V14.87C15.0247 15.0593 15.178 15.213 15.3676 15.213H16.7391C16.9287 15.213 17.082 15.0593 17.082 14.87V14.1841H17.7677C17.9573 14.1841 18.1106 14.0304 18.1106 13.8411V12.4693C18.1106 12.2799 17.9573 12.1263 17.7677 12.1263Z" fill="#5789F8"/>
</svg>
