<svg width="25" height="24" viewBox="0 0 25 24" fill="none" xmlns="http://www.w3.org/2000/svg">
<g clip-path="url(#clip0_1018_118344)">
<path d="M21.1694 8.36074H20.3905C19.9363 4.2711 16.4594 1.08008 12.2506 1.08008C8.04185 1.08008 4.56493 4.2711 4.1107 8.36074H3.33181C1.82635 8.36074 0.601562 9.58552 0.601562 11.091V14.7313C0.601562 16.2368 1.82635 17.4616 3.33181 17.4616H4.96996C5.4726 17.4616 5.88004 17.0541 5.88004 16.5515V9.27082C5.88004 5.75808 8.73788 2.90024 12.2506 2.90024C15.7634 2.90024 18.6212 5.75808 18.6212 9.27082V16.5515C18.6212 18.0569 17.3964 19.2817 15.8909 19.2817H14.8243C14.4486 18.2225 13.437 17.4616 12.2506 17.4616C10.7452 17.4616 9.52037 18.6863 9.52037 20.1918C9.52037 21.6973 10.7452 22.9221 12.2506 22.9221C13.437 22.9221 14.4486 22.1611 14.8243 21.1019H15.8909C18.0885 21.1019 19.9271 19.536 20.3498 17.4616H21.1694C22.6749 17.4616 23.8997 16.2368 23.8997 14.7313V11.091C23.8997 9.58552 22.6749 8.36074 21.1694 8.36074ZM4.05988 15.6414H3.33181C2.82999 15.6414 2.42173 15.2331 2.42173 14.7313V11.091C2.42173 10.5892 2.82999 10.1809 3.33181 10.1809H4.05988V15.6414ZM12.2506 21.1019C11.7488 21.1019 11.3405 20.6936 11.3405 20.1918C11.3405 19.69 11.7488 19.2817 12.2506 19.2817C12.7524 19.2817 13.1607 19.69 13.1607 20.1918C13.1607 20.6936 12.7524 21.1019 12.2506 21.1019ZM22.0795 14.7313C22.0795 15.2331 21.6712 15.6414 21.1694 15.6414H20.4414V10.1809H21.1694C21.6712 10.1809 22.0795 10.5892 22.0795 11.091V14.7313Z" fill="#2B2B2D"/>
</g>
<defs>
<clipPath id="clip0_1018_118344">
<rect width="24" height="24" fill="white" transform="translate(0.25)"/>
</clipPath>
</defs>
</svg>
