<svg width="25" height="24" viewBox="0 0 25 24" fill="none" xmlns="http://www.w3.org/2000/svg">
<path d="M19.3532 17.0558C17.8552 17.0558 16.6364 15.8371 16.6364 14.339C16.6364 12.841 17.8552 11.6222 19.3532 11.6222C20.8513 11.6222 22.07 12.841 22.07 14.339C22.07 15.8371 20.8513 17.0558 19.3532 17.0558ZM19.3532 13.2941C18.7771 13.2941 18.3083 13.7629 18.3083 14.339C18.3083 14.9152 18.7771 15.384 19.3532 15.384C19.9294 15.384 20.3981 14.9152 20.3981 14.339C20.3981 13.7629 19.9294 13.2941 19.3532 13.2941ZM12.6657 17.5156C11.1677 17.5156 9.94893 16.2968 9.94893 14.7988C9.94893 13.3008 11.1677 12.082 12.6657 12.082C14.1638 12.082 15.3825 13.3008 15.3825 14.7988C15.3825 16.2968 14.1638 17.5156 12.6657 17.5156ZM12.6657 13.7539C12.0896 13.7539 11.6208 14.2226 11.6208 14.7988C11.6208 15.375 12.0896 15.8437 12.6657 15.8437C13.2419 15.8437 13.7106 15.375 13.7106 14.7988C13.7106 14.2226 13.2419 13.7539 12.6657 13.7539ZM7.64863 21.9044C7.67589 21.4435 7.32442 21.0478 6.86352 21.0206C5.10145 20.9163 3.72119 19.4502 3.72119 17.6828V10.6496C3.72119 9.61327 4.21314 8.61934 5.03712 7.99088L10.7215 3.65534C11.9155 2.74475 13.5832 2.74475 14.7771 3.65534L20.4615 7.99088C21.2855 8.61934 21.7774 9.61323 21.7774 10.6496C21.7774 11.1113 22.1517 11.4855 22.6134 11.4855C23.0751 11.4855 23.4493 11.1113 23.4493 10.6496C23.4493 9.09512 22.7114 7.60422 21.4754 6.66153L15.791 2.32599C14.0001 0.960023 11.4985 0.960023 9.70759 2.32599L4.02322 6.66153C2.78724 7.60422 2.04932 9.09507 2.04932 10.6496V17.6828C2.04932 20.3339 4.1206 22.5331 6.7648 22.6895C6.7816 22.6905 6.79832 22.691 6.81495 22.691C7.25399 22.691 7.62234 22.3484 7.64863 21.9044ZM10.6595 21.8625C10.6595 20.9636 11.3999 20.2324 12.3101 20.2324H13.4181C13.8798 20.2324 14.254 19.8581 14.254 19.3965C14.254 18.9348 13.8798 18.5605 13.4181 18.5605H12.3101C10.478 18.5605 8.9876 20.0418 8.9876 21.8625C8.9876 22.3242 9.36185 22.6984 9.82353 22.6984C10.2852 22.6984 10.6595 22.3241 10.6595 21.8625ZM23.4493 21.8625C23.4493 19.7217 21.7015 17.98 19.553 17.98H18.9862C16.8378 17.98 15.0899 19.7217 15.0899 21.8625C15.0899 22.3242 15.4642 22.6984 15.9259 22.6984C16.3876 22.6984 16.7618 22.3242 16.7618 21.8625C16.7618 20.6436 17.7597 19.6519 18.9862 19.6519H19.553C20.7796 19.6519 21.7774 20.6436 21.7774 21.8625C21.7774 22.3242 22.1517 22.6984 22.6134 22.6984C23.0751 22.6984 23.4493 22.3241 23.4493 21.8625Z" fill="#2B2B2D"/>
</svg>
