<svg width="32" height="32" viewBox="0 0 32 32" fill="none" xmlns="http://www.w3.org/2000/svg">
<mask id="mask0_1136_96189" style="mask-type:alpha" maskUnits="userSpaceOnUse" x="3" y="4" width="24" height="23">
<path d="M26.1043 14.83L15.5438 24.5526L5.81983 26.2222L3.67383 22.0462L4.03094 10.0552L12.2039 4.98438L22.4052 7.07421L26.1043 14.83Z" fill="#D9D9D9"/>
</mask>
<g mask="url(#mask0_1136_96189)">
<path d="M23.4908 21.2523V15.6168C23.4908 15.074 23.4904 14.8025 23.4244 14.5499C23.3659 14.3261 23.2699 14.1143 23.1399 13.9229C22.9933 13.7069 22.7895 13.5278 22.381 13.1703L17.5052 8.90405C16.7468 8.24045 16.3676 7.90882 15.9409 7.78262C15.5649 7.67142 15.164 7.67142 14.788 7.78262C14.3616 7.90873 13.9829 8.24005 13.2257 8.90264L8.3483 13.1703C7.93982 13.5278 7.73606 13.7069 7.58944 13.9229C7.45951 14.1143 7.36276 14.3261 7.30428 14.5499C7.23828 14.8025 7.23828 15.074 7.23828 15.6168V21.2523C7.23828 22.1989 7.23828 22.672 7.39293 23.0453C7.59912 23.5431 7.99435 23.9391 8.49214 24.1453C8.86548 24.2999 9.33878 24.2999 10.2854 24.2999C11.232 24.2999 11.7058 24.2999 12.0791 24.1453C12.5769 23.9391 12.972 23.5432 13.1782 23.0454C13.3329 22.6721 13.333 22.1988 13.333 21.2522V20.2364C13.333 19.1144 14.2425 18.2048 15.3646 18.2048C16.4866 18.2048 17.3961 19.1144 17.3961 20.2364V21.2522C17.3961 22.1988 17.3961 22.6721 17.5508 23.0454C17.757 23.5432 18.1522 23.9391 18.65 24.1453C19.0233 24.2999 19.4966 24.2999 20.4432 24.2999C21.3898 24.2999 21.8636 24.2999 22.237 24.1453C22.7348 23.9391 23.1299 23.5431 23.3361 23.0453C23.4907 22.672 23.4908 22.1989 23.4908 21.2523Z" fill="#6CABF7"/>
</g>
<path d="M24.6943 17.7576C24.5988 17.7578 24.5086 17.7932 24.4424 17.8553C24.0027 18.266 23.6195 18.6234 23.18 19.0339L26.2128 21.8668C26.6334 21.4742 27.0541 21.0816 27.4745 20.6889C27.6155 20.5584 27.6155 20.3455 27.4745 20.215L24.9497 17.8567C24.8818 17.7928 24.7898 17.7572 24.6943 17.7576ZM22.6747 19.5064C20.9209 21.1445 19.1267 22.8201 17.6202 24.2271C17.5538 24.2902 17.5169 24.3753 17.5176 24.4637V26.8241C17.5183 27.0074 17.6773 27.1558 17.8735 27.1565H20.4011C20.4959 27.1563 20.5868 27.1209 20.6537 27.0581C22.3366 25.4829 24.0225 23.9117 25.7075 22.3395L22.6747 19.5064Z" fill="#88A0B9"/>
</svg>
