<?xml version="1.0" encoding="UTF-8"?>
<svg id="_레이어_1" data-name="레이어_1" xmlns="http://www.w3.org/2000/svg" version="1.1" viewBox="0 0 100 100">
  <!-- Generator: Adobe Illustrator 29.8.0, SVG Export Plug-In . SVG Version: 2.1.1 Build 160)  -->
  <defs>
    <style>
      .st0 {
        fill: #c2daf4;
      }

      .st1 {
        fill: #fff;
      }

      .st2 {
        fill: #f0f0f0;
      }

      .st3 {
        fill: #ac9f9d;
      }

      .st4 {
        fill: #5a9bf1;
      }

      .st5 {
        fill: #955b51;
      }

      .st6 {
        fill: #1bbf88;
      }

      .st7 {
        opacity: .5;
      }
    </style>
  </defs>
  <path class="st0" d="M48.6,96.4h-2.3c-10.5,0-19-8.5-19-19v-14.4h4v14.4c0,8.3,6.7,15,15,15h2.3c8.3,0,15-6.7,15-15s.9-6.9,2.7-9.8l9.5-15.7,3.4,2.1-9.5,15.7c-1.4,2.3-2.2,5-2.2,7.8,0,10.5-8.5,19-19,19Z"/>
  <path class="st0" d="M29.3,65c-5.6,0-10.8-2.2-14.8-6.1-4-4-6.1-9.2-6.1-14.8v-10.2c0-4.9,4-8.9,8.9-8.9h2.9v4h-2.9c-2.7,0-4.9,2.2-4.9,4.9v10.2c0,4.5,1.8,8.8,5,12,3.2,3.2,7.5,5,12,5,0,0,.1,0,.2,0,9.2-.1,16.7-7.9,16.7-17.4v-9.8c0-2.7-2.2-4.9-4.9-4.9h-2.9v-4h2.9c4.9,0,8.9,4,8.9,8.9v9.8c0,11.7-9.3,21.3-20.7,21.4,0,0-.2,0-.3,0Z"/>
  <circle class="st2" cx="77.5" cy="52.9" r="10.4"/>
  <g class="st7">
    <circle class="st3" cx="77.5" cy="52.9" r="4.3"/>
  </g>
  <path class="st4" d="M34,58.2h-9.5c-2.1,0-3.7,1.7-3.7,3.7h0c0,2.1,1.7,3.7,3.7,3.7h1v2.5c0,2.1,1.7,3.7,3.7,3.7s3.7-1.7,3.7-3.7v-2.5h1c2.1,0,3.7-1.7,3.7-3.7h0c0-2.1-1.7-3.7-3.7-3.7Z"/>
  <path class="st5" d="M24.7,30.5l-6.3-.6c-1,0-1.8-1-1.8-2v-1.8c0-1,.8-1.9,1.8-2l6.3-.6c1.2-.1,2.2.8,2.2,2v3.1c0,1.2-1,2.1-2.2,2Z"/>
  <path class="st5" d="M33.9,30.5l6.3-.6c1,0,1.8-1,1.8-2v-1.8c0-1-.8-1.9-1.8-2l-6.3-.6c-1.2-.1-2.2.8-2.2,2v3.1c0,1.2,1,2.1,2.2,2Z"/>
  <path class="st6" d="M73.9,5.6c-8.7,0-15.8,7.1-15.8,15.8s.6,5,1.8,7.2l-3.2,10,10-3.2c2.2,1.1,4.6,1.7,7.2,1.7,8.7,0,15.8-7.1,15.8-15.8s-7.1-15.8-15.8-15.8Z"/>
  <path class="st1" d="M82,17.4h-4v-4c0-.9-.8-1.7-1.7-1.7h-4.6c-.9,0-1.7.8-1.7,1.7v4h-4c-.9,0-1.7.8-1.7,1.7v4.6c0,.9.8,1.7,1.7,1.7h4v4c0,.9.8,1.7,1.7,1.7h4.6c.9,0,1.7-.8,1.7-1.7v-4h4c.9,0,1.7-.8,1.7-1.7v-4.6c0-.9-.8-1.7-1.7-1.7Z"/>
</svg>