<svg width="32" height="32" viewBox="0 0 32 32" fill="none" xmlns="http://www.w3.org/2000/svg">
<path d="M18.8218 6.73438H22.0104C22.7706 6.73438 23.3863 7.35024 23.3863 8.11062V23.9374C23.3863 24.6978 22.7706 25.3136 22.0104 25.3136H10.3153C9.55517 25.3136 8.93945 24.6978 8.93945 23.9374V8.11062C8.93945 7.35024 9.55517 6.73438 10.3153 6.73438H18.8218Z" fill="url(#paint0_linear_3739_163365)"/>
<path d="M18.7639 8.27734H21.5463C21.7314 8.27734 21.8828 8.42881 21.8828 8.61394V23.4241C21.8828 23.6092 21.7314 23.7607 21.5463 23.7607H10.7798C10.5948 23.7607 10.4434 23.6092 10.4434 23.4241V8.61394C10.4434 8.42881 10.5948 8.27734 10.7798 8.27734H18.7639Z" fill="white"/>
<path d="M19.5303 17.4214H12.7954C12.6261 17.4214 12.4893 17.2518 12.4893 17.0427C12.4893 16.8337 12.6261 16.6641 12.7954 16.6641H19.5303C19.6996 16.6641 19.8364 16.8337 19.8364 17.0427C19.8364 17.2518 19.6996 17.4214 19.5303 17.4214Z" fill="#DCE2E9"/>
<path d="M19.5303 18.937H12.7954C12.6261 18.937 12.4893 18.7674 12.4893 18.5584C12.4893 18.3493 12.6261 18.1797 12.7954 18.1797H19.5303C19.6996 18.1797 19.8364 18.3493 19.8364 18.5584C19.8364 18.7674 19.6996 18.937 19.5303 18.937Z" fill="#DCE2E9"/>
<path d="M19.5303 20.4487H12.7954C12.6261 20.4487 12.4893 20.2791 12.4893 20.0701C12.4893 19.861 12.6261 19.6914 12.7954 19.6914H19.5303C19.6996 19.6914 19.8364 19.861 19.8364 20.0701C19.8364 20.2791 19.6996 20.4487 19.5303 20.4487Z" fill="#DCE2E9"/>
<path d="M17.6667 12H17V11.3333C17 11.1493 16.851 11 16.6667 11H15.3333C15.149 11 15 11.1493 15 11.3333V12H14.3333C14.149 12 14 12.1493 14 12.3333V13.6667C14 13.8507 14.149 14 14.3333 14H15V14.6667C15 14.8507 15.149 15 15.3333 15H16.6667C16.851 15 17 14.8507 17 14.6667V14H17.6667C17.851 14 18 13.8507 18 13.6667V12.3333C18 12.1493 17.851 12 17.6667 12Z" fill="#38AE20"/>
<path d="M18.9147 7.07577V7.76389C18.9147 8.14236 18.6051 8.45201 18.2268 8.45201H14.0991C13.7207 8.45201 13.4111 8.14236 13.4111 7.76389V7.07577C13.4111 6.6973 13.7207 6.38765 14.0991 6.38765H14.787V6.04359C14.787 5.66512 15.0966 5.35547 15.475 5.35547H16.8509C17.2292 5.35547 17.5388 5.66512 17.5388 6.04359V6.38765H18.2268C18.6051 6.38765 18.9147 6.6973 18.9147 7.07577Z" fill="#4F7A5F"/>
<defs>
<linearGradient id="paint0_linear_3739_163365" x1="16.1629" y1="6.73438" x2="16.1629" y2="25.3136" gradientUnits="userSpaceOnUse">
<stop stop-color="#67D051"/>
<stop offset="1" stop-color="#45B62E"/>
</linearGradient>
</defs>
</svg>
