<svg width="21" height="25" viewBox="0 0 21 25" fill="none" xmlns="http://www.w3.org/2000/svg">
<g filter="url(#filter0_d_1013_91021)">
<path d="M14 4.33464H15.75C16.2141 4.33464 16.6592 4.53657 16.9874 4.89601C17.3156 5.25546 17.5 5.74297 17.5 6.2513V19.668C17.5 20.1763 17.3156 20.6638 16.9874 21.0233C16.6592 21.3827 16.2141 21.5846 15.75 21.5846H5.25C4.78587 21.5846 4.34075 21.3827 4.01256 21.0233C3.68437 20.6638 3.5 20.1763 3.5 19.668V6.2513C3.5 5.74297 3.68437 5.25546 4.01256 4.89601C4.34075 4.53657 4.78587 4.33464 5.25 4.33464H7M7.875 2.41797H13.125C13.6082 2.41797 14 2.84703 14 3.3763V5.29297C14 5.82224 13.6082 6.2513 13.125 6.2513H7.875C7.39175 6.2513 7 5.82224 7 5.29297V3.3763C7 2.84703 7.39175 2.41797 7.875 2.41797Z" stroke="#1E1E1E" stroke-linecap="round" stroke-linejoin="round"/>
</g>
<defs>
<filter id="filter0_d_1013_91021" x="-1" y="0.5" width="23" height="25" filterUnits="userSpaceOnUse" color-interpolation-filters="sRGB">
<feFlood flood-opacity="0" result="BackgroundImageFix"/>
<feColorMatrix in="SourceAlpha" type="matrix" values="0 0 0 0 0 0 0 0 0 0 0 0 0 0 0 0 0 0 127 0" result="hardAlpha"/>
<feOffset dy="1"/>
<feGaussianBlur stdDeviation="0.5"/>
<feComposite in2="hardAlpha" operator="out"/>
<feColorMatrix type="matrix" values="0 0 0 0 0 0 0 0 0 0 0 0 0 0 0 0 0 0 0.25 0"/>
<feBlend mode="normal" in2="BackgroundImageFix" result="effect1_dropShadow_1013_91021"/>
<feBlend mode="normal" in="SourceGraphic" in2="effect1_dropShadow_1013_91021" result="shape"/>
</filter>
</defs>
</svg>
