<svg width="20" height="21" viewBox="0 0 20 21" fill="none" xmlns="http://www.w3.org/2000/svg">
<path d="M17.0827 10.9376H18.3327V13.4376H17.0827V10.9376ZM14.9993 10.9376H16.2493V13.4376H14.9993V10.9376ZM14.166 10.9376H12.216L14.166 12.8876V10.9376ZM12.0827 7.31258H13.3577C14.2327 7.31258 14.9993 7.92925 14.9993 9.02091V10.1042H16.2493V8.73758C16.2493 7.22925 14.916 6.10425 13.3577 6.10425H12.0827C11.2327 6.10425 10.541 5.28758 10.541 4.43758C10.541 3.58758 11.2327 2.97925 12.0827 2.97925V1.72925C10.541 1.72925 9.29102 2.97925 9.29102 4.52091C9.29102 6.06258 10.541 7.31258 12.0827 7.31258ZM15.7077 4.04591C16.2243 3.53758 16.541 2.83758 16.541 2.06258H15.291C15.291 2.91258 14.5993 3.60425 13.7493 3.60425V4.85425C15.616 4.85425 17.0827 6.37925 17.0827 8.24591V10.1042H18.3327V8.23758C18.3327 6.38758 17.266 4.78758 15.7077 4.04591ZM2.84102 3.92925L1.66602 5.10425L7.49935 10.9376H1.66602V13.4376H9.99935L15.8327 19.2709L17.0077 18.0959L2.84102 3.92925Z" fill="#00BF18"/>
</svg>
