<svg width="63" height="63" viewBox="0 0 63 63" fill="none" xmlns="http://www.w3.org/2000/svg">
<ellipse cx="31.0227" cy="31.5" rx="31.0227" ry="31.5" fill="#ECECEC"/>
<path d="M18.5 37H43.5V39.5H18.5V37ZM19.9375 31.9375L21 30.0875L22.0625 31.9375L23.6875 31L22.625 29.15H24.75V27.275H22.625L23.6875 25.4375L22.0625 24.5L21 26.3375L19.9375 24.5L18.3125 25.4375L19.375 27.275H17.25V29.15H19.375L18.3125 31L19.9375 31.9375ZM28.3125 31L29.9375 31.9375L31 30.0875L32.0625 31.9375L33.6875 31L32.625 29.15H34.75V27.275H32.625L33.6875 25.4375L32.0625 24.5L31 26.3375L29.9375 24.5L28.3125 25.4375L29.375 27.275H27.25V29.15H29.375L28.3125 31ZM44.75 27.275H42.625L43.6875 25.4375L42.0625 24.5L41 26.3375L39.9375 24.5L38.3125 25.4375L39.375 27.275H37.25V29.15H39.375L38.3125 31L39.9375 31.9375L41 30.0875L42.0625 31.9375L43.6875 31L42.625 29.15H44.75V27.275Z" fill="#00BF18"/>
</svg>
