<svg width="63" height="63" viewBox="0 0 63 63" fill="none" xmlns="http://www.w3.org/2000/svg">
<ellipse cx="31.0227" cy="31.5" rx="31.0227" ry="31.5" fill="#ECECEC"/>
<path d="M41 38.25H21V23.25H33.625C33.525 22.7625 33.4 21.8625 33.625 20.75H21C19.625 20.75 18.5 21.875 18.5 23.25V45.75L23.5 40.75H41C42.375 40.75 43.5 39.625 43.5 38.25V26.975C42.775 27.525 41.925 27.9375 41 28.125V38.25Z" fill="#00BF18"/>
<path d="M39.75 25.75C41.8211 25.75 43.5 24.0711 43.5 22C43.5 19.9289 41.8211 18.25 39.75 18.25C37.6789 18.25 36 19.9289 36 22C36 24.0711 37.6789 25.75 39.75 25.75Z" fill="#00BF18"/>
<path d="M33.5 33.25H23.5V35.75H33.5V33.25Z" fill="#00BF18"/>
<path d="M38.5 29.5H23.5V32H38.5V29.5Z" fill="#00BF18"/>
<path d="M23.5 28.25H38.5V28.125C36.9875 27.8125 35.6875 26.9375 34.7875 25.75H23.5V28.25Z" fill="#00BF18"/>
</svg>
