<svg width="57" height="57" viewBox="0 0 57 57" fill="none" xmlns="http://www.w3.org/2000/svg">
<rect x="0.5" y="0.109375" width="56" height="56" rx="28" fill="#EBF6F0"/>
<path d="M22.1894 23.1875L17.1309 28.2362C15.6241 29.743 14.8022 31.739 14.8022 33.8622C14.8022 35.9756 15.6241 37.9716 17.1309 39.4784C18.6377 40.9852 20.6337 41.8071 22.7471 41.8071C24.8703 41.8071 26.8663 40.9852 28.3731 39.4784L33.4316 34.4297L22.1894 23.1875Z" fill="#ADE1C4"/>
<path d="M39.8702 16.7427C38.3634 15.2359 36.3674 14.4141 34.254 14.4141C32.1308 14.4141 30.1348 15.2359 28.628 16.7427L22.1899 23.1906L33.4321 34.4328L39.8702 27.9849C41.3672 26.4781 42.1989 24.4821 42.1989 22.3589C42.1989 20.2455 41.3672 18.2495 39.8702 16.7427ZM37.4143 18.6262C37.2235 18.818 36.9711 18.9149 36.7197 18.9149C36.4702 18.9149 36.2207 18.8199 36.0308 18.6311C35.0504 17.6585 33.4566 17.6585 32.4782 18.6311C32.0936 19.0117 31.4762 19.0088 31.0937 18.6262C30.7131 18.2427 30.715 17.6233 31.0986 17.2427C32.8392 15.5148 35.6698 15.5158 37.4085 17.2427C37.793 17.6223 37.795 18.2427 37.4143 18.6262Z" fill="#10C160"/>
<path d="M39.8702 16.7427C38.3634 15.2359 36.3674 14.4141 34.254 14.4141C32.1308 14.4141 30.1348 15.2359 28.628 16.7427L22.1899 23.1906L33.4321 34.4328L39.8702 27.9849C41.3672 26.4781 42.1989 24.4821 42.1989 22.3589C42.1989 20.2455 41.3672 18.2495 39.8702 16.7427ZM37.4143 18.6262C37.2235 18.818 36.9711 18.9149 36.7197 18.9149C36.4702 18.9149 36.2207 18.8199 36.0308 18.6311C35.0504 17.6585 33.4566 17.6585 32.4782 18.6311C32.0936 19.0117 31.4762 19.0088 31.0937 18.6262C30.7131 18.2427 30.715 17.6233 31.0986 17.2427C32.8392 15.5148 35.6698 15.5158 37.4085 17.2427C37.793 17.6223 37.795 18.2427 37.4143 18.6262Z" fill="url(#paint0_linear_903_248426)"/>
<path d="M31.0991 17.2414C30.7155 17.622 30.7136 18.2413 31.0942 18.6249C31.4767 19.0074 32.0941 19.0104 32.4787 18.6298C33.4571 17.6582 35.051 17.6572 36.0313 18.6298C36.2221 18.8186 36.4716 18.9135 36.7202 18.9135C36.9716 18.9135 37.2241 18.8166 37.4148 18.6249C37.7955 18.2413 37.7935 17.622 37.409 17.2404C35.6703 15.5135 32.8407 15.5135 31.0991 17.2414Z" fill="white"/>
<defs>
<linearGradient id="paint0_linear_903_248426" x1="32.1944" y1="14.4141" x2="32.1944" y2="34.4328" gradientUnits="userSpaceOnUse">
<stop stop-color="#10C160"/>
<stop offset="1" stop-color="#0BB654"/>
</linearGradient>
</defs>
</svg>
