<svg width="20" height="20" viewBox="0 0 20 20" fill="none" xmlns="http://www.w3.org/2000/svg">
<g clip-path="url(#clip0_1245_105919)">
<path d="M12.0781 2.49512L17.497 7.91403L15.6533 9.75777L10.2344 4.33885L12.0781 2.49512Z" fill="#EFEFEF"/>
<path d="M17.4977 7.91738L12.0781 2.49781L13.3857 1.19019C14.1745 0.401447 15.4525 0.401447 16.2412 1.19019L18.8053 3.75427C19.5941 4.54302 19.5941 5.82102 18.8053 6.60976L17.4977 7.91738Z" fill="#4284EE"/>
<path d="M13.8442 7.95508L15.6859 6.11344L17.4956 7.9232L15.654 9.76483L13.8442 7.95508Z" fill="#DDDDDD"/>
<path d="M18.8095 6.61535L17.5006 7.92431L15.6909 6.11465L16.9999 4.80568C17.79 4.0156 17.7853 2.73557 16.9999 1.9502L18.8095 3.75986C19.5942 4.54524 19.5996 5.82526 18.8095 6.61535Z" fill="#2372EF"/>
<path d="M8.96014 16.463L6.77562 18.6475C6.43644 18.9867 5.98284 19.1866 5.50435 19.2081L1.24972 19.4006C0.884283 19.4174 0.583458 19.1159 0.600283 18.7505L0.792757 14.4958C0.814293 14.0167 1.01417 13.5637 1.35336 13.2246L3.53788 11.04L8.96014 16.463Z" fill="#FFDFA6"/>
<path d="M2.56055 13.8146C2.0612 13.3152 2.0612 12.5063 2.56055 12.007L10.2299 4.33691L12.0376 6.14456L4.3682 13.8146C3.86884 14.3133 3.05991 14.3133 2.56055 13.8146Z" fill="#0EA6D9"/>
<path d="M4.36671 15.6215C3.86735 15.1222 3.86735 14.3133 4.36671 13.8139L12.0361 6.14453L13.8437 7.95218L6.17435 15.6215C5.67499 16.1209 4.86539 16.1209 4.36671 15.6215Z" fill="#13B6EC"/>
<path d="M6.18067 17.4321C5.68131 16.9327 5.68131 16.1238 6.18067 15.6244L13.85 7.95508L15.6577 9.76272L7.98832 17.4321C7.48896 17.9315 6.67935 17.9315 6.18067 17.4321Z" fill="#0EA6D9"/>
<path d="M3.46447 19.2966L3.00684 19.3167L1.25034 19.3955C0.884905 19.4116 0.584079 19.1108 0.600231 18.7454L0.67897 16.9889L0.69916 16.5312C1.1716 16.8644 1.67903 17.2823 2.19589 17.7992C2.7087 18.312 3.12596 18.8194 3.46447 19.2966Z" fill="#3E4D6C"/>
</g>
<defs>
<clipPath id="clip0_1245_105919">
<rect width="20" height="20" fill="white"/>
</clipPath>
</defs>
</svg>
