<svg width="20" height="20" viewBox="0 0 20 20" fill="none" xmlns="http://www.w3.org/2000/svg">
<g clip-path="url(#clip0_1245_105899)">
<path d="M19.2093 19.2108C18.3461 20.0722 16.9477 20.0721 16.0847 19.2106L8.1499 11.2898L11.2778 8.16797L19.2095 16.0857C20.0737 16.9484 20.0737 18.3481 19.2093 19.2108Z" fill="#0795FE"/>
<path d="M7.37222 13.9222C10.9967 13.9222 13.9349 10.9895 13.9349 7.37176C13.9349 3.75404 10.9967 0.821289 7.37222 0.821289C3.74777 0.821289 0.80957 3.75404 0.80957 7.37176C0.80957 10.9895 3.74777 13.9222 7.37222 13.9222Z" fill="white"/>
<path d="M9.47886 11.8184C5.85443 11.8184 2.91621 8.88565 2.91621 5.26795C2.91621 4.00039 3.27729 2.81717 3.90187 1.81445C2.04516 2.97146 0.80957 5.02885 0.80957 7.37459C0.80957 10.9923 3.74779 13.9251 7.37222 13.9251C9.72673 13.9251 11.7913 12.6872 12.9492 10.8281C11.9424 11.4555 10.7532 11.8184 9.47886 11.8184Z" fill="#E6E7E8"/>
<path d="M7.36959 14.5898C3.37923 14.5898 0.132812 11.3488 0.132812 7.36522C0.132812 3.38161 3.37923 0.140625 7.36959 0.140625C11.3599 0.140625 14.6064 3.38157 14.6064 7.36522C14.6064 11.3489 11.3599 14.5898 7.36959 14.5898ZM7.36959 1.48888C4.12266 1.48888 1.48106 4.125 1.48106 7.36522C1.48106 10.6054 4.12266 13.2416 7.36959 13.2416C10.6165 13.2416 13.2581 10.6054 13.2581 7.36522C13.2581 4.125 10.6166 1.48888 7.36959 1.48888Z" fill="#3E4D6C"/>
<path d="M4.0186 9.63757C3.71128 9.84775 3.28672 9.77059 3.12233 9.43653C2.80638 8.79448 2.6416 8.089 2.6416 7.36394C2.6416 6.62426 2.81267 5.90602 3.14062 5.25434C3.30799 4.92177 3.73321 4.84832 4.03869 5.06115C4.34417 5.27398 4.41177 5.69257 4.26393 6.03426C4.08348 6.45132 3.98985 6.90176 3.98985 7.36394C3.98985 7.8157 4.07952 8.25682 4.25239 8.66638C4.39716 9.00939 4.32591 9.42739 4.0186 9.63757Z" fill="#0795FE"/>
</g>
<defs>
<clipPath id="clip0_1245_105899">
<rect width="20" height="20" fill="white"/>
</clipPath>
</defs>
</svg>
