<svg width="20" height="20" viewBox="0 0 20 20" fill="none" xmlns="http://www.w3.org/2000/svg">
<path d="M18.3125 5.29492H1.6875C0.75552 5.29492 0 6.05044 0 6.98242V16.9074C0 17.8394 0.75552 18.5949 1.6875 18.5949H18.3125C19.2445 18.5949 20 17.8394 20 16.9074V6.98242C20 6.05044 19.2445 5.29492 18.3125 5.29492Z" fill="#3D4C70"/>
<path d="M13.9665 6.31719H6.03214C5.91786 6.31722 5.80511 6.29097 5.70259 6.24048C5.60008 6.18998 5.51055 6.11658 5.44093 6.02597C5.3713 5.93535 5.32345 5.82993 5.30106 5.71787C5.27868 5.60581 5.28236 5.4901 5.31183 5.37969L6.23526 1.96406C6.27728 1.80452 6.37084 1.66334 6.50139 1.56246C6.63194 1.46158 6.79216 1.40666 6.95714 1.40625H13.0415C13.2059 1.40639 13.3656 1.46063 13.4961 1.5606C13.6266 1.66057 13.7205 1.80071 13.7634 1.95938L14.6868 5.375C14.7171 5.48572 14.7215 5.60194 14.6995 5.71461C14.6775 5.82728 14.6298 5.93335 14.5601 6.02454C14.4904 6.11574 14.4005 6.1896 14.2976 6.24036C14.1946 6.29112 14.0813 6.31741 13.9665 6.31719Z" fill="#3D4C70"/>
<path d="M10.0024 16.6602C12.7509 16.6602 14.979 14.4321 14.979 11.6836C14.979 8.93511 12.7509 6.70703 10.0024 6.70703C7.25396 6.70703 5.02588 8.93511 5.02588 11.6836C5.02588 14.4321 7.25396 16.6602 10.0024 16.6602Z" fill="#2F3A5A"/>
<path d="M9.99834 15.5543C12.1367 15.5543 13.8702 13.8208 13.8702 11.6824C13.8702 9.54404 12.1367 7.81055 9.99834 7.81055C7.85996 7.81055 6.12646 9.54404 6.12646 11.6824C6.12646 13.8208 7.85996 15.5543 9.99834 15.5543Z" fill="#6A6F7C"/>
<path d="M9.99932 14.234C11.4085 14.234 12.5509 13.0916 12.5509 11.6824C12.5509 10.2732 11.4085 9.13086 9.99932 9.13086C8.59013 9.13086 7.44775 10.2732 7.44775 11.6824C7.44775 13.0916 8.59013 14.234 9.99932 14.234Z" fill="#6BB3D9"/>
<path d="M18.2397 6.70703H16.5163C16.3765 6.70703 16.2632 6.82036 16.2632 6.96016V7.66641C16.2632 7.8062 16.3765 7.91953 16.5163 7.91953H18.2397C18.3795 7.91953 18.4929 7.8062 18.4929 7.66641V6.96016C18.4929 6.82036 18.3795 6.70703 18.2397 6.70703Z" fill="#DBE2EB"/>
<path d="M11.9172 2.58398H8.07031C7.97107 2.58398 7.89062 2.66443 7.89062 2.76367V4.46367C7.89062 4.56291 7.97107 4.64336 8.07031 4.64336H11.9172C12.0164 4.64336 12.0969 4.56291 12.0969 4.46367V2.76367C12.0969 2.66443 12.0164 2.58398 11.9172 2.58398Z" fill="#DBE2EB"/>
</svg>
