<svg width="20" height="20" viewBox="0 0 20 20" fill="none" xmlns="http://www.w3.org/2000/svg">
<g clip-path="url(#clip0_693_66850)">
<path fill-rule="evenodd" clip-rule="evenodd" d="M1.79688 0.625H18.2031C18.8486 0.625 19.375 1.15141 19.375 1.79688V18.2031C19.375 18.8486 18.8486 19.375 18.2031 19.375H1.79688C1.15145 19.375 0.625 18.8486 0.625 18.2031V1.79688C0.625 1.15145 1.15145 0.625 1.79688 0.625Z" fill="#A4D4FF"/>
<path fill-rule="evenodd" clip-rule="evenodd" d="M19.3729 9.19723V18.2036C19.3729 18.8491 18.8465 19.3755 18.2011 19.3755H3.15384C2.97189 18.9482 3.0547 18.4335 3.40232 18.0859L15.0033 6.48488C15.4597 6.02848 16.2042 6.02848 16.6606 6.48488L19.3729 9.19723Z" fill="#89C053"/>
<path fill-rule="evenodd" clip-rule="evenodd" d="M16.272 19.3755H1.79688C1.15145 19.3755 0.625 18.8491 0.625 18.2036V14.6152L5.23969 10.0005C5.69609 9.5441 6.44055 9.5441 6.89695 10.0005L16.272 19.3755Z" fill="#9ACD68"/>
<path d="M5.97849 7.32484C7.35912 6.75256 8.01442 5.16942 7.44215 3.78879C6.86988 2.40816 5.28673 1.75286 3.9061 2.32513C2.52547 2.89741 1.87017 4.48055 2.44244 5.86118C3.01472 7.24181 4.59786 7.89711 5.97849 7.32484Z" fill="#FDCD56"/>
</g>
<defs>
<clipPath id="clip0_693_66850">
<rect width="20" height="20" fill="white"/>
</clipPath>
</defs>
</svg>
