<svg width="57" height="57" viewBox="0 0 57 57" fill="none" xmlns="http://www.w3.org/2000/svg">
<path d="M38.8451 41.6444L42.0535 38.436C42.1192 38.3703 42.2083 38.3334 42.3012 38.3334C42.3941 38.3334 42.4832 38.3703 42.5489 38.436L53.2608 49.1478C53.7523 49.6393 54.0284 50.3059 54.0284 51.001C54.0284 51.696 53.7523 52.3626 53.2608 52.8541C52.7693 53.3456 52.1027 53.6217 51.4077 53.6217C50.7126 53.6217 50.046 53.3456 49.5545 52.8541L38.8441 42.1436C38.8116 42.1111 38.7858 42.0725 38.7681 42.03C38.7505 41.9875 38.7415 41.9419 38.7415 41.8959C38.7415 41.8499 38.7505 41.8044 38.7681 41.7619C38.7858 41.7194 38.8116 41.6808 38.8441 41.6482L38.8451 41.6444Z" fill="#137987"/>
<path d="M25.3434 48.3265C38.271 48.3265 48.7508 37.8466 48.7508 24.9191C48.7508 11.9916 38.271 1.51172 25.3434 1.51172C12.4159 1.51172 1.93604 11.9916 1.93604 24.9191C1.93604 37.8466 12.4159 48.3265 25.3434 48.3265Z" fill="url(#paint0_linear_903_247787)"/>
<path d="M25.344 44.1768C35.9823 44.1768 44.6063 35.5528 44.6063 24.9146C44.6063 14.2763 35.9823 5.65234 25.344 5.65234C14.7058 5.65234 6.08179 14.2763 6.08179 24.9146C6.08179 35.5528 14.7058 44.1768 25.344 44.1768Z" fill="white"/>
<path d="M20.5359 20.4844L16.3204 24.6916C15.0648 25.9473 14.3799 27.6106 14.3799 29.38C14.3799 31.1411 15.0648 32.8045 16.3204 34.0601C17.5761 35.3158 19.2394 36.0007 21.0006 36.0007C22.7699 36.0007 24.4333 35.3158 25.6889 34.0601L29.9043 29.8529L20.5359 20.4844Z" fill="url(#paint1_linear_903_247787)"/>
<path d="M35.2702 15.1124C34.0145 13.8568 32.3512 13.1719 30.59 13.1719C28.8207 13.1719 27.1573 13.8568 25.9017 15.1124L20.5366 20.4857L29.9051 29.8541L35.2702 24.4809C36.5177 23.2253 37.2107 21.5619 37.2107 19.7926C37.2107 18.0314 36.5177 16.3681 35.2702 15.1124ZM33.2236 16.682C33.0646 16.8418 32.8543 16.9225 32.6447 16.9225C32.4368 16.9225 32.2289 16.8434 32.0707 16.6861C31.2537 15.8756 29.9255 15.8756 29.1101 16.6861C28.7897 17.0033 28.2752 17.0008 27.9564 16.682C27.6392 16.3624 27.6409 15.8463 27.9605 15.5291C29.411 14.0892 31.7698 14.09 33.2187 15.5291C33.5392 15.8454 33.5408 16.3624 33.2236 16.682Z" fill="#10C160"/>
<path d="M35.2702 15.1124C34.0145 13.8568 32.3512 13.1719 30.59 13.1719C28.8207 13.1719 27.1573 13.8568 25.9017 15.1124L20.5366 20.4857L29.9051 29.8541L35.2702 24.4809C36.5177 23.2253 37.2107 21.5619 37.2107 19.7926C37.2107 18.0314 36.5177 16.3681 35.2702 15.1124ZM33.2236 16.682C33.0646 16.8418 32.8543 16.9225 32.6447 16.9225C32.4368 16.9225 32.2289 16.8434 32.0707 16.6861C31.2537 15.8756 29.9255 15.8756 29.1101 16.6861C28.7897 17.0033 28.2752 17.0008 27.9564 16.682C27.6392 16.3624 27.6409 15.8463 27.9605 15.5291C29.411 14.0892 31.7698 14.09 33.2187 15.5291C33.5392 15.8454 33.5408 16.3624 33.2236 16.682Z" fill="url(#paint2_linear_903_247787)"/>
<path d="M27.9611 15.5293C27.6414 15.8464 27.6398 16.3626 27.957 16.6822C28.2758 17.001 28.7903 17.0034 29.1107 16.6863C29.9261 15.8766 31.2543 15.8758 32.0713 16.6863C32.2303 16.8436 32.4382 16.9227 32.6453 16.9227C32.8548 16.9227 33.0652 16.842 33.2242 16.6822C33.5414 16.3626 33.5398 15.8464 33.2193 15.5284C31.7704 14.0893 29.4124 14.0893 27.9611 15.5293Z" fill="white"/>
<defs>
<linearGradient id="paint0_linear_903_247787" x1="25.3434" y1="1.51172" x2="25.3434" y2="48.3265" gradientUnits="userSpaceOnUse">
<stop stop-color="#0F94A5"/>
<stop offset="1" stop-color="#11A6B9"/>
</linearGradient>
<linearGradient id="paint1_linear_903_247787" x1="22.1421" y1="20.4844" x2="22.1421" y2="36.0007" gradientUnits="userSpaceOnUse">
<stop stop-color="#F6F6F6"/>
<stop offset="1" stop-color="#CAE1EE"/>
</linearGradient>
<linearGradient id="paint2_linear_903_247787" x1="28.8737" y1="13.1719" x2="28.8737" y2="29.8541" gradientUnits="userSpaceOnUse">
<stop stop-color="#10C160"/>
<stop offset="1" stop-color="#0BB654"/>
</linearGradient>
</defs>
</svg>
