<svg width="57" height="57" viewBox="0 0 57 57" fill="none" xmlns="http://www.w3.org/2000/svg">
<rect x="0.612305" y="0.109375" width="56" height="56" rx="28" fill="#FDF0F0"/>
<path d="M28.0635 13.8086H29.1639V17.6599H28.0635V13.8086Z" fill="#CEC5D2"/>
<path d="M36.3456 20.0297L38.3814 16.9231L37.4605 16.3203L35.4258 19.4268L36.3456 20.0297Z" fill="#CEC5D2"/>
<path d="M40.7877 11.9584C40.2582 11.6169 39.6941 11.3719 39.1162 11.2191C36.9309 10.6412 35.5564 11.9118 34.0947 13.7274L42.098 18.9545L43.0876 18.9115C44.0352 16.3962 43.1382 13.4747 40.7877 11.9584Z" fill="#F05E48"/>
<path d="M43.0873 18.9111L36.8536 14.8906C35.8675 14.2545 35.8313 12.8061 36.8025 12.1473C37.5004 11.6739 38.2963 11.3575 39.1158 11.2186C36.9323 10.6438 34.5459 11.3821 33.0857 13.1959C32.8785 13.4532 32.9351 13.8344 33.2127 14.0135L42.0378 19.7062C42.3124 19.8834 42.6745 19.7983 42.8235 19.5075C42.9238 19.3118 43.0112 19.1131 43.0873 18.9111Z" fill="#F05E48"/>
<path d="M20.8815 20.0297L18.8457 16.9231L19.7666 16.3203L21.8014 19.4268L20.8815 20.0297Z" fill="#CEC5D2"/>
<path d="M37.8963 41.2031L39.0283 44.3162C39.1807 44.7353 38.8703 45.1783 38.4244 45.1783C38.2672 45.1783 38.1155 45.1207 37.9979 45.0164L35.543 42.8382L37.8963 41.2031Z" fill="#CEC5D2"/>
<path d="M19.1222 41.0195L17.924 44.3143C17.7716 44.7334 18.082 45.1765 18.5279 45.1765C18.6851 45.1765 18.8368 45.1189 18.9544 45.0145L21.5178 42.74L19.1222 41.0195Z" fill="#CEC5D2"/>
<path d="M19.123 41.0122C19.8578 41.6646 20.6605 42.2412 21.5187 42.7327L23.1132 41.3179L19.8121 39.1172L19.123 41.0122Z" fill="#CEC5D2"/>
<path d="M37.1409 39.1172L33.8398 41.3179L35.5429 42.829C36.3832 42.3627 37.1705 41.8136 37.8961 41.1939L37.1409 39.1172Z" fill="#CEC5D2"/>
<path d="M41.8176 30.3137C41.8176 33.7495 40.5054 36.8787 38.3548 39.2277C35.9407 41.8645 32.4701 43.2011 28.6133 43.2011C21.3208 43.2011 15.8037 37.6062 15.8037 30.3137C15.8037 26.4575 17.062 22.9874 19.6981 20.5733C22.0472 18.422 25.177 17.1094 28.6133 17.1094C35.9058 17.1094 41.8176 23.0212 41.8176 30.3137Z" fill="#F05E48"/>
<path d="M28.6136 40.7701C34.3868 40.7701 39.067 36.09 39.067 30.3167C39.067 24.5434 34.3868 19.8633 28.6136 19.8633C22.8403 19.8633 18.1602 24.5434 18.1602 30.3167C18.1602 36.09 22.8403 40.7701 28.6136 40.7701Z" fill="white"/>
<path d="M28.6148 39.667C33.7803 39.667 37.9678 35.4795 37.9678 30.314C37.9678 25.1484 33.7803 20.9609 28.6148 20.9609C23.4492 20.9609 19.2617 25.1484 19.2617 30.314C19.2617 35.4795 23.4492 39.667 28.6148 39.667Z" fill="white"/>
<path d="M28.6128 32.5147C29.8282 32.5147 30.8135 31.5294 30.8135 30.314C30.8135 29.0986 29.8282 28.1133 28.6128 28.1133C27.3974 28.1133 26.4121 29.0986 26.4121 30.314C26.4121 31.5294 27.3974 32.5147 28.6128 32.5147Z" fill="white"/>
<path d="M28.6134 24.2656C28.3093 24.2656 28.0633 24.5117 28.0633 24.8158V29.7674H23.1117C22.8076 29.7674 22.5615 30.0135 22.5615 30.3175C22.5615 30.6217 22.8076 30.8677 23.1117 30.8677H28.6135C28.9176 30.8677 29.1637 30.6216 29.1637 30.3175V24.8157C29.1636 24.5117 28.9176 24.2656 28.6134 24.2656Z" fill="#6F6571"/>
<path d="M28.6146 23.1661C28.3105 23.1661 28.0645 22.92 28.0645 22.6159V22.0658C28.0645 21.7617 28.3106 21.5156 28.6146 21.5156C28.9187 21.5156 29.1648 21.7617 29.1648 22.0658V22.6159C29.1648 22.9201 28.9187 23.1661 28.6146 23.1661Z" fill="#FFB65E"/>
<path d="M28.6146 39.1192C28.3105 39.1192 28.0645 38.8731 28.0645 38.5691V38.0189C28.0645 37.7148 28.3106 37.4688 28.6146 37.4688C28.9187 37.4688 29.1648 37.7148 29.1648 38.0189V38.5691C29.1648 38.8731 28.9187 39.1192 28.6146 39.1192Z" fill="#FFB65E"/>
<path d="M36.8679 30.8659H36.3177C36.0136 30.8659 35.7676 30.6198 35.7676 30.3158C35.7676 30.0117 36.0137 29.7656 36.3177 29.7656H36.8679C37.172 29.7656 37.418 30.0117 37.418 30.3158C37.4181 30.6199 37.172 30.8659 36.8679 30.8659Z" fill="#FFB65E"/>
<path d="M20.9118 30.8659H20.3617C20.0576 30.8659 19.8115 30.6198 19.8115 30.3158C19.8115 30.0117 20.0576 29.7656 20.3617 29.7656H20.9118C21.216 29.7656 21.462 30.0117 21.462 30.3158C21.462 30.6199 21.2159 30.8659 20.9118 30.8659Z" fill="#FFB65E"/>
<path d="M28.615 31.4195C29.2227 31.4195 29.7154 30.9268 29.7154 30.3191C29.7154 29.7114 29.2227 29.2188 28.615 29.2188C28.0073 29.2188 27.5146 29.7114 27.5146 30.3191C27.5146 30.9268 28.0073 31.4195 28.615 31.4195Z" fill="#5D5360"/>
<path d="M23.6846 12.7332C21.7702 10.8463 18.7361 10.4803 16.3963 12.0131C15.8686 12.3588 15.4154 12.7754 15.0409 13.2422C13.6269 15.0048 15.1373 19.2037 15.1373 19.2037L23.7853 13.4903L23.6846 12.7332Z" fill="#F05E48"/>
<path d="M29.4388 42.6898C22.1462 42.6898 16.2344 36.778 16.2344 29.4854C16.2344 26.0491 17.547 22.9194 19.6983 20.5703C17.0622 22.9844 15.4092 26.4545 15.4092 30.3107C15.4092 37.6032 21.321 43.515 28.6135 43.515C32.4697 43.515 35.9409 41.8608 38.355 39.2247C36.0059 41.3759 32.8751 42.6898 29.4388 42.6898Z" fill="#F05E48"/>
<path d="M23.6852 12.7344L17.4807 16.7996C16.499 17.4427 15.1606 16.8879 14.9527 15.7329C14.8033 14.9028 14.836 14.0486 15.0416 13.2433C13.6301 15.0056 13.3376 17.4847 14.4025 19.5554C14.5536 19.8492 14.9249 19.9522 15.2013 19.7711L23.9859 14.0161C24.2592 13.837 24.3284 13.4715 24.1231 13.2173C23.985 13.0462 23.8389 12.8858 23.6852 12.7344Z" fill="#F05E48"/>
<path d="M29.1644 12.1602H28.0641C27.8696 12.1602 27.6869 12.2106 27.5284 12.2991L27.2148 13.2605L29.1644 13.7249L30.2648 13.2605C30.2648 12.6528 29.7721 12.1602 29.1644 12.1602Z" fill="#CEC5D2"/>
<path d="M27.5286 12.3047C27.1932 12.4932 26.9639 12.8539 26.9639 13.2661C26.9639 13.8738 27.4565 14.3665 28.0642 14.3665H29.1646C29.7723 14.3665 30.265 13.8738 30.265 13.2661H28.6145C28.0562 13.2661 27.6001 12.8434 27.5286 12.3047Z" fill="#CEC5D2"/>
</svg>
