<svg width="16" height="16" viewBox="0 0 16 16" fill="none" xmlns="http://www.w3.org/2000/svg">
<g clip-path="url(#clip0_916_71718)">
<path d="M7.60977 1.60216L1.26342 7.94851C-0.194578 9.40651 -0.194578 11.7825 1.26342 13.2405C1.96577 13.9412 2.91735 14.3347 3.90942 14.3347C4.9015 14.3347 5.85307 13.9412 6.55542 13.2405L12.9015 6.89389C13.2491 6.54647 13.5248 6.13397 13.7129 5.67996C13.9011 5.22595 13.9979 4.73933 13.9979 4.24789C13.9979 3.75645 13.9011 3.26982 13.7129 2.81581C13.5248 2.3618 13.2491 1.9493 12.9015 1.60189C11.4427 0.143076 9.06885 0.143076 7.60977 1.60216ZM5.82966 12.515C5.31988 13.0234 4.62927 13.309 3.90929 13.309C3.1893 13.309 2.4987 13.0234 1.98891 12.515C1.47962 12.0057 1.19351 11.3149 1.19351 10.5946C1.19351 9.87437 1.47962 9.1836 1.98891 8.67427L5.06988 5.59303C5.95905 5.90072 6.76674 6.40629 7.43205 7.0716C8.09737 7.73692 8.60294 8.54461 8.91063 9.43378L5.82966 12.515ZM12.176 6.1684L9.70443 8.63971C8.97143 6.9094 7.59404 5.53211 5.86368 4.79923L8.33526 2.32765C8.58662 2.07173 8.88619 1.86814 9.21667 1.72863C9.54714 1.58913 9.90198 1.51647 10.2607 1.51486C10.6194 1.51325 10.9749 1.58272 11.3066 1.71925C11.6383 1.85577 11.9397 2.05666 12.1933 2.31031C12.447 2.56396 12.6479 2.86535 12.7844 3.19706C12.9209 3.52878 12.9904 3.88426 12.9888 4.24297C12.9872 4.60168 12.9145 4.95652 12.775 5.28699C12.6355 5.61747 12.4319 5.91704 12.176 6.1684Z" fill="#1D1D1E"/>
<g clip-path="url(#clip1_916_71718)">
<path d="M11.5317 7.64844C9.30909 7.64844 7.50098 9.45655 7.50098 11.6792C7.50098 13.9019 9.30909 15.71 11.5317 15.71C13.7544 15.71 15.5625 13.9019 15.5625 11.6792C15.5625 9.45655 13.7544 7.64844 11.5317 7.64844ZM13.0161 12.6886C13.1474 12.8199 13.1474 13.0322 13.0161 13.1635C12.9506 13.2291 12.8646 13.262 12.7786 13.262C12.6926 13.262 12.6066 13.2291 12.5411 13.1635L11.5317 12.1541L10.5224 13.1635C10.4569 13.2291 10.3709 13.262 10.2849 13.262C10.1989 13.262 10.1129 13.2291 10.0474 13.1635C9.91608 13.0322 9.91608 12.8199 10.0474 12.6886L11.0568 11.6792L10.0474 10.6698C9.91608 10.5385 9.91608 10.3262 10.0474 10.1948C10.1788 10.0635 10.391 10.0635 10.5224 10.1948L11.5317 11.2043L12.5411 10.1948C12.6725 10.0635 12.8847 10.0635 13.0161 10.1948C13.1474 10.3262 13.1474 10.5385 13.0161 10.6698L12.0067 11.6792L13.0161 12.6886Z" fill="#1D1D1E"/>
</g>
<path d="M10.9406 2.17812C10.5366 2.07677 10.1132 2.08153 9.71161 2.19194C9.30998 2.30235 8.9437 2.51467 8.64828 2.8083C8.59694 2.85501 8.5556 2.91165 8.52678 2.97479C8.49796 3.03794 8.48225 3.10627 8.48061 3.17566C8.47897 3.24505 8.49143 3.31406 8.51723 3.37849C8.54303 3.44293 8.58164 3.50146 8.63072 3.55054C8.6798 3.59962 8.73833 3.63823 8.80277 3.66403C8.86721 3.68984 8.93621 3.70229 9.0056 3.70065C9.07499 3.69901 9.14333 3.6833 9.20647 3.65448C9.26962 3.62566 9.32626 3.58433 9.37296 3.53298C9.5415 3.36302 9.75166 3.24021 9.98248 3.17682C10.2133 3.11343 10.4567 3.11168 10.6884 3.17172C10.7541 3.18941 10.8226 3.19387 10.89 3.18483C10.9574 3.1758 11.0223 3.15345 11.081 3.11909C11.1397 3.08474 11.191 3.03905 11.2319 2.9847C11.2727 2.93034 11.3024 2.86841 11.3191 2.80249C11.3358 2.73657 11.3393 2.66798 11.3292 2.60072C11.3192 2.53346 11.2959 2.46886 11.2607 2.41068C11.2255 2.35251 11.179 2.30192 11.1241 2.26186C11.0691 2.22179 11.0067 2.19305 10.9406 2.17731V2.17812Z" fill="black"/>
</g>
<defs>
<clipPath id="clip0_916_71718">
<rect width="16" height="16" fill="white" transform="translate(0.000976562)"/>
</clipPath>
<clipPath id="clip1_916_71718">
<rect width="8.06152" height="8.06152" fill="white" transform="translate(7.50098 7.64844)"/>
</clipPath>
</defs>
</svg>
