<svg width="57" height="57" viewBox="0 0 57 57" fill="none" xmlns="http://www.w3.org/2000/svg">
<rect x="0.333984" y="0.109375" width="56" height="56" rx="28" fill="#EAF4FB"/>
<g clip-path="url(#clip0_903_254507)">
<path d="M13.8149 23.3789H42.855C43.3072 23.3791 43.6743 23.747 43.6743 24.1992V39.9863C43.6742 41.8934 42.1214 43.4463 40.2144 43.4463H16.4546C14.5475 43.4463 12.9947 41.8934 12.9946 39.9863V24.1992C12.9946 23.7751 13.3178 23.4248 13.731 23.3828L13.8149 23.3789Z" fill="white" stroke="#D2E6F4"/>
<path d="M40.2146 16.2266H16.4546C14.2675 16.2266 12.4946 17.9994 12.4946 20.1866V24.1993H44.1746V20.1866C44.1746 17.9994 42.4018 16.2266 40.2146 16.2266Z" fill="#2196F3"/>
<path d="M20.4155 12.2695H19.0956C18.3668 12.2695 17.7754 12.861 17.7754 13.5895V18.8696C17.7754 19.5981 18.3668 20.1895 19.0956 20.1895H20.4155C21.1442 20.1895 21.7354 19.5981 21.7354 18.8696V13.5895C21.7354 12.861 21.1442 12.2695 20.4155 12.2695Z" fill="#1976D2"/>
<path d="M37.5749 12.2695H36.255C35.5263 12.2695 34.9351 12.861 34.9351 13.5895V18.8696C34.9351 19.5981 35.5263 20.1895 36.255 20.1895H37.5749C38.3036 20.1895 38.8951 19.5981 38.8951 18.8696V13.5895C38.8951 12.861 38.3036 12.2695 37.5749 12.2695Z" fill="#1976D2"/>
<path d="M20.7455 26.7969H17.4456C16.8991 26.7969 16.4556 27.2404 16.4556 27.7869V31.0868C16.4556 31.6333 16.8991 32.0768 17.4456 32.0768H20.7455C21.292 32.0768 21.7355 31.6333 21.7355 31.0868V27.7869C21.7355 27.2404 21.292 26.7969 20.7455 26.7969Z" fill="#2196F3"/>
<path d="M20.7455 34.7148H17.4456C16.8991 34.7148 16.4556 35.1584 16.4556 35.7048V39.0048C16.4556 39.5512 16.8991 39.9948 17.4456 39.9948H20.7455C21.292 39.9948 21.7355 39.5512 21.7355 39.0048V35.7048C21.7355 35.1584 21.292 34.7148 20.7455 34.7148Z" fill="#2196F3"/>
<path d="M29.985 26.7969H26.6848C26.1383 26.7969 25.6948 27.2404 25.6948 27.7869V31.0868C25.6948 31.6333 26.1383 32.0768 26.6848 32.0768H29.985C30.5315 32.0768 30.975 31.6333 30.975 31.0868V27.7869C30.975 27.2404 30.5315 26.7969 29.985 26.7969Z" fill="#2196F3"/>
<path d="M29.9845 34.7109H26.6843C26.1379 34.7109 25.6943 35.1545 25.6943 35.7009V39.0009C25.6943 39.5473 26.1379 39.9909 26.6843 39.9909H29.9845C30.531 39.9909 30.9745 39.5473 30.9745 39.0009V35.7009C30.9745 35.1545 30.531 34.7109 29.9845 34.7109Z" fill="#90CAF9"/>
<path d="M39.225 26.7891H35.9251C35.3786 26.7891 34.9351 27.2326 34.9351 27.7791V31.079C34.9351 31.6255 35.3786 32.069 35.9251 32.069H39.225C39.7715 32.069 40.215 31.6255 40.215 31.079V27.7791C40.215 27.2326 39.7715 26.7891 39.225 26.7891Z" fill="#2196F3"/>
</g>
<defs>
<clipPath id="clip0_903_254507">
<rect width="31.68" height="31.68" fill="white" transform="translate(12.4941 12.2695)"/>
</clipPath>
</defs>
</svg>
