<svg width="57" height="57" viewBox="0 0 57 57" fill="none" xmlns="http://www.w3.org/2000/svg">
<path d="M41.0884 4.375H5.64253C5.06263 4.375 4.59253 4.8451 4.59253 5.425V50.7966C4.59253 51.3764 5.06263 51.8465 5.64253 51.8465H41.0884C41.6683 51.8465 42.1384 51.3764 42.1384 50.7966V5.425C42.1384 4.8451 41.6683 4.375 41.0884 4.375Z" fill="url(#paint0_linear_903_247806)"/>
<path d="M35.9474 9.57031H31.3757C30.7958 9.57031 30.3257 10.0404 30.3257 10.6203V15.192C30.3257 15.7719 30.7958 16.242 31.3757 16.242H35.9474C36.5273 16.242 36.9974 15.7719 36.9974 15.192V10.6203C36.9974 10.0404 36.5273 9.57031 35.9474 9.57031Z" fill="white"/>
<path d="M32.8595 19.9836H17.1925C17.0532 19.9836 16.9197 19.9283 16.8213 19.8298C16.7228 19.7314 16.6675 19.5978 16.6675 19.4586C16.6675 19.3194 16.7228 19.1858 16.8213 19.0874C16.9197 18.9889 17.0532 18.9336 17.1925 18.9336H32.8595C32.9988 18.9336 33.1323 18.9889 33.2308 19.0874C33.3292 19.1858 33.3845 19.3194 33.3845 19.4586C33.3845 19.5978 33.3292 19.7314 33.2308 19.8298C33.1323 19.9283 32.9988 19.9836 32.8595 19.9836Z" fill="#CBCDC6"/>
<path d="M32.8583 25.8898H13.8785C13.7393 25.8898 13.6057 25.8345 13.5073 25.7361C13.4088 25.6376 13.3535 25.5041 13.3535 25.3648C13.3535 25.2256 13.4088 25.0921 13.5073 24.9936C13.6057 24.8952 13.7393 24.8398 13.8785 24.8398H32.8583C32.9976 24.8398 33.1311 24.8952 33.2295 24.9936C33.328 25.0921 33.3833 25.2256 33.3833 25.3648C33.3833 25.5041 33.328 25.6376 33.2295 25.7361C33.1311 25.8345 32.9976 25.8898 32.8583 25.8898Z" fill="#CBCDC6"/>
<path d="M32.8583 31.7961H13.8785C13.7393 31.7961 13.6057 31.7408 13.5073 31.6423C13.4088 31.5439 13.3535 31.4103 13.3535 31.2711C13.3535 31.1319 13.4088 30.9983 13.5073 30.8999C13.6057 30.8014 13.7393 30.7461 13.8785 30.7461H32.8583C32.9976 30.7461 33.1311 30.8014 33.2295 30.8999C33.328 30.9983 33.3833 31.1319 33.3833 31.2711C33.3833 31.4103 33.328 31.5439 33.2295 31.6423C33.1311 31.7408 32.9976 31.7961 32.8583 31.7961Z" fill="#CBCDC6"/>
<path d="M29.5456 37.7023H13.8785C13.7393 37.7023 13.6057 37.647 13.5073 37.5486C13.4088 37.4501 13.3535 37.3166 13.3535 37.1773C13.3535 37.0381 13.4088 36.9046 13.5073 36.8061C13.6057 36.7077 13.7393 36.6523 13.8785 36.6523H29.5456C29.6848 36.6523 29.8183 36.7077 29.9168 36.8061C30.0153 36.9046 30.0706 37.0381 30.0706 37.1773C30.0706 37.3166 30.0153 37.4501 29.9168 37.5486C29.8183 37.647 29.6848 37.7023 29.5456 37.7023Z" fill="#CBCDC6"/>
<path d="M32.6333 44.7336H26.4566C26.3174 44.7336 26.1839 44.6783 26.0854 44.5798C25.987 44.4814 25.9316 44.3478 25.9316 44.2086C25.9316 44.0694 25.987 43.9358 26.0854 43.8374C26.1839 43.7389 26.3174 43.6836 26.4566 43.6836H32.6333C32.7725 43.6836 32.906 43.7389 33.0045 43.8374C33.103 43.9358 33.1583 44.0694 33.1583 44.2086C33.1583 44.3478 33.103 44.4814 33.0045 44.5798C32.906 44.6783 32.7725 44.7336 32.6333 44.7336Z" fill="#CBCDC6"/>
<path d="M50.0558 8.96688L48.1736 8.04104C47.4343 7.67786 46.581 7.62305 45.8014 7.88866C45.0217 8.15426 44.3794 8.71856 44.0156 9.45753L29.0405 39.8892L29.4293 46.2738C29.4412 46.4662 29.5037 46.6521 29.6105 46.8125C29.7174 46.9729 29.8648 47.1022 30.0377 47.1873C30.2107 47.2724 30.4031 47.3102 30.5954 47.2969C30.7877 47.2836 30.9731 47.2197 31.1327 47.1117L36.4293 43.5233L45.2997 25.4949L45.8215 25.7513C45.991 25.8348 46.1753 25.8841 46.3638 25.8963C46.5523 25.9086 46.7414 25.8835 46.9203 25.8226C47.0991 25.7617 47.2642 25.6662 47.4062 25.5415C47.5481 25.4168 47.664 25.2653 47.7474 25.0958L52.3579 15.7257C52.6509 15.1308 52.8237 14.484 52.8665 13.8223C52.9094 13.1606 52.8214 12.4969 52.6076 11.8692C52.3938 11.2415 52.0584 10.6621 51.6205 10.1641C51.1826 9.66609 50.6509 9.25927 50.0558 8.96688Z" fill="url(#paint1_linear_903_247806)"/>
<path d="M45.4262 26.5099C45.3369 26.5101 45.249 26.4876 45.1709 26.4444C45.0928 26.4012 45.0269 26.3388 44.9796 26.263C44.9323 26.1873 44.9051 26.1007 44.9006 26.0116C44.896 25.9224 44.9143 25.8335 44.9537 25.7534L48.8224 17.891C48.8839 17.766 48.9925 17.6706 49.1243 17.6257C49.2562 17.5808 49.4004 17.5901 49.5254 17.6516C49.6504 17.7131 49.7458 17.8217 49.7907 17.9535C49.8356 18.0853 49.8263 18.2296 49.7648 18.3546L45.8982 26.217C45.8548 26.305 45.7876 26.3792 45.7041 26.431C45.6207 26.4828 45.5244 26.5101 45.4262 26.5099Z" fill="#0E51C1"/>
<defs>
<linearGradient id="paint0_linear_903_247806" x1="23.3655" y1="4.375" x2="23.3655" y2="51.8465" gradientUnits="userSpaceOnUse">
<stop stop-color="#DDE5E9"/>
<stop offset="1" stop-color="#D1DCE6"/>
</linearGradient>
<linearGradient id="paint1_linear_903_247806" x1="50.6815" y1="7.72266" x2="40.9588" y2="47.2995" gradientUnits="userSpaceOnUse">
<stop stop-color="#176AFB"/>
<stop offset="1" stop-color="#2986F0"/>
</linearGradient>
</defs>
</svg>
