<svg width="17" height="17" viewBox="0 0 17 17" fill="none" xmlns="http://www.w3.org/2000/svg">
<g clip-path="url(#clip0_903_252591)">
<path d="M8.61172 2.24219C7.30637 2.24219 6.03032 2.62927 4.94496 3.35449C3.85959 4.07971 3.01366 5.11048 2.51412 6.31648C2.01458 7.52247 1.88388 8.84951 2.13854 10.1298C2.3932 11.4101 3.02179 12.5861 3.94482 13.5091C4.86784 14.4321 6.04385 15.0607 7.32413 15.3154C8.6044 15.57 9.93144 15.4393 11.1374 14.9398C12.3434 14.4403 13.3742 13.5943 14.0994 12.509C14.8246 11.4236 15.2117 10.1475 15.2117 8.84219C15.2117 7.09176 14.5164 5.41302 13.2786 4.17528C12.0409 2.93754 10.3622 2.24219 8.61172 2.24219ZM10.5991 10.8295C10.5309 10.8983 10.4498 10.9528 10.3604 10.99C10.271 11.0273 10.1752 11.0464 10.0784 11.0464C9.98158 11.0464 9.88573 11.0273 9.79637 10.99C9.707 10.9528 9.6259 10.8983 9.55772 10.8295L8.09106 9.36285C8.02309 9.29433 7.96932 9.21307 7.93282 9.12372C7.89633 9.03437 7.87783 8.9387 7.87839 8.84219V5.90885C7.87839 5.71436 7.95565 5.52784 8.09318 5.39031C8.2307 5.25278 8.41723 5.17552 8.61172 5.17552C8.80621 5.17552 8.99274 5.25278 9.13027 5.39031C9.26779 5.52784 9.34506 5.71436 9.34506 5.90885V8.54152L10.5991 9.78819C10.6678 9.85636 10.7223 9.93747 10.7596 10.0268C10.7968 10.1162 10.816 10.212 10.816 10.3089C10.816 10.4057 10.7968 10.5015 10.7596 10.5909C10.7223 10.6802 10.6678 10.7613 10.5991 10.8295Z" fill="#929299"/>
<path d="M13.7449 3.70918C13.6007 3.71083 13.4597 3.66723 13.3416 3.58451L11.1416 2.11785C11.0517 2.06961 10.9728 2.00315 10.91 1.9227C10.8473 1.84225 10.802 1.74959 10.7771 1.65064C10.7522 1.55169 10.7482 1.44863 10.7654 1.34805C10.7826 1.24748 10.8206 1.15159 10.8769 1.06654C10.9333 0.981479 11.0068 0.90912 11.0927 0.854087C11.1786 0.799054 11.2751 0.762557 11.3759 0.746931C11.4767 0.731305 11.5797 0.736894 11.6783 0.763339C11.7768 0.789785 11.8688 0.836506 11.9482 0.900513L14.1482 2.36718C14.2783 2.45456 14.3769 2.5813 14.4297 2.72882C14.4825 2.87634 14.4866 3.03689 14.4415 3.18694C14.3964 3.33699 14.3045 3.46865 14.1791 3.56263C14.0538 3.65661 13.9016 3.70797 13.7449 3.70918Z" fill="#929299"/>
<path d="M3.47865 3.70918C3.32197 3.70797 3.16981 3.65661 3.04444 3.56263C2.91908 3.46865 2.82711 3.33699 2.78201 3.18694C2.73691 3.03689 2.74106 2.87634 2.79384 2.72882C2.84662 2.5813 2.94527 2.45456 3.07532 2.36718L5.27532 0.900513C5.35478 0.836506 5.44673 0.789785 5.54528 0.763339C5.64383 0.736894 5.74681 0.731305 5.84764 0.746931C5.94848 0.762557 6.04494 0.799054 6.13086 0.854087C6.21678 0.90912 6.29028 0.981479 6.34664 1.06654C6.403 1.15159 6.441 1.24748 6.45819 1.34805C6.47538 1.44863 6.47139 1.55169 6.44649 1.65064C6.42158 1.74959 6.37629 1.84225 6.31353 1.9227C6.25076 2.00315 6.1719 2.06961 6.08198 2.11785L3.88198 3.58451C3.76388 3.66723 3.62282 3.71083 3.47865 3.70918Z" fill="#929299"/>
</g>
<defs>
<clipPath id="clip0_903_252591">
<rect width="16" height="16" fill="white" transform="translate(0.612305 0.109375)"/>
</clipPath>
</defs>
</svg>
