<svg width="25" height="25" viewBox="0 0 25 25" fill="none" xmlns="http://www.w3.org/2000/svg">
<path d="M16.1439 9.08984L19.2445 12.185C20.1681 13.1087 20.6719 14.3324 20.6719 15.6341C20.6719 16.9297 20.1681 18.1534 19.2445 19.0771C18.3209 20.0009 17.0975 20.5047 15.8021 20.5047C14.5007 20.5047 13.2772 20.0009 12.3536 19.0771L9.25302 15.982L16.1439 9.08984Z" fill="url(#paint0_linear_903_246370)"/>
<path d="M5.3123 5.14245C6.23589 4.21871 7.45933 3.71484 8.75475 3.71484C10.0562 3.71484 11.2796 4.21871 12.2032 5.14245L16.1494 9.09537L9.25852 15.9875L5.3123 12.0346C4.39472 11.1108 3.88495 9.88716 3.88495 8.58551C3.88495 7.28987 4.39472 6.0662 5.3123 5.14245ZM6.81762 6.29714C6.93457 6.41471 7.0893 6.47409 7.24343 6.47409C7.39636 6.47409 7.54929 6.41591 7.66564 6.30014C8.26657 5.7039 9.24353 5.7039 9.84326 6.30014C10.079 6.53347 10.4574 6.53167 10.6919 6.29714C10.9252 6.062 10.924 5.68231 10.6889 5.44897C9.62196 4.38966 7.88694 4.39026 6.82122 5.44897C6.58553 5.68171 6.58433 6.062 6.81762 6.29714Z" fill="url(#paint1_linear_903_246370)"/>
<defs>
<linearGradient id="paint0_linear_903_246370" x1="16.4816" y1="12.2265" x2="14.9625" y2="20.5047" gradientUnits="userSpaceOnUse">
<stop stop-color="#CEF4FF"/>
<stop offset="1" stop-color="#24A7CC"/>
</linearGradient>
<linearGradient id="paint1_linear_903_246370" x1="10.0172" y1="3.71484" x2="10.0172" y2="15.9875" gradientUnits="userSpaceOnUse">
<stop stop-color="#0073D7"/>
<stop offset="1" stop-color="#60A2FF"/>
</linearGradient>
</defs>
</svg>
