<svg width="89" height="89" viewBox="0 0 89 89" fill="none" xmlns="http://www.w3.org/2000/svg">
<path d="M9.56167 10.4961H63.1736C64.0507 10.4961 64.7617 11.2071 64.7617 12.0842V80.7087C64.7617 81.5858 64.0507 82.2968 63.1736 82.2968H9.56167C8.68457 82.2968 7.97355 81.5858 7.97355 80.7087V12.0842C7.97355 11.2071 8.68457 10.4961 9.56167 10.4961Z" fill="url(#paint0_linear_1272_124378)"/>
<path d="M17.337 18.3633H24.2517C25.1288 18.3633 25.8398 19.0743 25.8398 19.9514V26.8661C25.8398 27.7432 25.1288 28.4542 24.2517 28.4542H17.337C16.4599 28.4542 15.7489 27.7432 15.7489 26.8661V19.9514C15.7489 19.0743 16.4599 18.3633 17.337 18.3633Z" fill="white"/>
<path d="M22.0173 34.1077H45.7138C45.9243 34.1077 46.1263 34.024 46.2752 33.8751C46.4242 33.7262 46.5078 33.5242 46.5078 33.3136C46.5078 33.103 46.4242 32.901 46.2752 32.7521C46.1263 32.6032 45.9243 32.5195 45.7138 32.5195H22.0173C21.8067 32.5195 21.6048 32.6032 21.4559 32.7521C21.3069 32.901 21.2233 33.103 21.2233 33.3136C21.2233 33.5242 21.3069 33.7262 21.4559 33.8751C21.6048 34.024 21.8067 34.1077 22.0173 34.1077Z" fill="#D5D7DB" fill-opacity="0.6" style="mix-blend-mode:multiply"/>
<path d="M22.0107 43.0373H50.7177C50.9283 43.0373 51.1302 42.9537 51.2791 42.8048C51.4281 42.6559 51.5117 42.4539 51.5117 42.2433C51.5117 42.0327 51.4281 41.8307 51.2791 41.6818C51.1302 41.5329 50.9283 41.4492 50.7177 41.4492H22.0107C21.8001 41.4492 21.5981 41.5329 21.4492 41.6818C21.3003 41.8307 21.2167 42.0327 21.2167 42.2433C21.2167 42.4539 21.3003 42.6559 21.4492 42.8048C21.5981 42.9537 21.8001 43.0373 22.0107 43.0373Z" fill="#D5D7DB" fill-opacity="0.6" style="mix-blend-mode:multiply"/>
<path d="M22.0107 51.9709H50.7177C50.9283 51.9709 51.1302 51.8873 51.2791 51.7384C51.4281 51.5894 51.5117 51.3875 51.5117 51.1769C51.5117 50.9663 51.4281 50.7643 51.2791 50.6154C51.1302 50.4665 50.9283 50.3828 50.7177 50.3828H22.0107C21.8001 50.3828 21.5981 50.4665 21.4492 50.6154C21.3003 50.7643 21.2167 50.9663 21.2167 51.1769C21.2167 51.3875 21.3003 51.5894 21.4492 51.7384C21.5981 51.8873 21.8001 51.9709 22.0107 51.9709Z" fill="#D5D7DB" fill-opacity="0.6" style="mix-blend-mode:multiply"/>
<path d="M27.0212 60.9045H50.7177C50.9283 60.9045 51.1302 60.8209 51.2791 60.672C51.4281 60.523 51.5117 60.3211 51.5117 60.1105C51.5117 59.8999 51.4281 59.6979 51.2791 59.549C51.1302 59.4001 50.9283 59.3164 50.7177 59.3164H27.0212C26.8106 59.3164 26.6087 59.4001 26.4598 59.549C26.3108 59.6979 26.2272 59.8999 26.2272 60.1105C26.2272 60.3211 26.3108 60.523 26.4598 60.672C26.6087 60.8209 26.8106 60.9045 27.0212 60.9045Z" fill="#D5D7DB" fill-opacity="0.6" style="mix-blend-mode:multiply"/>
<path d="M22.3482 71.5491H31.6903C31.9009 71.5491 32.1029 71.4654 32.2518 71.3165C32.4007 71.1676 32.4844 70.9656 32.4844 70.755C32.4844 70.5444 32.4007 70.3424 32.2518 70.1935C32.1029 70.0446 31.9009 69.9609 31.6903 69.9609H22.3482C22.1376 69.9609 21.9356 70.0446 21.7867 70.1935C21.6378 70.3424 21.5541 70.5444 21.5541 70.755C21.5541 70.9656 21.6378 71.1676 21.7867 71.3165C21.9356 71.4654 22.1376 71.5491 22.3482 71.5491Z" fill="#D5D7DB" fill-opacity="0.6" style="mix-blend-mode:multiply"/>
<path d="M84.1755 78.6112L76.6541 71.0898L72.8633 74.8815L80.3838 82.4021C80.8865 82.9049 81.5684 83.1874 82.2794 83.1874C82.9904 83.1875 83.6723 82.9052 84.1751 82.4025C84.6779 81.8998 84.9604 81.2179 84.9605 80.5069C84.9606 79.7959 84.6782 79.114 84.1755 78.6112Z" fill="#4856B5"/>
<path d="M74.9799 47.542C72.4419 45.004 69.2084 43.2756 65.6881 42.5753C62.1678 41.875 58.5189 42.2344 55.2029 43.6079C51.8868 44.9814 49.0525 47.3075 47.0584 50.2918C45.0643 53.2762 44 56.7848 44 60.3741C44 63.9633 45.0643 67.472 47.0584 70.4563C49.0525 73.4407 51.8868 75.7667 55.2029 77.1402C58.5189 78.5138 62.1678 78.8731 65.6881 78.1728C69.2084 77.4726 72.4419 75.7441 74.9799 73.2061C76.6659 71.5215 78.0033 69.5211 78.9158 67.3193C79.8283 65.1175 80.298 62.7575 80.298 60.3741C80.298 57.9907 79.8283 55.6307 78.9158 53.4289C78.0033 51.2271 76.6659 49.2267 74.9799 47.542ZM70.8555 69.0818C69.1333 70.8039 66.9391 71.9767 64.5504 72.4518C62.1617 72.9269 59.6857 72.683 57.4356 71.751C55.1854 70.8189 53.2622 69.2406 51.9091 67.2155C50.556 65.1904 49.8338 62.8096 49.8338 60.3741C49.8338 57.9385 50.556 55.5577 51.9091 53.5327C53.2622 51.5076 55.1854 49.9292 57.4356 48.9972C59.6857 48.0651 62.1617 47.8212 64.5504 48.2963C66.9391 48.7715 69.1333 49.9442 70.8555 51.6664C71.9998 52.8095 72.9076 54.1669 73.527 55.661C74.1463 57.1551 74.4651 58.7567 74.4651 60.3741C74.4651 61.9915 74.1463 63.593 73.527 65.0872C72.9076 66.5813 71.9998 67.9387 70.8555 69.0818Z" fill="#5C8EFF"/>
<defs>
<linearGradient id="paint0_linear_1272_124378" x1="36.3676" y1="82.2968" x2="36.3676" y2="10.4961" gradientUnits="userSpaceOnUse">
<stop stop-color="#E1E4F1"/>
<stop offset="0.482603" stop-color="#E9ECF6"/>
</linearGradient>
</defs>
</svg>
