<svg width="26" height="18" viewBox="0 0 26 18" fill="none" xmlns="http://www.w3.org/2000/svg">
<path d="M0 9C0 4.02944 4.02944 0 9 0H14C20.6274 0 26 5.37258 26 12V16C26 17.1046 25.1046 18 24 18H9C4.02944 18 0 13.9706 0 9Z" fill="#8361FF"/>
<path d="M10.0266 7.69727V8.6543H8.98164V11.4082C8.98164 11.916 9.23555 12.0234 9.54805 12.0234C9.69453 12.0234 9.93867 12.0137 10.0949 12.0039V13.0195C9.94844 13.0488 9.7043 13.0684 9.3918 13.0684C8.4543 13.0684 7.73164 12.6094 7.74141 11.6133V8.6543H6.97969V7.69727H7.74141V6.42773H8.98164V7.69727H10.0266ZM11.1836 13V7.69727H12.4336V13H11.1836ZM11.8184 6.94531C11.4277 6.94531 11.0957 6.64258 11.0957 6.26172C11.0957 5.89062 11.4277 5.58789 11.8184 5.58789C12.2188 5.58789 12.541 5.89062 12.541 6.26172C12.541 6.64258 12.2188 6.94531 11.8184 6.94531ZM13.825 14.9922V7.69727H15.0457V8.56641H15.1238C15.3191 8.18555 15.7098 7.62891 16.6473 7.62891C17.868 7.62891 18.8348 8.58594 18.8348 10.3535C18.8348 12.1016 17.8973 13.0977 16.6473 13.0977C15.7293 13.0977 15.3191 12.5508 15.1238 12.1602H15.075V14.9922H13.825ZM15.0457 10.3438C15.0457 11.3789 15.4949 12.0723 16.3055 12.0723C17.1258 12.0723 17.5652 11.3496 17.5652 10.3438C17.5652 9.35742 17.1355 8.64453 16.3055 8.64453C15.4949 8.64453 15.0457 9.31836 15.0457 10.3438Z" fill="white"/>
</svg>
