<svg width="24" height="25" viewBox="0 0 24 25" fill="none" xmlns="http://www.w3.org/2000/svg">
<g clip-path="url(#clip0_542_25707)">
<path d="M1 12.957C1 7.77158 1 5.17886 2.61091 3.56794C4.22183 1.95703 6.81455 1.95703 12 1.95703C17.1854 1.95703 19.7782 1.95703 21.3891 3.56794C23 5.17886 23 7.77158 23 12.957C23 18.1425 23 20.7352 21.3891 22.3461C19.7782 23.957 17.1854 23.957 12 23.957C6.81455 23.957 4.22183 23.957 2.61091 22.3461C1 20.7352 1 18.1425 1 12.957Z" fill="#D9D9D9"/>
<path d="M1 12.957C1 7.77158 1 5.17886 2.61091 3.56794C4.22183 1.95703 6.81455 1.95703 12 1.95703C17.1854 1.95703 19.7782 1.95703 21.3891 3.56794C23 5.17886 23 7.77158 23 12.957C23 18.1425 23 20.7352 21.3891 22.3461C19.7782 23.957 17.1854 23.957 12 23.957C6.81455 23.957 4.22183 23.957 2.61091 22.3461C1 20.7352 1 18.1425 1 12.957Z" fill="url(#paint0_linear_542_25707)"/>
<path d="M16.1693 17.3362C15.6784 17.3362 15.2805 16.9383 15.2805 16.4474V11.5158C15.2805 11.0249 15.6784 10.627 16.1693 10.627C16.6601 10.627 17.0581 11.0249 17.0581 11.5158V16.4474C17.0581 16.9383 16.6601 17.3362 16.1693 17.3362ZM16.176 9.85451C15.6814 9.85451 15.2805 9.4536 15.2805 8.95906V8.92963C15.2805 8.43509 15.6814 8.03418 16.176 8.03418C16.6705 8.03418 17.0714 8.43509 17.0714 8.92963V8.95906C17.0714 9.4536 16.6705 9.85451 16.176 9.85451Z" fill="white"/>
<path d="M7.6653 17.3363C7.08521 17.3363 6.66047 16.7898 6.80368 16.2277L8.44945 9.76754C8.68317 8.8501 9.50935 8.20801 10.4561 8.20801C11.4039 8.20801 12.2307 8.85151 12.4634 9.7703L14.0956 16.2139C14.2398 16.7833 13.8094 17.3363 13.222 17.3363C12.8165 17.3363 12.4609 17.0654 12.3532 16.6744L12.0276 15.4919H8.83339L8.52565 16.6716C8.42351 17.0631 8.06992 17.3363 7.6653 17.3363ZM9.12742 14.0084H11.7603L10.7999 10.1986C10.7595 10.0383 10.6154 9.92598 10.4501 9.92598C10.2852 9.92598 10.1413 10.0378 10.1006 10.1975L9.12742 14.0084Z" fill="white"/>
</g>
<defs>
<linearGradient id="paint0_linear_542_25707" x1="-1.41957" y1="1.95703" x2="19.9392" y2="23.957" gradientUnits="userSpaceOnUse">
<stop offset="0.1" stop-color="#6163DB"/>
<stop offset="0.55" stop-color="#4E8EE9"/>
<stop offset="0.93" stop-color="#40BDD9"/>
</linearGradient>
<clipPath id="clip0_542_25707">
<rect width="24" height="24" fill="white" transform="translate(0 0.957031)"/>
</clipPath>
</defs>
</svg>
