<svg width="24" height="25" viewBox="0 0 24 25" fill="none" xmlns="http://www.w3.org/2000/svg">
<path d="M8.70312 19.5586C8.70313 20.4338 9.0508 21.2732 9.66967 21.892C10.2885 22.5109 11.1279 22.8586 12.0031 22.8586C12.8783 22.8586 13.7177 22.5109 14.3366 21.892C14.9554 21.2732 15.3031 20.4338 15.3031 19.5586" stroke="#1D1D1E" stroke-width="1.6" stroke-linecap="round" stroke-linejoin="round"/>
<path d="M4.57473 10.4836C4.57473 8.51436 5.357 6.62578 6.74946 5.23333C8.14191 3.84087 10.0305 3.05859 11.9997 3.05859C13.969 3.05859 15.8575 3.84087 17.25 5.23333C18.6424 6.62578 19.4247 8.51436 19.4247 10.4836C19.4247 14.1775 20.2807 17.1455 20.9613 18.3211C21.0336 18.4463 21.0717 18.5883 21.0718 18.7329C21.0719 18.8774 21.0341 19.0195 20.962 19.1448C20.89 19.2702 20.7862 19.3744 20.6612 19.447C20.5362 19.5196 20.3943 19.5581 20.2497 19.5586H3.74973C3.60533 19.5577 3.46369 19.519 3.33896 19.4462C3.21424 19.3734 3.1108 19.2692 3.03897 19.144C2.96715 19.0187 2.92947 18.8768 2.92969 18.7324C2.92991 18.588 2.96802 18.4461 3.04022 18.3211C3.71982 17.1455 4.57473 14.1765 4.57473 10.4836Z" stroke="#1D1D1E" stroke-width="1.6" stroke-linecap="round" stroke-linejoin="round"/>
</svg>
