<svg width="17" height="17" viewBox="0 0 17 17" fill="none" xmlns="http://www.w3.org/2000/svg">
<path d="M13.605 3.82812H2.60498" stroke="#1D1D1E" stroke-linecap="round" stroke-linejoin="round"/>
<path d="M6.60498 6.82812V10.8281" stroke="#1D1D1E" stroke-linecap="round" stroke-linejoin="round"/>
<path d="M9.60498 6.82812V10.8281" stroke="#1D1D1E" stroke-linecap="round" stroke-linejoin="round"/>
<path d="M12.605 3.82812V13.3281C12.605 13.4607 12.5523 13.5879 12.4585 13.6817C12.3648 13.7754 12.2376 13.8281 12.105 13.8281H4.10498C3.97237 13.8281 3.8452 13.7754 3.75143 13.6817C3.65766 13.5879 3.60498 13.4607 3.60498 13.3281V3.82812" stroke="#1D1D1E" stroke-linecap="round" stroke-linejoin="round"/>
<path d="M10.605 3.82812V2.82812C10.605 2.56291 10.4996 2.30855 10.3121 2.12102C10.1246 1.93348 9.8702 1.82813 9.60498 1.82812H6.60498C6.33976 1.82813 6.08541 1.93348 5.89787 2.12102C5.71034 2.30855 5.60498 2.56291 5.60498 2.82812V3.82812" stroke="#1D1D1E" stroke-linecap="round" stroke-linejoin="round"/>
</svg>
