<svg width="17" height="17" viewBox="0 0 17 17" fill="none" xmlns="http://www.w3.org/2000/svg">
<g clip-path="url(#clip0_479_53675)">
<path d="M8.63281 5.79492V8.46159L10.2995 10.1283" stroke="#74747A" stroke-linecap="round" stroke-linejoin="round"/>
<path d="M4.36891 4.19703L4.01535 3.84348L4.36891 4.19703ZM3.52465 5.04128L3.02466 5.0438C3.02604 5.31798 3.24796 5.5399 3.52214 5.54128L3.52465 5.04128ZM5.21917 5.54981C5.49531 5.55119 5.72029 5.32846 5.72168 5.05233C5.72307 4.77619 5.50034 4.55121 5.2242 4.54982L5.21917 5.54981ZM4.01612 3.34174C4.01473 3.0656 3.78975 2.84287 3.51361 2.84426C3.23747 2.84564 3.01474 3.07062 3.01613 3.34676L4.01612 3.34174ZM3.18388 7.65088C3.22138 7.3773 3.03 7.12512 2.75642 7.08762C2.48283 7.05012 2.23065 7.2415 2.19315 7.51508L3.18388 7.65088ZM13.2076 3.88612C10.6608 1.33932 6.5453 1.31353 4.01535 3.84348L4.72246 4.55058C6.8552 2.41785 10.3375 2.43024 12.5005 4.59322L13.2076 3.88612ZM4.05799 13.0358C6.60479 15.5826 10.7203 15.6083 13.2503 13.0784L12.5432 12.3713C10.4104 14.504 6.92809 14.4916 4.7651 12.3287L4.05799 13.0358ZM13.2503 13.0784C15.7802 10.5485 15.7544 6.43291 13.2076 3.88612L12.5005 4.59322C14.6635 6.75621 14.6759 10.2386 12.5432 12.3713L13.2503 13.0784ZM4.01535 3.84348L3.1711 4.68773L3.87821 5.39484L4.72246 4.55058L4.01535 3.84348ZM3.52214 5.54128L5.21917 5.54981L5.2242 4.54982L3.52717 4.54129L3.52214 5.54128ZM4.02465 5.03877L4.01612 3.34174L3.01613 3.34676L3.02466 5.0438L4.02465 5.03877ZM2.19315 7.51508C1.92553 9.46754 2.54876 11.5265 4.05799 13.0358L4.7651 12.3287C3.48472 11.0483 2.95723 9.30442 3.18388 7.65088L2.19315 7.51508Z" fill="#74747A"/>
</g>
<defs>
<clipPath id="clip0_479_53675">
<rect width="16" height="16" fill="white" transform="translate(0.632812 0.460938)"/>
</clipPath>
</defs>
</svg>
