<svg width="25" height="25" viewBox="0 0 25 25" fill="none" xmlns="http://www.w3.org/2000/svg">
<path d="M12.6099 4.3125C10.9858 4.3125 9.39822 4.79409 8.04786 5.69638C6.69749 6.59867 5.64501 7.88112 5.0235 9.38157C4.402 10.882 4.23938 12.5331 4.55622 14.1259C4.87306 15.7188 5.65513 17.1819 6.80352 18.3303C7.95191 19.4787 9.41506 20.2608 11.0079 20.5776C12.6008 20.8945 14.2518 20.7319 15.7523 20.1104C17.2527 19.4888 18.5352 18.4364 19.4375 17.086C20.3398 15.7356 20.8214 14.148 20.8214 12.524C20.8214 10.3461 19.9562 8.25753 18.4163 6.71758C16.8763 5.17763 14.7877 4.3125 12.6099 4.3125ZM15.0825 14.9965C14.9976 15.082 14.8967 15.1499 14.7855 15.1962C14.6744 15.2426 14.5551 15.2664 14.4347 15.2664C14.3142 15.2664 14.195 15.2426 14.0838 15.1962C13.9726 15.1499 13.8717 15.082 13.7869 14.9965L11.9621 13.1717C11.8775 13.0865 11.8106 12.9854 11.7652 12.8742C11.7198 12.7631 11.6968 12.644 11.6975 12.524V8.87442C11.6975 8.63244 11.7936 8.40037 11.9647 8.22927C12.1358 8.05816 12.3679 7.96204 12.6099 7.96204C12.8519 7.96204 13.0839 8.05816 13.255 8.22927C13.4262 8.40037 13.5223 8.63244 13.5223 8.87442V12.1499L15.0825 13.7009C15.168 13.7857 15.2359 13.8867 15.2822 13.9978C15.3285 14.109 15.3523 14.2283 15.3523 14.3487C15.3523 14.4692 15.3285 14.5884 15.2822 14.6996C15.2359 14.8108 15.168 14.9117 15.0825 14.9965Z" fill="#5967B4"/>
</svg>
