<svg width="29" height="29" viewBox="0 0 29 29" fill="none" xmlns="http://www.w3.org/2000/svg">
<path d="M14.9313 21.5678L20.4438 25.0678C21.1548 25.5162 22.0298 24.8491 21.8219 24.0287L20.2251 17.7506C20.1819 17.5766 20.1888 17.3939 20.2449 17.2236C20.301 17.0533 20.4041 16.9024 20.5423 16.7881L25.486 12.6647C26.1313 12.1287 25.8032 11.0459 24.961 10.9912L18.5079 10.5756C18.3318 10.5654 18.1625 10.5041 18.0207 10.3992C17.8789 10.2943 17.7708 10.1504 17.7094 9.98499L15.3032 3.92561C15.2395 3.75051 15.1235 3.59924 14.9708 3.49235C14.8182 3.38546 14.6364 3.32813 14.4501 3.32812C14.2637 3.32812 14.0819 3.38546 13.9293 3.49235C13.7767 3.59924 13.6606 3.75051 13.5969 3.92561L11.1907 9.98499C11.1294 10.1504 11.0212 10.2943 10.8794 10.3992C10.7376 10.5041 10.5683 10.5654 10.3923 10.5756L3.93913 10.9912C3.09694 11.0459 2.76882 12.1287 3.41413 12.6647L8.35788 16.7881C8.49606 16.9024 8.59915 17.0533 8.65527 17.2236C8.71138 17.3939 8.71825 17.5766 8.67507 17.7506L7.19851 23.5694C6.94694 24.5537 7.99694 25.3522 8.83913 24.8162L13.9688 21.5678C14.1127 21.4763 14.2796 21.4278 14.4501 21.4278C14.6205 21.4278 14.7875 21.4763 14.9313 21.5678Z" fill="#E7E7ED" stroke="#CFCFD8" stroke-linecap="round" stroke-linejoin="round"/>
</svg>
