<svg width="25" height="25" viewBox="0 0 25 25" fill="none" xmlns="http://www.w3.org/2000/svg">
<path d="M23.5529 17.6317V19.9551C23.5529 20.3551 23.2282 20.6798 22.8282 20.6798H14.0476C13.021 20.6798 12.0241 20.3384 11.2124 19.7102L4.18343 14.2677L1.94627 12.5357C1.64442 12.3019 1.57588 11.8744 1.78784 11.5582L4.80766 7.06124L5.58461 5.90374L6.39922 4.69082C6.65644 4.30816 7.19966 4.26141 7.52161 4.59161C9.32851 6.4516 11.6945 6.35451 12.776 6.18592C13.1219 6.1324 13.4568 6.32934 13.5744 6.65848L15.4951 12.0637C15.8289 13.0025 16.7169 13.6295 17.7132 13.6295H19.5508C21.7604 13.6295 23.5529 15.421 23.5529 17.6317Z" fill="url(#paint0_linear_1023_90205)"/>
<path d="M16.4743 16.2435C16.4743 16.6285 16.1619 16.9407 15.7769 16.9407C14.7907 16.9407 13.8139 16.6143 13.0255 16.0214L10.837 14.3746C10.3299 13.993 10.027 13.3861 10.027 12.7513V11.0603C10.027 10.8534 9.92612 10.6582 9.75647 10.5393L4.80664 7.05984L5.5836 5.90234C5.58804 5.90467 5.59269 5.90742 5.5965 5.91017L10.5588 9.39853C11.0993 9.77845 11.4216 10.3999 11.4216 11.0603V12.7513C11.4216 12.9504 11.5166 13.1407 11.6755 13.26L13.864 14.9068C14.4119 15.3191 15.0913 15.5461 15.7769 15.5461C16.1619 15.5461 16.4743 15.8585 16.4743 16.2435Z" fill="url(#paint1_linear_1023_90205)"/>
<path d="M5.35547 6.25391C5.35645 6.25464 5.35792 6.25562 5.3589 6.25636L5.35547 6.25391Z" fill="black"/>
<path d="M23.5534 17.6311V19.9545C23.5534 20.3545 23.2287 20.6792 22.8287 20.6792H15.5312V17.6311C15.5312 15.4204 17.3238 13.6289 19.5334 13.6289H19.5512C21.7608 13.6289 23.5534 15.4204 23.5534 17.6311Z" fill="#FEF1DA"/>
<path d="M23.5513 17.6311V19.9545C23.5513 20.3545 23.2266 20.6792 22.8266 20.6792H21.3127C21.7125 20.6792 22.0372 20.3545 22.0372 19.9545V17.6311C22.0372 15.6763 20.636 14.049 18.7832 13.6993C19.0254 13.653 19.2759 13.6289 19.5314 13.6289H19.5492C21.7588 13.6289 23.5513 15.4204 23.5513 17.6311Z" fill="#FDE6BF"/>
<path d="M23.5529 18.8277V19.9573C23.5529 20.3573 23.2282 20.682 22.8282 20.682H14.0476C13.021 20.682 12.0241 20.3406 11.2124 19.7123L1.94627 12.5378C1.64442 12.3041 1.57588 11.8766 1.78784 11.5603L2.86728 9.95312C2.80826 10.2192 2.90303 10.5065 3.13127 10.6833L12.3974 17.8581C13.209 18.4863 14.206 18.8277 15.2323 18.8277H23.5529Z" fill="url(#paint2_linear_1023_90205)"/>
<path d="M23.5531 18.8242V19.9538C23.5531 20.3538 23.2284 20.6785 22.8284 20.6785H21.3145C21.7142 20.6785 22.0389 20.3538 22.0389 19.9538V18.8242H23.5531Z" fill="#FDD79B"/>
<path d="M6.95718 14.2178L4.08226 12.0356C3.77892 11.8053 3.71969 11.3729 3.94984 11.0696L4.43319 10.4328C4.66333 10.1295 5.09592 10.0703 5.39925 10.3004L7.21842 11.6813C7.98903 12.2662 8.13964 13.3651 7.55476 14.1359C7.41218 14.3235 7.14481 14.3601 6.95718 14.2178Z" fill="#FFAA5C"/>
<path d="M6.95718 14.2178L4.08226 12.0356C3.77892 11.8053 3.71969 11.3729 3.94984 11.0696L4.43319 10.4328C4.66333 10.1295 5.09592 10.0703 5.39925 10.3004L7.21842 11.6813C7.98903 12.2662 8.13964 13.3651 7.55476 14.1359C7.41218 14.3235 7.14481 14.3601 6.95718 14.2178Z" fill="url(#paint3_linear_1023_90205)"/>
<path d="M14.0156 12.373C13.8119 12.373 13.6334 12.2238 13.6023 12.0161C13.5682 11.7876 13.7258 11.5748 13.9545 11.5406L15.3218 11.3367C15.5503 11.3026 15.7633 11.4602 15.7973 11.6886C15.8316 11.9173 15.6738 12.1301 15.4454 12.1642L14.078 12.3683C14.0571 12.3715 14.0361 12.373 14.0156 12.373Z" fill="#FEF1DA"/>
<path d="M13.5019 10.8924C13.2982 10.8924 13.1197 10.7433 13.0886 10.5358C13.0546 10.3071 13.2121 10.0943 13.4408 10.0603L14.8082 9.85614C15.0366 9.8223 15.2496 9.97968 15.2837 10.2081C15.3177 10.4368 15.1601 10.6496 14.9317 10.6837L13.5641 10.8878C13.5434 10.891 13.5225 10.8924 13.5019 10.8924Z" fill="#FEF1DA"/>
<path d="M12.8154 9.40811C12.6117 9.40811 12.4332 9.25898 12.4021 9.05147C12.368 8.8228 12.5256 8.61 12.7543 8.57594L14.1216 8.37181C14.3503 8.33776 14.5631 8.49535 14.5971 8.7238C14.6312 8.95247 14.4736 9.16527 14.2452 9.19954L12.8776 9.40345C12.8567 9.40663 12.8359 9.40811 12.8154 9.40811Z" fill="#FEF1DA"/>
<defs>
<linearGradient id="paint0_linear_1023_90205" x1="12.609" y1="4.37109" x2="12.609" y2="20.6798" gradientUnits="userSpaceOnUse">
<stop stop-color="#219CEE"/>
<stop offset="1" stop-color="#4EB7FC"/>
</linearGradient>
<linearGradient id="paint1_linear_1023_90205" x1="10.6405" y1="5.90234" x2="10.6405" y2="16.9407" gradientUnits="userSpaceOnUse">
<stop stop-color="#EF8E36"/>
<stop offset="1" stop-color="#FFAA5C"/>
</linearGradient>
<linearGradient id="paint2_linear_1023_90205" x1="12.609" y1="9.95312" x2="12.609" y2="20.682" gradientUnits="userSpaceOnUse">
<stop stop-color="#FDE6BF"/>
<stop offset="1" stop-color="#F9E0B5"/>
</linearGradient>
<linearGradient id="paint3_linear_1023_90205" x1="5.86039" y1="10.1602" x2="5.86039" y2="14.3046" gradientUnits="userSpaceOnUse">
<stop stop-color="#EF8E36"/>
<stop offset="1" stop-color="#FFAA5C"/>
</linearGradient>
</defs>
</svg>
