<svg width="41" height="41" viewBox="0 0 41 41" fill="none" xmlns="http://www.w3.org/2000/svg">
<rect x="0.449219" y="0.710938" width="40" height="40" rx="20" fill="#F8F8FC"/>
<g clip-path="url(#clip0_1023_93262)">
<g clip-path="url(#clip1_1023_93262)">
<path d="M13.2853 19.3242C10.9439 19.3242 9.03906 21.2291 9.03906 23.5704C9.03906 25.9118 10.9439 27.8167 13.2853 27.8167C15.6267 27.8167 17.5315 25.9118 17.5315 23.5704C17.5315 21.2291 15.6267 19.3242 13.2853 19.3242ZM13.2853 26.4805C11.6807 26.4805 10.3753 25.175 10.3753 23.5704C10.3753 21.9659 11.6807 20.6604 13.2853 20.6604C14.8899 20.6604 16.1953 21.9659 16.1953 23.5704C16.1953 25.175 14.8899 26.4805 13.2853 26.4805Z" fill="#41495A"/>
<path d="M13.2853 19.3242C10.9439 19.3242 9.03906 21.2291 9.03906 23.5704C9.03906 25.9118 10.9439 27.8167 13.2853 27.8167C15.6267 27.8167 17.5315 25.9118 17.5315 23.5704C17.5315 21.2291 15.6267 19.3242 13.2853 19.3242ZM13.2853 26.4805C11.6807 26.4805 10.3753 25.175 10.3753 23.5704C10.3753 21.9659 11.6807 20.6604 13.2853 20.6604C14.8899 20.6604 16.1953 21.9659 16.1953 23.5704C16.1953 25.175 14.8899 26.4805 13.2853 26.4805Z" fill="url(#paint0_linear_1023_93262)"/>
<path d="M17.583 19.2303C17.3239 19.2303 17.0772 19.0786 16.9686 18.8253L15.7417 15.9628C15.5963 15.6236 15.7534 15.2308 16.0926 15.0854C16.4317 14.9401 16.8245 15.0972 16.9699 15.4363L18.1968 18.2988C18.3422 18.638 18.1851 19.0308 17.846 19.1761C17.7601 19.2129 17.6709 19.2303 17.583 19.2303Z" fill="#006E8C"/>
<path d="M17.583 19.2303C17.3239 19.2303 17.0772 19.0786 16.9686 18.8253L15.7417 15.9628C15.5963 15.6236 15.7534 15.2308 16.0926 15.0854C16.4317 14.9401 16.8245 15.0972 16.9699 15.4363L18.1968 18.2988C18.3422 18.638 18.1851 19.0308 17.846 19.1761C17.7601 19.2129 17.6709 19.2303 17.583 19.2303Z" fill="url(#paint1_linear_1023_93262)"/>
<path d="M27.5958 19.3242C25.2544 19.3242 23.3496 21.2291 23.3496 23.5704C23.3496 25.9118 25.2544 27.8167 27.5958 27.8167C29.9372 27.8167 31.8421 25.9118 31.8421 23.5704C31.8421 21.2291 29.9372 19.3242 27.5958 19.3242ZM27.5958 26.4805C25.9912 26.4805 24.6858 25.175 24.6858 23.5705C24.6858 21.9659 25.9912 20.6605 27.5958 20.6605C29.2004 20.6605 30.5058 21.9659 30.5058 23.5704C30.5058 25.175 29.2004 26.4805 27.5958 26.4805Z" fill="url(#paint2_linear_1023_93262)"/>
<path d="M25.2877 16.3235C25.1288 16.0901 24.8403 15.9817 24.5672 16.0528L17.4109 17.9134C17.2789 17.9478 17.1605 18.0217 17.0718 18.1252L12.7781 23.1346C12.6082 23.3327 12.5693 23.6115 12.6783 23.8486C12.7874 24.0856 13.0244 24.2375 13.2853 24.2375H19.726C19.9394 24.2375 20.14 24.1355 20.2658 23.963L25.2752 17.093C25.4415 16.865 25.4465 16.5569 25.2877 16.3235ZM14.738 22.9013L17.3878 19.8098L18.7127 22.9013H14.738ZM19.8777 22.2274L18.4993 19.0111L23.0939 17.8165L19.8777 22.2274Z" fill="url(#paint3_linear_1023_93262)"/>
<path d="M18.2943 16.3675H15.4318C15.0628 16.3675 14.7637 16.0683 14.7637 15.6994C14.7637 15.3304 15.0628 15.0312 15.4318 15.0312H18.2943C18.6633 15.0312 18.9624 15.3304 18.9624 15.6994C18.9624 16.0683 18.6633 16.3675 18.2943 16.3675Z" fill="url(#paint4_linear_1023_93262)"/>
<path d="M28.2127 23.3152L24.6346 14.7277C24.4927 14.3871 24.1015 14.2261 23.7609 14.368C23.4203 14.5099 23.2593 14.901 23.4012 15.2416L26.9793 23.8291C27.1212 24.1697 27.5124 24.3308 27.853 24.1889C28.1936 24.047 28.3546 23.6558 28.2127 23.3152Z" fill="url(#paint5_linear_1023_93262)"/>
<path d="M26.7986 14.0547C26.6819 13.7047 26.3037 13.5153 25.9535 13.6322L23.8066 14.3477C23.4566 14.4644 23.2674 14.8428 23.3841 15.1929C23.5008 15.5429 23.8789 15.7322 24.2292 15.6154L26.3761 14.8998C26.7261 14.7831 26.9153 14.4047 26.7986 14.0547Z" fill="#2691AF"/>
<path d="M26.7986 14.0547C26.6819 13.7047 26.3037 13.5153 25.9535 13.6322L23.8066 14.3477C23.4566 14.4644 23.2674 14.8428 23.3841 15.1929C23.5008 15.5429 23.8789 15.7322 24.2292 15.6154L26.3761 14.8998C26.7261 14.7831 26.9153 14.4047 26.7986 14.0547Z" fill="url(#paint6_linear_1023_93262)"/>
</g>
</g>
<defs>
<linearGradient id="paint0_linear_1023_93262" x1="13.2853" y1="19.3242" x2="13.2853" y2="27.8167" gradientUnits="userSpaceOnUse">
<stop stop-color="#586279"/>
<stop offset="1" stop-color="#6F7C95"/>
</linearGradient>
<linearGradient id="paint1_linear_1023_93262" x1="16.9693" y1="15.0312" x2="16.9693" y2="19.2303" gradientUnits="userSpaceOnUse">
<stop stop-color="#1687A5"/>
<stop offset="1" stop-color="#34A0BD"/>
</linearGradient>
<linearGradient id="paint2_linear_1023_93262" x1="27.5958" y1="19.3242" x2="27.5958" y2="27.8167" gradientUnits="userSpaceOnUse">
<stop stop-color="#586279"/>
<stop offset="1" stop-color="#6F7C95"/>
</linearGradient>
<linearGradient id="paint3_linear_1023_93262" x1="24.2892" y1="17.1152" x2="12.6172" y2="24.2375" gradientUnits="userSpaceOnUse">
<stop stop-color="#4BB4D2"/>
<stop offset="1" stop-color="#349FBE"/>
</linearGradient>
<linearGradient id="paint4_linear_1023_93262" x1="14.7637" y1="15.6994" x2="18.9624" y2="15.6994" gradientUnits="userSpaceOnUse">
<stop stop-color="#D86C52"/>
<stop offset="1" stop-color="#D97054"/>
</linearGradient>
<linearGradient id="paint5_linear_1023_93262" x1="25.8069" y1="14.3164" x2="25.8069" y2="24.2405" gradientUnits="userSpaceOnUse">
<stop stop-color="#1687A5"/>
<stop offset="1" stop-color="#34A0BD"/>
</linearGradient>
<linearGradient id="paint6_linear_1023_93262" x1="25.0913" y1="13.5977" x2="25.0913" y2="15.6499" gradientUnits="userSpaceOnUse">
<stop stop-color="#108BAC"/>
<stop offset="1" stop-color="#006E8C"/>
</linearGradient>
<clipPath id="clip0_1023_93262">
<rect width="24" height="24" fill="white" transform="translate(8.44922 8.71094)"/>
</clipPath>
<clipPath id="clip1_1023_93262">
<rect width="22.805" height="22.805" fill="white" transform="translate(9.04492 9.30859)"/>
</clipPath>
</defs>
</svg>
