<svg width="25" height="25" viewBox="0 0 25 25" fill="none" xmlns="http://www.w3.org/2000/svg">
<g clip-path="url(#clip0_1023_90221)">
<g clip-path="url(#clip1_1023_90221)">
<path d="M5.44545 11.1406C3.10406 11.1406 1.19922 13.0455 1.19922 15.3869C1.19922 17.7282 3.10406 19.6331 5.44545 19.6331C7.78683 19.6331 9.69167 17.7282 9.69167 15.3869C9.69167 13.0455 7.78683 11.1406 5.44545 11.1406ZM5.44545 18.2969C3.84086 18.2969 2.53545 16.9914 2.53545 15.3869C2.53545 13.7823 3.84086 12.4769 5.44545 12.4769C7.05004 12.4769 8.35544 13.7823 8.35544 15.3869C8.35544 16.9914 7.05004 18.2969 5.44545 18.2969Z" fill="#41495A"/>
<path d="M5.44545 11.1406C3.10406 11.1406 1.19922 13.0455 1.19922 15.3869C1.19922 17.7282 3.10406 19.6331 5.44545 19.6331C7.78683 19.6331 9.69167 17.7282 9.69167 15.3869C9.69167 13.0455 7.78683 11.1406 5.44545 11.1406ZM5.44545 18.2969C3.84086 18.2969 2.53545 16.9914 2.53545 15.3869C2.53545 13.7823 3.84086 12.4769 5.44545 12.4769C7.05004 12.4769 8.35544 13.7823 8.35544 15.3869C8.35544 16.9914 7.05004 18.2969 5.44545 18.2969Z" fill="url(#paint0_linear_1023_90221)"/>
<path d="M9.74222 11.0467C9.48303 11.0467 9.23641 10.895 9.12782 10.6417L7.90089 7.77917C7.75551 7.43999 7.9126 7.04723 8.25178 6.90185C8.59088 6.75651 8.98368 6.91356 9.12906 7.2527L10.356 10.1152C10.5014 10.4544 10.3443 10.8472 10.0051 10.9925C9.91931 11.0293 9.83005 11.0467 9.74222 11.0467Z" fill="#006E8C"/>
<path d="M9.74222 11.0467C9.48303 11.0467 9.23641 10.895 9.12782 10.6417L7.90089 7.77917C7.75551 7.43999 7.9126 7.04723 8.25178 6.90185C8.59088 6.75651 8.98368 6.91356 9.12906 7.2527L10.356 10.1152C10.5014 10.4544 10.3443 10.8472 10.0051 10.9925C9.91931 11.0293 9.83005 11.0467 9.74222 11.0467Z" fill="url(#paint1_linear_1023_90221)"/>
<path d="M19.755 11.1406C17.4136 11.1406 15.5088 13.0455 15.5088 15.3869C15.5088 17.7282 17.4136 19.6331 19.755 19.6331C22.0964 19.6331 24.0012 17.7282 24.0012 15.3869C24.0012 13.0455 22.0964 11.1406 19.755 11.1406ZM19.755 18.2969C18.1504 18.2969 16.845 16.9914 16.845 15.3869C16.845 13.7824 18.1504 12.4769 19.755 12.4769C21.3596 12.4769 22.665 13.7823 22.665 15.3869C22.665 16.9914 21.3596 18.2969 19.755 18.2969Z" fill="url(#paint2_linear_1023_90221)"/>
<path d="M17.4478 8.13993C17.289 7.90654 17.0005 7.79813 16.7274 7.86921L9.5711 9.72983C9.43908 9.76417 9.32069 9.83806 9.23197 9.94162L4.93821 14.951C4.76838 15.1491 4.72945 15.428 4.83849 15.665C4.94752 15.902 5.18457 16.0539 5.44549 16.0539H11.8861C12.0996 16.0539 12.3002 15.9519 12.426 15.7794L17.4354 8.90942C17.6017 8.68138 17.6067 8.37333 17.4478 8.13993ZM6.89815 14.7177L9.54799 11.6262L10.8729 14.7177H6.89815ZM12.0378 14.0438L10.6595 10.8275L15.2541 9.6329L12.0378 14.0438Z" fill="url(#paint3_linear_1023_90221)"/>
<path d="M10.4545 8.18389H7.59194C7.22297 8.18389 6.92383 7.88475 6.92383 7.51577C6.92383 7.14679 7.22297 6.84766 7.59194 6.84766H10.4545C10.8234 6.84766 11.1226 7.14679 11.1226 7.51577C11.1226 7.88475 10.8234 8.18389 10.4545 8.18389Z" fill="url(#paint4_linear_1023_90221)"/>
<path d="M20.3719 15.1316L16.7938 6.54413C16.6519 6.20353 16.2607 6.04247 15.9201 6.18437C15.5795 6.32633 15.4184 6.71744 15.5604 7.05805L19.1385 15.6455C19.2804 15.9862 19.6716 16.1472 20.0121 16.0053C20.3527 15.8634 20.5138 15.4722 20.3719 15.1316Z" fill="url(#paint5_linear_1023_90221)"/>
<path d="M18.9578 5.8711C18.8411 5.5211 18.4629 5.33175 18.1127 5.44858L15.9658 6.16414C15.6157 6.28083 15.4266 6.65921 15.5433 7.00926C15.66 7.35926 16.0381 7.5486 16.3884 7.43177L18.5353 6.71622C18.8853 6.59952 19.0745 6.22115 18.9578 5.8711Z" fill="#2691AF"/>
<path d="M18.9578 5.8711C18.8411 5.5211 18.4629 5.33175 18.1127 5.44858L15.9658 6.16414C15.6157 6.28083 15.4266 6.65921 15.5433 7.00926C15.66 7.35926 16.0381 7.5486 16.3884 7.43177L18.5353 6.71622C18.8853 6.59952 19.0745 6.22115 18.9578 5.8711Z" fill="url(#paint6_linear_1023_90221)"/>
</g>
</g>
<defs>
<linearGradient id="paint0_linear_1023_90221" x1="5.44545" y1="11.1406" x2="5.44545" y2="19.6331" gradientUnits="userSpaceOnUse">
<stop stop-color="#586279"/>
<stop offset="1" stop-color="#6F7C95"/>
</linearGradient>
<linearGradient id="paint1_linear_1023_90221" x1="9.12844" y1="6.84766" x2="9.12844" y2="11.0467" gradientUnits="userSpaceOnUse">
<stop stop-color="#1687A5"/>
<stop offset="1" stop-color="#34A0BD"/>
</linearGradient>
<linearGradient id="paint2_linear_1023_90221" x1="19.755" y1="11.1406" x2="19.755" y2="19.6331" gradientUnits="userSpaceOnUse">
<stop stop-color="#586279"/>
<stop offset="1" stop-color="#6F7C95"/>
</linearGradient>
<linearGradient id="paint3_linear_1023_90221" x1="16.4493" y1="8.93158" x2="4.77734" y2="16.0539" gradientUnits="userSpaceOnUse">
<stop stop-color="#4BB4D2"/>
<stop offset="1" stop-color="#349FBE"/>
</linearGradient>
<linearGradient id="paint4_linear_1023_90221" x1="6.92383" y1="7.51577" x2="11.1226" y2="7.51577" gradientUnits="userSpaceOnUse">
<stop stop-color="#D86C52"/>
<stop offset="1" stop-color="#D97054"/>
</linearGradient>
<linearGradient id="paint5_linear_1023_90221" x1="17.9661" y1="6.13281" x2="17.9661" y2="16.0569" gradientUnits="userSpaceOnUse">
<stop stop-color="#1687A5"/>
<stop offset="1" stop-color="#34A0BD"/>
</linearGradient>
<linearGradient id="paint6_linear_1023_90221" x1="17.2505" y1="5.41406" x2="17.2505" y2="7.46629" gradientUnits="userSpaceOnUse">
<stop stop-color="#108BAC"/>
<stop offset="1" stop-color="#006E8C"/>
</linearGradient>
<clipPath id="clip0_1023_90221">
<rect width="24" height="24" fill="white" transform="translate(0.608398 0.527344)"/>
</clipPath>
<clipPath id="clip1_1023_90221">
<rect width="22.805" height="22.805" fill="white" transform="translate(1.2041 1.125)"/>
</clipPath>
</defs>
</svg>
