<svg width="41" height="41" viewBox="0 0 41 41" fill="none" xmlns="http://www.w3.org/2000/svg">
<rect x="0.449219" y="0.710938" width="40" height="40" rx="20" fill="#F8F8FC"/>
<g clip-path="url(#clip0_1023_91993)">
<g clip-path="url(#clip1_1023_91993)">
<path d="M11.9958 32.526C11.4712 32.1869 11.3207 31.4867 11.6598 30.9621L16.7543 23.0798C17.0934 22.5552 17.7935 22.4047 18.3182 22.7438C18.8428 23.0829 18.9932 23.7831 18.6542 24.3077L13.5595 32.19C13.2209 32.7139 12.5211 32.8655 11.9958 32.526Z" fill="#5F6E9B"/>
<path d="M11.9958 32.526C11.4712 32.1869 11.3207 31.4867 11.6598 30.9621L16.7543 23.0798C17.0934 22.5552 17.7935 22.4047 18.3182 22.7438C18.8428 23.0829 18.9932 23.7831 18.6542 24.3077L13.5595 32.19C13.2209 32.7139 12.5211 32.8655 11.9958 32.526Z" fill="url(#paint0_linear_1023_91993)"/>
<path d="M24.3291 32.7069H24.3261C23.7016 32.7055 23.1964 32.1977 23.1979 31.5732L23.207 27.9189L19.2849 24.5518C18.811 24.1449 18.7566 23.4308 19.1635 22.9568C19.5703 22.4829 20.2845 22.4285 20.7583 22.8354L25.0761 26.5421C25.3272 26.7577 25.4711 27.0722 25.4704 27.4031L25.4599 31.5788C25.4585 32.2025 24.9524 32.7069 24.3291 32.7069Z" fill="#414B82"/>
<path d="M24.3291 32.7069H24.3261C23.7016 32.7055 23.1964 32.1977 23.1979 31.5732L23.207 27.9189L19.2849 24.5518C18.811 24.1449 18.7566 23.4308 19.1635 22.9568C19.5703 22.4829 20.2845 22.4285 20.7583 22.8354L25.0761 26.5421C25.3272 26.7577 25.4711 27.0722 25.4704 27.4031L25.4599 31.5788C25.4585 32.2025 24.9524 32.7069 24.3291 32.7069Z" fill="url(#paint1_linear_1023_91993)"/>
<path d="M27.2847 21.8575L24.8942 18.5981C24.8159 18.4913 24.7163 18.4023 24.6013 18.3368L21.7514 16.6491L21.0228 13.5695L22.8674 10.0956C23.1115 9.63598 22.9366 9.06524 22.4769 8.82116C22.0171 8.57708 21.4467 8.75195 21.2025 9.21154L19.1914 12.9989C19.0841 13.201 19.0541 13.4352 19.1066 13.6579L19.9868 17.3784L16.4785 23.5251L20.2141 25.2704C20.7017 25.4982 21.2825 25.3107 21.5447 24.8407C21.7836 24.974 22.0627 24.9973 22.3187 24.9064L26.8397 23.3033C27.1206 23.2037 27.3378 22.977 27.4255 22.6923C27.513 22.4074 27.4608 22.0978 27.2847 21.8575ZM22.6995 22.7714L23.9604 20.5123L25.0149 21.9502L22.6995 22.7714Z" fill="url(#paint2_linear_1023_91993)"/>
<path d="M23.9604 20.5071L24.8192 21.6781L26.4098 20.6595L24.8942 18.593C24.8159 18.4862 24.7163 18.3972 24.6013 18.3317L23.8604 17.8929C23.6729 18.2 23.3215 18.4119 22.9597 18.4119C22.3771 18.4119 21.9457 17.9356 21.9204 17.3726C21.9116 17.177 21.9693 16.9917 22.0707 16.8331L21.7514 16.644L21.2858 14.6758L19.4514 15.1097L19.9868 17.3733L16.4785 23.52L20.2141 25.2653C20.7017 25.4931 21.2823 25.3056 21.5445 24.8356L23.9604 20.5071Z" fill="#64AFFF"/>
<path d="M23.9604 20.5071L24.8192 21.6781L26.4098 20.6595L24.8942 18.593C24.8159 18.4862 24.7163 18.3972 24.6013 18.3317L23.8604 17.8929C23.6729 18.2 23.3215 18.4119 22.9597 18.4119C22.3771 18.4119 21.9457 17.9356 21.9204 17.3726C21.9116 17.177 21.9693 16.9917 22.0707 16.8331L21.7514 16.644L21.2858 14.6758L19.4514 15.1097L19.9868 17.3733L16.4785 23.52L20.2141 25.2653C20.7017 25.4931 21.2823 25.3056 21.5445 24.8356L23.9604 20.5071Z" fill="url(#paint3_linear_1023_91993)"/>
<path d="M25.1173 13.4056C24.1803 12.8709 22.9872 13.1969 22.4526 14.134C21.9177 15.0709 22.2438 16.2639 23.1808 16.7987C24.1177 17.3336 25.3108 17.0075 25.8455 16.0705C26.3804 15.1336 26.0543 13.9405 25.1173 13.4056Z" fill="#FFB69E"/>
<path d="M25.1173 13.4056C24.1803 12.8709 22.9872 13.1969 22.4526 14.134C21.9177 15.0709 22.2438 16.2639 23.1808 16.7987C24.1177 17.3336 25.3108 17.0075 25.8455 16.0705C26.3804 15.1336 26.0543 13.9405 25.1173 13.4056Z" fill="url(#paint4_linear_1023_91993)"/>
<path d="M25.1173 13.4056C24.1803 12.8709 22.9872 13.1969 22.4526 14.134C21.9177 15.0709 22.2438 16.2639 23.1808 16.7987C24.1177 17.3336 25.3108 17.0075 25.8455 16.0705C26.3804 15.1336 26.0543 13.9405 25.1173 13.4056Z" fill="url(#paint5_linear_1023_91993)"/>
<path d="M22.6973 22.7617L21.6864 23.1202C21.1956 23.2942 20.9391 23.8329 21.1131 24.3234C21.1925 24.5477 21.3493 24.7228 21.5424 24.8306L22.4928 24.0836L22.6973 22.7617Z" fill="#F9D3B5"/>
</g>
</g>
<defs>
<linearGradient id="paint0_linear_1023_91993" x1="15.157" y1="22.5625" x2="15.157" y2="32.7072" gradientUnits="userSpaceOnUse">
<stop stop-color="#445C9F"/>
<stop offset="1" stop-color="#6B6DAD"/>
</linearGradient>
<linearGradient id="paint1_linear_1023_91993" x1="22.1805" y1="22.5625" x2="22.1805" y2="32.7069" gradientUnits="userSpaceOnUse">
<stop stop-color="#445C9F"/>
<stop offset="1" stop-color="#6B6DAD"/>
</linearGradient>
<linearGradient id="paint2_linear_1023_91993" x1="21.9728" y1="8.71094" x2="21.9728" y2="25.3671" gradientUnits="userSpaceOnUse">
<stop stop-color="#F9C9B9"/>
<stop offset="1" stop-color="#F9D3B5"/>
</linearGradient>
<linearGradient id="paint3_linear_1023_91993" x1="21.4442" y1="14.6758" x2="21.4442" y2="25.362" gradientUnits="userSpaceOnUse">
<stop stop-color="#4EB7FC"/>
<stop offset="1" stop-color="#219CEE"/>
</linearGradient>
<linearGradient id="paint4_linear_1023_91993" x1="24.149" y1="13.1484" x2="24.149" y2="17.056" gradientUnits="userSpaceOnUse">
<stop stop-color="#F9C9B9"/>
<stop offset="1" stop-color="#F9E0B5"/>
</linearGradient>
<linearGradient id="paint5_linear_1023_91993" x1="24.149" y1="13.1484" x2="24.149" y2="23.7397" gradientUnits="userSpaceOnUse">
<stop stop-color="#F9C9B9"/>
<stop offset="1" stop-color="#F9E0B5"/>
</linearGradient>
<clipPath id="clip0_1023_91993">
<rect width="24" height="24" fill="white" transform="translate(8.44922 8.71094)"/>
</clipPath>
<clipPath id="clip1_1023_91993">
<rect width="24" height="24" fill="white" transform="translate(7.44922 8.71094)"/>
</clipPath>
</defs>
</svg>
