<svg width="41" height="41" viewBox="0 0 41 41" fill="none" xmlns="http://www.w3.org/2000/svg">
<rect x="0.449219" y="0.710938" width="40" height="40" rx="20" fill="#F8F8FC"/>
<g clip-path="url(#clip0_1023_92011)">
<path d="M30.8677 9.6129C30.8359 9.56275 30.792 9.52145 30.74 9.49283C30.688 9.46421 30.6296 9.44921 30.5702 9.44922H28.2326C28.1662 9.44947 28.1012 9.46851 28.0451 9.50414C27.9891 9.53977 27.9442 9.59053 27.9158 9.65056L22.6414 20.7836C22.6014 20.8679 22.5965 20.9647 22.6278 21.0526C22.6591 21.1405 22.724 21.2124 22.8083 21.2525L24.7161 22.1564C24.7579 22.1763 24.8032 22.1877 24.8494 22.1901C24.8956 22.1924 24.9418 22.1856 24.9854 22.1701C25.029 22.1546 25.0691 22.1306 25.1034 22.0996C25.1377 22.0685 25.1655 22.031 25.1853 21.9892L30.8877 9.95082C30.9131 9.89735 30.9245 9.83835 30.921 9.77929C30.9175 9.72023 30.8992 9.663 30.8677 9.6129Z" fill="url(#paint0_linear_1023_92011)"/>
<path d="M25.9705 21.9797L22.1548 20.1669C22.113 20.147 22.0678 20.1356 22.0216 20.1333C21.9754 20.1309 21.9291 20.1377 21.8856 20.1532C21.842 20.1688 21.8019 20.1927 21.7676 20.2238C21.7333 20.2548 21.7054 20.2923 21.6856 20.3341L19.838 24.2371H13.0595C12.0326 24.2371 11.0477 24.645 10.3216 25.3712C9.59544 26.0973 9.1875 27.0822 9.1875 28.1091C9.1875 29.136 9.59544 30.1209 10.3216 30.847C11.0477 31.5731 12.0326 31.9811 13.0595 31.9811H19.3955C20.0615 31.9792 20.7133 31.7892 21.2761 31.4332C21.8388 31.0771 22.2896 30.5693 22.5765 29.9683L26.1377 22.4482C26.1776 22.3639 26.1824 22.2672 26.151 22.1794C26.1197 22.0915 26.0548 22.0197 25.9705 21.9797Z" fill="url(#paint1_linear_1023_92011)"/>
<path d="M18.6897 25.6406H13.0577C12.4043 25.6406 11.7775 25.9002 11.3154 26.3623C10.8533 26.8244 10.5938 27.4511 10.5938 28.1046C10.5938 28.7581 10.8533 29.3848 11.3154 29.8469C11.7775 30.309 12.4043 30.5686 13.0577 30.5686H18.6897C19.1564 30.5681 19.6037 30.3825 19.9336 30.0525C20.2636 29.7226 20.4492 29.2752 20.4497 28.8086V27.4006C20.4492 26.934 20.2636 26.4867 19.9336 26.1567C19.6037 25.8268 19.1564 25.6412 18.6897 25.6406Z" fill="url(#paint2_linear_1023_92011)"/>
<path d="M18.691 27.7548H13.059C12.9657 27.7548 12.8761 27.7177 12.8101 27.6517C12.7441 27.5857 12.707 27.4961 12.707 27.4028C12.707 27.3094 12.7441 27.2199 12.8101 27.1539C12.8761 27.0879 12.9657 27.0508 13.059 27.0508H18.691C18.7844 27.0508 18.8739 27.0879 18.9399 27.1539C19.0059 27.2199 19.043 27.3094 19.043 27.4028C19.043 27.4961 19.0059 27.5857 18.9399 27.6517C18.8739 27.7177 18.7844 27.7548 18.691 27.7548Z" fill="#6B6B7F"/>
<path d="M18.691 29.161H13.059C12.9657 29.161 12.8761 29.1239 12.8101 29.0579C12.7441 28.9919 12.707 28.9024 12.707 28.809C12.707 28.7157 12.7441 28.6261 12.8101 28.5601C12.8761 28.4941 12.9657 28.457 13.059 28.457H18.691C18.7844 28.457 18.8739 28.4941 18.9399 28.5601C19.0059 28.6261 19.043 28.7157 19.043 28.809C19.043 28.9024 19.0059 28.9919 18.9399 29.0579C18.8739 29.1239 18.7844 29.161 18.691 29.161Z" fill="#6B6B7F"/>
<path d="M28.1958 31.9736C30.1398 31.9736 31.7158 30.3976 31.7158 28.4536C31.7158 26.5096 30.1398 24.9336 28.1958 24.9336C26.2517 24.9336 24.6758 26.5096 24.6758 28.4536C24.6758 30.3976 26.2517 31.9736 28.1958 31.9736Z" fill="#DADAE5"/>
<path d="M28.1958 31.9736C30.1398 31.9736 31.7158 30.3976 31.7158 28.4536C31.7158 26.5096 30.1398 24.9336 28.1958 24.9336C26.2517 24.9336 24.6758 26.5096 24.6758 28.4536C24.6758 30.3976 26.2517 31.9736 28.1958 31.9736Z" fill="url(#paint3_linear_1023_92011)"/>
<path d="M28.1918 27.7548C28.3862 27.7548 28.5438 27.5972 28.5438 27.4028C28.5438 27.2084 28.3862 27.0508 28.1918 27.0508C27.9974 27.0508 27.8398 27.2084 27.8398 27.4028C27.8398 27.5972 27.9974 27.7548 28.1918 27.7548Z" fill="#BABACC"/>
<path d="M28.1918 29.8681C28.3862 29.8681 28.5438 29.7105 28.5438 29.5161C28.5438 29.3217 28.3862 29.1641 28.1918 29.1641C27.9974 29.1641 27.8398 29.3217 27.8398 29.5161C27.8398 29.7105 27.9974 29.8681 28.1918 29.8681Z" fill="#BABACC"/>
<path d="M26.7856 27.7548C26.98 27.7548 27.1376 27.5972 27.1376 27.4028C27.1376 27.2084 26.98 27.0508 26.7856 27.0508C26.5912 27.0508 26.4336 27.2084 26.4336 27.4028C26.4336 27.5972 26.5912 27.7548 26.7856 27.7548Z" fill="#BABACC"/>
<path d="M29.602 27.7548C29.7964 27.7548 29.954 27.5972 29.954 27.4028C29.954 27.2084 29.7964 27.0508 29.602 27.0508C29.4076 27.0508 29.25 27.2084 29.25 27.4028C29.25 27.5972 29.4076 27.7548 29.602 27.7548Z" fill="#BABACC"/>
<path d="M27.4907 28.8134C27.6851 28.8134 27.8427 28.6558 27.8427 28.4614C27.8427 28.267 27.6851 28.1094 27.4907 28.1094C27.2963 28.1094 27.1387 28.267 27.1387 28.4614C27.1387 28.6558 27.2963 28.8134 27.4907 28.8134Z" fill="#BABACC"/>
<path d="M28.8969 28.8134C29.0913 28.8134 29.2489 28.6558 29.2489 28.4614C29.2489 28.267 29.0913 28.1094 28.8969 28.1094C28.7025 28.1094 28.5449 28.267 28.5449 28.4614C28.5449 28.6558 28.7025 28.8134 28.8969 28.8134Z" fill="#BABACC"/>
</g>
<defs>
<linearGradient id="paint0_linear_1023_92011" x1="26.7645" y1="9.44922" x2="26.7645" y2="22.1905" gradientUnits="userSpaceOnUse">
<stop stop-color="#DADAE5"/>
<stop offset="1" stop-color="#CCCCDB"/>
</linearGradient>
<linearGradient id="paint1_linear_1023_92011" x1="17.6795" y1="20.1328" x2="17.6795" y2="31.9811" gradientUnits="userSpaceOnUse">
<stop stop-color="#BABACC"/>
<stop offset="1" stop-color="#ACACC4"/>
</linearGradient>
<linearGradient id="paint2_linear_1023_92011" x1="15.5217" y1="25.6406" x2="15.5217" y2="30.5686" gradientUnits="userSpaceOnUse">
<stop stop-color="#9797AD"/>
<stop offset="1" stop-color="#8D8DA8"/>
</linearGradient>
<linearGradient id="paint3_linear_1023_92011" x1="28.1958" y1="24.9336" x2="28.1958" y2="31.9736" gradientUnits="userSpaceOnUse">
<stop stop-color="#E3E3F3"/>
<stop offset="1" stop-color="#CCCCDB"/>
</linearGradient>
<clipPath id="clip0_1023_92011">
<rect width="22.528" height="22.528" fill="white" transform="translate(9.18555 9.44922)"/>
</clipPath>
</defs>
</svg>
