<svg width="32" height="32" viewBox="0 0 32 32" fill="none" xmlns="http://www.w3.org/2000/svg">
<path d="M17.5097 7.52473C17.5077 7.45156 17.4278 7.40391 17.365 7.44145C14.0382 9.4289 14.0998 14.4145 14.1396 15.3179C14.1426 15.386 14.0781 15.4341 14.0164 15.405C13.6321 15.224 12.5309 14.5424 12.47 12.6541C12.4677 12.5808 12.3886 12.5337 12.3256 12.5711C10.3994 13.7127 9.10742 15.8212 9.10742 18.1594C9.10742 21.7382 12.1161 24.6394 15.8274 24.6394C19.5388 24.6394 22.5474 21.7382 22.5474 18.1594C22.5474 12.9601 17.6325 11.842 17.5097 7.52473Z" fill="#FF6A49" stroke="#FF6A49" stroke-width="1.44"/>
<path d="M16.8373 13.2193C16.836 13.1754 16.7881 13.1468 16.7504 13.1694C14.7544 14.3618 14.7914 17.3532 14.8152 17.8952C14.817 17.9361 14.7783 17.9649 14.7413 17.9475C14.5107 17.8389 13.85 17.4299 13.8135 16.2969C13.8121 16.253 13.7646 16.2247 13.7268 16.2471C12.5711 16.9321 11.7959 18.1972 11.7959 19.6001C11.7959 21.7474 13.6011 23.4881 15.8279 23.4881C18.0547 23.4881 19.8599 21.7474 19.8599 19.6001C19.8599 16.4806 16.9109 15.8097 16.8373 13.2193Z" fill="#FFA06B" stroke="#FFA06B" stroke-width="0.864"/>
</svg>
