<svg width="41" height="41" viewBox="0 0 41 41" fill="none" xmlns="http://www.w3.org/2000/svg">
<rect x="0.449219" y="0.710938" width="40" height="40" rx="20" fill="#F8F8FC"/>
<path d="M20.4498 30.4815C25.8488 30.4815 30.2257 26.1047 30.2257 20.7056C30.2257 15.3065 25.8488 10.9297 20.4498 10.9297C15.0507 10.9297 10.6738 15.3065 10.6738 20.7056C10.6738 26.1047 15.0507 30.4815 20.4498 30.4815Z" fill="#ECF0F1"/>
<path d="M20.4498 30.4815C25.8488 30.4815 30.2257 26.1047 30.2257 20.7056C30.2257 15.3065 25.8488 10.9297 20.4498 10.9297C15.0507 10.9297 10.6738 15.3065 10.6738 20.7056C10.6738 26.1047 15.0507 30.4815 20.4498 30.4815Z" fill="url(#paint0_linear_1023_92020)"/>
<path fill-rule="evenodd" clip-rule="evenodd" d="M23.7914 11.5162L20.6683 13.7107C20.5387 13.8015 20.366 13.8015 20.2364 13.7107L17.1133 11.5162C19.2706 10.7342 21.634 10.7342 23.7914 11.5162Z" fill="#464F5D"/>
<path fill-rule="evenodd" clip-rule="evenodd" d="M17.7802 30.1074C17.1615 29.9341 16.5619 29.6984 15.9906 29.4041C14.4489 28.6152 13.1455 27.4293 12.2148 25.9688H16.1534C16.316 25.9688 16.4602 26.0731 16.5111 26.2275L17.7802 30.1074Z" fill="#464F5D"/>
<path fill-rule="evenodd" clip-rule="evenodd" d="M24.0823 19.6767L22.8338 23.4554C22.7828 23.6094 22.639 23.7134 22.4767 23.7136H18.4255C18.2633 23.7134 18.1194 23.6094 18.0684 23.4554L16.8217 19.6767C16.7698 19.5195 16.827 19.3468 16.9625 19.2517L20.2363 16.9475C20.3662 16.856 20.5395 16.856 20.6693 16.9475L23.9431 19.2517C24.078 19.3473 24.1345 19.5198 24.0823 19.6767Z" fill="#464F5D"/>
<path fill-rule="evenodd" clip-rule="evenodd" d="M30.2266 20.7074C30.2285 20.8177 30.2248 20.9281 30.2157 21.038L27.1679 18.7493C27.0408 18.6541 26.9874 18.4892 27.0345 18.3376L28.1593 14.6992C29.5021 16.4137 30.2301 18.5296 30.2266 20.7074Z" fill="#464F5D"/>
<path fill-rule="evenodd" clip-rule="evenodd" d="M28.6865 25.9671C27.7558 27.4277 26.4524 28.6136 24.9107 29.4025C24.3394 29.6968 23.7399 29.9325 23.1211 30.1058L24.3902 26.2236C24.4411 26.0692 24.5853 25.9649 24.7479 25.9648L28.6865 25.9671Z" fill="#464F5D"/>
<path fill-rule="evenodd" clip-rule="evenodd" d="M13.7343 18.7437L10.8935 20.8771L10.6865 21.0382C10.6627 20.0197 10.7847 19.0031 11.0488 18.0191C11.336 17.0345 11.7723 16.0998 12.3427 15.2474V15.2416C12.4749 15.0518 12.6072 14.8736 12.7452 14.6953L13.8666 18.3354C13.9163 18.4858 13.8628 18.6511 13.7343 18.7437Z" fill="#464F5D"/>
<g style="mix-blend-mode:multiply">
<path fill-rule="evenodd" clip-rule="evenodd" d="M15.3711 27.1094L18.2409 22.319L19.2277 22.9101L16.3579 27.7005L15.3711 27.1094Z" fill="#DCDAE5" fill-opacity="0.4"/>
</g>
<g style="mix-blend-mode:multiply">
<path fill-rule="evenodd" clip-rule="evenodd" d="M12.3594 18.7344L12.6837 17.6314L18.306 19.2847L17.9817 20.3876L12.3594 18.7344Z" fill="#DCDAE5" fill-opacity="0.4"/>
</g>
<g style="mix-blend-mode:multiply">
<path fill-rule="evenodd" clip-rule="evenodd" d="M21.6836 22.9336L22.6704 22.3424L25.5481 27.1461L24.5613 27.7373L21.6836 22.9336Z" fill="#DCDAE5" fill-opacity="0.4"/>
</g>
<g style="mix-blend-mode:multiply">
<path fill-rule="evenodd" clip-rule="evenodd" d="M23.1543 19.1094L27.6268 17.7942L27.9511 18.8972L23.4786 20.2123L23.1543 19.1094Z" fill="#DCDAE5" fill-opacity="0.4"/>
</g>
<g style="mix-blend-mode:multiply">
<path fill-rule="evenodd" clip-rule="evenodd" d="M19.875 12.832H21.0251V17.835H19.875V12.832Z" fill="#DCDAE5" fill-opacity="0.4"/>
</g>
<path fill-rule="evenodd" clip-rule="evenodd" d="M17.7796 30.1086C17.1609 29.9352 16.5613 29.6996 15.9901 29.4053C14.4472 28.6178 13.1435 27.4311 12.2148 25.9688H13.783C14.7389 26.8647 15.8654 27.5589 17.0953 28.0102L17.7796 30.1086Z" fill="#393F4A"/>
<path fill-rule="evenodd" clip-rule="evenodd" d="M28.6859 25.9688C27.7572 27.4311 26.4536 28.6178 24.9107 29.4053C24.3394 29.6996 23.7399 29.9352 23.1211 30.1086L23.8054 28.0102C25.0352 27.5587 26.1617 26.8644 27.1177 25.9688H28.6859Z" fill="#393F4A"/>
<defs>
<linearGradient id="paint0_linear_1023_92020" x1="17.8467" y1="14.1907" x2="20.4497" y2="30.4815" gradientUnits="userSpaceOnUse">
<stop stop-color="#EFEFEF"/>
<stop offset="1" stop-color="#D3D3D9"/>
</linearGradient>
</defs>
</svg>
