<svg width="41" height="41" viewBox="0 0 41 41" fill="none" xmlns="http://www.w3.org/2000/svg">
<g clip-path="url(#clip0_1023_92038)">
<path d="M20.4499 31.1577C26.218 31.1577 30.894 26.4817 30.894 20.7136C30.894 14.9455 26.218 10.2695 20.4499 10.2695C14.6818 10.2695 10.0059 14.9455 10.0059 20.7136C10.0059 26.4817 14.6818 31.1577 20.4499 31.1577Z" fill="url(#paint0_linear_1023_92038)"/>
<path d="M28.6607 18.4789C29.7253 20.3982 30.2159 22.583 30.0741 24.7732V24.7801C29.4363 26.2923 28.4512 27.6329 27.1985 28.6932C29.1132 26.1796 29.1829 22.5799 27.6232 19.4746C27.1101 20.761 26.7955 22.118 26.6902 23.499C26.3839 25.7619 26.0218 28.3729 24.6571 30.2737C24.6571 30.2756 24.6564 30.2773 24.6551 30.2786C24.6538 30.2799 24.652 30.2807 24.6501 30.2807C23.6054 30.7375 22.4929 31.0197 21.3568 31.1162C24.4064 29.9534 24.866 26.5835 25.3116 23.311C25.5901 21.2779 25.8616 19.3353 26.8295 18.1377C26.583 17.7896 26.318 17.4549 26.0357 17.1351C22.0866 21.1869 17.8491 24.9473 13.3566 28.3868C13.0169 28.0669 12.6961 27.7275 12.3958 27.3703C16.8798 23.9436 21.108 20.1947 25.047 16.1533C24.6805 15.8284 24.2946 15.5261 23.8912 15.2482C22.7493 16.3204 20.6466 16.4736 18.2584 16.6477C14.7213 16.9053 11.0589 17.1699 10.0215 20.2753C10.0631 19.2055 10.2698 18.1487 10.6342 17.142C12.6464 15.659 15.6125 15.4431 18.1609 15.2552C19.9573 15.1298 21.6631 14.9975 22.5892 14.4684C19.3376 12.7486 15.3967 12.3239 12.8275 13.5771C13.6247 12.7216 14.5618 12.0082 15.5986 11.4674C18.1776 11.3753 20.7367 11.9509 23.0278 13.1385C22.1276 11.9539 20.9738 10.9856 19.6509 10.3047C19.917 10.279 20.1843 10.2674 20.4516 10.2699C21.087 10.2675 21.7212 10.3258 22.3455 10.4439C23.314 11.1058 24.0727 12.0312 24.5318 13.1106C24.6222 13.4179 24.6412 13.7418 24.5875 14.0576C25.0814 14.3864 25.5535 14.7469 26.0009 15.1368C26.5718 14.4893 27.1776 13.7234 27.6371 13.1315C27.9771 13.4586 28.2979 13.805 28.598 14.169C28.1315 14.7608 27.5397 15.4919 26.9896 16.1255C27.3235 16.4892 27.6351 16.8729 27.9226 17.2743C28.3011 17.1118 28.709 17.0286 29.1209 17.0298C29.5329 17.031 29.9402 17.1166 30.3178 17.2813C30.5433 17.9224 30.7019 18.585 30.7912 19.2587C30.5351 18.9541 30.2036 18.7218 29.8298 18.585C29.456 18.4482 29.053 18.4116 28.6607 18.4789Z" fill="#B55643"/>
</g>
<defs>
<linearGradient id="paint0_linear_1023_92038" x1="20.4499" y1="10.2695" x2="20.4499" y2="31.1577" gradientUnits="userSpaceOnUse">
<stop stop-color="#E57A61"/>
<stop offset="1" stop-color="#D86C52"/>
</linearGradient>
<clipPath id="clip0_1023_92038">
<rect width="24" height="24" fill="white" transform="translate(8.44922 8.71094)"/>
</clipPath>
</defs>
</svg>
