<svg width="41" height="41" viewBox="0 0 41 41" fill="none" xmlns="http://www.w3.org/2000/svg">
<g clip-path="url(#clip0_1023_92047)">
<g clip-path="url(#clip1_1023_92047)">
<path d="M29.9994 11.1608C27.699 8.86034 23.6403 9.04623 20.5885 10.9633L16.8358 16.3348C16.6597 17.6514 16.8851 18.9904 17.4825 20.1767C17.6593 20.5404 17.7178 20.9504 17.6497 21.3491C17.5817 21.7478 17.3905 22.1152 17.103 22.3996L15.9102 23.5925L17.5677 25.25L18.7605 24.0572C19.045 23.7697 19.4124 23.5785 19.8111 23.5104C20.2098 23.4424 20.6198 23.5009 20.9835 23.6777C23.5047 24.9208 26.5294 24.58 28.8957 22.2138C31.9474 19.162 32.7452 13.9066 29.9994 11.1608ZM20.0541 21.1061C19.4164 20.513 18.9342 19.7722 18.6499 18.9491C18.3656 18.1259 18.2879 17.2454 18.4236 16.3852L18.7412 15.9282C19.9262 14.2397 20.0192 14.108 20.0192 14.108C20.0424 14.077 20.2051 13.8446 21.1849 12.4427C23.4466 10.9129 27.0019 10.3707 28.8957 12.2645C30.011 13.3799 30.2628 15.1343 30.0149 16.695C29.2287 21.8613 23.8688 24.9208 20.0541 21.1061Z" fill="url(#paint0_linear_1023_92047)"/>
<path d="M15.9066 23.5863L17.5692 25.2489C17.6418 25.3215 17.6826 25.42 17.6826 25.5227C17.6826 25.6254 17.6418 25.7239 17.5692 25.7965L11.6569 31.7088C11.5116 31.854 11.3146 31.9356 11.1092 31.9356C10.9039 31.9356 10.7069 31.854 10.5616 31.7088L9.44669 30.5938C9.30146 30.4486 9.21986 30.2516 9.21986 30.0462C9.21986 29.8408 9.30146 29.6439 9.44669 29.4986L15.359 23.5863C15.4316 23.5137 15.5301 23.4729 15.6328 23.4729C15.7355 23.4729 15.834 23.5137 15.9066 23.5863Z" fill="url(#paint1_linear_1023_92047)"/>
<path d="M10 28.9414L14.5238 24.4176L16.734 26.6277L12.2102 31.1516L10 28.9414Z" fill="url(#paint2_linear_1023_92047)"/>
<path d="M29.9973 15.5782L30.1019 15.4736C30.0985 15.1395 30.0648 14.8063 30.0012 14.4783L29.4513 15.0321L28.0648 13.6456L29.1569 12.5535C29.0767 12.4513 28.99 12.3543 28.8975 12.263C28.8053 12.1714 28.7084 12.0848 28.607 12.0036L27.5149 13.0957L26.1284 11.7092L26.6784 11.1593C26.5209 11.1279 26.3619 11.1047 26.202 11.0896C26.0297 11.0707 25.8564 11.0616 25.683 11.0625L25.5823 11.1632L25.4778 11.0586C25.1392 11.0623 24.8014 11.0908 24.467 11.1438L25.0324 11.7092L23.6459 13.0957L22.3408 11.7906C22.0945 11.9034 21.854 12.0288 21.6205 12.1662L23.0999 13.6456L21.7134 15.0321L20.3851 13.7037L19.839 14.2498L21.1674 15.5782L19.7809 16.9646L18.743 15.9267L18.4254 16.3837C18.4099 16.4766 18.3944 16.5696 18.3828 16.6625L19.231 17.5107L18.4603 18.2814C18.4913 18.4247 18.53 18.5718 18.5765 18.7151C18.6191 18.8507 18.6655 18.9862 18.7197 19.1218L19.7809 18.0606L21.1674 19.4471L19.7925 20.8219C19.8738 20.9187 19.9629 21.0117 20.0559 21.1046C20.1488 21.1976 20.2418 21.2867 20.3386 21.368L21.7134 19.9931L23.0999 21.3796L22.0387 22.4408C22.3109 22.5512 22.5921 22.638 22.8791 22.7002L23.6498 21.9295L24.5018 22.7777C24.6567 22.7583 24.8117 22.7312 24.9666 22.7002C25.1131 22.6692 25.2579 22.6305 25.4003 22.584L24.1959 21.3796L25.5785 19.997L27.2051 21.6236C27.3057 21.5423 27.4064 21.4609 27.5033 21.3719C27.6001 21.2828 27.693 21.2015 27.786 21.1085L26.1284 19.4471L27.5149 18.0606L28.9982 19.5439C29.1337 19.3077 29.2576 19.0675 29.3699 18.8236L28.0609 17.5146L29.4513 16.1281L30.0167 16.6935C30.0708 16.3605 30.1006 16.024 30.1058 15.6866L29.9973 15.5782ZM25.5823 12.2592L26.9688 13.6456L25.5823 15.0321L24.1959 13.6456L25.5823 12.2592ZM23.6459 14.1917L25.0324 15.5782L23.6459 16.9646L22.2595 15.5782L23.6459 14.1917ZM20.327 17.5107L21.7134 16.1281L23.0999 17.5146L21.7134 18.8971L20.327 17.5107ZM23.6498 20.8335L22.2634 19.4471L23.6459 18.0606L25.0324 19.4471L23.6498 20.8335ZM25.5785 18.901L24.1959 17.5146L25.5823 16.1281L26.9688 17.5146L25.5785 18.901ZM27.5149 16.9646L26.1284 15.5782L27.5149 14.1917L28.9013 15.5782L27.5149 16.9646Z" fill="#F9EAB0"/>
<path d="M17.7394 16.4515C19.6644 16.4515 21.2249 14.891 21.2249 12.966C21.2249 11.041 19.6644 9.48047 17.7394 9.48047C15.8144 9.48047 14.2539 11.041 14.2539 12.966C14.2539 14.891 15.8144 16.4515 17.7394 16.4515Z" fill="url(#paint3_linear_1023_92047)"/>
<path d="M16.1248 9.92578C15.9571 10.0096 15.8313 10.0935 15.7055 10.2193C16.0409 10.8902 16.1667 11.687 15.9571 12.4837C15.7474 13.2804 15.2442 13.9094 14.6152 14.3287C14.6991 14.4965 14.783 14.6642 14.8668 14.79C15.6216 14.3287 16.2087 13.5739 16.4603 12.6095C16.7119 11.645 16.5441 10.7225 16.1248 9.92578ZM20.8632 11.6031C20.7794 11.4354 20.6955 11.2676 20.6116 11.1418C19.8568 11.6031 19.2698 12.3579 19.0182 13.3223C18.7666 14.2868 18.8924 15.2093 19.3536 16.006C19.5214 15.9222 19.6472 15.8383 19.773 15.7125C19.4375 15.0416 19.3117 14.2449 19.5214 13.4481C19.731 12.6095 20.2342 11.9805 20.8632 11.6031Z" fill="#EEEEEF"/>
</g>
</g>
<defs>
<linearGradient id="paint0_linear_1023_92047" x1="28.6059" y1="4.29439" x2="23.7948" y2="25.25" gradientUnits="userSpaceOnUse">
<stop stop-color="#F8C059"/>
<stop offset="1" stop-color="#EFA944"/>
</linearGradient>
<linearGradient id="paint1_linear_1023_92047" x1="10.5073" y1="24.4518" x2="14.3413" y2="32.2564" gradientUnits="userSpaceOnUse">
<stop stop-color="#DDB108"/>
<stop offset="1" stop-color="#C66D08"/>
</linearGradient>
<linearGradient id="paint2_linear_1023_92047" x1="14.0769" y1="25.4058" x2="15.4074" y2="29.9296" gradientUnits="userSpaceOnUse">
<stop stop-color="#F3D55B"/>
<stop offset="1" stop-color="#E4C648"/>
</linearGradient>
<linearGradient id="paint3_linear_1023_92047" x1="17.7394" y1="9.48047" x2="17.7394" y2="16.4515" gradientUnits="userSpaceOnUse">
<stop stop-color="#71C285"/>
<stop offset="1" stop-color="#58B16E"/>
</linearGradient>
<clipPath id="clip0_1023_92047">
<rect width="24" height="24" fill="white" transform="translate(8.44922 8.71094)"/>
</clipPath>
<clipPath id="clip1_1023_92047">
<rect width="23.2368" height="23.2368" fill="white" transform="translate(8.83203 9.09375)"/>
</clipPath>
</defs>
</svg>
