<svg width="17" height="17" viewBox="0 0 17 17" fill="none" xmlns="http://www.w3.org/2000/svg">
<g clip-path="url(#clip0_1023_88918)">
<path d="M2.61391 3.44464C3.3893 3.44464 4.02015 4.0755 4.02015 4.85089V5.0722L6.17799 2.91449C6.72022 2.37225 7.60242 2.37225 8.14466 2.91449C8.27027 3.0401 8.36646 3.18414 8.43384 3.33795C8.97034 3.03363 9.66553 3.10956 10.1223 3.56634C10.3879 3.83197 10.5342 4.18499 10.5342 4.5606C10.5342 4.93634 10.3879 5.28948 10.1223 5.55499L8.79651 6.88079C8.70496 6.97234 8.58496 7.01812 8.46509 7.01812C8.3451 7.01812 8.2251 6.97246 8.13367 6.88079C7.95057 6.69781 7.95057 6.40105 8.13367 6.21795L7.47071 5.55499C7.47059 5.55511 7.47059 5.55511 7.47059 5.55511L2.94533 10.0804C2.85573 10.17 2.73573 10.2177 2.61379 10.2177C2.55336 10.2177 2.49245 10.206 2.43459 10.1819C2.25942 10.1094 2.14516 9.93852 2.14516 9.74895V7.66375C2.14516 7.4052 1.93483 7.195 1.67641 7.195C1.4175 7.195 1.20766 6.98504 1.20766 6.72625V4.85089C1.20766 4.47528 1.3539 4.12213 1.61952 3.8565C1.88515 3.59088 2.2383 3.44464 2.61391 3.44464Z" fill="#E09380"/>
<path d="M1.67519 6.25769C2.45058 6.25769 3.08144 6.88842 3.08144 7.66393V8.61742L6.80653 4.89233C7.35487 4.34399 8.24696 4.34412 8.7953 4.89233C8.91151 5.00854 9.00269 5.14026 9.06971 5.28076L9.45814 4.89233C9.72376 4.62671 10.0769 4.48047 10.4525 4.48047C10.8281 4.48047 11.1813 4.62671 11.4469 4.89233C11.694 5.1394 11.8376 5.4624 11.8564 5.80859C12.2028 5.82739 12.5256 5.97107 12.7727 6.21814C13.0383 6.48376 13.1846 6.83691 13.1846 7.21252C13.1846 7.58813 13.0383 7.94128 12.7727 8.2069L12.3843 8.59533C12.5248 8.66234 12.6565 8.75365 12.7727 8.86986C13.3209 9.41808 13.3209 10.3103 12.7727 10.8585L8.35328 15.2779C7.77455 15.8567 7.01429 16.1461 6.25404 16.1461C5.49379 16.1461 4.73366 15.8567 4.1548 15.2779L0.772363 11.8954C0.447656 11.5708 0.268946 11.1391 0.268946 10.68V7.66393C0.268946 6.88842 0.899804 6.25769 1.67519 6.25769Z" fill="#FFBEAA"/>
<path d="M12.0498 3.74218C12.3087 3.74218 12.5186 3.53234 12.5186 3.27343V1.77344C12.5186 1.51453 12.3087 1.30469 12.0498 1.30469C11.7909 1.30469 11.5811 1.51453 11.5811 1.77344V3.27343C11.5811 3.53234 11.7909 3.74218 12.0498 3.74218Z" fill="#226DE7"/>
<path d="M13.7686 4.27343C13.8886 4.27343 14.0085 4.22766 14.1 4.1361L15.225 3.01111C15.4081 2.82812 15.4081 2.53125 15.225 2.34827C15.042 2.16516 14.7451 2.16516 14.5621 2.34827L13.4371 3.47326C13.254 3.65625 13.254 3.95312 13.4371 4.1361C13.5286 4.22766 13.6486 4.27343 13.7686 4.27343Z" fill="#226DE7"/>
<path d="M14.2998 5.99219H15.7998C16.0587 5.99219 16.2686 5.78235 16.2686 5.52344C16.2686 5.26453 16.0587 5.05469 15.7998 5.05469H14.2998C14.0409 5.05469 13.8311 5.26453 13.8311 5.52344C13.8311 5.78235 14.0409 5.99219 14.2998 5.99219Z" fill="#226DE7"/>
<path d="M1.67519 6.25769C2.45058 6.25769 3.08144 6.88842 3.08144 7.66393V8.61742L6.80653 4.89233C7.35487 4.34399 8.24696 4.34412 8.79529 4.89233C8.9115 5.00854 9.00269 5.14026 9.06971 5.28076L9.45813 4.89233C9.72376 4.62671 10.0769 4.48047 10.4525 4.48047C10.8281 4.48047 11.1813 4.62671 11.4469 4.89233C11.694 5.1394 11.8376 5.4624 11.8564 5.80859L3.27101 14.394L4.15492 15.2779L0.772361 11.8954C0.447655 11.5708 0.268944 11.1391 0.268944 10.68V7.66393C0.268944 6.88842 0.899802 6.25769 1.67519 6.25769Z" fill="#FFBEAA"/>
<path d="M8.81665 11.3406C8.94465 11.4733 9.15615 11.4772 9.28888 11.3491L11.2086 9.49811C11.2953 9.41545 11.3313 9.29258 11.3027 9.17623C11.274 9.05973 11.1851 8.96764 11.07 8.93487C10.9547 8.9019 10.8306 8.93342 10.7449 9.01723L8.82519 10.8682C8.69246 10.9964 8.68854 11.2077 8.81665 11.3406Z" fill="#E09380"/>
<path d="M6.2356 8.30543C6.36359 8.43812 6.5751 8.44207 6.70783 8.31392L8.62753 6.46295C8.71426 6.38029 8.75026 6.25742 8.7216 6.14108C8.69298 6.02457 8.60406 5.93248 8.48891 5.89972C8.37365 5.86675 8.24953 5.89827 8.16383 5.98207L6.24413 7.83304C6.1114 7.9612 6.10749 8.17254 6.2356 8.30543Z" fill="#E09380"/>
<path d="M7.43082 9.90105C7.55877 10.0339 7.77033 10.0377 7.90301 9.9097L11.2623 6.66998C11.349 6.58732 11.385 6.46445 11.3564 6.34811C11.3277 6.23176 11.2388 6.13967 11.1235 6.1067C11.0082 6.07389 10.8843 6.1053 10.7984 6.18906L7.43931 9.42882C7.30663 9.55682 7.30267 9.76832 7.43082 9.90105Z" fill="#E09380"/>
<path d="M15.2256 2.34827L13.4377 4.13623C13.2546 3.95312 13.2546 3.65637 13.4377 3.47326L14.5627 2.34827C14.7457 2.16516 15.0426 2.16516 15.2256 2.34827Z" fill="#226DE7"/>
</g>
<defs>
<clipPath id="clip0_1023_88918">
<rect width="16" height="16" fill="white" transform="translate(0.268555 0.710938)"/>
</clipPath>
</defs>
</svg>
