<svg width="17" height="17" viewBox="0 0 17 17" fill="none" xmlns="http://www.w3.org/2000/svg">
<g clip-path="url(#clip0_1023_89503)">
<path d="M11.9799 5.68201C10.8482 4.69161 9.87073 3.83636 9.87073 1.792C9.87073 1.55892 9.73056 1.34832 9.51489 1.25938C9.29868 1.16875 9.0515 1.21941 8.88653 1.38438C7.46149 2.80941 6.60793 4.65391 6.44127 6.63977L4.93967 5.88868C4.76005 5.80028 4.54834 5.80874 4.37888 5.91401C4.20883 6.01925 4.10525 6.20452 4.10525 6.40439C4.10525 7.13295 3.86652 7.61099 3.5895 8.16444C3.29054 8.76182 2.95215 9.43915 2.95215 10.4402C2.95215 13.6191 5.53874 16.2057 8.71764 16.2057C11.8965 16.2057 14.4831 13.6191 14.4831 10.4402C14.4831 7.8722 13.1532 6.709 11.9799 5.68201ZM8.71764 13.8995C7.44573 13.8995 6.41144 12.8652 6.41144 11.5933C6.41144 10.474 7.975 8.67453 8.28861 8.32545C8.50708 8.08222 8.92823 8.08222 9.14667 8.32545C9.46027 8.67453 11.0238 10.474 11.0238 11.5933C11.0238 12.8652 9.98954 13.8995 8.71764 13.8995Z" fill="url(#paint0_linear_1023_89503)"/>
</g>
<defs>
<linearGradient id="paint0_linear_1023_89503" x1="8.71764" y1="16.2057" x2="8.71764" y2="1.21483" gradientUnits="userSpaceOnUse">
<stop stop-color="#FF5A4B"/>
<stop offset="1" stop-color="#FFAF3E"/>
</linearGradient>
<clipPath id="clip0_1023_89503">
<rect width="16" height="15.9992" fill="white" transform="translate(0.717773 0.710938)"/>
</clipPath>
</defs>
</svg>
