<svg width="25" height="25" viewBox="0 0 25 25" fill="none" xmlns="http://www.w3.org/2000/svg">
<path d="M18.7504 23.0116H7.17564C6.95513 23.0116 6.77637 22.8044 6.77637 22.5488C6.77637 22.2932 6.95513 22.0859 7.17564 22.0859H18.7504C18.9709 22.0859 19.1497 22.2932 19.1497 22.5488C19.1497 22.8044 18.9709 23.0116 18.7504 23.0116Z" fill="#94B6E4"/>
<path d="M20.834 21.7821H15.0506L11.493 18.2239L7.45469 7.72516C7.02702 6.61317 7.38324 4.80592 7.38324 4.80592L10.0638 3.46534L10.8938 3.05064L12.8253 2.08486C13.0212 1.98692 13.2604 2.0504 13.3799 2.23386C13.7393 2.7853 13.7887 3.49611 13.4862 4.10156L13.4843 4.10525C13.3739 4.32557 13.3189 4.56623 13.3189 4.80629C13.3189 5.04634 13.3738 5.2864 13.4843 5.50733C13.833 6.20462 14.642 6.53973 15.3819 6.29291L16.0484 6.07078C16.6118 5.88316 17.2326 6.02944 17.6522 6.44969L18.8845 7.68141L16.9672 15.3489L17.4757 17.381C17.6077 17.9104 17.912 18.3609 18.3193 18.6787C18.3372 18.6929 18.3551 18.7064 18.3736 18.7194C18.7716 19.0125 19.261 19.1823 19.7824 19.1823C20.2662 19.1823 20.7093 19.3563 21.053 19.6451C21.4707 19.9954 21.7412 20.5158 21.7587 21.0993C21.7594 21.1193 21.345 21.7821 20.834 21.7821Z" fill="#22A7FF"/>
<path d="M20.834 21.7821H15.0506L11.493 18.2239L7.45469 7.72516C7.02702 6.61317 7.38324 4.80592 7.38324 4.80592L10.0638 3.46534L10.8938 3.05064L12.8253 2.08486C13.0212 1.98692 13.2604 2.0504 13.3799 2.23386C13.7393 2.7853 13.7887 3.49611 13.4862 4.10156L13.4843 4.10525C13.3739 4.32557 13.3189 4.56623 13.3189 4.80629C13.3189 5.04634 13.3738 5.2864 13.4843 5.50733C13.833 6.20462 14.642 6.53973 15.3819 6.29291L16.0484 6.07078C16.6118 5.88316 17.2326 6.02944 17.6522 6.44969L18.8845 7.68141L16.9672 15.3489L17.4757 17.381C17.6077 17.9104 17.912 18.3609 18.3193 18.6787C18.3372 18.6929 18.3551 18.7064 18.3736 18.7194C18.7716 19.0125 19.261 19.1823 19.7824 19.1823C20.2662 19.1823 20.7093 19.3563 21.053 19.6451C21.4707 19.9954 21.7412 20.5158 21.7587 21.0993C21.7594 21.1193 21.345 21.7821 20.834 21.7821Z" fill="url(#paint0_linear_1023_90213)"/>
<path d="M7.68037 5.58212L13.569 2.61763C13.5201 2.48324 13.4567 2.35349 13.3772 2.23183C13.2578 2.04935 13.0189 1.98749 12.8239 2.08495L10.8924 3.05073L10.0624 3.46543L7.38184 4.80601L7.68037 5.58212Z" fill="#0280D4"/>
<path d="M18.4024 10.0585H16.9648C16.7092 10.0585 16.502 9.85129 16.502 9.59567C16.502 9.34004 16.7092 9.13281 16.9648 9.13281H18.4024C18.6581 9.13281 18.8653 9.34004 18.8653 9.59567C18.8653 9.85135 18.6581 10.0585 18.4024 10.0585Z" fill="#FEF1DA"/>
<path d="M17.9249 11.9765H16.4873C16.2316 11.9765 16.0244 11.7693 16.0244 11.5136C16.0244 11.258 16.2316 11.0508 16.4873 11.0508H17.9249C18.1805 11.0508 18.3877 11.258 18.3877 11.5136C18.3877 11.7693 18.1805 11.9765 17.9249 11.9765Z" fill="#FEF1DA"/>
<path d="M17.4483 13.8945H16.0106C15.755 13.8945 15.5479 13.6872 15.5479 13.4316C15.5479 13.176 15.7551 12.9688 16.0106 12.9688H17.4483C17.7039 12.9688 17.9111 13.176 17.9111 13.4316C17.9111 13.6872 17.7039 13.8945 17.4483 13.8945Z" fill="#FEF1DA"/>
<path d="M16.9679 15.8124H15.5302C15.2746 15.8124 15.0674 15.6052 15.0674 15.3496C15.0674 15.0939 15.2746 14.8867 15.5302 14.8867H16.9679C17.2235 14.8867 17.4307 15.0939 17.4307 15.3496C17.4307 15.6052 17.2235 15.8124 16.9679 15.8124Z" fill="#FEF1DA"/>
<path d="M21.0507 19.6445H16.9648C16.7093 19.6445 16.502 19.4377 16.502 19.1816C16.502 18.9261 16.7093 18.7188 16.9648 18.7188H18.3712C18.7692 19.0119 19.2586 19.1816 19.78 19.1816C20.2639 19.1816 20.7069 19.3556 21.0507 19.6445Z" fill="#0280D4"/>
<path d="M5.60039 23.0116H3.68356C3.42793 23.0116 3.2207 22.8044 3.2207 22.5488C3.2207 22.2932 3.42793 22.0859 3.68356 22.0859H5.60045C5.85607 22.0859 6.0633 22.2932 6.0633 22.5488C6.0633 22.8044 5.85601 23.0116 5.60039 23.0116Z" fill="#94B6E4"/>
<path d="M10.7414 18.6835H7.86617C7.61055 18.6835 7.40332 18.4763 7.40332 18.2207C7.40332 17.965 7.61055 17.7578 7.86617 17.7578H10.7414C10.997 17.7578 11.2043 17.965 11.2043 18.2207C11.2043 18.4763 10.997 18.6835 10.7414 18.6835Z" fill="#94B6E4"/>
<path d="M5.94322 18.6835H4.02633C3.7707 18.6835 3.56348 18.4763 3.56348 18.2207C3.56348 17.965 3.7707 17.7578 4.02633 17.7578H5.94322C6.19885 17.7578 6.40608 17.965 6.40608 18.2207C6.40608 18.4763 6.19885 18.6835 5.94322 18.6835Z" fill="#94B6E4"/>
<path d="M6.31611 13.8984H2.48239C2.22676 13.8984 2.01953 13.6911 2.01953 13.4355C2.01953 13.1799 2.22676 12.9727 2.48239 12.9727H6.31611C6.57173 12.9727 6.77896 13.1799 6.77896 13.4355C6.77896 13.6911 6.57173 13.8984 6.31611 13.8984Z" fill="#94B6E4"/>
<path d="M10.1704 12.0562C9.77699 12.6723 9.43356 11.5051 9.56132 11.2841C10.8967 8.96879 11.1146 6.20971 10.1581 3.71416L10.0624 3.46548L10.8924 3.05078C10.8992 3.06436 10.9054 3.07794 10.911 3.09212L11.0221 3.3828C12.0791 6.14062 12.0105 9.17409 10.1704 12.0562Z" fill="#FFAA5C"/>
<path d="M10.1704 12.0562C9.77699 12.6723 9.43356 11.5051 9.56132 11.2841C10.8967 8.96879 11.1146 6.20971 10.1581 3.71416L10.0624 3.46548L10.8924 3.05078C10.8992 3.06436 10.9054 3.07794 10.911 3.09212L11.0221 3.3828C12.0791 6.14062 12.0105 9.17409 10.1704 12.0562Z" fill="url(#paint1_linear_1023_90213)"/>
<path d="M10.912 3.09212C10.9064 3.07794 10.9003 3.06436 10.8935 3.05078L10.0635 3.46548L10.1591 3.71417C10.225 3.88585 10.2846 4.05892 10.3394 4.2329L11.1775 3.81374C11.1288 3.66945 11.0778 3.52564 11.0231 3.38275L10.912 3.09212Z" fill="#E37A19"/>
<path d="M6.21912 7.72405L10.257 18.2226L15.0492 23.0148H20.8325C21.3437 23.0148 21.7582 22.6003 21.7582 22.0891C21.7582 22.0891 21.7572 21.1179 21.7566 21.0979H16.391C16.1456 21.0979 15.9101 21.0004 15.7365 20.8268L12.3129 17.4031C12.2213 17.3115 12.1499 17.2018 12.1035 17.0809L9.74266 10.9428L7.38186 4.80469L7.34409 4.82358C6.27814 5.35655 5.79132 6.61181 6.21912 7.72405Z" fill="#FDE6BF"/>
<path d="M6.21912 7.72405L10.257 18.2226L15.0492 23.0148H20.8325C21.3437 23.0148 21.7582 22.6003 21.7582 22.0891C21.7582 22.0891 21.7572 21.1179 21.7566 21.0979H16.391C16.1456 21.0979 15.9101 21.0004 15.7365 20.8268L12.3129 17.4031C12.2213 17.3115 12.1499 17.2018 12.1035 17.0809L9.74266 10.9428L7.38186 4.80469L7.34409 4.82358C6.27814 5.35655 5.79132 6.61181 6.21912 7.72405Z" fill="url(#paint2_linear_1023_90213)"/>
<path d="M7.42604 7.72405C7.1432 6.98867 7.26045 6.19096 7.68022 5.58068L7.38174 4.80469L7.34397 4.82358C6.27814 5.35655 5.79133 6.61181 6.21912 7.72405L10.2571 18.2227L15.0492 23.0148H16.2561L11.464 18.2227L7.42604 7.72405Z" fill="#FDD79B"/>
<defs>
<linearGradient id="paint0_linear_1023_90213" x1="14.5014" y1="2.03906" x2="14.5014" y2="21.7821" gradientUnits="userSpaceOnUse">
<stop stop-color="#4EB7FC"/>
<stop offset="1" stop-color="#219CEE"/>
</linearGradient>
<linearGradient id="paint1_linear_1023_90213" x1="10.6223" y1="3.05078" x2="10.6223" y2="12.2338" gradientUnits="userSpaceOnUse">
<stop stop-color="#EF8E36"/>
<stop offset="1" stop-color="#FFAA5C"/>
</linearGradient>
<linearGradient id="paint2_linear_1023_90213" x1="13.9113" y1="4.80469" x2="13.9113" y2="23.0148" gradientUnits="userSpaceOnUse">
<stop stop-color="#FDE6BF"/>
<stop offset="1" stop-color="#F9E0B5"/>
</linearGradient>
</defs>
</svg>
