<svg width="41" height="41" viewBox="0 0 41 41" fill="none" xmlns="http://www.w3.org/2000/svg">
<rect x="0.449219" y="0.710938" width="40" height="40" rx="20" fill="#F8F8FC"/>
<g clip-path="url(#clip0_1023_92056)">
<path d="M14.4847 14.9102C13.7563 15.8615 13.3475 17.0188 13.3168 18.2166C13.3607 19.4447 13.5715 20.6611 13.9433 21.8324C14.4615 23.3793 14.3068 24.261 13.6764 25.4289L9.49987 29.3077C9.33104 29.463 9.23305 29.6806 9.22867 29.9099C9.22429 30.1393 9.31389 30.3604 9.47667 30.522L10.6291 31.6745C10.7915 31.8372 11.0132 31.9268 11.2431 31.9224C11.473 31.918 11.6912 31.8201 11.8473 31.6513L15.7261 27.4747L15.7338 27.4708C16.9017 26.8482 17.7834 26.6974 19.3303 27.2117C20.5016 27.5835 21.718 27.7942 22.9461 27.8382L17.3503 16.8399L14.4847 14.9102Z" fill="url(#paint0_linear_1023_92056)"/>
<path d="M18.947 11.0962C19.5468 10.748 20.1637 10.4305 20.7956 10.1448C24.0904 8.65595 26.4958 9.86252 28.9051 12.2679C31.3144 14.6733 32.517 17.0748 31.0282 20.3658C29.5393 23.6568 26.5461 27.8489 22.9457 27.8373L19.0283 23.9237L17.2339 22.1293L13.3164 18.2157C13.3471 17.0179 13.7559 15.8606 14.4843 14.9092L18.947 11.0962Z" fill="url(#paint1_linear_1023_92056)"/>
<path d="M13.6761 25.4272C14.3064 24.2593 14.4611 23.3776 13.9429 21.8307C13.5711 20.6594 13.3604 19.4429 13.3164 18.2148L17.2339 22.1284L13.6761 25.4272Z" fill="url(#paint2_linear_1023_92056)"/>
<path d="M22.9487 27.8394C21.7206 27.7954 20.5041 27.5847 19.3328 27.2129C17.7859 26.6986 16.9042 26.8494 15.7363 27.472L19.0312 23.9258L22.9487 27.8394Z" fill="url(#paint3_linear_1023_92056)"/>
<path d="M23.543 14.9102C23.542 16.3894 22.4941 17.6609 21.0423 17.9445C19.5906 18.2281 18.1412 17.4443 17.5836 16.0742V16.0703C17.4328 15.7022 17.3553 15.3081 17.3555 14.9102C17.3555 13.2015 18.7406 11.8164 20.4492 11.8164C21.0111 11.8153 21.5624 11.9692 22.0425 12.2611H22.0464C22.9758 12.8201 23.5439 13.8256 23.543 14.9102Z" fill="url(#paint4_linear_1023_92056)"/>
</g>
<defs>
<linearGradient id="paint0_linear_1023_92056" x1="18.4099" y1="22.4593" x2="10.2567" y2="29.8506" gradientUnits="userSpaceOnUse">
<stop stop-color="#DBA77C"/>
<stop offset="1" stop-color="#CF976A"/>
</linearGradient>
<linearGradient id="paint1_linear_1023_92056" x1="22.499" y1="9.49219" x2="22.499" y2="27.8373" gradientUnits="userSpaceOnUse">
<stop stop-color="#E64C3C"/>
<stop offset="1" stop-color="#CE3828"/>
</linearGradient>
<linearGradient id="paint2_linear_1023_92056" x1="15.2751" y1="18.2148" x2="15.2751" y2="25.4272" gradientUnits="userSpaceOnUse">
<stop stop-color="#D9986D"/>
<stop offset="1" stop-color="#BC7547"/>
</linearGradient>
<linearGradient id="paint3_linear_1023_92056" x1="19.3425" y1="23.9258" x2="19.3425" y2="27.8394" gradientUnits="userSpaceOnUse">
<stop stop-color="#D9986D"/>
<stop offset="1" stop-color="#BC7547"/>
</linearGradient>
<linearGradient id="paint4_linear_1023_92056" x1="20.4492" y1="14.5577" x2="20.4492" y2="18.0022" gradientUnits="userSpaceOnUse">
<stop stop-color="#F9F4D3"/>
<stop offset="1" stop-color="#E3DCB2"/>
</linearGradient>
<clipPath id="clip0_1023_92056">
<rect width="22.4298" height="22.4298" fill="white" transform="translate(9.23438 9.49609)"/>
</clipPath>
</defs>
</svg>
