<svg width="41" height="41" viewBox="0 0 41 41" fill="none" xmlns="http://www.w3.org/2000/svg">
<rect x="0.449219" y="0.710938" width="40" height="40" rx="20" fill="#F8F8FC"/>
<g clip-path="url(#clip0_1023_92029)">
<path d="M30.0039 11.1577C29.7104 10.8641 29.3602 10.6333 28.9746 10.4794C28.589 10.3256 28.1761 10.2519 27.7611 10.2628C27.3461 10.2737 26.9377 10.369 26.5607 10.5429C26.1837 10.7168 25.8461 10.9656 25.5684 11.2743L17.0251 20.7667C16.6335 21.2011 16.417 21.7654 16.4173 22.3503C16.4179 22.5755 16.3739 22.7986 16.2877 23.0067C16.2015 23.2148 16.075 23.4037 15.9154 23.5626L11.4237 28.0542C11.3625 28.1155 11.3281 28.1985 11.3281 28.2851C11.3281 28.3717 11.3625 28.4548 11.4237 28.516L12.6452 29.7375C12.7064 29.7987 12.7895 29.8331 12.8761 29.8331C12.9627 29.8331 13.0458 29.7987 13.107 29.7375L17.5986 25.2459C17.7575 25.0862 17.9464 24.9597 18.1545 24.8735C18.3626 24.7874 18.5857 24.7433 18.8109 24.7439C19.3958 24.7443 19.9601 24.5277 20.3946 24.1361L29.887 15.5928C30.1956 15.3152 30.4444 14.9776 30.6183 14.6006C30.7922 14.2237 30.8875 13.8153 30.8985 13.4004C30.9094 12.9854 30.8357 12.5725 30.6819 12.187C30.5281 11.8014 30.2974 11.4512 30.0039 11.1577Z" fill="#DADAE5"/>
<path d="M30.0039 11.1577C29.7104 10.8641 29.3602 10.6333 28.9746 10.4794C28.589 10.3256 28.1761 10.2519 27.7611 10.2628C27.3461 10.2737 26.9377 10.369 26.5607 10.5429C26.1837 10.7168 25.8461 10.9656 25.5684 11.2743L17.0251 20.7667C16.6335 21.2011 16.417 21.7654 16.4173 22.3503C16.4179 22.5755 16.3739 22.7986 16.2877 23.0067C16.2015 23.2148 16.075 23.4037 15.9154 23.5626L11.4237 28.0542C11.3625 28.1155 11.3281 28.1985 11.3281 28.2851C11.3281 28.3717 11.3625 28.4548 11.4237 28.516L12.6452 29.7375C12.7064 29.7987 12.7895 29.8331 12.8761 29.8331C12.9627 29.8331 13.0458 29.7987 13.107 29.7375L17.5986 25.2459C17.7575 25.0862 17.9464 24.9597 18.1545 24.8735C18.3626 24.7874 18.5857 24.7433 18.8109 24.7439C19.3958 24.7443 19.9601 24.5277 20.3946 24.1361L29.887 15.5928C30.1956 15.3152 30.4444 14.9776 30.6183 14.6006C30.7922 14.2237 30.8875 13.8153 30.8985 13.4004C30.9094 12.9854 30.8357 12.5725 30.6819 12.187C30.5281 11.8014 30.2974 11.4512 30.0039 11.1577Z" fill="url(#paint0_linear_1023_92029)"/>
<path d="M13.2078 29.3801L11.7826 27.9548C11.6854 27.8577 11.57 27.7806 11.443 27.728C11.316 27.6754 11.1799 27.6484 11.0425 27.6484C10.905 27.6485 10.7689 27.6756 10.642 27.7282C10.515 27.7808 10.3996 27.8579 10.3025 27.9551C10.2053 28.0523 10.1282 28.1677 10.0757 28.2947C10.0231 28.4217 9.99606 28.5578 9.99609 28.6953C9.99612 28.8327 10.0232 28.9688 10.0758 29.0958C10.1285 29.2227 10.2056 29.3381 10.3028 29.4353L11.7274 30.8599C11.9236 31.0561 12.1898 31.1663 12.4673 31.1663C12.7448 31.1663 13.0109 31.0561 13.2072 30.8599C13.4034 30.6636 13.5137 30.3975 13.5137 30.12C13.5137 29.8424 13.4034 29.5763 13.2072 29.3801H13.2078Z" fill="#BABACC"/>
<path d="M13.0234 26.4531L14.7065 24.7701L16.3895 26.4531L14.7065 28.1362L13.0234 26.4531Z" fill="#EF405C"/>
<path d="M25.9983 29.5357C27.8021 29.5357 29.2643 28.0735 29.2643 26.2698C29.2643 24.4661 27.8021 23.0039 25.9983 23.0039C24.1946 23.0039 22.7324 24.4661 22.7324 26.2698C22.7324 28.0735 24.1946 29.5357 25.9983 29.5357Z" fill="#DADAE5"/>
<path d="M25.9983 29.5357C27.8021 29.5357 29.2643 28.0735 29.2643 26.2698C29.2643 24.4661 27.8021 23.0039 25.9983 23.0039C24.1946 23.0039 22.7324 24.4661 22.7324 26.2698C22.7324 28.0735 24.1946 29.5357 25.9983 29.5357Z" fill="url(#paint1_linear_1023_92029)"/>
<path d="M28.5776 28.2693C28.443 28.4393 28.2932 28.5967 28.1301 28.7396C27.7702 28.435 27.4809 28.0557 27.2823 27.6281C27.0838 27.2004 26.9808 26.7346 26.9805 26.2631C26.9802 25.7916 27.0826 25.3257 27.2805 24.8978C27.4785 24.4698 27.7673 24.0902 28.1269 23.7852C28.291 23.9291 28.4419 24.0876 28.5776 24.2587C28.2823 24.5029 28.0446 24.8092 27.8814 25.1558C27.7182 25.5025 27.6336 25.8809 27.6336 26.264C27.6336 26.6471 27.7182 27.0255 27.8814 27.3722C28.0446 27.7188 28.2823 28.0251 28.5776 28.2693Z" fill="#EF405C"/>
<path d="M27.6341 26.5985H26.9809C26.8943 26.5985 26.8112 26.5641 26.75 26.5028C26.6887 26.4416 26.6543 26.3585 26.6543 26.2719C26.6543 26.1853 26.6887 26.1022 26.75 26.041C26.8112 25.9797 26.8943 25.9453 26.9809 25.9453H27.6341C27.7207 25.9453 27.8038 25.9797 27.865 26.041C27.9263 26.1022 27.9607 26.1853 27.9607 26.2719C27.9607 26.3585 27.9263 26.4416 27.865 26.5028C27.8038 26.5641 27.7207 26.5985 27.6341 26.5985Z" fill="#CE2C4B"/>
<path d="M27.8859 25.4802C27.8377 25.4797 27.7902 25.4685 27.7468 25.4475L27.156 25.1689C27.0776 25.132 27.0172 25.0654 26.9879 24.9838C26.9587 24.9023 26.963 24.8124 27 24.7341C27.037 24.6557 27.1036 24.5953 27.1851 24.566C27.2667 24.5368 27.3565 24.5412 27.4349 24.5781L28.0253 24.857C28.0917 24.8892 28.1452 24.9427 28.1772 25.0091C28.2092 25.0755 28.2178 25.1507 28.2017 25.2226C28.1855 25.2945 28.1455 25.3588 28.0882 25.4051C28.0309 25.4514 27.9596 25.4769 27.8859 25.4776V25.4802Z" fill="#CE2C4B"/>
<path d="M27.2923 27.987C27.218 27.9872 27.1458 27.962 27.0877 27.9157C27.0296 27.8693 26.9891 27.8045 26.9728 27.732C26.9565 27.6595 26.9654 27.5836 26.9981 27.5168C27.0308 27.4501 27.0852 27.3965 27.1525 27.3649L27.7433 27.0863C27.7823 27.0665 27.8248 27.0547 27.8684 27.0516C27.912 27.0485 27.9558 27.0542 27.9971 27.0684C28.0385 27.0825 28.0766 27.1048 28.1091 27.134C28.1417 27.1631 28.1681 27.1985 28.1867 27.238C28.2054 27.2775 28.2159 27.3204 28.2177 27.3641C28.2195 27.4078 28.2125 27.4513 28.1971 27.4922C28.1817 27.5332 28.1583 27.5706 28.1282 27.6023C28.0981 27.634 28.062 27.6593 28.0219 27.6768L27.4314 27.9557C27.3879 27.9762 27.3404 27.9869 27.2923 27.987Z" fill="#CE2C4B"/>
<path d="M25.0189 26.264C25.02 26.7357 24.9179 27.202 24.7199 27.6302C24.5219 28.0584 24.2327 28.4381 23.8726 28.7428C23.7084 28.5988 23.5576 28.4403 23.4219 28.2693C23.7171 28.0251 23.9549 27.7188 24.118 27.3722C24.2812 27.0255 24.3658 26.6471 24.3658 26.264C24.3658 25.8809 24.2812 25.5025 24.118 25.1558C23.9549 24.8092 23.7171 24.5029 23.4219 24.2587C23.557 24.0861 23.7091 23.9275 23.8758 23.7852C24.2353 24.0902 24.5238 24.4701 24.7213 24.8983C24.9187 25.3264 25.0203 25.7925 25.0189 26.264Z" fill="#EF405C"/>
<path d="M25.0188 26.5907H24.3657C24.279 26.5907 24.196 26.5563 24.1347 26.495C24.0735 26.4338 24.0391 26.3507 24.0391 26.2641C24.0391 26.1775 24.0735 26.0944 24.1347 26.0332C24.196 25.9719 24.279 25.9375 24.3657 25.9375H25.0188C25.1055 25.9375 25.1885 25.9719 25.2498 26.0332C25.311 26.0944 25.3454 26.1775 25.3454 26.2641C25.3454 26.3507 25.311 26.4338 25.2498 26.495C25.1885 26.5563 25.1055 26.5907 25.0188 26.5907Z" fill="#CE2C4B"/>
<path d="M24.1186 25.4737C24.045 25.473 23.9737 25.4475 23.9163 25.4012C23.859 25.3549 23.819 25.2906 23.8029 25.2187C23.7867 25.1468 23.7953 25.0716 23.8273 25.0052C23.8594 24.9388 23.9129 24.8853 23.9792 24.8531L24.5697 24.5742C24.648 24.5372 24.7378 24.5329 24.8194 24.5621C24.9009 24.5914 24.9675 24.6518 25.0045 24.7302C25.0415 24.8085 25.0459 24.8984 25.0166 24.9799C24.9874 25.0615 24.9269 25.1281 24.8486 25.165L24.2578 25.4436C24.2142 25.4637 24.1667 25.474 24.1186 25.4737Z" fill="#CE2C4B"/>
<path d="M24.7069 27.9883C24.6587 27.9878 24.6112 27.9767 24.5678 27.9557L23.9773 27.6768C23.9373 27.6593 23.9011 27.634 23.871 27.6023C23.8409 27.5706 23.8175 27.5332 23.8021 27.4922C23.7867 27.4513 23.7797 27.4078 23.7815 27.3641C23.7833 27.3204 23.7938 27.2775 23.8125 27.238C23.8311 27.1985 23.8575 27.1631 23.8901 27.134C23.9227 27.1048 23.9607 27.0825 24.0021 27.0684C24.0434 27.0542 24.0872 27.0485 24.1308 27.0516C24.1744 27.0547 24.2169 27.0665 24.2559 27.0863L24.8467 27.3649C24.914 27.3965 24.9684 27.4501 25.0011 27.5168C25.0338 27.5836 25.0427 27.6595 25.0264 27.732C25.0101 27.8045 24.9696 27.8693 24.9115 27.9157C24.8534 27.962 24.7813 27.9872 24.7069 27.987V27.9883Z" fill="#CE2C4B"/>
</g>
<defs>
<linearGradient id="paint0_linear_1023_92029" x1="30.5163" y1="4.29925" x2="14.4136" y2="35.4476" gradientUnits="userSpaceOnUse">
<stop stop-color="#E2E2E7"/>
<stop offset="1" stop-color="#CCCCDB"/>
</linearGradient>
<linearGradient id="paint1_linear_1023_92029" x1="27.2699" y1="21.9418" x2="25.9983" y2="29.5357" gradientUnits="userSpaceOnUse">
<stop stop-color="#EBEBEF"/>
<stop offset="1" stop-color="#CCCCDB"/>
</linearGradient>
<clipPath id="clip0_1023_92029">
<rect width="20.9019" height="20.9019" fill="white" transform="translate(9.99805 10.2578)"/>
</clipPath>
</defs>
</svg>
