<svg width="41" height="41" viewBox="0 0 41 41" fill="none" xmlns="http://www.w3.org/2000/svg">
<rect x="0.449219" y="0.710938" width="40" height="40" rx="20" fill="#F8F8FC"/>
<path d="M26.5932 31.1952H15.0184C14.7979 31.1952 14.6191 30.988 14.6191 30.7324C14.6191 30.4768 14.7979 30.2695 15.0184 30.2695H26.5932C26.8137 30.2695 26.9925 30.4768 26.9925 30.7324C26.9925 30.988 26.8137 31.1952 26.5932 31.1952Z" fill="#94B6E4"/>
<path d="M28.6758 29.9657H22.8924L19.3348 26.4075L15.2965 15.9088C14.8688 14.7968 15.225 12.9895 15.225 12.9895L17.9056 11.6489L18.7356 11.2342L20.6671 10.2685C20.863 10.1705 21.1022 10.234 21.2217 10.4174C21.5811 10.9689 21.6305 11.6797 21.328 12.2852L21.3261 12.2888C21.2157 12.5092 21.1607 12.7498 21.1607 12.9899C21.1607 13.2299 21.2156 13.47 21.3261 13.6909C21.6748 14.3882 22.4838 14.7233 23.2237 14.4765L23.8902 14.2544C24.4536 14.0668 25.0744 14.213 25.494 14.6333L26.7263 15.865L24.809 23.5325L25.3175 25.5645C25.4495 26.094 25.7538 26.5445 26.1611 26.8623C26.179 26.8765 26.1968 26.89 26.2154 26.903C26.6134 27.1961 27.1028 27.3659 27.6242 27.3659C28.108 27.3659 28.5511 27.5399 28.8948 27.8287C29.3125 28.179 29.583 28.6994 29.6005 29.2829C29.6011 29.3029 29.1868 29.9657 28.6758 29.9657Z" fill="#22A7FF"/>
<path d="M28.6758 29.9657H22.8924L19.3348 26.4075L15.2965 15.9088C14.8688 14.7968 15.225 12.9895 15.225 12.9895L17.9056 11.6489L18.7356 11.2342L20.6671 10.2685C20.863 10.1705 21.1022 10.234 21.2217 10.4174C21.5811 10.9689 21.6305 11.6797 21.328 12.2852L21.3261 12.2888C21.2157 12.5092 21.1607 12.7498 21.1607 12.9899C21.1607 13.2299 21.2156 13.47 21.3261 13.6909C21.6748 14.3882 22.4838 14.7233 23.2237 14.4765L23.8902 14.2544C24.4536 14.0668 25.0744 14.213 25.494 14.6333L26.7263 15.865L24.809 23.5325L25.3175 25.5645C25.4495 26.094 25.7538 26.5445 26.1611 26.8623C26.179 26.8765 26.1968 26.89 26.2154 26.903C26.6134 27.1961 27.1028 27.3659 27.6242 27.3659C28.108 27.3659 28.5511 27.5399 28.8948 27.8287C29.3125 28.179 29.583 28.6994 29.6005 29.2829C29.6011 29.3029 29.1868 29.9657 28.6758 29.9657Z" fill="url(#paint0_linear_1023_91952)"/>
<path d="M15.5212 13.7657L21.4098 10.8012C21.3609 10.6668 21.2975 10.5371 21.218 10.4154C21.0987 10.2329 20.8597 10.1711 20.6647 10.2685L18.7332 11.2343L17.9032 11.649L15.2227 12.9896L15.5212 13.7657Z" fill="#0280D4"/>
<path d="M26.2442 18.2421H24.8066C24.551 18.2421 24.3438 18.0349 24.3438 17.7793C24.3438 17.5236 24.551 17.3164 24.8066 17.3164H26.2442C26.4999 17.3164 26.7071 17.5236 26.7071 17.7793C26.7071 18.0349 26.4999 18.2421 26.2442 18.2421Z" fill="#FEF1DA"/>
<path d="M25.7677 20.1601H24.33C24.0744 20.1601 23.8672 19.9529 23.8672 19.6972C23.8672 19.4416 24.0744 19.2344 24.33 19.2344H25.7677C26.0233 19.2344 26.2305 19.4416 26.2305 19.6972C26.2305 19.9529 26.0233 20.1601 25.7677 20.1601Z" fill="#FEF1DA"/>
<path d="M25.2891 22.0781H23.8515C23.5958 22.0781 23.3887 21.8708 23.3887 21.6152C23.3887 21.3596 23.5959 21.1523 23.8515 21.1523H25.2891C25.5447 21.1523 25.7519 21.3596 25.7519 21.6152C25.7519 21.8708 25.5447 22.0781 25.2891 22.0781Z" fill="#FEF1DA"/>
<path d="M24.8087 23.996H23.3711C23.1154 23.996 22.9082 23.7888 22.9082 23.5332C22.9082 23.2775 23.1154 23.0703 23.3711 23.0703H24.8087C25.0643 23.0703 25.2715 23.2775 25.2715 23.5332C25.2715 23.7888 25.0643 23.996 24.8087 23.996Z" fill="#FEF1DA"/>
<path d="M28.8925 27.8281H24.8066C24.5511 27.8281 24.3438 27.6213 24.3438 27.3652C24.3438 27.1097 24.5511 26.9023 24.8066 26.9023H26.213C26.611 27.1954 27.1004 27.3652 27.6218 27.3652C28.1057 27.3652 28.5487 27.5392 28.8925 27.8281Z" fill="#0280D4"/>
<path d="M13.4422 31.1952H11.5254C11.2697 31.1952 11.0625 30.988 11.0625 30.7324C11.0625 30.4768 11.2697 30.2695 11.5254 30.2695H13.4422C13.6979 30.2695 13.9051 30.4768 13.9051 30.7324C13.9051 30.988 13.6978 31.1952 13.4422 31.1952Z" fill="#94B6E4"/>
<path d="M18.5842 26.8671H15.7089C15.4533 26.8671 15.2461 26.6599 15.2461 26.4043C15.2461 26.1486 15.4533 25.9414 15.7089 25.9414H18.5842C18.8398 25.9414 19.047 26.1486 19.047 26.4043C19.047 26.6599 18.8398 26.8671 18.5842 26.8671Z" fill="#94B6E4"/>
<path d="M13.786 26.8671H11.8691C11.6135 26.8671 11.4062 26.6599 11.4062 26.4043C11.4062 26.1486 11.6135 25.9414 11.8691 25.9414H13.786C14.0416 25.9414 14.2488 26.1486 14.2488 26.4043C14.2488 26.6599 14.0416 26.8671 13.786 26.8671Z" fill="#94B6E4"/>
<path d="M14.1579 22.082H10.3242C10.0686 22.082 9.86133 21.8747 9.86133 21.6191C9.86133 21.3635 10.0686 21.1562 10.3242 21.1562H14.1579C14.4135 21.1562 14.6208 21.3635 14.6208 21.6191C14.6208 21.8747 14.4135 22.082 14.1579 22.082Z" fill="#94B6E4"/>
<path d="M18.0132 20.2397C17.6198 20.8559 17.2763 19.6887 17.4041 19.4677C18.7395 17.1524 18.9573 14.3933 18.0009 11.8978L17.9052 11.6491L18.7352 11.2344C18.742 11.248 18.7482 11.2615 18.7537 11.2757L18.8648 11.5664C19.9218 14.3242 19.8533 17.3577 18.0132 20.2397Z" fill="#FFAA5C"/>
<path d="M18.0132 20.2397C17.6198 20.8559 17.2763 19.6887 17.4041 19.4677C18.7395 17.1524 18.9573 14.3933 18.0009 11.8978L17.9052 11.6491L18.7352 11.2344C18.742 11.248 18.7482 11.2615 18.7537 11.2757L18.8648 11.5664C19.9218 14.3242 19.8533 17.3577 18.0132 20.2397Z" fill="url(#paint1_linear_1023_91952)"/>
<path d="M18.7528 11.2757C18.7473 11.2615 18.7411 11.248 18.7343 11.2344L17.9043 11.6491L17.9999 11.8978C18.0658 12.0694 18.1255 12.2425 18.1802 12.4165L19.0183 11.9973C18.9696 11.853 18.9187 11.7092 18.8639 11.5663L18.7528 11.2757Z" fill="#E37A19"/>
<path d="M14.0609 15.9076L18.0988 26.4062L22.891 31.1984H28.6743C29.1855 31.1984 29.6 30.7839 29.6 30.2727C29.6 30.2727 29.599 29.3015 29.5984 29.2815H24.2328C23.9874 29.2815 23.7519 29.184 23.5783 29.0104L20.1547 25.5867C20.063 25.4951 19.9917 25.3853 19.9453 25.2645L17.5845 19.1264L15.2237 12.9883L15.1859 13.0072C14.1199 13.5401 13.6331 14.7954 14.0609 15.9076Z" fill="#FDE6BF"/>
<path d="M14.0609 15.9076L18.0988 26.4062L22.891 31.1984H28.6743C29.1855 31.1984 29.6 30.7839 29.6 30.2727C29.6 30.2727 29.599 29.3015 29.5984 29.2815H24.2328C23.9874 29.2815 23.7519 29.184 23.5783 29.0104L20.1547 25.5867C20.063 25.4951 19.9917 25.3853 19.9453 25.2645L17.5845 19.1264L15.2237 12.9883L15.1859 13.0072C14.1199 13.5401 13.6331 14.7954 14.0609 15.9076Z" fill="url(#paint2_linear_1023_91952)"/>
<path d="M15.2678 15.9076C14.985 15.1723 15.1022 14.3746 15.522 13.7643L15.2235 12.9883L15.1858 13.0072C14.1199 13.5401 13.6331 14.7954 14.0609 15.9076L18.0988 26.4063L22.891 31.1984H24.0979L19.3058 26.4063L15.2678 15.9076Z" fill="#FDD79B"/>
<defs>
<linearGradient id="paint0_linear_1023_91952" x1="22.3432" y1="10.2227" x2="22.3432" y2="29.9657" gradientUnits="userSpaceOnUse">
<stop stop-color="#4EB7FC"/>
<stop offset="1" stop-color="#219CEE"/>
</linearGradient>
<linearGradient id="paint1_linear_1023_91952" x1="18.4651" y1="11.2344" x2="18.4651" y2="20.4174" gradientUnits="userSpaceOnUse">
<stop stop-color="#EF8E36"/>
<stop offset="1" stop-color="#FFAA5C"/>
</linearGradient>
<linearGradient id="paint2_linear_1023_91952" x1="21.7531" y1="12.9883" x2="21.7531" y2="31.1984" gradientUnits="userSpaceOnUse">
<stop stop-color="#FDE6BF"/>
<stop offset="1" stop-color="#F9E0B5"/>
</linearGradient>
</defs>
</svg>
