<svg width="41" height="41" viewBox="0 0 41 41" fill="none" xmlns="http://www.w3.org/2000/svg">
<g clip-path="url(#clip0_1023_92002)">
<path d="M23.5462 12.8156C23.5462 12.8695 23.5232 12.9205 23.4843 12.9577C22.6034 13.8008 21.3384 13.3764 20.2979 13.1575C19.8803 13.0697 19.4292 13.026 19.0391 13.1963V9.82327C19.4292 9.65291 19.8803 9.69662 20.2979 9.78447C21.2481 9.98436 22.3858 10.3557 23.2469 9.77634C23.3745 9.69052 23.5462 9.78442 23.5462 9.93818V12.8156Z" fill="url(#paint0_linear_1023_92002)"/>
<path d="M18.9475 16.7746C18.7942 16.7746 18.6699 16.6288 18.6699 16.4488V10.0328C18.6699 9.85287 18.7942 9.70703 18.9475 9.70703C19.1009 9.70703 19.2252 9.85287 19.2252 10.0328V16.4488C19.2252 16.6288 19.1009 16.7746 18.9475 16.7746Z" fill="#537983"/>
<path d="M18.7171 15.7363L16.3821 19.6592C16.3394 19.7309 16.2885 19.7974 16.2304 19.8573L15.7727 20.3291C15.7142 20.3893 15.663 20.4563 15.6202 20.5285L10.0249 29.9597C9.60096 30.6743 10.1159 31.5786 10.9468 31.5786H27.1252C27.956 31.5786 28.471 30.6742 28.047 29.9597L22.5555 20.7035C22.4949 20.6013 22.4177 20.5099 22.327 20.433L21.6951 19.897C21.594 19.8112 21.5097 19.7074 21.4464 19.5908L19.3548 15.7363C19.2112 15.4942 18.8607 15.4942 18.7171 15.7363Z" fill="#D5E3F4"/>
<path d="M18.7171 15.7363L16.3821 19.6592C16.3394 19.7309 16.2885 19.7974 16.2304 19.8573L15.7727 20.3291C15.7142 20.3893 15.663 20.4563 15.6202 20.5285L10.0249 29.9597C9.60096 30.6743 10.1159 31.5786 10.9468 31.5786H27.1252C27.956 31.5786 28.471 30.6742 28.047 29.9597L22.5555 20.7035C22.4949 20.6013 22.4177 20.5099 22.327 20.433L21.6951 19.897C21.594 19.8112 21.5097 19.7074 21.4464 19.5908L19.3548 15.7363C19.2112 15.4942 18.8607 15.4942 18.7171 15.7363Z" fill="url(#paint1_linear_1023_92002)"/>
<path d="M22.4653 20.5509L21.2719 19.95C21.1018 19.8643 20.9011 19.8643 20.7309 19.95L19.3078 20.6665C19.1377 20.7522 18.937 20.7522 18.7668 20.6665L17.3437 19.95C17.1736 19.8643 16.9729 19.8643 16.8027 19.95L15.6094 20.5509L18.7184 15.3105C18.862 15.0684 19.2125 15.0684 19.3561 15.3105L22.4653 20.5509Z" fill="#A1D6AB"/>
<path d="M25.0652 21.7402L23.7581 23.7839C23.7268 23.8328 23.6916 23.8791 23.6528 23.9223L23.2416 24.3805C23.1948 24.4327 23.1533 24.4893 23.1175 24.5495L19.9077 29.9598C19.4838 30.6743 19.9988 31.5786 20.8296 31.5786H29.9385C30.7693 31.5786 31.2843 30.6743 30.8604 29.9598L27.6494 24.5476C27.6145 24.4886 27.5739 24.4331 27.5283 24.3819L27.1175 23.9203C27.0802 23.8784 27.0463 23.8337 27.016 23.7865L25.7029 21.7402C25.5593 21.4981 25.2088 21.4981 25.0652 21.7402Z" fill="#98BCE5"/>
<path d="M25.0652 21.7402L23.7581 23.7839C23.7268 23.8328 23.6916 23.8791 23.6528 23.9223L23.2416 24.3805C23.1948 24.4327 23.1533 24.4893 23.1175 24.5495L19.9077 29.9598C19.4838 30.6743 19.9988 31.5786 20.8296 31.5786H29.9385C30.7693 31.5786 31.2843 30.6743 30.8604 29.9598L27.6494 24.5476C27.6145 24.4886 27.5739 24.4331 27.5283 24.3819L27.1175 23.9203C27.0802 23.8784 27.0463 23.8337 27.016 23.7865L25.7029 21.7402C25.5593 21.4981 25.2088 21.4981 25.0652 21.7402Z" fill="url(#paint2_linear_1023_92002)"/>
<path d="M27.5974 24.4598L26.8271 24.0719C26.7173 24.0166 26.5878 24.0166 26.4779 24.0719L25.5593 24.5344C25.4494 24.5897 25.3199 24.5897 25.21 24.5344L24.2914 24.0719C24.1816 24.0166 24.052 24.0166 23.9422 24.0719L23.1719 24.4598L25.0658 21.2675C25.2094 21.0254 25.5599 21.0254 25.7035 21.2675L27.5974 24.4598Z" fill="#C8DF9A"/>
</g>
<defs>
<linearGradient id="paint0_linear_1023_92002" x1="19.6545" y1="9.70703" x2="22.7334" y2="12.1812" gradientUnits="userSpaceOnUse">
<stop stop-color="#F47C7C"/>
<stop offset="1" stop-color="#EC6767"/>
</linearGradient>
<linearGradient id="paint1_linear_1023_92002" x1="19.036" y1="15.5547" x2="19.036" y2="31.5786" gradientUnits="userSpaceOnUse">
<stop stop-color="#4BB065"/>
<stop offset="1" stop-color="#3D9954"/>
</linearGradient>
<linearGradient id="paint2_linear_1023_92002" x1="25.3841" y1="21.5586" x2="25.3841" y2="31.5786" gradientUnits="userSpaceOnUse">
<stop stop-color="#99B94E"/>
<stop offset="1" stop-color="#80B739"/>
</linearGradient>
<clipPath id="clip0_1023_92002">
<rect width="24" height="24" fill="white" transform="translate(8.44922 8.71094)"/>
</clipPath>
</defs>
</svg>
