<svg width="41" height="41" viewBox="0 0 41 41" fill="none" xmlns="http://www.w3.org/2000/svg">
<g clip-path="url(#clip0_1023_91984)">
<g clip-path="url(#clip1_1023_91984)">
<path d="M25.6712 20.1791C24.5522 19.5887 23.3197 18.8523 22.0375 17.9339C20.3614 16.7333 18.994 15.5039 17.9047 14.3935C17.6662 14.1904 17.3108 14.2114 17.0966 14.44C16.9327 14.615 16.7405 14.8844 16.5419 15.2989C15.9987 16.4327 16.1822 17.4281 16.1822 17.4281L25.2554 20.4043L25.6712 20.1791Z" fill="#0280D4"/>
<path d="M32.2889 23.2513V23.0484C32.2889 21.95 31.5212 21.0009 30.4467 20.7708L27.9235 20.5242C24.869 20.2255 21.9213 19.2417 19.3001 17.646L17.9679 16.835C17.5364 16.5723 16.9797 16.6485 16.6348 17.0174C15.3268 18.4163 13.1328 18.4932 11.73 17.1894L11.4291 16.8407C11.1629 16.5322 10.66 16.6463 10.553 17.0394L10.1446 18.54C9.97473 19.1638 9.88867 19.8075 9.88867 20.4541V23.0717V25.3881L31.1707 25.0109L32.2889 23.2513Z" fill="#22A7FF"/>
<path d="M32.2889 23.2513V23.0484C32.2889 21.95 31.5212 21.0009 30.4467 20.7708L27.9235 20.5242C24.869 20.2255 21.9213 19.2417 19.3001 17.646L17.9679 16.835C17.5364 16.5723 16.9797 16.6485 16.6348 17.0174C15.3268 18.4163 13.1328 18.4932 11.73 17.1894L11.4291 16.8407C11.1629 16.5322 10.66 16.6463 10.553 17.0394L10.1446 18.54C9.97473 19.1638 9.88867 19.8075 9.88867 20.4541V23.0717V25.3881L31.1707 25.0109L32.2889 23.2513Z" fill="url(#paint0_linear_1023_91984)"/>
<path d="M31.2584 21.7434C31.0387 20.8109 28.0805 20.4544 26.916 20.425C31.4479 20.2043 32.5506 21.3803 32.3205 23.1843L31.5252 23.5518C31.6168 23.3272 31.4782 22.6758 31.2584 21.7434Z" fill="#0280D4"/>
<path d="M18.3597 23.8948C18.3597 21.0401 13.624 18.9681 12.6998 18.8281C12.6998 18.8281 12.6234 19.1068 12.5941 19.2892C12.5601 19.5011 12.5488 19.8369 12.5488 19.8369C16.8499 21.2034 17.7497 23.8528 17.308 25.1569C17.5785 25.7823 18.3597 26.1786 18.3597 23.8948Z" fill="#FAA251"/>
<path d="M12.5164 23.0756V20.458C12.5164 19.8114 12.6024 19.1677 12.7723 18.5439L12.9403 17.9266C12.5022 17.773 12.0878 17.5294 11.7261 17.1933L11.4252 16.8446C11.159 16.5361 10.6561 16.6502 10.5491 17.0433L10.1407 18.5439C9.97083 19.1677 9.88477 19.8114 9.88477 20.458V23.0756V25.392L12.5164 25.3453V23.0756Z" fill="#0280D4"/>
<path d="M12.7117 18.8137C11.7959 18.6258 10.6308 18.4678 10.163 18.4769C9.95423 18.9562 9.90804 19.4818 9.93449 19.5938C10.9746 19.6146 12.1314 19.7405 12.5562 19.8271L12.7117 18.8137Z" fill="#D87923"/>
<path d="M22.2742 19.92C22.0948 20.084 21.8176 20.0964 21.623 19.9385C21.4091 19.7647 21.3766 19.4505 21.5504 19.2363L22.5903 17.9563C22.7641 17.7424 23.0785 17.7097 23.2923 17.8835C23.5065 18.0573 23.5389 18.3716 23.3651 18.5855L22.3254 19.8657C22.3095 19.8854 22.2922 19.9035 22.2742 19.92Z" fill="#FEF1DA"/>
<path d="M20.6257 19.0294C20.4463 19.1933 20.1691 19.2057 19.9747 19.048C19.7607 18.8741 19.7282 18.5598 19.9021 18.3458L20.9418 17.0656C21.1158 16.8519 21.43 16.8191 21.6439 16.9928C21.8579 17.1668 21.8904 17.481 21.7166 17.6948L20.6767 18.9752C20.661 18.9947 20.6438 19.0129 20.6257 19.0294Z" fill="#FEF1DA"/>
<path d="M18.8308 18.2755C18.6514 18.4395 18.3742 18.4518 18.1798 18.2941C17.9658 18.1202 17.9333 17.806 18.1072 17.5919L19.147 16.3117C19.3209 16.0977 19.6351 16.0652 19.849 16.239C20.063 16.4129 20.0955 16.7271 19.9219 16.9412L18.8818 18.2214C18.8659 18.241 18.8489 18.259 18.8308 18.2755Z" fill="#FEF1DA"/>
<path d="M31.1243 24.062C26.712 25.503 23.4992 25.2349 21.3321 24.6802C19.0739 24.1021 16.9513 22.949 13.3073 22.8472C11.9002 22.8079 10.7198 22.9328 9.89436 23.0584C9.73344 23.0829 9.59436 23.1831 9.51931 23.3274L8.45117 25.3828C8.45117 26.3706 9.25227 27.1713 10.2404 27.1713H15.7032C15.8712 27.1713 16.016 27.0373 16.0123 26.8694C16.008 26.6707 16.1889 26.5205 16.3826 26.5598L19.7918 27.1535C19.86 27.1653 19.9291 27.1713 19.9983 27.1713H26.6176C26.8417 27.1713 27.0647 27.139 27.2795 27.0753L31.2763 25.8907C31.9732 25.6842 32.4512 25.0441 32.4512 24.3176V24.1373V23.3968C32.4512 23.2502 32.3077 23.1465 32.1685 23.1924L32.0977 23.2157C31.6727 23.3557 31.3219 23.6606 31.1243 24.062C30.7641 24.7933 30.404 25.5246 30.0439 26.256L31.1243 24.062Z" fill="#FDE6BF"/>
<path d="M31.1243 24.062C26.712 25.503 23.4992 25.2349 21.3321 24.6802C19.0739 24.1021 16.9513 22.949 13.3073 22.8472C11.9002 22.8079 10.7198 22.9328 9.89436 23.0584C9.73344 23.0829 9.59436 23.1831 9.51931 23.3274L8.45117 25.3828C8.45117 26.3706 9.25227 27.1713 10.2404 27.1713H15.7032C15.8712 27.1713 16.016 27.0373 16.0123 26.8694C16.008 26.6707 16.1889 26.5205 16.3826 26.5598L19.7918 27.1535C19.86 27.1653 19.9291 27.1713 19.9983 27.1713H26.6176C26.8417 27.1713 27.0647 27.139 27.2795 27.0753L31.2763 25.8907C31.9732 25.6842 32.4512 25.0441 32.4512 24.3176V24.1373V23.3968C32.4512 23.2502 32.3077 23.1465 32.1685 23.1924L32.0977 23.2157C31.6727 23.3557 31.3219 23.6606 31.1243 24.062C30.7641 24.7933 30.404 25.5246 30.0439 26.256L31.1243 24.062Z" fill="url(#paint1_linear_1023_91984)"/>
<path d="M11.7838 25.3945L12.9705 23.1109C13.3612 23.0461 13.8539 22.9769 14.4282 22.9262C14.0715 22.8933 13.7005 22.8698 13.3112 22.8589C11.9041 22.8196 10.7237 22.9445 9.89827 23.0701C9.73734 23.0947 9.59827 23.1948 9.52322 23.3392L8.45508 25.3945C8.45508 26.3823 9.25617 27.183 10.2443 27.183H13.5731C12.5849 27.183 11.7838 26.3822 11.7838 25.3945Z" fill="#FDD79B"/>
<path d="M32.334 23.161C32.1463 23.2378 31.7192 23.4306 31.5143 23.5931C31.3808 24.3585 31.0833 25.5357 30.9512 26.0287C31.3992 25.9007 31.6296 25.7855 32.1033 25.3502C32.5769 24.915 32.4617 24.0962 32.4617 23.5931C32.4617 23.1906 32.3766 23.1373 32.334 23.161Z" fill="#FDD79B"/>
<path d="M12.2899 25.3867H8.45117C8.45117 26.3745 9.25227 27.1752 10.2404 27.1752H14.0791C14.0791 26.1875 13.278 25.3867 12.2899 25.3867Z" fill="#FFAA5C"/>
<path d="M12.2899 25.3867H8.45117C8.45117 26.3745 9.25227 27.1752 10.2404 27.1752H14.0791C14.0791 26.1875 13.278 25.3867 12.2899 25.3867Z" fill="#FDD79B"/>
<path d="M11.7799 25.3867H8.45117C8.45117 26.3745 9.25227 27.1752 10.2404 27.1752H13.5692C12.581 27.1752 11.7799 26.3745 11.7799 25.3867Z" fill="#F1C176"/>
</g>
</g>
<defs>
<linearGradient id="paint0_linear_1023_91984" x1="21.0888" y1="16.6641" x2="21.0888" y2="25.3881" gradientUnits="userSpaceOnUse">
<stop stop-color="#4EB7FC"/>
<stop offset="1" stop-color="#219CEE"/>
</linearGradient>
<linearGradient id="paint1_linear_1023_91984" x1="20.4512" y1="22.8398" x2="20.4512" y2="27.1713" gradientUnits="userSpaceOnUse">
<stop stop-color="#FDE6BF"/>
<stop offset="1" stop-color="#F9E0B5"/>
</linearGradient>
<clipPath id="clip0_1023_91984">
<rect width="24" height="24" fill="white" transform="translate(8.44922 8.71094)"/>
</clipPath>
<clipPath id="clip1_1023_91984">
<rect width="24" height="24" fill="white" transform="translate(8.44922 8.71094)"/>
</clipPath>
</defs>
</svg>
