<svg width="17" height="17" viewBox="0 0 17 17" fill="none" xmlns="http://www.w3.org/2000/svg">
<path d="M8.21831 2.62891C7.01529 2.62891 5.83929 2.98564 4.83902 3.654C3.83874 4.32236 3.05913 5.27233 2.59875 6.38377C2.13838 7.49521 2.01792 8.71821 2.25262 9.89811C2.48732 11.078 3.06662 12.1618 3.91729 13.0125C4.76795 13.8631 5.85176 14.4425 7.03166 14.6772C8.21156 14.9118 9.43456 14.7914 10.546 14.331C11.6574 13.8706 12.6074 13.091 13.2758 12.0908C13.9441 11.0905 14.3009 9.91448 14.3009 8.71147C14.3009 7.09827 13.66 5.55115 12.5193 4.41045C11.3786 3.26975 9.8315 2.62891 8.21831 2.62891ZM10.0498 10.543C9.987 10.6063 9.91225 10.6566 9.8299 10.6909C9.74754 10.7252 9.6592 10.7429 9.56998 10.7429C9.48077 10.7429 9.39243 10.7252 9.31007 10.6909C9.22772 10.6566 9.15297 10.6063 9.09014 10.543L7.73846 9.19131C7.67582 9.12816 7.62627 9.05327 7.59263 8.97093C7.559 8.88858 7.54195 8.80041 7.54246 8.71147V6.00811C7.54246 5.82886 7.61367 5.65696 7.74041 5.53022C7.86716 5.40347 8.03906 5.33227 8.21831 5.33227C8.39755 5.33227 8.56945 5.40347 8.6962 5.53022C8.82294 5.65696 8.89415 5.82886 8.89415 6.00811V8.43437L10.0498 9.5833C10.1132 9.64613 10.1635 9.72088 10.1978 9.80323C10.2321 9.88559 10.2497 9.97393 10.2497 10.0631C10.2497 10.1524 10.2321 10.2407 10.1978 10.3231C10.1635 10.4054 10.1132 10.4802 10.0498 10.543Z" fill="#BEBEC7"/>
</svg>
